<svg width="40" height="40" viewBox="0 0 40 40" fill="none" xmlns="http://www.w3.org/2000/svg">
<circle cx="20" cy="20" r="20" fill="#FFF9E1"/>
<path d="M30.5465 22.799C30.54 21.0862 29.3024 19.6592 27.6744 19.3569C27.3712 17.7245 25.9376 16.4844 24.2188 16.4844C22.5209 16.4844 21.1005 17.6941 20.7739 19.2969H17.8887C18.3311 18.7089 18.5938 17.9783 18.5938 17.1875C18.5938 15.249 17.0166 13.6719 15.0781 13.6719C13.1396 13.6719 11.5625 15.249 11.5625 17.1875C11.5625 17.9986 11.8393 18.7458 12.3024 19.3413C9.87664 19.6648 8 21.7286 8 24.2188V31.2969C8 31.6852 8.31481 32 8.70312 32H17.1875H31.2969C31.6852 32 32 31.6852 32 31.2969V25.625C32 24.4809 31.4425 23.4554 30.5465 22.799ZM27.6428 20.7939C28.2842 20.9886 28.7973 21.4808 29.0202 22.1094H28.4375H27.0293C27.319 21.7244 27.5306 21.278 27.6428 20.7939ZM24.2188 17.8906C25.3819 17.8906 26.3281 18.8369 26.3281 20C26.3281 21.1631 25.3819 22.1094 24.2188 22.1094C23.0556 22.1094 22.1094 21.1631 22.1094 20C22.1094 18.8369 23.0556 17.8906 24.2188 17.8906ZM15.0781 15.0781C16.2412 15.0781 17.1875 16.0244 17.1875 17.1875C17.1875 18.3506 16.2412 19.2969 15.0781 19.2969C13.915 19.2969 12.9688 18.3506 12.9688 17.1875C12.9688 16.0244 13.915 15.0781 15.0781 15.0781ZM16.4844 25.625V30.5938H12.2656V25.625C12.2656 25.2367 11.9508 24.9219 11.5625 24.9219C11.1742 24.9219 10.8594 25.2367 10.8594 25.625V30.5938H9.40625V24.2188C9.40625 22.2802 11.0044 20.7031 12.9688 20.7031H20.7739C20.8797 21.2224 21.1004 21.7004 21.4081 22.1094H20C18.0615 22.1094 16.4844 23.6865 16.4844 25.625ZM30.5938 30.5938H29.1406V25.625C29.1406 25.2367 28.8258 24.9219 28.4375 24.9219C28.0492 24.9219 27.7344 25.2367 27.7344 25.625V30.5938H20.7031V25.625C20.7031 25.2367 20.3883 24.9219 20 24.9219C19.6117 24.9219 19.2969 25.2367 19.2969 25.625V30.5938H17.8906V25.625C17.8906 24.4619 18.8369 23.5156 20 23.5156H28.4375C29.6063 23.5156 30.5938 24.4816 30.5938 25.625V30.5938Z" fill="#FFA600"/>
<path d="M22.4477 8C21.7686 8 21.1711 8.27628 20.7034 8.80273C20.2358 8.27628 19.6382 8 18.9591 8C17.5868 8 16.5117 9.14056 16.5117 10.5966C16.5117 12.125 17.7 13.1279 19.3447 14.5161C19.6317 14.7583 19.9284 15.0088 20.2429 15.2813C20.3751 15.3958 20.5392 15.4531 20.7034 15.4531C20.8676 15.4531 21.0318 15.3958 21.1639 15.2813C21.4784 15.0088 21.7751 14.7583 22.062 14.5162C23.6542 13.1724 24.8951 12.1541 24.8951 10.5966C24.8951 9.14056 23.8201 8 22.4477 8ZM21.155 13.4416C21.0075 13.5661 20.8575 13.6927 20.7034 13.8237C20.5493 13.6926 20.3993 13.566 20.2517 13.4415C18.6756 12.1112 17.918 11.4345 17.918 10.5966C17.918 10.0051 18.2756 9.40625 18.9591 9.40625C19.7142 9.40625 20.0061 10.3368 20.0264 10.4045C20.1081 10.7126 20.3845 10.9273 20.7034 10.9273C21.0224 10.9273 21.2988 10.7127 21.3805 10.4045C21.4007 10.3368 21.6927 9.40625 22.4477 9.40625C23.1313 9.40625 23.4889 10.0051 23.4889 10.5966C23.4889 11.4603 22.6341 12.1932 21.155 13.4416Z" fill="#FFA600"/>
</svg>
