<svg width="40" height="40" viewBox="0 0 40 40" fill="none"
  xmlns="http://www.w3.org/2000/svg">
  <g clip-path="url(#clip0)">
    <path d="M35.9459 26.7948V20.6163H25.5066C28.4418 17.6982 27.9543 14.7937 27.9761 10.9855L28.1158 10.1819C28.7616 6.83649 26.3377 3.42645 23.026 2.72621C20.6274 -1.22783 14.4698 -0.793179 12.6909 3.4617C9.00621 4.85131 8.35193 9.6866 11.5623 11.9428C11.5624 11.9429 11.5624 11.9429 11.5625 11.943V14.7543C11.5625 17.0486 12.5093 19.1255 14.0321 20.6163H3.66576V26.8316C-0.481257 27.548 -0.478209 33.3825 3.66576 34.0973V40H35.9459V34.134C40.6114 33.7752 40.6078 27.1519 35.9459 26.7948ZM13.8688 5.54701L14.5378 5.38834L14.7262 4.72711C15.1287 3.31398 16.4942 2.32681 18.0472 2.32681C19.4111 2.32681 20.6476 3.08887 21.1971 4.26831L21.4644 4.842L22.0904 4.93345C24.2312 5.20365 25.9873 7.12944 25.8601 9.27993L20.9431 7.44552L20.4155 7.91917C19.7299 8.53647 18.8019 8.85717 17.8604 8.80785L17.1922 8.77346L16.8232 9.3323C15.4195 11.4366 11.957 10.5977 11.8343 8.06376C11.8038 6.8726 12.6409 5.83776 13.8688 5.54701ZM13.9073 14.7543V12.8417C15.5746 13.0501 17.302 12.3898 18.3802 11.148C19.4736 11.0878 20.5179 10.7314 21.4034 10.1202L25.6311 11.6966L25.6313 11.6967V14.7543C25.3092 22.5317 14.2277 22.5281 13.9073 14.7543ZM2.88416 30.4644C2.88416 29.9267 3.2054 29.4632 3.66576 29.2545C3.83224 29.1779 4.01826 29.1357 4.21288 29.1357H6.32321C7.05557 29.1357 7.65193 29.7321 7.65193 30.4644C7.65193 31.1968 7.05557 31.7932 6.32321 31.7932H4.21288C4.01826 31.7932 3.83224 31.7509 3.66576 31.6744C3.2054 31.4657 2.88416 31.0022 2.88416 30.4644ZM33.6011 37.6552H17.2247L20.0872 32.0469L22.475 31.6184L22.0607 29.3106L19.8297 29.711L19.0298 28.0113L16.9081 29.0096L17.9139 31.1469L14.592 37.6552H6.01057V34.138C8.14035 34.2886 10.0062 32.6166 9.99673 30.4645C10.0062 28.3126 8.14035 26.6401 6.01057 26.791V22.9611H23.144L20.6425 26.1448L22.4863 27.5935L26.126 22.9611H33.6011V26.7925C28.8304 27.0751 28.8341 33.8556 33.6011 34.1364V37.6552ZM35.9459 31.7838C35.9925 31.8051 33.7132 31.7878 33.6792 31.7932C32.9542 31.7954 32.3484 31.1977 32.3505 30.4644C32.3505 29.7586 32.9047 29.1787 33.6011 29.1381C33.702 29.1364 35.8856 29.1266 35.9459 29.1451C37.4998 29.3675 37.5004 31.5613 35.9459 31.7838Z" fill="#008444"/>
  </g>
  <defs>
    <clipPath id="clip0">
      <rect width="40" height="40" fill="white"/>
    </clipPath>
  </defs>
</svg>
