<svg width="181" height="200" viewBox="0 0 181 200" fill="none" xmlns="http://www.w3.org/2000/svg">
<g clip-path="url(#clip0)">
<path d="M90.333 196.913C140.039 196.913 180.333 156.387 180.333 106.396C180.333 56.4043 140.039 15.8783 90.333 15.8783C40.6274 15.8783 0.333008 56.4043 0.333008 106.396C0.333008 156.387 40.6274 196.913 90.333 196.913Z" fill="#E6F6EC"/>
<path d="M105.918 9.61406C105.918 9.61406 105.606 -2.16043 85.7806 0.35151C65.9554 2.86345 61.2735 29.2382 56.2783 34.4196C51.2831 39.601 54.718 43.3695 54.718 43.3695C54.718 43.3695 50.0349 44.7824 45.8193 52.6321C41.6037 60.4817 47.8482 71.7849 47.8482 71.7849C47.8482 71.7849 47.6928 74.9245 39.2627 81.989C30.8326 89.0534 31.1459 100.829 43.3217 100.358C55.4976 99.8864 55.9651 120.296 77.0385 122.965C98.1119 125.635 122.307 111.509 122.931 111.032C123.555 110.555 134.638 115.271 142.755 105.224C150.872 95.1775 136.043 85.5987 136.043 85.5987C136.043 85.5987 138.697 63.7753 126.678 57.8087C114.659 51.8421 113.411 34.8874 113.878 26.5664C114.346 18.2453 105.918 9.61406 105.918 9.61406Z" fill="#212121"/>
<path d="M74.3881 13.7155C71.4976 19.6475 68.2795 25.4123 64.7489 30.9829C59.596 38.9005 61.314 43.7955 61.314 43.7955" stroke="#424242" stroke-width="0.1" stroke-linecap="round" stroke-linejoin="round"/>
<path d="M59.5251 46.1476C59.5251 46.1476 48.5025 54.5939 54.4433 68.3434" stroke="#424242" stroke-width="0.1" stroke-linecap="round" stroke-linejoin="round"/>
<path d="M68.6862 35.9208C68.6862 35.9208 65.752 42.3564 67.0406 48.6893C63.7673 52.7582 61.885 57.7797 61.6729 63.0092" stroke="#424242" stroke-width="0.1" stroke-linecap="round" stroke-linejoin="round"/>
<path d="M66.897 59.2717C66.897 59.2717 66.509 60.7216 66.1008 62.9471C65.0808 68.5888 62.1252 73.6918 57.749 77.3672C53.4776 80.9365 48.8206 86.1262 48.1455 92.1644" stroke="#424242" stroke-width="0.1" stroke-linecap="round" stroke-linejoin="round"/>
<path d="M77.0591 49.7514C77.0591 49.7514 71.9097 56.9734 72.2657 69.8541" stroke="#424242" stroke-width="0.1" stroke-linecap="round" stroke-linejoin="round"/>
<path d="M108.91 45.5425C108.91 45.5425 109.333 52.866 117.423 61.144C125.514 69.4221 123.868 81.1512 123.868 81.1512" stroke="#424242" stroke-width="0.1" stroke-linecap="round" stroke-linejoin="round"/>
<path d="M127.16 66.255C127.16 66.255 130.81 69.9603 129.594 84.4484C132.237 86.1719 134.437 88.5005 136.014 91.2435C137.59 93.9866 138.499 97.0661 138.664 100.23" stroke="#424242" stroke-width="0.1" stroke-linecap="round" stroke-linejoin="round"/>
<path d="M47.7142 183.508C47.7142 183.508 46.4648 191.044 46.4648 192.928C46.4648 194.813 75.3941 201.092 94.5418 199.835C106.387 199.01 118.11 196.905 129.507 193.556L129.09 184.765L47.7142 183.508Z" fill="#212121"/>
<path d="M55.1577 185.387L54.0127 194.097" stroke="#FFB900" stroke-width="0.965" stroke-linecap="round" stroke-linejoin="round"/>
<path d="M64.8914 186.465L64.1035 195.751" stroke="#FFB900" stroke-width="0.965" stroke-linecap="round" stroke-linejoin="round"/>
<path d="M77.2731 187.474L76.5576 196.975" stroke="#FFB900" stroke-width="0.965" stroke-linecap="round" stroke-linejoin="round"/>
<path d="M90.0135 187.834L89.7275 196.976" stroke="#FFB900" stroke-width="0.965" stroke-linecap="round" stroke-linejoin="round"/>
<path d="M102.682 187.834L103.282 196.4" stroke="#FFB900" stroke-width="0.965" stroke-linecap="round" stroke-linejoin="round"/>
<path d="M115.277 186.465L116.065 194.095" stroke="#FFB900" stroke-width="0.965" stroke-linecap="round" stroke-linejoin="round"/>
<path d="M123.223 184.162L124.511 192.404" stroke="#FFB900" stroke-width="0.965" stroke-linecap="round" stroke-linejoin="round"/>
<path d="M89.5485 71.9734C72.3739 69.9221 61.4498 76.1274 56.4546 81.1512C51.4595 86.1751 50.8354 114.014 47.5049 132.644C44.1743 151.274 41.8856 166.554 40.6374 175.345C39.3892 184.136 54.5811 193.765 88.0891 192.509C121.597 191.254 135.542 186.858 135.542 177.438C135.542 168.018 131.38 134.946 131.171 110.247C130.962 85.5474 130.135 76.8207 89.5485 71.9734Z" fill="#FFB900"/>
<path d="M133.133 145.888L119.798 148.74C119.798 148.74 123.386 161.986 134.953 167.229C134.48 161.361 133.79 153.926 133.133 145.888Z" fill="#FF9500"/>
<path d="M89.5485 71.9734C72.374 69.9221 61.4499 76.1274 56.4547 81.1512C51.4595 86.1751 50.8354 114.014 47.5049 132.643C44.1744 151.272 41.8856 166.554 40.6374 175.345C39.7333 181.706 47.4468 188.504 64.4719 191.301L64.511 190.955C64.511 190.955 58.2712 172.725 70.5622 95.6883C70.5622 95.6883 69.3519 94.1656 84.8737 78.8302C87.0189 76.8958 88.8156 74.6031 90.1845 72.0534L89.5485 71.9734Z" fill="#FF9500"/>
<path d="M83.3899 164.927C88.3803 163.387 97.1853 160.787 103.284 159.645C103.284 159.645 97.0406 147.506 90.7972 144.156C84.5538 140.807 82.0551 147.924 82.0551 147.924L80.1092 162.118C80.0502 162.546 80.0993 162.982 80.2522 163.385C80.405 163.789 80.6565 164.148 80.9835 164.428C81.3105 164.708 81.7025 164.9 82.1231 164.987C82.5437 165.075 82.9794 165.054 83.3899 164.927Z" fill="#B39C91"/>
<path d="M82.0557 147.923C82.0557 147.923 98.7058 152.947 103.285 159.645L104.115 143.11C104.115 143.11 89.1319 144.575 82.0557 147.923Z" fill="#D9CFCA"/>
<path d="M91.6295 80.1035C90.799 80.3422 82.8886 143.946 82.0557 147.924C82.0557 147.924 96.0006 144.994 106.199 144.994C116.397 144.994 117.021 141.644 118.064 135.784C119.106 129.923 111.196 86.1739 112.028 81.5689C112.025 81.5689 104.117 76.5438 91.6295 80.1035Z" fill="#F3E8E2"/>
<path d="M92.5159 70.4663C78.1889 70.0832 58.868 71.8171 54.5906 79.7897C50.3133 87.7623 61.2184 98.3327 80.2262 106.065C99.2339 113.798 119.082 106.018 127.728 97.2682C136.374 88.5188 122.94 71.2777 92.5159 70.4663Z" fill="#D9CFCA"/>
<path d="M63.5947 78.8302C63.5947 78.8302 77.7924 98.3267 100.106 97.2682C122.419 96.2098 125.869 88.0701 125.869 88.0701" stroke="#F3E8E2" stroke-width="0.965" stroke-linecap="round" stroke-linejoin="round"/>
<path d="M73.3174 81.1512C73.3174 81.1512 91.701 93.8422 119.101 84.0152" stroke="#F3E8E2" stroke-width="0.965" stroke-linecap="round" stroke-linejoin="round"/>
<path d="M84.1498 62.8469C79.6992 63.4125 75.9534 64.471 75.3329 66.4686C74.7123 68.4663 75.5809 77.835 75.5809 77.835C75.5809 77.835 81.4184 84.7038 95.3266 83.9544C109.235 83.205 111.226 78.5844 111.226 78.5844C111.226 78.5844 110.853 67.5928 110.356 66.8433C109.859 66.0939 95.9471 61.3481 84.1498 62.8469Z" fill="#D98609"/>
<path d="M78.3772 68.341C77.8591 71.2543 77.9043 74.2408 78.5101 77.1369" stroke="#FFAA3F" stroke-width="0.965" stroke-linecap="round" stroke-linejoin="round"/>
<path d="M86.8044 71.3863C86.4562 72.5037 86.2735 73.6665 86.2621 74.8374C86.1989 76.6042 86.2862 78.3732 86.5232 80.125" stroke="#FFAA3F" stroke-width="0.965" stroke-linecap="round" stroke-linejoin="round"/>
<path d="M97.8943 72.094C98.5146 75.1012 98.39 78.2158 97.5312 81.1632" stroke="#FFAA3F" stroke-width="0.965" stroke-linecap="round" stroke-linejoin="round"/>
<path d="M107.169 69.2909C107.756 70.5248 108.384 73.1942 107.418 78.5642" stroke="#FFAA3F" stroke-width="0.965" stroke-linecap="round" stroke-linejoin="round"/>
<path d="M83.0294 55.7681L82.8467 67.9913C88.9529 70.6813 95.8177 71.0719 102.187 69.0915L101.457 60.539L83.0294 55.7681Z" fill="#F4A386"/>
<path d="M82.9775 59.2073C86.0138 63.5462 94.9386 67.7598 102.09 67.9591L101.456 60.539L83.0298 55.7657L82.9775 59.2073Z" fill="#F07F57"/>
<path d="M101.128 9.20834C90.4753 6.87063 82.1781 14.4589 79.8443 26.7502C77.5104 39.0414 78.4715 46.6357 79.8443 52.298C81.217 57.9603 94.9484 64.4507 103.324 62.7992C111.699 61.1476 111.421 49.2574 112.798 37.6571C114.176 26.0568 116.232 12.5234 101.128 9.20834Z" fill="#F4A386"/>
<path d="M101.859 17.3062C101.859 17.3062 100.767 24.5282 88.592 27.354C88.592 27.354 82.8162 32.8433 82.1909 40.6989C81.5656 48.5545 74.3861 46.508 74.3861 46.508C74.3861 46.508 65.7638 15.873 83.2848 6.00309C96.5119 -1.448 103.734 7.88735 104.203 7.5735C104.671 7.25966 115.753 1.29306 120.592 12.5974C125.431 23.9017 114.349 27.669 114.349 27.669C109.102 25.8019 104.679 22.1321 101.859 17.3062Z" fill="#212121"/>
<path d="M77.7051 27.959C77.7051 27.959 95.3839 24.0008 100.177 12.6988" stroke="#424242" stroke-width="0.1" stroke-linecap="round" stroke-linejoin="round"/>
<path d="M78.4355 22.1285C78.4355 22.1285 89.7595 13.3301 95.9103 9.67496" stroke="#424242" stroke-width="0.1" stroke-linecap="round" stroke-linejoin="round"/>
<path d="M78.4355 14.4984C78.4355 14.4984 87.1373 5.28473 99.2064 7.37304" stroke="#424242" stroke-width="0.1" stroke-linecap="round" stroke-linejoin="round"/>
<path d="M104.758 12.1237C104.758 12.1237 107.263 20.8349 115.279 24.144" stroke="#424242" stroke-width="0.1" stroke-linecap="round" stroke-linejoin="round"/>
<path d="M108.48 10.7823C110.763 11.5967 112.826 12.9359 114.503 14.6934C116.18 16.4508 117.426 18.5779 118.142 20.9053" stroke="#424242" stroke-width="0.1" stroke-linecap="round" stroke-linejoin="round"/>
<path d="M80.6674 41.3863C80.6674 41.3863 76.5479 34.3457 72.4295 40.1428C68.3112 45.94 70.7815 55.8863 81.9037 52.5724L80.6674 41.3863Z" fill="#F4A386"/>
<path d="M74.0059 41.6846C74.0059 41.6846 78.5383 42.5485 79.3973 50.6106" stroke="#F07F57" stroke-width="0.962" stroke-linecap="round" stroke-linejoin="round"/>
<path d="M74.3887 49.1225C74.3887 49.1225 75.4897 45.6321 77.3253 44.2586" stroke="#F07F57" stroke-width="0.962" stroke-linecap="round" stroke-linejoin="round"/>
<path d="M77.0586 98.5248C80.5613 95.8964 83.5812 92.6734 85.9823 89.0009C89.9369 82.9305 94.9581 79.8947 95.7899 80.9412C96.6216 81.9878 92.4606 86.5928 92.4606 86.5928C92.4606 86.5928 99.7445 81.1512 104.326 80.7324C108.907 80.3135 99.7469 87.0116 98.7063 88.0582C97.6657 89.1047 107.447 82.6154 109.321 83.4532C111.194 84.2909 109.321 93.5009 108.697 94.551C108.073 95.6012 94.1276 104.18 90.173 105.226C86.2184 106.273 81.0156 107.947 81.0156 107.947L77.0586 98.5248Z" fill="#F4A386"/>
<path d="M77.2168 98.4102L82.8444 107.366C84.7143 106.784 87.6888 105.879 90.171 105.218C90.9763 104.974 91.7615 104.668 92.5191 104.3C91.3706 101.852 88.269 97.5618 80.4049 95.6835C79.4011 96.6598 78.3362 97.5706 77.2168 98.4102Z" fill="#F07F57"/>
<path d="M106.691 87.5618C104.322 89.2984 101.719 90.6877 98.9609 91.6883" stroke="#F07F57" stroke-width="0.962" stroke-linecap="round" stroke-linejoin="round"/>
<path d="M106.977 91.2086C105.162 92.8002 103.178 94.1842 101.06 95.3351" stroke="#F07F57" stroke-width="0.962" stroke-linecap="round" stroke-linejoin="round"/>
<path d="M70.8154 100.199C72.3585 98.6377 74.1095 97.2992 76.0182 96.2217C78.3082 95.1751 86.4215 101.123 87.2544 108.24C88.0873 115.357 76.4347 119.666 76.4347 119.666L70.8154 100.199Z" fill="#FF9500"/>
<path d="M56.4555 81.1512C48.4846 78.8302 45.211 82.0808 38.5963 96.8004C33.3757 108.403 31.4773 130.55 30.6468 137.667C29.8162 144.784 39.5965 151.692 54.3768 143.947C69.157 136.203 78.9373 122.386 82.2595 118.619C85.5817 114.852 78.929 100.618 73.5186 98.7336C68.1081 96.8494 61.8624 103.13 61.8624 103.13C61.8624 103.13 65.7565 83.8589 56.4555 81.1512Z" fill="#FFB900"/>
<path d="M48.4844 146.376C50.521 145.759 52.4934 144.946 54.3742 143.947C69.1508 136.203 78.9347 122.386 82.2569 118.619C85.5791 114.852 78.9264 100.618 73.516 98.7336C68.1055 96.8493 61.8598 103.13 61.8598 103.13" stroke="#FF9500" stroke-width="0.962" stroke-linecap="round" stroke-linejoin="round"/>
<path d="M59.4514 105.413C59.4514 105.413 47.6184 115.198 42.6553 130.367" stroke="#FF9500" stroke-width="0.962" stroke-linecap="round" stroke-linejoin="round"/>
<path d="M133.669 64.8231L133.877 58.5438L121.387 65.8696L131.377 66.4973L133.669 64.8231Z" fill="#D9CFCA"/>
<path d="M115.562 68.5915C115.562 68.5915 122.639 56.0318 124.096 54.9877C125.553 53.9435 124.926 61.2669 127.217 63.9889C129.509 66.7109 133.877 58.5462 133.877 58.5462L138.665 68.5939C138.665 68.5939 124.929 71.7336 121.182 74.4543C119.066 75.9925 117.415 83.0749 116.378 88.9472C116.311 89.3202 116.124 89.6604 115.844 89.9144C115.565 90.1683 115.209 90.3216 114.833 90.35C114.458 90.3785 114.083 90.2805 113.769 90.0714C113.455 89.8624 113.219 89.5542 113.098 89.1954C112.499 87.3947 109.127 85.8672 107.976 86.8875C107.769 87.0643 107.516 87.1775 107.248 87.2136C106.979 87.2496 106.705 87.207 106.46 87.0908C106.214 86.9746 106.007 86.7898 105.864 86.5584C105.72 86.327 105.645 86.0589 105.649 85.7861C105.674 84.1489 105.443 82.4651 104.546 81.6381C103.693 80.845 102.667 80.2653 101.55 79.946C101.399 79.904 101.264 79.8201 101.158 79.7039C101.053 79.5878 100.982 79.4441 100.955 79.2895C100.927 79.1348 100.943 78.9754 101.001 78.8296C101.06 78.6837 101.158 78.5574 101.284 78.4651C105.06 75.8219 113.78 69.7324 115.562 68.5915Z" fill="white"/>
<path d="M105.99 71.1035C105.99 71.1035 111.131 82.1071 111.605 83.8183C112.416 86.7455 115.355 94.5475 116.603 95.594C117.851 96.6406 125.76 96.6406 127.843 94.5475C129.925 92.4544 126.386 71.1035 126.386 71.1035C126.386 71.1035 116.812 60.428 114.314 59.8004C111.817 59.1727 116.812 67.9639 116.812 67.9639C116.812 67.9639 114.105 62.5211 111.4 61.6834C108.695 60.8457 105.573 69.0104 105.99 71.1035Z" fill="#F4A386"/>
<path d="M128.455 88.8267C123.466 87.832 118.328 87.86 113.35 88.909C114.492 91.8923 115.853 94.964 116.603 95.5916C116.708 95.6723 116.823 95.7382 116.946 95.7873L128.487 91.3112C128.506 90.5666 128.493 89.73 128.455 88.8267Z" fill="#F07F57"/>
<path d="M108.504 69.4221C110.777 71.5039 112.709 73.9331 114.23 76.6202" stroke="#F07F57" stroke-width="0.962" stroke-linecap="round" stroke-linejoin="round"/>
<path d="M110.412 65.4865C113.434 67.3875 115.851 70.1183 117.379 73.3565" stroke="#F07F57" stroke-width="0.962" stroke-linecap="round" stroke-linejoin="round"/>
<path d="M120.061 91.8983C120.061 91.8983 115.879 93.3613 115.334 94.7718C114.789 96.1823 115.879 102.78 116.424 103.464C116.97 104.148 127.696 105.437 130.781 102.818C131.698 102.018 132.445 101.04 132.976 99.9423C133.507 98.8445 133.812 97.6499 133.872 96.4305C133.872 96.4305 131.691 90.5594 130.236 89.5761C128.782 88.5928 123.152 90.3267 120.061 91.8983Z" fill="#FF9500"/>
<path d="M123.473 98.5248C115.319 100.761 113.482 105.013 113.066 110.247C112.649 115.481 117.229 129.713 117.437 140.389C117.645 151.064 128.471 159.437 134.919 160.693C141.366 161.95 148.031 150.431 147.199 138.713C146.367 126.996 140.539 102.711 138.457 98.9425C136.375 95.174 128.051 97.2682 123.473 98.5248Z" fill="#FFB900"/>
<path d="M116.082 128.79C116.83 132.615 117.283 136.493 117.436 140.389C117.619 149.729 125.926 157.308 132.323 159.897" stroke="#FF9500" stroke-width="0.962" stroke-linecap="round" stroke-linejoin="round"/>
</g>
<defs>
<clipPath id="clip0">
<rect width="180" height="200" fill="white" transform="translate(0.333008)"/>
</clipPath>
</defs>
</svg>
