<svg width="40" height="40" viewBox="0 0 40 40" fill="none"
  xmlns="http://www.w3.org/2000/svg">
  <g clip-path="url(#clip0)">
    <path d="M35.1777 27.8065C32.7338 24.4855 29.308 22.1225 25.3493 20.978C28.6715 18.0114 28.204 15.0689 28.213 10.9988L28.3549 10.1815C29.002 6.83623 26.5766 3.42625 23.2653 2.72617C20.8663 -1.22835 14.7104 -0.793073 12.93 3.46103C9.2476 4.85213 8.59035 9.68095 11.7993 11.9391V14.754C11.7993 17.2403 12.9109 19.4717 14.6629 20.978C6.30025 23.3179 0.71867 31.3686 1.20858 39.9998H38.8037C38.9827 35.6255 37.8142 31.3286 35.1777 27.8065ZM29.3854 31.793C29.3854 32.4394 28.8594 32.9654 28.213 32.9654C26.6576 32.901 26.658 30.6847 28.213 30.6206C28.8594 30.6206 29.3854 31.1465 29.3854 31.793ZM19.9998 25.6109L17.5853 22.5963C19.083 23.0731 20.8645 23.08 22.3671 22.6141L19.9998 25.6109ZM14.1081 5.54682L14.7774 5.38847L14.9656 4.72699C15.3679 3.3137 16.7336 2.32662 18.2865 2.32662C19.6504 2.32662 20.8868 3.08883 21.4363 4.26851L21.7035 4.84205L22.3296 4.93349C24.4709 5.20315 26.2265 7.12941 26.0997 9.27952L21.1825 7.44557L20.6545 7.91898C19.9689 8.53621 19.0409 8.85706 18.0993 8.80735L17.4311 8.77382L17.0624 9.33204C15.6591 11.4363 12.1965 10.5975 12.0735 8.06358C12.0435 6.87234 12.8802 5.83742 14.1081 5.54682ZM14.1441 14.754V12.84C15.8122 13.0519 17.5406 12.3897 18.6196 11.1478C19.7127 11.0874 20.757 10.7309 21.6427 10.1197L25.8681 11.6956V14.754C25.546 22.5314 14.4646 22.5279 14.1441 14.754ZM6.72122 29.1987C7.87526 27.6348 9.27331 26.313 10.8614 25.2705V30.1556C9.49677 30.6341 8.51656 31.9229 8.51656 33.4342V35.3101H10.8614V33.4342C10.8614 32.8093 11.3873 32.3009 12.0338 32.3009C12.6802 32.3009 13.2062 32.8093 13.2062 33.4342V35.3101H15.551V33.4342C15.551 31.9228 14.5708 30.6341 13.2062 30.1556V23.9964C13.8279 23.7217 14.4753 23.485 15.1339 23.2865L18.8337 27.9057V37.6549H3.59489C3.81249 34.5938 4.88219 31.6911 6.72122 29.1987ZM21.1785 37.655V27.9014L24.8348 23.2732C25.5909 23.4997 26.333 23.776 27.0405 24.1024V28.4775C23.3688 29.8363 24.2487 35.2354 28.213 35.3102C32.1779 35.2351 33.0566 29.8356 29.3854 28.4775V25.4271C33.4093 28.142 36.1118 32.8093 36.4174 37.655H21.1785V37.655Z" fill="#008444"/>
  </g>
  <defs>
    <clipPath id="clip0">
      <rect width="40" height="40" fill="white"/>
    </clipPath>
  </defs>
</svg>
