<svg width="32" height="32" viewBox="0 0 32 32" fill="none" xmlns="http://www.w3.org/2000/svg">
<path d="M26.2764 31.4521C19.4324 32.1826 12.5676 32.1826 5.72363 31.4521C2.99463 31.1609 0.839111 29.0054 0.547852 26.2761C-0.182617 19.4321 -0.182617 12.5676 0.547852 5.72363C0.839111 2.99463 2.99463 0.839111 5.72363 0.547852C12.5676 -0.182617 19.4321 -0.182617 26.2761 0.547852C29.0054 0.839111 31.1609 2.99463 31.4521 5.72363C32.1826 12.5676 32.1826 19.4321 31.4521 26.2761C31.1609 29.0054 29.0056 31.1609 26.2764 31.4521Z" fill="#757575"/>
<path d="M16.4653 31.9983C18.3298 31.9893 20.1941 31.926 22.0576 31.8088V18.8169H25.7681L26.2163 14.1482H22.0576V11.1836C22.0576 10.5288 22.5884 9.99805 23.2432 9.99805H26.2163V5.3291H21.5134C18.7253 5.3291 16.4653 7.58936 16.4653 10.3774V14.1482H13.7485V18.8169H16.4653V31.9983Z" fill="white"/>
</svg>
