<svg width="40" height="40" viewBox="0 0 40 40" fill="none" xmlns="http://www.w3.org/2000/svg">
<circle cx="20" cy="20" r="20" fill="#E6F6EC"/>
<path d="M24.2756 22.1192L20.9294 19.6096V14.4973C20.9294 13.9832 20.5139 13.5677 19.9998 13.5677C19.4858 13.5677 19.0703 13.9832 19.0703 14.4973V20.0744C19.0703 20.3672 19.2079 20.6432 19.4421 20.818L23.1602 23.6065C23.3275 23.732 23.5227 23.7925 23.7169 23.7925C24.0004 23.7925 24.2793 23.6651 24.4615 23.4197C24.7702 23.0097 24.6865 22.4269 24.2756 22.1192Z" fill="#008444"/>
<path d="M20 8C13.3828 8 8 13.3828 8 20C8 26.6172 13.3828 32 20 32C26.6172 32 32 26.6172 32 20C32 13.3828 26.6172 8 20 8ZM20 30.141C14.409 30.141 9.85902 25.591 9.85902 20C9.85902 14.409 14.409 9.85902 20 9.85902C25.592 9.85902 30.141 14.409 30.141 20C30.141 25.591 25.591 30.141 20 30.141Z" fill="#008444"/>
</svg>
