<svg width="40" height="40" viewBox="0 0 40 40" fill="none" xmlns="http://www.w3.org/2000/svg">
<circle cx="20" cy="20" r="20" fill="#E6F6EC"/>
<path d="M28.8417 26.9669L23.7712 17.0612V9.40625H24.4606C24.8489 9.40625 25.1637 9.09144 25.1637 8.70312C25.1637 8.31481 24.8489 8 24.4606 8H15.5408C15.1525 8 14.8376 8.31481 14.8376 8.70312C14.8376 9.09144 15.1525 9.40625 15.5408 9.40625H16.2302V17.0612L11.1596 26.9669C10.6066 28.0474 10.6545 29.3107 11.2877 30.3463C11.9209 31.3818 13.0236 32 14.2375 32H25.7639C26.9778 32 28.0804 31.3818 28.7137 30.3463C29.347 29.3107 29.3948 28.0474 28.8417 26.9669ZM17.5592 17.5511C17.61 17.4519 17.6364 17.3421 17.6364 17.2307V9.40625H22.3649V17.2307C22.3649 17.342 22.3914 17.4519 22.4421 17.5511L24.3986 21.3732H15.6027L17.5592 17.5511ZM25.7639 30.5938H14.2375C13.5174 30.5938 12.8631 30.227 12.4874 29.6126C12.2761 29.267 12.1746 28.8787 12.1847 28.4909C12.1903 28.2755 12.2304 28.0603 12.3051 27.8527C12.335 27.7696 14.8829 22.7795 14.8829 22.7795H25.1185C25.1185 22.7795 27.6296 27.6882 27.6473 27.7291C27.7537 27.9742 27.81 28.2324 27.8167 28.4909C27.8268 28.8787 27.7253 29.267 27.514 29.6126C27.1383 30.227 26.4841 30.5938 25.7639 30.5938Z" fill="#008444"/>
</svg>
