<svg width="554" height="320" viewBox="0 0 554 320" fill="none" xmlns="http://www.w3.org/2000/svg">
<g clip-path="url(#clip0)">
<g opacity="0.2">
<path opacity="0.2" d="M60.156 66.1504H17.043V320.146H60.156V66.1504Z" fill="#212121"/>
<path opacity="0.2" d="M554 158.788H493.844V320.146H554V158.788Z" fill="#212121"/>
<path opacity="0.2" d="M474.973 122.098H414.816V320.145H474.973V122.098Z" fill="#212121"/>
<path opacity="0.2" d="M415.493 100.096H355.337V320.145H415.493V100.096Z" fill="#212121"/>
<path opacity="0.2" d="M355.336 146.875H263.739V320.145H355.336V146.875Z" fill="#212121"/>
<path opacity="0.2" d="M260.677 168.205H169.21V320.145H260.677V168.205Z" fill="#212121"/>
<path opacity="0.2" d="M263.356 94.4368H205.826V320.146H263.356V94.4368Z" fill="#212121"/>
<path opacity="0.2" d="M253.68 75.345H215.503V289.231H253.68V75.345Z" fill="#212121"/>
<path opacity="0.2" d="M169.031 320.146H108.875V11.5208L169.031 53.0879V320.146Z" fill="#212121"/>
<path opacity="0.2" d="M528.231 320.146H468.074V49.6844L528.231 21.3826V320.146Z" fill="#212121"/>
<path opacity="0.2" d="M109.296 87.4697H49.1396V320.146H109.296V87.4697Z" fill="#212121"/>
<path opacity="0.2" d="M60.1563 161.612H0V320.146H60.1563V161.612Z" fill="#212121"/>
</g>
<g opacity="0.2">
<path opacity="0.2" d="M250.299 38.3414C248.561 36.3978 246.219 35.0929 243.649 34.636C241.08 34.179 238.431 34.5964 236.127 35.8212C235.026 34.7137 233.613 33.9684 232.076 33.6849C230.539 33.4015 228.952 33.5935 227.528 34.2352C226.702 31.6077 225.1 29.2902 222.934 27.5853C220.767 25.8804 218.136 24.8674 215.383 24.6787C212.631 24.4899 209.886 25.1342 207.506 26.5274C205.126 27.9205 203.223 29.9977 202.044 32.4877C201.606 32.4464 201.163 32.4213 200.714 32.4213C198.492 32.4199 196.303 32.958 194.335 33.9894C192.368 35.0207 190.681 36.5143 189.421 38.3414H250.299Z" fill="#006430"/>
<path opacity="0.2" d="M425.988 29.8871C427.068 28.6803 428.521 27.8701 430.117 27.5864C431.712 27.3027 433.357 27.5619 434.787 28.3224C435.471 27.6348 436.348 27.172 437.302 26.9961C438.257 26.8201 439.242 26.9395 440.126 27.3381C440.639 25.7061 441.633 24.2665 442.979 23.2075C444.324 22.1484 445.958 21.5192 447.668 21.4021C449.377 21.2849 451.082 21.6852 452.56 22.5508C454.038 23.4163 455.219 24.7068 455.951 26.2535C456.223 26.2269 456.497 26.2114 456.777 26.2114C458.156 26.2111 459.515 26.5455 460.736 27.1858C461.957 27.8261 463.004 28.7531 463.786 29.8871H425.988Z" fill="#006430"/>
<path opacity="0.2" d="M365.861 77.4414C364.599 75.6825 362.799 74.3795 360.732 73.7281C358.665 73.0767 356.442 73.1119 354.397 73.8285C353.975 73.5625 353.504 73.3823 353.012 73.2981C352.52 73.214 352.016 73.2276 351.529 73.3381C350.781 71.5813 349.565 70.0621 348.014 68.9449C346.463 67.8278 344.636 67.1552 342.73 66.9998C340.824 66.8445 338.911 67.2123 337.199 68.0636C335.487 68.9149 334.041 70.2171 333.017 71.8296C331.678 71.4143 330.231 71.524 328.97 72.1363C327.709 72.7486 326.729 73.8175 326.23 75.1254C324.819 74.9471 323.387 75.0605 322.023 75.4586C320.658 75.8566 319.39 76.5308 318.298 77.4392L365.861 77.4414Z" fill="#006430"/>
<path opacity="0.2" d="M586.164 56.086C584.902 54.3275 583.102 53.0249 581.036 52.3735C578.969 51.7221 576.746 51.757 574.701 52.4731C573.847 51.937 572.816 51.7607 571.832 51.9827C571.084 50.2259 569.868 48.7068 568.317 47.5897C566.766 46.4726 564.939 45.8001 563.033 45.6448C561.126 45.4895 559.214 45.8575 557.502 46.7088C555.79 47.5601 554.344 48.8624 553.32 50.4749C551.981 50.0597 550.534 50.1694 549.273 50.7817C548.012 51.394 547.033 52.4629 546.533 53.7708C545.123 53.5924 543.691 53.7058 542.326 54.1039C540.962 54.502 539.694 55.1762 538.602 56.0845L586.164 56.086Z" fill="#006430"/>
<path opacity="0.2" d="M36.5378 45.6099C34.9215 43.3593 32.6178 41.6924 29.9723 40.8592C27.3267 40.0259 24.4818 40.0712 21.8642 40.9883C20.7721 40.3018 19.4517 40.0761 18.193 40.3608C17.2354 38.1124 15.68 36.1681 13.6953 34.7384C11.7105 33.3087 9.37188 32.4479 6.93238 32.2492C4.49288 32.0505 2.04538 32.5214 -0.145338 33.6111C-2.33606 34.7007 -4.18659 36.3675 -5.49674 38.4312C-6.17686 38.2197 -6.88516 38.1123 -7.59751 38.1127C-9.02638 38.1134 -10.4213 38.5477 -11.5973 39.3577C-12.7734 40.1678 -13.675 41.3155 -14.1827 42.6487C-14.7147 42.5821 -15.2502 42.5472 -15.7864 42.544C-18.9069 42.5396 -21.9308 43.624 -24.335 45.6099H36.5378Z" fill="#006430"/>
</g>
<path d="M553.999 267H-0.000976562V327H553.999V267Z" fill="#FAFAFA"/>
<path d="M500.783 215.094L504.023 209.904C504.144 197.295 502.377 184.739 498.778 172.652L492.68 180.32L496.58 165.928C491.89 152.961 485.319 140.75 477.079 129.687L473.164 140.867L474.124 125.826C464.128 113.207 455.48 106.478 455.48 106.478C453.366 121.065 452.803 135.834 453.801 150.538L468.85 157.351L454.494 157.772C456.849 177.685 462.432 193.298 468.929 205.307L480.715 207.793L470.901 208.79C484.256 231.461 500.331 239.941 500.331 239.941C502.514 230.726 503.737 221.311 503.98 211.845L500.783 215.094Z" fill="#069550"/>
<path d="M458.366 117.566C458.366 117.566 486.509 175.693 500.334 239.942" stroke="white" stroke-width="1.181" stroke-linecap="round" stroke-linejoin="round"/>
<path d="M490.838 203.141L474.563 196.165" stroke="white" stroke-width="1.181" stroke-linecap="round" stroke-linejoin="round"/>
<path d="M477.896 164.494C477.896 164.494 481.083 151.148 481.073 145.315" stroke="white" stroke-width="1.181" stroke-linecap="round" stroke-linejoin="round"/>
<path d="M458.047 134.523C458.047 134.523 464.411 139.602 469.021 141.815" stroke="white" stroke-width="1.181" stroke-linecap="round" stroke-linejoin="round"/>
<path d="M488.161 218.762L484.263 213.03C483.566 198.761 485.01 184.469 488.548 170.626L495.792 179.032L490.738 162.912C495.47 148.026 502.363 133.912 511.199 121.023L516.13 133.507L514.373 116.525C525.129 101.797 534.621 93.7969 534.621 93.7969C537.66 110.217 538.953 126.911 538.477 143.602L521.743 151.98L538.013 151.821C536.232 174.468 530.604 192.389 523.783 206.271L510.55 209.608L521.703 210.302C507.591 236.558 489.77 246.868 489.77 246.868C486.89 236.533 485.088 225.928 484.392 215.223L488.161 218.762Z" fill="#16A75C"/>
<path d="M531.848 106.48C531.848 106.48 502.571 173.527 489.772 246.868" stroke="white" stroke-width="1.338" stroke-linecap="round" stroke-linejoin="round"/>
<path d="M498.889 204.791L517.002 196.173" stroke="white" stroke-width="1.338" stroke-linecap="round" stroke-linejoin="round"/>
<path d="M511.822 160.467C511.822 160.467 507.622 145.499 507.375 138.896" stroke="white" stroke-width="1.338" stroke-linecap="round" stroke-linejoin="round"/>
<path d="M532.961 125.661C532.961 125.661 525.982 131.693 520.861 134.402" stroke="white" stroke-width="1.338" stroke-linecap="round" stroke-linejoin="round"/>
<path d="M481.332 266.608H508.105C508.824 266.608 509.518 266.348 510.06 265.877C510.602 265.406 510.955 264.755 511.054 264.044L516.16 227.239C516.219 226.818 516.186 226.39 516.064 225.983C515.943 225.576 515.736 225.2 515.456 224.88C515.177 224.56 514.832 224.303 514.445 224.127C514.057 223.951 513.637 223.86 513.212 223.86H476.226C475.8 223.86 475.38 223.951 474.993 224.127C474.606 224.303 474.261 224.56 473.981 224.88C473.702 225.2 473.495 225.576 473.373 225.983C473.252 226.39 473.219 226.818 473.277 227.239L478.384 264.044C478.482 264.755 478.835 265.406 479.377 265.877C479.918 266.348 480.613 266.608 481.332 266.608Z" fill="#424242"/>
<path d="M473.13 231.178H516.306C517.621 231.178 518.688 230.114 518.688 228.801V226.238C518.688 224.925 517.621 223.861 516.306 223.861H473.13C471.815 223.861 470.749 224.925 470.749 226.238V228.801C470.749 230.114 471.815 231.178 473.13 231.178Z" fill="#212121"/>
<path d="M66.1848 125.937C66.1848 125.937 54.3211 133.738 52.224 147.124C50.127 160.51 52.224 215.564 52.224 215.564" stroke="#16A75C" stroke-width="1.433" stroke-linecap="round" stroke-linejoin="round"/>
<path d="M60.0361 117.951C60.0361 117.951 56.1152 135.676 56.1152 160.211V215.564" stroke="#16A75C" stroke-width="1.433" stroke-linecap="round" stroke-linejoin="round"/>
<path d="M54.9502 118.422C54.9502 118.422 60.912 114.097 60.912 125.934C60.912 137.772 63.0098 194.619 62.4107 207.483" stroke="#16A75C" stroke-width="1.433" stroke-linecap="round" stroke-linejoin="round"/>
<path d="M47.2549 98.9096C48.8499 102.023 50.8939 104.886 53.3216 107.407C54.8085 108.94 60.6115 115.845 60.036 117.951C60.0303 117.977 60.0221 118.001 60.0117 118.025C64.6653 116.027 68.8121 115.213 73.776 116.278C76.8333 116.936 79.5191 118.695 82.3009 120.132C85.0946 121.568 88.2716 122.705 91.3171 121.975C92.5139 121.725 93.5935 121.085 94.3863 120.156C94.775 119.689 95.0341 119.128 95.1378 118.529C95.2415 117.931 95.1861 117.315 94.9772 116.745C94.1499 114.794 91.5963 114.375 89.9291 113.083C87.8188 111.443 87.1119 108.331 84.774 107.05C83.8026 106.524 82.6518 106.368 81.7167 105.758C80.7933 105.159 80.2061 103.759 80.9728 102.969C81.7765 102.144 83.143 102.694 84.138 103.28C90.1951 106.847 97.0994 110.138 104.017 108.81C105.784 108.542 107.435 107.765 108.765 106.573C109.422 105.967 109.906 105.198 110.166 104.344C110.425 103.489 110.452 102.582 110.242 101.714C109.725 100.018 108.66 98.9855 106.909 99.3077C99.7152 100.626 92.3141 100.273 85.2792 98.2755C84.6078 98.0838 83.7812 97.6052 83.9725 96.935C84.1284 96.3606 84.8841 96.2648 85.4713 96.2648L106.367 96.4801C108.51 96.5044 110.887 96.4321 112.424 94.9486C113.381 94.0319 113.982 92.8076 114.123 91.4916C114.263 90.1756 113.933 88.8524 113.192 87.7552C112.775 87.2147 112.21 86.8069 111.565 86.5817C110.919 86.3565 110.223 86.3236 109.559 86.487C108.237 86.8258 106.975 87.3667 105.818 88.0907C101.701 90.2584 97.1387 91.45 92.4857 91.5731C91.6238 91.6502 90.7556 91.5358 89.9432 91.2384C89.5354 91.0854 89.1798 90.8194 88.9181 90.4718C88.6564 90.1241 88.4995 89.7091 88.4659 89.2756C88.4415 87.8629 90.0488 87.0252 91.4272 86.7384C94.0768 86.1758 96.8349 86.355 99.4602 85.7327C102.085 85.1104 104.748 83.3511 105.18 80.6945C105.42 79.2582 104.964 77.8101 104.856 76.3501C104.772 74.9979 105.06 73.2622 106.186 72.544C106.27 72.5079 106.342 72.46 106.426 72.4246C103.767 73.3219 100.863 72.9746 98.0789 72.5204C95.2948 72.0662 92.4554 71.5147 89.6979 72.0529C86.9405 72.5912 84.2422 74.5304 83.7628 77.3072C83.6187 78.133 83.6793 79.0067 83.4629 79.8208C83.3884 80.2391 83.1879 80.6247 82.888 80.9262C82.5881 81.2276 82.2031 81.4306 81.7846 81.5078C81.3282 81.4805 80.8959 81.2943 80.5629 80.9816C80.2299 80.6689 80.0174 80.2495 79.9623 79.7964C79.6861 78.2532 80.6936 76.8051 81.317 75.3562C81.9405 73.9073 82.0003 71.8258 80.5739 71.1534C80.2118 71.019 79.8259 70.9603 79.4401 70.981C79.0544 71.0017 78.677 71.1013 78.3313 71.2736C77.4214 71.7096 76.629 72.3562 76.0201 73.1597C75.4112 73.9633 75.0035 74.9003 74.8308 75.893C74.518 77.8946 74.8362 79.9439 75.7416 81.757C76.2849 82.6811 76.6966 83.6762 76.9648 84.7137C77.0924 85.2334 77.0494 85.7803 76.8421 86.2737C76.6347 86.7671 76.2741 87.181 75.8132 87.4544C74.5427 88.0405 73.0802 86.9272 72.5047 85.659C71.7129 83.9233 71.8687 81.9126 72.2048 80.0338C72.5409 78.1551 73.044 76.2734 72.8999 74.3726C72.7441 72.4703 71.7735 70.4832 69.9984 69.7768C68.0085 68.9871 65.6344 70.1359 64.4584 71.9195C63.2958 73.7149 63.0919 75.9645 63.2352 78.1072C63.4165 80.8603 64.0991 83.5573 65.2496 86.066C65.8405 87.3342 66.4964 88.974 65.5376 90.0033C65.1251 90.3609 64.5947 90.5537 64.0484 90.5447C63.5021 90.5357 62.9784 90.3256 62.5778 89.9547C61.7962 89.1866 61.2939 88.18 61.1507 87.0946C60.7814 85.3127 60.7531 83.4771 61.0672 81.6847C61.3664 80.0331 61.8221 77.9745 60.4918 76.9334C59.5685 76.1916 58.213 76.4069 57.0747 76.766C54.9998 77.4244 52.9138 78.5732 51.9905 80.5478C50.9357 82.8335 51.763 85.5985 53.2019 87.6807C54.6283 89.7512 56.6064 91.391 58.1776 93.3656C59.3764 94.8616 60.3596 96.7403 59.9755 98.6198C59.5921 100.487 57.2424 101.938 55.6838 100.832C55.2438 100.45 54.9028 99.9673 54.6899 99.4254C54.4769 98.8835 54.3982 98.2983 54.4606 97.7195C54.5842 96.563 54.6121 95.3982 54.5441 94.2371C54.3899 93.3164 53.9605 92.4637 53.3122 91.7909C52.6639 91.1181 51.827 90.6567 50.9113 90.4671C49.9856 90.3195 49.037 90.4781 48.2101 90.9189C47.3832 91.3597 46.7235 92.0584 46.3316 92.9084C45.5161 94.841 46.3079 97.0552 47.2549 98.9096Z" fill="#008444"/>
<path d="M47.2549 98.9096C48.8499 102.023 50.8939 104.886 53.3216 107.407C54.8085 108.94 60.6115 115.845 60.0361 117.951C60.5871 116.395 69.8433 91.346 106.184 72.544C106.268 72.5079 106.34 72.46 106.424 72.4246C103.765 73.3219 100.861 72.9746 98.0774 72.5204C95.2933 72.0662 92.4539 71.5147 89.6965 72.0529C86.939 72.5912 84.2407 74.5304 83.7613 77.3072C83.6173 78.133 83.6778 79.0067 83.4614 79.8208C83.387 80.2391 83.1864 80.6247 82.8865 80.9262C82.5866 81.2276 82.2017 81.4305 81.7831 81.5078C81.3268 81.4805 80.8944 81.2943 80.5614 80.9816C80.2284 80.6689 80.0159 80.2495 79.9608 79.7964C79.6846 78.2532 80.6921 76.8051 81.3156 75.3562C81.939 73.9073 81.9988 71.8258 80.5725 71.1534C80.2104 71.019 79.8244 70.9603 79.4387 70.981C79.0529 71.0017 78.6755 71.1013 78.3299 71.2736C77.42 71.7096 76.6276 72.3562 76.0187 73.1597C75.4098 73.9633 75.002 74.9003 74.8293 75.893C74.5165 77.8946 74.8348 79.9439 75.7401 81.757C76.2835 82.6811 76.6952 83.6762 76.9633 84.7137C77.091 85.2334 77.0479 85.7803 76.8406 86.2737C76.6333 86.7671 76.2726 87.181 75.8118 87.4544C74.5413 88.0405 73.0787 86.9272 72.5033 85.659C71.7114 83.9233 71.8673 81.9126 72.2034 80.0338C72.5395 78.1551 73.0425 76.2734 72.8985 74.3726C72.7426 72.4703 71.772 70.4832 69.997 69.7768C68.007 68.9871 65.6329 70.1359 64.457 71.9195C63.2943 73.7149 63.0904 75.9645 63.2337 78.1072C63.415 80.8603 64.0976 83.5573 65.2481 86.066C65.839 87.3342 66.495 88.974 65.5362 90.0033C65.1237 90.3605 64.5936 90.553 64.0477 90.544C63.5017 90.535 62.9783 90.3252 62.5778 89.9547C61.7962 89.1866 61.2939 88.18 61.1507 87.0945C60.7814 85.3127 60.7531 83.4771 61.0672 81.6847C61.3664 80.0331 61.8221 77.9745 60.4918 76.9334C59.5685 76.1916 58.213 76.4069 57.0747 76.766C54.9998 77.4244 52.9138 78.5732 51.9905 80.5478C50.9357 82.8335 51.763 85.5985 53.2019 87.6807C54.6283 89.7512 56.6064 91.391 58.1776 93.3656C59.3764 94.8616 60.3596 96.7403 59.9755 98.6198C59.5921 100.487 57.2424 101.938 55.6838 100.832C55.2438 100.45 54.9028 99.9673 54.6899 99.4254C54.4769 98.8835 54.3982 98.2983 54.4606 97.7195C54.5842 96.563 54.6121 95.3982 54.5441 94.2371C54.3899 93.3164 53.9605 92.4637 53.3122 91.7909C52.6639 91.1181 51.827 90.6567 50.9113 90.4671C49.9856 90.3195 49.037 90.4781 48.2101 90.9189C47.3832 91.3597 46.7235 92.0584 46.3316 92.9084C45.5161 94.841 46.3079 97.0552 47.2549 98.9096Z" fill="#006430"/>
<path d="M7.65763 137.955C8.41224 135.182 9.8109 132.626 11.7402 130.493C13.6695 128.36 16.0751 126.712 18.762 125.681C20.1182 125.273 21.4387 124.755 22.7102 124.132C23.3446 123.815 23.8944 123.351 24.3143 122.78C24.7343 122.209 25.0123 121.546 25.1256 120.847C25.2874 118.905 23.4607 117.187 21.518 116.997C20.5401 116.963 19.5668 117.146 18.6685 117.534C17.7702 117.921 16.9693 118.502 16.3237 119.236C15.5436 120.047 14.2635 121.027 13.5049 120.199C13.3738 120.021 13.2796 119.818 13.228 119.603C13.1763 119.388 13.1683 119.164 13.2043 118.946C13.4665 114.995 17.3009 112.042 21.2099 111.376C25.119 110.709 29.0915 111.774 32.9326 112.76C33.8663 113.099 34.8813 113.147 35.8429 112.897C36.7677 112.55 37.4289 111.356 36.8697 110.545C36.4132 109.881 35.4721 109.829 34.6677 109.842L28.604 109.939C27.92 109.95 26.9915 109.73 27.0159 109.048C27.0321 108.594 27.4997 108.311 27.9089 108.109L34.2467 105.012C36.8254 103.754 39.4757 102.475 42.3336 102.211C44.2935 102.05 46.2631 102.37 48.0712 103.141C49.8793 103.913 51.4713 105.114 52.7089 106.64C54.9884 109.506 51.3963 115.912 54.9685 118.335C54.9626 118.361 54.9537 118.386 54.9478 118.409C50.4774 122.234 43.6366 121.689 38.6129 124.755C34.8539 127.047 32.5308 131.124 31.0992 135.283C29.6677 139.441 28.9667 143.823 27.5536 147.986C25.1241 155.133 20.684 161.392 16.2712 167.526C16.0696 167.622 15.8657 167.727 15.6722 167.798C13.1408 168.728 14.9859 162.514 13.4776 160.281C11.9692 158.049 10.206 155.796 9.94971 153.116C9.62175 149.684 11.9611 146.439 14.9202 144.661C17.3282 143.355 19.9479 142.483 22.6592 142.084C24.6189 141.706 26.8467 140.783 27.5159 138.659C27.9783 137.192 26.9989 135.267 25.4573 135.264C21.164 136.144 17.2346 138.292 14.1778 141.427C12.9871 142.653 11.625 144.149 9.93051 143.919C9.3369 143.794 8.79119 143.503 8.35764 143.08C7.92408 142.657 7.62073 142.119 7.48331 141.529C7.22829 140.343 7.28839 139.111 7.65763 137.955Z" fill="#069550"/>
<path d="M54.9499 118.422C50.4795 122.246 43.6387 121.702 38.615 124.763C34.8559 127.056 32.5328 131.133 31.1013 135.292C29.6698 139.45 28.9688 143.832 27.5557 147.995C25.0922 155.242 20.559 161.576 16.0879 167.793C19.1903 166.023 22.9627 166.083 26.5179 165.699C30.0731 165.314 33.9784 164.145 35.6847 161.01C37.3223 158.008 36.368 154.3 35.2415 151.072C34.115 147.844 32.8519 144.332 33.9703 141.1C34.5878 139.318 36.4817 137.653 38.2235 138.387C38.6925 138.626 39.0936 138.979 39.3897 139.414C39.6859 139.849 39.8676 140.351 39.918 140.874C40.0072 141.92 39.9362 142.974 39.7075 143.999C39.1769 146.585 39.1649 149.25 39.672 151.84C40.291 154.398 41.888 156.834 44.2924 157.909C45.3632 158.387 46.5404 158.578 47.7079 158.464C48.8754 158.349 49.9928 157.933 50.9501 157.256C51.9073 156.579 52.6713 155.665 53.1668 154.604C53.6622 153.542 53.872 152.37 53.7754 151.203C53.5376 148.328 51.5121 145.935 49.4335 143.927C47.3549 141.92 45.0517 139.97 43.957 137.297C42.8623 134.624 43.5212 130.956 46.173 129.798C48.3455 128.848 51.0002 130.004 52.4096 131.907C53.819 133.81 54.2312 136.265 54.3715 138.627C54.5119 140.99 54.4276 143.392 55.0164 145.684C55.5844 147.896 57.253 150.214 59.5348 150.094C61.572 149.986 62.9799 147.98 63.5975 146.038C64.215 144.097 64.3863 141.969 65.4995 140.263C66.6703 138.467 68.7947 137.286 69.4337 135.239C70.0371 133.308 69.0776 131.196 67.6911 129.72C66.3047 128.245 64.523 127.208 62.9755 125.903C62.1497 125.206 61.3268 124.25 61.4982 123.185C61.6181 122.713 61.8861 122.291 62.2631 121.982C62.6401 121.672 63.1063 121.491 63.5938 121.465C64.5725 121.434 65.54 121.68 66.3844 122.175C69.4575 123.747 71.9054 126.313 73.3279 129.454C73.708 130.551 74.2519 131.585 74.9412 132.521C75.7116 133.389 77.0493 133.906 78.0561 133.327C79.0481 132.756 79.283 131.417 79.1456 130.282C79.0083 129.148 78.6072 128.025 78.7497 126.891C79.023 124.707 81.2043 123.143 81.5301 120.967C81.8255 119.005 80.4464 117.085 78.6825 116.169C76.8562 115.363 74.8573 115.025 72.867 115.185C70.8843 115.346 68.8894 115.269 66.9251 114.955C71.41 113.68 76.1816 113.832 80.5757 115.391C78.2615 110.225 72.3137 107.059 66.6718 107.604C61.0298 108.149 56.2256 112.909 54.9499 118.422Z" fill="#16A75C"/>
<path d="M66.1846 125.937C68.8822 125.42 72.3473 129.204 72.6848 131.92C73.0328 134.648 72.2173 137.414 72.5172 140.155C72.8171 142.883 74.9873 145.828 77.7085 145.385C80.4785 144.918 81.4757 141.555 82.3843 138.896C82.8754 137.219 83.7686 135.686 84.9866 134.431C85.599 133.809 86.3568 133.349 87.1918 133.091C88.0268 132.834 88.9129 132.788 89.7702 132.957C91.461 133.388 92.8039 135.159 92.4205 136.859C91.9773 138.894 89.6262 139.779 88.1156 141.227C82.5283 146.577 88.5957 156.965 94.5545 159.048C95.0576 159.227 93.547 152.346 93.4872 151.867C93.4084 150.641 93.6498 149.415 94.1878 148.309C94.7257 147.204 95.5418 146.256 96.5563 145.56C98.6187 144.233 101.772 144.566 103.067 146.637C104.122 148.324 103.702 150.598 102.719 152.334C101.724 154.069 100.25 155.482 99.0744 157.097C97.7632 158.934 96.8496 161.024 96.3918 163.232C95.9339 165.441 95.9419 167.721 96.4152 169.927C96.7202 171.7 97.5757 173.333 98.861 174.594C99.515 175.209 100.339 175.614 101.226 175.757C102.112 175.9 103.022 175.774 103.837 175.396C105.911 174.259 106.294 171.495 106.438 169.137C106.582 166.779 106.99 164.015 109.076 162.901C110.875 162.494 112.481 164.422 112.601 166.264C112.721 168.107 111.894 169.867 111.354 171.626C110.534 174.405 110.411 177.343 110.994 180.181C111.577 183.019 112.85 185.67 114.699 187.903C115.953 189.531 117.697 190.715 119.675 191.278C120.564 191.488 121.49 191.476 122.373 191.242C123.491 190.994 124.472 190.331 125.118 189.387C126.246 187.651 125.886 185.354 126.486 183.367C127.061 181.464 128.476 179.956 129.903 178.58C131.33 177.204 132.84 175.827 133.691 174.032C136.401 168.323 130.55 166.827 127.145 164.182C125.203 162.686 123.92 159.706 125.502 157.827C126.917 156.164 129.53 156.51 131.677 156.942C133.835 157.385 136.521 157.565 137.744 155.757C138.751 154.283 138.128 152.167 136.833 150.934C135.538 149.701 133.763 149.151 132.061 148.636C128.116 147.452 124.171 146.263 120.227 145.07C118.548 144.554 116.774 143.992 115.598 142.676C114.436 141.359 114.232 139.038 115.646 137.985C117.062 136.944 119.088 137.745 120.526 138.751C121.977 139.768 123.476 141.06 125.239 140.929C125.982 140.832 126.682 140.524 127.255 140.043C127.829 139.561 128.252 138.926 128.476 138.212C128.905 136.769 128.824 135.222 128.248 133.831C124.687 124.389 113.441 128.47 106.067 128.47C105.168 128.47 104.137 128.386 103.597 127.668C102.913 126.746 103.549 125.334 104.568 124.796C105.632 124.355 106.79 124.186 107.937 124.305C109.09 124.431 110.25 124.143 111.21 123.494C111.701 123.019 112.032 122.404 112.159 121.733C112.286 121.062 112.201 120.369 111.918 119.748C111.326 118.51 110.339 117.503 109.111 116.887C105.526 114.877 101.161 114.97 97.097 115.464C86.2075 116.91 75.7063 120.468 66.1846 125.937Z" fill="#069550"/>
<path d="M66.1846 125.937C68.8822 125.42 72.3473 129.204 72.6848 131.92C73.0328 134.648 72.2173 137.414 72.5172 140.155C72.8171 142.883 74.9873 145.828 77.7085 145.385C80.4785 144.918 81.4757 141.555 82.3843 138.896C82.8754 137.219 83.7686 135.686 84.9866 134.431C85.599 133.809 86.3568 133.349 87.1918 133.091C88.0268 132.834 88.9129 132.788 89.7702 132.957C91.461 133.388 92.8039 135.159 92.4205 136.859C91.9773 138.894 89.6262 139.779 88.1156 141.227C82.5283 146.577 88.5957 156.965 94.5545 159.048C95.0576 159.227 93.547 152.346 93.4872 151.867C93.4084 150.641 93.6498 149.415 94.1878 148.309C94.7257 147.204 95.5418 146.256 96.5563 145.56C98.6187 144.233 101.772 144.566 103.067 146.637C104.122 148.324 103.702 150.598 102.719 152.334C101.724 154.069 100.25 155.482 99.0744 157.097C97.7632 158.934 96.8496 161.024 96.3918 163.232C95.9339 165.441 95.9419 167.721 96.4152 169.927C96.7201 171.7 97.5757 173.333 98.861 174.594C99.515 175.209 100.339 175.614 101.226 175.757C102.112 175.9 103.022 175.774 103.837 175.396C105.911 174.259 106.294 171.495 106.438 169.137C106.582 166.779 106.99 164.015 109.076 162.901C110.875 162.494 112.481 164.422 112.601 166.264C112.721 168.107 111.894 169.867 111.354 171.626C110.534 174.405 110.411 177.343 110.994 180.181C111.577 183.019 112.85 185.67 114.699 187.903C115.953 189.531 117.697 190.715 119.675 191.278C120.564 191.488 121.49 191.476 122.373 191.242C115.417 114.157 67.6737 125.563 66.1846 125.937Z" fill="#16A75C"/>
<path d="M38.1443 214.004L41.1729 266.608H75.3436L75.9715 255.637L78.3692 214.004C78.4425 212.727 78.2538 211.449 77.8148 210.248C77.3757 209.047 76.6954 207.948 75.8158 207.019C74.9361 206.089 73.8754 205.349 72.699 204.844C71.5225 204.338 70.2549 204.078 68.9741 204.078H47.5394C46.2586 204.078 44.991 204.338 43.8145 204.844C42.6381 205.349 41.5774 206.089 40.6977 207.019C39.818 207.948 39.1378 209.047 38.6987 210.248C38.2596 211.449 38.071 212.727 38.1443 214.004Z" fill="#212121"/>
<path d="M45.9943 217.932C45.9943 237.826 59.1942 254.135 75.9686 255.637L78.3663 214.004C78.4397 212.727 78.251 211.449 77.8119 210.248C77.3729 209.047 76.6926 207.948 75.8129 207.019C74.9332 206.089 73.8726 205.349 72.6961 204.844C71.5196 204.338 70.2521 204.078 68.9712 204.078H48.2398C46.7416 208.544 45.9831 213.223 45.9943 217.932Z" fill="#424242"/>
<path d="M193.948 244.7C193.041 242.145 193.673 238.825 196.065 237.543C197.422 236.815 199.094 236.846 200.423 236.068C202.33 234.956 202.988 232.557 203.352 230.383C203.716 228.208 204.052 225.828 205.664 224.321C206.34 223.753 207.129 223.334 207.978 223.089C208.828 222.844 209.719 222.78 210.595 222.9C212.343 223.151 214.047 223.648 215.656 224.375C215.414 222.867 215.461 221.327 215.796 219.837C215.974 219.094 216.357 218.415 216.902 217.878C217.446 217.341 218.13 216.967 218.877 216.798C220.528 216.562 222.357 217.676 223.791 216.825C225.02 216.096 225.135 214.417 225.58 213.064C226.015 211.816 226.815 210.727 227.878 209.938C228.94 209.149 230.215 208.697 231.538 208.64C232.994 208.604 234.453 209.061 235.896 208.839C237.787 208.544 239.294 207.153 241.036 206.36C242.779 205.568 245.34 205.704 246.019 207.489C246.511 208.785 245.699 210.224 244.681 211.166C243.664 212.109 242.405 212.814 241.599 213.941C240.484 215.499 240.398 217.645 239.174 219.119C238.007 220.525 236.013 221.061 234.9 222.511C233.409 224.452 233.97 227.36 232.673 229.435C230.847 232.357 225.951 232.736 225.037 236.057C224.638 237.504 225.158 239.201 224.325 240.451C223.26 242.053 220.613 241.94 219.576 243.561C219.19 244.379 218.979 245.269 218.957 246.173C218.325 250.416 214.31 253.607 210.069 254.302C206.676 254.885 203.186 254.238 200.23 252.477C197.273 250.716 195.045 247.958 193.948 244.7Z" fill="#4DC27E"/>
<path d="M196.577 250.681C207.871 243.347 217.89 234.222 226.239 223.666C229.839 219.112 233.233 214.192 238.118 211.048" stroke="#C3E9D0" stroke-width="0.69" stroke-miterlimit="10"/>
<path d="M189.512 239.843C189.53 237.291 190.566 234.691 189.831 232.249C189.096 229.807 186.65 227.766 187.06 225.244C187.4 223.151 189.534 221.931 191.368 220.862C193.202 219.792 195.179 218.111 194.872 216.013C194.534 213.704 191.527 212.259 191.715 209.934C191.919 207.433 195.463 206.737 196.674 204.54C198.254 201.676 195.229 197.675 197.111 195C198.47 193.069 201.58 193.156 203.045 191.306C203.469 190.641 203.854 189.951 204.197 189.241C204.373 188.886 204.642 188.586 204.976 188.371C205.309 188.157 205.694 188.036 206.091 188.021C207.088 188.104 207.685 189.209 207.773 190.205C207.735 191.198 207.764 192.192 207.86 193.181C208.464 195.813 211.866 196.782 213.131 199.168C214.247 201.273 213.416 203.844 212.496 206.041C211.577 208.238 210.565 210.682 211.381 212.92C211.911 214.374 213.172 215.561 213.325 217.1C213.606 219.918 210.095 222.021 210.284 224.842C210.41 226.728 212.185 228.227 212.213 230.117C212.241 231.975 210.598 233.406 209.993 235.164C209.271 237.261 210.094 239.543 210.12 241.759C210.124 243.233 209.776 244.686 209.106 246C208.436 247.313 207.463 248.449 206.267 249.313C204.821 250.382 203.075 250.97 201.276 250.994C199.476 251.018 197.715 250.476 196.241 249.445C192.795 247.018 189.48 244.509 189.512 239.843Z" fill="#006430"/>
<path d="M198.578 250.167C206.039 233.225 199.566 212.873 205.921 195.488" stroke="#C3E9D0" stroke-width="0.69" stroke-miterlimit="10"/>
<path d="M193.604 251.972C192.334 251.485 191.186 250.729 190.238 249.756C189.29 248.782 188.566 247.615 188.115 246.334C187.445 244.391 187.31 242.043 185.671 240.798C184.127 239.624 181.94 239.987 180.066 239.481C178.763 239.109 177.623 238.311 176.83 237.216C175.804 235.823 176.44 234.658 176.192 233.053C176.136 232.555 175.975 232.075 175.721 231.643C175.466 231.211 175.123 230.837 174.715 230.546C173.415 229.722 171.557 230.108 170.367 229.133C168.742 227.801 169.455 224.913 167.944 223.455C166.319 221.883 163.322 223.051 161.525 221.673C160.379 220.795 160.129 219.18 160.158 217.737C160.186 216.362 160.453 214.8 159.832 213.517C159.134 212.067 157.769 210.964 156.906 209.613C156.679 209.314 156.514 208.973 156.421 208.609C156.328 208.245 156.309 207.866 156.365 207.495C156.532 207.031 156.839 206.63 157.242 206.347C157.646 206.064 158.128 205.911 158.621 205.911C160.753 205.782 162.543 207.431 164.582 208.067C165.9 208.479 167.315 208.46 168.668 208.74C169.58 208.893 170.434 209.287 171.14 209.883C171.71 210.419 171.708 211.031 172.119 211.623C172.923 212.786 174.772 213.086 176.066 213.164C178.567 213.311 181.708 212.523 183.755 214.396C185.601 216.086 185.541 219.29 187.577 220.747C189.282 221.967 191.807 221.453 193.499 222.69C195.5 224.154 195.338 227.228 196.782 229.243C198.323 231.395 201.27 231.862 203.604 233.113C205.427 234.13 206.91 235.659 207.87 237.51C208.83 239.361 209.224 241.453 209.004 243.526C208.128 250.579 200.001 254.373 193.604 251.972Z" fill="#16A75C"/>
<path d="M203.229 251.025C202.481 241.043 195.194 232.692 187.034 226.876C178.873 221.06 169.542 216.981 161.612 210.855" stroke="#C3E9D0" stroke-width="0.69" stroke-miterlimit="10"/>
<path d="M213.696 266.608H192.053C191.501 266.608 190.966 266.417 190.54 266.067C190.114 265.718 189.823 265.231 189.716 264.691L185.905 245.242C185.837 244.898 185.847 244.543 185.933 244.203C186.019 243.863 186.18 243.546 186.403 243.275C186.626 243.005 186.907 242.787 187.225 242.637C187.543 242.487 187.89 242.409 188.241 242.409H217.507C217.858 242.409 218.206 242.487 218.523 242.637C218.841 242.787 219.122 243.005 219.345 243.275C219.568 243.546 219.729 243.863 219.815 244.203C219.901 244.543 219.911 244.898 219.843 245.242L216.032 264.691C215.925 265.231 215.634 265.718 215.208 266.067C214.782 266.417 214.247 266.608 213.696 266.608Z" fill="#424242"/>
<path d="M185.607 242.406H220.142C220.392 242.406 220.64 242.455 220.871 242.551C221.102 242.646 221.312 242.786 221.489 242.963C221.666 243.14 221.807 243.349 221.902 243.58C221.998 243.81 222.047 244.058 222.047 244.307V246.359C222.047 246.863 221.847 247.347 221.489 247.703C221.132 248.06 220.648 248.26 220.142 248.26H185.608C185.103 248.26 184.618 248.06 184.261 247.703C183.904 247.347 183.703 246.863 183.703 246.359V244.307C183.703 243.803 183.904 243.32 184.261 242.963C184.618 242.607 185.102 242.406 185.607 242.406Z" fill="#212121"/>
<path d="M329.12 228.157C328.226 225.62 329.014 222.627 330.409 220.429C331.804 218.232 333.733 216.607 335.49 214.801C337.247 212.996 338.908 210.849 339.458 208.179C339.933 205.875 339.525 203.466 339.342 201.105C339.159 198.744 339.263 196.15 340.546 194.321C342.017 192.226 344.54 191.785 346.625 190.624C349.546 188.997 351.654 185.891 353.53 182.788C354.636 180.763 355.945 178.856 357.437 177.095C358.971 175.449 360.946 174.226 363.019 174.28C364.133 174.341 365.196 174.767 366.043 175.493C366.889 176.218 367.472 177.203 367.7 178.293C368.715 183.133 363.121 187.141 363.743 192.072C364.134 195.169 366.836 197.136 367.774 200.066C368.144 201.403 368.197 202.808 367.93 204.17C367.662 205.531 367.081 206.812 366.233 207.911C364.646 209.87 362.432 211.224 359.963 211.745C358.206 212.167 356.122 212.494 355.274 214.36C354.294 216.524 355.707 219.048 356.926 221.035C358.424 223.475 359.78 226.372 359.376 229.347C359.007 232.071 357.245 234.213 355.467 236.004C353.236 238.261 350.797 240.304 348.183 242.106C346.316 243.39 343.829 245.374 341.904 243.153C340.33 241.338 340.629 238.373 339.027 236.478C337.648 234.845 335.727 233.993 334.004 233.002C332.082 231.899 329.987 230.616 329.12 228.157Z" fill="#006430"/>
<path d="M343.692 244.16C343.692 244.16 344.283 206.49 361.217 180.055" stroke="white" stroke-width="1.027" stroke-linecap="round" stroke-linejoin="round"/>
<path d="M340.493 238.76C341.268 235.995 343.208 233.923 345.199 232.202C347.191 230.481 349.346 228.935 350.899 226.672C352.468 224.386 353.299 221.535 354.383 218.884C355.467 216.233 356.963 213.595 359.258 212.44C362.163 210.977 365.471 212.252 368.627 212.366C374.07 212.567 379.142 209.266 384.509 208.182C387.242 207.632 390.205 207.709 392.585 209.389C394.964 211.068 396.493 214.698 395.465 217.74C395.045 218.852 394.348 219.84 393.441 220.61C392.534 221.38 391.446 221.908 390.279 222.145C388.102 222.661 385.854 222.435 383.635 222.554C381.416 222.673 379.085 223.211 377.43 224.961C375.026 227.506 374.659 231.92 372.392 234.634C370.224 237.23 366.843 237.685 363.754 237.664C360.666 237.643 357.43 237.331 354.632 238.873C352.547 240.022 350.945 242.08 349.17 243.809C347.509 245.431 344.673 247.698 342.528 246.225C340.436 244.79 339.778 241.312 340.493 238.76Z" fill="#16A75C"/>
<path d="M343.692 246.011C343.692 246.011 359.963 219.552 384.999 213.799" stroke="white" stroke-width="1.027" stroke-linecap="round" stroke-linejoin="round"/>
<path d="M339.786 240.032C337.259 240.375 334.26 240.136 332.506 237.786C331.161 235.984 330.929 233.392 329.547 231.626C328.875 230.84 328.014 230.237 327.045 229.873C326.077 229.509 325.031 229.395 324.007 229.543C322.06 229.732 320.231 230.493 318.304 230.796C317.307 231.011 316.272 230.988 315.285 230.73C314.298 230.471 313.385 229.985 312.621 229.309C311.271 227.987 310.627 225.979 309.564 224.353C308.234 222.322 306.284 220.961 304.412 219.621C302.54 218.28 300.62 216.83 299.409 214.707C298.199 212.584 297.932 209.597 299.36 207.949C300.757 206.341 303.179 206.553 305.169 207.414C307.159 208.275 309.015 209.676 311.066 210.216C313.952 210.973 316.791 209.933 319.619 209.423C322.448 208.912 325.808 209.137 327.882 211.694C329.591 213.801 329.985 217.002 331.854 218.92C333.372 220.479 335.469 220.803 337.387 221.407C341.12 222.562 344.301 225.039 346.333 228.371C348.091 231.28 348.699 234.739 348.036 238.072C347.463 240.544 346.7 239.652 344.774 239.53C343.099 239.532 341.428 239.7 339.786 240.032Z" fill="#4DC27E"/>
<path d="M346.698 239.539C346.698 239.539 332.479 222.593 309.354 215.169" stroke="white" stroke-width="1.027" stroke-linecap="round" stroke-linejoin="round"/>
<path d="M358.862 244.537L356.259 266.608H333.816L331.214 244.537C331.159 243.84 331.249 243.14 331.479 242.48C331.708 241.82 332.072 241.215 332.547 240.702C333.022 240.189 333.599 239.78 334.24 239.5C334.881 239.22 335.573 239.075 336.273 239.075H353.804C354.503 239.075 355.196 239.22 355.837 239.5C356.478 239.78 357.054 240.189 357.529 240.702C358.004 241.215 358.368 241.82 358.597 242.48C358.827 243.14 358.917 243.84 358.862 244.537Z" fill="#212121"/>
<path d="M358.862 244.537L356.259 266.608H339.287L336.684 244.537C336.63 243.84 336.72 243.14 336.95 242.48C337.179 241.82 337.543 241.215 338.018 240.702C338.493 240.189 339.069 239.78 339.71 239.5C340.352 239.22 341.044 239.075 341.744 239.075H353.803C354.503 239.075 355.195 239.22 355.836 239.5C356.478 239.779 357.054 240.189 357.529 240.702C358.004 241.215 358.368 241.82 358.597 242.48C358.827 243.14 358.917 243.84 358.862 244.537Z" fill="#424242"/>
<path d="M97.9475 305.909C139.895 305.909 173.901 302.139 173.901 297.49C173.901 292.84 139.895 289.071 97.9475 289.071C55.9996 289.071 21.9941 292.84 21.9941 297.49C21.9941 302.139 55.9996 305.909 97.9475 305.909Z" stroke="#EEEEEE" stroke-linecap="round" stroke-linejoin="round"/>
<path d="M456.051 305.909C497.999 305.909 532.004 302.139 532.004 297.49C532.004 292.84 497.999 289.071 456.051 289.071C414.103 289.071 380.098 292.84 380.098 297.49C380.098 302.139 414.103 305.909 456.051 305.909Z" stroke="#EEEEEE" stroke-linecap="round" stroke-linejoin="round"/>
<path d="M124.007 274.019L129.653 297.219L138.591 295.732L135.297 272.137L124.007 274.019Z" fill="#F4A386"/>
<path d="M127.729 289.31C127.729 289.31 126.118 296.325 127.41 298.158C128.374 299.527 135.891 300.541 142.378 300.244C162.413 299.324 151.36 295.809 146.246 293.735C141.652 291.872 139.708 287.621 137.625 288.787C136.135 289.649 134.46 290.146 132.74 290.237C131.02 290.327 129.302 290.01 127.729 289.31Z" fill="#E0E0E0"/>
<path d="M80.5547 274.019L74.9076 297.219L65.9697 295.732L69.2634 272.137L80.5547 274.019Z" fill="#F4A386"/>
<path d="M76.833 289.31C76.833 289.31 78.4441 296.325 77.1521 298.158C76.1874 299.527 68.6708 300.541 62.1845 300.244C42.149 299.324 53.2024 295.809 58.3169 293.735C62.9107 291.872 64.8541 287.621 66.9371 288.787C68.4277 289.649 70.1018 290.146 71.8221 290.237C73.5423 290.327 75.2596 290.01 76.833 289.31Z" fill="#E0E0E0"/>
<path d="M122.078 126.21C122.078 126.21 130.312 141.059 133.433 144.737C140.616 153.205 147.773 142.291 142.988 136C141.324 133.811 134.294 120.904 134.294 120.904L122.078 126.21Z" fill="#F4A386"/>
<path d="M156.006 111.219C156.858 109.992 158.222 107.527 158.066 105.615C157.91 103.702 157.608 99.38 157.421 98.4384C157.234 97.4968 158.927 96.7558 159.495 99.7921C160.063 102.828 160.4 103.492 161.552 100.894C162.704 98.2953 165.953 92.0796 166.781 92.1534C167.609 92.2271 165.58 97.0515 165.07 98.782C164.559 100.512 169.717 90.9825 171.031 91.489C172.344 91.9956 166.672 100.038 166.872 100.913C167.071 101.787 172.816 94.5261 173.641 95.0186C174.466 95.5112 168.58 102.796 168.713 103.239C168.847 103.682 173.1 99.7516 173.787 100.64C174.473 101.529 169.177 106.921 167.065 108.165C164.953 109.409 162.713 113.622 161.698 115.269C156.916 123.002 146.68 141.935 142.515 146.103C142.515 146.103 130.36 150.985 136.8 135.27C136.801 135.267 151.611 117.531 156.006 111.219Z" fill="#F4A386"/>
<path d="M80.9471 164.06L63.4355 280.064L80.5556 282.845L104.374 201.477L122.075 281.507L138.734 278.389L127.281 164.06H80.9471Z" fill="#424242"/>
<path d="M91.3804 173.131L91.4734 172.64L91.1635 172.581L90.9771 172.835C87.4876 177.596 83.1955 181.711 78.2951 184.998L80.9883 167.158L126.669 167.732C120.242 172.087 111.809 173.392 104.762 173.56C101.023 173.65 97.6968 173.419 95.3055 173.166C94.1103 173.039 93.1496 172.907 92.489 172.807C92.1587 172.757 91.9034 172.715 91.7314 172.686C91.6454 172.671 91.5802 172.659 91.5369 172.651L91.4883 172.643L91.4766 172.64L91.4739 172.64L91.4734 172.64L91.3804 173.131Z" fill="#212121" stroke="#212121"/>
<path d="M128.69 96.3364L139.861 124.235C136.164 128.629 130.937 131.465 125.231 132.172L128.69 96.3364Z" fill="#1E88E5"/>
<path d="M103.405 87.6453C103.405 87.6453 86.2306 93.1222 81.3406 95.503C76.4506 97.8839 82.0564 121.933 81.3406 134.553C80.6248 147.172 79.3174 166.701 79.3174 166.701C79.3174 166.701 101.944 179.519 128.183 167.257C128.183 167.257 130.599 99.5547 128.69 96.3399C126.781 93.1251 103.405 87.6453 103.405 87.6453Z" fill="#1E88E5"/>
<path d="M112.229 90.3793C112.229 90.3793 113.069 97.4083 106.743 98.1213C100.417 98.8343 98.041 90.1021 98.041 90.1021L99.0811 79.8347L99.4725 75.9873L112.268 76.3398L112.229 89.9804V90.3793Z" fill="#F4A386"/>
<path d="M112.268 76.3405L112.229 89.9811C109.28 89.7714 106.459 88.6967 104.12 86.8921C101.781 85.0874 100.028 82.6333 99.0811 79.8376L99.4725 75.9902L112.268 76.3405Z" fill="#F29270"/>
<path d="M119.626 59.073C119.626 59.073 122.608 83.0024 111.158 85.2645C99.7077 87.5266 95.4146 73.3595 94.6973 68.7158C93.9801 64.0721 99.4691 52.2865 119.626 59.073Z" fill="#F4A386"/>
<path d="M96.6062 71.8118C96.6062 71.8118 93.8635 68.9539 92.5509 70.9779C91.2169 73.0365 94.5194 77.3278 96.7258 75.542L96.6062 71.8118Z" fill="#F4A386"/>
<path d="M93.6094 70.2531C92.918 68.9996 91.3284 66.5598 91.3801 65.1286C91.4686 63.7201 92.0308 62.3825 92.9756 61.3326C93.9205 60.2827 95.1927 59.5818 96.5863 59.3435C96.932 61.4434 97.7578 63.435 98.2113 65.5135C98.6649 67.5921 98.7144 69.8955 97.6005 71.7071C97.3448 72.1588 96.9795 72.5391 96.5382 72.8131C95.4997 73.403 96.2014 72.0175 95.6238 71.2603C95.4221 70.9154 95.1243 70.6366 94.7666 70.4577C94.409 70.2789 94.0069 70.2078 93.6094 70.2531Z" fill="#212121"/>
<path d="M68.1413 127.251C68.1413 127.251 63.8475 143.601 62.4174 148.204C60.9874 152.807 81.1323 180.269 81.1323 180.269C83.9911 178.547 86.4479 176.234 88.338 173.486C88.338 173.486 75.8597 151.858 75.3374 149.159C74.8152 146.46 80.384 132.491 80.384 132.491L68.1413 127.251Z" fill="#F4A386"/>
<path d="M65.1729 129.093C65.1729 129.093 70.0274 139.146 81.0904 138.833C81.0904 138.833 84.7453 119.284 85.2454 111.814C86.0106 100.385 81.34 95.5032 81.34 95.5032C81.34 95.5032 74.873 97.1865 65.1729 129.093Z" fill="#1E88E5"/>
<path d="M109.498 77.3279C109.498 77.3279 110.69 78.3196 113.354 77.9627" stroke="#F29270" stroke-width="0.646" stroke-linecap="round" stroke-linejoin="round"/>
<path d="M129.187 131.301C129.187 131.301 129.579 113.853 129.401 107.17" stroke="#1565C0" stroke-width="0.969" stroke-linecap="round" stroke-linejoin="round"/>
<path d="M88.3369 158.84C88.3369 158.84 109.661 160.256 123.094 153.76" stroke="#1565C0" stroke-width="0.969" stroke-linecap="round" stroke-linejoin="round"/>
<path d="M81.0908 138.833C82.5916 132.343 83.6943 125.767 84.3927 119.142" stroke="#1565C0" stroke-width="0.969" stroke-linecap="round" stroke-linejoin="round"/>
<path d="M107.51 189.953C107.51 189.953 98.0633 223.037 93.7236 237.859L107.51 189.953Z" fill="#212121"/>
<path d="M107.51 189.953C107.51 189.953 98.0633 223.037 93.7236 237.859" stroke="#212121" stroke-width="0.969" stroke-linecap="round" stroke-linejoin="round"/>
<path d="M105.407 52.3411C106.737 51.1392 107.845 49.4058 109.503 49.0157C111.591 48.5247 113.591 50.3584 115.712 50.792C116.932 50.9377 118.165 50.9241 119.381 50.7514C120.632 50.5873 121.9 50.8847 122.946 51.5875C124.224 52.5734 124.831 54.4086 125.071 56.1634C125.441 58.8827 125.077 61.8048 123.678 63.9563C122.278 66.1078 119.737 67.2986 117.494 66.4345C115.688 65.7384 114.223 63.8538 112.34 63.651C110.5 63.4549 108.855 64.9414 107.021 65.0778C105.772 65.1707 104.51 64.6302 103.27 64.8072C101.765 65.021 100.438 66.5348 98.9182 66.4972C97.5036 66.4632 96.03 65.0394 95.3726 63.6466C95.0139 62.9111 94.8073 62.111 94.765 61.294C94.7227 60.4771 94.8455 59.66 95.1263 58.8914C95.407 58.1229 95.8399 57.4186 96.3991 56.8206C96.9583 56.2226 97.6324 55.7431 98.3812 55.4106C99.6524 54.7861 100.986 54.6799 102.301 54.2655C103.458 53.8445 104.516 53.1893 105.407 52.3411Z" fill="#212121"/>
<path d="M99.7167 79.3562C98.5514 78.226 97.5455 76.9428 96.7266 75.542C97.2109 77.1181 98.0122 78.579 99.0814 79.8355C99.3122 79.7025 99.5256 79.5415 99.7167 79.3562Z" fill="#CCDFFF"/>
<path d="M119.182 74.6181C118.213 78.9986 117.046 81.8572 115.24 83.584C113.605 85.1472 111.456 85.7776 108.462 85.7643C102.653 85.7297 99.0811 79.8347 99.0811 79.8347C102.824 77.2916 101.238 74.0289 101.238 74.0289C102.348 74.1568 103.468 74.1729 104.582 74.0769C109.375 73.6654 111.991 71.3141 113.351 72.6096C115.01 74.1757 119.182 74.6181 119.182 74.6181Z" fill="#CCDFFF"/>
<path d="M95.627 71.2617C97.4389 72.2963 99.3119 73.2207 101.236 74.0297C101.418 74.2123 101.556 74.4338 101.64 74.6775C101.724 74.9211 101.752 75.1806 101.722 75.4365C101.722 75.4365 97.023 72.7703 95.8633 71.8811C95.8319 71.6596 95.7512 71.4479 95.627 71.2617Z" fill="#CCDFFF"/>
<path d="M119.181 74.6181C118.213 78.9986 117.046 81.8572 115.24 83.584C114.102 84.2993 112.832 84.7779 111.504 84.9914C110.177 85.2049 108.82 85.1488 107.515 84.8264C101.887 83.615 103.785 75.5714 104.581 74.0769C109.375 73.6654 111.991 71.3141 113.351 72.6096C115.01 74.1757 119.181 74.6181 119.181 74.6181Z" fill="#F3F8FF"/>
<path d="M468.816 275.567L474.318 298.802L483.268 297.37L480.122 273.759L468.816 275.567Z" fill="#F4A386"/>
<path d="M472.545 291.953C472.545 291.953 471.297 297.15 472.588 298.802C473.553 300.037 480.47 300.203 486.956 299.934C506.991 299.105 495.078 295.613 489.795 294.976C484.88 294.386 484.523 290.43 482.441 291.481C480.921 292.261 479.252 292.707 477.545 292.789C475.838 292.87 474.133 292.585 472.545 291.953Z" fill="#212121"/>
<path d="M438.228 273.949L436.086 297.727L427.023 297.58L426.783 273.764L438.228 273.949Z" fill="#F4A386"/>
<path d="M436.639 291.953C436.639 291.953 438.196 296.836 436.905 298.487C435.94 299.722 428.258 300.109 421.768 300.257C404.148 300.67 415.5 297.495 420.291 295.181C424.034 293.373 426.023 291.017 428.106 292.068C433.375 294.728 436.639 291.953 436.639 291.953Z" fill="#212121"/>
<path d="M433.977 69.4568C433.049 72.5175 433.575 75.8038 434.067 78.9633C434.559 82.1228 434.997 85.44 433.914 88.4491C432.309 92.9085 427.6 95.9898 426.91 100.678C426.746 102.117 426.934 103.575 427.458 104.926C427.982 106.277 428.826 107.481 429.918 108.436C432.14 110.329 434.962 111.378 437.883 111.396C441.986 111.503 445.981 109.962 450.085 109.915C455.114 109.858 459.932 112.038 464.955 112.255C467.121 112.349 469.95 112.092 471.677 110.671C473.578 109.113 474.863 106.932 475.304 104.517C475.745 102.102 475.313 99.6088 474.086 97.4814C472.838 95.3159 470.762 93.4902 470.44 91.0135C470.058 88.1084 472.152 85.4902 471.75 82.5895C471.389 79.9764 468.313 78.5504 467.199 76.2624C466.301 74.4191 466.455 72.269 466.381 70.29C466.101 62.7795 459.48 60.28 456.028 59.8162C449.145 58.8908 443.495 61.8276 441.154 62.7795C437.199 63.0575 435.268 65.198 433.977 69.4568Z" fill="#212121"/>
<path d="M463.1 146.429C463.1 146.429 466.317 153.813 478.088 213.025C483.355 239.524 492.106 279.986 492.106 279.986C492.106 279.986 476.256 285.768 463.928 283.967L449.626 199.08L445.715 286.168C445.715 286.168 433.764 289.313 422.747 283.553C422.747 283.553 421.65 197.789 437.151 146.224L463.1 146.429Z" fill="#424242"/>
<path d="M456.568 96.7985L470.852 102.758L463.096 146.428C463.096 146.428 446.589 148.971 437.146 146.221C437.146 146.221 431.901 125.93 432.556 120.693C433.21 115.457 431.374 102.235 431.374 102.235L444.463 96.6931L456.568 96.7985Z" fill="#FFB900"/>
<path d="M409.299 116.692C408.751 115.255 407.815 109.891 406.486 108.468C403.878 105.674 400.922 100.894 401.237 100.479C401.776 99.7671 404.561 103.466 404.732 103.14C404.904 102.813 401.488 96.2382 402.207 95.9772C402.926 95.7162 406.235 102.25 406.521 101.597C406.808 100.944 403.522 93.9591 404.625 93.7593C405.727 93.5595 408.534 102.181 408.392 100.752C408.249 99.3232 407.247 94.6964 407.906 94.7635C408.564 94.8306 410.17 100.175 410.679 102.379C411.189 104.583 411.36 103.875 412.731 101.832C413.706 100.376 414.832 100.404 414.545 101.112C414.257 101.82 413.106 105.117 412.694 106.592C412.283 108.066 414.108 113.708 414.59 114.794L409.299 116.692Z" fill="#F4A386"/>
<path d="M449.148 103.64C454.535 104.248 456.571 96.7965 456.571 96.7965L456.136 92.4757L455.683 88.0377L455.347 84.7544L444.435 85.0582L444.467 96.6889V97.0288C444.467 97.0288 444.462 97.0863 444.451 97.1962C444.381 98.1731 444.284 103.096 449.148 103.64Z" fill="#F4A386"/>
<path d="M444.469 97.0332C444.469 97.0332 444.464 97.0907 444.453 97.2006C450.591 97.9239 454.153 93.8494 455.949 90.6464L455.683 88.0377L455.347 84.7544L444.436 85.0582L444.467 96.6889L444.469 97.0332Z" fill="#F29270"/>
<path d="M437.739 68.1974C438.663 72.2991 438.825 76.5351 438.217 80.6952C437.118 87.225 439.166 94.2164 445.715 94.8011C453.629 95.5075 457.32 89.7526 459.11 84.5271C459.842 82.2929 460.373 79.9981 460.698 77.6699C461.395 73.1434 457.392 61.5813 437.739 68.1974Z" fill="#F4A386"/>
<path d="M458.838 80.6863C458.838 80.6863 461.513 77.8999 462.791 79.8752C464.093 81.8815 460.989 86.0851 458.838 84.3442V80.6863Z" fill="#F4A386"/>
<path d="M446.986 88.0442C446.895 88.2838 446.753 88.5007 446.57 88.6796C446.386 88.8585 446.166 88.9951 445.924 89.0798C445.682 89.1645 445.424 89.1952 445.169 89.1698C444.913 89.1444 444.667 89.0634 444.446 88.9327" stroke="#F29270" stroke-width="0.533" stroke-linecap="round" stroke-linejoin="round"/>
<path d="M461.768 80.9954C461.343 80.9549 460.915 81.055 460.552 81.2804C460.189 81.5058 459.91 81.8439 459.758 82.2429" stroke="#F29270" stroke-width="0.63" stroke-linecap="round" stroke-linejoin="round"/>
<path d="M460.763 81.1716C460.763 81.1716 460.325 81.8153 461.113 82.6279" stroke="#F29270" stroke-width="0.63" stroke-linecap="round" stroke-linejoin="round"/>
<path d="M431.381 102.235C431.381 102.235 427.318 106.817 423.906 116.373C420.493 125.93 420.364 125.406 420.364 125.406L414.281 111.568L407.905 114.541C407.905 114.541 412.787 136.729 416.955 142.294C419.895 146.221 421.676 146.091 424.954 140.854C428.233 135.618 435.184 120.43 435.184 120.43C435.184 120.43 436.757 105.9 431.381 102.235Z" fill="#FFB900"/>
<path d="M468.387 156.102C469.877 157.331 469.328 158.696 472.84 162.369C473.867 163.443 471.658 164.072 468.049 159.985C467.686 159.573 467.392 159.218 467.159 158.91C465.077 156.173 468.387 156.102 468.387 156.102Z" fill="#F29270"/>
<path d="M467.57 163.883C467.57 163.883 471.969 169.982 472.983 170.282C473.477 170.43 473.669 168.858 472.72 167.548C472.72 167.548 473.988 167.378 471.668 164.32C470.081 162.127 468.709 159.786 467.57 157.331C467.57 157.331 466.933 163.05 467.57 163.883Z" fill="#F29270"/>
<path d="M464.218 152.268C464.218 152.268 463.534 158.767 464.266 161.246C465.05 163.9 468.55 168.501 470.013 170.273C470.6 170.983 471.556 169.781 469.619 166.701C467.956 164.058 468.21 162.764 468.21 162.764C468.21 162.764 470.607 158.315 468.39 156.102C466.173 153.888 464.218 152.268 464.218 152.268Z" fill="#F4A386"/>
<path d="M470.855 102.759C470.855 102.759 484.65 123.083 483.59 129.519C482.321 137.228 469.528 157.118 469.528 157.118L463.513 151.81C463.513 151.81 473.128 135.64 473.572 131.833C473.745 130.347 466.003 122.529 466.003 122.529C466.003 122.529 465.741 107.865 470.855 102.759Z" fill="#FFB900"/>
<path d="M448.657 75.1085C450.463 75.6298 452.385 75.7463 454.197 76.2417C456.009 76.7372 458.97 79.0834 459.619 80.6952C460.978 79.5583 461.518 77.942 462.242 76.4017C463.203 74.3674 462.902 70.8931 462.106 68.802C460.795 65.3587 456.736 63.2647 452.736 62.8687C449.888 62.6721 447.027 62.9256 444.258 63.6201C441.825 64.1554 440.224 64.3205 440.745 66.8747C441.212 68.8252 442.191 70.6163 443.581 72.0635C444.972 73.5108 446.724 74.5618 448.657 75.1085Z" fill="#212121"/>
<path d="M443.717 66.4803C443.847 66.1075 443.827 65.6988 443.661 65.3404C443.492 65.1116 443.254 64.9429 442.982 64.8589C442.125 64.5745 441.207 64.5316 440.327 64.7348C439.448 64.938 438.642 65.3795 437.998 66.0106C436.724 67.3053 435.968 69.0199 435.872 70.832C435.775 72.0118 435.627 74.3712 436.507 75.3143C437.558 76.438 438.784 75.0193 439.517 74.254C441.592 72.0869 443.043 69.4014 443.717 66.4803Z" fill="#212121"/>
<path d="M449.04 199.078L445.239 179.532" stroke="#212121" stroke-width="0.969" stroke-linecap="round" stroke-linejoin="round"/>
<path d="M432.806 125.522C432.806 125.522 430.938 115.051 431.379 109.532" stroke="#FFA600" stroke-width="0.969" stroke-linecap="round" stroke-linejoin="round"/>
<path d="M467.837 124.433L460.642 117.115" stroke="#FFA600" stroke-width="0.969" stroke-linecap="round" stroke-linejoin="round"/>
<path d="M456.047 88.9717C457.197 87.5829 458.221 86.0956 459.109 84.5271C458.511 86.2583 457.729 87.9206 456.777 89.4857C456.511 89.3492 456.265 89.1762 456.047 88.9717Z" fill="#CCDFFF"/>
<path d="M456.776 89.4858C456.776 89.4858 453.895 95.8269 448.089 95.8608C446.709 95.8976 445.334 95.6911 444.026 95.251C443.034 94.8957 442.115 94.3638 441.313 93.6813C439.452 92.1255 437.296 88.5266 437.948 83.4471C437.948 83.4471 442.24 84.3451 444.074 82.9877C445.454 81.9731 446.395 83.9816 451.387 84.3724C451.435 84.3791 451.489 84.3791 451.544 84.3864C452.801 84.5964 454.09 84.5095 455.308 84.1328C455.224 84.2898 453.954 86.8263 456.776 89.4858Z" fill="#CCDFFF"/>
<path d="M459.315 80.1208C458.272 81.7183 456.91 83.0832 455.313 84.1297C455.086 84.3494 454.924 84.6275 454.846 84.9332C454.768 85.239 454.776 85.5603 454.87 85.8617C456.781 84.4721 458.397 82.7178 459.625 80.7004C459.546 80.4952 459.442 80.3005 459.315 80.1208Z" fill="#CCDFFF"/>
<path d="M444.024 95.251C443.032 94.8957 442.113 94.3638 441.311 93.6813C439.45 92.1255 437.294 88.5266 437.946 83.4471C437.946 83.4471 442.238 84.3451 444.072 82.9877C445.452 81.9731 446.393 83.9816 451.385 84.3724C452.312 85.2469 452.863 86.446 452.923 87.7177C453.023 91.234 452.346 95.6691 444.024 95.251Z" fill="#F3F8FF"/>
</g>
<defs>
<clipPath id="clip0">
<path d="M0 16C0 7.16345 7.16344 0 16 0H538C546.837 0 554 7.16344 554 16V304C554 312.837 546.837 320 538 320H16C7.16346 320 0 312.837 0 304V16Z" fill="white"/>
</clipPath>
</defs>
</svg>
