<svg width="16" height="17" viewBox="0 0 16 17" fill="none" xmlns="http://www.w3.org/2000/svg">
<path d="M8 0.5C6.41775 0.5 4.87103 0.969192 3.55544 1.84824C2.23985 2.72729 1.21447 3.97672 0.608967 5.43853C0.00346627 6.90034 -0.15496 8.50887 0.153721 10.0607C0.462403 11.6126 1.22433 13.038 2.34315 14.1569C3.46197 15.2757 4.88743 16.0376 6.43928 16.3463C7.99113 16.655 9.59966 16.4965 11.0615 15.891C12.5233 15.2855 13.7727 14.2602 14.6518 12.9446C15.5308 11.629 16 10.0822 16 8.5C16 7.44942 15.7931 6.40914 15.391 5.43853C14.989 4.46793 14.3997 3.58601 13.6569 2.84315C12.914 2.10028 12.0321 1.511 11.0615 1.10896C10.0909 0.706926 9.05058 0.5 8 0.5ZM8.8 11.7C8.8 11.9122 8.71572 12.1157 8.56569 12.2657C8.41566 12.4157 8.21217 12.5 8 12.5C7.78783 12.5 7.58435 12.4157 7.43432 12.2657C7.28429 12.1157 7.2 11.9122 7.2 11.7V7.7C7.2 7.48782 7.28429 7.28434 7.43432 7.13431C7.58435 6.98428 7.78783 6.9 8 6.9C8.21217 6.9 8.41566 6.98428 8.56569 7.13431C8.71572 7.28434 8.8 7.48782 8.8 7.7V11.7ZM8 6.1C7.84178 6.1 7.6871 6.05308 7.55555 5.96517C7.42399 5.87727 7.32145 5.75233 7.2609 5.60615C7.20035 5.45996 7.18451 5.29911 7.21537 5.14393C7.24624 4.98874 7.32243 4.8462 7.43432 4.73431C7.5462 4.62243 7.68874 4.54624 7.84393 4.51537C7.99911 4.4845 8.15997 4.50035 8.30615 4.56089C8.45233 4.62145 8.57727 4.72398 8.66518 4.85554C8.75308 4.9871 8.8 5.14177 8.8 5.3C8.8 5.51217 8.71572 5.71565 8.56569 5.86568C8.41566 6.01571 8.21217 6.1 8 6.1Z" fill="#1565C0"/>
</svg>
