<svg width="430" height="321" viewBox="0 0 430 321" fill="none" xmlns="http://www.w3.org/2000/svg">
<path d="M377.585 85.0242C377.837 83.509 377.723 81.9555 377.252 80.4935C376.781 79.0315 375.967 77.7034 374.878 76.6203C373.789 75.5372 372.456 74.7304 370.991 74.2675C369.527 73.8046 367.973 73.6989 366.459 73.9593C365.35 72.1069 363.722 70.6202 361.777 69.6828C359.832 68.7454 357.655 68.3985 355.515 68.6849C353.374 68.9713 351.365 69.8785 349.735 71.2944C348.105 72.7103 346.925 74.5728 346.342 76.6517C345.144 76.2773 343.869 76.2239 342.643 76.4968C341.418 76.7697 340.286 77.3594 339.36 78.2068C338.434 79.0543 337.746 80.1299 337.366 81.3262C336.986 82.5225 336.926 83.7977 337.193 85.0242H377.585Z" fill="#F0F0F0"/>
<path d="M124.835 46.7932C125.267 44.1891 125.07 41.5193 124.26 39.0069C123.45 36.4945 122.051 34.2123 120.179 32.3508C118.308 30.4893 116.018 29.1026 113.501 28.3064C110.984 27.5102 108.313 27.3276 105.712 27.7739C103.805 24.5902 101.006 22.035 97.663 20.424C94.3197 18.813 90.5776 18.2168 86.8991 18.7092C83.2207 19.2015 79.7671 20.7607 76.965 23.1942C74.163 25.6278 72.1353 28.8289 71.1325 32.4021C69.073 31.7587 66.8808 31.6671 64.7749 32.1361C62.6689 32.6052 60.7229 33.6187 59.1312 35.0753C57.5395 36.5319 56.3578 38.3807 55.7043 40.4369C55.0507 42.4932 54.9482 44.6849 55.4068 46.7932H124.835Z" fill="#F0F0F0"/>
<path d="M429.703 281.714H0.297852V281.928H429.703V281.714Z" fill="#EBEBEB"/>
<path d="M386.678 295.537H358.232V295.751H386.678V295.537Z" fill="#EBEBEB"/>
<path d="M284.753 297.867H277.287V298.082H284.753V297.867Z" fill="#EBEBEB"/>
<path d="M357.373 287.562H340.891V287.777H357.373V287.562Z" fill="#EBEBEB"/>
<path d="M82.4442 289.005H45.3496V289.22H82.4442V289.005Z" fill="#EBEBEB"/>
<path d="M95.5306 289.005H90.0918V289.22H95.5306V289.005Z" fill="#EBEBEB"/>
<path d="M193.657 292.631H113.207V292.846H193.657V292.631Z" fill="#EBEBEB"/>
<path d="M203.849 243.412H38.0134C36.7138 243.41 35.4679 242.894 34.5489 241.975C33.6299 241.056 33.1129 239.81 33.1113 238.51V5.40123C33.1129 4.10169 33.6299 2.85583 34.5489 1.93699C35.4679 1.01815 36.7139 0.501364 38.0134 0.5H203.85C205.149 0.501591 206.395 1.01848 207.314 1.9373C208.233 2.85611 208.749 4.10183 208.751 5.40123V238.51C208.749 239.81 208.232 241.056 207.313 241.975C206.394 242.894 205.149 243.41 203.849 243.412ZM38.0134 0.712128C36.7707 0.713264 35.5793 1.20736 34.7005 2.08598C33.8217 2.96461 33.3274 4.15598 33.326 5.39866V238.51C33.3274 239.753 33.8217 240.944 34.7004 241.823C35.5792 242.702 36.7707 243.196 38.0134 243.197H203.85C205.092 243.196 206.284 242.702 207.162 241.823C208.041 240.944 208.535 239.753 208.536 238.51V5.40123C208.535 4.15871 208.041 2.96746 207.162 2.08886C206.284 1.21026 205.092 0.716067 203.85 0.714703L38.0134 0.712128Z" fill="#EBEBEB"/>
<path d="M389.605 243.412H223.768C222.469 243.41 221.223 242.893 220.304 241.974C219.385 241.055 218.869 239.81 218.867 238.51V5.40123C218.869 4.10176 219.385 2.85591 220.304 1.93705C221.223 1.01818 222.469 0.501364 223.768 0.5H389.605C390.904 0.501136 392.151 1.01783 393.07 1.93669C393.989 2.85555 394.506 4.10154 394.508 5.40123V238.51C394.506 239.81 393.989 241.056 393.07 241.975C392.151 242.894 390.905 243.411 389.605 243.412ZM223.77 0.712128C222.528 0.713492 221.336 1.20769 220.458 2.08629C219.579 2.96489 219.085 4.15613 219.084 5.39866V238.51C219.085 239.753 219.579 240.944 220.457 241.823C221.336 242.702 222.527 243.196 223.77 243.197H389.607C390.849 243.196 392.041 242.702 392.92 241.823C393.799 240.944 394.293 239.753 394.295 238.51V5.40123C394.294 4.15774 393.799 2.96544 392.92 2.08624C392.041 1.20703 390.848 0.71281 389.605 0.712128H223.77Z" fill="#EBEBEB"/>
<path d="M32.8477 256.862V199.763H60.3536V184.154H73.5209V138.269L90.5297 121.264H125.046V170.431H172.412V180.149H205.898V167.382H241.875V157.763H269.965V100.802H319.69V137.099H331.147V150.253H357.759V171.809H371.982L382.927 182.754V193.886H393.82V256.861L32.8477 256.862Z" fill="#F0F0F0"/>
<path d="M66.3507 199.763H60.8277L60.3528 199.445V199.763H32.8477V256.862H66.3507V199.763Z" fill="#E6E6E6"/>
<path d="M206.374 171.535V180.146H205.022L203.578 189.351L207.655 256.861H253.028V167.382H207.025L206.374 171.535Z" fill="#E6E6E6"/>
<path d="M312.002 150.252V256.862H394.294V193.886H383.401V182.754L372.455 171.81H358.233V150.254H312.002V150.252Z" fill="#E6E6E6"/>
<path d="M372.505 177.6H367.533V182.572H372.505V177.6Z" fill="white"/>
<path d="M363.72 177.601H358.748V182.573H363.72V177.601Z" fill="white"/>
<path d="M372.505 186.866H367.533V191.837H372.505V186.866Z" fill="white"/>
<path d="M363.72 186.866H358.748V191.837H363.72V186.866Z" fill="white"/>
<path d="M345.351 154.261H340.379V159.233H345.351V154.261Z" fill="white"/>
<path d="M336.565 154.261H331.594V159.232H336.565V154.261Z" fill="white"/>
<path d="M60.581 207.816H55.6094V212.787H60.581V207.816Z" fill="white"/>
<path d="M51.7939 207.817H46.8223V212.788H51.7939V207.817Z" fill="white"/>
<path d="M247.297 186.964V181.992H242.325V186.964H247.297Z" fill="white"/>
<path d="M247.297 178.178V173.207H242.325V178.178H247.297Z" fill="white"/>
<path d="M213.334 320.5C305.297 320.5 379.848 316.146 379.848 310.776C379.848 305.405 305.297 301.051 213.334 301.051C121.371 301.051 46.8203 305.405 46.8203 310.776C46.8203 316.146 121.371 320.5 213.334 320.5Z" fill="#F5F5F5"/>
<path d="M381.206 268.441H334.289V307.245H381.206V268.441Z" fill="#FF9500"/>
<path opacity="0.3" d="M381.206 268.441H334.289V307.245H381.206V268.441Z" fill="white"/>
<path d="M345.854 268.442H309.494V307.246H345.854V268.442Z" fill="#FF9500"/>
<path opacity="0.1" d="M345.854 268.442H309.494V307.246H345.854V268.442Z" fill="white"/>
<path opacity="0.3" d="M332.817 268.441H322.531V280.513H332.817V268.441Z" fill="white"/>
<path opacity="0.1" d="M371.205 268.441H360.918V280.513H371.205V268.441Z" fill="black"/>
<path d="M214.98 35.3335H99.0814C91.9668 35.3335 86.1992 41.101 86.1992 48.2157V290.002C86.1992 297.116 91.9668 302.884 99.0814 302.884H214.98C222.095 302.884 227.863 297.116 227.863 290.002V48.2157C227.863 41.101 222.095 35.3335 214.98 35.3335Z" fill="#263238"/>
<path d="M218.7 53.1635H95.3613V268.345H218.7V53.1635Z" fill="#BBDEFB"/>
<path opacity="0.3" d="M218.7 247.021H95.3613V268.346H218.7V247.021Z" fill="white"/>
<path opacity="0.1" d="M218.7 141.709C187.346 172.899 129.284 231.228 95.3613 265.341V268.347H164.282L218.7 213.928V141.709Z" fill="white"/>
<path opacity="0.1" d="M95.3613 161.379L203.577 53.1635H152.969C139.571 66.4588 116.682 89.3942 95.3613 110.798V161.379Z" fill="white"/>
<path opacity="0.1" d="M95.3613 206.612L218.7 83.2731V56.8784L95.3613 180.216V206.612Z" fill="white"/>
<path opacity="0.2" d="M218.7 53.1635H95.3613V62.8707H218.7V53.1635Z" fill="black"/>
<path d="M157.032 291.534C161.676 291.534 165.44 287.769 165.44 283.125C165.44 278.481 161.676 274.716 157.032 274.716C152.388 274.716 148.623 278.481 148.623 283.125C148.623 287.769 152.388 291.534 157.032 291.534Z" fill="#BBDEFB"/>
<g opacity="0.6">
<path opacity="0.6" d="M108.695 60.2457H110.562V57.7568H108.695V60.2457Z" fill="white"/>
<path opacity="0.6" d="M105.652 60.2457H107.52V56.9263H105.652V60.2457Z" fill="white"/>
<path opacity="0.6" d="M102.61 60.2457H104.477V56.0959H102.61V60.2457Z" fill="white"/>
<path opacity="0.6" d="M99.5685 60.2457H101.436V55.2654H99.5685V60.2457Z" fill="white"/>
</g>
<path opacity="0.6" d="M205.612 56.8478H204.506V59.3366H205.612V56.8478Z" fill="white"/>
<path opacity="0.6" d="M206.373 60.2455H215.189V55.9394H206.373V60.2455Z" fill="white"/>
<path opacity="0.4" d="M163.172 181.74C160.337 179.208 157.031 182.643 157.031 182.643C157.031 182.643 153.72 179.208 150.891 181.74C146.854 185.353 152.723 191.822 157.031 193.119C161.339 191.822 167.21 185.356 163.172 181.74Z" fill="#E53935"/>
<path d="M192.356 199.763H121.708C119.573 199.763 117.525 200.611 116.015 202.121C114.505 203.631 113.656 205.68 113.656 207.815C113.656 209.951 114.505 211.999 116.015 213.509C117.525 215.019 119.573 215.867 121.708 215.867H192.356C194.492 215.867 196.54 215.019 198.05 213.509C199.56 211.999 200.408 209.951 200.408 207.815C200.408 205.68 199.56 203.631 198.05 202.121C196.54 200.611 194.492 199.763 192.356 199.763Z" fill="#1E88E5"/>
<path opacity="0.3" d="M227.865 111.661L201.99 115.348L208.751 163.418L227.865 161.479V111.661Z" fill="#263238"/>
<path opacity="0.7" d="M158.224 171.809C184.53 171.809 205.855 150.484 205.855 124.179C205.855 97.873 184.53 76.548 158.224 76.548C131.919 76.548 110.594 97.873 110.594 124.179C110.594 150.484 131.919 171.809 158.224 171.809Z" fill="white"/>
<path d="M175.308 95.0542C175.308 95.0542 185.04 109.444 190.5 110.03C195.959 110.617 217.326 92.2322 217.326 92.2322L220.956 95.366C220.956 95.366 200.627 117.729 192.142 119.001C183.657 120.274 167.527 103.493 167.527 103.493L175.308 95.0542Z" fill="#F4A386"/>
<path d="M172.99 96.1261C172.99 96.1261 176.419 92.757 181.149 98.6012C185.879 104.445 187.813 105.643 187.813 105.643L175.761 117.382C175.761 117.382 168.719 99.2548 172.99 96.1261Z" fill="#1E88E5"/>
<path d="M215.632 90.9084C215.632 90.9084 216.054 85.5047 217.314 85.1543C218.573 84.804 218.119 88.8043 218.119 88.8043C218.119 88.8043 224.732 84.773 226.066 85.1329C227.399 85.4927 227.175 88.1078 226.939 88.8043C224.916 94.7808 217.703 97.3065 217.703 97.3065L214.793 94.5635L215.632 90.9084Z" fill="#F4A386"/>
<path d="M166.049 80.7595C166.049 80.7595 172.688 91.8219 170.648 98.7499C168.607 105.678 158.148 99.4618 158.148 99.4618L158.274 85.7398L166.049 80.7595Z" fill="#263238"/>
<path d="M148.246 61.6954C148.246 61.6954 138.432 66.6696 142.285 84.1601C148.745 113.489 158.276 101.33 158.276 101.33C158.276 101.33 157.856 89.7682 153.941 84.1601C150.025 78.5521 150.87 70.5351 150.87 70.5351L148.246 61.6954Z" fill="#263238"/>
<path d="M176.717 139.175L147.282 141.717C146.996 134.423 145.947 127.178 144.152 120.102C143.448 117.285 142.565 114.137 141.433 110.498C140.827 108.555 140.158 106.468 139.408 104.221C138.847 102.518 138.24 100.708 137.572 98.7995C141.568 97.5241 145.651 96.5377 149.788 95.8478C154.154 95.0725 158.57 94.6078 163.003 94.4574C168.727 94.4127 175.308 95.0586 175.308 95.0586C175.308 95.0586 176.245 95.2819 176.833 101.355C177.368 107.048 177.894 118.444 176.717 139.175Z" fill="#1E88E5"/>
<path opacity="0.2" d="M176.717 139.175L147.282 141.717C146.996 134.423 145.947 127.178 144.152 120.102C143.448 117.285 142.565 114.137 141.433 110.498C140.827 108.555 140.158 106.468 139.408 104.221C138.847 102.518 138.24 100.708 137.572 98.7995C141.568 97.5241 145.651 96.5377 149.788 95.8478C154.154 95.0725 158.57 94.6078 163.003 94.4574C168.727 94.4127 175.308 95.0586 175.308 95.0586C175.308 95.0586 176.245 95.2819 176.833 101.355C177.368 107.048 177.894 118.444 176.717 139.175Z" fill="white"/>
<path opacity="0.2" d="M147.137 139.511C151.851 137.679 167.394 130.051 167.394 130.051L146.744 134.704C146.898 136.279 147.024 137.864 147.137 139.511Z" fill="black"/>
<path d="M160.574 100.957C153.32 100.028 151.141 96.9297 151.141 96.9297C155.743 92.5876 151.92 85.0627 151.92 85.0627L160.65 86.6944C160.448 87.9098 160.333 89.1383 160.307 90.3702C160.241 95.6699 162.637 95.7214 162.637 95.7214C164.171 98.5907 160.574 100.957 160.574 100.957Z" fill="#F4A386"/>
<path opacity="0.2" d="M160.651 86.6927C160.449 87.9081 160.334 89.1365 160.308 90.3684C154.41 90.3684 151.918 85.0627 151.918 85.0627L160.651 86.6927Z" fill="black"/>
<path d="M156.735 62.2522C164.324 61.8365 166.039 65.4779 167.023 73.2682C168.253 83.0045 166.508 90.3843 156.903 88.8126C146.362 87.095 143.414 70.4092 149.747 64.0325C151.25 62.5227 154.317 62.3845 156.735 62.2522Z" fill="#F4A386"/>
<path d="M144.416 97.7333C144.416 97.7333 152.933 104.644 160.861 104.532C168.79 104.421 171.578 95.5047 171.578 95.5047C171.578 95.5047 159.279 91.8633 144.416 97.7333Z" fill="#F4A386"/>
<path d="M131.882 114.992C131.882 114.992 129.206 130.799 129.522 135.297C129.838 139.794 136.643 139.934 140.47 139.481C144.88 138.954 167.85 129.871 167.85 129.871L166.791 125.33C166.791 125.33 148.801 130.175 141.159 131.058C140.798 131.101 140.432 131.059 140.089 130.936C139.746 130.814 139.437 130.614 139.184 130.352C138.932 130.091 138.743 129.774 138.633 129.428C138.523 129.081 138.494 128.713 138.549 128.354L140.332 116.627L131.882 114.992Z" fill="#F4A386"/>
<path d="M137.572 98.7994C137.572 98.7994 142.264 97.7585 143.179 105.22C143.717 109.743 143.114 114.33 141.425 118.561L129.521 116.414C129.521 116.414 132.297 99.1876 137.572 98.7994Z" fill="#1E88E5"/>
<path d="M172.656 120.805C172.362 120.631 172.017 120.561 171.678 120.607C170.271 120.974 165.986 125.205 165.736 125.773L166.84 129.783C166.84 129.783 169.093 130.986 170.176 130.627C171.26 130.269 176.801 126.208 176.808 125.234C176.804 125.178 176.794 125.123 176.777 125.069C176.97 124.924 177.138 124.801 177.251 124.726C178.219 124.123 174.762 121.538 172.656 120.805Z" fill="#F4A386"/>
<path d="M156.286 62.2757C156.286 62.2757 157.254 71.7991 149.318 72.1357C141.382 72.4724 148.014 63.612 148.014 63.612L156.286 62.2757Z" fill="#263238"/>
<path d="M154.582 59.3457C141.539 59.7571 142.62 78.8407 149.669 84.1602C149.669 84.1602 146.249 79.5466 148.231 75.5266C148.231 75.5266 150.767 69.3079 149.966 64.5235C151.982 63.6454 154.124 63.0912 156.313 62.8814C157.78 64.6652 161.44 70.0954 166.294 69.9838C166.573 70.8267 166.785 71.6898 166.931 72.5654C166.931 72.5654 167.645 58.9326 154.582 59.3457Z" fill="#263238"/>
<path d="M149.559 77.0601C149.437 76.186 148.975 75.3957 148.272 74.8622C147.569 74.3287 146.683 74.0957 145.808 74.214C143.471 74.5996 142.614 79.4897 148.527 80.3296C149.373 80.4507 149.802 79.6039 149.559 77.0601Z" fill="#F4A386"/>
<path d="M148.674 111.767L156.575 110.645C156.575 110.645 159.171 119.07 154.47 119.977C149.335 120.968 148.674 111.767 148.674 111.767Z" fill="#1E88E5"/>
<path d="M178.438 157.164C178.045 153.263 177.431 147.953 176.634 143.781L176.713 139.175L147.278 141.717L147.02 145.997C146.333 147.268 143.327 153.56 141.967 168.959C148.084 171.175 154.591 172.115 161.085 171.722C167.58 171.329 173.926 169.61 179.731 166.673L178.438 157.164Z" fill="#263238"/>
<path d="M253.082 142.946L238.114 146.745C236.956 146.029 235.582 145.748 234.236 145.952C232.12 146.346 226.81 150.687 227.022 151.317C227.233 151.948 233.629 154.9 234.546 154.661C237.844 153.802 241.245 149.962 241.245 149.962L254.628 147.21L253.082 142.946Z" fill="#F4A386"/>
<path d="M290.606 89.1217C287.563 92.3603 279.508 92.0838 279.508 92.0838C279.508 92.0838 276.854 92.313 276.189 90.0595C279.104 89.3381 279.55 87.2443 280.002 85.4348C280.238 84.3157 280.249 83.1608 280.034 82.0374C279.935 81.4096 279.802 80.7875 279.637 80.1738L288.987 72.034C288.069 76.991 287.117 85.8565 290.606 89.1217Z" fill="#F4A386"/>
<path opacity="0.2" d="M287.062 76.889C287.139 82.8792 282.372 84.9103 280.002 85.4342C280.238 84.3151 280.249 83.1602 280.035 82.0367L287.062 76.889Z" fill="black"/>
<path d="M287.839 78.2156C286.928 79.8239 285.514 81.0887 283.814 81.816C282.115 82.5433 280.224 82.6928 278.431 82.2417C276.102 81.7023 274.065 80.2955 272.736 78.3075C272.549 78.0304 272.377 77.7437 272.22 77.4487C269.349 71.9729 267.795 62.1197 273.494 57.9296C274.748 56.9976 276.22 56.4021 277.77 56.1997C279.319 55.9974 280.895 56.1949 282.346 56.7736C283.798 57.3522 285.077 58.2927 286.062 59.5056C287.048 60.7184 287.706 62.1632 287.975 63.7025C289.235 70.2759 290.285 74.0761 287.839 78.2156Z" fill="#F4A386"/>
<path d="M292.153 68.3012C291.805 69.9504 290.816 71.3941 289.404 72.3153C287.528 73.5228 285.934 72.0009 285.901 69.8857C285.888 68.0058 286.825 65.0549 288.982 64.7191C291.139 64.3833 292.552 66.2753 292.153 68.3012Z" fill="#F4A386"/>
<path d="M262.58 94.2229C259.358 97.2787 256.984 101.118 255.689 105.365C254.073 110.509 252.56 122.655 251.824 129.24C251.68 130.52 251.125 131.719 250.241 132.656C249.358 133.594 248.194 134.22 246.925 134.439L228.834 137.589L230.28 146.784L253.195 144.584C255.65 144.35 257.963 143.33 259.791 141.676C261.62 140.022 262.866 137.822 263.344 135.403C264.744 128.318 266.617 118.046 267.467 109.911C268.912 96.0685 267.407 92.7904 262.58 94.2229Z" fill="#16A75C"/>
<path opacity="0.1" d="M262.58 94.2229C259.358 97.2787 256.984 101.118 255.689 105.365C254.073 110.509 252.56 122.655 251.824 129.24C251.68 130.52 251.125 131.719 250.241 132.656C249.358 133.594 248.194 134.22 246.925 134.439L228.834 137.589L230.28 146.784L253.195 144.584C255.65 144.35 257.963 143.33 259.791 141.676C261.62 140.022 262.866 137.822 263.344 135.403C264.744 128.318 266.617 118.046 267.467 109.911C268.912 96.0685 267.407 92.7904 262.58 94.2229Z" fill="black"/>
<path d="M249.877 298.634L243.074 296.96L246.948 282.382L253.751 284.056L249.877 298.634Z" fill="#F4A386"/>
<path d="M243.142 294.603L250.856 297.389C250.982 297.436 251.088 297.523 251.158 297.638C251.228 297.752 251.257 297.887 251.24 298.021L250.449 304.128C250.413 304.389 250.274 304.625 250.064 304.785C249.853 304.944 249.588 305.013 249.326 304.977C249.253 304.967 249.181 304.949 249.112 304.923C246.631 303.978 244.869 303.171 241.735 302.04C239.805 301.342 233.907 299.441 231.242 298.478C228.577 297.516 229.181 294.757 230.358 294.908C235.638 295.61 239.855 295.462 241.929 294.622C242.316 294.46 242.75 294.454 243.142 294.603Z" fill="#2E353A"/>
<path d="M240.638 294.96C240.194 294.839 239.804 294.57 239.534 294.197C239.452 294.058 239.407 293.901 239.403 293.739C239.399 293.578 239.436 293.418 239.511 293.275C239.541 293.187 239.595 293.109 239.668 293.051C239.741 292.993 239.829 292.957 239.922 292.948C240.755 292.839 242.352 294.838 242.525 295.067C242.547 295.09 242.56 295.119 242.564 295.149C242.567 295.18 242.561 295.212 242.546 295.239C242.531 295.267 242.508 295.291 242.479 295.306C242.451 295.321 242.418 295.328 242.386 295.325C241.792 295.268 241.205 295.146 240.638 294.96ZM240.168 293.302C240.103 293.273 240.03 293.263 239.959 293.273C239.919 293.258 239.85 293.297 239.799 293.415C239.75 293.511 239.725 293.616 239.726 293.723C239.727 293.83 239.754 293.935 239.805 294.03C240.4 294.61 241.194 294.942 242.026 294.96C241.517 294.293 240.885 293.73 240.164 293.302H240.168Z" fill="#E0E0E0"/>
<path d="M242.344 295.32L242.272 295.295C241.745 294.703 240.984 292.847 241.354 292.223C241.416 292.12 241.513 292.041 241.628 292.001C241.742 291.96 241.867 291.961 241.981 292.003C242.1 292.029 242.213 292.08 242.311 292.153C242.409 292.227 242.49 292.32 242.549 292.427C243.064 293.29 242.563 295.175 242.539 295.261C242.53 295.289 242.513 295.313 242.492 295.333C242.47 295.352 242.444 295.366 242.416 295.373C242.387 295.363 242.362 295.345 242.344 295.32ZM242 292.283L241.927 292.257C241.733 292.187 241.677 292.294 241.654 292.332C241.424 292.715 241.85 294.064 242.327 294.793C242.545 294.054 242.533 293.266 242.292 292.534C242.229 292.416 242.124 292.325 241.999 292.278L242 292.283Z" fill="#E0E0E0"/>
<path opacity="0.2" d="M253.75 284.057L246.948 282.383L244.955 289.904L251.759 291.578L253.75 284.057Z" fill="black"/>
<path d="M294.916 298.566L287.96 299.392L286.455 284.385L293.411 283.558L294.916 298.566Z" fill="#F4A386"/>
<path d="M287.193 297.163L295.394 297.057C295.529 297.056 295.659 297.1 295.765 297.183C295.871 297.266 295.945 297.382 295.976 297.513L297.384 303.507C297.442 303.764 297.395 304.035 297.254 304.258C297.113 304.481 296.889 304.639 296.631 304.698C296.559 304.714 296.486 304.722 296.412 304.722C293.758 304.713 291.824 304.575 288.492 304.619C286.44 304.645 280.248 304.94 277.414 304.977C274.579 305.014 274.174 302.218 275.33 301.946C280.52 300.744 284.415 299.123 286.065 297.607C286.37 297.32 286.774 297.161 287.193 297.163Z" fill="#2E353A"/>
<path d="M284.974 298.376C284.516 298.419 284.057 298.304 283.673 298.05C283.548 297.948 283.451 297.817 283.39 297.667C283.33 297.517 283.309 297.355 283.33 297.195C283.326 297.102 283.35 297.01 283.398 296.93C283.446 296.85 283.516 296.786 283.6 296.745C284.342 296.349 286.54 297.66 286.782 297.812C286.81 297.825 286.833 297.848 286.847 297.875C286.862 297.903 286.867 297.935 286.862 297.965C286.858 297.998 286.845 298.028 286.824 298.053C286.803 298.077 286.775 298.095 286.744 298.104C286.166 298.26 285.572 298.351 284.974 298.376ZM283.952 296.989C283.881 296.984 283.809 297 283.746 297.034C283.703 297.034 283.653 297.096 283.646 297.225C283.634 297.331 283.648 297.439 283.687 297.539C283.725 297.639 283.788 297.727 283.868 297.798C284.63 298.13 285.49 298.161 286.273 297.884C285.564 297.441 284.776 297.137 283.952 296.99V296.989Z" fill="#E0E0E0"/>
<path d="M286.698 298.114H286.62C285.92 297.745 284.552 296.277 284.68 295.562C284.702 295.443 284.765 295.334 284.858 295.256C284.951 295.177 285.069 295.134 285.19 295.133C285.311 295.115 285.435 295.124 285.552 295.158C285.67 295.192 285.778 295.25 285.871 295.33C286.661 295.955 286.849 297.894 286.859 297.992C286.86 298.021 286.853 298.049 286.84 298.075C286.827 298.101 286.807 298.123 286.783 298.139C286.753 298.14 286.723 298.131 286.698 298.114ZM285.305 295.392H285.228C285.022 295.392 285.006 295.515 284.998 295.559C284.918 295.998 285.792 297.112 286.493 297.626C286.438 296.858 286.151 296.124 285.668 295.524C285.567 295.438 285.438 295.391 285.305 295.392Z" fill="#E0E0E0"/>
<path opacity="0.2" d="M293.411 283.558L286.455 284.385L287.236 292.126L294.192 291.3L293.411 283.558Z" fill="black"/>
<path d="M262.565 161.446C262.565 161.446 245.076 247.048 244.463 279.876L256.122 285.092C256.122 285.092 265.618 247.963 268.701 227.104C268.701 227.104 276.881 210.536 279.081 197.036C279.081 197.036 278.622 256.266 284.759 287.561L295.701 286.718C295.701 286.718 306.74 175.559 304.747 157.764L262.565 161.446Z" fill="#424242"/>
<path opacity="0.2" d="M277.18 175.442C277.18 175.442 275.884 195.788 277.732 203.26C278.284 201.161 278.751 199.064 279.081 197.036L277.18 175.442Z" fill="black"/>
<path d="M283.375 290.053L298.388 287.82L297.929 283.662L282.311 285.712L283.375 290.053Z" fill="#212121"/>
<path d="M242.482 283.077L256.989 287.548L258.37 283.597L243.399 278.702L242.482 283.077Z" fill="#212121"/>
<path d="M262.579 94.2233C262.579 94.2233 264.434 90.5561 280.732 89.6089C297.029 88.6616 304.331 91.0731 304.331 91.0731C304.331 91.0731 302.854 125.584 304.747 157.765C304.747 157.765 277.482 167.47 262.563 161.447C262.565 161.447 251.379 119.767 262.579 94.2233Z" fill="#16A75C"/>
<path opacity="0.2" d="M286.576 89.3979C284.773 89.421 282.829 89.4837 280.737 89.6083C279.479 89.6813 278.318 89.7723 277.227 89.8745C277.239 89.8994 278.616 92.511 280.737 92.5119C281.891 92.5133 283.028 92.2298 284.047 91.6866C285.065 91.1434 285.934 90.3572 286.576 89.3979Z" fill="black"/>
<path opacity="0.3" d="M303.893 134.237L279.08 146.783C279.08 146.783 294.721 147.264 304.077 142.193C303.998 139.509 303.938 136.85 303.893 134.237Z" fill="black"/>
<path opacity="0.1" d="M280.418 99.2718L289.239 138.506L287.276 143.585L280.418 99.2718Z" fill="black"/>
<path d="M280.418 99.2725L234.053 106.448L240.91 150.76L287.275 143.585L280.418 99.2725Z" fill="#FF9500"/>
<path opacity="0.1" d="M280.418 99.2725L234.053 106.448L240.91 150.76L287.275 143.585L280.418 99.2725Z" fill="white"/>
<path d="M245.473 104.677L209.549 110.24L216.409 154.542L252.333 148.979L245.473 104.677Z" fill="#FF9500"/>
<path opacity="0.3" d="M245.473 104.677L209.549 110.24L216.409 154.542L252.333 148.979L245.473 104.677Z" fill="white"/>
<path opacity="0.3" d="M232.597 106.672L222.434 108.246L224.281 120.174L234.444 118.6L232.597 106.672Z" fill="white"/>
<path opacity="0.1" d="M270.535 100.802L260.369 102.375L262.216 114.306L272.381 112.733L270.535 100.802Z" fill="black"/>
<path opacity="0.2" d="M248.656 140.137L237.549 141.857L238.596 148.618L249.703 146.898L248.656 140.137Z" fill="white"/>
<path opacity="0.2" d="M266.026 146.438L264.883 144.929L261.197 145.714C261.002 146.341 260.927 147 260.975 147.655L266.081 146.865L266.026 146.438Z" fill="#2E353A"/>
<path d="M287.338 137.588L272.336 141.246C271.185 140.518 269.813 140.224 268.465 140.416C266.346 140.79 260.994 145.08 261.197 145.713C261.401 146.346 266.369 150.235 267.272 149.947C268.176 149.659 273.964 145.577 273.964 145.577L288.259 144.382L287.338 137.588Z" fill="#F4A386"/>
<path d="M303.365 91.0252C303.365 91.0252 297.056 92.7025 297.955 104.395C298.345 109.481 298.545 114.911 298.642 119.424C298.708 122.449 297.912 125.43 296.345 128.019C294.778 130.607 292.507 132.696 289.796 134.04L277.48 139.075L279.071 146.783C279.071 146.783 296.961 145.152 303.258 140.112C309.554 135.073 311.746 124.338 310.722 115.435C309.306 103.069 309.779 90.5219 303.365 91.0252Z" fill="#16A75C"/>
<path opacity="0.1" d="M303.365 91.0252C303.365 91.0252 297.056 92.7025 297.955 104.395C298.345 109.481 298.545 114.911 298.642 119.424C298.708 122.449 297.912 125.43 296.345 128.019C294.778 130.607 292.507 132.696 289.796 134.04L277.48 139.075L279.071 146.783C279.071 146.783 296.961 145.152 303.258 140.112C309.554 135.073 311.746 124.338 310.722 115.435C309.306 103.069 309.779 90.5219 303.365 91.0252Z" fill="black"/>
<path d="M278.657 137.099L279.704 147.85L276.808 148.128L275.275 138.066L278.657 137.099Z" fill="#16A75C"/>
<path opacity="0.6" d="M278.657 137.099L279.704 147.85L276.808 148.128L275.275 138.066L278.657 137.099Z" fill="white"/>
<path opacity="0.4" d="M293.798 107.558L283.816 108.451L283.959 110.044L293.94 109.151L293.798 107.558Z" fill="white"/>
<path d="M280.734 89.608L283.966 93.9132L290.777 89.4216V88.9922C290.79 88.6287 290.716 88.2675 290.56 87.9387C290.405 87.61 290.173 87.3233 289.883 87.1028C289.558 86.9019 289.188 86.7838 288.807 86.7588C288.426 86.7338 288.044 86.8027 287.695 86.9594L280.734 89.608Z" fill="#16A75C"/>
<path d="M276.189 89.9493L276.992 88.6276C277.991 87.4467 278.79 88.0513 278.79 88.0513L280.733 89.6083L277.899 93.9135L276.189 89.9493Z" fill="#16A75C"/>
<path opacity="0.6" d="M280.734 89.608L283.966 93.9132L290.777 89.4216V88.9922C290.79 88.6287 290.716 88.2675 290.56 87.9387C290.405 87.61 290.173 87.3233 289.883 87.1028C289.558 86.9019 289.188 86.7838 288.807 86.7588C288.426 86.7338 288.044 86.8027 287.695 86.9594L280.734 89.608Z" fill="white"/>
<path opacity="0.6" d="M276.189 89.9493L276.992 88.6276C277.991 87.4467 278.79 88.0513 278.79 88.0513L280.733 89.6083L277.899 93.9135L276.189 89.9493Z" fill="white"/>
<path d="M291.99 68.1286C292.442 65.1932 290.404 64.7913 289.063 65.1469C287.662 65.517 286.272 67.6211 286.272 67.6211C284.97 65.5093 284.229 60.1623 284.229 60.1623C282.57 61.0786 280.721 61.5974 278.827 61.678C276.934 61.7587 275.047 61.3989 273.317 60.6269C272.645 62.4299 271.397 63.9605 269.765 64.9802C269.765 64.9802 267.35 63.8741 268.694 58.3039C270.22 51.9813 279.734 45.8511 289.318 52.1625C298.902 58.4739 293.097 70.1709 293.097 70.1709C293.097 70.1709 290.928 74.0038 288.997 75.4483C289.156 74.3164 289.154 73.1676 288.991 72.0362C289.771 71.6776 290.451 71.1344 290.974 70.4535C291.496 69.7726 291.845 68.9746 291.99 68.1286Z" fill="#2E353A"/>
<path d="M271.844 59.324C273.065 60.6892 274.62 61.7142 276.356 62.299C278.092 62.8838 279.951 63.0083 281.749 62.6605" stroke="#2E353A" stroke-miterlimit="10"/>
<path d="M382.613 107.585C375.662 101.367 367.535 109.802 367.535 109.802C367.535 109.802 359.407 101.367 352.457 107.585C342.543 116.454 356.957 132.339 367.535 135.523C378.113 132.339 392.527 116.454 382.613 107.585Z" fill="#FFA600"/>
<path d="M242.197 24.8759C235.246 18.6573 227.119 27.0925 227.119 27.0925C227.119 27.0925 218.991 18.6573 212.041 24.8759C202.127 33.7449 216.54 49.6294 227.119 52.8148C237.697 49.6294 252.11 33.7449 242.197 24.8759Z" fill="#EF5350"/>
<path d="M323.929 50.6952C321.09 48.154 317.769 51.6012 317.769 51.6012C317.769 51.6012 314.448 48.154 311.609 50.6952C307.558 54.3194 313.446 60.8094 317.769 62.1105C322.095 60.8128 327.98 54.3228 323.929 50.6952Z" fill="#FFA600"/>
<path d="M64.254 118.939C61.4139 116.398 58.0929 119.844 58.0929 119.844C58.0929 119.844 54.7719 116.398 51.9326 118.939C47.8816 122.562 53.7713 129.052 58.0929 130.353C62.4153 129.052 68.3041 122.562 64.254 118.939Z" fill="#EF5350"/>
</svg>
