<svg width="40" height="40" viewBox="0 0 40 40" fill="none" xmlns="http://www.w3.org/2000/svg">
<circle cx="20" cy="20" r="20" fill="#E6F6EC"/>
<g clip-path="url(#clip0)">
<path d="M28.6675 15.1518C28.317 15.9404 28.3001 16.9442 28.2822 18.0069C28.263 19.1448 28.2436 20.3007 27.8782 21.3461C27.4683 21.2065 26.8548 21.1841 25.9385 21.4111C24.7926 21.6948 23.5479 22.2808 22.6091 22.9785C21.3621 23.905 20.7031 24.9688 20.7031 26.0549V31.9998H26.375V31.2967C26.375 29.6597 27.0586 29.1482 28.0935 28.3739C30.3052 26.719 32 24.8108 32 18.5936V13.6718H31.2968C29.9886 13.6718 29.1039 14.1698 28.6675 15.1518ZM30.5937 18.5937C30.5937 24.7469 28.8178 26.0756 27.251 27.248C26.2491 27.9976 25.2167 28.77 25.0072 30.5936H22.1094V26.055C22.1094 25.3613 22.7241 24.5631 23.7961 23.8652C25.108 23.011 26.5028 22.6585 27.1349 22.6428C27.0383 22.7783 26.8767 22.9712 26.6067 23.2315C26.1291 23.6465 25.5129 24.0143 24.7169 24.3197L25.2205 25.6327C25.995 25.3356 26.9702 24.8304 27.5645 24.262C28.2383 23.6657 28.7416 22.9516 29.0845 22.1105C29.6426 20.7415 29.6669 19.3013 29.6883 18.0306C29.7201 16.1465 29.8308 15.3873 30.5937 15.159V18.5937Z" fill="#008444"/>
<path d="M11.9065 28.374C12.9414 29.1483 13.625 29.6598 13.625 31.2969V32H19.2969V26.055C19.2969 24.9692 18.6376 23.9056 17.3902 22.979C16.4509 22.2812 15.206 21.6953 14.0601 21.4115C13.1444 21.1847 12.5316 21.2071 12.1218 21.3464C11.7564 20.301 11.7369 19.1449 11.7177 18.007C11.6857 16.1035 11.6959 13.6719 8.70312 13.6719H8V18.5937C8.00005 24.6402 9.58938 26.6402 11.9065 28.374ZM9.40629 15.1591C10.1692 15.3874 10.28 16.1466 10.3117 18.0307C10.3331 19.3014 10.3574 20.7416 10.9155 22.1106C11.2584 22.9516 11.7617 23.6657 12.4354 24.262C13.0297 24.8305 14.0056 25.3358 14.7795 25.6327L15.2831 24.3198C14.4871 24.0144 13.8708 23.6466 13.3932 23.2316C13.1237 22.9717 12.9619 22.7787 12.8653 22.6433C13.4979 22.6593 14.8933 23.0125 16.2054 23.8672C17.2764 24.5649 17.8906 25.3623 17.8906 26.055V30.5937H14.9928C14.7833 28.7701 13.7509 27.9977 12.749 27.248C11.1822 26.0757 9.40629 24.747 9.40629 18.5937V15.1591Z" fill="#008444"/>
<path d="M17.7796 20.1928C19.4179 21.5803 19.6057 21.7598 20 22.1002C20.4959 21.6721 20.5377 21.618 22.2205 20.1928C25.3272 17.5617 27.7812 15.4835 27.7812 13.0109C27.7812 10.3897 25.8965 8.00007 23.4758 8.00007C23.4729 8.00007 23.4699 8.00007 23.467 8.00007C22.2528 8.00307 21.0449 8.66101 19.9998 9.87221C18.9418 8.64723 17.7161 7.98976 16.4781 8.00012C14.0372 8.02178 12.2188 10.4225 12.2188 13.011C12.2188 15.4835 14.6728 17.5616 17.7796 20.1928ZM16.4906 9.40627C16.4967 9.40622 16.5025 9.40618 16.5086 9.40618C17.4911 9.40618 18.5248 10.1215 19.421 11.4224L20.0001 12.2628L20.5791 11.4224C21.4731 10.1247 22.5 9.40871 23.4706 9.40632H23.4758C25.0982 9.40632 26.3751 11.1671 26.3751 13.0109C26.3751 14.8316 24.1407 16.7239 21.3118 19.1197C20.8846 19.4815 20.4466 19.8524 20.0001 20.2369C19.5536 19.8524 19.1156 19.4815 18.6885 19.1197C15.8596 16.7239 13.6251 14.8316 13.6251 13.0109C13.625 11.0707 14.9373 9.42005 16.4906 9.40627Z" fill="#008444"/>
<path d="M19.2969 17.8906H20.7031V16.4844H22.1094V15.0781H20.7031V13.6719H19.2969V15.0781H17.8906V16.4844H19.2969V17.8906Z" fill="#008444"/>
</g>
<defs>
<clipPath id="clip0">
<rect width="24" height="24" fill="white" transform="translate(8 8)"/>
</clipPath>
</defs>
</svg>
