<svg width="40" height="40" viewBox="0 0 40 40" fill="none" xmlns="http://www.w3.org/2000/svg">
<circle cx="20" cy="20" r="20" fill="#E3F2FD"/>
<path d="M31.2327 29.8602L25.5207 23.9194C26.9894 22.1735 27.794 19.9768 27.794 17.69C27.794 12.347 23.447 8 18.1041 8C12.7611 8 8.41406 12.347 8.41406 17.69C8.41406 23.033 12.7611 27.38 18.1041 27.38C20.1099 27.38 22.0213 26.775 23.6556 25.6265L29.411 31.6124C29.6516 31.8622 29.9751 32 30.3219 32C30.6501 32 30.9614 31.8749 31.1978 31.6474C31.6999 31.1641 31.716 30.3628 31.2327 29.8602ZM18.1041 10.5278C22.0534 10.5278 25.2662 13.7407 25.2662 17.69C25.2662 21.6393 22.0534 24.8522 18.1041 24.8522C14.1547 24.8522 10.9419 21.6393 10.9419 17.69C10.9419 13.7407 14.1547 10.5278 18.1041 10.5278Z" fill="#1976D2"/>
</svg>
