<svg width="32" height="32" viewBox="0 0 32 32" fill="none" xmlns="http://www.w3.org/2000/svg">
<path d="M26.2764 31.4521C19.4324 32.1826 12.5676 32.1826 5.72363 31.4521C2.99463 31.1609 0.839111 29.0054 0.547852 26.2761C-0.182617 19.4321 -0.182617 12.5676 0.547852 5.72363C0.839111 2.99463 2.99463 0.839111 5.72363 0.547852C12.5676 -0.182617 19.4321 -0.182617 26.2761 0.547852C29.0054 0.839111 31.1609 2.99463 31.4521 5.72363C32.1826 12.5676 32.1826 19.4321 31.4521 26.2761C31.1609 29.0054 29.0056 31.1609 26.2764 31.4521Z" fill="#757575"/>
<path d="M25.9177 9.83545C25.2097 10.2058 24.1433 10.377 23.7898 10.4263C23.7869 10.4092 23.7839 10.3928 23.781 10.3765C24.9829 9.63306 25.3508 8.2334 25.3508 8.2334C24.6064 8.65894 23.9504 8.89502 23.4563 9.02588C23.1785 9.10034 22.9517 9.14062 22.7886 9.16309C22.0396 8.39502 20.9937 7.91846 19.8359 7.91846C17.5581 7.91846 15.7112 9.76489 15.7112 12.0435C15.7112 12.1255 15.7134 12.207 15.7188 12.2878C15.7297 12.4854 15.7549 12.6794 15.7937 12.8682C14.6912 12.8518 10.7114 12.5137 7.41357 8.68286C7.41357 8.68286 5.57715 11.887 8.66455 14.0757C8.66455 14.0757 7.41357 14.0366 6.74951 13.5676C6.74951 13.5676 6.5542 16.655 10.1101 17.6316C10.1101 17.6316 8.85986 17.9446 8.23413 17.6709C8.23413 17.6709 8.85962 20.3281 11.9858 20.5239C11.9858 20.5239 9.74365 22.5767 6.08228 22.2812C7.88306 23.4214 10.0181 24.0813 12.3071 24.0813C18.7434 24.0813 23.9612 18.8638 23.9612 12.4275C23.9612 12.3472 23.9604 12.2668 23.9587 12.1865C23.9604 12.1389 23.9612 12.0916 23.9612 12.0435C23.9612 12.01 23.9604 11.9766 23.96 11.9431C25.1499 11.1501 25.9177 9.83545 25.9177 9.83545Z" fill="white"/>
</svg>
