<svg width="554" height="320" viewBox="0 0 554 320" fill="none" xmlns="http://www.w3.org/2000/svg">
<g clip-path="url(#clip0)">
<path d="M341.522 71.6869L341.985 71.1028L374.295 95.4011L372.935 95.3037L341.522 71.6869Z" fill="#EEEEEE"/>
<path d="M327.598 70.2606L272.401 28.7516L281.865 16.8487L337.061 58.3577C337.806 58.9963 338.267 59.8907 338.347 60.853C338.428 61.8153 338.122 62.7705 337.493 63.5176C337.467 63.5566 337.435 63.5965 337.406 63.6325L332.937 69.2529C332.908 69.2889 332.877 69.3289 332.845 69.3629C332.26 70.1445 331.386 70.6748 330.408 70.8422C329.429 71.0097 328.422 70.8011 327.598 70.2606Z" fill="#EEEEEE"/>
<path d="M327.598 70.2607L298.728 48.5501L308.192 36.6473L337.062 58.3578C337.806 58.9963 338.267 59.8908 338.348 60.8531C338.428 61.8154 338.122 62.7706 337.493 63.5177C337.467 63.5567 337.435 63.5966 337.406 63.6326L332.937 69.253C332.908 69.289 332.877 69.329 332.845 69.363C332.26 70.1446 331.387 70.6749 330.408 70.8423C329.429 71.0098 328.422 70.8012 327.598 70.2607Z" fill="#1976D2"/>
<path d="M333.125 69.0165C333.153 68.9863 333.181 68.9513 333.206 68.9191L337.139 63.9724C337.164 63.9403 337.192 63.9062 337.214 63.8751L346.202 72.4181L343.889 75.3281L333.125 69.0165Z" fill="#EEEEEE"/>
<path opacity="0.7" d="M299.776 47.227L307.141 37.9705L304.149 35.7194L296.785 44.9759L299.776 47.227Z" fill="#616161"/>
<path d="M332.845 69.3649C332.877 69.3308 332.908 69.2909 332.937 69.2549L337.406 63.6345C337.435 63.5984 337.467 63.5585 337.493 63.5196C338.121 62.7724 338.428 61.8173 338.347 60.855C338.267 59.8927 337.806 58.9982 337.061 58.3597L281.869 16.8487L272.405 28.7516L327.602 70.2606C328.425 70.8002 329.431 71.0083 330.409 70.8413C331.387 70.6742 332.26 70.145 332.845 69.3649ZM274.948 28.552L282.309 19.2943L336.443 60.005C336.684 60.2553 336.817 60.586 336.815 60.9288C336.813 61.2717 336.676 61.6006 336.431 61.848L330.974 68.7165L330.913 68.7866C330.729 69.0786 330.436 69.2906 330.095 69.379C329.755 69.4674 329.392 69.4254 329.082 69.2617L274.948 28.552Z" fill="#EEEEEE"/>
<path d="M285.807 11.8935L278.449 21.1501L275.817 24.4603L268.459 33.717L266.064 31.9139L273.423 22.6572L276.054 19.3471L283.412 10.0904L285.807 11.8935Z" fill="#EEEEEE"/>
<path d="M251.264 10.7738L258.656 1.47716C258.758 1.34946 258.884 1.24246 259.028 1.16228C259.172 1.0821 259.331 1.03032 259.496 1.00988C259.66 0.98945 259.828 1.00077 259.988 1.0432C260.148 1.08562 260.298 1.15832 260.429 1.25714C260.561 1.35595 260.671 1.47897 260.753 1.61915C260.835 1.75933 260.889 1.91394 260.91 2.07414C260.931 2.23434 260.919 2.397 260.875 2.55282C260.832 2.70865 260.757 2.85459 260.655 2.9823L253.264 12.2769C253.059 12.5349 252.758 12.7032 252.425 12.7449C252.093 12.7865 251.757 12.698 251.491 12.4989C251.36 12.4002 251.25 12.2772 251.167 12.1371C251.085 11.9969 251.031 11.8423 251.01 11.6821C250.989 11.5219 251.001 11.3592 251.044 11.2034C251.088 11.0475 251.163 10.9015 251.264 10.7738Z" fill="#616161"/>
<path d="M258.278 5.9767L255.647 9.2832L273.422 22.6561L276.052 19.3495L258.278 5.9767Z" fill="#616161"/>
<path opacity="0.7" d="M301.782 38.6976L299.15 42.0077L275.817 24.4631L273.423 22.66L276.055 19.3499L278.45 21.153L301.782 38.6976Z" fill="#616161"/>
<path d="M326.085 67.0518L329.324 62.9784L328.128 62.0785L324.889 66.1519L326.085 67.0518Z" fill="#EEEEEE"/>
<path d="M321.897 63.9023L325.136 59.8289L323.939 58.929L320.7 63.0024L321.897 63.9023Z" fill="#EEEEEE"/>
<path d="M317.709 60.7527L320.948 56.6793L319.752 55.7794L316.513 59.8528L317.709 60.7527Z" fill="#EEEEEE"/>
<path d="M313.52 57.6025L316.76 53.53L315.563 52.6298L312.323 56.7023L313.52 57.6025Z" fill="#EEEEEE"/>
<path d="M309.331 54.4528L312.57 50.3794L311.374 49.4796L308.135 53.553L309.331 54.4528Z" fill="#EEEEEE"/>
<path d="M305.143 51.3033L308.382 47.2299L307.185 46.33L303.946 50.4034L305.143 51.3033Z" fill="#EEEEEE"/>
<path d="M300.955 48.1539L304.194 44.0805L302.998 43.1806L299.759 47.254L300.955 48.1539Z" fill="#EEEEEE"/>
<path d="M296.766 45.0035L300.006 40.931L298.809 40.0308L295.569 44.1033L296.766 45.0035Z" fill="#EEEEEE"/>
<path d="M292.577 41.853L295.817 37.7805L294.621 36.8803L291.381 40.9528L292.577 41.853Z" fill="#EEEEEE"/>
<path d="M288.389 38.7036L291.629 34.6311L290.433 33.7309L287.192 37.8034L288.389 38.7036Z" fill="#EEEEEE"/>
<path d="M272.426 29.47L281.865 16.8487" stroke="#212121" stroke-linecap="round" stroke-linejoin="round"/>
<path d="M432.803 288.681C432.803 288.681 433.117 263.854 458.333 263.854C458.333 263.854 432.803 263.547 432.803 239.027C432.803 239.027 432.488 263.854 407.272 263.854C407.272 263.854 432.803 264.161 432.803 288.681Z" fill="#EEEEEE"/>
<path d="M383.021 90.7093C383.021 90.7093 382.705 65.8819 357.491 65.8819C357.491 65.8819 383.021 65.5753 383.021 41.0533C383.021 41.0533 383.336 65.8819 408.55 65.8819C408.55 65.8819 383.021 66.1886 383.021 90.7093Z" fill="#FFE483"/>
<path d="M351.191 43.3635C351.191 43.3635 351.053 32.4804 340 32.4804C340 32.4804 351.191 32.3462 351.191 21.5974C351.191 21.5974 351.329 32.4804 362.382 32.4804C362.385 32.4804 351.191 32.6147 351.191 43.3635Z" fill="#FFE483"/>
<path d="M407.273 323.969C407.273 323.969 407.412 313.088 418.464 313.088C418.464 313.088 407.273 312.953 407.273 302.204C407.273 302.204 407.135 313.088 396.084 313.088C396.084 313.088 407.273 313.222 407.273 323.969Z" fill="#EEEEEE"/>
<path d="M405.257 143.415C399.559 143.415 399.545 152.035 405.257 152.035C410.969 152.035 410.965 143.415 405.257 143.415Z" fill="#BBDEFB"/>
<path d="M110.652 156.549C104.954 156.549 104.939 165.169 110.652 165.169C116.365 165.169 116.364 156.549 110.652 156.549Z" fill="#BBDEFB"/>
<path d="M236.43 85.9494C230.732 85.9494 230.716 94.5692 236.43 94.5692C242.143 94.5692 242.143 85.9494 236.43 85.9494Z" fill="#BBDEFB"/>
<path d="M417.919 188.771C414.662 188.771 414.655 193.696 417.919 193.696C421.184 193.696 421.184 188.771 417.919 188.771Z" fill="#BBDEFB"/>
<path d="M259.221 164.964C255.962 164.964 255.956 169.89 259.221 169.89C262.485 169.89 262.485 164.964 259.221 164.964Z" fill="#BBDEFB"/>
<path d="M111.496 121.455C108.238 121.455 108.231 126.381 111.496 126.381C114.76 126.381 114.76 121.455 111.496 121.455Z" fill="#BBDEFB"/>
<path d="M276.103 65.6314C272.845 65.6314 272.839 70.557 276.103 70.557C279.367 70.557 279.367 65.6314 276.103 65.6314Z" fill="#BBDEFB"/>
<path d="M382.971 233.735L382.448 197.901L381.819 162.063L381.084 126.224L380.197 90.3863L379.31 126.224L378.575 162.063L377.946 197.901L377.468 231.013L347.414 230.622L314.632 230.308L311.136 230.274L311.101 233.739L310.786 265.598L310.569 293.457L240.88 293.062L171.804 292.931L171.854 265.603L171.79 233.744L171.781 229.204L167.126 229.213L106.072 229.324L105.685 162.063L105.414 126.224L105.089 93.7472L134.343 93.4527L167.125 93.0232L169.88 92.9875L169.842 90.3874L169.375 58.528L168.841 28.2715L205.576 27.5666L244.026 26.6675L205.576 25.7696L167.126 25.0323L165.473 24.9999L165.443 26.6731L164.88 58.5325L164.452 87.7204L134.343 87.3266L101.561 86.992L98.1007 86.9574L98.0663 90.3885L97.7082 126.227L97.4373 162.065L97.0253 233.74L97 238.139L101.561 238.148L162.454 238.26L162.399 265.596L162.459 297.456L162.467 302L167.125 301.991L240.877 301.852L314.63 301.434L318.755 301.411L318.724 297.456L318.476 265.596L318.193 237.133L347.412 236.853L380.194 236.427L383 236.39L382.971 233.735Z" fill="#EEEEEE"/>
<g clip-path="url(#clip1)">
<path d="M67.5 35.6987C66.9459 35.6987 66.4613 35.9923 66.2016 36.4281H64.8394C64.6866 34.8627 64.0477 33.4332 63.0709 32.2849L64.0371 31.3453C64.5341 31.4754 65.0925 31.3501 65.4853 30.9687C66.0703 30.3998 66.0703 29.4744 65.4853 28.9055C64.9003 28.3366 63.9487 28.3366 63.3637 28.9055C62.9723 29.2866 62.843 29.8275 62.9765 30.3138L62.0103 31.2535C60.8295 30.3035 59.3596 29.6822 57.75 29.5336V28.2089C58.1981 27.9564 58.5 27.485 58.5 26.9462C58.5 26.1416 57.8273 25.4874 57 25.4874C56.1727 25.4874 55.5 26.1416 55.5 26.9462C55.5 27.485 55.8019 27.9564 56.25 28.2089V29.5336C54.6404 29.6822 53.1705 30.3035 51.9897 31.2535L51.0235 30.3138C51.157 29.8275 51.0276 29.2865 50.6363 28.9055C50.0513 28.3366 49.0997 28.3366 48.5147 28.9055C47.9297 29.4744 47.9297 30.3998 48.5147 30.9687C48.9073 31.3498 49.4656 31.4755 49.9629 31.3453L50.9291 32.2849C49.9523 33.4332 49.3134 34.8627 49.1606 36.4281H47.7984C47.5387 35.9923 47.0541 35.6987 46.5 35.6987C45.6727 35.6987 45 36.3528 45 37.1574C45 37.962 45.6727 38.6162 46.5 38.6162C47.0541 38.6162 47.5387 38.3226 47.7984 37.8868H49.1606C49.3134 39.4521 49.9523 40.8817 50.9291 42.0299L49.9629 42.9695C49.4628 42.8397 48.9065 42.9656 48.5147 43.3461C47.9297 43.915 47.9297 44.8404 48.5147 45.4093C49.1008 45.9793 50.0524 45.9772 50.6363 45.4093C51.0277 45.0283 51.157 44.4873 51.0235 44.001L51.9897 43.0614C53.1705 44.0113 54.6404 44.6326 56.25 44.7812V46.1059C55.8019 46.3585 55.5 46.8299 55.5 47.3687C55.5 48.1733 56.1727 48.8274 57 48.8274C57.8273 48.8274 58.5 48.1733 58.5 47.3687C58.5 46.8299 58.1981 46.3585 57.75 46.1059V44.7812C59.3596 44.6326 60.8295 44.0113 62.0103 43.0614L62.9765 44.001C62.843 44.4873 62.9724 45.0283 63.3637 45.4093C63.9476 45.9772 64.8992 45.9793 65.4853 45.4093C66.0703 44.8404 66.0703 43.915 65.4853 43.3461C65.0934 42.9655 64.5372 42.8397 64.0371 42.9695L63.0709 42.0299C64.0477 40.8817 64.6866 39.4521 64.8394 37.8868H66.2016C66.4613 38.3226 66.9459 38.6162 67.5 38.6162C68.3273 38.6162 69 37.962 69 37.1574C69 36.3528 68.3273 35.6987 67.5 35.6987ZM54.5156 36.7927C53.7919 36.7927 53.2031 36.2202 53.2031 35.5163C53.2031 34.8125 53.7919 34.2399 54.5156 34.2399C55.2394 34.2399 55.8281 34.8125 55.8281 35.5163C55.8281 36.2202 55.2394 36.7927 54.5156 36.7927ZM57.75 41.169C56.9227 41.169 56.25 40.5148 56.25 39.7102C56.25 38.9056 56.9227 38.2515 57.75 38.2515C58.5773 38.2515 59.25 38.9056 59.25 39.7102C59.25 40.5148 58.5773 41.169 57.75 41.169ZM60.375 36.0634C59.7548 36.0634 59.25 35.5724 59.25 34.9693C59.25 34.3662 59.7548 33.8752 60.375 33.8752C60.9952 33.8752 61.5 34.3662 61.5 34.9693C61.5 35.5724 60.9952 36.0634 60.375 36.0634Z" fill="#C3E9D0"/>
</g>
<g clip-path="url(#clip2)">
<path d="M80.5 289.669C79.9459 289.669 79.4613 289.962 79.2016 290.398H77.8394C77.6866 288.833 77.0477 287.403 76.0709 286.255L77.0371 285.315C77.5341 285.445 78.0925 285.32 78.4853 284.939C79.0703 284.37 79.0703 283.444 78.4853 282.876C77.9003 282.307 76.9487 282.307 76.3637 282.876C75.9723 283.257 75.843 283.798 75.9765 284.284L75.0103 285.223C73.8295 284.274 72.3596 283.652 70.75 283.504V282.179C71.1981 281.926 71.5 281.455 71.5 280.916C71.5 280.112 70.8273 279.457 70 279.457C69.1727 279.457 68.5 280.112 68.5 280.916C68.5 281.455 68.8019 281.926 69.25 282.179V283.504C67.6404 283.652 66.1705 284.274 64.9897 285.223L64.0235 284.284C64.157 283.798 64.0276 283.257 63.6363 282.876C63.0513 282.307 62.0997 282.307 61.5147 282.876C60.9297 283.444 60.9297 284.37 61.5147 284.939C61.9073 285.32 62.4656 285.446 62.9629 285.315L63.9291 286.255C62.9523 287.403 62.3134 288.833 62.1606 290.398H60.7984C60.5387 289.962 60.0541 289.669 59.5 289.669C58.6727 289.669 58 290.323 58 291.127C58 291.932 58.6727 292.586 59.5 292.586C60.0541 292.586 60.5387 292.293 60.7984 291.857H62.1606C62.3134 293.422 62.9523 294.852 63.9291 296L62.9629 296.94C62.4628 296.81 61.9065 296.936 61.5147 297.316C60.9297 297.885 60.9297 298.81 61.5147 299.379C62.1008 299.949 63.0524 299.947 63.6363 299.379C64.0277 298.998 64.157 298.457 64.0235 297.971L64.9897 297.031C66.1705 297.981 67.6404 298.603 69.25 298.751V300.076C68.8019 300.329 68.5 300.8 68.5 301.339C68.5 302.143 69.1727 302.797 70 302.797C70.8273 302.797 71.5 302.143 71.5 301.339C71.5 300.8 71.1981 300.329 70.75 300.076V298.751C72.3596 298.603 73.8295 297.981 75.0103 297.031L75.9765 297.971C75.843 298.457 75.9724 298.998 76.3637 299.379C76.9476 299.947 77.8992 299.949 78.4853 299.379C79.0703 298.81 79.0703 297.885 78.4853 297.316C78.0934 296.936 77.5372 296.81 77.0371 296.94L76.0709 296C77.0477 294.852 77.6866 293.422 77.8394 291.857H79.2016C79.4613 292.293 79.9459 292.586 80.5 292.586C81.3273 292.586 82 291.932 82 291.127C82 290.323 81.3273 289.669 80.5 289.669ZM67.5156 290.763C66.7919 290.763 66.2031 290.19 66.2031 289.486C66.2031 288.783 66.7919 288.21 67.5156 288.21C68.2394 288.21 68.8281 288.783 68.8281 289.486C68.8281 290.19 68.2394 290.763 67.5156 290.763ZM70.75 295.139C69.9227 295.139 69.25 294.485 69.25 293.68C69.25 292.876 69.9227 292.222 70.75 292.222C71.5773 292.222 72.25 292.876 72.25 293.68C72.25 294.485 71.5773 295.139 70.75 295.139ZM73.375 290.033C72.7548 290.033 72.25 289.542 72.25 288.939C72.25 288.336 72.7548 287.845 73.375 287.845C73.9952 287.845 74.5 288.336 74.5 288.939C74.5 289.542 73.9952 290.033 73.375 290.033Z" fill="#C3E9D0"/>
</g>
<g clip-path="url(#clip3)">
<path d="M30 183.032C29.2612 183.032 28.615 183.424 28.2687 184.005H26.4525C26.2487 181.918 25.3969 180.012 24.0946 178.481L25.3828 177.228C26.0455 177.401 26.7901 177.234 27.3137 176.726C28.0937 175.967 28.0937 174.733 27.3137 173.975C26.5337 173.216 25.2649 173.216 24.4849 173.975C23.9631 174.483 23.7906 175.204 23.9686 175.853L22.6804 177.105C21.1061 175.839 19.1461 175.01 17 174.812V173.046C17.5975 172.709 18 172.081 18 171.362C18 170.29 17.1031 169.417 16 169.417C14.8969 169.417 14 170.29 14 171.362C14 172.081 14.4025 172.709 15 173.046V174.812C12.8539 175.01 10.8939 175.839 9.31962 177.105L8.03137 175.853C8.20938 175.204 8.03681 174.483 7.51506 173.975C6.73506 173.216 5.46631 173.216 4.68631 173.975C3.90631 174.733 3.90631 175.967 4.68631 176.726C5.20969 177.234 5.95419 177.402 6.61719 177.228L7.90544 178.481C6.60306 180.012 5.75125 181.918 5.5475 184.005H3.73125C3.385 183.424 2.73875 183.032 2 183.032C0.896875 183.032 0 183.905 0 184.977C0 186.05 0.896875 186.922 2 186.922C2.73875 186.922 3.385 186.531 3.73125 185.95H5.5475C5.75125 188.037 6.60306 189.943 7.90544 191.474L6.61719 192.727C5.95044 192.554 5.20869 192.722 4.68631 193.229C3.90631 193.988 3.90631 195.221 4.68631 195.98C5.46775 196.74 6.7365 196.737 7.51506 195.98C8.03687 195.472 8.20938 194.751 8.03137 194.102L9.31962 192.849C10.8939 194.116 12.8539 194.944 15 195.142V196.909C14.4025 197.246 14 197.874 14 198.592C14 199.665 14.8969 200.537 16 200.537C17.1031 200.537 18 199.665 18 198.592C18 197.874 17.5975 197.246 17 196.909V195.142C19.1461 194.944 21.1061 194.116 22.6804 192.849L23.9686 194.102C23.7906 194.751 23.9632 195.472 24.4849 195.98C25.2635 196.737 26.5323 196.74 27.3137 195.98C28.0937 195.221 28.0937 193.988 27.3137 193.229C26.7913 192.722 26.0496 192.554 25.3828 192.727L24.0946 191.474C25.3969 189.943 26.2487 188.037 26.4525 185.95H28.2687C28.615 186.531 29.2612 186.922 30 186.922C31.1031 186.922 32 186.05 32 184.977C32 183.905 31.1031 183.032 30 183.032ZM12.6875 184.491C11.7225 184.491 10.9375 183.728 10.9375 182.789C10.9375 181.851 11.7225 181.087 12.6875 181.087C13.6525 181.087 14.4375 181.851 14.4375 182.789C14.4375 183.728 13.6525 184.491 12.6875 184.491ZM17 190.326C15.8969 190.326 15 189.454 15 188.381C15 187.308 15.8969 186.436 17 186.436C18.1031 186.436 19 187.308 19 188.381C19 189.454 18.1031 190.326 17 190.326ZM20.5 183.519C19.6731 183.519 19 182.864 19 182.06C19 181.256 19.6731 180.601 20.5 180.601C21.3269 180.601 22 181.256 22 182.06C22 182.864 21.3269 183.519 20.5 183.519Z" fill="#C3E9D0"/>
</g>
<g clip-path="url(#clip4)">
<path d="M542 167.472C541.261 167.472 540.615 167.864 540.269 168.445H538.452C538.249 166.358 537.397 164.452 536.095 162.921L537.383 161.668C538.045 161.841 538.79 161.674 539.314 161.166C540.094 160.407 540.094 159.173 539.314 158.415C538.534 157.656 537.265 157.656 536.485 158.415C535.963 158.923 535.791 159.644 535.969 160.293L534.68 161.545C533.106 160.279 531.146 159.45 529 159.252V157.486C529.597 157.149 530 156.521 530 155.802C530 154.73 529.103 153.857 528 153.857C526.897 153.857 526 154.73 526 155.802C526 156.521 526.403 157.149 527 157.486V159.252C524.854 159.45 522.894 160.279 521.32 161.545L520.031 160.293C520.209 159.644 520.037 158.923 519.515 158.415C518.735 157.656 517.466 157.656 516.686 158.415C515.906 159.173 515.906 160.407 516.686 161.166C517.21 161.674 517.954 161.842 518.617 161.668L519.905 162.921C518.603 164.452 517.751 166.358 517.548 168.445H515.731C515.385 167.864 514.739 167.472 514 167.472C512.897 167.472 512 168.345 512 169.417C512 170.49 512.897 171.362 514 171.362C514.739 171.362 515.385 170.971 515.731 170.39H517.548C517.751 172.477 518.603 174.383 519.905 175.914L518.617 177.167C517.95 176.994 517.209 177.162 516.686 177.669C515.906 178.428 515.906 179.661 516.686 180.42C517.468 181.18 518.736 181.177 519.515 180.42C520.037 179.912 520.209 179.191 520.031 178.542L521.32 177.289C522.894 178.556 524.854 179.384 527 179.582V181.349C526.403 181.686 526 182.314 526 183.032C526 184.105 526.897 184.977 528 184.977C529.103 184.977 530 184.105 530 183.032C530 182.314 529.597 181.686 529 181.349V179.582C531.146 179.384 533.106 178.556 534.68 177.289L535.969 178.542C535.791 179.191 535.963 179.912 536.485 180.42C537.264 181.177 538.532 181.18 539.314 180.42C540.094 179.661 540.094 178.428 539.314 177.669C538.791 177.162 538.05 176.994 537.383 177.167L536.095 175.914C537.397 174.383 538.249 172.477 538.452 170.39H540.269C540.615 170.971 541.261 171.362 542 171.362C543.103 171.362 544 170.49 544 169.417C544 168.345 543.103 167.472 542 167.472ZM524.688 168.931C523.722 168.931 522.938 168.168 522.938 167.229C522.938 166.291 523.722 165.527 524.688 165.527C525.653 165.527 526.438 166.291 526.438 167.229C526.438 168.168 525.653 168.931 524.688 168.931ZM529 174.766C527.897 174.766 527 173.894 527 172.821C527 171.748 527.897 170.876 529 170.876C530.103 170.876 531 171.748 531 172.821C531 173.894 530.103 174.766 529 174.766ZM532.5 167.959C531.673 167.959 531 167.304 531 166.5C531 165.696 531.673 165.041 532.5 165.041C533.327 165.041 534 165.696 534 166.5C534 167.304 533.327 167.959 532.5 167.959Z" fill="#C3E9D0"/>
</g>
<g clip-path="url(#clip5)">
<path d="M502.5 279.669C501.946 279.669 501.461 279.962 501.202 280.398H499.839C499.687 278.833 499.048 277.403 498.071 276.255L499.037 275.315C499.534 275.445 500.093 275.32 500.485 274.939C501.07 274.37 501.07 273.444 500.485 272.876C499.9 272.307 498.949 272.307 498.364 272.876C497.972 273.257 497.843 273.798 497.976 274.284L497.01 275.223C495.83 274.274 494.36 273.652 492.75 273.504V272.179C493.198 271.926 493.5 271.455 493.5 270.916C493.5 270.112 492.827 269.457 492 269.457C491.173 269.457 490.5 270.112 490.5 270.916C490.5 271.455 490.802 271.926 491.25 272.179V273.504C489.64 273.652 488.17 274.274 486.99 275.223L486.024 274.284C486.157 273.798 486.028 273.257 485.636 272.876C485.051 272.307 484.1 272.307 483.515 272.876C482.93 273.444 482.93 274.37 483.515 274.939C483.907 275.32 484.466 275.446 484.963 275.315L485.929 276.255C484.952 277.403 484.313 278.833 484.161 280.398H482.798C482.539 279.962 482.054 279.669 481.5 279.669C480.673 279.669 480 280.323 480 281.127C480 281.932 480.673 282.586 481.5 282.586C482.054 282.586 482.539 282.293 482.798 281.857H484.161C484.313 283.422 484.952 284.852 485.929 286L484.963 286.94C484.463 286.81 483.907 286.936 483.515 287.316C482.93 287.885 482.93 288.81 483.515 289.379C484.101 289.949 485.052 289.947 485.636 289.379C486.028 288.998 486.157 288.457 486.024 287.971L486.99 287.031C488.17 287.981 489.64 288.603 491.25 288.751V290.076C490.802 290.329 490.5 290.8 490.5 291.339C490.5 292.143 491.173 292.797 492 292.797C492.827 292.797 493.5 292.143 493.5 291.339C493.5 290.8 493.198 290.329 492.75 290.076V288.751C494.36 288.603 495.83 287.981 497.01 287.031L497.976 287.971C497.843 288.457 497.972 288.998 498.364 289.379C498.948 289.947 499.899 289.949 500.485 289.379C501.07 288.81 501.07 287.885 500.485 287.316C500.093 286.936 499.537 286.81 499.037 286.94L498.071 286C499.048 284.852 499.687 283.422 499.839 281.857H501.202C501.461 282.293 501.946 282.586 502.5 282.586C503.327 282.586 504 281.932 504 281.127C504 280.323 503.327 279.669 502.5 279.669ZM489.516 280.763C488.792 280.763 488.203 280.19 488.203 279.486C488.203 278.783 488.792 278.21 489.516 278.21C490.239 278.21 490.828 278.783 490.828 279.486C490.828 280.19 490.239 280.763 489.516 280.763ZM492.75 285.139C491.923 285.139 491.25 284.485 491.25 283.68C491.25 282.876 491.923 282.222 492.75 282.222C493.577 282.222 494.25 282.876 494.25 283.68C494.25 284.485 493.577 285.139 492.75 285.139ZM495.375 280.033C494.755 280.033 494.25 279.542 494.25 278.939C494.25 278.336 494.755 277.845 495.375 277.845C495.995 277.845 496.5 278.336 496.5 278.939C496.5 279.542 495.995 280.033 495.375 280.033Z" fill="#C3E9D0"/>
</g>
<g clip-path="url(#clip6)">
<path d="M482.5 68.7637C481.946 68.7637 481.461 69.0572 481.202 69.493H479.839C479.687 67.9277 479.048 66.4982 478.071 65.3499L479.037 64.4103C479.534 64.5404 480.093 64.415 480.485 64.0337C481.07 63.4648 481.07 62.5394 480.485 61.9705C479.9 61.4016 478.949 61.4016 478.364 61.9705C477.972 62.3515 477.843 62.8925 477.976 63.3788L477.01 64.3184C475.83 63.3685 474.36 62.7472 472.75 62.5986V61.2739C473.198 61.0213 473.5 60.55 473.5 60.0111C473.5 59.2066 472.827 58.5524 472 58.5524C471.173 58.5524 470.5 59.2066 470.5 60.0111C470.5 60.55 470.802 61.0213 471.25 61.2739V62.5986C469.64 62.7472 468.17 63.3685 466.99 64.3184L466.024 63.3788C466.157 62.8925 466.028 62.3515 465.636 61.9705C465.051 61.4016 464.1 61.4016 463.515 61.9705C462.93 62.5394 462.93 63.4648 463.515 64.0337C463.907 64.4148 464.466 64.5405 464.963 64.4103L465.929 65.3499C464.952 66.4982 464.313 67.9277 464.161 69.493H462.798C462.539 69.0572 462.054 68.7637 461.5 68.7637C460.673 68.7637 460 69.4178 460 70.2224C460 71.027 460.673 71.6812 461.5 71.6812C462.054 71.6812 462.539 71.3876 462.798 70.9518H464.161C464.313 72.5171 464.952 73.9466 465.929 75.0949L464.963 76.0345C464.463 75.9047 463.907 76.0306 463.515 76.4111C462.93 76.98 462.93 77.9054 463.515 78.4743C464.101 79.0443 465.052 79.0422 465.636 78.4743C466.028 78.0933 466.157 77.5523 466.024 77.066L466.99 76.1264C468.17 77.0763 469.64 77.6976 471.25 77.8462V79.1709C470.802 79.4235 470.5 79.8948 470.5 80.4337C470.5 81.2383 471.173 81.8924 472 81.8924C472.827 81.8924 473.5 81.2383 473.5 80.4337C473.5 79.8948 473.198 79.4235 472.75 79.1709V77.8462C474.36 77.6976 475.83 77.0763 477.01 76.1264L477.976 77.066C477.843 77.5523 477.972 78.0933 478.364 78.4743C478.948 79.0422 479.899 79.0443 480.485 78.4743C481.07 77.9054 481.07 76.98 480.485 76.4111C480.093 76.0305 479.537 75.9047 479.037 76.0345L478.071 75.0949C479.048 73.9466 479.687 72.5171 479.839 70.9518H481.202C481.461 71.3876 481.946 71.6812 482.5 71.6812C483.327 71.6812 484 71.027 484 70.2224C484 69.4178 483.327 68.7637 482.5 68.7637ZM469.516 69.8577C468.792 69.8577 468.203 69.2852 468.203 68.5813C468.203 67.8775 468.792 67.3049 469.516 67.3049C470.239 67.3049 470.828 67.8775 470.828 68.5813C470.828 69.2852 470.239 69.8577 469.516 69.8577ZM472.75 74.234C471.923 74.234 471.25 73.5798 471.25 72.7752C471.25 71.9706 471.923 71.3165 472.75 71.3165C473.577 71.3165 474.25 71.9706 474.25 72.7752C474.25 73.5798 473.577 74.234 472.75 74.234ZM475.375 69.1283C474.755 69.1283 474.25 68.6374 474.25 68.0343C474.25 67.4312 474.755 66.9402 475.375 66.9402C475.995 66.9402 476.5 67.4312 476.5 68.0343C476.5 68.6374 475.995 69.1283 475.375 69.1283Z" fill="#C3E9D0"/>
</g>
<path d="M139.888 281.976L133.99 336.982L201.369 348.306L224.439 325.071V287.457L139.888 281.976Z" fill="#171659"/>
<path d="M207.482 87.8025C207.482 87.8025 221.331 102.641 208.357 117.028C195.383 131.416 167.831 132.782 167.831 132.782C167.831 132.782 164.769 139.36 158.647 141.198L157.481 136.796L151.649 140.911L152.524 129.977L207.482 87.8025Z" fill="#212121"/>
<path d="M198.526 159.42C196.299 164.183 189.92 174.821 177.464 174.424C171.167 174.232 167.551 171.521 165.511 168.3C163.856 165.512 162.946 162.365 162.863 159.147C163.562 158.876 164.157 158.399 164.563 157.783C164.968 157.166 165.165 156.442 165.126 155.711L164.064 135.285L163.855 131.315L189.651 130.045L190.946 154.792C190.984 155.514 191.251 156.207 191.711 156.776C192.17 157.344 192.799 157.761 193.512 157.968L198.526 159.42Z" fill="#F4A386"/>
<path d="M229.629 236.474L236.25 298.487C160.247 319.287 129.406 295.611 129.406 295.611L132.973 236.474L136.973 169.99C139.078 168.651 141.317 167.523 143.655 166.621L162.863 159.147C163.049 163.593 164.857 174.028 177.464 174.424C189.919 174.821 196.298 164.183 198.526 159.42L218.34 165.136L218.807 165.272C224.758 166.986 230.193 170.078 234.646 174.284C239.098 178.489 242.435 183.682 244.37 189.418L260.254 236.474H229.629Z" fill="#FFB900"/>
<path d="M136.973 169.99L135.107 201.077L133.159 233.343L132.973 236.474L132.879 238.062L119.351 227.718L117.275 226.13L109.846 220.448L107.572 218.713C107.572 218.713 109.59 214.823 112.097 209.821C114.989 204.06 118.535 196.812 120.401 192.355L121.858 188.476C124.707 180.886 130.01 174.399 136.973 169.99Z" fill="#FFB900"/>
<path d="M192.112 157.197C179.05 158.229 167.225 141.08 164.064 135.285L163.854 131.315L189.651 130.045L190.946 154.792C190.994 155.712 191.413 156.575 192.112 157.197Z" fill="#F07F57"/>
<path d="M149.374 111.639C150.084 115.559 151.599 119.299 153.828 122.637C156.057 125.975 158.954 128.842 162.347 131.067L162.363 131.077C162.713 131.686 174.21 151.001 189.885 149.354C207.315 147.509 213.066 120.367 209.899 102.967L209.851 103.001C209.788 102.434 209.695 101.847 209.591 101.274C208.158 93.527 203.625 86.6489 196.985 82.1475C190.345 77.6461 182.141 75.8889 174.171 77.261C166.201 78.6332 159.116 83.0227 154.469 89.4673C149.821 95.9119 147.992 103.886 149.38 111.64L149.374 111.639Z" fill="#F4A386"/>
<path d="M215.063 93.0036C214.663 93.482 214.142 93.8521 213.552 94.0785C212.962 94.3049 212.322 94.38 211.693 94.2966C210.083 94.219 208.491 93.9329 206.958 93.446C205.378 92.9689 203.825 92.4124 202.305 91.7788C199.354 90.5652 196.999 89.329 196.719 89.1815C196.975 89.363 199.144 90.8374 201.232 92.5953C204.521 95.3854 207.576 98.8559 202.41 98.9466C202.204 98.958 201.998 98.958 201.792 98.9466C199.296 98.8413 196.82 98.4647 194.41 97.8238C189.353 96.4688 184.468 94.5707 179.843 92.1644C182.677 94.2512 183.995 96.3607 183.342 97.7671C182.771 99.026 180.567 99.7065 176.426 99.2415C167.68 98.2434 164.601 96.4968 164.601 96.4968C168.31 110.322 164.274 118.318 162.199 121.289C161.877 121.762 161.518 122.209 161.126 122.628L156.904 122.344L154.362 122.185L153.499 122.129L150.478 121.924L148.822 115.743L145.895 104.89C144.445 99.4726 145.086 93.7269 147.697 88.7386C150.308 83.7503 154.708 79.865 160.064 77.8174C160.169 77.7833 160.263 77.738 160.368 77.7039C168.101 74.7102 176.454 73.5403 184.742 74.2901C200.192 75.9914 217.979 88.6031 215.063 93.0036Z" fill="#212121"/>
<path d="M162.542 122.57C162.542 122.57 160.148 110.619 151.113 113.985C142.078 117.352 149.423 144.437 163.851 132.789L162.542 122.57Z" fill="#F4A386"/>
<path d="M150.483 121.342C150.483 121.342 150.766 116.871 155.049 120.236C156.109 121.125 156.929 122.254 157.438 123.523C157.946 124.792 158.127 126.162 157.965 127.515" stroke="#F07F57" stroke-linecap="round" stroke-linejoin="round"/>
<path d="M155.509 120.633C155.509 120.633 152.322 123.317 154.753 127.641" stroke="#F07F57" stroke-linecap="round" stroke-linejoin="round"/>
<path d="M132.88 238.062L131.993 252.817L131.107 267.447L117.859 252.409L110.838 244.436L112.074 240.92L117.275 226.13L119.351 227.718L132.88 238.062Z" fill="#F4A386"/>
<path d="M132.88 238.061L135.102 201.079" stroke="#130F40" stroke-linecap="round" stroke-linejoin="round"/>
<path d="M365.599 173.653C364.491 173.755 363.301 173.801 362.007 173.801H290.786C288.426 173.866 286.082 173.412 283.928 172.474C282.512 171.819 281.362 170.72 280.663 169.355C278.33 164.535 284.453 163.31 284.453 163.31C282.736 162.52 281.401 161.112 280.731 159.383C280.06 157.654 280.107 155.74 280.861 154.044C283.38 147.522 292.908 150.358 292.908 150.358C292.815 142.226 283.602 132.574 284.068 113.691C284.124 110.888 284.456 108.096 285.059 105.355C286.581 97.6059 291.091 90.7162 297.666 86.0967C303.49 82.2279 310.269 79.9413 317.305 79.4732C318.855 79.3246 320.413 79.2678 321.97 79.3031C333.073 79.5753 336.863 85.11 338.134 88.4671C338.456 89.2845 338.672 90.138 338.776 91.0075C359.476 92.7088 353.353 126.824 350.729 138.256C348.105 149.689 362.1 144.596 366.765 148.656C371.43 152.717 367.348 158.773 367.348 158.773C368.357 158.178 369.507 157.846 370.686 157.809C371.866 157.772 373.035 158.032 374.081 158.564C375.127 159.095 376.015 159.88 376.658 160.843C377.3 161.805 377.677 162.913 377.751 164.058C378.194 168.493 375.558 172.837 365.599 173.653Z" fill="#212121"/>
<path d="M356.871 170.281C351.203 172.833 340.999 176.156 326.235 176.156C307.762 176.156 304.041 169.272 303.307 166.096L310.317 163.897C311.556 163.508 312.637 162.747 313.404 161.723C314.171 160.699 314.584 159.465 314.584 158.198V133.627H337.897V159.269C337.897 160.491 338.281 161.684 338.999 162.687C339.717 163.691 340.733 164.456 341.911 164.882L356.871 170.281Z" fill="#F4A386"/>
<path d="M348.652 242.04C347.092 246.6 347.389 251.568 349.48 255.922C350.063 257.147 350.646 258.406 351.206 259.699C331.029 264.837 309.825 264.783 289.676 259.54C289.711 259.472 289.746 259.381 289.781 259.313C292.004 254.248 292.083 248.535 290.003 243.412C287.74 237.878 284.498 231.22 281.583 224.075C280.822 222.127 280.377 220.077 280.265 217.996C280.218 217.293 280.206 216.59 280.218 215.887L262.34 194.542L267.879 186.909L270.27 183.609C273.438 179.232 277.632 175.652 282.504 173.163C284.278 172.246 286.132 171.484 288.043 170.883L303.309 166.097C304.044 169.273 307.764 176.157 326.237 176.157C341.002 176.157 351.206 172.834 356.874 170.282L362.099 172.165C367.587 174.146 372.473 177.442 376.303 181.749C370.033 191.623 364.592 201.974 360.034 212.7C354.959 224.291 351.017 235.155 348.652 242.04Z" fill="#008444"/>
<path d="M280.565 211.564C280.448 212.415 280.355 213.277 280.297 214.128C280.344 213.266 280.437 212.416 280.565 211.564Z" fill="#F4A386"/>
<path d="M280.267 217.998L251.064 249.426C250.26 249.55 249.443 249.675 248.615 249.789C249.583 244.869 251.214 240.094 253.467 235.589C253.56 235.532 253.642 235.476 253.735 235.419C262.225 240.908 270.26 227.026 268.616 220.21C268.826 219.711 269.024 219.212 269.199 218.702C271.465 215.212 272.718 211.191 272.826 207.065L280.22 215.889C280.208 216.592 280.22 217.295 280.267 217.998Z" fill="#F4A386"/>
<path d="M269.199 218.702C269.024 219.212 268.826 219.711 268.616 220.21C270.261 227.026 262.225 240.908 253.735 235.419C253.642 235.476 253.56 235.532 253.467 235.589C251.215 240.094 249.583 244.869 248.615 249.789C249.443 249.675 250.26 249.551 251.065 249.426L242.784 258.34C242.773 258.329 242.773 258.34 242.773 258.34L240.767 260.507L239.484 259.361L226.784 247.906L224.883 246.194L226.982 243.29L228.475 241.237L230.516 238.436L257.304 201.485L262.342 194.544L270.365 204.117L272.826 207.065C272.718 211.191 271.465 215.212 269.199 218.702Z" fill="url(#paint0_linear)"/>
<path d="M337.897 133.627V134.999C337.349 140.42 332.656 156.122 314.584 158.521V133.627H337.897Z" fill="#F07F57"/>
<path d="M346.166 114.63C346.169 118.121 345.449 121.578 344.048 124.793C342.648 128.008 340.595 130.916 338.014 133.343L338.002 133.354C337.792 133.933 330.9 152.329 317.103 153.236C301.756 154.234 292.52 131.642 292.52 116.138L292.566 116.161C292.531 115.662 292.52 115.14 292.52 114.63C292.52 107.711 295.345 101.076 300.376 96.1844C305.406 91.2925 312.229 88.5442 319.343 88.5442C326.457 88.5442 333.279 91.2925 338.309 96.1844C343.34 101.076 346.166 107.711 346.166 114.63Z" fill="#F4A386"/>
<path d="M291.739 121.435C291.739 121.435 290.768 102.533 314.578 93.7432C314.578 93.7432 315.842 111.984 334.112 114.913C334.112 114.913 334.501 127.578 346.164 130.036C346.164 130.036 355.395 102.06 333.627 91.0961C311.858 80.1322 293.867 94.215 291.734 108.204C289.601 122.192 291.739 121.435 291.739 121.435Z" fill="#212121"/>
<path d="M336.252 125.31C336.252 125.31 336.446 114.346 344.999 115.953C353.552 117.56 351.413 142.7 336.737 134.573L336.252 125.31Z" fill="#F4A386"/>
<path d="M346.749 122.38C346.749 122.38 345.776 118.457 342.521 122.097C341.725 123.048 341.18 124.173 340.934 125.376C340.689 126.579 340.749 127.821 341.111 128.996" stroke="#F07F57" stroke-linecap="round" stroke-linejoin="round"/>
<path d="M342.176 122.519C343.157 123.174 343.874 124.141 344.203 125.254C344.532 126.367 344.453 127.556 343.979 128.618" stroke="#F07F57" stroke-linecap="round" stroke-linejoin="round"/>
<path d="M280.565 211.564C280.448 212.415 280.355 213.277 280.297 214.128C280.344 213.266 280.437 212.416 280.565 211.564Z" fill="#008444"/>
<path d="M280.262 217.996C279.551 207.04 286.105 194.587 286.105 194.587" stroke="#130F40" stroke-linecap="round" stroke-linejoin="round"/>
<path d="M406.23 235.986L384.364 253.566L382.777 250.9L364.456 220.142L389.18 203.912L401.915 227.866L406.23 235.986Z" fill="#F4A386"/>
<path d="M380.93 188.372C379.664 185.993 378.109 183.769 376.3 181.749C370.03 191.623 364.589 201.974 360.031 212.7L364.463 220.141L389.187 203.908L380.93 188.372Z" fill="#008444"/>
<path d="M360.032 212.699C358.126 209.018 355.824 205.544 353.163 202.337" stroke="#130F40" stroke-linecap="round" stroke-linejoin="round"/>
<path d="M377.856 370.95H257.152C257.152 370.95 257.829 366.969 259.053 360.618C259.298 359.302 259.578 357.885 259.87 356.388C262.692 342.143 267.508 320.084 273.281 302.527C279.416 283.859 285.935 268.117 289.678 259.543C291.253 259.974 293.329 260.484 295.824 260.994C296.256 261.085 296.699 261.176 297.154 261.255C297.842 261.391 298.553 261.516 299.288 261.652C300.058 261.788 300.862 261.913 301.69 262.049C302.88 262.23 304.116 262.401 305.399 262.559C305.947 262.627 306.507 262.695 307.078 262.752C307.242 262.775 307.405 262.786 307.568 262.809C308.175 262.877 308.804 262.945 309.446 262.99C309.971 263.047 310.495 263.092 311.032 263.126C324.528 264.245 338.121 263.083 351.208 259.69V259.701C353.436 264.76 355.523 270.317 357.471 276.181C358.894 280.479 360.246 284.925 361.529 289.461C372.282 327.475 377.856 370.95 377.856 370.95Z" fill="#171659"/>
<path d="M308.228 124.295C308.626 127.833 305.604 131.057 301.479 131.496C297.354 131.934 293.685 129.422 293.287 125.884C292.889 122.345 295.911 119.122 300.037 118.684C304.163 118.246 307.833 120.757 308.228 124.295Z" stroke="#424242" stroke-linecap="round" stroke-linejoin="round"/>
<path d="M328.437 122.146C328.834 125.683 325.813 128.907 321.686 129.346C317.56 129.785 313.894 127.272 313.496 123.735C313.098 120.197 316.12 116.973 320.246 116.534C324.372 116.095 328.039 118.608 328.437 122.146Z" stroke="#424242" stroke-linecap="round" stroke-linejoin="round"/>
<path d="M308.228 124.295C308.228 124.295 309.394 121.212 313.495 123.735" stroke="#424242" stroke-linecap="round" stroke-linejoin="round"/>
<path d="M194.237 310.33L177.677 347.378L202.711 369.494L225.678 335.848C225.678 335.848 238.85 367.604 252.175 378L279.43 356.641C279.43 356.641 263.884 333.58 259.241 319.591L194.237 310.33Z" fill="#212121"/>
<path d="M194.236 310.33L177.682 347.379" stroke="#130F40" stroke-linecap="round" stroke-linejoin="round"/>
<path d="M279.435 356.641C279.435 356.641 263.889 333.58 259.246 319.591" stroke="#130F40" stroke-linecap="round" stroke-linejoin="round"/>
<path d="M243.309 246.352C245.093 246.114 246.842 245.819 248.557 245.502C247.16 248.081 245.108 250.271 242.597 251.864C242.073 252.216 241.513 252.567 240.93 252.896C236.851 255.275 232.08 256.28 227.355 255.754C218.853 254.688 218.585 247.554 218.981 244.027C220.183 244.583 221.384 245.082 222.597 245.513L222.725 245.003L225.022 235.975L248.93 231.064C248.93 231.064 248.662 231.506 248.23 232.323C248.221 232.343 248.209 232.362 248.195 232.379C245.904 236.792 244.259 241.496 243.309 246.352Z" fill="#F4A386"/>
<path d="M330.274 219.813C330.274 219.813 336.98 218.895 337.271 220.664C337.563 222.433 318.46 227.809 318.46 227.809C318.46 227.809 300.827 250.22 267.298 264.68L262.271 246.114C281.444 239.445 311.031 217.76 311.031 217.76C314.238 208.188 316.058 201.134 318.18 202.313C320.303 203.493 318.18 211.296 318.18 211.296C318.18 211.296 332.536 200.544 334.204 202.2C335.837 203.81 326.6 211.477 326.064 211.931C326.705 211.636 338.764 205.977 339.965 208.188C341.166 210.4 330.157 215.39 329.504 215.685C330.216 215.503 340.14 213.065 340.84 214.982C341.575 216.978 330.274 219.813 330.274 219.813Z" fill="#F4A386"/>
<path d="M318.175 211.296C318.175 211.296 321.382 214.018 320.399 220.055L318.175 211.296Z" fill="#F4A386"/>
<path d="M318.175 211.296C318.175 211.296 321.382 214.018 320.399 220.055" stroke="#F07F57" stroke-linecap="round" stroke-linejoin="round"/>
<path d="M149.359 203.866C149.359 203.866 142.936 201.779 142.32 203.467C141.703 205.154 159.484 213.816 159.484 213.816C159.484 213.816 172.639 238.968 202.909 259.109L211.319 241.74C193.709 231.796 168.666 205.246 168.666 205.246C167.299 195.266 166.828 188.007 164.52 188.793C162.212 189.579 162.843 197.626 162.843 197.626C162.843 197.626 150.733 184.517 148.784 185.851C146.877 187.147 154.529 196.318 154.965 196.858C154.39 196.455 143.588 188.76 141.994 190.723C140.4 192.687 150.294 199.537 150.881 199.943C150.216 199.639 140.912 195.488 139.866 197.249C138.777 199.082 149.359 203.866 149.359 203.866Z" fill="#F4A386"/>
<path d="M162.848 197.628C162.848 197.628 159.185 199.742 159.026 205.848L162.848 197.628Z" fill="#F4A386"/>
<path d="M162.848 197.628C162.848 197.628 159.185 199.742 159.026 205.848" stroke="#F07F57" stroke-linecap="round" stroke-linejoin="round"/>
<path d="M248.93 231.064C248.93 231.064 248.661 231.506 248.23 232.323C248.221 232.343 248.209 232.362 248.195 232.379C245.314 236.939 237.501 246.375 222.725 245.003L225.022 235.975L248.93 231.064Z" fill="#F07F57"/>
<path d="M222.048 185.29C222.048 185.29 210.955 186.566 209.716 195.851C208.967 201.378 209.931 206.996 212.485 211.986L222.048 185.29Z" fill="#424242"/>
<path d="M264.173 208.381C264.176 212.976 262.947 217.492 260.607 221.483C258.267 225.475 254.898 228.805 250.831 231.143H250.819C209.792 258.431 206.946 220.029 210.177 203.459L210.258 203.515C211.502 197.036 215.19 191.241 220.599 187.269C226.008 183.296 232.748 181.432 239.497 182.041C246.246 182.65 252.518 185.689 257.082 190.561C261.647 195.434 264.176 201.789 264.173 208.381Z" fill="#F4A386"/>
<path d="M248.93 219.243C248.93 219.243 246.462 208.514 252.925 200.955C252.925 200.955 239.6 202.089 237.122 199.466C236.78 199.159 236.507 198.787 236.32 198.372C236.134 197.957 236.037 197.509 236.037 197.056C236.037 196.604 236.134 196.156 236.32 195.741C236.507 195.326 236.78 194.954 237.122 194.646C237.122 194.646 232.895 197.836 228.558 196.631C224.221 195.427 227.792 191.102 227.792 191.102C227.792 191.102 222.836 195.639 217.661 194.575C212.487 193.511 215.838 189.329 215.838 189.329C215.838 189.329 210.664 193.441 208.331 190.747C205.999 188.054 214.672 179.973 237.997 180.114C261.321 180.256 272.328 203.081 262.341 217.613C252.355 232.145 248.93 219.243 248.93 219.243Z" fill="#424242"/>
<path d="M247.531 221.297C247.531 221.297 254.674 211.846 260.506 216.08C266.337 220.313 256.715 240.369 247.021 232.071L247.531 221.297Z" fill="#F4A386"/>
<path d="M249.639 225.119C249.639 225.119 253.794 217.038 256.49 218.739C259.187 220.44 257.656 224.523 257.656 224.523" fill="#F4A386"/>
<path d="M249.639 225.119C249.639 225.119 253.794 217.038 256.49 218.739C259.187 220.44 257.656 224.523 257.656 224.523" stroke="#F07F57" stroke-linecap="round" stroke-linejoin="round"/>
<path d="M252.555 227.812C253.538 226.771 254.127 225.436 254.225 224.026C254.323 222.616 253.925 221.215 253.096 220.055" fill="#F4A386"/>
<path d="M252.555 227.812C253.538 226.771 254.127 225.436 254.225 224.026C254.323 222.616 253.925 221.215 253.096 220.055" stroke="#F07F57" stroke-linecap="round" stroke-linejoin="round"/>
<path d="M264.173 321.237C217.022 344.487 187.412 311.597 187.412 311.597C191.202 293.314 199.657 265.663 199.657 265.663C193.821 261.871 188.527 257.345 183.913 252.201L199.657 231.06C199.657 231.06 208.789 239.306 218.981 244.024C218.585 247.551 218.853 254.685 227.355 255.751C237.816 257.044 246.551 249.944 248.557 245.498C256.968 243.924 265.216 241.612 273.199 238.591L283.194 261.274C275.31 267.66 260.079 271.765 260.079 271.765C258.773 288.497 264.173 321.237 264.173 321.237Z" fill="#008444"/>
<path d="M383 236.269L380.188 236.314L347.409 236.738L318.188 237.018L318.475 265.536L318.716 297.452L318.751 301.408L314.63 301.441L240.878 301.855L167.126 302H162.466V297.452L162.397 265.536L162.454 238.146L101.568 238.035L97 238.023L97.0344 233.609L97.0574 228.96H106.078V229.195L167.126 229.072L171.785 229.061V233.609L171.854 265.536L171.808 292.915L240.878 293.049L310.567 293.44L310.785 265.536L311.095 233.609L311.13 230.145L314.63 230.179L347.409 230.491L377.456 230.883L377.939 197.715L378.57 161.81L379.304 125.905L380.188 89.9999L381.072 125.905L381.806 161.81L382.438 197.715L382.954 233.609L383 236.269Z" fill="#EEEEEE"/>
<path d="M468.217 197.303L412.813 182.453L405.464 208.387L460.867 223.237L468.217 197.303Z" fill="#EEEEEE"/>
<path d="M404.978 198.393L466.076 214.77C468.868 215.519 471.24 217.316 472.669 219.765C474.099 222.214 474.47 225.115 473.7 227.83L443.955 332.788C443.742 333.538 443.232 334.176 442.536 334.56C441.84 334.944 441.015 335.044 440.244 334.837L363.909 314.377C363.137 314.17 362.482 313.674 362.087 312.997C361.691 312.32 361.589 311.518 361.801 310.768L391.547 205.81C392.317 203.095 394.164 200.788 396.683 199.397C399.202 198.006 402.185 197.645 404.978 198.393V198.393Z" fill="#EEEEEE"/>
<path d="M412.309 207.189L455.611 218.809C456.994 219.18 458.289 219.812 459.421 220.669C460.553 221.526 461.501 222.591 462.209 223.805C462.918 225.018 463.373 226.355 463.55 227.74C463.727 229.125 463.622 230.53 463.24 231.875L438.104 320.463L373.741 303.191L398.876 214.603C399.647 211.887 401.495 209.581 404.014 208.191C406.533 206.8 409.517 206.44 412.309 207.189Z" fill="#90CAF9"/>
<path d="M414.399 147.513L485.263 166.507C486.759 166.909 488.031 167.873 488.797 169.186C489.564 170.499 489.763 172.055 489.35 173.51L479.322 208.895L397.169 186.875L407.197 151.49C407.61 150.034 408.6 148.797 409.951 148.051C411.301 147.305 412.901 147.112 414.399 147.513V147.513Z" fill="#0D47A1"/>
<g opacity="0.2">
<path opacity="0.2" d="M414.375 152.306L405.388 184.018" stroke="#130F40" stroke-linecap="round" stroke-linejoin="round"/>
<path opacity="0.2" d="M421.974 154.341L412.986 186.054" stroke="#130F40" stroke-linecap="round" stroke-linejoin="round"/>
<path opacity="0.2" d="M429.572 156.378L420.584 188.09" stroke="#130F40" stroke-linecap="round" stroke-linejoin="round"/>
<path opacity="0.2" d="M437.169 158.415L428.182 190.127" stroke="#130F40" stroke-linecap="round" stroke-linejoin="round"/>
<path opacity="0.2" d="M444.768 160.452L435.78 192.164" stroke="#130F40" stroke-linecap="round" stroke-linejoin="round"/>
<path opacity="0.2" d="M452.366 162.488L443.378 194.2" stroke="#130F40" stroke-linecap="round" stroke-linejoin="round"/>
<path opacity="0.2" d="M459.964 164.525L450.977 196.237" stroke="#130F40" stroke-linecap="round" stroke-linejoin="round"/>
<path opacity="0.2" d="M467.563 166.562L458.575 198.274" stroke="#130F40" stroke-linecap="round" stroke-linejoin="round"/>
<path opacity="0.2" d="M475.159 168.599L466.172 200.311" stroke="#130F40" stroke-linecap="round" stroke-linejoin="round"/>
<path opacity="0.2" d="M482.758 170.635L473.771 202.347" stroke="#130F40" stroke-linecap="round" stroke-linejoin="round"/>
</g>
<path d="M465.912 239.992L379.799 216.911L361.323 282.104L447.436 305.185L465.912 239.992Z" fill="#1E88E5"/>
<path d="M393.697 235.679C394.807 235.976 395.905 235.866 396.781 235.315L396.417 234.675C395.623 235.144 394.793 235.21 393.93 234.979C392.108 234.49 391.117 232.792 391.622 231.01C392.127 229.227 393.873 228.263 395.695 228.751C396.558 228.982 397.236 229.453 397.674 230.24L398.324 229.871C397.862 228.962 396.974 228.331 395.875 228.037C393.6 227.427 391.459 228.597 390.835 230.799C390.211 233 391.433 235.072 393.697 235.679ZM401.308 237.719C403.572 238.326 405.724 237.158 406.348 234.957C406.972 232.756 405.739 230.681 403.475 230.074C401.19 229.461 399.046 230.643 398.425 232.833C397.804 235.023 399.023 237.106 401.308 237.719ZM401.509 237.01C399.687 236.522 398.704 234.837 399.212 233.044C399.72 231.251 401.453 230.294 403.274 230.783C405.085 231.268 406.058 232.95 405.55 234.743C405.042 236.536 403.32 237.496 401.509 237.01ZM414.434 233.081L409.674 238.829L408.635 231.526L407.773 231.295L408.984 239.707L409.771 239.918L415.243 233.298L414.434 233.081ZM414.208 241.107L415.005 241.321L417.136 233.805L416.338 233.591L414.208 241.107ZM417.461 241.979L420.533 242.803C422.947 243.45 425.013 242.34 425.64 240.128C426.267 237.916 425.078 235.934 422.663 235.287L419.591 234.463L417.461 241.979ZM418.453 241.506L420.194 235.364L422.425 235.962C424.43 236.5 425.365 238.113 424.853 239.917C424.342 241.721 422.689 242.641 420.684 242.104L418.453 241.506ZM426.599 241.656L429.423 242.413L429.612 241.747L426.787 240.99L426.599 241.656ZM431.386 237.625L431.191 238.312L432.97 238.789L431.034 245.618L431.81 245.826L433.941 238.31L431.386 237.625ZM438.113 239.359C436.647 238.966 435.281 239.57 434.882 240.977C434.492 242.351 435.288 243.512 436.787 243.913C437.832 244.194 438.847 243.969 439.459 243.243C439.416 243.474 439.366 243.692 439.318 243.864C438.739 245.904 437.399 246.665 435.771 246.229C435.21 246.079 434.72 245.843 434.405 245.482L433.916 246.02C434.308 246.437 434.911 246.726 435.59 246.908C437.638 247.457 439.417 246.501 440.141 243.946C440.814 241.573 440.117 239.896 438.113 239.359ZM437.091 243.29C435.927 242.978 435.373 242.148 435.653 241.16C435.936 240.162 436.87 239.73 437.959 240.022C439.264 240.372 439.731 241.341 439.497 242.167C439.232 243.102 438.244 243.599 437.091 243.29Z" fill="#EEEEEE"/>
<path d="M391.541 242.924L388.558 246.525L387.912 241.951L387.233 241.77L388.008 247.144L388.677 247.323L392.183 243.096L391.541 242.924ZM394.653 243.719C393.892 243.515 393.11 243.561 392.508 243.841L392.664 244.404C393.156 244.163 393.805 244.101 394.428 244.268C395.326 244.509 395.667 245.081 395.434 245.903L395.351 246.195L393.821 245.785C392.437 245.414 391.784 245.907 391.575 246.646C391.339 247.477 391.848 248.222 392.939 248.515C393.736 248.729 394.39 248.58 394.823 248.165L394.61 248.914L395.234 249.081L396.077 246.105C396.429 244.863 395.899 244.053 394.653 243.719ZM393.184 248.031C392.414 247.824 392.064 247.357 392.221 246.8C392.361 246.307 392.767 246.023 393.702 246.274L395.214 246.679L394.992 247.464C394.557 248.025 393.917 248.227 393.184 248.031ZM399.004 250.141C399.82 250.359 400.6 250.215 401.161 249.697L400.769 249.239C400.302 249.634 399.726 249.715 399.167 249.566C398.113 249.283 397.553 248.337 397.874 247.205C398.192 246.082 399.174 245.54 400.228 245.823C400.787 245.972 401.236 246.338 401.429 246.911L402.007 246.712C401.801 245.979 401.204 245.475 400.388 245.257C398.95 244.871 397.62 245.595 397.214 247.028C396.808 248.462 397.565 249.755 399.004 250.141ZM404.088 251.504C404.904 251.722 405.684 251.578 406.245 251.06L405.853 250.601C405.386 250.997 404.81 251.078 404.251 250.928C403.197 250.646 402.637 249.7 402.958 248.568C403.276 247.445 404.258 246.903 405.312 247.185C405.871 247.335 406.32 247.701 406.512 248.273L407.091 248.075C406.885 247.342 406.288 246.838 405.472 246.619C404.033 246.234 402.704 246.958 402.298 248.391C401.891 249.824 402.649 251.118 404.088 251.504ZM409.256 246.543C409.531 246.617 409.792 246.461 409.867 246.196C409.937 245.95 409.783 245.692 409.517 245.621C409.252 245.55 408.981 245.703 408.911 245.95C408.839 246.205 408.99 246.472 409.256 246.543ZM407.267 252.307L407.918 252.481L409.279 247.679L408.629 247.505L407.267 252.307ZM413.557 248.786C412.723 248.563 411.976 248.726 411.462 249.217L411.713 248.331L411.09 248.164L409.729 252.966L410.38 253.141L411.094 250.621C411.404 249.526 412.236 249.061 413.272 249.339C414.188 249.584 414.573 250.247 414.285 251.261L413.514 253.981L414.165 254.156L414.954 251.371C415.345 249.993 414.73 249.101 413.557 248.786ZM420.837 253.361C421.246 251.918 420.547 250.66 419.191 250.297C417.834 249.933 416.548 250.678 416.144 252.103C415.741 253.527 416.477 254.825 417.981 255.227C418.741 255.431 419.488 255.337 420.064 254.941L419.816 254.423C419.33 254.745 418.748 254.814 418.162 254.657C417.108 254.375 416.527 253.502 416.738 252.478L420.771 253.559C420.792 253.486 420.822 253.415 420.837 253.361ZM419.033 250.853C419.977 251.106 420.478 251.948 420.294 252.911L416.875 251.994C417.224 251.076 418.098 250.603 419.033 250.853Z" fill="#EEEEEE"/>
<path d="M446.338 274.5L382.722 257.449L376.832 278.231L440.449 295.282L446.338 274.5Z" fill="#1565C0"/>
</g>
<defs>
<linearGradient id="paint0_linear" x1="265.059" y1="211.958" x2="208.745" y2="247.554" gradientUnits="userSpaceOnUse">
<stop stop-color="#F2906E"/>
<stop offset="1" stop-color="#FFA28F"/>
</linearGradient>
<clipPath id="clip0">
<rect width="554" height="320" fill="white"/>
</clipPath>
<clipPath id="clip1">
<rect width="24" height="23.34" fill="white" transform="translate(45 25.4874)"/>
</clipPath>
<clipPath id="clip2">
<rect width="24" height="23.34" fill="white" transform="translate(58 279.457)"/>
</clipPath>
<clipPath id="clip3">
<rect width="32" height="31.12" fill="white" transform="translate(0 169.417)"/>
</clipPath>
<clipPath id="clip4">
<rect width="32" height="31.12" fill="white" transform="translate(512 153.857)"/>
</clipPath>
<clipPath id="clip5">
<rect width="24" height="23.34" fill="white" transform="translate(480 269.457)"/>
</clipPath>
<clipPath id="clip6">
<rect width="24" height="23.34" fill="white" transform="translate(460 58.5524)"/>
</clipPath>
</defs>
</svg>
