<svg width="180" height="200" viewBox="0 0 180 200" fill="none" xmlns="http://www.w3.org/2000/svg">
<path d="M93.5191 196.632C140.262 196.632 178.155 158.67 178.155 111.842C178.155 65.0132 140.262 27.0512 93.5191 27.0512C46.7758 27.0512 8.88281 65.0132 8.88281 111.842C8.88281 158.67 46.7758 196.632 93.5191 196.632Z" fill="#FFF9E1"/>
<path d="M65.0538 183.916C65.0538 183.916 59.8961 186.388 53.2487 189.39C52.2391 189.841 51.1993 190.311 50.1399 190.782C40.2334 195.185 28.4607 200.079 25.1295 199.999C19.0917 199.869 4.62703 182.725 5.87693 169.935C6.09386 168.097 6.51978 166.291 7.1464 164.55C7.91814 162.324 8.81237 160.142 9.825 158.015L9.83562 158.005C11.0945 155.323 12.5645 152.551 14.1133 149.829C15.2431 147.815 16.4126 145.835 17.5826 143.944C18.4207 142.583 19.2515 141.262 20.0517 140.01V140C22.1704 136.688 24.0897 133.856 25.4295 131.914C26.6286 130.18 27.3684 129.162 27.3684 129.162C27.3684 129.162 28.0584 127.451 29.1379 124.828C29.976 122.814 31.0572 120.255 32.2367 117.522C32.8563 116.081 33.5162 114.58 34.1861 113.089C35.6551 109.788 37.1849 106.504 38.5544 103.831C39.9512 101.09 41.1933 98.9975 42.0231 98.1969C42.5248 97.7311 43.0629 97.3061 43.6322 96.926C45.5326 95.6739 47.5241 94.5666 49.5901 93.6132C50.8294 93.0129 52.0692 92.4524 53.1789 91.9719C53.4683 91.8415 53.7583 91.7218 54.0282 91.6116C54.0382 91.6116 54.0382 91.6015 54.0483 91.6015C55.0976 91.1512 55.9877 90.7909 56.6274 90.5387C56.6872 90.5084 56.7476 90.4883 56.7951 90.4581L57.6449 90.1281L57.7449 91.4192L57.8567 92.8003L57.8868 93.1606L57.9466 93.9712L58.3171 98.6143L58.3964 99.6553L58.8965 105.93L59.0865 108.362L59.2966 111.054V111.064L60.4962 126.157L61.6952 141.379L62.254 148.525L65.0538 183.916Z" fill="#16A75C"/>
<path d="M125.34 120.285C125.345 120.351 125.345 120.418 125.34 120.485C125.228 122.347 124.223 125.569 122.971 128.951C121.452 133.035 119.582 137.358 118.493 139.78C117.953 140.991 117.613 141.732 117.613 141.732L122.301 191.631C120.702 192.071 119.083 192.481 117.464 192.831C117.004 192.943 116.533 193.042 116.064 193.142C95.3419 197.465 73.5901 195.764 53.248 189.389C52.2383 189.839 51.1985 190.309 50.1391 190.78C49.8894 189.859 49.6793 188.969 49.4893 188.158C48.9496 185.736 48.6696 183.994 48.6696 183.994L50.9789 176.538L52.868 170.441L57.7062 154.838L59.5053 149.043C59.5053 149.043 55.897 143.589 52.7384 137.724C51.7483 135.883 50.799 133.991 50.029 132.22C49.6592 131.38 49.3295 130.559 49.0496 129.788C48.7447 128.963 48.5008 128.117 48.3199 127.256C48.1991 126.751 48.1354 126.234 48.1299 125.715C48.2898 123.391 48.6578 121.087 49.2295 118.829C49.7793 116.317 50.509 113.435 51.279 110.502C51.6583 109.071 52.0483 107.64 52.4383 106.219C53.068 103.917 53.7078 101.688 54.2777 99.6838C55.6466 94.9395 56.6965 91.4969 56.6965 91.4969H56.7066L57.7464 91.4169L64.5837 90.8765L70.1013 90.4363L76.3391 89.9457L98.011 88.2345L109.056 87.3735L119.772 86.5232H119.782C119.782 86.5232 121.472 94.7896 122.991 103.256V103.266C123.181 104.368 123.382 105.468 123.571 106.549C124.589 112.528 125.41 118.063 125.34 120.285Z" fill="#16A75C"/>
<path d="M53.2175 101.001C53.2175 101.001 42.9735 124.562 44.1301 131.261C45.2867 137.96 53.2175 147.894 53.2175 147.894C53.2175 147.894 48.6699 133.44 49.0521 129.81C49.4343 126.181 53.2175 101.001 53.2175 101.001Z" fill="#008444"/>
<path d="M119.492 70.9105C119.498 70.9105 119.504 70.9105 119.509 70.9105C119.515 70.9105 119.518 70.9105 119.525 70.9105L119.542 70.9061C119.524 70.8968 119.45 70.8913 119.492 70.9105Z" fill="#161818"/>
<path d="M125.341 68.8935C124.806 68.3591 124.152 67.9583 123.433 67.7236C122.714 67.4888 121.95 67.4266 121.203 67.542H121.193C121.073 67.5621 120.953 67.5823 120.833 67.6125C120.782 67.6143 120.732 67.6209 120.683 67.632C120.549 67.2801 120.389 66.939 120.203 66.6117C120.113 66.4612 120.024 66.3214 119.924 66.1809C119.983 66.101 120.043 66.021 120.091 65.941V65.9309C120.915 64.8189 121.635 63.6329 122.24 62.3882C122.45 61.9373 122.65 61.4875 122.82 61.0171C123.639 58.9289 124.056 56.7046 124.049 54.4614C124.053 54.0971 124.036 53.7329 124 53.3705C123.998 53.1728 123.982 52.9755 123.949 52.7804C123.951 52.7302 123.948 52.68 123.94 52.6304C123.94 52.6002 123.93 52.57 123.93 52.5398C123.89 52.25 123.839 51.9597 123.79 51.6794C123.73 51.3589 123.65 51.049 123.569 50.7285C123.49 50.4281 123.41 50.1282 123.31 49.8379C123.301 49.803 123.287 49.7694 123.27 49.7377C123.17 49.4373 123.06 49.1476 122.94 48.8572C122.288 47.3818 121.466 45.9878 120.491 44.7036C120.121 44.1834 119.731 43.6626 119.341 43.1524V43.1423H119.331C118.773 42.4017 118.214 41.661 117.682 40.9008C117.432 40.5506 117.192 40.1898 116.962 39.8301C117.102 38.7991 117.232 37.7178 117.342 36.5973C117.392 36.0468 117.432 35.4662 117.482 34.8956C117.48 34.8322 117.483 34.7687 117.492 34.7059C117.512 34.3552 117.532 33.9949 117.542 33.6347C117.552 33.4747 117.562 33.3147 117.572 33.1541V32.9242C117.602 32.1936 117.612 31.463 117.602 30.7325C117.602 30.5423 117.602 30.3409 117.592 30.1518C117.582 29.7815 117.572 29.4212 117.552 29.0514C117.554 28.9745 117.55 28.8975 117.542 28.821C117.532 28.6207 117.522 28.4294 117.502 28.2403L117.442 27.5198C117.392 27.0493 117.342 26.5794 117.275 26.1213C117.207 25.6631 117.124 25.2106 117.024 24.7703C116.934 24.33 116.824 23.9099 116.705 23.4893C116.644 23.2795 116.585 23.0792 116.515 22.8789C116.263 22.1041 115.935 21.3564 115.535 20.6469C114.828 19.3702 113.939 18.2036 112.896 17.1842C112.676 16.9643 112.446 16.7641 112.216 16.5739C111.999 16.3886 111.772 16.215 111.536 16.0536C111.425 15.9736 111.317 15.8931 111.207 15.8231C111.097 15.7532 110.977 15.6732 110.867 15.6128C110.637 15.473 110.407 15.3532 110.187 15.233C109.967 15.1211 109.747 15.0226 109.537 14.9326C109.318 14.8425 109.108 14.7647 108.897 14.692C108.538 14.5681 108.171 14.468 107.798 14.3922C107.758 14.3821 107.728 14.3821 107.687 14.372H107.677C107.456 14.3323 107.237 14.2921 107.027 14.2719C106.997 14.2618 106.957 14.2618 106.927 14.2518C106.737 14.2322 106.547 14.2221 106.377 14.2121C106.284 14.2039 106.191 14.2005 106.098 14.202C105.433 14.1685 104.768 14.225 104.119 14.3698C104.144 14.3615 104.165 14.3437 104.178 14.32C104.216 14.2014 104.209 14.0728 104.158 13.9592C103.899 13.2065 103.557 12.4849 103.138 11.8077C103.059 11.6774 102.989 11.5476 102.909 11.4072C102.848 11.2875 102.779 11.1773 102.719 11.0671C102.589 10.8472 102.449 10.6167 102.319 10.3868C102.249 10.275 102.189 10.1564 102.119 10.0467C101.76 9.46605 101.389 8.8658 101.039 8.30472C100.91 8.09494 100.779 7.89467 100.659 7.70447C100.57 7.57469 100.492 7.44435 100.41 7.32408C100.28 7.1143 100.15 6.92354 100.018 6.7339C99.6486 6.16331 99.3284 5.68278 99.0982 5.35273C98.9306 5.11274 98.8088 4.94212 98.7585 4.89233C98.5786 4.69207 98.3987 4.51194 98.2087 4.33293C97.8656 3.97494 97.5018 3.63741 97.1192 3.32208C96.9392 3.1716 96.7493 3.01161 96.5699 2.87176C94.9684 1.61791 93.0954 0.757629 91.1015 0.360022C90.9015 0.319745 90.702 0.279469 90.502 0.248143C90.1019 0.177657 89.6924 0.127869 89.2728 0.0875914C88.2458 -0.0036299 87.2138 -0.0236311 86.184 0.0277336C85.7845 0.0478722 85.3845 0.0680109 84.9844 0.0976594C84.2648 0.147447 83.5552 0.228003 82.8355 0.327577C82.6679 0.347716 82.4857 0.377922 82.3058 0.40813C82.1158 0.42771 81.9359 0.457921 81.7471 0.488129C81.6571 0.508267 81.5794 0.518335 81.4872 0.537914C81.1673 0.588261 80.8473 0.648303 80.5273 0.718042C80.1776 0.788527 79.8177 0.858455 79.4657 0.948519C79.2255 0.998307 78.9958 1.0604 78.7561 1.11634C78.4661 1.18626 78.1761 1.26626 77.8761 1.34626C77.7264 1.37646 77.5861 1.41674 77.4464 1.45814C77.2961 1.49841 77.1464 1.5482 77.0067 1.59855C76.6368 1.69869 76.277 1.80889 75.9166 1.9286C75.897 1.9286 75.887 1.93867 75.8769 1.93867C75.6869 2.00859 75.4858 2.07852 75.2969 2.149C74.9975 2.24914 74.7075 2.35934 74.4175 2.46899C74.1275 2.57863 73.8476 2.68939 73.5676 2.7996C73.2877 2.9098 73.0089 3.02951 72.7295 3.14978C72.5295 3.23985 72.3295 3.31761 72.1294 3.40991C72.0515 3.45135 71.9715 3.48869 71.8897 3.52179C71.8152 3.5634 71.7383 3.60075 71.6595 3.63367C71.4595 3.72429 71.26 3.82443 71.0695 3.91337C70.7901 4.04371 70.5203 4.18357 70.2504 4.32398C69.9805 4.46439 69.7201 4.60368 69.4503 4.75416H69.4419C69.1821 4.90464 68.9122 5.05457 68.6524 5.20449C68.3926 5.35441 68.1328 5.51496 67.8729 5.67495C67.3528 5.99549 66.8432 6.31547 66.3431 6.65559C65.843 6.9957 65.3536 7.35652 64.8736 7.71846C64.3842 8.08879 63.9143 8.46918 63.4544 8.85909C62.9946 9.249 62.5448 9.65009 62.105 10.0702C61.8849 10.2805 61.6653 10.4808 61.4552 10.6906C60.8054 11.3317 60.1958 11.9918 59.6058 12.6826C59.4158 12.9025 59.2359 13.1229 59.056 13.3539C58.966 13.4658 58.8761 13.5743 58.7962 13.694C58.7364 13.7645 58.6844 13.8345 58.6364 13.9044C58.357 14.2546 58.1061 14.6053 57.8541 14.9673C57.4848 15.4976 57.1244 16.038 56.7847 16.5979C56.635 16.8385 56.4947 17.079 56.345 17.3291C56.0349 17.8695 55.7455 18.43 55.4655 18.9905C55.3951 19.1304 55.3253 19.2702 55.2655 19.4106C55.1252 19.6903 54.9956 19.9812 54.8744 20.2715C54.7844 20.4713 54.7067 20.6631 54.6246 20.8617C54.5246 21.1123 54.4346 21.3523 54.3452 21.5923C54.3151 21.6824 54.2754 21.7724 54.2452 21.8625C54.2251 21.9224 54.205 21.9828 54.1854 22.0426C54.0949 22.2832 54.0178 22.5332 53.9452 22.7732C53.9055 22.8851 53.8753 22.9936 53.8452 23.1033C53.8049 23.2336 53.7753 23.3539 53.7334 23.4742C53.6831 23.642 53.6329 23.8143 53.5932 23.9743C53.5334 24.2445 53.463 24.5247 53.4032 24.7949C53.3432 25.0448 53.2933 25.295 53.2535 25.5456L53.2233 25.7258C53.1838 25.9042 53.1538 26.0846 53.1333 26.2661C53.1201 26.2942 53.1166 26.3259 53.1233 26.3562C53.104 26.4182 53.0907 26.4819 53.0836 26.5464C53.0836 26.5766 53.0735 26.6063 53.0735 26.6365C53.0434 26.8367 53.0233 27.037 53.0037 27.2267V27.2468C52.9635 27.5774 52.9333 27.9181 52.9232 28.2576C52.9232 28.2878 52.9132 28.308 52.9132 28.3376C52.8936 28.6173 52.8936 28.897 52.8936 29.1767C52.8836 29.6069 52.8936 30.0377 52.9132 30.4679C52.9327 30.898 52.9735 31.3288 53.0249 31.7489C53.0551 32.0694 53.1048 32.3894 53.1551 32.6999C53.2451 33.2308 53.3451 33.7409 53.4647 34.2618C53.4733 34.3162 53.4868 34.3697 53.5049 34.4217C53.5747 34.7121 53.6546 35.0018 53.725 35.3022C53.8044 35.5928 53.8843 35.8829 53.9647 36.1727V36.1828C54.0648 36.5531 54.1748 36.9133 54.2849 37.2742C54.4246 37.734 54.5643 38.2045 54.7045 38.6648C54.9342 39.4558 55.1744 40.2362 55.375 41.0272C55.4454 41.2773 55.5153 41.5273 55.5655 41.7774C55.6052 41.9178 55.6354 42.0677 55.665 42.2076C55.7253 42.438 55.7767 42.668 55.8153 42.9085C55.8652 43.1289 55.9051 43.3491 55.9349 43.5692C55.9648 43.694 55.9849 43.821 55.9952 43.949C56.0254 44.1593 56.055 44.3697 56.0751 44.5699C56.1148 44.8698 56.1449 45.1803 56.155 45.4807C56.1751 45.771 56.1852 46.0513 56.1852 46.3416C56.1852 46.6414 56.1751 46.9318 56.155 47.2316C56.1431 47.5066 56.1164 47.7807 56.0751 48.0528C56.0673 48.1503 56.0539 48.2472 56.0349 48.3431C55.8534 49.5046 55.5658 50.6468 55.1755 51.7555L54.8755 52.5946C54.4056 53.8555 53.8558 55.0868 53.3261 56.3376C53.206 56.6078 53.0864 56.8881 52.9763 57.1683C52.3226 58.655 51.7975 60.1951 51.4068 61.7717C51.2994 62.197 51.2161 62.6281 51.1571 63.0628C51.0147 64.0232 50.971 64.9957 51.0269 65.965C50.6365 66.0922 50.2529 66.2393 49.8775 66.4058C48.7008 66.9245 47.6528 67.6967 46.8084 68.6675C46.47 68.6211 46.1266 68.6245 45.7892 68.6776C45.1424 68.7948 44.5572 69.1354 44.1353 69.64C43.7133 70.1446 43.4815 70.7813 43.4799 71.4394C43.4297 72.2706 44.7192 72.2706 44.7695 71.4394C44.7753 71.0862 44.9028 70.7458 45.1305 70.476C45.3582 70.2061 45.672 70.0233 46.0189 69.9586C45.9591 70.1186 45.8887 70.2691 45.839 70.4291C45.7156 70.8469 45.683 71.2863 45.7433 71.7178C45.8036 72.1493 45.9555 72.5629 46.1887 72.9307C46.6687 73.6714 47.5984 74.5821 48.5578 74.4411C50.5374 74.1614 49.7474 70.9381 49.0048 69.91C48.7729 69.6007 48.4805 69.342 48.1454 69.1497C48.8137 68.496 49.5884 67.9611 50.4363 67.5683C50.6559 67.4681 50.9056 67.368 51.166 67.2779C51.9153 72.4804 55.3566 77.246 59.8723 80.3586C61.2636 81.3165 62.7595 82.1123 64.3311 82.7304C65.6011 83.2257 66.9079 83.6207 68.2395 83.9119H68.2495C68.5289 83.9813 68.8083 84.0417 69.0988 84.0915C69.1176 84.0996 69.1382 84.1031 69.1586 84.1016H69.1687C72.0118 84.6316 74.9083 84.8164 77.7956 84.652C77.7956 84.6621 77.7956 84.6621 77.8057 84.652C79.9068 84.5546 81.9999 84.3274 84.0731 83.9718C85.9024 83.6814 87.7116 83.3111 89.4929 82.891C91.0222 82.5302 92.552 82.1403 94.0712 81.7095C95.8207 81.2094 97.55 80.659 99.2592 80.0386H99.2692C102.35 78.9368 105.333 77.5775 108.186 75.975C109.904 75.0169 111.56 73.9506 113.144 72.7825C115.334 71.193 117.324 69.3448 119.072 67.2779C119.224 67.5336 119.355 67.8015 119.463 68.079L119.312 68.1389C118.499 68.5449 117.855 69.2254 117.493 70.0604C117.153 71.0713 117.953 71.8416 118.863 72.1218C119.143 72.2209 119.444 72.2435 119.736 72.1873C120.027 72.131 120.299 71.998 120.522 71.8019C120.892 71.3955 121.105 70.8701 121.122 70.3206C121.161 69.8451 121.131 69.3664 121.032 68.8997C121.321 68.8395 121.616 68.806 121.912 68.7995C122.378 68.7843 122.842 68.8673 123.274 69.0431C123.706 69.2188 124.097 69.4835 124.42 69.8199C124.991 70.4246 125.901 69.5139 125.341 68.8935ZM48.4891 72.3859C48.5075 72.6265 48.4769 72.8684 48.3991 73.0969C48.3907 73.1198 48.3769 73.1403 48.3589 73.1568H48.3488C48.0849 73.061 47.8441 72.9107 47.6419 72.7157C47.4398 72.5207 47.2809 72.2853 47.1755 72.0248C47.0701 71.7643 47.0206 71.4845 47.0302 71.2037C47.0399 70.9228 47.1084 70.647 47.2313 70.3944C47.271 70.3144 47.3308 70.2445 47.371 70.1645C47.5797 70.2674 47.7638 70.4141 47.9108 70.5947C48.2851 71.1169 48.4873 71.7431 48.4891 72.3859ZM119.831 70.3161V70.3262C119.831 70.3362 119.831 70.3362 119.821 70.3463C119.802 70.4459 119.772 70.5561 119.752 70.6562C119.746 70.6722 119.742 70.6893 119.742 70.7066C119.732 70.7066 119.732 70.7166 119.712 70.7362C119.691 70.7641 119.674 70.7946 119.662 70.8268C119.647 70.8457 119.631 70.8625 119.612 70.8766C119.607 70.8823 119.599 70.8859 119.592 70.8867C119.592 70.8894 119.591 70.8919 119.589 70.8938C119.587 70.8957 119.584 70.8967 119.582 70.8967C119.568 70.8963 119.554 70.8996 119.542 70.9062H119.522C119.517 70.9123 119.51 70.9161 119.502 70.9169H119.492C119.468 70.9185 119.444 70.9149 119.422 70.9062C119.348 70.8982 119.274 70.8849 119.202 70.8665C119.051 70.821 118.909 70.7498 118.782 70.6562C118.702 70.5863 118.722 70.5963 118.702 70.5365C118.709 70.478 118.725 70.4211 118.752 70.3687C118.796 70.285 118.847 70.2047 118.902 70.1281C119.104 69.876 119.343 69.6565 119.612 69.4775C119.672 69.4373 119.742 69.4076 119.812 69.3656C119.813 69.426 119.82 69.486 119.831 69.5452C119.842 69.7455 119.852 69.9558 119.842 70.1555C119.84 70.2143 119.833 70.2646 119.833 70.3144L119.831 70.3161Z" fill="#212121"/>
<path d="M118.703 70.5367C118.733 70.611 118.719 70.5076 118.703 70.5367V70.5367Z" fill="#161818"/>
<path d="M66.0518 85.2349L77.9295 78.0443L80.0477 77.613L81.0288 77.6504L94.3772 78.1679L95.4578 78.2099L97.1899 78.8856L110.183 86.0718C100.081 98.1958 81.7965 108.508 66.0518 85.2349Z" fill="#FFA07F"/>
<path d="M83.8673 73.4443C87.5073 74.0453 91.2438 73.4581 94.5248 71.7694C94.3281 67.5135 94.351 62.3753 94.351 62.3753L80.0009 62.528C80.1363 65.4712 80.0952 68.42 79.8779 71.3583C80.9795 72.4236 82.3647 73.1479 83.8673 73.4443Z" fill="#F07F57"/>
<path d="M81.2372 82.293C79.7259 81.1837 78.8788 79.5457 77.8613 78.0974C77.8837 78.079 77.9083 78.0605 77.9295 78.0415C79.0693 77.1078 79.6214 74.3186 79.8773 71.3577C80.9797 72.4223 82.3655 73.1458 83.8684 73.4415C87.5083 74.0425 91.2448 73.4553 94.5258 71.7666C94.5441 73.4992 94.7259 75.2261 95.0689 76.9244C95.2164 77.3864 96.0087 78.0739 97.1921 78.8823C94.6593 81.446 91.9109 83.7178 88.6031 84.52C86.0922 85.1801 83.5616 83.9477 81.2372 82.293Z" fill="#F4A386"/>
<path d="M103.47 52.6265C106.324 52.0185 108.184 49.6102 109.108 47.664C109.296 47.2692 109.457 46.8617 109.589 46.4445C110.204 44.4536 109.713 37.8392 107.422 36.543C105.817 35.6362 104.908 37.3105 104.505 38.3963V38.3997C104.405 38.6664 104.322 38.939 104.255 39.2159L103.47 52.6265Z" fill="#FFBF90"/>
<path d="M103.47 52.6265C106.324 52.0185 108.184 49.6102 109.108 47.664C109.184 47.4679 109.25 47.2814 109.304 47.1046C109.919 45.1137 109.428 38.4998 107.137 37.2031C105.837 36.4669 104.993 37.4269 104.505 38.3941V38.3975C104.405 38.6642 104.322 38.9367 104.255 39.2136L103.47 52.6265Z" fill="#F07F57"/>
<path d="M108.67 41.703C108.817 42.2254 108.844 42.7746 108.749 43.3091C108.413 45.5842 106.862 47.4638 105.371 49.2136C105.745 48.0767 105.814 46.8615 105.572 45.6893C105.491 45.2826 105.377 44.8827 105.328 44.4709C105.132 42.8129 107.697 38.657 108.67 41.703Z" fill="#FF7D6F"/>
<path d="M104.604 49.9352L104.692 49.8569C104.748 49.801 104.837 49.7322 104.937 49.6242C105.226 49.3169 105.467 48.9688 105.654 48.591C105.933 48.0189 106.097 47.3969 106.135 46.7612C106.181 45.9672 106.02 45.1749 105.669 44.4614C105.625 44.3659 105.574 44.2736 105.516 44.1851L105.475 44.118L105.47 44.1096C105.47 44.1096 105.47 44.1135 105.473 44.0973L105.493 44.0307L105.536 43.8987C105.565 43.812 105.592 43.7247 105.625 43.6397C105.742 43.3111 105.876 42.9886 106.025 42.6736C106.169 42.3715 106.321 42.0912 106.472 41.8345C106.608 41.5968 106.761 41.3694 106.93 41.1542C107.058 40.9866 107.233 40.8609 107.433 40.7928C107.59 40.7534 107.755 40.7694 107.902 40.8381C107.999 40.8828 108.079 40.9572 108.131 41.0507C108.149 41.0853 108.163 41.1214 108.173 41.1587C108.174 41.1188 108.168 41.079 108.155 41.0412C108.119 40.9281 108.047 40.8299 107.95 40.7615C107.792 40.6465 107.597 40.5926 107.402 40.6099C107.144 40.6478 106.905 40.7651 106.717 40.9456C106.503 41.148 106.308 41.3695 106.134 41.6073C105.707 42.1685 105.357 42.7838 105.091 43.4372C105.054 43.5267 105.02 43.6178 104.986 43.7096L104.937 43.8494L104.873 44.0458L104.829 44.1834C104.849 44.2254 104.877 44.2668 104.9 44.3081L105.006 44.4866C105.055 44.5636 105.099 44.644 105.137 44.7271C105.447 45.3578 105.616 46.0484 105.633 46.7511C105.644 47.3365 105.558 47.9198 105.378 48.4769C105.251 48.8595 105.078 49.2251 104.863 49.5655C104.786 49.688 104.714 49.7747 104.671 49.8384L104.604 49.9352Z" fill="#CF4A57"/>
<path d="M70.087 56.3186C67.1687 56.3494 64.8282 54.406 63.5023 52.7088C63.2324 52.3643 62.9866 52.0017 62.7664 51.6235C61.7328 49.815 60.7689 43.2526 62.7217 41.4865C64.0906 40.2508 65.345 41.6857 65.973 42.6574V42.6613C66.1288 42.8997 66.2699 43.1474 66.3954 43.403L70.087 56.3186Z" fill="#F07F57"/>
<path d="M70.0875 56.3186C67.1692 56.3494 64.8286 54.406 63.5027 52.7088C63.3847 52.5335 63.2802 52.3657 63.1893 52.2053C62.1556 50.3973 61.1918 43.8349 63.1446 42.0705C64.2531 41.0681 65.2868 41.8194 65.9735 42.6574V42.6613C66.1293 42.8997 66.2703 43.1474 66.3959 43.403L70.0875 56.3186Z" fill="#F07F57"/>
<path d="M62.6306 46.7953C62.6003 47.3377 62.6938 47.8798 62.9038 48.3807C63.7279 50.5277 65.6511 52.0224 67.4855 53.4047C66.8724 52.3763 66.5395 51.2049 66.52 50.0074C66.5105 49.5929 66.535 49.1773 66.4926 48.765C66.3244 47.1063 62.9155 43.6112 62.6306 46.7953Z" fill="#F07F57"/>
<path d="M68.3929 53.9412L68.2907 53.8852C68.2253 53.8455 68.1231 53.7952 68.0002 53.7118C67.6519 53.4751 67.3405 53.1882 67.076 52.8604C66.6784 52.363 66.3831 51.7916 66.2071 51.1794C65.9899 50.4146 65.9737 49.6066 66.1602 48.8338C66.1829 48.7308 66.2127 48.6294 66.2496 48.5306L66.2748 48.4562C66.2809 48.4372 66.2748 48.4489 66.2781 48.4472C66.2781 48.4472 66.2781 48.4472 66.272 48.436L66.2379 48.3751L66.1675 48.2559C66.12 48.177 66.0736 48.0987 66.0244 48.0226C65.8384 47.7275 65.6376 47.4421 65.4227 47.1673C65.2171 46.9038 65.0075 46.6638 64.8025 46.4457C64.6182 46.2434 64.4193 46.0549 64.2074 45.8818C64.0451 45.7461 63.8461 45.6618 63.6358 45.6396C63.4743 45.6354 63.3164 45.6874 63.1888 45.7867C63.1038 45.8514 63.0416 45.9415 63.0111 46.044C63.0016 46.0806 62.9958 46.1181 62.9938 46.1559C62.9866 46.1168 62.984 46.077 62.986 46.0373C62.9958 45.9186 63.0443 45.8063 63.124 45.7179C63.2538 45.5706 63.4324 45.4752 63.6269 45.4494C63.887 45.4309 64.1463 45.4941 64.3689 45.6301C64.6215 45.7809 64.8599 45.9543 65.0813 46.1481C65.6203 46.6025 66.097 47.1264 66.4988 47.706C66.5547 47.7849 66.6072 47.8666 66.6608 47.9494L66.7396 48.0747L66.8447 48.252L66.9179 48.3773C66.9073 48.4221 66.8888 48.4685 66.8748 48.5144L66.8112 48.7113C66.7798 48.7973 66.7544 48.8853 66.7352 48.9748C66.5701 49.6581 66.5558 50.3692 66.6933 51.0585C66.8094 51.6322 67.0205 52.1825 67.3179 52.6864C67.5246 53.0327 67.7733 53.3522 68.0583 53.6374C68.1594 53.7409 68.2488 53.8092 68.3047 53.8612L68.3929 53.9412Z" fill="#F07F57"/>
<path d="M66.1274 42.2216C66.1274 42.2216 68.0623 54.9716 71.9785 59.3484C75.2595 63.0119 79.9892 68.9047 86.6734 70.3497C87.982 70.6316 89.3467 70.4806 90.5623 69.9195C96.7716 67.048 100.102 60.2641 102.505 55.9712C105.372 50.8443 104.481 37.9785 104.481 37.9785C104.415 37.1237 104.332 36.3002 104.231 35.5081L104.229 35.4829C101.167 11.2808 82.498 14.6904 82.498 14.6904C82.498 14.6904 63.9824 16.9123 66.005 40.9623C66.0391 41.3757 66.0804 41.7942 66.1274 42.2216Z" fill="#F4A386"/>
<path d="M69.3585 53.2167C69.3585 53.2167 69.2792 52.932 69.1244 52.4335L68.9942 52.0207L68.8506 51.5256C68.7495 51.1704 68.621 50.776 68.5042 50.3296C68.4424 50.1092 68.3772 49.8785 68.3087 49.6376C68.2405 49.3982 68.1807 49.1442 68.1109 48.8863C67.9662 48.3717 67.8388 47.814 67.6896 47.2366C67.4102 46.0725 67.123 44.8004 66.8414 43.4595C66.5687 42.117 66.3296 40.8303 66.1229 39.6511C66.0312 39.0592 65.9267 38.4954 65.8558 37.9634C65.8178 37.6976 65.7714 37.4397 65.739 37.1914C65.7066 36.943 65.6742 36.7036 65.6435 36.4753C65.5736 36.0172 65.5345 35.6004 65.4865 35.2323C65.4634 35.0459 65.4418 34.8743 65.4216 34.7177C65.4054 34.5594 65.3903 34.4139 65.3769 34.2836C65.3211 33.76 65.2803 33.4657 65.2803 33.4657C65.2803 33.4657 65.2099 33.7426 65.0987 34.2522C65.0719 34.3804 65.0428 34.523 65.0087 34.6785C64.9746 34.834 64.9529 35.0058 64.9227 35.1898C64.8668 35.5579 64.7931 35.9791 64.7523 36.4502C64.7299 36.6862 64.7059 36.9335 64.6819 37.1908C64.6578 37.4481 64.6523 37.7189 64.6388 37.9986C64.607 38.558 64.6165 39.1588 64.6282 39.7921C64.6778 41.168 64.8389 42.5376 65.1099 43.8875C65.3925 45.2256 65.785 46.5382 66.2832 47.8117C66.5212 48.3896 66.7487 48.935 66.9973 49.4262C67.1191 49.6723 67.232 49.9123 67.3532 50.1355C67.4745 50.3587 67.5946 50.5685 67.708 50.771C67.9315 51.1771 68.1612 51.5234 68.3567 51.8288C68.4567 51.981 68.5472 52.1231 68.6361 52.2501C68.7249 52.377 68.8104 52.4895 68.8847 52.5924C69.1859 53.0002 69.3585 53.2167 69.3585 53.2167Z" fill="#161818"/>
<path d="M103.562 53.3437C103.562 53.3437 103.656 53.0769 103.808 52.5879C103.961 52.099 104.166 51.3847 104.379 50.4879C104.592 49.5912 104.806 48.5099 104.982 47.2937C105.169 45.9687 105.284 44.6344 105.325 43.2967C105.358 41.9506 105.319 40.6037 105.208 39.2617C105.101 38.0215 104.949 36.9094 104.787 35.9814C104.624 35.0533 104.464 34.3082 104.34 33.7958C104.216 33.2834 104.137 33.0025 104.137 33.0025C104.137 33.0025 104.104 33.2929 104.062 33.8137C104.019 34.3345 103.961 35.0863 103.899 36.0082C103.838 36.9301 103.767 38.0221 103.706 39.2293C103.645 40.4365 103.582 41.7584 103.544 43.1451C103.507 44.5319 103.489 45.8588 103.485 47.0716C103.482 48.2844 103.489 49.3825 103.497 50.31C103.505 51.2375 103.525 51.9961 103.536 52.5214C103.547 53.0467 103.562 53.3437 103.562 53.3437Z" fill="#161818"/>
<path d="M97.1099 48.944C97.5167 49.7495 99.812 49.4077 102.235 48.1804C104.659 46.953 106.294 45.305 105.887 44.4995C105.48 43.6939 103.186 44.0363 100.762 45.2636C98.338 46.491 96.7032 48.1384 97.1099 48.944Z" fill="#F07F57"/>
<path d="M66.1378 48.7292C65.8847 49.5957 67.7928 50.9164 70.3993 51.68C73.0058 52.4436 75.3246 52.3597 75.5777 51.4937C75.8308 50.6278 73.9227 49.3059 71.3162 48.5429C68.7097 47.7799 66.3909 47.8626 66.1378 48.7292Z" fill="#F07F57"/>
<path d="M110.624 30.4427C110.697 31.1778 110.744 31.9162 110.753 32.6591C110.785 33.3734 110.789 34.0772 110.781 34.796C110.758 36.9391 110.58 39.0995 110.384 41.2107C104.254 37.5499 99.4621 32.0126 96.7161 25.4164C95.6751 22.986 94.9224 20.4418 94.4733 17.8359C92.915 21.7898 91.0834 24.184 88.5618 26.0323C86.4766 27.5942 83.9041 28.7829 80.6562 30.2077C81.1764 28.972 81.6854 27.7508 82.1916 26.5045C82.3268 26.2147 82.4494 25.9262 82.5593 25.6391C82.2922 25.9188 82.0005 26.2264 81.6759 26.5515C75.6845 32.6166 62.5256 43.5932 62.5256 43.5932C62.5256 43.5932 62.1724 39.9011 61.9367 35.545C61.8042 33.068 61.7132 30.3907 61.7646 28.049C61.777 26.6392 61.8826 25.2319 62.0808 23.8361C62.2463 22.789 62.4825 21.7544 62.7876 20.7392C62.8603 20.4696 62.9463 20.1988 63.0329 19.9404C63.0977 19.711 63.1894 19.4929 63.2681 19.2736C63.2761 19.2394 63.2899 19.2069 63.3089 19.1774C63.4161 18.8381 63.5426 18.5053 63.6878 18.1805C63.7582 18.0026 63.8157 17.8258 63.899 17.6463C64.0738 17.248 64.2616 16.8474 64.451 16.4598C64.6616 16.0307 64.8863 15.6123 65.1371 15.1916C65.4318 14.6664 65.7554 14.158 66.1065 13.6689C66.1937 13.5279 66.2948 13.3858 66.3954 13.2437C66.5401 13.0312 66.7105 12.8152 66.8804 12.5993C67.1743 12.2127 67.5084 11.8346 67.8549 11.4542C68.1672 11.1185 68.4695 10.7952 68.8097 10.4814C68.8693 10.4137 68.9367 10.3532 69.0103 10.3012C69.0221 10.2867 69.0461 10.271 69.0573 10.2565C69.3869 9.95721 69.706 9.67191 70.0513 9.39613C72.2068 7.72364 74.6547 6.4678 77.2697 5.69285C80.9984 4.53996 84.9832 4.50884 88.7294 5.60335C89.6825 5.91193 90.6002 6.32071 91.4673 6.82285C91.6908 6.9532 91.9143 7.07067 92.1378 7.21444C92.358 7.34764 92.571 7.49254 92.7759 7.64854C92.9181 7.73845 93.0555 7.83574 93.1876 7.93999C93.3674 8.06114 93.5395 8.19342 93.7028 8.33605C93.9196 8.51954 94.1213 8.67841 94.3264 8.87644L94.9862 9.50353C95.1734 9.67303 95.3512 9.85268 95.5187 10.0417C97.2821 12.4192 97.5453 12.884 97.757 13.3551C100.055 13.974 102.194 15.0805 104.027 16.5996C104.115 16.6807 104.216 16.7602 104.303 16.8418C104.58 17.0588 104.843 17.2939 105.089 17.5456C105.437 17.8702 105.764 18.2152 106.071 18.5788C106.386 18.9335 106.678 19.3167 106.956 19.6887C108.01 21.1463 108.836 22.757 109.404 24.4649C110.066 26.3965 110.477 28.4058 110.624 30.4427Z" fill="#212121"/>
<path d="M102.886 33.398C102.886 33.398 94.3886 27.2255 91.3613 29.3658C89.594 30.6155 90.9909 31.4888 90.9909 31.4888L102.886 33.398Z" fill="#424242"/>
<path d="M66.3496 36.383C66.3496 36.383 73.9558 29.1376 77.2395 30.8578C79.1565 31.8619 77.8876 32.913 77.8876 32.913L66.3496 36.383Z" fill="#424242"/>
<path d="M124.054 54.4592C119.36 48.5356 113.072 43.2436 111.926 35.8868C103.749 29.9409 97.5508 20.3969 95.8243 10.4204C91.4408 15.0542 85.766 18.2602 79.5381 19.6215C79.9862 18.1904 80.0113 16.6601 79.6101 15.2151C74.3673 24.0815 67.1589 31.6226 58.5417 37.2557C58.3277 36.3153 58.1131 35.375 57.912 34.4324C57.2616 38.1245 57.4147 41.8898 57.3292 45.6205C57.2577 49.3613 56.923 53.1854 55.3915 56.5849C54.5038 58.6092 53.1366 60.3863 51.4082 61.7622C52.5603 56.7835 55.8329 52.3312 56.1603 47.2176C56.4508 42.7854 54.4735 38.5804 53.4722 34.2478C53.3459 33.7275 53.2487 33.2174 53.1599 32.6926C51.9927 25.7168 54.7355 18.7405 59.0579 13.3405C65.26 5.60671 75.1933 0.841116 84.9836 0.0987834C89.6608 -0.253643 93.2451 0.305208 96.5685 2.86561C97.3504 3.48337 98.0833 4.16098 98.7604 4.89234C98.8046 4.93933 98.9281 5.10771 99.1002 5.34826C100.417 7.24297 104.861 14.1606 104.117 14.3653C105.289 14.1129 106.502 14.1129 107.675 14.3653C109.651 14.7686 111.465 15.7452 112.89 17.1736C113.933 18.1948 114.825 19.3606 115.537 20.6352C117.354 23.802 117.764 28.5429 117.573 33.1458C117.481 35.4796 117.237 37.7782 116.958 39.8212C118.878 42.8716 121.546 45.5086 122.941 48.8556C123.685 50.6293 124.063 52.5353 124.054 54.4592Z" fill="#212121"/>
<path d="M58.8877 10.9569C58.8957 10.9858 58.8984 10.9927 58.8877 10.9569V10.9569Z" fill="#616161"/>
<path d="M84.9857 0.102702C75.4748 0.823777 65.8398 5.34826 59.6132 12.6894C59.574 12.6395 59.532 12.5919 59.4875 12.5467L59.4579 12.5048C59.4322 12.4678 59.4076 12.4298 59.3836 12.3929C59.3311 12.3101 59.2824 12.225 59.2377 12.1367C59.2193 12.1009 59.2014 12.0651 59.1819 12.0287C59.174 12.0125 59.1668 11.9957 59.159 11.9795C59.1331 11.8952 59.102 11.8126 59.0657 11.7322C59.0351 11.6416 59.0074 11.5502 58.9824 11.4581C58.9332 11.2769 58.9265 11.0783 58.8707 10.8987C58.8802 10.9295 58.8829 10.9395 58.8874 10.9546C58.8793 10.9285 58.8733 10.9017 58.8695 10.8746C58.8656 10.8355 58.8623 10.7963 58.8595 10.7566C58.8522 10.6548 58.8489 10.5524 58.8489 10.4501C58.8514 10.3633 58.8365 10.277 58.8052 10.1962C58.7738 10.1153 58.7265 10.0416 58.6661 9.97934C58.6058 9.9171 58.5336 9.86763 58.4538 9.83385C58.374 9.80006 58.2882 9.78266 58.2016 9.78266C58.1149 9.78266 58.0292 9.80006 57.9494 9.83385C57.8696 9.86763 57.7973 9.9171 57.737 9.97934C57.6766 10.0416 57.6293 10.1153 57.598 10.1962C57.5666 10.277 57.5517 10.3633 57.5543 10.4501C57.5274 11.65 57.9718 12.8125 58.7919 13.6879C58.736 13.7578 58.6852 13.8266 58.6321 13.896C57.1346 12.2994 54.7639 11.4698 52.8983 12.9948C52.7782 13.117 52.7109 13.2815 52.7109 13.4529C52.7109 13.6244 52.7782 13.7889 52.8983 13.9111C53.0215 14.0292 53.1855 14.0952 53.3561 14.0952C53.5268 14.0952 53.6908 14.0292 53.814 13.9111C54.1894 13.6375 54.6373 13.4816 55.1012 13.463C55.565 13.4443 56.024 13.5639 56.42 13.8065C56.967 14.0946 57.4542 14.4843 57.8554 14.955C54.2465 20.0948 52.1043 26.3926 53.1586 32.6943C53.2464 33.219 53.3453 33.7292 53.471 34.25C55.6353 32.6308 57.3144 30.448 58.3253 27.9393C58.2326 29.151 58.1521 30.361 58.0577 31.5593C67.2921 26.0615 74.7997 18.079 79.7262 8.52009C79.9179 10.0501 80.1084 11.5683 80.3001 13.0988C86.7747 11.7549 92.5501 8.12311 96.5706 2.86729C93.2472 0.309124 89.6624 -0.249724 84.9857 0.102702Z" fill="#424242"/>
<path d="M117.574 33.1541C117.604 32.3536 117.624 31.543 117.604 30.7325C117.614 30.5792 117.614 30.4254 117.604 30.2721C117.604 30.0819 117.594 29.8805 117.584 29.6914C117.584 29.4716 117.574 29.2612 117.553 29.0514C117.555 28.9745 117.552 28.8975 117.544 28.821C117.533 28.6207 117.524 28.4294 117.504 28.2403L117.444 27.5198C117.394 27.0493 117.344 26.5794 117.276 26.1213C117.209 25.6631 117.126 25.2106 117.026 24.7703C116.936 24.33 116.826 23.9099 116.706 23.4893C116.646 23.2795 116.586 23.0792 116.516 22.879C116.265 22.1041 115.936 21.3564 115.536 20.6469C114.83 19.3702 113.941 18.2036 112.897 17.1842C112.678 16.9643 112.448 16.7641 112.218 16.5739C112.001 16.3886 111.774 16.215 111.538 16.0536C111.318 15.8931 111.091 15.7432 110.868 15.6128C110.637 15.473 110.408 15.3532 110.188 15.233C109.968 15.1211 109.748 15.0226 109.538 14.9326C109.318 14.8425 109.108 14.7648 108.898 14.692C108.539 14.5681 108.171 14.468 107.799 14.3922C107.759 14.3821 107.729 14.3821 107.687 14.3721C107.687 14.2719 107.677 14.1617 107.677 14.0521C107.602 12.9655 107.834 11.8796 108.348 10.9194C108.447 11.1809 108.571 11.4322 108.717 11.6701C109.238 12.4606 110.197 13.2711 111.197 13.251C111.394 13.2369 111.587 13.1836 111.764 13.094C111.941 13.0045 112.098 12.8806 112.226 12.7296C112.355 12.5786 112.452 12.4034 112.512 12.2144C112.572 12.0254 112.594 11.8263 112.576 11.6287C112.547 10.0775 111.037 8.98664 109.559 8.95643C109.659 8.78208 109.798 8.63287 109.964 8.52013C110.13 8.4074 110.32 8.33411 110.519 8.30584C111.338 8.14585 110.989 6.89502 110.169 7.05501C109.628 7.15205 109.136 7.42748 108.77 7.83738C108.404 8.24729 108.185 8.76807 108.149 9.31669C107.04 9.98798 106.62 11.4587 106.46 12.6994C106.403 13.2008 106.376 13.7052 106.38 14.2098C106.287 14.2016 106.194 14.1983 106.101 14.1997C105.437 14.1663 104.771 14.2228 104.122 14.3676C104.147 14.3592 104.169 14.3414 104.182 14.3178C104.22 14.1992 104.213 14.0706 104.162 13.957C103.886 13.2108 103.545 12.4907 103.142 11.8055C103.062 11.6751 102.992 11.5454 102.912 11.405C102.852 11.2852 102.782 11.175 102.722 11.0648C102.592 10.845 102.452 10.6145 102.323 10.3846C102.252 10.2727 102.193 10.1541 102.122 10.0445C101.763 9.46382 101.392 8.86357 101.043 8.30248C100.913 8.09271 100.783 7.89244 100.663 7.70224C100.573 7.57246 100.495 7.44212 100.413 7.32184C100.283 7.11207 100.153 6.92131 100.022 6.73167C99.6519 6.16108 99.3318 5.68054 99.1016 5.35049C100.393 15.2152 104.424 24.5187 110.737 32.202C111.677 33.3208 112.647 34.4139 113.676 35.4544C112.757 32.7726 111.857 30.0903 110.947 27.418C112.876 29.6319 115.107 31.5629 117.574 33.1541ZM110.817 10.7163C111.007 10.8819 111.149 11.0964 111.226 11.3367C111.292 11.5133 111.299 11.7063 111.246 11.8872C111.246 11.8972 111.226 11.9174 111.216 11.9375C111.187 11.9478 111.157 11.9513 111.126 11.9476C110.813 11.884 110.523 11.7349 110.288 11.5168C109.904 11.1825 109.623 10.745 109.479 10.2559C109.964 10.2525 110.436 10.4149 110.817 10.7163Z" fill="#424242"/>
<path d="M87.847 181.62C87.3836 181.839 87.0236 182.23 86.8428 182.71C86.662 183.19 86.6747 183.722 86.8781 184.193L89.3824 189.735C89.4875 189.968 89.6373 190.177 89.8232 190.352C90.0092 190.526 90.2278 190.663 90.4663 190.753C90.7049 190.843 90.9589 190.885 91.2138 190.877C91.4686 190.869 91.7194 190.81 91.9518 190.705C92.1841 190.6 92.3935 190.45 92.5679 190.264C92.7424 190.078 92.8785 189.859 92.9685 189.62C93.0584 189.381 93.1006 189.127 93.0924 188.872C93.0842 188.616 93.026 188.365 92.9209 188.133L90.4166 182.591C90.2001 182.125 89.8099 181.762 89.3296 181.58C88.8493 181.399 88.3171 181.413 87.847 181.62Z" fill="#FF9500"/>
<path d="M93.155 179.454C92.6916 179.673 92.3314 180.064 92.1506 180.545C91.9697 181.025 91.9822 181.556 92.1856 182.027L94.6899 187.569C94.795 187.802 94.9448 188.012 95.1308 188.186C95.3167 188.361 95.5353 188.497 95.7739 188.587C96.0124 188.678 96.2664 188.72 96.5213 188.711C96.7762 188.703 97.0269 188.645 97.2593 188.54C97.4916 188.435 97.701 188.285 97.8754 188.098C98.0499 187.912 98.186 187.693 98.276 187.455C98.366 187.216 98.4081 186.961 98.3999 186.706C98.3918 186.451 98.3335 186.2 98.2284 185.967L95.7241 180.425C95.5076 179.959 95.1174 179.596 94.6372 179.415C94.157 179.234 93.625 179.248 93.155 179.454Z" fill="#FF9500"/>
<path d="M98.8356 176.711C98.3721 176.931 98.0118 177.322 97.831 177.802C97.6502 178.282 97.663 178.814 97.8667 179.285L100.37 184.827C100.476 185.059 100.625 185.269 100.811 185.444C100.997 185.618 101.216 185.754 101.455 185.845C101.693 185.935 101.947 185.977 102.202 185.969C102.457 185.96 102.708 185.902 102.94 185.797C103.172 185.691 103.382 185.541 103.556 185.355C103.731 185.169 103.867 184.95 103.957 184.711C104.047 184.472 104.089 184.218 104.081 183.963C104.072 183.708 104.014 183.457 103.909 183.224L101.405 177.682C101.189 177.216 100.798 176.853 100.318 176.672C99.8378 176.491 99.3056 176.505 98.8356 176.711Z" fill="#FF9500"/>
<path d="M104.342 172.755C103.879 172.975 103.519 173.366 103.338 173.846C103.157 174.326 103.17 174.858 103.373 175.329L105.877 180.871C106.09 181.341 106.48 181.707 106.962 181.889C107.444 182.071 107.978 182.054 108.447 181.841C108.916 181.629 109.282 181.238 109.464 180.756C109.645 180.273 109.628 179.738 109.416 179.268L106.912 173.726C106.695 173.26 106.305 172.897 105.825 172.716C105.344 172.535 104.812 172.549 104.342 172.755Z" fill="#FF9500"/>
<path d="M108.797 173.458C100.564 180.846 86.0256 185.473 86.0256 185.473C84.7485 183.602 83.6022 181.645 82.5949 179.615C82.025 178.474 81.4685 177.282 80.9377 176.051C80.5622 175.195 80.2001 174.317 79.8375 173.421C79.3715 172.242 78.9178 171.024 78.4781 169.78C68.4582 141.446 66.335 99.1669 66.335 99.1669L81.5981 105.544C82.5821 117.922 93.2104 141.836 100.888 157.726C101.496 158.997 102.091 160.215 102.661 161.368C103.191 162.444 103.696 163.468 104.189 164.427C104.823 165.723 105.431 166.916 105.962 167.966C107.71 171.396 108.797 173.458 108.797 173.458Z" fill="#FFB900"/>
<path d="M105.962 167.961C99.4631 173.871 91.087 177.191 82.5947 179.614C82.0248 178.472 81.4683 177.28 80.9375 176.049C89.3393 173.729 97.9747 170.553 104.188 164.423C104.823 165.719 105.431 166.913 105.962 167.961Z" fill="#FFF7F1"/>
<path d="M102.66 161.363C96.3941 167.443 88.2259 170.904 79.837 173.418C79.371 172.238 78.9173 171.02 78.4775 169.776C86.7469 167.378 95.0353 164.021 100.887 157.722C101.495 158.992 102.091 160.211 102.66 161.363Z" fill="#FFF7F1"/>
<path d="M119.776 86.5266C118.708 89.5481 117.255 92.419 115.453 95.0682C111.116 101.562 103.115 109.364 89.8456 109.093C67.2031 108.623 56.7021 91.5053 56.7021 91.5053C56.7021 91.5053 55.4729 82.99 61.2201 79.2957C66.9679 75.5891 70.0103 78.0387 70.0103 78.0387C70.0103 78.0387 70.2561 72.0894 79.8754 71.3639C79.8754 71.3639 80.3151 76.8332 86.5423 76.6911C92.7823 76.5484 94.5686 72.5817 94.5686 72.5817C95.5961 72.0255 96.6997 71.6238 97.844 71.3896C99.148 71.0841 100.504 71.0746 101.812 71.3617C103.12 71.6488 104.347 72.2252 105.404 73.0488C110.336 76.9758 109.534 80.5661 109.534 80.5661C109.534 80.5661 115.84 78.5153 119.776 86.5266Z" fill="#FFB900"/>
<path d="M115.453 95.0671C111.116 101.561 103.115 109.363 89.8456 109.091C67.2031 108.623 56.7021 91.5053 56.7021 91.5053C56.7021 91.5053 55.4729 82.99 61.2201 79.2957C66.9679 75.5891 70.0102 78.0387 70.0102 78.0387C70.0102 78.0387 70.2561 72.0894 79.8754 71.3639C79.8754 71.3639 80.3151 76.8332 86.5423 76.6911C92.7823 76.5485 94.5686 72.5817 94.5686 72.5817C95.596 72.0256 96.6996 71.6239 97.844 71.3896C97.093 75.3055 94.1283 78.8163 90.2836 79.9178C87.8482 80.5498 85.2704 80.3334 82.9741 79.3041C80.6778 78.2749 78.7996 76.494 77.6482 74.2543C75.6021 76.106 74.3382 78.6692 74.1142 81.4215C75.9774 83.5176 78.2607 85.1974 80.8154 86.3515C83.3701 87.5056 86.1389 88.1081 88.9415 88.1198C91.8082 88.1251 94.6454 87.5411 97.2774 86.404C99.9095 85.267 102.28 83.601 104.243 81.5093C100.645 87.3937 94.1199 91.9176 87.2329 92.3058C83.781 92.4688 80.34 91.8064 77.1947 90.3734C74.0493 88.9404 71.2901 86.778 69.1453 84.0652C67.9006 84.7126 66.8219 85.6389 65.9933 86.772C65.1647 87.9051 64.6085 89.2144 64.3681 90.598C72.0709 101.252 87.0882 105.283 99.8398 102.081C105.396 100.625 110.672 98.2548 115.453 95.0671Z" fill="#FF9500"/>
<path d="M20.8367 158.234C20.8367 158.234 17.672 164.06 17.3669 166.372C17.0618 168.684 18.1363 177.646 19.9818 180.556C21.8273 183.466 37.8241 190.087 40.439 189.163C43.0539 188.239 52.899 174.38 53.2051 172.686C53.5113 170.992 49.0554 158.234 49.0554 158.234C49.0554 158.234 37.21 151.129 32.5943 152.205C27.9785 153.281 20.8367 158.234 20.8367 158.234Z" fill="#008444"/>
<path d="M66.333 109.719L74.8896 136.139L90.5517 132.74L87.4127 105.144L66.333 109.719Z" fill="#FFF7F1"/>
<path d="M88.4896 101.001L63.8477 106.35L64.6561 110.083L89.298 104.735L88.4896 101.001Z" fill="#F1E8DF"/>
<path d="M92.5786 132.296L72.8594 136.58L73.6683 140.312L93.3875 136.028L92.5786 132.296Z" fill="#F1E8DF"/>
<path d="M59.6157 129.365C59.8392 128.444 60.1398 127.36 60.4879 126.183C60.7204 125.453 60.9573 124.666 61.2199 123.879C62.1697 120.999 63.4118 117.995 64.8796 115.898C65.402 115.089 66.0642 114.379 66.8352 113.802C71.6253 110.502 78.9817 105.508 80.5803 107.28C82.1705 109.079 68.669 118.592 68.669 118.592L69.8066 123.023L75.8204 119.586L85.9135 119.354C85.9135 119.354 86.7678 121.119 87.6964 123.336C87.7963 123.534 87.8802 123.74 87.9473 123.951C87.9562 123.969 87.9629 123.988 87.9674 124.007C87.9903 124.063 88.0104 124.144 88.0333 124.201C88.1451 124.445 88.2512 124.723 88.3474 124.98C88.7788 126.051 89.1509 127.144 89.462 128.256C89.4926 128.381 89.5311 128.505 89.5771 128.626C89.7246 129.203 89.8306 129.789 89.8945 130.38C89.9751 130.834 89.9307 131.301 89.766 131.732L82.1308 133.593C82.1308 133.593 77.5106 143.438 76.1662 144.383C75.6315 144.761 72.7635 144.942 69.5228 145.033C68.3757 145.055 67.1984 145.048 66.0619 145.06C66.0619 145.06 66.0351 145.06 65.9681 145.066C65.577 145.058 65.1646 145.066 64.7578 145.072L56.123 134.667C56.1789 134.421 59.5548 129.638 59.6157 129.365Z" fill="#F4A386"/>
<path d="M87.6984 123.345C87.8163 123.622 87.9292 123.907 88.046 124.195C87.98 124.209 87.9091 124.214 87.842 124.222C86.6765 124.351 85.1042 124.551 83.4117 124.803C81.9477 125.008 80.5037 125.337 79.0955 125.787C78.8161 125.887 78.568 125.974 78.3484 126.055C78.1288 126.154 77.9417 126.242 77.7897 126.309C77.4729 126.45 77.2969 126.527 77.2969 126.527C77.2969 126.527 77.4198 126.378 77.6601 126.107C77.7835 125.975 77.9327 125.807 78.1171 125.625C78.3082 125.457 78.5362 125.271 78.7876 125.07C80.1227 124.087 81.6754 123.442 83.3134 123.189C84.7724 122.974 86.2583 123.027 87.6984 123.345Z" fill="#F07F57"/>
<path d="M89.4594 128.251C89.4991 128.372 89.5298 128.5 89.5661 128.619C89.2404 128.656 88.813 128.697 88.2989 128.753C87.1339 128.883 85.5611 129.082 83.8647 129.333C82.4021 129.539 80.9595 129.869 79.5524 130.319C79.273 130.419 79.0227 130.51 78.7986 130.589C78.5835 130.69 78.3947 130.771 78.2399 130.845L77.7432 131.06C77.7432 131.06 77.8689 130.907 78.1136 130.638C78.2326 130.504 78.3863 130.339 78.5662 130.154C78.7612 129.989 78.983 129.805 79.2417 129.601C80.5761 128.619 82.1274 127.973 83.7642 127.718C85.3117 127.495 86.8875 127.569 88.4073 127.937C88.8292 128.042 89.1806 128.153 89.4594 128.251Z" fill="#F07F57"/>
<path d="M56.1213 134.665L27.2852 160.828C27.2852 160.828 24.5166 168.913 27.2852 174.457C30.0537 180.001 38.5907 181.387 38.5907 181.387L64.7561 145.069L56.1213 134.665Z" fill="#F4A386"/>
<path d="M86.4671 53.0103C86.4671 53.3931 86.3152 53.7602 86.0449 54.0308C85.7745 54.3015 85.4079 54.4535 85.0255 54.4535C84.6432 54.4535 84.2765 54.3015 84.0062 54.0308C83.7359 53.7602 83.584 53.3931 83.584 53.0103C83.584 52.2131 85.0255 49.9509 85.0255 49.9509C85.0255 49.9509 86.4671 52.2131 86.4671 53.0103Z" fill="#E3F2FD"/>
<path d="M140.155 49.5229L120.332 50.9729L136.998 58.6368L140.155 49.5229Z" fill="#FFF7F1"/>
<path d="M123.15 34.7501L117.687 46.7975L127.461 39.4961L123.15 34.7501Z" fill="#FFF7F1"/>
<path d="M127.058 64.2538L115.452 55.3777L120.884 67.726L127.058 64.2538Z" fill="#FFF7F1"/>
<path d="M63.113 98.7216L61.7284 103.206C61.068 105.344 60.0969 108.494 58.6598 113.16C58.0906 115.001 57.4434 117.092 56.7182 119.434C56.5237 120.056 56.3271 120.704 56.1226 121.365C55.8309 122.315 55.4806 123.245 55.0738 124.152C53.2355 128.377 50.31 132.263 46.8044 135.791C45.8724 136.724 44.9014 137.631 43.9046 138.513C41.6269 140.512 39.2319 142.373 36.7325 144.086C35.6709 144.837 34.5965 145.541 33.5349 146.224C30.6998 148.039 27.8513 149.659 25.1722 151.085C23.9809 151.707 22.8288 152.303 21.7152 152.848C17.8485 154.782 13.8814 156.508 9.8308 158.019C9.50729 157.177 10.166 154.403 11.4104 150.787C12.5111 147.521 14.0644 143.58 15.7473 139.77C17.2936 136.16 19.044 132.642 20.99 129.232C21.5185 128.316 22.1022 127.433 22.7377 126.588C22.8936 126.368 23.0618 126.173 23.2171 125.992C24.001 125.052 24.6812 124.03 25.2459 122.944C26.7607 120.131 28.1072 116.463 29.4795 112.678C30.0489 111.084 30.6316 109.477 31.2273 107.896C31.2792 107.766 31.3306 107.637 31.3826 107.494C32.1335 105.536 32.9102 103.644 33.7517 101.934C34.2033 100.981 34.7091 100.055 35.2664 99.1602C36.0728 97.9273 37.0391 96.8071 38.14 95.8289C39.1125 94.9484 40.1324 94.1218 41.1952 93.353C43.0221 92.0629 44.9149 90.869 46.8659 89.7762C48.0437 89.1021 49.2087 88.48 50.2966 87.9357C54.2078 85.9397 57.287 84.6951 57.287 84.6951L56.821 90.1773L56.7031 91.5053L58.5928 93.6439L59.9136 95.1347L63.113 98.7216Z" fill="#FF9500"/>
<path d="M52.4081 112.378C52.1684 111.987 51.9281 111.587 51.6985 111.198C51.5582 112.128 51.4191 113.079 51.2789 114.039C51.2185 114.46 51.1487 114.89 51.0889 115.311C50.9587 116.191 50.8285 117.082 50.6978 117.953C50.8274 117.883 50.9677 117.802 51.0973 117.722C51.3672 118.153 51.627 118.593 51.8974 119.024L54.5665 111.08C53.8474 111.507 53.1255 111.938 52.4081 112.378ZM60.445 101.407C59.845 100.606 59.2352 99.8058 58.6157 99.0047L58.3162 98.6131C57.4262 97.4523 56.5283 96.3016 55.627 95.1504C56.3964 94.7588 57.1663 94.36 57.9458 93.9695C58.076 93.8996 58.2157 93.8296 58.3559 93.7591L58.5956 93.6394L57.8558 92.8003L56.7166 91.5092L56.7065 91.4991L56.7965 90.4581L56.8166 90.1784C56.7467 90.208 56.6864 90.2483 56.6165 90.278C55.7566 90.7288 54.9073 91.159 54.0463 91.5993C54.0363 91.5993 54.0363 91.6093 54.0262 91.6093C53.7664 91.7492 53.4865 91.889 53.2166 92.0295C53.2 92.012 53.1865 91.9917 53.1769 91.9696C52.1773 90.6483 51.2174 89.3175 50.2977 87.9363C49.2082 88.4767 48.0387 89.1071 46.8592 89.7778C47.7186 91.079 48.6383 92.3601 49.5881 93.6109L49.7379 93.8212C47.699 94.8617 45.6697 95.9028 43.6303 96.9237L43.3302 97.0736C42.6206 95.8429 41.901 94.6016 41.1914 93.3508C40.1301 94.1213 39.1122 94.9499 38.1423 95.8329C38.6921 96.8437 39.2821 97.8344 39.842 98.8352C39.7721 98.8755 39.6917 98.9152 39.6118 98.9549C37.6428 99.9361 35.6902 100.93 33.7539 101.938C32.9046 103.649 32.1336 105.54 31.3849 107.492C33.764 106.261 36.1532 105.031 38.5524 103.829C39.5621 103.319 40.5639 102.808 41.5696 102.308C41.6596 102.268 41.7372 102.228 41.8294 102.178C43.9784 105.891 46.1608 109.571 48.3768 113.216C48.607 113.608 48.8467 113.987 49.0763 114.378C48.607 114.657 48.1371 114.948 47.6672 115.228C47.1671 115.528 46.6877 115.819 46.1876 116.109C43.5889 117.63 40.9299 118.981 38.2507 120.305C36.9013 117.893 35.552 115.491 34.1825 113.088C33.2025 111.357 32.2153 109.625 31.2212 107.894C30.6216 109.475 30.0417 111.087 29.4717 112.678C30.3914 114.289 31.3212 115.9 32.2308 117.522C33.0805 119.013 33.9234 120.511 34.7597 122.015C33.6422 122.556 32.5107 123.116 31.4011 123.677C30.6412 124.047 29.8819 124.438 29.132 124.827C28.3498 125.238 27.5826 125.659 26.8032 126.079C26.2729 125.048 25.7533 123.997 25.2437 122.946C24.6782 124.033 23.9943 125.053 23.2043 125.989C23.0546 126.169 22.8842 126.369 22.7244 126.589C22.9445 127.039 23.1641 127.48 23.4044 127.941C22.5947 128.381 21.7952 128.801 20.985 129.231C19.0367 132.641 17.2846 136.16 15.7373 139.77C16.3368 141.161 16.9464 142.552 17.5767 143.943C18.1561 145.244 18.7562 146.545 19.3557 147.847C20.1251 149.517 20.9152 151.179 21.7024 152.84V152.85C22.0025 152.7 22.312 152.55 22.6221 152.39C23.2323 152.08 23.8514 151.77 24.4716 151.439C24.7012 151.327 24.9314 151.209 25.161 151.089V151.082C24.4116 149.521 23.672 147.956 22.9423 146.389C21.9528 144.267 20.9828 142.155 20.0435 140.011V140.001C19.3239 138.36 18.6174 136.713 17.9242 135.058C20.3827 133.939 22.7925 132.696 25.161 131.415C25.2516 131.583 25.3287 131.745 25.4214 131.915C26.3508 133.717 27.2938 135.515 28.2503 137.31C29.1499 139.001 30.1501 140.672 31.1591 142.344C31.9486 143.635 32.7482 144.926 33.5282 146.228C33.6679 146.137 33.8076 146.047 33.9478 145.948C34.3674 145.678 34.7859 145.398 35.2173 145.118C35.2776 145.077 35.329 145.047 35.3849 145.006C35.8246 144.705 36.275 144.396 36.7147 144.085C35.9151 142.754 35.105 141.433 34.3054 140.102C33.4757 138.71 32.656 137.31 31.9062 135.899C30.777 133.796 29.6673 131.675 28.5777 129.553C29.4773 129.063 30.3769 128.573 31.2966 128.092C33.0561 127.161 34.8452 126.291 36.6449 125.42C37.4444 126.871 38.2652 128.322 39.0536 129.783C39.8135 131.195 40.5622 132.616 41.3333 134.027C42.1524 135.537 42.9922 137.039 43.8917 138.511C44.1711 138.27 44.4416 138.03 44.7014 137.78C44.869 137.63 45.0316 137.48 45.1914 137.332C45.4613 137.092 45.7211 136.842 45.9809 136.582C46.0023 136.57 46.0198 136.553 46.0312 136.531C46.291 136.291 46.5407 136.041 46.7911 135.791C45.901 134.3 45.0713 132.788 44.2516 131.267C44.1918 131.155 44.132 131.057 44.084 130.947L42.4044 127.825C41.6652 126.454 40.8852 125.103 40.1353 123.731C42.0647 122.801 43.9739 121.829 45.8636 120.779C45.9334 120.739 46.0133 120.699 46.0837 120.659C47.133 120.069 48.1823 119.458 49.2222 118.837C49.7122 118.547 50.2016 118.257 50.6916 117.957C50.8213 117.887 50.9615 117.806 51.0911 117.726C51.361 118.157 51.6208 118.597 51.8913 119.028C52.9406 120.739 54.0001 122.447 55.0699 124.152C55.17 123.922 55.27 123.704 55.3599 123.471C55.4795 123.181 55.5896 122.881 55.6996 122.59C55.8494 122.19 55.979 121.78 56.1092 121.369C56.2696 120.839 56.4294 120.319 56.5892 119.818C56.6294 119.688 56.6691 119.558 56.7093 119.438C55.9271 118.197 55.17 116.966 54.4184 115.715C55.8281 114.864 57.2373 114.004 58.647 113.163C58.737 112.873 58.8146 112.583 58.9068 112.302C58.9364 112.202 58.9666 112.102 59.0068 112.002C59.037 111.902 59.0666 111.802 59.0968 111.702L59.1264 111.581C59.1442 111.55 59.1577 111.516 59.1666 111.481C59.1867 111.421 59.1968 111.361 59.2164 111.301C59.2465 111.221 59.2666 111.141 59.2868 111.071V111.061C59.2963 111.041 59.2963 111.031 59.3069 111.011C59.334 110.906 59.3672 110.802 59.4063 110.701C59.836 109.31 60.216 108.079 60.5562 106.988C60.5802 106.889 60.6102 106.792 60.6462 106.698C60.6462 106.678 60.6562 106.658 60.6562 106.638C60.6657 106.628 60.6657 106.608 60.6758 106.598C60.698 106.506 60.7248 106.416 60.7563 106.327C60.7664 106.302 60.7729 106.275 60.7758 106.247C60.797 106.193 60.8138 106.137 60.8261 106.08L60.8356 106.069C60.838 106.052 60.8413 106.036 60.8457 106.019C60.8959 105.879 60.9362 105.729 60.9859 105.589C61.0362 105.429 61.0759 105.278 61.1256 105.129L61.1558 105.008C61.196 104.889 61.2256 104.788 61.2675 104.678C61.2776 104.628 61.2971 104.578 61.3077 104.528C61.3677 104.358 61.4176 104.198 61.4575 104.048C61.4765 103.976 61.4999 103.906 61.5273 103.837C61.5474 103.767 61.567 103.698 61.5871 103.628C61.6374 103.477 61.6771 103.337 61.7173 103.207C61.315 102.591 60.8848 102 60.445 101.407ZM59.0856 108.362C57.5664 109.263 56.0684 110.164 54.5676 111.074C53.8474 111.505 53.1278 111.935 52.4081 112.376C52.1684 111.984 51.9281 111.585 51.6985 111.195L51.2789 110.504C50.8878 109.863 50.5089 109.223 50.129 108.572C48.4997 105.87 46.8903 103.155 45.3009 100.426C47.58 99.2749 49.8692 98.1242 52.1483 96.9427C52.8579 97.8641 53.5775 98.7748 54.2776 99.6838C55.2372 100.904 56.1768 102.129 57.0965 103.356C57.1064 103.376 57.1198 103.393 57.1362 103.407C57.7363 104.237 58.3257 105.078 58.8956 105.928C59.3052 106.539 59.7053 107.15 60.1053 107.76L59.0856 108.362ZM52.4081 112.376C52.1684 111.984 51.9281 111.585 51.6985 111.195C51.5582 112.126 51.4191 113.076 51.2789 114.037C51.2085 114.457 51.1487 114.887 51.0889 115.308C50.9587 116.189 50.8285 117.079 50.6978 117.95C50.8274 117.88 50.9677 117.8 51.0973 117.72C51.3672 118.15 51.627 118.591 51.8974 119.021L54.5665 111.077C53.8474 111.507 53.1255 111.938 52.4081 112.378V112.376Z" fill="#FF7500"/>
<path d="M63.1119 98.7216L56.1215 121.365C49.131 144.009 9.8269 158.019 9.8269 158.019C9.50338 157.176 10.1621 154.403 11.4065 150.786C16.805 148.894 26.4757 145.304 31.2005 142.322C37.9713 138.032 49.5579 125.991 49.5579 125.991L59.9147 95.1308L63.1119 98.7216Z" fill="#FFF7F1"/>
<path d="M154.88 176.4C154.82 176.45 154.75 176.5 154.69 176.54C153.701 177.22 152.701 177.883 151.691 178.532C148.346 180.673 144.886 182.628 141.325 184.386C140.166 184.957 138.996 185.505 137.826 186.038C134.697 187.449 131.505 188.707 128.25 189.81C126.291 190.482 124.301 191.091 122.302 191.632C120.703 192.073 119.084 192.483 117.464 192.833C115.645 178.061 111.327 142.353 111.286 136.318C111.166 120.885 119.254 88.6003 119.754 86.6177C119.763 86.5952 119.77 86.5715 119.773 86.5473C119.779 86.5423 119.783 86.5353 119.783 86.5277C119.783 86.5277 122.492 87.5682 126.031 89.3197C126.261 89.4316 126.501 89.5496 126.741 89.6699C128.082 90.3507 129.51 91.121 130.949 91.9718C132.129 92.6722 133.328 93.4229 134.478 94.2234C134.788 94.4338 135.087 94.6536 135.387 94.874C135.957 95.2846 136.487 95.6852 137.008 96.1154C138.091 96.9918 139.098 97.9594 140.016 99.0075C140.056 99.0673 140.106 99.1194 140.146 99.168C140.246 99.2799 140.336 99.3879 140.436 99.5177C140.526 99.6379 140.604 99.7481 140.696 99.8785C141.093 100.487 141.448 101.123 141.757 101.78C141.827 101.94 141.907 102.111 141.997 102.291C142.287 102.962 142.556 103.692 142.826 104.472C142.907 104.703 142.994 104.933 143.057 105.173C143.276 105.814 143.477 106.494 143.666 107.204C143.737 107.445 143.806 107.685 143.856 107.935C143.968 108.315 144.056 108.696 144.156 109.086C144.226 109.366 144.286 109.646 144.356 109.937C144.524 110.617 144.686 111.328 144.826 112.038C145.086 113.29 145.346 114.591 145.575 115.912C146.106 118.844 146.575 121.897 147.005 124.889L147.215 126.39C147.445 128.041 147.655 129.653 147.864 131.214V131.224C147.895 131.434 147.925 131.634 147.955 131.845C148.024 132.315 148.085 132.765 148.144 133.226C148.185 133.546 148.235 133.876 148.285 134.196C148.324 134.516 148.365 134.837 148.414 135.147C148.594 136.398 148.774 137.589 148.945 138.69C148.984 138.921 149.024 139.14 149.056 139.361C149.078 139.583 149.111 139.803 149.156 140.022C149.226 140.372 149.286 140.712 149.323 141.042C149.404 141.463 149.491 141.853 149.554 142.233C149.738 143.194 149.978 144.143 150.273 145.076C150.353 145.336 150.441 145.635 150.533 145.976C150.603 146.256 150.683 146.577 150.763 146.907C150.783 147.047 150.823 147.187 150.843 147.337C150.903 147.608 150.963 147.897 151.023 148.198C151.403 150.12 151.805 152.582 152.182 155.364C152.362 156.625 152.533 157.926 152.703 159.287V159.297C153.222 163.301 153.712 167.694 154.142 171.917H154.152C154.172 172.128 154.192 172.338 154.222 172.548C154.232 172.638 154.242 172.715 154.252 172.808C154.4 173.906 154.62 175.119 154.88 176.4Z" fill="#FFF7F1"/>
<path d="M154.881 176.4C154.821 176.45 154.751 176.5 154.691 176.54C153.702 177.22 152.702 177.883 151.692 178.532C148.347 180.673 144.887 182.628 141.326 184.386C140.167 184.957 138.997 185.505 137.827 186.038C134.698 187.449 131.506 188.707 128.251 189.81C127.921 187.749 127.631 186.048 127.471 185.257V185.247C127.212 184.036 126.952 182.745 126.662 181.424C125.842 177.47 124.962 173.127 124.043 168.694C123.893 167.933 123.743 167.162 123.583 166.392C123.483 165.881 123.383 165.381 123.283 164.87V164.86C121.973 158.356 120.694 151.89 119.694 146.476C119.424 145.115 119.204 143.814 118.985 142.603V142.593C118.805 141.592 118.644 140.651 118.495 139.78C118.073 137.578 117.779 135.352 117.615 133.115C117.706 131.265 117.92 129.422 118.255 127.6C118.367 126.92 118.485 126.19 118.615 125.429C118.745 124.668 118.894 123.868 119.045 123.027C119.334 121.356 119.694 119.564 120.044 117.692C120.156 117.122 120.264 116.552 120.384 115.971C120.831 113.689 121.304 111.328 121.794 108.966C121.924 108.385 122.044 107.785 122.163 107.204C122.303 106.573 122.433 105.953 122.563 105.333C122.703 104.642 122.853 103.952 122.993 103.271V103.261C123.043 103.001 123.105 102.74 123.153 102.477C124.263 97.3309 125.292 92.6319 126.022 89.3572V89.3471C126.032 89.337 126.032 89.337 126.032 89.3169C126.262 89.4288 126.502 89.5468 126.742 89.6671C128.083 90.3479 129.511 91.1182 130.95 91.969C132.13 92.6694 133.329 93.4201 134.479 94.2207C134.789 94.431 135.088 94.6508 135.388 94.8712C135.958 95.2819 136.488 95.6824 137.009 96.1126C138.092 96.9891 139.099 97.9566 140.017 99.0047C140.057 99.0646 140.107 99.1166 140.147 99.1652C140.247 99.2771 140.337 99.3851 140.437 99.5149C140.527 99.6352 140.605 99.7453 140.697 99.8757C141.094 100.484 141.449 101.12 141.758 101.778C141.828 101.938 141.908 102.108 141.998 102.288C142.288 102.959 142.557 103.689 142.827 104.47C142.908 104.7 142.995 104.93 143.058 105.17C143.277 105.811 143.478 106.491 143.667 107.202C143.738 107.442 143.807 107.682 143.857 107.932C143.969 108.313 144.057 108.693 144.157 109.084C144.227 109.363 144.287 109.643 144.357 109.934C144.525 110.615 144.687 111.325 144.827 112.036C145.087 113.287 145.347 114.588 145.576 115.909C146.107 118.841 146.576 121.895 147.006 124.886L147.216 126.388C147.446 128.038 147.656 129.65 147.866 131.211V131.221C147.896 131.431 147.926 131.632 147.956 131.842C148.025 132.312 148.086 132.763 148.145 133.223C148.186 133.543 148.236 133.874 148.286 134.194C148.325 134.514 148.366 134.834 148.415 135.145C148.595 136.395 148.775 137.586 148.946 138.687C148.985 138.918 149.025 139.138 149.057 139.359C149.087 139.589 149.117 139.806 149.157 140.019C149.227 140.369 149.287 140.709 149.324 141.04C149.405 141.46 149.492 141.85 149.555 142.231C149.739 143.191 149.979 144.14 150.274 145.073C150.354 145.333 150.442 145.632 150.534 145.974C150.604 146.253 150.684 146.574 150.764 146.904C150.784 147.044 150.824 147.184 150.844 147.335C150.904 147.605 150.964 147.894 151.024 148.196C151.404 150.117 151.806 152.579 152.183 155.362C152.363 156.622 152.534 157.924 152.704 159.284V159.294C153.223 163.298 153.713 167.691 154.143 171.914C154.163 172.125 154.193 172.335 154.223 172.545C154.233 172.635 154.243 172.713 154.253 172.805C154.401 173.906 154.621 175.119 154.881 176.4Z" fill="#FF9500"/>
<path d="M154.251 172.807C154.241 172.717 154.231 172.639 154.221 172.547C154.191 172.337 154.171 172.126 154.151 171.916H154.141C154.112 171.923 154.084 171.937 154.061 171.956C153.032 167.923 151.982 163.896 150.912 159.877C151.512 159.676 152.102 159.485 152.7 159.286C152.533 157.925 152.36 156.624 152.18 155.363C151.43 155.623 150.661 155.863 149.911 156.113C148.16 149.608 146.368 143.11 144.533 136.618L148.411 135.147C148.362 134.836 148.321 134.516 148.282 134.196C148.232 133.876 148.182 133.545 148.142 133.225C148.082 132.765 148.021 132.315 147.952 131.844C147.932 131.634 147.902 131.424 147.872 131.214H147.862V131.223C146.393 131.764 144.933 132.334 143.464 132.885C142.086 128.101 140.679 123.324 139.245 118.553L145.572 115.911C145.343 114.59 145.083 113.289 144.823 112.038C142.584 112.97 140.348 113.901 138.115 114.83C137.496 112.788 136.886 110.747 136.257 108.715C135.546 106.384 134.797 104.062 134.067 101.73C136.046 100.819 138.026 99.9182 140.015 99.0075C139.096 97.9594 138.09 96.9919 137.006 96.1154C135.636 96.7559 134.269 97.3763 132.887 98.0067C132.258 96.0052 131.608 93.9734 130.949 91.9718C129.509 91.121 128.079 90.3496 126.74 89.6699C126.5 89.5496 126.26 89.4299 126.03 89.3096V89.3197C126.03 89.3398 126.03 89.3398 126.02 89.3499V89.36C127.138 92.7824 128.241 96.2084 129.329 99.638L123.151 102.48C123.102 102.74 123.04 103.001 122.991 103.263V103.274C122.851 103.954 122.702 104.645 122.562 105.336L122.171 107.197C122.641 106.987 123.1 106.766 123.568 106.557C125.877 105.485 128.196 104.425 130.505 103.364C131.865 107.677 133.214 112.011 134.514 116.334C131.445 117.645 128.396 118.963 125.337 120.287C125.157 120.358 124.977 120.438 124.797 120.518C124.63 119.877 124.458 119.246 124.288 118.596C123.458 115.394 122.638 112.163 121.789 108.968C121.299 111.33 120.829 113.692 120.379 115.974C120.269 116.554 120.159 117.125 120.049 117.686C120.419 119.157 120.809 120.618 121.179 122.079C120.469 122.389 119.75 122.719 119.039 123.03C118.88 123.869 118.74 124.671 118.61 125.432C118.48 126.193 118.36 126.924 118.25 127.604C119.549 127.023 120.859 126.433 122.168 125.862C122.438 126.893 122.698 127.924 122.968 128.955C123.908 132.588 124.844 136.214 125.777 139.834C123.498 140.754 121.251 141.666 118.98 142.596H118.97C119.19 143.817 119.417 145.118 119.679 146.479H119.689C122.048 145.498 124.407 144.548 126.767 143.597L131.565 162.142C128.796 163.052 126.033 163.96 123.278 164.864H123.268C123.368 165.374 123.478 165.885 123.578 166.395C123.738 167.156 123.888 167.926 124.048 168.689L132.554 165.906L135.773 178.377C132.744 179.408 129.705 180.438 126.657 181.429C126.947 182.75 127.207 184.041 127.466 185.252C130.555 184.231 133.654 183.182 136.742 182.13C136.982 183.04 137.361 184.432 137.821 186.043C138.991 185.513 140.161 184.962 141.32 184.391C140.96 182.98 140.66 181.749 140.43 180.878C144.069 179.617 147.704 178.343 151.336 177.055C151.448 177.496 151.566 177.996 151.686 178.537C152.696 177.886 153.698 177.225 154.685 176.545C154.531 175.259 154.381 173.998 154.251 172.807ZM125.782 124.306C129.06 122.865 132.349 121.448 135.648 120.055C137.058 124.798 138.457 129.542 139.816 134.286C136.348 135.637 132.88 136.988 129.42 138.37C128.201 133.676 126.988 128.989 125.782 124.308V124.306ZM135.28 160.926L130.413 142.13C133.891 140.739 137.39 139.378 140.899 138.017C142.718 144.431 144.494 150.87 146.227 157.332C142.576 158.525 138.927 159.723 135.278 160.928L135.28 160.926ZM139.471 177.099C138.401 172.965 137.328 168.829 136.252 164.689L147.238 161.076C148.228 164.819 149.204 168.569 150.166 172.325C150.247 172.635 150.316 172.945 150.397 173.255C146.756 174.558 143.112 175.839 139.467 177.101L139.471 177.099Z" fill="#FF7500"/>
<path d="M26.9217 72.4156V48.1373C26.9217 47.062 26.4951 46.0308 25.7356 45.2705C24.9762 44.5102 23.9462 44.083 22.8722 44.083C21.7982 44.083 20.7682 44.5102 20.0088 45.2705C19.2494 46.0308 18.8227 47.062 18.8227 48.1373V72.4156C16.9023 73.335 15.351 74.8807 14.4234 76.799C13.4958 78.7173 13.247 80.8942 13.7178 82.9727C14.1887 85.0512 15.3512 86.9078 17.0146 88.2377C18.678 89.5677 20.7435 90.2921 22.8722 90.2921C25.001 90.2921 27.0665 89.5677 28.7299 88.2377C30.3933 86.9078 31.5558 85.0512 32.0266 82.9727C32.4974 80.8942 32.2487 78.7173 31.3211 76.799C30.3935 74.8807 28.8422 73.335 26.9217 72.4156Z" fill="#FFF7F1"/>
<path d="M28.9505 81.0092C28.9518 82.1557 28.6293 83.2793 28.0201 84.2502C27.4109 85.2211 26.54 85.9997 25.5077 86.4962C24.4755 86.9928 23.324 87.1869 22.1863 87.0563C21.0485 86.9257 19.9709 86.4756 19.0777 85.758C18.1845 85.0405 17.5122 84.0846 17.1383 83.0009C16.7645 81.9171 16.7044 80.7496 16.9649 79.6331C17.2254 78.5166 17.796 77.4966 18.6107 76.6909C19.4255 75.8852 20.4512 75.3265 21.5695 75.0794V48.0953C21.5695 47.7489 21.7069 47.4167 21.9516 47.1717C22.1963 46.9267 22.5281 46.7891 22.8742 46.7891C23.2202 46.7891 23.552 46.9267 23.7967 47.1717C24.0414 47.4167 24.1788 47.7489 24.1788 48.0953V75.08C25.5295 75.3768 26.7387 76.1262 27.6063 77.2043C28.474 78.2824 28.9481 79.6246 28.9505 81.0092Z" fill="#BDBDBD"/>
<path d="M24.1789 75.0789V57.3658H21.5695V75.0789C20.1065 75.4009 18.8139 76.2526 17.9398 77.4705C17.0656 78.6883 16.6716 80.1866 16.8334 81.6775C16.9952 83.1685 17.7013 84.547 18.8162 85.5486C19.9311 86.5502 21.3763 87.1041 22.8742 87.1041C24.3721 87.1041 25.8173 86.5502 26.9322 85.5486C28.0471 84.547 28.7532 83.1685 28.915 81.6775C29.0767 80.1866 28.6827 78.6883 27.8086 77.4705C26.9345 76.2526 25.6418 75.4009 24.1789 75.0789Z" fill="#EF5350"/>
<path d="M38.6219 43.1731H32.2617V44.9962H38.6219V43.1731Z" fill="#FFA600"/>
<path d="M38.6219 48.544H32.2617V50.3671H38.6219V48.544Z" fill="#FFA600"/>
<path d="M38.6219 53.9143H32.2617V55.7374H38.6219V53.9143Z" fill="#FFA600"/>
<path d="M38.6219 59.2852H32.2617V61.1083H38.6219V59.2852Z" fill="#FFA600"/>
</svg>
