<svg width="32" height="32" viewBox="0 0 32 32" fill="none" xmlns="http://www.w3.org/2000/svg">
<path d="M31.4521 5.72363C31.1609 2.99463 29.0056 0.838867 26.2764 0.547852C19.4321 -0.182617 12.5679 -0.182617 5.72388 0.547852C2.99463 0.839111 0.839111 2.99463 0.547852 5.72363C-0.182617 12.5676 -0.182617 19.4321 0.547852 26.2761C0.839111 29.0054 2.99463 31.1609 5.72363 31.4521C12.5676 32.1826 19.4321 32.1826 26.2764 31.4521C29.0056 31.1609 31.1609 29.0054 31.4521 26.2761C32.1826 19.4321 32.1826 12.5679 31.4521 5.72363Z" fill="#757575"/>
<path d="M29.7117 6.88123C29.4534 4.45959 27.5408 2.54675 25.1189 2.28821C19.0457 1.64026 12.9543 1.64026 6.8811 2.28821C4.45947 2.54675 2.54663 4.45959 2.28809 6.88123C1.64014 12.9545 1.64014 19.0458 2.28809 25.1188C2.54663 27.5406 4.45947 29.4535 6.8811 29.7118C12.9543 30.36 19.0457 30.36 25.1187 29.7118C27.5405 29.4535 29.4534 27.5406 29.7117 25.1188C30.3599 19.0458 30.3599 12.9545 29.7117 6.88123Z" fill="#757575"/>
<path d="M5.94312 12.1191C6.00977 11.6484 6.06055 11.175 6.14526 10.7077C6.62549 8.06099 8.49927 6.26021 11.1785 6.16792C14.4043 6.05708 17.6399 6.05123 20.8652 6.16744C23.7812 6.27242 25.8931 8.4316 25.9841 11.3486C26.0811 14.446 26.0811 17.551 25.9841 20.6484C25.8931 23.5654 23.782 25.7243 20.8655 25.8295C17.6401 25.946 14.4038 25.9489 11.1787 25.8278C8.26221 25.7182 6.24609 23.5542 6.05103 20.6328C6.03418 20.3801 5.97998 20.1296 5.94312 19.8781C5.94312 17.2917 5.94312 14.7053 5.94312 12.1191ZM16.0027 24.1008C17.4788 24.1008 18.9563 24.145 20.4304 24.0905C22.7417 24.0048 24.1633 22.6254 24.2173 20.3164C24.2842 17.4392 24.2842 14.5581 24.2173 11.6806C24.1633 9.37203 22.7407 7.9604 20.4304 7.91133C17.498 7.84932 14.5625 7.84981 11.6301 7.91133C9.3374 7.95943 7.91162 9.34248 7.84937 11.6257C7.77026 14.5393 7.77026 17.458 7.84937 20.3715C7.91162 22.6545 9.3374 24.0056 11.6304 24.0905C13.0859 24.1447 14.5452 24.1008 16.0027 24.1008Z" fill="#757575"/>
<path d="M5.94312 12.1191C6.00977 11.6484 6.06055 11.175 6.14526 10.7077C6.62549 8.06099 8.49927 6.26021 11.1785 6.16792C14.4043 6.05708 17.6399 6.05123 20.8652 6.16744C23.7812 6.27242 25.8931 8.4316 25.9841 11.3486C26.0811 14.446 26.0811 17.551 25.9841 20.6484C25.8931 23.5654 23.782 25.7243 20.8655 25.8295C17.6401 25.946 14.4038 25.9489 11.1787 25.8278C8.26221 25.7182 6.24609 23.5542 6.05103 20.6328C6.03418 20.3801 5.97998 20.1296 5.94312 19.8781C5.94312 17.2917 5.94312 14.7053 5.94312 12.1191ZM16.0027 24.1008C17.4788 24.1008 18.9563 24.145 20.4304 24.0905C22.7417 24.0048 24.1633 22.6254 24.2173 20.3164C24.2842 17.4392 24.2842 14.5581 24.2173 11.6806C24.1633 9.37203 22.7407 7.9604 20.4304 7.91133C17.498 7.84932 14.5625 7.84981 11.6301 7.91133C9.3374 7.95943 7.91162 9.34248 7.84937 11.6257C7.77026 14.5393 7.77026 17.458 7.84937 20.3715C7.91162 22.6545 9.3374 24.0056 11.6304 24.0905C13.0859 24.1447 14.5452 24.1008 16.0027 24.1008Z" fill="white"/>
<path d="M16 10.875C13.1694 10.875 10.8745 13.1697 10.8745 16.0002C10.8745 18.8311 13.1694 21.1257 16 21.1257C18.8308 21.1257 21.1255 18.8311 21.1255 16.0002C21.1255 13.1697 18.8308 10.875 16 10.875ZM16 19.3611C14.1438 19.3611 12.6392 17.8564 12.6392 16.0002C12.6392 14.144 14.1438 12.6394 16 12.6394C17.8562 12.6394 19.3608 14.144 19.3608 16.0002C19.3608 17.8564 17.8562 19.3611 16 19.3611Z" fill="white"/>
<path d="M22.644 10.6414C22.644 11.3147 22.0981 11.8606 21.4248 11.8606C20.7515 11.8606 20.2053 11.3147 20.2053 10.6414C20.2053 9.96777 20.7515 9.42188 21.4248 9.42188C22.0981 9.42188 22.644 9.96777 22.644 10.6414Z" fill="white"/>
</svg>
