<svg width="40" height="40" viewBox="0 0 40 40" fill="none"
  xmlns="http://www.w3.org/2000/svg">
  <g clip-path="url(#clip0)">
    <path d="M35.3199 27.6924C32.8527 24.3396 29.3939 21.9542 25.3973 20.7991C27.4717 19.0161 28.4414 16.5042 28.2871 13.6496H32.4685V11.2828H29.7739L29.3009 8.04316C28.7154 3.52975 24.5502 -0.0718867 19.9994 0.00108968C15.4527 -0.0715711 11.289 3.52415 10.6996 8.03338C10.6996 8.0333 10.2217 11.2828 10.2217 11.2828H6.90699V13.6496H11.7195C11.5646 16.5043 12.5365 19.019 14.6107 20.8003C6.17059 23.1627 0.537602 31.2887 1.03211 40H38.9799C39.1605 35.5845 37.9811 31.2474 35.3199 27.6924ZM13.0412 8.37775C13.832 2.91407 20.4333 0.461511 24.5995 4.08075C26.9679 6.13095 26.9514 8.44505 27.382 11.2828H12.614L13.0412 8.37775ZM14.0863 14.5174V13.6496H25.9203V14.5174C25.9203 17.78 23.2659 20.4344 20.0033 20.4344C16.7407 20.4344 14.0863 17.78 14.0863 14.5174ZM22.3899 22.4502L19.9996 25.476L17.5633 22.4343C19.0753 22.9149 20.8735 22.921 22.3899 22.4502ZM3.44072 37.6332C3.83795 30.9968 8.68067 24.9563 15.088 23.1299L20.0123 29.278L24.8799 23.1164C29.4302 24.4352 33.2512 27.7933 35.1812 32.1105H29.7072V34.4773H36.0329C36.314 35.5028 36.4948 36.5582 36.5712 37.6331H3.44072V37.6332Z" fill="#008444"/>
  </g>
  <defs>
    <clipPath id="clip0">
      <rect width="40" height="40" fill="white"/>
    </clipPath>
  </defs>
</svg>
