<svg width="181" height="200" viewBox="0 0 181 200" fill="none" xmlns="http://www.w3.org/2000/svg">
<g clip-path="url(#clip0)">
<path d="M90.8383 202.914C43.9649 202.914 5.96655 164.952 5.96655 118.124C5.96655 71.2953 43.9649 33.3333 90.8383 33.3333C137.712 33.3333 175.71 71.2953 175.71 118.124C175.71 164.952 137.712 202.914 90.8383 202.914Z" fill="#E3F2FD"/>
<path d="M161.921 151.392C161.666 153.656 152.965 152.96 151.43 153.048C149.894 153.136 57.2606 162.778 48.819 163.557L40.3724 164.341C40.3724 164.341 36.0244 168.511 33.7208 168.511C31.4172 168.511 32.6986 161.759 33.2073 157.58C33.2904 156.889 33.1192 155.003 32.7671 152.274C32.7231 151.912 32.6742 151.539 32.6204 151.152C31.8818 145.631 30.5613 137.321 29.1967 128.581L29.0109 127.375C28.1061 121.575 27.1915 115.632 26.4285 110.233L26.228 108.807C25.2645 101.899 24.5749 96.0146 24.5064 92.6781C24.4868 91.7276 24.4722 90.8653 24.4575 90.0863L24.4281 88.4793C24.3743 84.8783 24.389 83.5016 24.4233 83.0508C23.6065 81.8064 17.1212 71.8313 17.6005 69.4355C18.1091 66.878 28.8593 71.5667 28.8593 71.5667C28.8593 71.5667 55.2162 57.4957 93.5998 57.236C131.983 56.9764 146.822 61.1457 146.822 61.1457C146.822 61.1457 151.938 57.4957 156.8 55.9328C161.661 54.3699 158.595 66.6183 156.8 68.4409L155.01 70.2635C155.01 70.2635 155.137 72.4829 155.318 76.1084C155.337 76.4318 155.352 76.7649 155.367 77.1128C155.499 79.6556 155.65 82.7765 155.807 86.2403C155.822 86.5686 155.836 86.9018 155.851 87.2349C156.149 93.805 156.453 101.477 156.648 108.748C156.658 109.101 156.668 109.444 156.673 109.792C156.81 115.176 156.883 120.291 156.839 124.519C156.839 124.867 156.834 125.21 156.829 125.543C156.77 129.433 156.609 132.466 156.291 134.112C154.501 143.494 155.523 142.74 155.523 142.74C155.523 142.74 162.175 149.126 161.921 151.392Z" fill="#1E88E5"/>
<path d="M155.365 77.1128C151.189 78.3997 146.91 79.3258 142.576 79.8809C129.532 81.4487 116.429 78.6463 103.762 75.9369C95.4668 74.1634 86.8931 72.331 78.383 71.7284C69.877 71.1974 61.3383 71.6644 52.9406 73.1198C47.7905 73.9723 41.8334 75.251 36.6833 78.2642C31.6408 81.2087 27.7036 85.6083 24.4561 90.0863L24.4268 88.4793C27.5912 84.2708 31.3963 80.219 36.1893 77.4166C41.4764 74.3251 47.5411 73.0218 52.7792 72.1546C61.2545 70.687 69.8718 70.2151 78.4563 70.7485C87.03 71.356 95.638 73.1982 103.967 74.9767C116.556 77.6713 129.576 80.4542 142.458 78.906C146.816 78.3418 151.118 77.4059 155.317 76.1084L155.365 77.1128Z" fill="#FFE2DA"/>
<path d="M155.85 87.2349C151.637 88.1081 147.379 88.7379 143.094 89.1212C129.502 90.5224 118.517 91.0809 108.535 90.8801C103.84 90.787 99.0762 90.5175 94.469 90.2529C88.6831 89.9247 82.7162 89.6013 76.8276 89.5964C64.214 89.6111 54.3931 91.2671 45.9124 94.8143C37.6712 98.2585 30.8289 103.716 26.4271 110.233L26.2266 108.807C30.7457 102.521 37.4903 97.2688 45.5358 93.9079C54.1388 90.3117 64.082 88.6312 76.8227 88.6165C82.7407 88.6214 88.7271 88.9497 94.5228 89.278C99.1202 89.5376 103.874 89.8071 108.555 89.9002C118.498 90.0962 129.444 89.5425 142.996 88.1462C147.299 87.7606 151.576 87.1242 155.806 86.2404L155.85 87.2349Z" fill="#FFE2DA"/>
<path d="M156.671 109.792C148.152 113.069 138.208 114.965 126.925 115.45C117.95 115.833 108.839 115.372 100.025 114.931C93.4373 114.603 86.6243 114.245 79.9238 114.27C60.7271 114.309 46.3919 117.484 34.8103 124.259C32.746 125.429 30.856 126.884 29.1956 128.581L29.0098 127.375C30.6094 125.841 32.3917 124.51 34.3164 123.412C46.0545 116.548 60.5462 113.329 79.9238 113.29C86.639 113.255 93.4715 113.623 100.074 113.951C108.868 114.392 117.955 114.853 126.881 114.471C138.204 113.985 148.156 112.07 156.647 108.748L156.671 109.792Z" fill="#FFE2DA"/>
<path d="M156.839 124.519C156.839 124.867 156.834 125.21 156.829 125.543C142.65 129.766 127.86 131.021 113.853 131.932C111.97 132.054 110.082 132.174 108.189 132.29C94.7099 133.122 80.7659 133.985 67.4138 136.988C53.514 140.109 41.903 145.239 32.7668 152.274C32.7228 151.912 32.6739 151.539 32.6201 151.152C41.8003 144.205 53.3868 139.134 67.1986 136.033C80.629 133.015 94.6071 132.147 108.13 131.31C110.018 131.192 111.906 131.079 113.794 130.957C127.836 130.041 142.665 128.782 156.839 124.519Z" fill="#FFE2DA"/>
<path d="M17.7522 69.1023C19.5187 73.1296 21.9918 76.8068 25.0543 79.9593L25.2157 80.121C25.8396 80.6922 26.3651 81.3626 26.771 82.1053C27.4215 83.4575 27.2454 84.9861 27.0791 86.4657L27.0547 86.6666C26.0423 95.6079 27.4166 104.735 28.742 113.559L28.9377 114.843C30.7962 127.258 32.4346 139.879 33.8041 152.357C34.1513 155.527 34.5475 159.118 33.9899 162.602C33.9166 163.067 33.8285 163.543 33.7405 164.028C33.4262 165.46 33.259 166.921 33.2416 168.388C33.2206 169.04 33.3311 169.689 33.5664 170.297C33.8017 170.904 34.157 171.458 34.6111 171.925L34.2736 172.278C33.0509 171.097 32.7183 169.51 32.7574 167.825C32.8259 166.519 32.9943 165.22 33.2612 163.939C33.3492 163.459 33.4373 162.984 33.5106 162.524C34.0535 159.104 33.6623 155.547 33.3199 152.411C31.9456 139.937 30.312 127.322 28.4535 114.916L28.2578 113.633C26.9275 104.775 25.5532 95.6177 26.5705 86.6078L26.59 86.4069C26.7514 85.0008 26.9177 83.5457 26.3308 82.3159C25.9446 81.6234 25.4491 80.998 24.8636 80.464L24.7022 80.2974C21.7629 77.2717 19.3583 73.7678 17.5908 69.9352L17.7522 69.1023Z" fill="#5B5F97"/>
<path d="M122.481 165.384C95.961 164.706 69.4243 165.316 42.9019 165.926C34.4132 166.121 25.8719 166.322 17.5509 167.91C12.9781 168.783 8.50584 170.069 4.19661 171.75C3.07375 172.188 1.90377 172.698 1.2234 173.644C0.0949982 175.214 0.797078 177.488 2.30562 178.745C3.81417 180.002 5.89454 180.448 7.89915 180.657C16.8188 181.588 26.4068 178.799 34.5227 182.396L21.3098 185.687C19.9435 186.027 18.4539 186.448 17.683 187.561C16.7846 188.857 17.2553 190.68 18.3647 191.823C19.4742 192.965 21.0733 193.565 22.6433 194.034C30.9957 196.518 39.9463 196.24 48.7075 196.253C83.7236 196.305 119.277 201.339 153.429 194.077C154.55 193.839 155.729 193.557 156.543 192.794C158.249 191.198 157.445 188.368 155.823 186.696C154.201 185.024 151.955 183.964 150.377 182.254C150.097 181.994 149.907 181.66 149.833 181.296C149.711 180.216 151.24 179.75 152.394 179.67C160.955 179.073 169.694 178.228 177.472 174.817C178.739 174.261 180.081 173.526 180.525 172.281C181.034 170.856 180.11 169.258 178.781 168.421C177.452 167.585 175.813 167.332 174.229 167.118C154.604 164.466 134.688 164.304 115.017 166.636" fill="#FAFAFA"/>
<path d="M143.613 188.634L78.9229 175.304L110.273 142.053L127.196 134.369L147.476 140.142L150.81 153.165L150.56 168.572L144.87 182.354L143.613 188.634Z" fill="#121259"/>
<path d="M57.1533 151.505C64.1698 151.659 70.2907 156.466 76.7359 159.548C87.3027 164.598 99.7592 164.986 110.287 159.832C113.473 158.272 116.45 156.243 119.42 154.22L142.954 138.18C144.825 136.906 146.857 135.391 147.366 133.02C147.953 130.288 146.198 127.546 144.076 126.014C140.555 123.473 136.128 123.198 131.93 123.001C127.415 122.789 122.497 122.707 118.882 125.716C117.931 126.507 117.111 127.486 116.117 128.211C114.874 129.027 113.508 129.639 112.072 130.024C106.429 131.856 100.753 133.691 94.9251 134.649C89.4556 135.548 83.5734 134.046 78.2599 135.286C74.6729 136.124 72.4398 139.389 69.6549 141.769C66.8964 144.129 57.8395 147.552 57.1533 151.505Z" fill="#1976D2"/>
<path d="M50.6589 181.279C54.2337 183.64 58.5934 184.419 62.8274 185.059C80.479 187.726 98.3229 188.905 116.171 188.582C117.296 184.1 119.555 179.984 122.73 176.631C122.525 176.847 103.415 163.694 101.55 162.56C94.2792 158.139 86.7302 154.128 78.7712 151.088C72.8352 148.821 64.2165 145.062 57.716 146.574C51.7339 147.967 46.153 155.145 44.2925 160.65C41.8368 167.916 44.0792 176.932 50.6589 181.279Z" fill="#1E88E5"/>
<path d="M79.375 151.337C87.6518 154.321 95.8758 158.301 102.949 163.542" stroke="#121259" stroke-linecap="round" stroke-linejoin="round"/>
<path d="M113.613 176.277C113.732 175.961 113.889 175.662 114.082 175.385C114.217 175.189 114.39 175.023 114.591 174.895C115.032 174.682 115.521 174.587 116.009 174.619C117.472 174.599 118.938 174.631 120.395 174.729C122.076 174.84 123.748 175.032 125.411 175.306C127.094 175.577 128.767 175.934 130.418 176.371C130.858 176.489 131.298 176.607 131.738 176.736C133.338 177.163 134.879 177.785 136.327 178.587C136.769 178.839 137.191 179.124 137.59 179.44C139.508 180.943 140.807 183.075 142.069 185.161C142.285 185.469 142.434 185.82 142.505 186.19C142.517 186.564 142.412 186.933 142.205 187.246C141.998 187.558 141.698 187.798 141.349 187.932C140.647 188.189 139.9 188.297 139.155 188.247C138.216 188.247 137.272 188.247 136.334 188.25C135.703 188.25 135.07 188.253 134.439 188.25C132.41 188.25 130.375 188.25 128.346 188.255C125.016 188.257 121.683 188.259 118.349 188.259C117.495 188.259 116.23 188.459 115.088 188.489C114.461 188.534 113.831 188.456 113.234 188.26C111.935 187.73 112.1 186.37 112.051 184.969C112.036 184.585 112.034 184.201 112.045 183.816C112.1 181.228 112.631 178.672 113.613 176.277Z" fill="#FF9500"/>
<path d="M136.324 178.585C136.766 178.837 137.189 179.122 137.587 179.438C139.506 180.941 140.805 183.073 142.066 185.159C142.282 185.467 142.431 185.818 142.502 186.188C142.514 186.562 142.409 186.931 142.202 187.244C141.995 187.556 141.696 187.796 141.346 187.93C140.645 188.187 139.897 188.295 139.152 188.245C138.213 188.245 137.27 188.245 136.331 188.248C136.349 186.754 137.252 184.872 137.244 183.737C137.16 182.757 136.941 181.794 136.593 180.874C136.343 180.139 136.251 179.359 136.324 178.585Z" fill="#FFC800"/>
<path d="M124.591 176.436C124.775 176.002 125.056 175.614 125.411 175.304C127.094 175.576 128.766 175.932 130.417 176.369C130.637 176.852 130.732 177.382 130.695 177.912C130.658 178.441 130.49 178.953 130.206 179.4C129.922 179.848 129.53 180.218 129.068 180.476C128.605 180.734 128.085 180.872 127.556 180.879C127.026 180.885 126.503 180.758 126.035 180.511C125.566 180.264 125.166 179.903 124.872 179.462C124.578 179.021 124.398 178.513 124.349 177.985C124.3 177.456 124.383 176.924 124.591 176.436Z" fill="#FFC800"/>
<path d="M128.464 186.083C128.776 185.324 129.369 184.716 130.118 184.384C130.867 184.053 131.716 184.023 132.486 184.303C133.256 184.583 133.889 185.149 134.252 185.885C134.616 186.62 134.681 187.468 134.436 188.251C132.407 188.251 130.372 188.251 128.343 188.255C128.127 187.539 128.169 186.77 128.464 186.083Z" fill="#FFC800"/>
<path d="M120.461 186.132C119.881 185.885 119.388 185.471 119.043 184.942C118.699 184.414 118.518 183.795 118.525 183.164C118.531 182.533 118.724 181.918 119.08 181.397C119.435 180.876 119.937 180.472 120.521 180.236C121.106 180.001 121.747 179.944 122.363 180.074C122.98 180.203 123.544 180.513 123.985 180.964C124.426 181.415 124.724 181.986 124.84 182.606C124.957 183.227 124.887 183.868 124.64 184.448C124.309 185.227 123.682 185.841 122.899 186.157C122.115 186.473 121.238 186.464 120.461 186.132Z" fill="#FFC800"/>
<path d="M112.04 183.817C112.545 183.776 113.053 183.859 113.519 184.059C113.904 184.223 114.252 184.462 114.545 184.761C114.838 185.06 115.069 185.414 115.225 185.803C115.382 186.192 115.46 186.608 115.455 187.027C115.451 187.446 115.364 187.86 115.2 188.246C115.165 188.327 115.123 188.411 115.083 188.491C114.456 188.535 113.827 188.457 113.229 188.261C111.93 187.732 112.095 186.371 112.047 184.97C112.033 184.586 112.03 184.201 112.04 183.817Z" fill="#FFC800"/>
<path d="M114.081 175.387C114.216 175.191 114.389 175.025 114.59 174.897C115.031 174.684 115.519 174.589 116.008 174.621C117.471 174.6 118.937 174.633 120.394 174.731C120.504 175.337 120.433 175.963 120.19 176.529C119.906 177.197 119.404 177.748 118.765 178.091C118.127 178.434 117.39 178.549 116.678 178.416C115.966 178.283 115.32 177.911 114.847 177.36C114.375 176.81 114.104 176.114 114.08 175.389L114.081 175.387Z" fill="#FFC800"/>
<path d="M99.8808 66.0976C99.8995 66.3882 99.9753 66.6722 100.104 66.9334C100.415 67.4591 101.106 67.5919 101.714 67.6394C103.473 67.7749 105.242 67.6332 106.957 67.2195C105.735 65.9947 103.966 65.665 102.383 65.1476C101.974 65.0205 101.572 64.8707 101.179 64.6988C100.871 64.5582 100.452 64.1599 100.133 64.104C99.0596 63.9203 99.7957 65.4994 99.8808 66.0976Z" fill="#121259"/>
<path d="M70.1665 73.039C70.8737 71.2531 78.5612 68.4502 89.0781 68.2253C99.5949 68.0004 112.976 65.9486 115.526 68.2253C118.076 70.5021 118.47 123.291 117.399 126.793C116.328 130.296 104.096 139.552 92.9786 139.052C81.8611 138.552 75.2941 138.802 72.5836 127.043C69.8731 115.285 70.1665 73.039 70.1665 73.039Z" fill="#16A75C"/>
<path d="M111.759 79.2984C113.8 83.1279 115.352 87.2 116.376 91.4185C116.691 92.7178 116.954 94.0925 116.584 95.3772" stroke="#121259" stroke-width="0.2" stroke-linecap="round" stroke-linejoin="round"/>
<path d="M80.9062 4.63194C81.5646 3.73046 82.7183 3.36937 83.7973 3.08815C89.9715 1.4787 96.7424 0.754087 102.565 3.36643C106.629 5.18949 109.863 8.48628 112.529 12.0589C114.135 14.2122 115.597 16.5173 117.625 18.2782C120.474 20.7528 124.423 22.158 126.232 25.4739C127.641 28.0573 127.372 31.309 126.164 33.9924C124.955 36.6758 122.917 38.8918 120.809 40.9407" stroke="#212121" stroke-width="0.5" stroke-miterlimit="10"/>
<path d="M72.495 13.4812C65.4492 16.5928 59.3288 23.2535 58.1555 30.8769C57.8693 32.7387 57.8097 34.6362 57.3671 36.4656C56.9225 38.3029 56.1032 40.0255 55.5198 41.8231C54.5442 44.9066 54.2619 48.1682 54.6931 51.3739C55.1244 54.5796 56.2585 57.65 58.0141 60.3648" stroke="#212121" stroke-width="0.5" stroke-miterlimit="10"/>
<path d="M54.1596 47.5265C53.4465 51.1838 53.2695 57.4536 55.5291 60.4152C56.6574 61.9042 58.1343 63.092 59.8294 63.8739C61.5246 64.6557 63.3857 65.0075 65.2487 64.8982" stroke="#212121" stroke-width="0.5" stroke-miterlimit="10"/>
<path d="M124.569 46.1414C124.237 46.6755 123.919 47.2046 123.611 47.7337L123.459 47.9836C122.838 49.0369 122.246 50.0707 121.635 51.0702C121.562 51.1927 121.483 51.3103 121.41 51.4327C120.547 52.8711 119.555 54.2274 118.446 55.4845C118.391 55.5533 118.333 55.6188 118.27 55.6805C117.155 56.8968 115.874 57.9491 114.465 58.8063C114.387 58.8504 114.308 58.8994 114.23 58.9435C113.469 59.3951 112.676 59.7913 111.858 60.1291C111.785 60.1668 111.71 60.1995 111.633 60.2271C111.521 60.2761 111.408 60.3202 111.296 60.3643C110.425 60.7073 109.29 61.1531 107.94 61.6626C101.876 63.9653 91.5022 67.5811 81.8085 68.7765C80.4831 68.9431 79.1625 69.0607 77.8713 69.1195L77.6219 69.1342C76.5361 69.1832 75.4699 69.1881 74.4331 69.144C74.3498 69.1456 74.2665 69.1423 74.1836 69.1342C72.8925 69.0877 71.6063 68.9501 70.3345 68.7226C70.2073 68.703 70.0851 68.6785 69.9579 68.654H69.953C67.6559 68.2508 65.4723 67.3568 63.5509 66.0329C63.4237 65.9398 63.2965 65.8516 63.1743 65.7536H63.1694L63.1645 65.7487L62.7439 65.4352C57.3003 61.3393 54.8793 57.8019 53.9452 54.7349C53.8816 54.5291 53.8229 54.3283 53.7789 54.1274V54.1225C53.628 53.5295 53.5282 52.9247 53.4805 52.3146C53.4561 52.0501 53.4414 51.7904 53.4414 51.5356C53.454 49.9527 53.6644 48.3776 54.0674 46.8469C55.0994 42.3199 58.4203 39.3852 58.1758 35.8135C57.9312 32.2419 57.6573 25.1623 63.4922 18.8029C66.6174 15.3929 69.4786 14.0162 71.4594 13.4773C71.8018 13.3842 72.1148 13.3156 72.4033 13.2666C73.0046 13.1419 73.6211 13.1072 74.2325 13.1637C74.1543 13.1539 75.1129 10.5818 75.1765 10.4446C76.0063 8.6467 77.1509 7.01226 78.5561 5.61869C78.6734 5.49621 78.7957 5.37862 78.918 5.27083L78.9229 5.26593C79.0745 5.11895 79.2261 4.98177 79.3826 4.84459C81.4058 3.09178 83.7661 1.77285 86.3179 0.969184C86.4255 0.929989 86.5282 0.895694 86.6407 0.866298H86.6456C89.8922 -0.0866186 93.3179 -0.256188 96.6425 0.37146C96.98 0.435152 97.3175 0.508644 97.6549 0.587034C98.7 0.828309 99.7265 1.14431 100.726 1.53261C104.312 2.92022 107.533 5.11244 110.141 7.94099C111.034 8.93314 111.832 10.0076 112.523 11.1501C112.626 11.3167 112.729 11.4881 112.831 11.6547C114.25 14.0162 115.448 16.5149 117.199 18.6853C118.066 19.8422 118.993 20.9526 119.977 22.012C119.978 22.012 119.979 22.0125 119.98 22.0134C119.981 22.0144 119.982 22.0156 119.982 22.0169C120.089 22.1296 120.202 22.2325 120.314 22.3354C121.146 23.0652 122.066 23.6874 123.053 24.1873C126.438 26.0001 127.841 29.3268 128.047 32.9768C128.052 33.0601 128.052 33.1483 128.057 33.2365C128.247 37.8492 126.56 42.9397 124.569 46.1414Z" fill="#212121"/>
<path d="M107.941 61.6602C101.876 63.9629 91.5023 67.5786 81.8086 68.7741C81.7016 68.6718 81.6019 68.5621 81.5103 68.4458C80.2337 66.8241 80.6984 64.4969 80.9282 62.4441C81.0847 61.0678 81.1043 59.6794 80.9869 58.2992C80.966 57.4793 80.7586 56.675 80.3805 55.9475C79.8327 55.0313 78.2578 54.5365 78.1355 53.4341C77.979 51.9643 79.7789 51.3421 80.8549 51.0432C86.4794 49.4656 91.8936 47.0894 97.6453 46.0753C98.8662 45.8081 100.125 45.76 101.362 45.9332C101.981 46.0211 102.574 46.239 103.102 46.5725C103.631 46.906 104.083 47.3476 104.429 47.8684C104.655 48.1942 104.75 48.5926 104.698 48.9855C104.603 49.3154 104.436 49.62 104.209 49.8772C102.556 52.1701 102.38 55.6192 104.267 57.726C104.962 58.505 105.877 59.0586 106.62 59.7935C107.166 60.3335 107.613 60.9653 107.941 61.6602Z" fill="#090942"/>
<path d="M73.9283 16.5982C73.9283 16.5982 73.6133 10.4426 77.7921 9.5289C81.9708 8.61516 83.0023 11.9786 83.0023 11.9786C83.0023 11.9786 81.1927 12.0766 78.4606 13.6444C76.8917 14.5365 75.3782 15.5229 73.9283 16.5982Z" fill="#090942"/>
<path d="M97.6198 72.3675C94.2549 74.1313 87.3196 72.2891 88.5962 68.2226C89.4521 65.4937 88.5962 60.2317 87.9408 57.052C87.8674 56.6944 87.7941 56.3661 87.7305 56.0673L97.7323 54.1859C97.7421 54.2986 97.7568 54.4309 97.7763 54.573C98.1202 57.8173 98.7021 61.0318 99.5175 64.1904C100.823 68.8448 100.985 70.5988 97.6198 72.3675Z" fill="#FFC1B3"/>
<path d="M97.8252 54.1681C97.8252 54.1681 97.8154 54.3199 97.7763 54.5747C97.5954 55.7212 96.7933 58.9498 93.4528 59.4937C90.6503 59.9542 88.8113 58.1953 87.9408 57.0538C87.8674 56.6961 87.7941 56.3679 87.7305 56.069L97.7323 54.1877L97.8252 54.1681Z" fill="#FF8481"/>
<path d="M97.6198 72.3675C94.2549 74.1313 87.3196 72.2891 88.5962 68.2226C89.4521 65.4937 88.5962 60.2317 87.9408 57.052C87.8674 56.6944 87.7941 56.3661 87.7305 56.0673L97.7323 54.1859C97.7421 54.2986 97.7568 54.4309 97.7763 54.573C98.1202 57.8173 98.7021 61.0318 99.5175 64.1904C100.823 68.8448 100.985 70.5988 97.6198 72.3675Z" fill="#F07F57"/>
<path d="M97.8252 54.1681C97.8252 54.1681 97.8154 54.3199 97.7763 54.5747C97.5954 55.7212 96.7933 58.9498 93.4528 59.4937C90.6503 59.9542 88.8113 58.1953 87.9408 57.0538C87.8674 56.6961 87.7941 56.3679 87.7305 56.069L97.7323 54.1877L97.8252 54.1681Z" fill="url(#paint0_linear)"/>
<path d="M110.988 37.3147C110.564 40.2738 109.562 43.1202 108.039 45.6913C106.516 48.2624 104.502 50.5078 102.113 52.2993C99.7239 54.0908 97.0058 55.3933 94.114 56.1324C91.2223 56.8715 88.2135 57.0328 85.2595 56.6069C83.0772 56.3201 80.9342 55.787 78.8715 55.0176C74.4272 53.3126 71.1571 50.3465 69.5759 45.3271C69.1718 44.0386 68.8889 42.7151 68.7308 41.3738C68.3248 38.1128 65.5028 34.3006 66.0012 30.8284C66.8691 24.8605 70.0655 19.4815 74.8887 15.8722C79.7119 12.2629 85.7678 10.7183 91.7268 11.5775C97.6858 12.4366 103.061 15.6294 106.672 20.4548C110.284 25.2802 111.836 31.3439 110.988 37.3147Z" fill="#FFC1B3"/>
<path d="M110.988 37.3147C110.564 40.2738 109.562 43.1202 108.039 45.6913C106.516 48.2624 104.502 50.5078 102.113 52.2993C99.7239 54.0908 97.0058 55.3933 94.114 56.1324C91.2223 56.8715 88.2135 57.0328 85.2595 56.6069C83.0772 56.3201 80.9342 55.787 78.8715 55.0176C74.4272 53.3126 71.1571 50.3465 69.5759 45.3271C69.1718 44.0386 68.8889 42.7151 68.7308 41.3738C68.3248 38.1128 65.5028 34.3006 66.0012 30.8284C66.8691 24.8605 70.0655 19.4815 74.8887 15.8722C79.7119 12.2629 85.7678 10.7183 91.7268 11.5775C97.6858 12.4366 103.061 15.6294 106.672 20.4548C110.284 25.2802 111.836 31.3439 110.988 37.3147Z" fill="#F4A386"/>
<path d="M108.84 30.9166C108.782 30.9166 108.723 30.9215 108.664 30.9166C109.339 32.9694 110.381 35.6543 110.743 36.5754C109.961 35.3505 106.762 31.4604 106.151 30.7206C93.4049 28.511 83.5253 8.98211 78.7567 9.36426C74.2865 9.72192 73.9441 14.9544 73.9294 16.3214C73.7876 0.991232 94.9064 -0.93422 105.177 6.16007C115.521 13.3083 111.017 30.6765 111.017 30.6765C110.3 30.8207 109.572 30.901 108.84 30.9166Z" fill="#212121"/>
<path d="M108.311 29.6888C108.311 29.6888 109.2 22.7444 115.351 24.9457C121.502 27.147 119.156 38.0079 110.422 37.253L108.311 29.6888Z" fill="#FFC1B3"/>
<path d="M108.311 29.6888C108.311 29.6888 109.2 22.7444 115.351 24.9457C121.502 27.147 119.156 38.0079 110.422 37.253L108.311 29.6888Z" fill="#F4A386"/>
<path d="M111.534 35.2158C111.534 35.2158 109.799 30.5158 110.075 29.39C110.35 28.2641 112.314 25.1211 115.203 26.1804C118.092 27.2396 117.875 31.9185 116.117 33.6054C114.359 35.2922 111.534 35.2158 111.534 35.2158Z" fill="#F07F57"/>
<path d="M111.727 35.5862C111.55 27.0613 114.216 25.2534 114.33 25.1804L114.566 25.5513L114.448 25.3661L114.568 25.5498C114.542 25.567 111.995 27.3513 112.166 35.5774L111.727 35.5862Z" fill="#212121"/>
<path d="M116.521 33.2947C115.286 30.63 112.443 30.7961 112.323 30.8029L112.292 30.3644C112.324 30.3644 115.555 30.166 116.919 33.1081L116.521 33.2947Z" fill="#212121"/>
<path d="M74.0223 14.9814C74.0174 15.099 74.0076 15.2166 73.9978 15.3293C70.8872 18.1366 67.4196 21.3163 65.5708 25.3779C63.3308 30.2969 63.5705 36.5876 66.2116 42.2121C66.4757 42.7805 66.7691 43.3537 67.0577 43.9122C67.982 45.7201 68.9407 47.5916 69.1461 49.6396C69.327 51.4376 68.9064 53.2308 68.5005 54.9701C68.3978 55.4012 68.2951 55.8324 68.207 56.2635C67.4832 59.6441 67.493 62.471 68.2315 64.9109C68.6482 66.3178 69.3659 67.6169 70.3346 68.7177C70.2074 68.6981 70.0851 68.6736 69.958 68.6491H69.9531C69.0639 67.5684 68.3988 66.3208 67.9967 64.9795C67.2484 62.5004 67.2386 59.6343 67.9674 56.2145C68.0603 55.7785 68.1581 55.3473 68.2608 54.9113C68.6619 53.1965 69.0776 51.418 68.9015 49.6641C68.7059 47.6602 67.7571 45.8132 66.8376 44.0249C66.5539 43.4664 66.2556 42.8882 65.9866 42.3199C63.321 36.6268 63.0814 30.2577 65.3459 25.2799C67.2533 21.0934 70.8432 17.8451 74.0223 14.9814Z" fill="url(#paint1_linear)"/>
<path d="M74.2134 13.2446C74.1938 13.3377 74.1792 13.4454 74.1645 13.5581C71.7533 14.9936 68.809 16.7819 66.7255 18.6535C64.3045 20.8239 62.6807 23.3079 62.0155 25.836C61.5069 27.781 61.5313 29.8485 61.5558 31.8475C61.5607 32.2884 61.5705 32.7245 61.5705 33.1605C61.5705 35.4289 61.4335 38.3832 60.3918 41.1514C59.6218 42.9974 58.6612 44.7577 57.5257 46.4035C56.3491 48.1007 55.3664 49.9249 54.5961 51.8418C54.2649 52.7759 54.0465 53.7464 53.9456 54.7324C53.882 54.5267 53.8233 54.3258 53.7793 54.1249V54.12C53.9014 53.3163 54.0979 52.5258 54.3662 51.7585C55.1445 49.8252 56.1353 47.9848 57.3203 46.2712C58.4464 44.6394 59.3988 42.8938 60.1619 41.0632C61.1939 38.3343 61.3259 35.4044 61.3259 33.1605C61.3259 32.7245 61.3161 32.2884 61.3113 31.8524C61.2868 29.8387 61.2623 27.7516 61.7808 25.7723C62.4557 23.2001 64.1088 20.6769 66.5641 18.4722C68.6769 16.5712 71.7729 14.6948 74.2134 13.2446Z" fill="url(#paint2_linear)"/>
<path d="M74.1003 14.0922C74.0905 14.1902 74.0807 14.293 74.0709 14.4008C69.932 16.954 66.5985 20.6279 64.4554 24.9982C62.2714 29.5487 61.8311 34.7441 63.218 39.5983C63.3648 40.0735 63.5311 40.5586 63.6974 41.0289C64.1466 42.1701 64.4586 43.3609 64.6266 44.5761C64.8467 46.7759 64.1229 48.9316 63.4284 51.0138C63.3208 51.3323 63.218 51.641 63.1153 51.9545C62.0247 55.3155 61.5894 58.0493 61.7459 60.5529C61.8467 62.365 62.3301 64.1351 63.1643 65.7463L62.7436 65.4327C62.0163 63.9078 61.5943 62.255 61.5013 60.5676C61.3448 58.0346 61.785 55.2714 62.8855 51.881C62.9833 51.5675 63.0909 51.2539 63.1936 50.9403C63.8832 48.8777 64.5973 46.7514 64.387 44.6006C64.218 43.4041 63.9094 42.2317 63.4675 41.1073C63.3012 40.637 63.13 40.1519 62.9833 39.6669C61.5788 34.7558 62.0244 29.4989 64.2353 24.8953C66.4257 20.424 69.8491 16.6751 74.1003 14.0922Z" fill="url(#paint3_linear)"/>
<path d="M67.2144 36.6587C67.3287 37.9644 67.5479 39.2587 67.8697 40.5292C68.6865 43.753 70.1489 47.0747 72.4721 50.9746L72.7655 51.4597C73.641 52.9246 74.5507 54.4385 74.9713 56.119C75.5435 58.4168 75.1474 60.8175 74.7708 63.1398C74.6681 63.7669 74.5605 64.4185 74.4724 65.0505C74.2751 66.4062 74.262 67.7823 74.4333 69.1415C74.35 69.1431 74.2667 69.1399 74.1839 69.1317C74.0131 67.7641 74.0295 66.3794 74.2328 65.0162C74.3159 64.3793 74.4235 63.7277 74.5262 63.1006C74.9028 60.8028 75.2941 58.4315 74.7316 56.1778C74.3257 54.5316 73.4258 53.0324 72.5552 51.5871L72.2617 51.0971C69.9288 47.1776 68.4566 43.8363 67.635 40.588C67.2378 39.0468 66.9969 37.4693 66.916 35.8797L67.2144 36.6587Z" fill="url(#paint4_linear)"/>
<path d="M78.4433 57.0058C78.3077 57.7842 78.1231 58.5533 77.8907 59.3085C77.7635 59.7494 77.6314 60.2002 77.5238 60.6509C76.9558 63.0324 76.9524 65.5141 77.5141 67.8971C77.6111 68.3099 77.7303 68.7171 77.8711 69.117L77.6217 69.1317C77.4825 68.7454 77.3666 68.3511 77.2744 67.951C76.707 65.5304 76.712 63.0104 77.2891 60.5921C77.3967 60.1365 77.5287 59.6808 77.6559 59.2399C77.8861 58.4961 78.0691 57.7384 78.2037 56.9715C78.3234 56.246 78.3184 55.5053 78.189 54.7815C78.2819 54.8207 78.37 54.855 78.458 54.8893C78.5641 55.5912 78.5591 56.3054 78.4433 57.0058Z" fill="url(#paint5_linear)"/>
<path d="M71.4594 13.4742C68.5925 14.9877 66.0435 17.0404 63.9519 19.52C61.2866 22.6912 59.6112 26.5776 59.1344 30.6955C59.017 31.8027 59.0023 32.9345 58.9828 34.027C59.0155 35.7277 58.8713 37.4272 58.5524 39.0979C58.0558 40.9371 57.345 42.7114 56.4346 44.3843L56.3661 44.5215C55.1862 46.7673 54.2075 49.1135 53.4414 51.5325C53.4414 51.7873 53.4561 52.0469 53.4805 52.3115C54.1359 49.7246 55.2804 47.2847 56.5862 44.6342L56.6547 44.4921C57.5729 42.8017 58.2903 41.0094 58.792 39.1518C59.1144 37.465 59.2603 35.7491 59.2273 34.0319C59.2469 32.9443 59.2616 31.8174 59.374 30.72C59.8486 26.6502 61.5069 22.81 64.1427 19.6768C66.4187 16.985 69.2328 14.8011 72.4033 13.2659L71.4594 13.4742Z" fill="url(#paint6_linear)"/>
<path d="M108.82 27.83L108.737 28.0554C103.816 26.7955 99.3312 24.2138 95.7667 20.5887C94.2125 18.9468 92.7604 17.2108 91.4187 15.3905C90.5139 14.2147 89.5748 12.9947 88.5918 11.8532C87.5164 10.5055 86.2156 9.35509 84.7475 8.45299C83.2752 7.55987 81.5098 7.28685 79.8371 7.69359C78.5954 8.08403 77.5107 8.86163 76.7412 9.913C76.5404 10.0164 76.3503 10.1395 76.1738 10.2805C77.0045 8.94446 78.2793 7.94507 79.7735 7.45842C81.5089 7.03382 83.3415 7.31571 84.8698 8.24232C86.3632 9.15707 87.6856 10.326 88.7776 11.6964C89.7656 12.8428 90.7046 14.0628 91.6143 15.2386C92.9497 17.0522 94.3952 18.7817 95.9428 20.4173C99.4831 24.0146 103.935 26.5774 108.82 27.83Z" fill="url(#paint7_linear)"/>
<path d="M112.185 24.5994C112.103 24.6081 112.023 24.6245 111.944 24.6483C111.742 24.1499 111.383 23.7307 110.923 23.4539C110.338 23.1178 109.709 22.8655 109.054 22.7043C108.932 22.67 108.815 22.6357 108.697 22.6014C102.828 20.8131 98.0693 16.3645 94.1908 12.249L93.7213 11.7542C91.7747 9.67684 89.7597 7.53581 87.2115 6.27177C84.5084 4.97997 81.4212 4.74584 78.5547 5.61526C78.6721 5.49277 78.7943 5.37518 78.9166 5.2674L78.9215 5.2625C81.7255 4.51966 84.7018 4.79923 87.3191 6.0513C89.9064 7.33494 91.9361 9.49556 93.9023 11.5876L94.3669 12.0824C98.2258 16.1734 102.955 20.5926 108.771 22.3662L109.123 22.4691C109.8 22.6355 110.451 22.8978 111.055 23.2481C111.569 23.5629 111.966 24.0374 112.185 24.5994Z" fill="url(#paint8_linear)"/>
<path d="M123.61 47.7312C123.473 47.4618 123.336 47.1923 123.204 46.9228C122.346 45.3999 121.69 43.7709 121.253 42.0774C120.808 39.9706 121.057 37.7708 121.302 35.6445C121.565 33.9021 121.646 32.1368 121.541 30.3777C121.16 26.2181 118.715 22.0585 114.279 18.0214C109.754 13.9011 104.355 10.7018 99.2146 7.77685C95.0769 5.42515 90.8512 3.09794 86.6451 0.863831H86.6402C86.5277 0.893227 86.425 0.927522 86.3174 0.966717C90.592 3.23513 94.8862 5.59663 99.0972 7.99242C104.223 10.9075 109.608 14.1019 114.112 18.2027C118.504 22.2006 120.92 26.3014 121.302 30.3973C121.399 32.142 121.317 33.892 121.057 35.62C120.813 37.7659 120.558 39.9804 121.013 42.1264C121.455 43.8414 122.118 45.4916 122.984 47.0355C123.141 47.3491 123.302 47.6626 123.459 47.9811L123.61 47.7312Z" fill="url(#paint9_linear)"/>
<path d="M128.055 33.234C126.623 32.7863 125.313 32.0115 124.231 30.9705C122.01 28.8344 120.988 25.8262 120.342 23.4451C120.22 22.9698 120.098 22.4897 119.98 22.0145C120.088 22.1272 120.201 22.23 120.313 22.3329C120.396 22.6857 120.489 23.0335 120.582 23.3814C121.213 25.7331 122.22 28.7021 124.397 30.7941C125.433 31.7876 126.681 32.533 128.046 32.9744C128.05 33.0601 128.05 33.1458 128.055 33.234Z" fill="url(#paint10_linear)"/>
<path d="M106.649 47.7753C106.223 49.4754 106.096 51.5332 107.035 53.3655C107.625 54.3835 108.36 55.3095 109.217 56.1141C109.647 56.5648 110.092 57.0253 110.488 57.5153C111.128 58.2765 111.595 59.1673 111.858 60.1267L111.633 60.2246C111.381 59.2865 110.927 58.4152 110.302 57.6721C109.906 57.1919 109.466 56.7314 109.036 56.2855C108.165 55.4627 107.418 54.5169 106.82 53.4782C106.052 51.8423 105.866 49.9925 106.292 48.2359L106.649 47.7753Z" fill="url(#paint11_linear)"/>
<path d="M114.465 58.8038C114.386 58.8479 114.308 58.8969 114.23 58.941C114.146 58.0809 113.82 57.2622 113.291 56.5795C112.902 56.1371 112.464 55.7409 111.985 55.3988C111.726 55.1979 111.452 54.9872 111.203 54.757C109.501 53.2332 108.469 50.7395 108.376 47.9174C108.347 46.8569 108.414 45.7959 108.576 44.7475C108.698 44.5124 108.821 44.2723 108.938 44.0322C108.698 45.3094 108.591 46.6083 108.62 47.9076C108.713 50.666 109.711 53.0961 111.364 54.5757C111.608 54.7962 111.877 55.0068 112.137 55.2077C112.63 55.5596 113.081 55.9673 113.482 56.4227C114.02 57.112 114.36 57.9353 114.465 58.8038Z" fill="url(#paint12_linear)"/>
<path d="M118.447 55.4821C118.392 55.5509 118.333 55.6163 118.27 55.678C117.958 55.0888 117.572 54.5421 117.121 54.0514C116.735 53.6252 116.299 53.2186 115.884 52.8217C114.923 52.0026 114.1 51.033 113.448 49.9507C112.338 47.8733 112.558 45.4286 112.773 43.0622L112.822 42.5183C112.969 40.8476 113.013 38.8781 112.367 37.2221C112.45 37.2123 112.533 37.2025 112.617 37.1878C113.257 38.8781 113.213 40.8574 113.067 42.5428L113.018 43.0818C112.807 45.4139 112.587 47.8243 113.663 49.838C114.306 50.8958 115.113 51.8436 116.055 52.6453C116.471 53.0422 116.906 53.4537 117.302 53.8849C117.75 54.3665 118.134 54.9032 118.447 55.4821Z" fill="url(#paint13_linear)"/>
<path d="M121.634 51.0677C121.561 51.1902 121.483 51.3078 121.409 51.4303C121.389 49.8657 120.86 48.3504 119.903 47.1139C119.492 46.6442 119.044 46.2084 118.563 45.8107C117.775 45.2095 117.114 44.4565 116.621 43.5962C115.848 42.0039 116.284 40.2107 116.704 38.4763C116.822 38.0011 116.939 37.5111 117.032 37.0359C117.188 36.2143 117.257 35.3783 117.237 34.5421C117.32 34.4392 117.394 34.3363 117.467 34.2335C117.512 35.1883 117.447 36.1452 117.272 37.0849C117.179 37.565 117.056 38.0599 116.944 38.5351C116.533 40.2303 116.107 41.9794 116.841 43.4884C117.319 44.3199 117.96 45.0464 118.724 45.6245C119.216 46.0307 119.674 46.4764 120.094 46.9571C121.022 48.133 121.561 49.5702 121.634 51.0677Z" fill="url(#paint14_linear)"/>
<path d="M112.831 11.6523C112.383 11.3367 111.917 11.0455 111.438 10.7802C110.89 10.4764 110.322 10.1923 109.77 9.9179C108.594 9.37103 107.47 8.72009 106.41 7.97284C105.548 7.28634 104.74 6.53453 103.994 5.72403C103.637 5.35658 103.275 4.97933 102.903 4.62167C101.072 2.85849 98.9552 1.42039 96.6426 0.369019C96.98 0.43271 97.3175 0.506198 97.655 0.584588C99.6422 1.59664 101.468 2.89855 103.074 4.44775C103.446 4.8103 103.813 5.18755 104.17 5.555C104.906 6.35747 105.704 7.10116 106.556 7.77932C107.603 8.51869 108.715 9.16151 109.877 9.69987C110.435 9.97424 111.007 10.2633 111.555 10.5671C111.897 10.7581 112.22 10.9492 112.523 11.1501C112.626 11.3142 112.729 11.4857 112.831 11.6523Z" fill="url(#paint15_linear)"/>
<path d="M73.4174 15.6487C70.1055 18.827 67.9438 23.0193 67.2735 27.5644C67.0676 28.8579 67.0432 30.1739 67.2011 31.4741C67.4383 33.2075 68.1001 34.8772 68.1666 36.6253C68.237 38.4675 67.6437 40.2597 67.2515 42.0607C65.774 48.8429 67.6012 56.7588 73.2541 60.7709" stroke="#212121" stroke-width="0.2" stroke-miterlimit="10"/>
<path d="M81.7861 10.6734C84.1548 12.0942 85.849 14.3832 87.5006 16.5987C92.1709 22.8645 97.2364 29.2013 104.203 32.7303C105.619 33.4476 107.118 34.0532 108.335 35.0718C110.829 37.1633 111.7 40.5958 112.167 43.8215" stroke="#212121" stroke-width="0.2" stroke-miterlimit="10"/>
<path d="M82.5996 11.0849C85.3537 13.8545 87.0263 17.4865 89.037 20.8347C92.7389 26.9927 97.675 32.3152 103.534 36.4661C105.441 37.814 107.462 39.0555 109.004 40.8094C111.136 43.2341 112.159 46.4143 113.129 49.4965" stroke="#212121" stroke-width="0.2" stroke-miterlimit="10"/>
<path d="M98.7695 68.3464C99.106 67.9266 99.4862 67.5439 99.9037 67.2048C100.116 67.0379 100.37 66.934 100.638 66.9051C100.906 66.8761 101.177 66.9233 101.42 67.0412C101.74 67.2765 101.967 67.6169 102.062 68.0029C102.34 68.9762 102.373 70.003 102.16 70.9924C101.947 71.9818 101.493 72.9032 100.839 73.6749C99.5041 75.2097 97.6942 76.2523 95.6985 76.6366C94.761 76.866 93.7875 76.9075 92.8339 76.7586C91.307 76.4217 89.9562 75.5359 89.0371 74.2687C88.1998 73.1909 86.9448 71.1522 87.0989 69.7211C87.2397 68.4155 88.6713 68.533 89.6421 68.8422C91.2238 69.3449 92.3664 70.3154 94.1168 70.312C94.9843 70.3139 95.8433 70.1408 96.6427 69.8031C97.442 69.4654 98.1653 68.97 98.7695 68.3464Z" fill="#008444"/>
<path d="M68.3484 155.909C64.8318 158.095 60.743 159.187 57.1091 161.181C54.2969 162.72 51.646 165.071 50.5113 167.981C50.5064 167.981 50.5064 167.986 50.5064 167.991C50.1679 168.843 49.9729 169.746 49.9293 170.661C49.7777 174.101 51.0933 177.491 54.0034 179.328C55.5293 180.294 57.4123 180.833 58.7378 181.989C59.041 182.25 59.3105 182.548 59.5399 182.876C59.8045 183.215 59.9429 183.636 59.9311 184.066C59.8382 184.919 58.8845 185.355 58.0726 185.614C52.9445 187.24 47.6532 188.294 42.2946 188.76C38.4748 189.088 33.672 190.043 30.4783 187.398C28.7175 185.933 27.5731 183.841 26.8297 181.675C25.8367 178.698 25.5224 175.535 25.9101 172.42C26.2977 169.305 27.3774 166.317 29.0697 163.675C31.3404 160.38 34.0731 157.429 37.1837 154.915C37.4037 154.734 37.6092 154.557 37.7999 154.381C38.1581 154.06 38.4796 153.7 38.7585 153.308C39.6829 151.98 39.5949 150.623 38.2645 148.712C36.061 145.53 34.1878 142.13 32.6743 138.566C32.6652 138.548 32.657 138.53 32.6498 138.512C29.5245 130.109 33.3052 117.351 35.8044 108.513C39.8639 94.1577 46.0215 86.304 56.0331 75.2559C57.0113 74.1781 57.6471 73.4628 58.1215 72.9238C58.3661 72.6446 58.5666 72.4094 58.7524 72.1987C59.222 71.6451 59.5643 71.2189 60.1953 70.4644C60.1953 70.4595 60.1953 70.4595 60.205 70.4546C60.6599 69.9107 61.5794 68.4997 62.4451 67.3435C62.4402 67.3386 62.4451 67.3337 62.4548 67.3288C62.7861 66.8684 63.1524 66.4343 63.5504 66.0304C63.6189 66.0794 63.6873 66.1235 63.7509 66.1627C65.2916 67.1867 64.7829 66.5645 66.5681 67.6374C66.617 67.6668 66.6708 67.6962 66.7197 67.7256C66.6268 67.9069 66.5338 68.0833 66.4458 68.2547C64.553 71.9342 63.6091 73.2178 62.401 77.8526C62.3717 77.9653 62.3424 78.078 62.313 78.1956C61.8239 80.1112 62.7532 82.8206 64.0835 85.5544C65.047 87.5436 66.2208 89.5474 67.2186 91.2622C69.5173 95.2307 71.6839 99.356 72.6621 103.839C73.9435 109.723 73.1072 115.906 74.3152 121.805C75.2543 126.4 77.4112 130.707 78.0372 135.357C78.5094 139.348 77.8513 143.392 76.138 147.026C74.4247 150.661 71.7253 153.739 68.3484 155.909Z" fill="#212121"/>
<path d="M66.7191 67.7256C66.6262 67.9069 66.5332 68.0833 66.4452 68.2548C64.5524 71.9342 63.6085 73.2178 62.4005 77.8526C62.0153 75.9281 62.2052 73.9326 62.9463 72.1156C63.6875 70.2987 64.9471 68.741 66.5675 67.6375C66.6164 67.6668 66.6702 67.6987 66.7191 67.7256Z" fill="#121259"/>
<path d="M40.3286 145.962C41.4427 144.283 43.0597 143.002 44.947 142.302C46.8228 141.612 48.7662 141.123 50.7447 140.843C53.1412 140.417 55.9476 140.108 57.6897 141.811C57.7172 142.12 57.66 142.431 57.5243 142.709C57.3887 142.988 57.1797 143.225 56.9199 143.394C56.396 143.723 55.8184 143.959 55.2135 144.089C49.7054 145.642 44.9915 148.779 40.1109 151.647C39.1108 150.381 39.5451 147.246 40.3286 145.962Z" fill="#424242"/>
<path d="M37.1006 155.233C39.2876 152.362 42.0889 150.019 45.2987 148.374C49.2044 146.364 53.2504 144.641 57.4051 143.217" stroke="#121259" stroke-width="0.2" stroke-linecap="round" stroke-linejoin="round"/>
<path d="M39.3164 152.196C39.9881 149.582 41.3265 147.188 43.2003 145.249C45.0688 143.321 47.1465 141.608 49.3946 140.142" stroke="#121259" stroke-width="0.2" stroke-linecap="round" stroke-linejoin="round"/>
<path d="M56.5389 78.49C56.3427 79.3893 56.2724 80.3116 56.3301 81.2303C56.4925 82.7133 57.3083 84.0337 58.1109 85.2894C58.6679 86.159 59.3023 87.0826 60.2805 87.4094C60.2379 86.3898 59.6446 85.4908 59.2001 84.5736C57.0833 80.2254 58.5828 76.2647 59.2451 71.8764C57.2975 72.8244 56.8598 76.6077 56.5389 78.49Z" fill="#424242"/>
<path d="M64.3889 65.7115C61.0984 67.904 59.0848 71.7132 58.5302 75.6327C57.9755 79.5522 58.7639 83.5697 60.1872 87.2624" stroke="#121259" stroke-width="0.2" stroke-linecap="round" stroke-linejoin="round"/>
<path d="M56.0156 83.1381C56.2939 85.1868 57.3603 87.0454 58.9873 88.3177" stroke="#121259" stroke-width="0.2" stroke-linecap="round" stroke-linejoin="round"/>
<path d="M49.3781 149.799C49.2343 149.859 49.2553 149.578 49.3727 149.475C51.7615 147.378 54.6721 145.966 57.7962 145.391" stroke="#121259" stroke-width="0.2" stroke-linecap="round" stroke-linejoin="round"/>
<path d="M58.737 181.989C57.217 182.306 55.6438 182.26 54.1445 181.857C53.1253 181.585 52.1795 181.089 51.3757 180.405C50.572 179.721 49.9305 178.866 49.4981 177.903C49.1555 177.005 48.9686 176.054 48.9455 175.093C48.8407 172.629 49.3784 170.181 50.5057 167.989C50.1672 168.841 49.9721 169.743 49.9285 170.659C49.7769 174.098 51.0926 177.489 54.0026 179.326C55.5286 180.294 57.4116 180.833 58.737 181.989Z" fill="#121259"/>
<path d="M31.2012 187.04L29.1201 193.958" stroke="#5B5F97" stroke-width="2" stroke-linecap="round" stroke-linejoin="round"/>
<path d="M36.0933 187.267L35.2109 194.373" stroke="#5B5F97" stroke-width="2" stroke-linecap="round" stroke-linejoin="round"/>
<path d="M41.7111 187.247L41.5898 194.393" stroke="#5B5F97" stroke-width="2" stroke-linecap="round" stroke-linejoin="round"/>
<path d="M48.1699 186.345L48.5588 193.484" stroke="#5B5F97" stroke-width="2" stroke-linecap="round" stroke-linejoin="round"/>
<path d="M53.5195 185.473L55.2162 192.469" stroke="#5B5F97" stroke-width="2" stroke-linecap="round" stroke-linejoin="round"/>
<path d="M57.7666 184.005L60.2257 190.831" stroke="#5B5F97" stroke-width="2" stroke-linecap="round" stroke-linejoin="round"/>
<path d="M72.2475 87.9331C75.3175 81.7486 78.4315 75.497 82.9761 70.1748C83.5327 69.5232 84.4526 68.826 85.2014 69.2758C85.3894 69.422 85.5427 69.6081 85.6504 69.8207C85.7582 70.0333 85.8176 70.2672 85.8245 70.5055C86.2461 73.3579 85.5477 76.2437 84.7578 79.026C83.4407 83.664 81.8605 88.2229 80.0249 92.6806C78.9421 95.3105 77.6113 98.0855 75.025 99.5147C74.1285 100.011 73.0075 100.313 72.0513 99.9277C71.543 99.6983 71.1017 99.3425 70.7694 98.8939C67.7796 95.1729 70.5058 91.4405 72.2475 87.9331Z" fill="#008444"/>
<path d="M70.975 96.4408C70.9591 96.492 70.9272 96.5367 70.8841 96.5684C70.841 96.6002 70.7889 96.6172 70.7354 96.6172C70.7137 96.6187 70.692 96.6154 70.6718 96.6074C70.1792 96.4654 69.7036 96.2699 69.2534 96.0244C69.1556 95.7745 69.0578 95.5295 68.96 95.2846C69.529 95.6587 70.1504 95.946 70.8038 96.1371C70.8662 96.1554 70.919 96.1975 70.9509 96.2542C70.9829 96.3109 70.9915 96.3778 70.975 96.4408Z" fill="#121259"/>
<path d="M101.922 67.1597C102.147 68.0999 102.083 69.0865 101.737 69.9891C101.39 70.8917 100.779 71.6677 99.9824 72.2144" stroke="#121259" stroke-width="0.2" stroke-linecap="round" stroke-linejoin="round"/>
<path d="M87.501 70.0734C87.8243 70.9845 88.4161 71.7758 89.1982 72.3427C89.9803 72.9095 90.9157 73.2251 91.8808 73.2477" stroke="#121259" stroke-width="0.2" stroke-linecap="round" stroke-linejoin="round"/>
<path d="M80.4925 85.2115C80.2891 86.9205 79.8285 88.5889 79.1265 90.1598C78.4343 91.7361 77.5231 93.2064 76.4199 94.5272C76.3993 94.552 76.374 94.5725 76.3454 94.5875C76.3169 94.6025 76.2856 94.6117 76.2535 94.6146C76.2214 94.6174 76.1891 94.6139 76.1583 94.6042C76.1276 94.5945 76.099 94.5788 76.0744 94.558C76.0497 94.5372 76.0294 94.5117 76.0146 94.483C75.9998 94.4543 75.9908 94.423 75.9881 94.3908C75.9855 94.3586 75.9892 94.3262 75.9991 94.2954C76.009 94.2647 76.0248 94.2362 76.0458 94.2116V94.2092C77.1326 92.9329 78.034 91.5091 78.723 89.98C79.4225 88.4541 79.8873 86.8308 80.1018 85.1654C80.1077 85.1138 80.1339 85.0666 80.1746 85.0343C80.2153 85.002 80.2671 84.9872 80.3187 84.9932C80.3702 84.9992 80.4173 85.0254 80.4495 85.0662C80.4818 85.1069 80.4965 85.1588 80.4906 85.2105L80.4925 85.2115Z" fill="#121259"/>
<path d="M174.28 157.742C174.241 161.299 174.03 164.88 173.121 168.32C170.983 176.35 165.153 183.101 163.564 191.254C154.294 189.227 144.791 188.479 135.319 189.029C135.808 186.09 138.117 183.86 139.916 181.489C145.267 174.444 146.524 164.66 143.77 156.248C141.017 147.835 134.517 140.873 126.608 136.915C123.884 135.553 120.955 134.489 118.646 132.505C114.518 128.953 113.163 123.059 113.403 117.616C113.643 112.173 115.227 106.881 115.951 101.482C117.069 92.9959 116.051 84.3641 112.987 76.373C111.838 73.3844 110.366 70.4546 108.131 68.1666C105.656 65.6336 102.531 65.6826 99.9824 63.9923C105.715 58.4511 117.184 60.6313 124.197 63.2525C132.213 66.246 135.617 72.2575 138.449 80.3415C140.924 87.4113 143.125 93.6629 144.201 101.076C144.377 102.291 144.592 103.516 144.871 104.726C145.424 107.454 146.506 110.048 148.055 112.359C151.679 117.484 157.954 119.928 162.698 124.029C164.751 125.814 166.529 127.892 167.975 130.198C172.945 138.037 174.387 148.232 174.28 157.742Z" fill="#212121"/>
<path d="M104.355 61.5426C108.92 62.6014 112.782 65.8746 115.213 69.8862C117.644 73.8978 118.757 78.5968 119.134 83.2748" stroke="#121259" stroke-width="0.2" stroke-linecap="round" stroke-linejoin="round"/>
<path d="M123.602 114.435C123.99 113.553 124.489 112.622 125.371 112.234C125.449 112.19 125.535 112.164 125.624 112.158C125.713 112.151 125.803 112.165 125.886 112.197C125.961 112.251 126.024 112.319 126.072 112.398C126.119 112.477 126.151 112.565 126.164 112.657C127.007 115.752 126.746 119.165 128.202 122.022C130.055 125.656 134.165 127.451 137.047 130.335C139.142 132.439 140.573 135.112 141.165 138.023C141.339 138.891 141.228 140.091 140.36 140.261C139.792 140.372 139.279 139.931 138.871 139.519C135.618 136.236 132.558 132.692 128.801 129.96C126.938 128.605 124.854 127.816 122.91 126.632C121.076 125.515 121.085 124.507 121.372 122.535C121.746 119.747 122.496 117.022 123.602 114.435Z" fill="#424242"/>
<path d="M123.921 111.131L121.196 122.938C120.997 123.801 120.819 124.784 121.328 125.508C121.642 125.886 122.038 126.188 122.486 126.39C128.608 129.768 134.145 134.117 138.879 139.268C140.956 141.528 142.928 144.051 143.611 147.046" stroke="#121259" stroke-width="0.2" stroke-linecap="round" stroke-linejoin="round"/>
<path d="M116.304 71.3972C116.345 71.3114 116.417 71.244 116.505 71.2079C116.593 71.1717 116.691 71.1693 116.781 71.2012C116.872 71.2445 116.954 71.3062 117.02 71.3825C118.458 72.8428 119.522 74.6295 120.122 76.5905C120.589 78.1231 121.041 80.9432 119.747 82.1758C118.706 81.5982 118.781 78.2108 118.487 77.057C117.985 75.0906 117.252 73.1907 116.304 71.3972Z" fill="#424242"/>
<path d="M167.976 130.198C167.895 130.485 167.734 130.744 167.51 130.941C167.285 131.139 167.009 131.267 166.714 131.31C166.238 131.296 165.777 131.143 165.388 130.869C158.091 126.601 152.158 120.169 148.001 112.8C147.502 111.908 145.008 107.18 144.871 104.726C145.424 107.454 146.506 110.047 148.055 112.359C151.679 117.484 157.954 119.928 162.698 124.029C164.751 125.814 166.529 127.892 167.976 130.198Z" fill="#424242"/>
<path d="M167.976 159.232C167.976 159.232 167.199 173.576 162.632 179.08C158.594 183.948 161.543 186.808 159.008 190.366" stroke="#121259" stroke-width="0.2" stroke-linecap="round" stroke-linejoin="round"/>
<path d="M147.078 110.984C148.942 116.425 152.586 121.075 157.42 124.18" stroke="#121259" stroke-width="0.2" stroke-linecap="round" stroke-linejoin="round"/>
<path d="M120.519 55.6781C120.172 56.0197 119.737 56.2573 119.262 56.364C119.139 56.3795 119.014 56.3778 118.891 56.3591C118.801 56.4316 118.702 56.4925 118.597 56.5404C115.961 57.8779 96.7838 65.1584 91.0517 66.6674C90.8903 66.7066 90.7386 66.7458 90.6066 66.7752C90.6066 66.7752 90.5332 66.927 90.3914 67.2112C88.572 70.8514 75.7432 96.1665 70.1578 96.1469C68.6367 96.142 65.7511 90.8115 62.8997 83.2321C62.3868 81.8474 62.1571 80.3735 62.2243 78.898C62.2915 77.4226 62.6543 75.9757 63.291 74.6435C66.3527 68.147 74.0607 52.7189 79.0983 50.7493C85.5103 48.2506 105.201 45.2718 113.105 44.7917C114.42 44.7658 115.724 45.0371 116.92 45.5854C116.92 45.5854 118.92 44.4634 119.257 46.433C119.595 48.4025 121.184 55.1195 120.519 55.6781Z" fill="#16A75C"/>
<path d="M77.2618 57.8019C77.0322 57.1063 76.973 56.3656 77.0892 55.6423C77.2494 55.0209 77.5454 54.4429 77.9558 53.95C79.2603 52.2106 81.1848 51.0429 83.328 50.6905C84.3929 50.5302 85.4805 50.6247 86.5019 50.9663C87.5234 51.3078 88.4496 51.8867 89.2049 52.6556C90.0704 53.6405 90.6956 54.8134 91.0311 56.0818C91.8327 58.8009 91.5887 62.1276 89.4171 63.9482C84.0768 68.4336 78.712 63.0369 77.2618 57.8019Z" fill="#4DC27E"/>
<path d="M85.1838 62.0644C84.4063 62.0767 83.6413 61.8668 82.9785 61.4593C82.9514 61.442 82.928 61.4196 82.9096 61.3932C82.8911 61.3669 82.878 61.3371 82.8711 61.3057C82.8641 61.2743 82.8634 61.2418 82.8689 61.2101C82.8745 61.1784 82.8862 61.1481 82.9035 61.121C82.9207 61.0938 82.9431 61.0704 82.9694 61.0519C82.9957 61.0334 83.0254 61.0203 83.0568 61.0133C83.0881 61.0063 83.1206 61.0056 83.1522 61.0112C83.1838 61.0168 83.2141 61.0285 83.2412 61.0458C83.7152 61.3214 84.241 61.4959 84.7855 61.5585C85.33 61.621 85.8816 61.5702 86.4056 61.4093C87.4878 61.0765 88.4915 60.5277 89.3563 59.796C89.4075 59.7582 89.4715 59.742 89.5345 59.7507C89.5976 59.7594 89.6547 59.7924 89.6939 59.8426C89.733 59.8929 89.7511 59.9564 89.7442 60.0198C89.7373 60.0832 89.7061 60.1414 89.6571 60.182C88.7414 60.955 87.6784 61.5334 86.5328 61.8821C86.093 62.0019 85.6395 62.0632 85.1838 62.0644Z" fill="#121259"/>
<path d="M132.365 54.5757C132.222 55.276 132.122 55.9845 132.067 56.6971C132.032 57.7211 132.208 58.8038 132.16 59.8229C132.067 61.6798 130.824 63.3456 129.23 64.296C127.911 65.0325 126.439 65.4518 124.931 65.5209C124.584 65.5454 124.231 65.5601 123.884 65.5601C122.833 65.565 121.737 65.4866 120.759 65.8883C119.267 66.4959 118.426 68.049 117.34 69.2493C117.078 69.5913 116.713 69.8389 116.298 69.9548C115.575 70.0871 114.895 69.4306 114.728 68.7104C114.625 67.9754 114.719 67.2259 115.002 66.54C116.206 63.0673 117.607 59.6665 119.199 56.3542C119.438 55.7445 119.78 55.1809 120.211 54.6884C120.539 54.3601 120.94 54.1151 121.292 53.8163C121.774 53.3719 122.204 52.8738 122.573 52.3318C123.762 50.7199 125.014 48.8924 124.784 46.9033C124.667 45.8842 125.493 44.9974 126.315 44.385C126.672 44.108 127.084 43.9097 127.523 43.8034C127.962 43.697 128.419 43.6848 128.863 43.7677C128.983 43.7929 129.101 43.8273 129.215 43.8706C130.369 44.3017 131.054 45.4825 131.504 46.6289C132.488 49.1549 132.785 51.8971 132.365 54.5757Z" fill="#DEDEFF"/>
<path d="M132.364 54.5757C132.221 55.276 132.121 55.9845 132.066 56.6971C132.032 57.7211 132.208 58.8038 132.159 59.8229C132.066 61.6798 130.824 63.3456 129.229 64.296C127.91 65.0325 126.439 65.4518 124.93 65.5209C124.896 65.5007 124.865 65.476 124.837 65.4474C124.255 64.9183 124.143 64.0413 124.197 63.2525C124.378 60.7097 125.874 58.2698 125.424 55.7613C125.219 55.0316 125.065 54.2883 124.964 53.537C124.98 52.8923 125.098 52.2541 125.312 51.6459C125.923 49.5979 126.495 47.5647 126.94 45.4922C126.923 45.2129 126.977 44.9338 127.097 44.6811C127.218 44.4285 127.4 44.2108 127.628 44.0485C127.855 43.8862 128.12 43.7847 128.398 43.7535C128.676 43.7224 128.957 43.7627 129.215 43.8706C130.369 44.3017 131.054 45.4825 131.504 46.6289C132.487 49.1549 132.784 51.8971 132.364 54.5757Z" fill="#CECEF4"/>
<path d="M136.992 46.9199C136.567 48.5783 136.038 50.2082 135.407 51.7997C135.238 52.3595 134.955 52.8782 134.576 53.3234C134.455 53.4043 134.321 53.464 134.18 53.4998C133.876 53.5782 133.593 53.4753 133.431 52.956C133.418 52.9317 133.41 52.9051 133.407 52.8776C133.392 52.8286 133.378 52.7698 133.363 52.711V52.7061C133.296 52.3195 133.266 51.9274 133.275 51.5351C133.275 51.3784 133.28 51.202 133.29 51.0158C133.412 48.2673 134.189 42.437 134.189 42.437C134.189 42.437 136.116 42.6771 136.41 43.0935C136.703 43.51 137.075 46.3222 136.992 46.9199Z" fill="#FFC1B3"/>
<path d="M136.993 46.918C136.678 48.1647 136.299 49.3944 135.858 50.6023C135.711 51.0237 135.555 51.4303 135.408 51.7978C135.239 52.3575 134.956 52.8762 134.577 53.3215C134.457 53.4023 134.325 53.4619 134.186 53.4978H134.181C133.877 53.5762 133.594 53.4733 133.432 52.954C133.419 52.9297 133.411 52.9031 133.408 52.8756C133.393 52.8266 133.379 52.7678 133.364 52.709V52.7041C133.297 52.3176 133.267 51.9254 133.276 51.5332C133.276 51.3764 133.281 51.2 133.29 51.0139C133.413 48.2653 134.19 42.4351 134.19 42.4351C134.19 42.4351 136.117 42.6751 136.411 43.0916C136.704 43.508 137.076 46.3203 136.993 46.918Z" fill="#F4A386"/>
<path d="M133.406 52.8776C133.279 53.207 133.133 53.5293 132.971 53.8427C132.971 53.8525 132.966 53.8574 132.961 53.8672C132.697 54.3768 132.438 54.7197 132.203 54.803C132.003 54.8823 131.781 54.8892 131.577 54.8226C130.745 54.5385 130.428 53.0148 130.604 52.6522V52.6473L130.608 52.6424C130.804 52.1231 130.584 41.9471 130.564 41.0799V41.0211C130.603 41.0332 130.642 41.043 130.682 41.0505C131.288 41.1828 133.196 41.5992 133.577 41.6384C133.724 41.6531 133.949 41.9765 134.189 42.437C134.675 43.392 135.069 44.3911 135.367 45.4207C135.46 45.8764 134.458 50.2569 133.406 52.8776Z" fill="#FFC1B3"/>
<path d="M133.406 52.8776C133.279 53.207 133.133 53.5293 132.971 53.8427C132.971 53.8525 132.966 53.8574 132.961 53.8672C132.697 54.3768 132.438 54.7197 132.203 54.803C132.003 54.8823 131.781 54.8892 131.577 54.8226C130.745 54.5385 130.428 53.0148 130.604 52.6522V52.6473L130.608 52.6424C130.804 52.1231 130.584 41.9471 130.564 41.0799V41.0211C130.603 41.0332 130.642 41.043 130.682 41.0505C131.288 41.1828 133.196 41.5992 133.577 41.6384C133.724 41.6531 133.949 41.9765 134.189 42.437C134.675 43.392 135.069 44.3911 135.367 45.4207C135.46 45.8764 134.458 50.2569 133.406 52.8776Z" fill="#F4A386"/>
<path d="M133.284 45.3374C133.203 45.7186 133.1 46.0949 132.976 46.4643C132.972 46.4755 132.969 46.487 132.966 46.4986C132.43 48.2191 131.808 49.9115 131.103 51.5694C131.093 51.5988 131.078 51.6233 131.069 51.6478C130.917 52.0006 130.76 52.3288 130.614 52.6326C130.609 52.6375 130.604 52.6424 130.604 52.6473V52.6522C130.579 52.7086 130.55 52.7627 130.516 52.8139V52.8237C130.501 52.8482 130.496 52.858 130.496 52.858C130.482 52.8874 130.467 52.9168 130.452 52.9413C130.066 53.6713 129.694 54.171 129.401 54.2494C129.392 54.2548 129.382 54.2582 129.371 54.2592C129.352 54.2633 129.332 54.2649 129.313 54.2641C129.177 54.2809 129.04 54.2478 128.926 54.171C128.041 53.6223 127.841 50.81 128.555 48.718C129.034 47.3021 129.23 46.7191 129.313 46.479L129.371 46.3075C129.371 46.3075 127.449 45.5285 127.21 45.1023C127.205 45.0974 127.2 45.0925 127.2 45.0876C127.193 45.0806 127.188 45.0722 127.185 45.0631V45.0729C127.175 45.2052 127.082 46.4937 126.168 46.7534C125.693 46.8954 125.449 46.964 125.332 46.9983L125.204 47.0326C125.2 47.0487 125.197 47.065 125.195 47.0816C125.087 47.6058 124.089 52.3827 122.49 53.2401C120.798 54.1465 120.543 54.269 120.543 54.269L119.14 46.234C119.14 46.234 126.417 38.5959 128.144 39.2867C129.05 39.6704 129.855 40.259 130.496 41.0064C130.52 41.0296 130.543 41.0542 130.565 41.0799C130.623 41.1387 130.677 41.1975 130.731 41.2514L130.736 41.2563C130.905 41.432 131.092 41.5896 131.294 41.7266C131.939 42.1332 133.025 44.0685 133.245 44.9896V44.9945C133.277 45.1059 133.29 45.2217 133.284 45.3374Z" fill="#FFC1B3"/>
<path d="M133.284 45.3374C133.203 45.7186 133.1 46.0949 132.976 46.4643C132.972 46.4755 132.969 46.487 132.966 46.4986C132.43 48.2191 131.808 49.9115 131.103 51.5694C131.093 51.5988 131.078 51.6233 131.069 51.6478C130.917 52.0006 130.76 52.3288 130.614 52.6326C130.609 52.6375 130.604 52.6424 130.604 52.6473V52.6522C130.579 52.7086 130.55 52.7627 130.516 52.8139V52.8237C130.501 52.8482 130.496 52.858 130.496 52.858C130.482 52.8874 130.467 52.9168 130.452 52.9413C130.066 53.6713 129.694 54.171 129.401 54.2494C129.392 54.2548 129.382 54.2582 129.371 54.2592C129.352 54.2633 129.332 54.2649 129.313 54.2641C129.177 54.2809 129.04 54.2478 128.926 54.171C128.041 53.6223 127.841 50.81 128.555 48.718C129.034 47.3021 129.23 46.7191 129.313 46.479L129.371 46.3075C129.371 46.3075 127.449 45.5285 127.21 45.1023C127.205 45.0974 127.2 45.0925 127.2 45.0876C127.193 45.0806 127.188 45.0722 127.185 45.0631V45.0729C127.175 45.2052 127.082 46.4937 126.168 46.7534C125.693 46.8954 125.449 46.964 125.332 46.9983L125.204 47.0326C125.2 47.0487 125.197 47.065 125.195 47.0816C125.087 47.6058 124.089 52.3827 122.49 53.2401C120.798 54.1465 120.543 54.269 120.543 54.269L119.14 46.234C119.14 46.234 126.417 38.5959 128.144 39.2867C129.05 39.6704 129.855 40.259 130.496 41.0064C130.52 41.0296 130.543 41.0542 130.565 41.0799C130.623 41.1387 130.677 41.1975 130.731 41.2514L130.736 41.2563C130.905 41.432 131.092 41.5896 131.294 41.7266C131.939 42.1332 133.025 44.0685 133.245 44.9896V44.9945C133.277 45.1059 133.29 45.2217 133.284 45.3374Z" fill="#F4A386"/>
<path d="M135.858 50.6023C135.712 51.0236 135.555 51.4303 135.408 51.7977C135.239 52.3575 134.956 52.8762 134.577 53.3214C134.457 53.4022 134.325 53.4619 134.186 53.4978C134.254 53.0486 134.36 52.606 134.503 52.175C134.664 51.5825 134.984 51.0453 135.428 50.6219C135.478 50.5681 135.543 50.5292 135.614 50.5092C135.659 50.5013 135.706 50.5058 135.749 50.5221C135.792 50.5385 135.83 50.5662 135.858 50.6023Z" fill="#FF6B6C"/>
<path d="M124.633 45.6245L124.893 46.2438C124.995 46.5356 125.154 46.8037 125.363 47.0321C124.844 47.4 124.704 45.7945 124.633 45.6245Z" fill="#121259"/>
<path d="M126.577 44.017C126.479 43.8804 126.435 43.7124 126.453 43.5452C126.432 43.6319 126.859 44.1792 126.916 44.2968C127.048 44.5511 127.146 44.8211 127.21 45.1003C126.952 44.7683 126.74 44.4041 126.577 44.017Z" fill="#121259"/>
<path d="M129.655 48.0762C129.429 49.2606 129.358 50.4695 129.445 51.6723C129.474 52.0839 129.523 52.4905 129.587 52.8972C129.592 52.9168 129.592 52.9364 129.597 52.9609C129.661 53.1769 129.676 53.4043 129.642 53.627C129.608 53.8496 129.526 54.0621 129.401 54.2494C129.392 54.2548 129.382 54.2582 129.372 54.2592C129.352 54.2632 129.333 54.2649 129.313 54.2641C129.177 54.2809 129.04 54.2478 128.927 54.171C128.041 53.6223 127.841 50.81 128.555 48.718C129.034 47.3021 129.23 46.7191 129.313 46.479C129.359 46.4504 129.413 46.4352 129.467 46.4352C129.522 46.4352 129.575 46.4504 129.621 46.479C130.012 46.6995 129.719 47.7528 129.655 48.0762Z" fill="url(#paint16_linear)"/>
<path d="M133.364 52.7066V52.7115C133.286 53.044 133.178 53.3687 133.041 53.6816C133.021 53.7355 132.997 53.7893 132.973 53.8432C132.973 53.853 132.968 53.8579 132.963 53.8677C132.699 54.3773 132.439 54.7202 132.205 54.8035C132.005 54.8828 131.783 54.8897 131.579 54.8231C131.393 54.4312 131.755 53.3729 131.853 53.0299C132.013 52.4374 132.333 51.9003 132.777 51.4768C132.827 51.4231 132.892 51.3841 132.963 51.3641C133.026 51.3581 133.09 51.3712 133.146 51.4018C133.201 51.4323 133.247 51.479 133.276 51.5356C133.314 51.5966 133.344 51.6625 133.364 51.7316C133.444 52.0516 133.444 52.3866 133.364 52.7066Z" fill="#FF6B6C"/>
<path d="M130.517 52.8139V52.8237C130.502 52.8482 130.497 52.858 130.497 52.858C130.482 52.8874 130.468 52.9168 130.453 52.9413C130.067 53.6713 129.695 54.171 129.402 54.2494C129.393 54.2548 129.383 54.2582 129.372 54.2592C129.353 54.2632 129.333 54.2649 129.314 54.2641C129.294 54.2419 129.28 54.2148 129.274 54.1857C129.274 53.9497 129.322 53.7161 129.416 53.4998C129.465 53.3164 129.525 53.1364 129.597 52.9609C129.715 52.6361 129.866 52.3242 130.047 52.03C130.122 51.8726 130.255 51.7511 130.419 51.6919C130.442 51.6853 130.466 51.6837 130.489 51.6871C130.513 51.6904 130.536 51.6988 130.556 51.7115C130.589 51.7465 130.609 51.7912 130.615 51.8389C130.665 52.1669 130.632 52.5025 130.517 52.8139Z" fill="#FF6B6C"/>
<path d="M130.544 52.7149C130.544 52.7149 130.593 52.5963 130.606 52.5718C130.606 52.5669 130.708 52.3612 130.606 52.5718C130.625 52.5278 130.557 52.6698 130.606 52.5718C130.605 52.5692 130.606 52.5665 130.606 52.5639C130.607 52.5614 130.609 52.5591 130.61 52.5571C130.708 52.3416 130.865 52.0133 131.056 51.6165C131.065 51.592 131.08 51.5675 131.09 51.5381C131.349 50.9991 131.611 50.3284 131.882 49.6582C132.327 48.6263 132.686 47.559 132.953 46.4672C132.956 46.4556 132.959 46.4442 132.963 46.4329C133.261 45.5932 133.305 45.434 133.202 44.8602C132.825 43.3954 131.948 42.109 130.723 41.2249L130.718 41.22" stroke="#121259" stroke-width="0.25" stroke-linecap="round" stroke-linejoin="round"/>
<path d="M134.174 42.4042C134.174 42.4042 135.4 44.8343 135.355 45.3874C135.124 46.9275 134.792 48.4506 134.361 49.9468C133.914 51.4014 133.394 52.8462 133.394 52.8462" stroke="#121259" stroke-width="0.25" stroke-linecap="round" stroke-linejoin="round"/>
<path d="M129.628 45.8578C129 47.0702 128.529 48.3583 128.228 49.6905C127.946 51.0174 128.046 52.3975 128.518 53.6693" stroke="#121259" stroke-width="0.25" stroke-linecap="round" stroke-linejoin="round"/>
<path d="M117.956 50.3201C117.956 50.3201 117.851 54.5252 118.597 56.5423" stroke="#121259" stroke-width="0.2" stroke-linecap="round" stroke-linejoin="round"/>
<path d="M73.0874 94.8956C74.6606 93.4032 76.0602 91.7373 77.2593 89.9296C78.4658 88.118 79.5759 86.2438 80.5851 84.3149C81.607 82.3797 82.737 80.5037 83.9696 78.6958C84.5663 77.7831 85.1571 76.8683 85.7034 75.9296C85.9766 75.4603 86.2375 74.9845 86.4859 74.5024L86.844 73.7729L87.0107 73.4025C87.0738 73.282 87.0851 73.1404 87.2753 73.0743C87.2984 73.0661 87.3238 73.0668 87.3463 73.0765C87.3689 73.0861 87.387 73.1038 87.3971 73.1262C87.4759 73.3089 87.3756 73.4162 87.3272 73.5446L87.1575 73.9209L86.7931 74.6602C86.5397 75.1482 86.2753 75.6291 85.9998 76.1031C85.4466 77.0501 84.8524 77.9697 84.2528 78.882C83.0105 80.6711 81.877 82.5336 80.8585 84.4594C79.8639 86.4104 78.7673 88.3074 77.5733 90.1427C76.3717 91.9861 74.9807 93.6983 73.4229 95.2513C73.3764 95.2968 73.3139 95.3219 73.2489 95.3212C73.184 95.3204 73.122 95.2939 73.0766 95.2474C73.0312 95.2008 73.0061 95.1382 73.0069 95.0731C73.0076 95.0081 73.0341 94.946 73.0805 94.9005L73.0874 94.8956Z" fill="#121259"/>
<path d="M91.3055 193.045C91.3195 193.382 91.2919 193.72 91.2234 194.051C91.1759 194.284 91.0821 194.506 90.9475 194.703C90.6251 195.072 90.2128 195.351 89.7507 195.514C88.4131 196.107 87.0519 196.654 85.6732 197.136C84.0833 197.694 82.4693 198.174 80.8312 198.576C79.1766 198.987 77.4991 199.316 75.8093 199.563C75.3573 199.628 74.9054 199.693 74.454 199.746C72.8154 199.98 71.1544 200.013 69.5078 199.844C69.0026 199.786 68.5024 199.689 68.0117 199.556C65.6592 198.926 63.629 197.475 61.6536 196.052C61.3341 195.853 61.0601 195.589 60.8495 195.277C60.6916 194.937 60.6435 194.556 60.7119 194.187C60.7803 193.818 60.9617 193.48 61.231 193.219C61.7754 192.707 62.421 192.314 63.1262 192.067C63.9885 191.697 64.8566 191.327 65.7184 190.957C66.2989 190.712 66.88 190.457 67.461 190.21C69.3264 189.411 71.1941 188.611 73.064 187.812C76.1267 186.502 79.1916 185.191 82.2589 183.88C83.0453 183.545 84.1306 182.863 85.1689 182.388C85.7283 182.1 86.3381 181.924 86.9644 181.87C88.3666 181.847 88.7481 183.163 89.3404 184.433C89.5034 184.78 89.656 185.132 89.7982 185.491C90.7608 187.895 91.2719 190.456 91.3055 193.045Z" fill="#FF9500"/>
<path d="M69.5098 199.846C69.0045 199.788 68.5044 199.691 68.0137 199.558C65.6611 198.928 63.6309 197.477 61.6555 196.054C61.336 195.855 61.062 195.591 60.8515 195.279C60.6936 194.939 60.6455 194.558 60.7139 194.189C60.7822 193.82 60.9637 193.482 61.233 193.221C61.7773 192.709 62.4229 192.316 63.1282 192.069C63.9904 191.699 64.8586 191.329 65.7203 190.959C66.2891 192.34 66.1957 194.426 66.6472 195.466C67.107 196.336 67.6856 197.137 68.3663 197.846C68.8842 198.424 69.2739 199.106 69.5098 199.846Z" fill="#FFC800"/>
<path d="M81.1443 197.212C81.1451 197.684 81.0387 198.151 80.8332 198.576C79.1786 198.987 77.5011 199.316 75.8113 199.563C75.42 199.205 75.1241 198.755 74.9504 198.254C74.7767 197.752 74.7306 197.216 74.8164 196.692C74.9022 196.168 75.1171 195.674 75.4417 195.254C75.7663 194.835 76.1903 194.503 76.6752 194.289C77.1601 194.075 77.6906 193.986 78.2187 194.029C78.7468 194.073 79.2557 194.248 79.6993 194.538C80.143 194.828 80.5073 195.224 80.7593 195.691C81.0112 196.158 81.1429 196.681 81.1423 197.212L81.1443 197.212Z" fill="#FFC800"/>
<path d="M73.8049 189.86C73.8135 190.68 73.5061 191.472 72.9468 192.07C72.3874 192.669 71.6192 193.028 70.802 193.073C69.9848 193.119 69.1816 192.847 68.5596 192.314C67.9376 191.781 67.5448 191.028 67.4629 190.212C69.3283 189.413 71.1959 188.614 73.0659 187.815C73.545 188.388 73.8067 189.112 73.8049 189.86Z" fill="#FFC800"/>
<path d="M81.1464 186.671C81.7763 186.671 82.392 186.858 82.9157 187.209C83.4394 187.56 83.8475 188.058 84.0885 188.641C84.3295 189.224 84.3925 189.865 84.2696 190.484C84.1466 191.103 83.8432 191.672 83.3978 192.118C82.9524 192.564 82.3848 192.868 81.767 192.991C81.1492 193.114 80.5089 193.051 79.9269 192.809C79.345 192.568 78.8476 192.159 78.4977 191.634C78.1477 191.109 77.9609 190.493 77.9609 189.862C77.9609 189.443 78.0433 189.028 78.2034 188.641C78.3635 188.253 78.5982 187.902 78.894 187.605C79.1898 187.309 79.5409 187.074 79.9274 186.914C80.3139 186.754 80.7281 186.671 81.1464 186.671Z" fill="#FFC800"/>
<path d="M89.7982 185.493C89.3493 185.729 88.85 185.852 88.3431 185.852C87.9248 185.852 87.5105 185.769 87.1239 185.609C86.7373 185.449 86.3861 185.214 86.0903 184.917C85.7944 184.621 85.5597 184.269 85.3996 183.882C85.2395 183.495 85.1572 183.08 85.1572 182.661C85.1572 182.572 85.1631 182.478 85.169 182.39C85.7283 182.103 86.3381 181.927 86.9644 181.873C88.3666 181.849 88.7481 183.166 89.3404 184.435C89.5047 184.782 89.6573 185.135 89.7982 185.493Z" fill="#FFC800"/>
<path d="M91.2239 194.051C91.1764 194.284 91.0826 194.506 90.948 194.703C90.6257 195.072 90.2134 195.351 89.7512 195.514C88.4136 196.107 87.0525 196.654 85.6737 197.136C85.3351 196.621 85.1554 196.018 85.1572 195.402C85.1573 194.677 85.4041 193.974 85.857 193.408C86.31 192.842 86.9419 192.448 87.6485 192.291C88.3552 192.133 89.0943 192.222 89.744 192.542C90.3936 192.862 90.915 193.394 91.2219 194.051H91.2239Z" fill="#FFC800"/>
<path d="M162.23 153.683C162.156 156.32 161.479 158.905 160.249 161.238C156.938 167.112 149.059 171.546 143.121 174.897C142.549 175.22 141.992 175.539 141.458 175.843C138.421 177.582 135.325 179.179 132.185 180.664C132.18 180.668 132.176 180.668 132.166 180.673C126.937 183.143 121.597 185.298 116.217 187.258C115.385 187.562 111.521 188.767 107.012 190.173C106.963 190.183 106.919 190.203 106.87 190.217C102.855 191.467 98.3503 192.873 95.0391 193.936C92.8089 194.646 91.1215 195.21 90.4857 195.465C90.482 195.465 90.4786 195.467 90.476 195.469C90.2999 195.538 90.207 195.587 90.207 195.607C90.2078 195.589 90.2061 195.57 90.2021 195.553C90.1727 194.72 90.1091 193.892 90.0015 193.074C89.6011 189.775 88.5823 186.582 86.9985 183.662C86.9923 183.646 86.9841 183.631 86.9741 183.618C86.7491 183.211 86.5143 182.814 86.2698 182.422C86.216 182.334 86.1622 182.251 86.1084 182.163C92.579 174.534 99.3317 167.161 106.366 160.042C106.369 160.042 106.371 160.041 106.373 160.039C106.375 160.037 106.376 160.035 106.376 160.032C111.3 155.045 116.352 150.201 121.533 145.501C123.612 143.606 125.711 141.736 127.832 139.891C131.413 136.775 135.188 133.644 139.566 132.228C140.565 131.902 141.594 131.677 142.637 131.557V131.552C149.67 130.71 156.449 134.614 159.604 140.636C161.34 143.94 162.479 148.947 162.23 153.683Z" fill="#A9A9C9"/>
<path d="M162.23 153.683C162.156 156.32 161.479 158.905 160.249 161.238C156.938 167.112 149.059 171.546 143.121 174.897C142.549 175.22 141.992 175.539 141.458 175.843C138.421 177.582 135.325 179.179 132.185 180.664C132.18 180.668 132.176 180.668 132.166 180.673C126.937 183.143 121.597 185.298 116.217 187.258C115.385 187.562 111.521 188.767 107.012 190.173C106.963 190.183 106.919 190.203 106.87 190.217C102.855 191.467 98.3503 192.873 95.0391 193.936C92.8089 194.646 91.1215 195.21 90.4857 195.465C90.482 195.465 90.4786 195.467 90.476 195.469C90.2999 195.538 90.207 195.587 90.207 195.607C90.2078 195.589 90.2061 195.57 90.2021 195.553C90.1727 194.72 90.1091 193.892 90.0015 193.074C89.6011 189.775 88.5823 186.582 86.9985 183.662C86.9923 183.646 86.9841 183.631 86.9741 183.618C86.7491 183.211 86.5143 182.814 86.2698 182.422C86.216 182.334 86.1622 182.251 86.1084 182.163C92.579 174.534 99.3317 167.161 106.366 160.042C106.369 160.042 106.371 160.041 106.373 160.039C106.375 160.037 106.376 160.035 106.376 160.032C111.3 155.045 116.352 150.201 121.533 145.501C123.612 143.606 125.711 141.736 127.832 139.891C131.413 136.775 135.188 133.644 139.566 132.228C140.565 131.902 141.594 131.677 142.637 131.557V131.552C149.67 130.71 156.449 134.614 159.604 140.636C161.34 143.94 162.479 148.947 162.23 153.683Z" fill="#1E88E5"/>
<path d="M86.1992 182.499C88.5619 185.683 89.8948 189.516 90.019 193.481C90.0013 194.213 90.0595 194.944 90.1926 195.663" stroke="#121259" stroke-width="0.2" stroke-miterlimit="10"/>
<path d="M86.1992 182.499C86.1992 182.499 111.796 152.455 122.729 144.586" stroke="#121259" stroke-width="0.2" stroke-linecap="round" stroke-linejoin="round"/>
<path d="M89.3643 179.075C92.5388 183.451 94.4981 188.592 95.0426 193.975" stroke="#121259" stroke-width="0.2" stroke-linecap="round" stroke-linejoin="round"/>
<path d="M90.1885 195.554C102.161 191.83 132.304 182.499 143.612 174.564" stroke="#121259" stroke-width="0.2" stroke-linecap="round" stroke-linejoin="round"/>
<path d="M162.229 153.683C161.166 154.461 159.962 155.025 158.684 155.344C154.766 156.368 150.472 155.383 147.112 153.124C146.055 152.46 145.144 151.586 144.436 150.557C143.566 149.205 143.248 147.583 142.979 146C142.555 143.512 142.21 141.013 141.942 138.504C141.732 136.525 141.468 133.468 142.637 131.557V131.552C149.67 130.71 156.448 134.614 159.603 140.636C161.339 143.94 162.479 148.947 162.229 153.683Z" fill="#1976D2"/>
<path d="M138.493 187.267L135.228 193.71" stroke="#5B5F97" stroke-width="2" stroke-linecap="round" stroke-linejoin="round"/>
<path d="M143.268 188.354L141.149 195.194" stroke="#5B5F97" stroke-width="2" stroke-linecap="round" stroke-linejoin="round"/>
<path d="M148.802 189.326L147.426 196.339" stroke="#5B5F97" stroke-width="2" stroke-linecap="round" stroke-linejoin="round"/>
<path d="M155.318 189.577L154.445 196.674" stroke="#5B5F97" stroke-width="2" stroke-linecap="round" stroke-linejoin="round"/>
<path d="M160.736 189.663L161.176 196.849" stroke="#5B5F97" stroke-width="2" stroke-linecap="round" stroke-linejoin="round"/>
<path d="M117.507 131.47C112.515 136.706 106.365 140.998 99.4052 142.949C92.4449 144.9 84.6347 144.332 78.459 140.57" stroke="#121259" stroke-width="0.2" stroke-linecap="round" stroke-linejoin="round"/>
<path d="M96.5107 154.735C96.4364 154.91 96.1894 154.703 96.1424 154.519C95.7622 152.967 95.7202 151.352 96.0194 149.783C96.3186 148.213 96.9519 146.727 97.8763 145.425C98.829 144.075 99.4188 143.604 99.568 142.022C99.7001 140.618 99.4702 139.336 99.9241 137.912C100.391 136.442 101.379 135.052 102.818 134.498C102.989 134.409 103.18 134.365 103.372 134.369C103.565 134.374 103.753 134.428 103.92 134.525C104.141 134.744 104.27 135.039 104.282 135.35C104.632 137.799 103.147 143.068 99.9681 143.036C98.6021 143.022 96.8947 141.534 95.7326 140.92C94.032 140.02 92.219 138.894 90.2333 138.892C90.0445 138.872 89.8536 138.894 89.675 138.959C89.4964 139.023 89.3348 139.128 89.2028 139.265C89.095 139.473 89.0496 139.708 89.072 139.941C89.0944 140.174 89.1836 140.396 89.329 140.58C90.4167 142.36 92.6787 142.962 94.7319 143.319C96.0774 143.553 97.484 143.744 98.7879 143.339C98.9699 143.298 99.1346 143.201 99.2584 143.062C99.3582 142.891 99.4042 142.695 99.3905 142.498L99.3934 142.377" stroke="#121259" stroke-width="0.2" stroke-linecap="round" stroke-linejoin="round"/>
<path d="M99.1719 143.61C100.366 144.006 101.358 144.856 101.931 145.978C102.23 146.64 102.461 147.332 102.618 148.042C103.175 150.128 104.112 152.429 106.14 153.165" stroke="#121259" stroke-width="0.2" stroke-linecap="round" stroke-linejoin="round"/>
<path d="M76.3189 48.7474C76.3189 48.7474 66.0539 41.8858 64.8781 43.5541C63.7024 45.2223 76.3189 48.7474 76.3189 48.7474Z" fill="white"/>
<path d="M77.0558 49.7812C77.0558 49.7812 64.7499 48.8503 64.5425 50.8821C64.3352 52.9138 77.0558 49.7812 77.0558 49.7812Z" fill="white"/>
<path d="M77.6361 50.4656C77.6361 50.4656 66.2208 55.1626 66.9441 57.07C67.6675 58.9773 77.6361 50.4656 77.6361 50.4656Z" fill="white"/>
</g>
<defs>
<linearGradient id="paint0_linear" x1="91.8491" y1="47.255" x2="92.6373" y2="70.5878" gradientUnits="userSpaceOnUse">
<stop stop-color="#F8AA97" stop-opacity="0"/>
<stop offset="0.997" stop-color="#F07C7F"/>
</linearGradient>
<linearGradient id="paint1_linear" x1="82.7191" y1="11.7035" x2="63.5273" y2="13.3497" gradientUnits="userSpaceOnUse">
<stop stop-color="#121259"/>
<stop offset="0.997" stop-color="#5B5F97" stop-opacity="0.4"/>
</linearGradient>
<linearGradient id="paint2_linear" x1="73.0078" y1="7.60221" x2="44.466" y2="24" gradientUnits="userSpaceOnUse">
<stop stop-color="#121259"/>
<stop offset="0.997" stop-color="#5B5F97" stop-opacity="0.4"/>
</linearGradient>
<linearGradient id="paint3_linear" x1="78.5964" y1="9.95984" x2="57.5475" y2="12.9458" gradientUnits="userSpaceOnUse">
<stop stop-color="#121259"/>
<stop offset="0.997" stop-color="#5B5F97" stop-opacity="0.4"/>
</linearGradient>
<linearGradient id="paint4_linear" x1="69.0184" y1="69.3415" x2="93.8539" y2="53.4791" gradientUnits="userSpaceOnUse">
<stop stop-color="#121259"/>
<stop offset="0.997" stop-color="#5B5F97" stop-opacity="0.4"/>
</linearGradient>
<linearGradient id="paint5_linear" x1="76.9131" y1="70.8681" x2="88.1627" y2="69.2986" gradientUnits="userSpaceOnUse">
<stop stop-color="#121259"/>
<stop offset="0.997" stop-color="#5B5F97" stop-opacity="0.4"/>
</linearGradient>
<linearGradient id="paint6_linear" x1="71.6259" y1="7.01864" x2="43.144" y2="22.9383" gradientUnits="userSpaceOnUse">
<stop stop-color="#121259"/>
<stop offset="0.997" stop-color="#5B5F97" stop-opacity="0.4"/>
</linearGradient>
<linearGradient id="paint7_linear" x1="91.7789" y1="26.3714" x2="92.4955" y2="8.40861" gradientUnits="userSpaceOnUse">
<stop stop-color="#121259"/>
<stop offset="0.997" stop-color="#5B5F97" stop-opacity="0.4"/>
</linearGradient>
<linearGradient id="paint8_linear" x1="94.5965" y1="22.9264" x2="95.1686" y2="6.1645" gradientUnits="userSpaceOnUse">
<stop stop-color="#121259"/>
<stop offset="0.997" stop-color="#5B5F97" stop-opacity="0.4"/>
</linearGradient>
<linearGradient id="paint9_linear" x1="102.838" y1="45.9551" x2="109.563" y2="3.27967" gradientUnits="userSpaceOnUse">
<stop stop-color="#121259"/>
<stop offset="0.997" stop-color="#5B5F97" stop-opacity="0.4"/>
</linearGradient>
<linearGradient id="paint10_linear" x1="123.509" y1="32.7852" x2="125.44" y2="22.6371" gradientUnits="userSpaceOnUse">
<stop stop-color="#121259"/>
<stop offset="0.997" stop-color="#5B5F97" stop-opacity="0.4"/>
</linearGradient>
<linearGradient id="paint11_linear" x1="108.477" y1="59.9134" x2="113.136" y2="49.6627" gradientUnits="userSpaceOnUse">
<stop stop-color="#121259"/>
<stop offset="0.997" stop-color="#5B5F97" stop-opacity="0.4"/>
</linearGradient>
<linearGradient id="paint12_linear" x1="110.838" y1="58.613" x2="117.428" y2="47.4132" gradientUnits="userSpaceOnUse">
<stop stop-color="#121259"/>
<stop offset="0.997" stop-color="#5B5F97" stop-opacity="0.4"/>
</linearGradient>
<linearGradient id="paint13_linear" x1="114.525" y1="55.3082" x2="124.159" y2="44.7503" gradientUnits="userSpaceOnUse">
<stop stop-color="#121259"/>
<stop offset="0.997" stop-color="#5B5F97" stop-opacity="0.4"/>
</linearGradient>
<linearGradient id="paint14_linear" x1="118.425" y1="51.1379" x2="127.552" y2="41.855" gradientUnits="userSpaceOnUse">
<stop stop-color="#121259"/>
<stop offset="0.997" stop-color="#5B5F97" stop-opacity="0.4"/>
</linearGradient>
<linearGradient id="paint15_linear" x1="104.268" y1="10.806" x2="104.725" y2="1.19235" gradientUnits="userSpaceOnUse">
<stop stop-color="#121259"/>
<stop offset="0.997" stop-color="#5B5F97" stop-opacity="0.4"/>
</linearGradient>
<linearGradient id="paint16_linear" x1="130.877" y1="49.7956" x2="127.17" y2="49.8609" gradientUnits="userSpaceOnUse">
<stop stop-color="#F8AA97" stop-opacity="0"/>
<stop offset="0.997" stop-color="#F07C7F"/>
</linearGradient>
<clipPath id="clip0">
<rect width="180" height="200" fill="white" transform="translate(0.666992)"/>
</clipPath>
</defs>
</svg>
