<svg width="347" height="318" viewBox="0 0 347 318" fill="none" xmlns="http://www.w3.org/2000/svg">
<path d="M278.281 131.705C280.983 133.646 284.254 134.63 287.576 134.499C290.898 134.369 294.082 133.132 296.625 130.985C299.914 128.11 302.077 124.155 302.726 119.828C303.174 117.123 302.993 114.351 302.2 111.727C301.406 109.103 300.02 106.698 298.15 104.698C296.302 102.844 293.973 101.545 291.427 100.951C288.881 100.356 286.219 100.489 283.745 101.334C271.969 105.559 268.208 124.045 278.281 131.705Z" fill="#FFD026"/>
<path d="M275.746 100.63L274.383 101.186L283.439 123.48L284.802 122.924L275.746 100.63Z" fill="black"/>
<path d="M312.255 106.562L285.802 117.927L286.382 119.283L312.834 107.918L312.255 106.562Z" fill="black"/>
<path d="M292.518 101.366L252.063 199.25L253.422 199.815L293.877 101.931L292.518 101.366Z" fill="black"/>
<path d="M292.337 148.371C292.311 151.043 293.173 153.647 294.787 155.773C296.401 157.898 298.676 159.424 301.25 160.109C304.644 160.95 308.226 160.552 311.354 158.987C313.329 158.037 315.059 156.643 316.41 154.913C317.76 153.184 318.695 151.165 319.142 149.015C319.505 146.945 319.283 144.815 318.5 142.866C317.717 140.916 316.405 139.226 314.713 137.987C306.536 132.187 292.715 138.22 292.337 148.371Z" fill="#FFD026"/>
<path d="M302.51 148.856L301.922 150.207L319.686 157.987L320.275 156.636L302.51 148.856Z" fill="black"/>
<path d="M297.615 133.642L296.144 133.654L296.341 151.828L297.812 151.816L297.615 133.642Z" fill="black"/>
<path d="M318.093 142.213L267.794 162.497L268.343 163.866L318.642 143.582L318.093 142.213Z" fill="black"/>
<path d="M260.128 57.0566H171.902V119.911H260.128V57.0566Z" fill="#A8DADC"/>
<path d="M213.269 177.343C212.177 177.343 211.089 177.201 210.033 176.921C205.336 175.683 201.374 171.516 199.693 166.046C198.062 160.734 198.651 155.162 199.346 150.901C201.345 138.575 206.131 126.871 213.338 116.688C220.545 106.504 229.981 98.1111 240.924 92.152C239.546 90.0356 237.658 88.3023 235.434 87.1127C229.676 84.145 222.134 85.2523 213.005 90.4038C199.925 97.9583 188.872 108.589 180.798 121.38C172.725 134.171 167.873 148.739 166.661 163.828L165.193 163.724C166.423 148.392 171.352 133.589 179.555 120.592C187.759 107.595 198.99 96.7938 212.283 89.1194C221.866 83.7094 229.882 82.5927 236.106 85.8024C238.61 87.1163 240.734 89.0552 242.274 91.4319C250.601 87.0747 259.612 84.1847 268.914 82.8878L269.116 84.3492C260.016 85.6179 251.2 88.4389 243.05 92.6903C245.168 96.4206 246.745 101.78 246.941 109.491C247.373 128.897 241.989 147.987 231.485 164.291C229.077 168.136 225.966 171.491 222.318 174.18C219.697 176.14 216.537 177.245 213.269 177.343ZM241.704 93.4045C230.94 99.2525 221.655 107.498 214.564 117.506C207.472 127.515 202.763 139.02 200.797 151.139C200.129 155.241 199.559 160.592 201.1 165.612C202.63 170.598 206.199 174.385 210.408 175.493C219.97 178.011 228.017 166.94 230.257 163.486C240.598 147.432 245.898 128.634 245.471 109.526C245.28 101.993 243.692 96.8762 241.704 93.4045Z" fill="white"/>
<path d="M260.128 57.3609H171.902V69.5656H260.128V57.3609Z" fill="#16A75C"/>
<path d="M298.424 199.53C298.424 199.53 286.06 132.069 242.577 132.069C199.095 132.069 186.471 199.53 186.471 199.53" fill="#16A75C"/>
<path d="M94.5278 89.7047C91.5924 88.8642 89.8492 93.9981 88.9335 98.1426L83.9677 91.3172L67.439 102.369L72.5554 119.668L94.7267 106.106C94.7267 106.106 100.113 91.3054 94.5278 89.7047Z" fill="#E99C72"/>
<path d="M222.054 123.09V158.778L210.572 171.493L185.253 199.53H133.096L135.2 150.719L222.054 123.09Z" fill="#FFD026"/>
<path d="M193.593 104.578L190.062 118.603L154.643 116.378L158.88 105.5L161.869 80.0166L186.366 63.9825L193.593 104.578Z" fill="#F0BC9F"/>
<path d="M176.116 79.9288C174.67 83.6701 172.49 87.0826 169.706 89.9645C166.922 92.8463 163.59 95.1388 159.907 96.7066L161.776 80.787L169.082 75.9743C171.441 77.2964 173.706 78.5996 176.116 79.9288Z" fill="black"/>
<path d="M189.584 51.2922L189.013 52.7973L178.363 81.0609C178.363 81.0609 163.976 95.9347 149.132 82.8729C140.893 75.6072 138.53 56.3387 142.619 41.2359C142.752 40.7531 142.886 40.2809 143.029 39.8099L143.092 39.5986C143.119 39.5054 143.149 39.4074 143.181 39.3118C143.196 39.2669 143.209 39.2173 143.225 39.1701C143.401 38.6259 143.586 38.0841 143.784 37.5529C143.915 37.1681 144.054 36.7986 144.207 36.4303C144.393 35.9475 144.595 35.4706 144.795 35.0031C146.971 30.031 150.02 25.9372 153.976 23.5102C154.873 22.953 155.823 22.4864 156.812 22.1173C157.27 21.9424 157.737 21.7914 158.211 21.6652C158.591 21.5589 158.983 21.4692 159.375 21.3925C160.434 21.1902 161.51 21.0894 162.588 21.0914C162.691 21.0914 162.794 21.0914 162.9 21.0914C172.403 21.1587 178.517 25.0294 182.454 29.9602C187.429 36.1812 188.927 44.1115 189.378 48.3364C189.393 48.4898 189.411 48.6338 189.424 48.7779L189.443 48.9856L189.472 49.3988C189.501 49.7883 189.523 50.1283 189.539 50.4069C189.565 50.7917 189.571 51.062 189.576 51.1931C189.584 51.2603 189.584 51.2922 189.584 51.2922Z" fill="#F0BC9F"/>
<path d="M251.324 176.507L162.939 145.653C162.939 145.653 152.379 183.206 133.261 195.607C131.103 197.037 128.735 198.12 126.244 198.817C124.511 199.289 122.724 199.53 120.929 199.532C101.889 199.532 82.1493 161.456 72.2742 139.295C68.2229 130.198 65.8301 123.782 65.8301 123.782L98.1978 103.98L105.274 115.076L118.172 135.295C118.172 135.295 128.503 116.183 134.699 110.658C140.895 105.132 158.575 105.591 158.575 105.591C163.854 125.393 193.7 104.67 193.7 104.67C193.7 104.67 215.769 103.059 222.855 105.821C231.123 109.044 259.245 155.772 251.324 176.507Z" fill="#FFD026"/>
<path d="M210.571 171.494L185.253 199.531H175.766L165.235 161.196L200.589 147.841L205.415 133.336L210.571 171.494Z" fill="#A39B13"/>
<path d="M159.443 175.967C154.265 177.458 150.876 176.276 150.498 173.488C150.185 171.197 158.175 169.38 165.179 168.868C168.544 168.569 171.889 168.072 175.197 167.379" fill="#F0BC9F"/>
<path d="M175.193 167.376L184.469 193.028C184.469 193.028 155.279 198.86 152.66 196.137C152.44 195.975 152.257 195.769 152.121 195.532C151.985 195.295 151.9 195.032 151.871 194.76C151.842 194.488 151.87 194.214 151.954 193.953C152.037 193.693 152.173 193.453 152.354 193.248C152.354 193.248 149.47 194.193 148.198 192.906C147.842 192.523 147.62 192.034 147.565 191.513C147.51 190.992 147.624 190.467 147.892 190.017C147.892 190.017 145.284 190.471 145.067 188.037C144.832 185.377 152.026 180.38 159.441 175.968" fill="#F0BC9F"/>
<path d="M148.389 190.563L147.397 189.473C150.64 186.683 154.274 184.387 158.184 182.66L158.781 184.008C155.02 185.68 151.52 187.887 148.389 190.563Z" fill="black"/>
<path d="M152.744 193.87L151.955 192.625C154.864 190.798 157.901 189.186 161.043 187.8L161.616 189.16C158.551 190.518 155.586 192.092 152.744 193.87Z" fill="black"/>
<path d="M163.998 0.241351C165.552 -0.10328 167.164 -0.0785242 168.705 0.313652C170.247 0.705828 171.676 1.45453 172.878 2.49984C174.08 3.54515 175.021 4.85805 175.626 6.33347C176.231 7.8089 176.483 9.40589 176.362 10.9966C176.242 12.5874 175.752 14.1278 174.931 15.4944C174.11 16.8611 172.982 18.0162 171.637 18.8673C170.291 19.7183 168.766 20.2417 167.183 20.3955C165.599 20.5493 164.002 20.3293 162.519 19.7531C153.312 16.1751 154.359 2.38152 163.998 0.241351Z" fill="black"/>
<path d="M251.324 176.507C245.872 191.286 218.85 196.58 200.197 198.475C189.796 199.538 181.995 199.538 181.995 199.538L171.894 163.159L185.439 158.228L205.412 150.956V133.226L251.324 176.507Z" fill="#FFD026"/>
<path d="M135.163 150.718L133.262 195.606C131.104 197.037 128.735 198.12 126.243 198.816L135.163 150.718Z" fill="#A39B13"/>
<path d="M117.447 86.3361C128.867 78.7588 132.001 63.3311 124.445 51.8774C116.89 40.4237 101.508 37.2813 90.0874 44.8586C78.6671 52.4359 75.5339 67.8636 83.089 79.3173C90.6442 90.771 106.027 93.9134 117.447 86.3361Z" fill="#16A75C"/>
<path d="M66.3411 113.445C65.7342 112.968 65.2301 112.373 64.859 111.695C64.4879 111.017 64.2575 110.27 64.1819 109.501C64.1062 108.731 64.1867 107.954 64.4187 107.216C64.6506 106.479 65.0291 105.796 65.5313 105.209L95.3096 70.3999L101.092 74.9447L74.5048 112.267C74.0565 112.896 73.486 113.427 72.8276 113.829C72.1692 114.23 71.4365 114.494 70.6737 114.604C69.9109 114.714 69.1339 114.668 68.3892 114.469C67.6446 114.27 66.9479 113.922 66.3411 113.445Z" fill="#16A75C"/>
<path d="M118.403 77.1007C116.272 79.8227 113.429 81.8965 110.191 83.0899C106.952 84.2833 103.446 84.5493 100.066 83.8581C96.6851 83.1669 93.563 81.5458 91.0488 79.1762C88.5346 76.8066 86.7275 73.782 85.8298 70.4409C84.932 67.0998 84.9791 63.5741 85.9657 60.2583C86.9523 56.9426 88.8395 53.9676 91.4161 51.6663C93.9927 49.3651 97.157 47.8284 100.555 47.2283C103.953 46.6281 107.45 46.9882 110.656 48.2681C112.16 48.8733 113.579 49.6716 114.879 50.6432C114.996 50.7341 115.114 50.8262 115.238 50.9194C117.161 52.4287 118.77 54.3036 119.97 56.4369C121.171 58.5702 121.94 60.92 122.234 63.3518C122.528 65.7836 122.341 68.2497 121.683 70.6089C121.026 72.9681 119.911 75.1741 118.403 77.1007Z" fill="#A8DADC"/>
<g opacity="0.5">
<path opacity="0.5" d="M114.878 50.6443L105.899 84.1196C102.337 84.5316 98.7333 83.9029 95.5198 82.3093C92.3062 80.7156 89.6202 78.2248 87.7847 75.1364L110.654 48.2657C112.159 48.8718 113.579 49.6714 114.878 50.6443Z" fill="white"/>
</g>
<g opacity="0.5">
<path opacity="0.5" d="M118.402 77.1007C117.366 78.4294 116.155 79.6104 114.801 80.6114L117.291 52.7951C120.347 56.0424 122.139 60.2811 122.343 64.7412C122.547 69.2012 121.149 73.5867 118.402 77.1007Z" fill="white"/>
</g>
<g opacity="0.5">
<path opacity="0.5" d="M105.387 47.0163L85.564 61.7721C86.5003 57.3083 89.0337 53.3429 92.6858 50.6244C96.3379 47.9059 100.856 46.6224 105.387 47.0163Z" fill="white"/>
</g>
<path d="M86.2605 104.526C86.4173 104.743 86.5272 104.991 86.5832 105.253C86.6392 105.515 86.64 105.787 86.5856 106.049C86.5313 106.312 86.4229 106.56 86.2674 106.779C86.1119 106.997 85.9127 107.181 85.6826 107.317C84.0265 108.734 69.2657 105.909 67.4766 103.344C64.9661 99.74 75.1354 86.6039 81.0122 86.9534C85.6814 87.2308 94.3736 97.5774 93.8851 100.146C93.439 102.501 90.9367 101.799 90.9367 101.799C91.1543 102.264 91.2155 102.788 91.1111 103.291C91.0067 103.795 90.7423 104.251 90.3576 104.591C88.9864 105.736 86.2605 104.526 86.2605 104.526Z" fill="#F0BC9F"/>
<path d="M90.3861 102.298C87.5867 99.382 84.3829 96.8853 80.8735 94.8852L81.6009 93.6021C85.2543 95.6712 88.5833 98.2694 91.4807 101.313L90.3861 102.298Z" fill="black"/>
<path d="M85.8064 105.107C83.2032 103.092 80.4605 101.266 77.5991 99.6424L78.3053 98.3439C81.2397 100.006 84.05 101.88 86.7139 103.951L85.8064 105.107Z" fill="black"/>
<path d="M145.723 65.0014C144.238 65.0017 142.786 64.5602 141.552 63.733C140.317 62.9057 139.354 61.7297 138.786 60.3538C138.217 58.9779 138.068 57.4638 138.358 56.003C138.648 54.5422 139.363 53.2004 140.413 52.1471C141.463 51.0939 142.8 50.3766 144.257 50.086C145.713 49.7953 147.223 49.9444 148.595 50.5143C149.967 51.0842 151.14 52.0493 151.965 53.2877C152.79 54.526 153.23 55.982 153.23 57.4713C153.228 59.4675 152.436 61.3811 151.029 62.7927C149.621 64.2043 147.713 64.9986 145.723 65.0014ZM145.723 51.4168C144.529 51.4165 143.362 51.7714 142.369 52.4366C141.376 53.1017 140.602 54.0472 140.145 55.1535C139.688 56.2598 139.568 57.4772 139.801 58.6518C140.034 59.8263 140.609 60.9053 141.453 61.7521C142.297 62.599 143.373 63.1757 144.544 63.4094C145.715 63.6432 146.929 63.5233 148.032 63.0651C149.135 62.6069 150.078 61.8309 150.741 60.8352C151.405 59.8395 151.759 58.6689 151.759 57.4713C151.756 55.867 151.119 54.3291 149.988 53.1949C148.856 52.0606 147.323 51.4225 145.723 51.4203V51.4168Z" fill="#212121"/>
<path d="M162.711 65.0014C161.226 65.0014 159.774 64.5598 158.539 63.7324C157.305 62.905 156.342 61.7289 155.774 60.353C155.206 58.977 155.057 57.463 155.347 56.0023C155.637 54.5416 156.352 53.1998 157.402 52.1467C158.452 51.0936 159.79 50.3764 161.246 50.0859C162.702 49.7953 164.212 49.9445 165.584 50.5144C166.956 51.0843 168.129 52.0495 168.954 53.2878C169.779 54.5261 170.219 55.982 170.219 57.4713C170.216 59.4677 169.425 61.3815 168.017 62.7932C166.61 64.2048 164.701 64.999 162.711 65.0014ZM162.711 51.4168C161.517 51.4168 160.35 51.7719 159.357 52.4371C158.364 53.1024 157.59 54.048 157.133 55.1544C156.677 56.2607 156.557 57.478 156.79 58.6525C157.023 59.827 157.598 60.9058 158.442 61.7525C159.286 62.5993 160.362 63.1759 161.533 63.4095C162.704 63.6432 163.918 63.5233 165.021 63.065C166.124 62.6067 167.067 61.8307 167.73 60.8351C168.394 59.8394 168.748 58.6688 168.748 57.4713C168.745 55.8668 168.108 54.3287 166.976 53.1945C165.845 52.0602 164.311 51.4222 162.711 51.4203V51.4168Z" fill="#212121"/>
<path d="M155.939 56.6173H152.495V58.0929H155.939V56.6173Z" fill="#212121"/>
<path d="M187.022 46.3561L169.115 56.7153L169.85 57.9935L187.757 47.6342L187.022 46.3561Z" fill="#212121"/>
<path d="M189.39 48.3411C182.738 48.5778 176.205 46.5283 170.873 42.5322C165.541 38.5361 161.73 32.8332 160.072 26.3681C156.003 32.4172 150.071 36.9635 143.183 39.3118C143.198 39.2669 143.211 39.2174 143.228 39.1701C143.403 38.626 143.588 38.0841 143.787 37.5529C143.918 37.1681 144.056 36.7986 144.209 36.4303C144.395 35.9475 144.598 35.4706 144.798 35.0031C146.973 30.0311 150.023 25.9372 153.979 23.5102C154.875 22.953 155.825 22.4864 156.814 22.1173C157.272 21.9424 157.739 21.7914 158.213 21.6652C158.594 21.5589 158.986 21.4692 159.378 21.3925C160.437 21.1902 161.513 21.0894 162.591 21.0914C162.693 21.0914 162.797 21.0914 162.903 21.0914C172.406 21.1587 178.519 25.0295 182.456 29.9602C187.441 36.186 188.937 44.1163 189.39 48.3411Z" fill="black"/>
<path d="M183.483 50.2902C184.042 49.4594 184.813 48.7932 185.715 48.36C186.616 47.9268 187.617 47.7423 188.613 47.8254C190.618 48.0281 192.472 48.9857 193.8 50.505C195.354 52.204 196.276 54.3881 196.412 56.6894C196.548 58.9908 195.888 61.2687 194.545 63.1395C193.202 65.0102 191.256 66.3594 189.037 66.9597C186.818 67.56 184.46 67.3748 182.361 66.4352" fill="#F0BC9F"/>
<path d="M189.874 61.0617L188.407 60.9554C188.485 59.7493 188.314 58.54 187.903 57.4036C187.493 56.2672 186.853 55.2282 186.022 54.352L186.57 53.1031L191.008 53.2117L190.972 54.6872L188.123 54.6164C189.406 56.5095 190.022 58.7777 189.874 61.0617Z" fill="black"/>
<path d="M171.845 124.272C166.948 124.353 162.152 122.868 158.153 120.031C152.526 115.841 149.729 108.564 151.355 102.336L152.778 102.709C151.302 108.375 153.872 115.006 159.03 118.846C163.704 122.326 170.383 123.613 176.899 122.285C183.087 120.851 188.803 117.843 193.495 113.549C198.208 109.241 202.519 104.51 206.373 99.4146L207.519 100.34C203.61 105.506 199.236 110.302 194.454 114.667C189.573 119.127 183.627 122.25 177.192 123.733C175.432 124.092 173.641 124.272 171.845 124.272Z" fill="black"/>
<path d="M105.278 115.076L72.2742 139.295C68.2229 130.198 65.8301 123.782 65.8301 123.782L98.1978 103.98L105.278 115.076Z" fill="white"/>
<path d="M200.197 198.475C189.796 199.538 181.995 199.538 181.995 199.538L171.894 163.16L185.439 158.228L200.197 198.475Z" fill="white"/>
<path d="M75.2674 131.16C74.6563 131.16 74.0589 130.978 73.5509 130.637C73.0428 130.297 72.6468 129.813 72.4129 129.247C72.1791 128.68 72.1179 128.057 72.2371 127.456C72.3563 126.855 72.6506 126.303 73.0827 125.87C73.5148 125.436 74.0653 125.141 74.6646 125.022C75.2639 124.902 75.8852 124.963 76.4497 125.198C77.0143 125.433 77.4968 125.83 77.8363 126.339C78.1758 126.849 78.357 127.448 78.357 128.061C78.3561 128.882 78.0303 129.67 77.451 130.251C76.8718 130.832 76.0865 131.159 75.2674 131.16ZM75.2674 126.438C74.9473 126.438 74.6344 126.533 74.3682 126.711C74.1021 126.89 73.8947 127.143 73.7722 127.44C73.6497 127.736 73.6176 128.063 73.6801 128.377C73.7425 128.692 73.8967 128.982 74.123 129.209C74.3493 129.436 74.6377 129.59 74.9516 129.653C75.2656 129.715 75.591 129.683 75.8867 129.56C76.1824 129.438 76.4352 129.23 76.613 128.963C76.7908 128.696 76.8857 128.382 76.8857 128.061C76.8851 127.631 76.7144 127.218 76.411 126.914C76.1077 126.61 75.6964 126.438 75.2674 126.438Z" fill="black"/>
<path d="M187.966 193.134C187.355 193.134 186.757 192.952 186.249 192.612C185.741 192.271 185.345 191.787 185.111 191.221C184.877 190.655 184.816 190.032 184.935 189.431C185.055 188.829 185.349 188.277 185.781 187.844C186.213 187.411 186.764 187.115 187.363 186.996C187.962 186.876 188.583 186.938 189.148 187.172C189.713 187.407 190.195 187.804 190.535 188.314C190.874 188.823 191.055 189.422 191.055 190.035C191.055 190.857 190.729 191.644 190.15 192.225C189.57 192.806 188.785 193.133 187.966 193.134ZM187.966 188.412C187.646 188.412 187.333 188.507 187.066 188.685C186.8 188.864 186.593 189.117 186.47 189.414C186.348 189.71 186.316 190.037 186.378 190.352C186.441 190.667 186.595 190.956 186.821 191.183C187.048 191.41 187.336 191.564 187.65 191.627C187.964 191.69 188.289 191.657 188.585 191.535C188.881 191.412 189.133 191.204 189.311 190.937C189.489 190.67 189.584 190.356 189.584 190.035C189.583 189.605 189.413 189.192 189.109 188.888C188.806 188.584 188.395 188.413 187.966 188.412Z" fill="black"/>
<path d="M39.0051 199.214C33.8133 191.526 29.2724 185.22 27.2997 176.15C25.327 167.079 26.1498 157.123 31.0661 149.26C35.9825 141.397 45.4256 136.137 54.5604 137.609C62.6241 138.908 69.2577 145.046 73.223 152.211C77.1884 159.377 78.9044 167.531 80.5711 175.55C82.2415 171.979 84.9313 168.985 88.2998 166.948C91.6683 164.912 95.5637 163.923 99.4927 164.109C103.413 164.423 107.169 165.827 110.338 168.164C113.507 170.501 115.963 173.678 117.43 177.337C118.799 181.035 119.183 185.027 118.543 188.919C117.903 192.811 116.262 196.469 113.782 199.53" fill="#16A75C"/>
<path d="M200.551 200C198.409 197.375 196.993 194.232 196.445 190.886C195.896 187.54 196.234 184.107 197.424 180.933C198.677 177.772 200.79 175.028 203.523 173.013C206.256 170.999 209.499 169.796 212.881 169.542C215.919 169.416 218.938 170.092 221.634 171.502C224.331 172.911 226.612 175.006 228.249 177.576C229.507 171.611 230.956 165.546 233.978 160.093C237.732 153.313 243.69 148.665 249.918 147.662C257.358 146.463 265.643 150.559 270.061 157.622C273.909 163.769 275.079 172.064 273.271 180.381C271.71 187.559 268.259 192.658 264.262 198.55L263.495 199.686L262.276 198.86L263.046 197.723C266.956 191.953 270.333 186.969 271.834 180.068C273.559 172.127 272.46 164.232 268.816 158.409C264.696 151.834 257.026 148.013 250.151 149.122C244.366 150.054 238.801 154.424 235.264 160.809C232.014 166.676 230.62 173.387 229.271 179.877L227.878 180.024C226.555 177.216 224.433 174.863 221.78 173.26C219.127 171.657 216.061 170.876 212.967 171.015C209.872 171.275 206.909 172.39 204.408 174.236C201.906 176.081 199.963 178.586 198.793 181.472C197.721 184.404 197.424 187.566 197.931 190.648C198.438 193.73 199.732 196.628 201.686 199.06L200.551 200Z" fill="black"/>
<path d="M214.591 39.2992C214.212 39.2989 213.832 39.2784 213.455 39.2378C211.326 39.0159 209.362 37.9826 207.97 36.3512C206.578 34.7197 205.863 32.6145 205.973 30.4699C206.083 28.3254 207.01 26.305 208.562 24.8258C210.114 23.3465 212.173 22.5212 214.314 22.5202H214.358C215.846 22.4424 217.326 22.7892 218.626 23.5204C219.926 24.2517 220.993 25.3374 221.703 26.6518C222.446 28.0959 222.794 29.712 222.712 31.3352C222.629 32.9585 222.118 34.5306 221.232 35.8912C220.505 36.9781 219.513 37.8614 218.351 38.4576C217.19 39.0539 215.895 39.3435 214.591 39.2992ZM213.612 37.7646C214.824 37.9681 216.069 37.8219 217.201 37.3428C218.334 36.8638 219.307 36.0717 220.008 35.0589C220.749 33.9227 221.177 32.6095 221.246 31.2534C221.316 29.8972 221.026 28.5468 220.405 27.34C219.816 26.2656 218.935 25.3807 217.864 24.7878C216.794 24.1949 215.578 23.9183 214.357 23.9898H214.32C212.559 23.9959 210.867 24.6785 209.593 25.8971C208.318 27.1158 207.557 28.778 207.467 30.542C207.376 32.3059 207.963 34.0376 209.106 35.381C210.25 36.7243 211.863 37.5773 213.614 37.7646H213.612Z" fill="black"/>
<path d="M48.7659 199.946L47.5488 199.12C49.6486 196.173 52.0654 193.466 54.7556 191.049C60.6277 185.764 66.714 183.067 72.3684 183.258C80.0189 183.515 86.9503 188.865 92.966 199.159L91.6972 199.905C85.9499 190.076 79.4292 184.972 72.3154 184.734C72.1412 184.727 71.9623 184.724 71.7916 184.724C59.2377 184.723 48.8706 199.792 48.7659 199.946Z" fill="white"/>
<path d="M39.9789 166.624C44.4327 172.633 50.4449 177.301 57.3609 180.121L57.4551 180.186C60.9964 177.06 63.5244 172.943 64.7139 168.364C65.9034 163.786 65.7 158.955 64.1299 154.493C61.8936 148.481 57.2644 143.633 54.7409 137.745C52.5399 132.598 52.0444 126.91 50.9038 121.426C50.7273 120.574 50.5272 119.715 50.3036 118.862C50.2106 118.893 50.1164 118.923 50.0176 118.95C49.1535 119.168 48.2392 119.05 47.4581 118.62C46.677 118.19 46.0867 117.48 45.8057 116.632C45.5247 115.784 45.5737 114.861 45.943 114.048C46.3122 113.235 46.9743 112.591 47.7966 112.247C46.7129 110.148 45.2176 108.289 43.4004 106.783C39.9506 103.991 34.4422 103.08 31.2584 106.175C28.7102 108.654 28.5395 112.703 29.1916 116.201C30.7452 124.546 35.9241 132.009 36.6432 140.47C37.074 145.535 35.8605 150.608 36.0218 155.688C36.0757 157.251 36.3418 158.8 36.8127 160.292C36.9452 160.229 37.0821 160.177 37.2223 160.135C41.3442 158.886 43.3498 164.845 39.9789 166.624Z" fill="#A8DADC"/>
<path d="M39.9784 121.16L38.5732 121.596L62.7514 199.738L64.1566 199.302L39.9784 121.16Z" fill="black"/>
<path d="M29.7387 128.084L28.7397 129.167L45.9698 145.153L46.9688 144.07L29.7387 128.084Z" fill="black"/>
<path d="M59.1803 135.335L50.5713 159.86L51.9587 160.349L60.5677 135.825L59.1803 135.335Z" fill="black"/>
<path d="M49.403 108.677L42.6943 134.74L44.1189 135.109L50.8276 109.046L49.403 108.677Z" fill="black"/>
<path d="M34.1589 151.288L33.2969 152.484L52.5497 166.412L53.4118 165.217L34.1589 151.288Z" fill="black"/>
<path d="M41.9339 235.686C41.6259 235.7 41.3599 235.742 41.1359 235.812C40.9119 235.882 40.7369 236.043 40.6109 236.295C40.4989 236.533 40.4429 236.939 40.4429 237.513V245.556C40.4429 245.934 40.4359 246.298 40.4219 246.648C40.4079 246.998 40.3869 247.264 40.3589 247.446C40.5829 247.418 40.8629 247.404 41.1989 247.404C41.5489 247.39 41.7939 247.383 41.9339 247.383V249H35.9069V247.614C36.2289 247.6 36.4949 247.558 36.7049 247.488C36.9289 247.418 37.0969 247.257 37.2089 247.005C37.3349 246.753 37.3979 246.347 37.3979 245.787V237.744C37.3979 237.366 37.4049 237.002 37.4189 236.652C37.4469 236.302 37.4679 236.036 37.4819 235.854C37.2579 235.868 36.9779 235.882 36.6419 235.896C36.3059 235.896 36.0609 235.903 35.9069 235.917V234.3H41.9339V235.686ZM43.6134 249V247.635C44.0054 247.635 44.2854 247.558 44.4534 247.404C44.6214 247.25 44.7264 247.033 44.7684 246.753C44.8244 246.459 44.8524 246.13 44.8524 245.766V242.238C44.8524 241.986 44.8594 241.706 44.8734 241.398C44.8874 241.076 44.9084 240.761 44.9364 240.453C44.7124 240.467 44.4464 240.481 44.1384 240.495C43.8444 240.495 43.6204 240.502 43.4664 240.516V238.92C44.1104 238.92 44.6564 238.885 45.1044 238.815C45.5524 238.745 45.9024 238.661 46.1544 238.563C46.4204 238.465 46.6024 238.374 46.7004 238.29H47.7294C47.7574 238.472 47.7714 238.605 47.7714 238.689C47.7714 238.773 47.7714 238.857 47.7714 238.941C47.7854 239.011 47.8134 239.144 47.8554 239.34C48.1354 239.116 48.4574 238.92 48.8214 238.752C49.1854 238.57 49.5494 238.43 49.9134 238.332C50.2774 238.22 50.5994 238.164 50.8794 238.164C52.1674 238.164 53.0774 238.535 53.6094 239.277C54.1554 240.005 54.4284 241.181 54.4284 242.805V245.619C54.4284 245.815 54.4214 246.095 54.4074 246.459C54.3934 246.809 54.3724 247.145 54.3444 247.467C54.5824 247.439 54.8344 247.425 55.1004 247.425C55.3664 247.411 55.5694 247.404 55.7094 247.404V249H50.2074V247.635C50.5994 247.635 50.8794 247.558 51.0474 247.404C51.2294 247.25 51.3414 247.033 51.3834 246.753C51.4394 246.459 51.4674 246.13 51.4674 245.766L51.4464 242.784C51.4464 241.874 51.3134 241.202 51.0474 240.768C50.7954 240.32 50.3614 240.096 49.7454 240.096C49.3954 240.096 49.0454 240.173 48.6954 240.327C48.3594 240.481 48.0724 240.663 47.8344 240.873C47.8344 241.069 47.8344 241.272 47.8344 241.482C47.8344 241.678 47.8344 241.874 47.8344 242.07V245.619C47.8344 245.815 47.8274 246.095 47.8134 246.459C47.7994 246.809 47.7784 247.145 47.7504 247.467C47.9744 247.439 48.2194 247.425 48.4854 247.425C48.7654 247.411 48.9754 247.404 49.1154 247.404V249H43.6134ZM58.266 237.891C58.266 236.197 58.637 234.986 59.379 234.258C60.121 233.516 61.122 233.145 62.382 233.145C63.04 233.145 63.565 233.243 63.957 233.439C64.349 233.621 64.629 233.852 64.797 234.132C64.965 234.412 65.049 234.699 65.049 234.993C65.049 235.357 64.937 235.679 64.713 235.959C64.489 236.239 64.167 236.386 63.747 236.4C63.341 236.414 63.026 236.309 62.802 236.085C62.578 235.847 62.466 235.553 62.466 235.203C62.466 235.133 62.466 235.063 62.466 234.993C62.48 234.923 62.494 234.853 62.508 234.783C62.438 234.713 62.354 234.671 62.256 234.657C62.172 234.629 62.095 234.615 62.025 234.615C61.801 234.615 61.626 234.685 61.5 234.825C61.374 234.951 61.29 235.112 61.248 235.308C61.206 235.504 61.185 235.707 61.185 235.917V238.5H63.537V240.117L61.206 240.18L61.227 245.577C61.227 245.773 61.22 246.06 61.206 246.438C61.192 246.802 61.171 247.145 61.143 247.467C61.381 247.439 61.647 247.425 61.941 247.425C62.249 247.411 62.473 247.404 62.613 247.404V249H57.006V247.635C57.398 247.635 57.678 247.558 57.846 247.404C58.028 247.25 58.14 247.033 58.182 246.753C58.238 246.459 58.266 246.13 58.266 245.766V240.222L56.733 240.243V238.5H58.266V237.891ZM69.7379 249.336C68.7299 249.336 67.8199 249.119 67.0079 248.685C66.1959 248.251 65.5519 247.635 65.0759 246.837C64.6139 246.025 64.3829 245.073 64.3829 243.981C64.3829 242.819 64.6209 241.804 65.0969 240.936C65.5869 240.054 66.2309 239.375 67.0289 238.899C67.8409 238.409 68.7229 238.164 69.6749 238.164C70.6829 238.164 71.5859 238.381 72.3839 238.815C73.1819 239.249 73.8119 239.872 74.2739 240.684C74.7359 241.482 74.9669 242.441 74.9669 243.561C74.9669 244.737 74.7429 245.759 74.2949 246.627C73.8469 247.495 73.2309 248.167 72.4469 248.643C71.6629 249.105 70.7599 249.336 69.7379 249.336ZM69.8219 247.845C70.3819 247.831 70.8019 247.635 71.0819 247.257C71.3759 246.879 71.5789 246.403 71.6909 245.829C71.8029 245.255 71.8589 244.674 71.8589 244.086C71.8589 243.568 71.8169 243.043 71.7329 242.511C71.6629 241.979 71.5439 241.496 71.3759 241.062C71.2079 240.628 70.9769 240.278 70.6829 240.012C70.4029 239.746 70.0529 239.62 69.6329 239.634C69.0869 239.648 68.6529 239.844 68.3309 240.222C68.0229 240.6 67.7989 241.076 67.6589 241.65C67.5329 242.21 67.4699 242.798 67.4699 243.414C67.4699 244.128 67.5469 244.828 67.7009 245.514C67.8549 246.2 68.0999 246.767 68.4359 247.215C68.7859 247.649 69.2479 247.859 69.8219 247.845ZM76.4875 247.635C76.8795 247.635 77.1595 247.558 77.3275 247.404C77.4955 247.25 77.6005 247.033 77.6425 246.753C77.6985 246.459 77.7265 246.13 77.7265 245.766V242.238C77.7265 241.986 77.7335 241.706 77.7475 241.398C77.7615 241.076 77.7825 240.761 77.8105 240.453C77.5865 240.467 77.3205 240.481 77.0125 240.495C76.7185 240.495 76.4945 240.502 76.3405 240.516V238.92H77.1805C77.7265 238.92 78.2235 238.85 78.6715 238.71C79.1335 238.57 79.4345 238.43 79.5745 238.29H80.6035C80.6315 238.43 80.6525 238.696 80.6665 239.088C80.6805 239.466 80.6875 239.802 80.6875 240.096C81.0655 239.634 81.4225 239.263 81.7585 238.983C82.0945 238.703 82.4235 238.5 82.7455 238.374C83.0815 238.234 83.4175 238.164 83.7535 238.164C84.2435 238.164 84.6705 238.304 85.0345 238.584C85.3985 238.85 85.5805 239.291 85.5805 239.907C85.5805 240.117 85.5315 240.341 85.4335 240.579C85.3355 240.803 85.1815 240.992 84.9715 241.146C84.7615 241.3 84.4745 241.377 84.1105 241.377C83.8305 241.377 83.5435 241.293 83.2495 241.125C82.9555 240.957 82.7875 240.635 82.7455 240.159C82.4655 240.159 82.1855 240.278 81.9055 240.516C81.6255 240.74 81.3735 241.013 81.1495 241.335C80.9395 241.643 80.7925 241.93 80.7085 242.196V245.619C80.7085 245.815 80.7015 246.095 80.6875 246.459C80.6735 246.809 80.6525 247.145 80.6245 247.467C80.8485 247.439 81.0935 247.425 81.3595 247.425C81.6395 247.411 81.8495 247.404 81.9895 247.404V249H76.4875V247.635ZM86.5773 249V247.635C86.9693 247.635 87.2493 247.558 87.4173 247.404C87.5853 247.25 87.6903 247.033 87.7323 246.753C87.7883 246.459 87.8163 246.13 87.8163 245.766V242.238C87.8163 241.986 87.8233 241.706 87.8373 241.398C87.8513 241.076 87.8723 240.761 87.9003 240.453C87.6763 240.467 87.4103 240.481 87.1023 240.495C86.8083 240.495 86.5843 240.502 86.4303 240.516V238.92C87.0743 238.92 87.6203 238.885 88.0683 238.815C88.5163 238.745 88.8663 238.661 89.1183 238.563C89.3843 238.465 89.5663 238.374 89.6643 238.29H90.6933C90.7213 238.43 90.7353 238.605 90.7353 238.815C90.7493 239.025 90.7633 239.2 90.7773 239.34C91.2533 238.976 91.7643 238.689 92.3103 238.479C92.8703 238.269 93.3953 238.164 93.8853 238.164C94.5293 238.164 95.0613 238.283 95.4813 238.521C95.9013 238.745 96.2373 239.088 96.4893 239.55C96.9933 239.13 97.5463 238.794 98.1483 238.542C98.7643 238.29 99.3523 238.164 99.9123 238.164C101.046 238.164 101.9 238.493 102.474 239.151C103.062 239.795 103.356 240.922 103.356 242.532V245.619C103.356 245.815 103.349 246.095 103.335 246.459C103.321 246.809 103.3 247.145 103.272 247.467C103.496 247.439 103.741 247.425 104.007 247.425C104.287 247.411 104.497 247.404 104.637 247.404V249H99.3243V247.635C99.6463 247.635 99.8773 247.558 100.017 247.404C100.171 247.25 100.269 247.033 100.311 246.753C100.353 246.459 100.374 246.13 100.374 245.766V242.553C100.36 241.643 100.206 241.013 99.9123 240.663C99.6323 240.313 99.2543 240.131 98.7783 240.117C98.4143 240.103 98.0713 240.166 97.7493 240.306C97.4413 240.446 97.1613 240.614 96.9093 240.81C96.9793 241.09 97.0283 241.398 97.0563 241.734C97.0843 242.07 97.0983 242.427 97.0983 242.805C97.0983 243.281 97.0983 243.75 97.0983 244.212C97.0983 244.674 97.0983 245.143 97.0983 245.619C97.0983 245.815 97.0913 246.095 97.0773 246.459C97.0633 246.809 97.0423 247.145 97.0143 247.467C97.2383 247.439 97.4833 247.425 97.7493 247.425C98.0153 247.411 98.2253 247.404 98.3793 247.404V249H92.9613V247.635C93.3253 247.635 93.5843 247.558 93.7383 247.404C93.9063 247.25 94.0113 247.033 94.0533 246.753C94.0953 246.459 94.1163 246.13 94.1163 245.766L94.0953 242.49C94.0953 241.58 93.9623 240.957 93.6963 240.621C93.4303 240.285 93.0593 240.11 92.5833 240.096C92.2333 240.096 91.9043 240.173 91.5963 240.327C91.3023 240.481 91.0363 240.663 90.7983 240.873C90.7983 241.055 90.7983 241.23 90.7983 241.398C90.7983 241.566 90.7983 241.741 90.7983 241.923V245.619C90.7983 245.815 90.7913 246.095 90.7773 246.459C90.7633 246.809 90.7423 247.145 90.7143 247.467C90.9383 247.439 91.1693 247.425 91.4073 247.425C91.6453 247.411 91.8343 247.404 91.9743 247.404V249H86.5773ZM111.734 249C111.706 248.804 111.685 248.643 111.671 248.517C111.671 248.377 111.664 248.216 111.65 248.034C111.174 248.51 110.67 248.846 110.138 249.042C109.606 249.238 109.067 249.336 108.521 249.336C107.625 249.336 106.925 249.07 106.421 248.538C105.917 248.006 105.665 247.341 105.665 246.543C105.665 245.871 105.833 245.297 106.169 244.821C106.519 244.345 106.974 243.96 107.534 243.666C108.108 243.358 108.738 243.127 109.424 242.973C110.124 242.805 110.824 242.707 111.524 242.679V241.587C111.524 241.223 111.475 240.894 111.377 240.6C111.293 240.306 111.139 240.075 110.915 239.907C110.705 239.739 110.404 239.662 110.012 239.676C109.746 239.69 109.487 239.746 109.235 239.844C108.983 239.942 108.766 240.082 108.584 240.264C108.696 240.39 108.766 240.53 108.794 240.684C108.822 240.824 108.836 240.95 108.836 241.062C108.836 241.342 108.724 241.636 108.5 241.944C108.276 242.238 107.919 242.378 107.429 242.364C107.009 242.35 106.687 242.203 106.463 241.923C106.239 241.643 106.127 241.314 106.127 240.936C106.127 240.376 106.323 239.893 106.715 239.487C107.121 239.067 107.66 238.745 108.332 238.521C109.004 238.283 109.746 238.164 110.558 238.164C111.79 238.164 112.742 238.486 113.414 239.13C114.1 239.76 114.443 240.775 114.443 242.175C114.443 242.651 114.443 243.057 114.443 243.393C114.443 243.729 114.436 244.065 114.422 244.401C114.422 244.737 114.422 245.143 114.422 245.619C114.422 245.815 114.415 246.095 114.401 246.459C114.387 246.809 114.366 247.145 114.338 247.467C114.576 247.439 114.828 247.425 115.094 247.425C115.36 247.411 115.563 247.404 115.703 247.404V249H111.734ZM111.503 244.17C111.111 244.212 110.74 244.282 110.39 244.38C110.04 244.478 109.732 244.611 109.466 244.779C109.214 244.947 109.011 245.15 108.857 245.388C108.717 245.626 108.647 245.892 108.647 246.186C108.661 246.578 108.787 246.858 109.025 247.026C109.263 247.194 109.536 247.278 109.844 247.278C110.166 247.278 110.467 247.208 110.747 247.068C111.027 246.928 111.279 246.746 111.503 246.522C111.503 246.382 111.503 246.249 111.503 246.123C111.503 245.983 111.503 245.843 111.503 245.703C111.503 245.451 111.503 245.199 111.503 244.947C111.503 244.681 111.503 244.422 111.503 244.17ZM121.738 249.336C121.136 249.336 120.548 249.259 119.974 249.105C119.4 248.951 118.952 248.755 118.63 248.517L118.672 249.147H117.076L116.992 245.535H118.357C118.399 245.955 118.567 246.34 118.861 246.69C119.155 247.04 119.54 247.32 120.016 247.53C120.492 247.726 121.024 247.824 121.612 247.824C121.85 247.824 122.074 247.789 122.284 247.719C122.508 247.649 122.69 247.537 122.83 247.383C122.984 247.215 123.061 247.012 123.061 246.774C123.061 246.508 122.963 246.291 122.767 246.123C122.585 245.955 122.312 245.794 121.948 245.64C121.598 245.486 121.157 245.311 120.625 245.115C120.191 244.947 119.75 244.772 119.302 244.59C118.868 244.408 118.462 244.191 118.084 243.939C117.72 243.673 117.426 243.351 117.202 242.973C116.978 242.581 116.866 242.105 116.866 241.545C116.866 241.139 116.943 240.74 117.097 240.348C117.251 239.942 117.489 239.578 117.811 239.256C118.133 238.92 118.539 238.654 119.029 238.458C119.533 238.262 120.128 238.164 120.814 238.164C121.192 238.164 121.619 238.227 122.095 238.353C122.585 238.465 122.998 238.64 123.334 238.878V238.269H124.93V241.986H123.565C123.481 241.496 123.306 241.076 123.04 240.726C122.788 240.376 122.459 240.11 122.053 239.928C121.647 239.732 121.192 239.634 120.688 239.634C120.338 239.634 120.016 239.718 119.722 239.886C119.442 240.054 119.302 240.341 119.302 240.747C119.302 241.069 119.414 241.328 119.638 241.524C119.862 241.706 120.17 241.86 120.562 241.986C120.954 242.112 121.388 242.259 121.864 242.427C122.578 242.665 123.208 242.945 123.754 243.267C124.314 243.589 124.755 243.981 125.077 244.443C125.399 244.891 125.56 245.444 125.56 246.102C125.56 246.83 125.378 247.432 125.014 247.908C124.65 248.384 124.174 248.741 123.586 248.979C123.012 249.217 122.396 249.336 121.738 249.336ZM127.101 247.635C127.493 247.635 127.773 247.558 127.941 247.404C128.109 247.25 128.214 247.033 128.256 246.753C128.312 246.459 128.34 246.13 128.34 245.766V242.28C128.34 242.028 128.347 241.741 128.361 241.419C128.375 241.083 128.396 240.761 128.424 240.453C128.2 240.467 127.934 240.481 127.626 240.495C127.332 240.495 127.108 240.502 126.954 240.516V238.92C127.598 238.92 128.144 238.885 128.592 238.815C129.04 238.745 129.39 238.661 129.642 238.563C129.908 238.465 130.09 238.374 130.188 238.29H131.322V245.619C131.322 245.815 131.315 246.095 131.301 246.459C131.287 246.809 131.266 247.145 131.238 247.467C131.462 247.439 131.707 247.425 131.973 247.425C132.253 247.411 132.463 247.404 132.603 247.404V249H127.101V247.635ZM129.726 236.631C129.25 236.631 128.858 236.463 128.55 236.127C128.242 235.791 128.088 235.385 128.088 234.909C128.088 234.433 128.249 234.027 128.571 233.691C128.893 233.355 129.271 233.187 129.705 233.187C130.153 233.187 130.524 233.355 130.818 233.691C131.126 234.027 131.28 234.433 131.28 234.909C131.28 235.385 131.14 235.791 130.86 236.127C130.58 236.463 130.202 236.631 129.726 236.631ZM150.533 239.046C150.533 238.29 150.428 237.667 150.218 237.177C150.008 236.673 149.707 236.302 149.315 236.064C148.937 235.812 148.482 235.693 147.95 235.707H146.942V245.556C146.942 245.934 146.935 246.298 146.921 246.648C146.907 246.998 146.886 247.264 146.858 247.446C147.096 247.418 147.397 247.404 147.761 247.404C148.139 247.39 148.398 247.383 148.538 247.383V249H142.406V247.614C142.728 247.6 142.994 247.558 143.204 247.488C143.428 247.418 143.596 247.257 143.708 247.005C143.834 246.753 143.897 246.347 143.897 245.787V235.728H142.931C142.133 235.742 141.503 236.015 141.041 236.547C140.579 237.079 140.348 237.912 140.348 239.046H138.962L139.067 234.3H151.793L151.919 239.046H150.533ZM153.064 247.635C153.456 247.635 153.736 247.558 153.904 247.404C154.072 247.25 154.177 247.033 154.219 246.753C154.275 246.459 154.303 246.13 154.303 245.766V242.28C154.303 242.028 154.31 241.741 154.324 241.419C154.338 241.083 154.359 240.761 154.387 240.453C154.163 240.467 153.897 240.481 153.589 240.495C153.295 240.495 153.071 240.502 152.917 240.516V238.92C153.561 238.92 154.107 238.885 154.555 238.815C155.003 238.745 155.353 238.661 155.605 238.563C155.871 238.465 156.053 238.374 156.151 238.29H157.285V245.619C157.285 245.815 157.278 246.095 157.264 246.459C157.25 246.809 157.229 247.145 157.201 247.467C157.425 247.439 157.67 247.425 157.936 247.425C158.216 247.411 158.426 247.404 158.566 247.404V249H153.064V247.635ZM155.689 236.631C155.213 236.631 154.821 236.463 154.513 236.127C154.205 235.791 154.051 235.385 154.051 234.909C154.051 234.433 154.212 234.027 154.534 233.691C154.856 233.355 155.234 233.187 155.668 233.187C156.116 233.187 156.487 233.355 156.781 233.691C157.089 234.027 157.243 234.433 157.243 234.909C157.243 235.385 157.103 235.791 156.823 236.127C156.543 236.463 156.165 236.631 155.689 236.631ZM163.987 249.336C163.147 249.336 162.405 249.119 161.761 248.685C161.131 248.251 160.634 247.635 160.27 246.837C159.92 246.039 159.745 245.101 159.745 244.023C159.745 242.889 159.962 241.881 160.396 240.999C160.83 240.117 161.439 239.424 162.223 238.92C163.007 238.416 163.917 238.164 164.953 238.164C165.331 238.164 165.667 238.206 165.961 238.29C166.269 238.36 166.556 238.444 166.822 238.542V237.156C166.822 236.96 166.829 236.68 166.843 236.316C166.857 235.952 166.878 235.616 166.906 235.308C166.682 235.322 166.416 235.336 166.108 235.35C165.8 235.364 165.569 235.371 165.415 235.371V233.775C166.073 233.775 166.619 233.74 167.053 233.67C167.501 233.6 167.851 233.516 168.103 233.418C168.369 233.32 168.551 233.229 168.649 233.145H169.783V245.619C169.783 245.815 169.776 246.095 169.762 246.459C169.748 246.809 169.727 247.145 169.699 247.467C169.937 247.439 170.189 247.425 170.455 247.425C170.721 247.411 170.924 247.404 171.064 247.404V249H167.074C167.06 248.846 167.039 248.685 167.011 248.517C166.997 248.349 166.976 248.188 166.948 248.034C166.486 248.51 166.01 248.846 165.52 249.042C165.03 249.238 164.519 249.336 163.987 249.336ZM165.079 247.425C165.443 247.425 165.779 247.334 166.087 247.152C166.395 246.956 166.64 246.711 166.822 246.417C166.822 246.207 166.822 245.997 166.822 245.787C166.822 245.577 166.822 245.367 166.822 245.157V240.117C166.682 240.005 166.472 239.914 166.192 239.844C165.912 239.76 165.625 239.718 165.331 239.718C164.687 239.732 164.183 239.935 163.819 240.327C163.455 240.719 163.196 241.216 163.042 241.818C162.902 242.42 162.832 243.05 162.832 243.708C162.832 244.296 162.902 244.877 163.042 245.451C163.196 246.025 163.434 246.501 163.756 246.879C164.092 247.243 164.533 247.425 165.079 247.425ZM178.282 249C178.254 248.804 178.233 248.643 178.219 248.517C178.219 248.377 178.212 248.216 178.198 248.034C177.722 248.51 177.218 248.846 176.686 249.042C176.154 249.238 175.615 249.336 175.069 249.336C174.173 249.336 173.473 249.07 172.969 248.538C172.465 248.006 172.213 247.341 172.213 246.543C172.213 245.871 172.381 245.297 172.717 244.821C173.067 244.345 173.522 243.96 174.082 243.666C174.656 243.358 175.286 243.127 175.972 242.973C176.672 242.805 177.372 242.707 178.072 242.679V241.587C178.072 241.223 178.023 240.894 177.925 240.6C177.841 240.306 177.687 240.075 177.463 239.907C177.253 239.739 176.952 239.662 176.56 239.676C176.294 239.69 176.035 239.746 175.783 239.844C175.531 239.942 175.314 240.082 175.132 240.264C175.244 240.39 175.314 240.53 175.342 240.684C175.37 240.824 175.384 240.95 175.384 241.062C175.384 241.342 175.272 241.636 175.048 241.944C174.824 242.238 174.467 242.378 173.977 242.364C173.557 242.35 173.235 242.203 173.011 241.923C172.787 241.643 172.675 241.314 172.675 240.936C172.675 240.376 172.871 239.893 173.263 239.487C173.669 239.067 174.208 238.745 174.88 238.521C175.552 238.283 176.294 238.164 177.106 238.164C178.338 238.164 179.29 238.486 179.962 239.13C180.648 239.76 180.991 240.775 180.991 242.175C180.991 242.651 180.991 243.057 180.991 243.393C180.991 243.729 180.984 244.065 180.97 244.401C180.97 244.737 180.97 245.143 180.97 245.619C180.97 245.815 180.963 246.095 180.949 246.459C180.935 246.809 180.914 247.145 180.886 247.467C181.124 247.439 181.376 247.425 181.642 247.425C181.908 247.411 182.111 247.404 182.251 247.404V249H178.282ZM178.051 244.17C177.659 244.212 177.288 244.282 176.938 244.38C176.588 244.478 176.28 244.611 176.014 244.779C175.762 244.947 175.559 245.15 175.405 245.388C175.265 245.626 175.195 245.892 175.195 246.186C175.209 246.578 175.335 246.858 175.573 247.026C175.811 247.194 176.084 247.278 176.392 247.278C176.714 247.278 177.015 247.208 177.295 247.068C177.575 246.928 177.827 246.746 178.051 246.522C178.051 246.382 178.051 246.249 178.051 246.123C178.051 245.983 178.051 245.843 178.051 245.703C178.051 245.451 178.051 245.199 178.051 244.947C178.051 244.681 178.051 244.422 178.051 244.17ZM183.12 249V247.635C183.512 247.635 183.792 247.558 183.96 247.404C184.142 247.25 184.254 247.033 184.296 246.753C184.352 246.459 184.38 246.13 184.38 245.766V237.135C184.38 236.883 184.387 236.596 184.401 236.274C184.415 235.938 184.436 235.616 184.464 235.308C184.24 235.322 183.974 235.336 183.666 235.35C183.372 235.35 183.148 235.357 182.994 235.371V233.775C183.638 233.775 184.177 233.74 184.611 233.67C185.059 233.6 185.416 233.516 185.682 233.418C185.948 233.32 186.123 233.229 186.207 233.145H187.362V242.721H188.37L189.882 240.978C190.064 240.782 190.211 240.614 190.323 240.474C190.449 240.334 190.575 240.208 190.701 240.096H189.588V238.5H194.313V239.844C193.823 239.9 193.389 240.019 193.011 240.201C192.633 240.369 192.304 240.572 192.024 240.81C191.758 241.048 191.527 241.279 191.331 241.503L189.987 243.015C190.197 243.113 190.4 243.26 190.596 243.456C190.806 243.638 191.058 243.925 191.352 244.317L192.759 246.165C192.843 246.263 192.948 246.396 193.074 246.564C193.214 246.732 193.368 246.9 193.536 247.068C193.704 247.222 193.886 247.355 194.082 247.467C194.278 247.579 194.481 247.635 194.691 247.635V249H192.276C191.828 249 191.436 248.846 191.1 248.538C190.764 248.216 190.379 247.761 189.945 247.173C189.693 246.837 189.427 246.48 189.147 246.102C188.881 245.71 188.629 245.346 188.391 245.01C188.167 244.66 187.985 244.387 187.845 244.191L187.362 244.212V245.619C187.362 245.815 187.355 246.095 187.341 246.459C187.327 246.809 187.306 247.145 187.278 247.467C187.502 247.439 187.747 247.425 188.013 247.425C188.279 247.411 188.489 247.404 188.643 247.404V249H183.12ZM201.631 247.614C201.953 247.6 202.219 247.558 202.429 247.488C202.653 247.418 202.821 247.257 202.933 247.005C203.059 246.753 203.122 246.347 203.122 245.787V237.744C203.122 237.366 203.129 237.002 203.143 236.652C203.171 236.302 203.192 236.036 203.206 235.854C202.982 235.868 202.702 235.882 202.366 235.896C202.03 235.896 201.785 235.903 201.631 235.917V234.3L207.742 234.279C209.128 234.279 210.325 234.489 211.333 234.909C212.355 235.315 213.188 235.868 213.832 236.568C214.49 237.268 214.98 238.052 215.302 238.92C215.624 239.774 215.785 240.635 215.785 241.503C215.785 242.357 215.631 243.225 215.323 244.107C215.029 244.989 214.56 245.801 213.916 246.543C213.272 247.271 212.432 247.866 211.396 248.328C210.36 248.776 209.107 249 207.637 249H201.631V247.614ZM206.167 245.556C206.167 245.934 206.16 246.298 206.146 246.648C206.132 246.998 206.111 247.264 206.083 247.446C206.223 247.432 206.412 247.432 206.65 247.446C206.902 247.446 207.161 247.453 207.427 247.467C207.693 247.467 207.91 247.467 208.078 247.467C208.848 247.467 209.506 247.313 210.052 247.005C210.612 246.697 211.067 246.284 211.417 245.766C211.781 245.234 212.047 244.639 212.215 243.981C212.383 243.323 212.467 242.644 212.467 241.944C212.467 240.516 212.271 239.347 211.879 238.437C211.487 237.527 210.934 236.848 210.22 236.4C209.52 235.952 208.68 235.714 207.7 235.686C207.364 235.672 207.077 235.707 206.839 235.791C206.615 235.861 206.447 236.022 206.335 236.274C206.223 236.526 206.167 236.925 206.167 237.471V245.556ZM217.294 247.635C217.686 247.635 217.966 247.558 218.134 247.404C218.302 247.25 218.407 247.033 218.449 246.753C218.505 246.459 218.533 246.13 218.533 245.766V242.28C218.533 242.028 218.54 241.741 218.554 241.419C218.568 241.083 218.589 240.761 218.617 240.453C218.393 240.467 218.127 240.481 217.819 240.495C217.525 240.495 217.301 240.502 217.147 240.516V238.92C217.791 238.92 218.337 238.885 218.785 238.815C219.233 238.745 219.583 238.661 219.835 238.563C220.101 238.465 220.283 238.374 220.381 238.29H221.515V245.619C221.515 245.815 221.508 246.095 221.494 246.459C221.48 246.809 221.459 247.145 221.431 247.467C221.655 247.439 221.9 247.425 222.166 247.425C222.446 247.411 222.656 247.404 222.796 247.404V249H217.294V247.635ZM219.919 236.631C219.443 236.631 219.051 236.463 218.743 236.127C218.435 235.791 218.281 235.385 218.281 234.909C218.281 234.433 218.442 234.027 218.764 233.691C219.086 233.355 219.464 233.187 219.898 233.187C220.346 233.187 220.717 233.355 221.011 233.691C221.319 234.027 221.473 234.433 221.473 234.909C221.473 235.385 221.333 235.791 221.053 236.127C220.773 236.463 220.395 236.631 219.919 236.631ZM228.24 249.336C227.82 249.336 227.414 249.287 227.022 249.189C226.644 249.091 226.294 248.909 225.972 248.643C225.664 248.363 225.419 247.957 225.237 247.425C225.055 246.893 224.964 246.186 224.964 245.304L225.006 240.243H223.578V238.5C224.012 238.486 224.432 238.339 224.838 238.059C225.244 237.779 225.587 237.415 225.867 236.967C226.161 236.519 226.357 236.05 226.455 235.56H228.009L227.988 238.5H230.655V240.117L227.988 240.18L227.967 245.346C227.967 245.668 227.995 245.99 228.051 246.312C228.121 246.62 228.247 246.879 228.429 247.089C228.611 247.285 228.877 247.383 229.227 247.383C229.423 247.383 229.689 247.313 230.025 247.173C230.375 247.033 230.746 246.683 231.138 246.123L232.146 247.068C231.768 247.628 231.376 248.062 230.97 248.37C230.564 248.678 230.172 248.902 229.794 249.042C229.43 249.182 229.108 249.266 228.828 249.294C228.548 249.322 228.352 249.336 228.24 249.336ZM237.734 249.336C236.712 249.336 235.809 249.112 235.025 248.664C234.241 248.202 233.632 247.558 233.198 246.732C232.764 245.892 232.547 244.905 232.547 243.771C232.547 242.791 232.764 241.874 233.198 241.02C233.632 240.166 234.241 239.48 235.025 238.962C235.823 238.43 236.747 238.164 237.797 238.164C238.385 238.164 238.959 238.248 239.519 238.416C240.079 238.57 240.583 238.843 241.031 239.235C241.493 239.627 241.857 240.159 242.123 240.831C242.403 241.503 242.536 242.343 242.522 243.351L235.634 243.477C235.634 244.233 235.725 244.912 235.907 245.514C236.103 246.116 236.418 246.592 236.852 246.942C237.286 247.292 237.867 247.467 238.595 247.467C238.875 247.467 239.19 247.418 239.54 247.32C239.904 247.222 240.268 247.061 240.632 246.837C241.01 246.599 241.36 246.284 241.682 245.892L242.627 246.774C242.123 247.488 241.584 248.034 241.01 248.412C240.436 248.776 239.862 249.021 239.288 249.147C238.728 249.273 238.21 249.336 237.734 249.336ZM235.76 242.007H239.624C239.61 241.419 239.526 240.957 239.372 240.621C239.232 240.271 239.036 240.019 238.784 239.865C238.532 239.711 238.238 239.634 237.902 239.634C237.286 239.634 236.803 239.858 236.453 240.306C236.103 240.74 235.872 241.307 235.76 242.007ZM244.057 249V247.635C244.449 247.635 244.729 247.558 244.897 247.404C245.065 247.25 245.17 247.033 245.212 246.753C245.268 246.459 245.296 246.13 245.296 245.766V242.238C245.296 241.986 245.303 241.706 245.317 241.398C245.331 241.076 245.352 240.761 245.38 240.453C245.156 240.467 244.89 240.481 244.582 240.495C244.288 240.495 244.064 240.502 243.91 240.516V238.92C244.554 238.92 245.1 238.885 245.548 238.815C245.996 238.745 246.346 238.661 246.598 238.563C246.864 238.465 247.046 238.374 247.144 238.29H248.173C248.201 238.43 248.215 238.605 248.215 238.815C248.229 239.025 248.243 239.2 248.257 239.34C248.733 238.976 249.244 238.689 249.79 238.479C250.35 238.269 250.875 238.164 251.365 238.164C252.009 238.164 252.541 238.283 252.961 238.521C253.381 238.745 253.717 239.088 253.969 239.55C254.473 239.13 255.026 238.794 255.628 238.542C256.244 238.29 256.832 238.164 257.392 238.164C258.526 238.164 259.38 238.493 259.954 239.151C260.542 239.795 260.836 240.922 260.836 242.532V245.619C260.836 245.815 260.829 246.095 260.815 246.459C260.801 246.809 260.78 247.145 260.752 247.467C260.976 247.439 261.221 247.425 261.487 247.425C261.767 247.411 261.977 247.404 262.117 247.404V249H256.804V247.635C257.126 247.635 257.357 247.558 257.497 247.404C257.651 247.25 257.749 247.033 257.791 246.753C257.833 246.459 257.854 246.13 257.854 245.766V242.553C257.84 241.643 257.686 241.013 257.392 240.663C257.112 240.313 256.734 240.131 256.258 240.117C255.894 240.103 255.551 240.166 255.229 240.306C254.921 240.446 254.641 240.614 254.389 240.81C254.459 241.09 254.508 241.398 254.536 241.734C254.564 242.07 254.578 242.427 254.578 242.805C254.578 243.281 254.578 243.75 254.578 244.212C254.578 244.674 254.578 245.143 254.578 245.619C254.578 245.815 254.571 246.095 254.557 246.459C254.543 246.809 254.522 247.145 254.494 247.467C254.718 247.439 254.963 247.425 255.229 247.425C255.495 247.411 255.705 247.404 255.859 247.404V249H250.441V247.635C250.805 247.635 251.064 247.558 251.218 247.404C251.386 247.25 251.491 247.033 251.533 246.753C251.575 246.459 251.596 246.13 251.596 245.766L251.575 242.49C251.575 241.58 251.442 240.957 251.176 240.621C250.91 240.285 250.539 240.11 250.063 240.096C249.713 240.096 249.384 240.173 249.076 240.327C248.782 240.481 248.516 240.663 248.278 240.873C248.278 241.055 248.278 241.23 248.278 241.398C248.278 241.566 248.278 241.741 248.278 241.923V245.619C248.278 245.815 248.271 246.095 248.257 246.459C248.243 246.809 248.222 247.145 248.194 247.467C248.418 247.439 248.649 247.425 248.887 247.425C249.125 247.411 249.314 247.404 249.454 247.404V249H244.057ZM267.62 249.336C266.78 249.336 266.101 249.175 265.583 248.853C265.079 248.531 264.708 248.027 264.47 247.341C264.246 246.655 264.134 245.773 264.134 244.695V242.28C264.134 242.028 264.141 241.741 264.155 241.419C264.169 241.083 264.183 240.761 264.197 240.453C263.973 240.467 263.707 240.481 263.399 240.495C263.105 240.495 262.881 240.502 262.727 240.516V238.92H262.937C263.805 238.92 264.491 238.85 264.995 238.71C265.499 238.57 265.821 238.43 265.961 238.29H267.116V244.716C267.116 245.626 267.235 246.305 267.473 246.753C267.711 247.187 268.089 247.404 268.607 247.404C268.971 247.404 269.335 247.306 269.699 247.11C270.077 246.9 270.385 246.662 270.623 246.396V242.28C270.623 242.028 270.63 241.741 270.644 241.419C270.658 241.083 270.679 240.761 270.707 240.453C270.483 240.467 270.217 240.481 269.909 240.495C269.615 240.495 269.391 240.502 269.237 240.516V238.92H269.741C270.399 238.92 270.98 238.85 271.484 238.71C271.988 238.556 272.31 238.416 272.45 238.29H273.605V245.619C273.605 245.815 273.598 246.095 273.584 246.459C273.57 246.809 273.549 247.145 273.521 247.467C273.745 247.439 273.99 247.425 274.256 247.425C274.536 247.411 274.746 247.404 274.886 247.404V249H270.896C270.882 248.818 270.861 248.636 270.833 248.454C270.819 248.272 270.798 248.09 270.77 247.908C270.336 248.272 269.867 248.601 269.363 248.895C268.873 249.189 268.292 249.336 267.62 249.336ZM275.918 249V247.635C276.31 247.635 276.59 247.558 276.758 247.404C276.94 247.25 277.052 247.033 277.094 246.753C277.15 246.459 277.178 246.13 277.178 245.766V237.135C277.178 236.883 277.185 236.596 277.199 236.274C277.213 235.938 277.234 235.616 277.262 235.308C277.038 235.322 276.772 235.336 276.464 235.35C276.17 235.35 275.946 235.357 275.792 235.371V233.775C276.436 233.775 276.975 233.74 277.409 233.67C277.857 233.6 278.214 233.516 278.48 233.418C278.746 233.32 278.921 233.229 279.005 233.145H280.16V242.721H281.168L282.68 240.978C282.862 240.782 283.009 240.614 283.121 240.474C283.247 240.334 283.373 240.208 283.499 240.096H282.386V238.5H287.111V239.844C286.621 239.9 286.187 240.019 285.809 240.201C285.431 240.369 285.102 240.572 284.822 240.81C284.556 241.048 284.325 241.279 284.129 241.503L282.785 243.015C282.995 243.113 283.198 243.26 283.394 243.456C283.604 243.638 283.856 243.925 284.15 244.317L285.557 246.165C285.641 246.263 285.746 246.396 285.872 246.564C286.012 246.732 286.166 246.9 286.334 247.068C286.502 247.222 286.684 247.355 286.88 247.467C287.076 247.579 287.279 247.635 287.489 247.635V249H285.074C284.626 249 284.234 248.846 283.898 248.538C283.562 248.216 283.177 247.761 282.743 247.173C282.491 246.837 282.225 246.48 281.945 246.102C281.679 245.71 281.427 245.346 281.189 245.01C280.965 244.66 280.783 244.387 280.643 244.191L280.16 244.212V245.619C280.16 245.815 280.153 246.095 280.139 246.459C280.125 246.809 280.104 247.145 280.076 247.467C280.3 247.439 280.545 247.425 280.811 247.425C281.077 247.411 281.287 247.404 281.441 247.404V249H275.918ZM294.479 249C294.451 248.804 294.43 248.643 294.416 248.517C294.416 248.377 294.409 248.216 294.395 248.034C293.919 248.51 293.415 248.846 292.883 249.042C292.351 249.238 291.812 249.336 291.266 249.336C290.37 249.336 289.67 249.07 289.166 248.538C288.662 248.006 288.41 247.341 288.41 246.543C288.41 245.871 288.578 245.297 288.914 244.821C289.264 244.345 289.719 243.96 290.279 243.666C290.853 243.358 291.483 243.127 292.169 242.973C292.869 242.805 293.569 242.707 294.269 242.679V241.587C294.269 241.223 294.22 240.894 294.122 240.6C294.038 240.306 293.884 240.075 293.66 239.907C293.45 239.739 293.149 239.662 292.757 239.676C292.491 239.69 292.232 239.746 291.98 239.844C291.728 239.942 291.511 240.082 291.329 240.264C291.441 240.39 291.511 240.53 291.539 240.684C291.567 240.824 291.581 240.95 291.581 241.062C291.581 241.342 291.469 241.636 291.245 241.944C291.021 242.238 290.664 242.378 290.174 242.364C289.754 242.35 289.432 242.203 289.208 241.923C288.984 241.643 288.872 241.314 288.872 240.936C288.872 240.376 289.068 239.893 289.46 239.487C289.866 239.067 290.405 238.745 291.077 238.521C291.749 238.283 292.491 238.164 293.303 238.164C294.535 238.164 295.487 238.486 296.159 239.13C296.845 239.76 297.188 240.775 297.188 242.175C297.188 242.651 297.188 243.057 297.188 243.393C297.188 243.729 297.181 244.065 297.167 244.401C297.167 244.737 297.167 245.143 297.167 245.619C297.167 245.815 297.16 246.095 297.146 246.459C297.132 246.809 297.111 247.145 297.083 247.467C297.321 247.439 297.573 247.425 297.839 247.425C298.105 247.411 298.308 247.404 298.448 247.404V249H294.479ZM294.248 244.17C293.856 244.212 293.485 244.282 293.135 244.38C292.785 244.478 292.477 244.611 292.211 244.779C291.959 244.947 291.756 245.15 291.602 245.388C291.462 245.626 291.392 245.892 291.392 246.186C291.406 246.578 291.532 246.858 291.77 247.026C292.008 247.194 292.281 247.278 292.589 247.278C292.911 247.278 293.212 247.208 293.492 247.068C293.772 246.928 294.024 246.746 294.248 246.522C294.248 246.382 294.248 246.249 294.248 246.123C294.248 245.983 294.248 245.843 294.248 245.703C294.248 245.451 294.248 245.199 294.248 244.947C294.248 244.681 294.248 244.422 294.248 244.17ZM299.653 249V247.635C300.045 247.635 300.325 247.558 300.493 247.404C300.661 247.25 300.766 247.033 300.808 246.753C300.864 246.459 300.892 246.13 300.892 245.766V242.238C300.892 241.986 300.899 241.706 300.913 241.398C300.927 241.076 300.948 240.761 300.976 240.453C300.752 240.467 300.486 240.481 300.178 240.495C299.884 240.495 299.66 240.502 299.506 240.516V238.92C300.15 238.92 300.696 238.885 301.144 238.815C301.592 238.745 301.942 238.661 302.194 238.563C302.46 238.465 302.642 238.374 302.74 238.29H303.769C303.797 238.472 303.811 238.605 303.811 238.689C303.811 238.773 303.811 238.857 303.811 238.941C303.825 239.011 303.853 239.144 303.895 239.34C304.175 239.116 304.497 238.92 304.861 238.752C305.225 238.57 305.589 238.43 305.953 238.332C306.317 238.22 306.639 238.164 306.919 238.164C308.207 238.164 309.117 238.535 309.649 239.277C310.195 240.005 310.468 241.181 310.468 242.805V245.619C310.468 245.815 310.461 246.095 310.447 246.459C310.433 246.809 310.412 247.145 310.384 247.467C310.622 247.439 310.874 247.425 311.14 247.425C311.406 247.411 311.609 247.404 311.749 247.404V249H306.247V247.635C306.639 247.635 306.919 247.558 307.087 247.404C307.269 247.25 307.381 247.033 307.423 246.753C307.479 246.459 307.507 246.13 307.507 245.766L307.486 242.784C307.486 241.874 307.353 241.202 307.087 240.768C306.835 240.32 306.401 240.096 305.785 240.096C305.435 240.096 305.085 240.173 304.735 240.327C304.399 240.481 304.112 240.663 303.874 240.873C303.874 241.069 303.874 241.272 303.874 241.482C303.874 241.678 303.874 241.874 303.874 242.07V245.619C303.874 245.815 303.867 246.095 303.853 246.459C303.839 246.809 303.818 247.145 303.79 247.467C304.014 247.439 304.259 247.425 304.525 247.425C304.805 247.411 305.015 247.404 305.155 247.404V249H299.653Z" fill="#212121"/>
<path d="M19.8125 272.625L23.5312 281.906L27.25 272.625H29.1953V284H27.6953V279.57L27.8359 274.789L24.1016 284H22.9531L19.2266 274.812L19.375 279.57V284H17.875V272.625H19.8125ZM31.2344 279.695C31.2344 278.867 31.3958 278.122 31.7188 277.461C32.0469 276.799 32.5 276.289 33.0781 275.93C33.6615 275.57 34.3255 275.391 35.0703 275.391C36.2214 275.391 37.151 275.789 37.8594 276.586C38.5729 277.383 38.9297 278.443 38.9297 279.766V279.867C38.9297 280.69 38.7708 281.43 38.4531 282.086C38.1406 282.737 37.6901 283.245 37.1016 283.609C36.5182 283.974 35.8464 284.156 35.0859 284.156C33.9401 284.156 33.0104 283.758 32.2969 282.961C31.5885 282.164 31.2344 281.109 31.2344 279.797V279.695ZM32.6875 279.867C32.6875 280.805 32.9036 281.557 33.3359 282.125C33.7734 282.693 34.3568 282.977 35.0859 282.977C35.8203 282.977 36.4036 282.69 36.8359 282.117C37.2682 281.539 37.4844 280.732 37.4844 279.695C37.4844 278.768 37.263 278.018 36.8203 277.445C36.3828 276.867 35.7995 276.578 35.0703 276.578C34.3568 276.578 33.7812 276.862 33.3438 277.43C32.9062 277.997 32.6875 278.81 32.6875 279.867ZM42.1875 276.57C42.8281 275.784 43.6615 275.391 44.6875 275.391C46.474 275.391 47.375 276.398 47.3906 278.414V284H45.9453V278.406C45.9401 277.797 45.7995 277.346 45.5234 277.055C45.2526 276.763 44.8281 276.617 44.25 276.617C43.7812 276.617 43.3698 276.742 43.0156 276.992C42.6615 277.242 42.3854 277.57 42.1875 277.977V284H40.7422V272H42.1875V276.57ZM49.1719 279.695C49.1719 278.867 49.3333 278.122 49.6562 277.461C49.9844 276.799 50.4375 276.289 51.0156 275.93C51.599 275.57 52.263 275.391 53.0078 275.391C54.1589 275.391 55.0885 275.789 55.7969 276.586C56.5104 277.383 56.8672 278.443 56.8672 279.766V279.867C56.8672 280.69 56.7083 281.43 56.3906 282.086C56.0781 282.737 55.6276 283.245 55.0391 283.609C54.4557 283.974 53.7839 284.156 53.0234 284.156C51.8776 284.156 50.9479 283.758 50.2344 282.961C49.526 282.164 49.1719 281.109 49.1719 279.797V279.695ZM50.625 279.867C50.625 280.805 50.8411 281.557 51.2734 282.125C51.7109 282.693 52.2943 282.977 53.0234 282.977C53.7578 282.977 54.3411 282.69 54.7734 282.117C55.2057 281.539 55.4219 280.732 55.4219 279.695C55.4219 278.768 55.2005 278.018 54.7578 277.445C54.3203 276.867 53.737 276.578 53.0078 276.578C52.2943 276.578 51.7188 276.862 51.2812 277.43C50.8438 277.997 50.625 278.81 50.625 279.867ZM60.0469 275.547L60.0938 276.609C60.7396 275.797 61.5833 275.391 62.625 275.391C64.4115 275.391 65.3125 276.398 65.3281 278.414V284H63.8828V278.406C63.8776 277.797 63.737 277.346 63.4609 277.055C63.1901 276.763 62.7656 276.617 62.1875 276.617C61.7188 276.617 61.3073 276.742 60.9531 276.992C60.599 277.242 60.3229 277.57 60.125 277.977V284H58.6797V275.547H60.0469ZM72.8359 275.547L72.875 276.484C73.4948 275.755 74.3307 275.391 75.3828 275.391C76.5651 275.391 77.3698 275.844 77.7969 276.75C78.0781 276.344 78.4427 276.016 78.8906 275.766C79.3438 275.516 79.8776 275.391 80.4922 275.391C82.3464 275.391 83.2891 276.372 83.3203 278.336V284H81.875V278.422C81.875 277.818 81.737 277.367 81.4609 277.07C81.1849 276.768 80.7214 276.617 80.0703 276.617C79.5339 276.617 79.0885 276.779 78.7344 277.102C78.3802 277.419 78.1745 277.849 78.1172 278.391V284H76.6641V278.461C76.6641 277.232 76.0625 276.617 74.8594 276.617C73.9115 276.617 73.263 277.021 72.9141 277.828V284H71.4688V275.547H72.8359ZM90.7266 284C90.6432 283.833 90.5755 283.536 90.5234 283.109C89.8516 283.807 89.0495 284.156 88.1172 284.156C87.2839 284.156 86.599 283.922 86.0625 283.453C85.5312 282.979 85.2656 282.38 85.2656 281.656C85.2656 280.776 85.599 280.094 86.2656 279.609C86.9375 279.12 87.8802 278.875 89.0938 278.875H90.5V278.211C90.5 277.706 90.349 277.305 90.0469 277.008C89.7448 276.706 89.2995 276.555 88.7109 276.555C88.1953 276.555 87.763 276.685 87.4141 276.945C87.0651 277.206 86.8906 277.521 86.8906 277.891H85.4375C85.4375 277.469 85.5859 277.062 85.8828 276.672C86.1849 276.276 86.5911 275.964 87.1016 275.734C87.6172 275.505 88.1823 275.391 88.7969 275.391C89.7708 275.391 90.5339 275.635 91.0859 276.125C91.638 276.609 91.9245 277.279 91.9453 278.133V282.023C91.9453 282.799 92.0443 283.417 92.2422 283.875V284H90.7266ZM88.3281 282.898C88.7812 282.898 89.2109 282.781 89.6172 282.547C90.0234 282.312 90.3177 282.008 90.5 281.633V279.898H89.3672C87.5964 279.898 86.7109 280.417 86.7109 281.453C86.7109 281.906 86.862 282.26 87.1641 282.516C87.4661 282.771 87.8542 282.898 88.3281 282.898ZM99.4297 284C99.3464 283.833 99.2786 283.536 99.2266 283.109C98.5547 283.807 97.7526 284.156 96.8203 284.156C95.987 284.156 95.3021 283.922 94.7656 283.453C94.2344 282.979 93.9688 282.38 93.9688 281.656C93.9688 280.776 94.3021 280.094 94.9688 279.609C95.6406 279.12 96.5833 278.875 97.7969 278.875H99.2031V278.211C99.2031 277.706 99.0521 277.305 98.75 277.008C98.4479 276.706 98.0026 276.555 97.4141 276.555C96.8984 276.555 96.4661 276.685 96.1172 276.945C95.7682 277.206 95.5938 277.521 95.5938 277.891H94.1406C94.1406 277.469 94.2891 277.062 94.5859 276.672C94.888 276.276 95.2943 275.964 95.8047 275.734C96.3203 275.505 96.8854 275.391 97.5 275.391C98.474 275.391 99.237 275.635 99.7891 276.125C100.341 276.609 100.628 277.279 100.648 278.133V282.023C100.648 282.799 100.747 283.417 100.945 283.875V284H99.4297ZM97.0312 282.898C97.4844 282.898 97.9141 282.781 98.3203 282.547C98.7266 282.312 99.0208 282.008 99.2031 281.633V279.898H98.0703C96.2995 279.898 95.4141 280.417 95.4141 281.453C95.4141 281.906 95.5651 282.26 95.8672 282.516C96.1693 282.771 96.5573 282.898 97.0312 282.898ZM103.625 284V276.664H102.289V275.547H103.625V274.68C103.625 273.773 103.867 273.073 104.352 272.578C104.836 272.083 105.521 271.836 106.406 271.836C106.74 271.836 107.07 271.88 107.398 271.969L107.32 273.141C107.076 273.094 106.815 273.07 106.539 273.07C106.07 273.07 105.708 273.208 105.453 273.484C105.198 273.755 105.07 274.146 105.07 274.656V275.547H106.875V276.664H105.07V284H103.625ZM108.43 286.266L107.609 285.703C108.099 285.021 108.354 284.318 108.375 283.594V282.289H109.789V283.422C109.789 283.948 109.659 284.474 109.398 285C109.143 285.526 108.82 285.948 108.43 286.266ZM120.508 281.758C120.508 281.367 120.359 281.065 120.062 280.852C119.771 280.633 119.258 280.445 118.523 280.289C117.794 280.133 117.214 279.945 116.781 279.727C116.354 279.508 116.036 279.247 115.828 278.945C115.625 278.643 115.523 278.284 115.523 277.867C115.523 277.174 115.815 276.589 116.398 276.109C116.987 275.63 117.737 275.391 118.648 275.391C119.607 275.391 120.383 275.638 120.977 276.133C121.576 276.628 121.875 277.26 121.875 278.031H120.422C120.422 277.635 120.253 277.294 119.914 277.008C119.581 276.721 119.159 276.578 118.648 276.578C118.122 276.578 117.711 276.693 117.414 276.922C117.117 277.151 116.969 277.451 116.969 277.82C116.969 278.169 117.107 278.432 117.383 278.609C117.659 278.786 118.156 278.956 118.875 279.117C119.599 279.279 120.185 279.471 120.633 279.695C121.081 279.919 121.411 280.19 121.625 280.508C121.844 280.82 121.953 281.203 121.953 281.656C121.953 282.411 121.651 283.018 121.047 283.477C120.443 283.93 119.659 284.156 118.695 284.156C118.018 284.156 117.419 284.036 116.898 283.797C116.378 283.557 115.969 283.224 115.672 282.797C115.38 282.365 115.234 281.898 115.234 281.398H116.68C116.706 281.883 116.898 282.268 117.258 282.555C117.622 282.836 118.102 282.977 118.695 282.977C119.242 282.977 119.68 282.867 120.008 282.648C120.341 282.424 120.508 282.128 120.508 281.758ZM127.344 284.156C126.198 284.156 125.266 283.781 124.547 283.031C123.828 282.276 123.469 281.268 123.469 280.008V279.742C123.469 278.904 123.628 278.156 123.945 277.5C124.268 276.839 124.716 276.323 125.289 275.953C125.867 275.578 126.492 275.391 127.164 275.391C128.263 275.391 129.117 275.753 129.727 276.477C130.336 277.201 130.641 278.237 130.641 279.586V280.188H124.914C124.935 281.021 125.177 281.695 125.641 282.211C126.109 282.721 126.703 282.977 127.422 282.977C127.932 282.977 128.365 282.872 128.719 282.664C129.073 282.456 129.383 282.18 129.648 281.836L130.531 282.523C129.823 283.612 128.76 284.156 127.344 284.156ZM127.164 276.578C126.581 276.578 126.091 276.792 125.695 277.219C125.299 277.641 125.055 278.234 124.961 279H129.195V278.891C129.154 278.156 128.956 277.589 128.602 277.188C128.247 276.781 127.768 276.578 127.164 276.578ZM139.461 279.867C139.461 281.154 139.167 282.19 138.578 282.977C137.99 283.763 137.193 284.156 136.188 284.156C135.161 284.156 134.354 283.831 133.766 283.18V287.25H132.32V275.547H133.641L133.711 276.484C134.299 275.755 135.117 275.391 136.164 275.391C137.18 275.391 137.982 275.773 138.57 276.539C139.164 277.305 139.461 278.37 139.461 279.734V279.867ZM138.016 279.703C138.016 278.75 137.812 277.997 137.406 277.445C137 276.893 136.443 276.617 135.734 276.617C134.859 276.617 134.203 277.005 133.766 277.781V281.82C134.198 282.591 134.859 282.977 135.75 282.977C136.443 282.977 136.992 282.703 137.398 282.156C137.81 281.604 138.016 280.786 138.016 279.703ZM144.812 284.156C143.667 284.156 142.734 283.781 142.016 283.031C141.297 282.276 140.938 281.268 140.938 280.008V279.742C140.938 278.904 141.096 278.156 141.414 277.5C141.737 276.839 142.185 276.323 142.758 275.953C143.336 275.578 143.961 275.391 144.633 275.391C145.732 275.391 146.586 275.753 147.195 276.477C147.805 277.201 148.109 278.237 148.109 279.586V280.188H142.383C142.404 281.021 142.646 281.695 143.109 282.211C143.578 282.721 144.172 282.977 144.891 282.977C145.401 282.977 145.833 282.872 146.188 282.664C146.542 282.456 146.852 282.18 147.117 281.836L148 282.523C147.292 283.612 146.229 284.156 144.812 284.156ZM144.633 276.578C144.049 276.578 143.56 276.792 143.164 277.219C142.768 277.641 142.523 278.234 142.43 279H146.664V278.891C146.622 278.156 146.424 277.589 146.07 277.188C145.716 276.781 145.237 276.578 144.633 276.578ZM153.875 276.844C153.656 276.807 153.419 276.789 153.164 276.789C152.216 276.789 151.573 277.193 151.234 278V284H149.789V275.547H151.195L151.219 276.523C151.693 275.768 152.365 275.391 153.234 275.391C153.516 275.391 153.729 275.427 153.875 275.5V276.844ZM157.562 273.5V275.547H159.141V276.664H157.562V281.906C157.562 282.245 157.633 282.5 157.773 282.672C157.914 282.839 158.154 282.922 158.492 282.922C158.659 282.922 158.888 282.891 159.18 282.828V284C158.799 284.104 158.43 284.156 158.07 284.156C157.424 284.156 156.938 283.961 156.609 283.57C156.281 283.18 156.117 282.625 156.117 281.906V276.664H154.578V275.547H156.117V273.5H157.562ZM162.406 284H160.961V275.547H162.406V284ZM160.844 273.305C160.844 273.07 160.914 272.872 161.055 272.711C161.201 272.549 161.414 272.469 161.695 272.469C161.977 272.469 162.19 272.549 162.336 272.711C162.482 272.872 162.555 273.07 162.555 273.305C162.555 273.539 162.482 273.734 162.336 273.891C162.19 274.047 161.977 274.125 161.695 274.125C161.414 274.125 161.201 274.047 161.055 273.891C160.914 273.734 160.844 273.539 160.844 273.305ZM166.094 275.547L166.141 276.609C166.786 275.797 167.63 275.391 168.672 275.391C170.458 275.391 171.359 276.398 171.375 278.414V284H169.93V278.406C169.924 277.797 169.784 277.346 169.508 277.055C169.237 276.763 168.812 276.617 168.234 276.617C167.766 276.617 167.354 276.742 167 276.992C166.646 277.242 166.37 277.57 166.172 277.977V284H164.727V275.547H166.094ZM176.32 281.883L178.289 275.547H179.836L176.438 285.305C175.911 286.711 175.076 287.414 173.93 287.414L173.656 287.391L173.117 287.289V286.117L173.508 286.148C173.997 286.148 174.378 286.049 174.648 285.852C174.924 285.654 175.151 285.292 175.328 284.766L175.648 283.906L172.633 275.547H174.211L176.32 281.883ZM186.227 284C186.143 283.833 186.076 283.536 186.023 283.109C185.352 283.807 184.549 284.156 183.617 284.156C182.784 284.156 182.099 283.922 181.562 283.453C181.031 282.979 180.766 282.38 180.766 281.656C180.766 280.776 181.099 280.094 181.766 279.609C182.438 279.12 183.38 278.875 184.594 278.875H186V278.211C186 277.706 185.849 277.305 185.547 277.008C185.245 276.706 184.799 276.555 184.211 276.555C183.695 276.555 183.263 276.685 182.914 276.945C182.565 277.206 182.391 277.521 182.391 277.891H180.938C180.938 277.469 181.086 277.062 181.383 276.672C181.685 276.276 182.091 275.964 182.602 275.734C183.117 275.505 183.682 275.391 184.297 275.391C185.271 275.391 186.034 275.635 186.586 276.125C187.138 276.609 187.424 277.279 187.445 278.133V282.023C187.445 282.799 187.544 283.417 187.742 283.875V284H186.227ZM183.828 282.898C184.281 282.898 184.711 282.781 185.117 282.547C185.523 282.312 185.818 282.008 186 281.633V279.898H184.867C183.096 279.898 182.211 280.417 182.211 281.453C182.211 281.906 182.362 282.26 182.664 282.516C182.966 282.771 183.354 282.898 183.828 282.898ZM196.039 280.086L195.133 281.031V284H193.688V272H195.133V279.258L195.906 278.328L198.539 275.547H200.297L197.008 279.078L200.68 284H198.984L196.039 280.086ZM207.008 284C206.924 283.833 206.857 283.536 206.805 283.109C206.133 283.807 205.331 284.156 204.398 284.156C203.565 284.156 202.88 283.922 202.344 283.453C201.812 282.979 201.547 282.38 201.547 281.656C201.547 280.776 201.88 280.094 202.547 279.609C203.219 279.12 204.161 278.875 205.375 278.875H206.781V278.211C206.781 277.706 206.63 277.305 206.328 277.008C206.026 276.706 205.581 276.555 204.992 276.555C204.477 276.555 204.044 276.685 203.695 276.945C203.346 277.206 203.172 277.521 203.172 277.891H201.719C201.719 277.469 201.867 277.062 202.164 276.672C202.466 276.276 202.872 275.964 203.383 275.734C203.898 275.505 204.464 275.391 205.078 275.391C206.052 275.391 206.815 275.635 207.367 276.125C207.919 276.609 208.206 277.279 208.227 278.133V282.023C208.227 282.799 208.326 283.417 208.523 283.875V284H207.008ZM204.609 282.898C205.062 282.898 205.492 282.781 205.898 282.547C206.305 282.312 206.599 282.008 206.781 281.633V279.898H205.648C203.878 279.898 202.992 280.417 202.992 281.453C202.992 281.906 203.143 282.26 203.445 282.516C203.747 282.771 204.135 282.898 204.609 282.898ZM211.852 275.547L211.891 276.484C212.51 275.755 213.346 275.391 214.398 275.391C215.581 275.391 216.385 275.844 216.812 276.75C217.094 276.344 217.458 276.016 217.906 275.766C218.359 275.516 218.893 275.391 219.508 275.391C221.362 275.391 222.305 276.372 222.336 278.336V284H220.891V278.422C220.891 277.818 220.753 277.367 220.477 277.07C220.201 276.768 219.737 276.617 219.086 276.617C218.549 276.617 218.104 276.779 217.75 277.102C217.396 277.419 217.19 277.849 217.133 278.391V284H215.68V278.461C215.68 277.232 215.078 276.617 213.875 276.617C212.927 276.617 212.279 277.021 211.93 277.828V284H210.484V275.547H211.852ZM226.094 284H224.648V275.547H226.094V284ZM224.531 273.305C224.531 273.07 224.602 272.872 224.742 272.711C224.888 272.549 225.102 272.469 225.383 272.469C225.664 272.469 225.878 272.549 226.023 272.711C226.169 272.872 226.242 273.07 226.242 273.305C226.242 273.539 226.169 273.734 226.023 273.891C225.878 274.047 225.664 274.125 225.383 274.125C225.102 274.125 224.888 274.047 224.742 273.891C224.602 273.734 224.531 273.539 224.531 273.305ZM234.344 273.5V275.547H235.922V276.664H234.344V281.906C234.344 282.245 234.414 282.5 234.555 282.672C234.695 282.839 234.935 282.922 235.273 282.922C235.44 282.922 235.669 282.891 235.961 282.828V284C235.581 284.104 235.211 284.156 234.852 284.156C234.206 284.156 233.719 283.961 233.391 283.57C233.062 283.18 232.898 282.625 232.898 281.906V276.664H231.359V275.547H232.898V273.5H234.344ZM239.188 284H237.742V275.547H239.188V284ZM237.625 273.305C237.625 273.07 237.695 272.872 237.836 272.711C237.982 272.549 238.195 272.469 238.477 272.469C238.758 272.469 238.971 272.549 239.117 272.711C239.263 272.872 239.336 273.07 239.336 273.305C239.336 273.539 239.263 273.734 239.117 273.891C238.971 274.047 238.758 274.125 238.477 274.125C238.195 274.125 237.982 274.047 237.836 273.891C237.695 273.734 237.625 273.539 237.625 273.305ZM241.156 279.703C241.156 278.406 241.464 277.365 242.078 276.578C242.693 275.786 243.497 275.391 244.492 275.391C245.482 275.391 246.266 275.729 246.844 276.406V272H248.289V284H246.961L246.891 283.094C246.312 283.802 245.508 284.156 244.477 284.156C243.497 284.156 242.698 283.755 242.078 282.953C241.464 282.151 241.156 281.104 241.156 279.812V279.703ZM242.602 279.867C242.602 280.826 242.799 281.576 243.195 282.117C243.591 282.659 244.138 282.93 244.836 282.93C245.753 282.93 246.422 282.518 246.844 281.695V277.812C246.411 277.016 245.747 276.617 244.852 276.617C244.143 276.617 243.591 276.891 243.195 277.438C242.799 277.984 242.602 278.794 242.602 279.867ZM255.758 284C255.674 283.833 255.607 283.536 255.555 283.109C254.883 283.807 254.081 284.156 253.148 284.156C252.315 284.156 251.63 283.922 251.094 283.453C250.562 282.979 250.297 282.38 250.297 281.656C250.297 280.776 250.63 280.094 251.297 279.609C251.969 279.12 252.911 278.875 254.125 278.875H255.531V278.211C255.531 277.706 255.38 277.305 255.078 277.008C254.776 276.706 254.331 276.555 253.742 276.555C253.227 276.555 252.794 276.685 252.445 276.945C252.096 277.206 251.922 277.521 251.922 277.891H250.469C250.469 277.469 250.617 277.062 250.914 276.672C251.216 276.276 251.622 275.964 252.133 275.734C252.648 275.505 253.214 275.391 253.828 275.391C254.802 275.391 255.565 275.635 256.117 276.125C256.669 276.609 256.956 277.279 256.977 278.133V282.023C256.977 282.799 257.076 283.417 257.273 283.875V284H255.758ZM253.359 282.898C253.812 282.898 254.242 282.781 254.648 282.547C255.055 282.312 255.349 282.008 255.531 281.633V279.898H254.398C252.628 279.898 251.742 280.417 251.742 281.453C251.742 281.906 251.893 282.26 252.195 282.516C252.497 282.771 252.885 282.898 253.359 282.898ZM261.602 280.086L260.695 281.031V284H259.25V272H260.695V279.258L261.469 278.328L264.102 275.547H265.859L262.57 279.078L266.242 284H264.547L261.602 280.086ZM272.68 275.547L272.719 276.484C273.339 275.755 274.174 275.391 275.227 275.391C276.409 275.391 277.214 275.844 277.641 276.75C277.922 276.344 278.286 276.016 278.734 275.766C279.188 275.516 279.721 275.391 280.336 275.391C282.19 275.391 283.133 276.372 283.164 278.336V284H281.719V278.422C281.719 277.818 281.581 277.367 281.305 277.07C281.029 276.768 280.565 276.617 279.914 276.617C279.378 276.617 278.932 276.779 278.578 277.102C278.224 277.419 278.018 277.849 277.961 278.391V284H276.508V278.461C276.508 277.232 275.906 276.617 274.703 276.617C273.755 276.617 273.107 277.021 272.758 277.828V284H271.312V275.547H272.68ZM288.859 284.156C287.714 284.156 286.781 283.781 286.062 283.031C285.344 282.276 284.984 281.268 284.984 280.008V279.742C284.984 278.904 285.143 278.156 285.461 277.5C285.784 276.839 286.232 276.323 286.805 275.953C287.383 275.578 288.008 275.391 288.68 275.391C289.779 275.391 290.633 275.753 291.242 276.477C291.852 277.201 292.156 278.237 292.156 279.586V280.188H286.43C286.451 281.021 286.693 281.695 287.156 282.211C287.625 282.721 288.219 282.977 288.938 282.977C289.448 282.977 289.88 282.872 290.234 282.664C290.589 282.456 290.898 282.18 291.164 281.836L292.047 282.523C291.339 283.612 290.276 284.156 288.859 284.156ZM288.68 276.578C288.096 276.578 287.607 276.792 287.211 277.219C286.815 277.641 286.57 278.234 286.477 279H290.711V278.891C290.669 278.156 290.471 277.589 290.117 277.188C289.763 276.781 289.284 276.578 288.68 276.578ZM295.195 275.547L295.234 276.484C295.854 275.755 296.69 275.391 297.742 275.391C298.924 275.391 299.729 275.844 300.156 276.75C300.438 276.344 300.802 276.016 301.25 275.766C301.703 275.516 302.237 275.391 302.852 275.391C304.706 275.391 305.648 276.372 305.68 278.336V284H304.234V278.422C304.234 277.818 304.096 277.367 303.82 277.07C303.544 276.768 303.081 276.617 302.43 276.617C301.893 276.617 301.448 276.779 301.094 277.102C300.74 277.419 300.534 277.849 300.477 278.391V284H299.023V278.461C299.023 277.232 298.422 276.617 297.219 276.617C296.271 276.617 295.622 277.021 295.273 277.828V284H293.828V275.547H295.195ZM309.438 284H307.992V275.547H309.438V284ZM307.875 273.305C307.875 273.07 307.945 272.872 308.086 272.711C308.232 272.549 308.445 272.469 308.727 272.469C309.008 272.469 309.221 272.549 309.367 272.711C309.513 272.872 309.586 273.07 309.586 273.305C309.586 273.539 309.513 273.734 309.367 273.891C309.221 274.047 309.008 274.125 308.727 274.125C308.445 274.125 308.232 274.047 308.086 273.891C307.945 273.734 307.875 273.539 307.875 273.305ZM313.328 284H311.883V272H313.328V284ZM317.219 284H315.773V275.547H317.219V284ZM315.656 273.305C315.656 273.07 315.727 272.872 315.867 272.711C316.013 272.549 316.227 272.469 316.508 272.469C316.789 272.469 317.003 272.549 317.148 272.711C317.294 272.872 317.367 273.07 317.367 273.305C317.367 273.539 317.294 273.734 317.148 273.891C317.003 274.047 316.789 274.125 316.508 274.125C316.227 274.125 316.013 274.047 315.867 273.891C315.727 273.734 315.656 273.539 315.656 273.305ZM321.898 280.086L320.992 281.031V284H319.547V272H320.992V279.258L321.766 278.328L324.398 275.547H326.156L322.867 279.078L326.539 284H324.844L321.898 280.086ZM329.219 284H327.773V275.547H329.219V284ZM327.656 273.305C327.656 273.07 327.727 272.872 327.867 272.711C328.013 272.549 328.227 272.469 328.508 272.469C328.789 272.469 329.003 272.549 329.148 272.711C329.294 272.872 329.367 273.07 329.367 273.305C329.367 273.539 329.294 273.734 329.148 273.891C329.003 274.047 328.789 274.125 328.508 274.125C328.227 274.125 328.013 274.047 327.867 273.891C327.727 273.734 327.656 273.539 327.656 273.305ZM87.6797 310H86.2344V301.547H87.6797V310ZM86.1172 299.305C86.1172 299.07 86.1875 298.872 86.3281 298.711C86.474 298.549 86.6875 298.469 86.9688 298.469C87.25 298.469 87.4635 298.549 87.6094 298.711C87.7552 298.872 87.8281 299.07 87.8281 299.305C87.8281 299.539 87.7552 299.734 87.6094 299.891C87.4635 300.047 87.25 300.125 86.9688 300.125C86.6875 300.125 86.474 300.047 86.3281 299.891C86.1875 299.734 86.1172 299.539 86.1172 299.305ZM91.3672 301.547L91.4141 302.609C92.0599 301.797 92.9036 301.391 93.9453 301.391C95.7318 301.391 96.6328 302.398 96.6484 304.414V310H95.2031V304.406C95.1979 303.797 95.0573 303.346 94.7812 303.055C94.5104 302.763 94.0859 302.617 93.5078 302.617C93.0391 302.617 92.6276 302.742 92.2734 302.992C91.9193 303.242 91.6432 303.57 91.4453 303.977V310H90V301.547H91.3672ZM99.5391 310V302.664H98.2031V301.547H99.5391V300.68C99.5391 299.773 99.7812 299.073 100.266 298.578C100.75 298.083 101.435 297.836 102.32 297.836C102.654 297.836 102.984 297.88 103.312 297.969L103.234 299.141C102.99 299.094 102.729 299.07 102.453 299.07C101.984 299.07 101.622 299.208 101.367 299.484C101.112 299.755 100.984 300.146 100.984 300.656V301.547H102.789V302.664H100.984V310H99.5391ZM104.008 305.695C104.008 304.867 104.169 304.122 104.492 303.461C104.82 302.799 105.273 302.289 105.852 301.93C106.435 301.57 107.099 301.391 107.844 301.391C108.995 301.391 109.924 301.789 110.633 302.586C111.346 303.383 111.703 304.443 111.703 305.766V305.867C111.703 306.69 111.544 307.43 111.227 308.086C110.914 308.737 110.464 309.245 109.875 309.609C109.292 309.974 108.62 310.156 107.859 310.156C106.714 310.156 105.784 309.758 105.07 308.961C104.362 308.164 104.008 307.109 104.008 305.797V305.695ZM105.461 305.867C105.461 306.805 105.677 307.557 106.109 308.125C106.547 308.693 107.13 308.977 107.859 308.977C108.594 308.977 109.177 308.69 109.609 308.117C110.042 307.539 110.258 306.732 110.258 305.695C110.258 304.768 110.036 304.018 109.594 303.445C109.156 302.867 108.573 302.578 107.844 302.578C107.13 302.578 106.555 302.862 106.117 303.43C105.68 303.997 105.461 304.81 105.461 305.867ZM117.602 302.844C117.383 302.807 117.146 302.789 116.891 302.789C115.943 302.789 115.299 303.193 114.961 304V310H113.516V301.547H114.922L114.945 302.523C115.419 301.768 116.091 301.391 116.961 301.391C117.242 301.391 117.456 301.427 117.602 301.5V302.844ZM120.297 301.547L120.336 302.484C120.956 301.755 121.792 301.391 122.844 301.391C124.026 301.391 124.831 301.844 125.258 302.75C125.539 302.344 125.904 302.016 126.352 301.766C126.805 301.516 127.339 301.391 127.953 301.391C129.807 301.391 130.75 302.372 130.781 304.336V310H129.336V304.422C129.336 303.818 129.198 303.367 128.922 303.07C128.646 302.768 128.182 302.617 127.531 302.617C126.995 302.617 126.549 302.779 126.195 303.102C125.841 303.419 125.635 303.849 125.578 304.391V310H124.125V304.461C124.125 303.232 123.523 302.617 122.32 302.617C121.372 302.617 120.724 303.021 120.375 303.828V310H118.93V301.547H120.297ZM138.188 310C138.104 309.833 138.036 309.536 137.984 309.109C137.312 309.807 136.51 310.156 135.578 310.156C134.745 310.156 134.06 309.922 133.523 309.453C132.992 308.979 132.727 308.38 132.727 307.656C132.727 306.776 133.06 306.094 133.727 305.609C134.398 305.12 135.341 304.875 136.555 304.875H137.961V304.211C137.961 303.706 137.81 303.305 137.508 303.008C137.206 302.706 136.76 302.555 136.172 302.555C135.656 302.555 135.224 302.685 134.875 302.945C134.526 303.206 134.352 303.521 134.352 303.891H132.898C132.898 303.469 133.047 303.062 133.344 302.672C133.646 302.276 134.052 301.964 134.562 301.734C135.078 301.505 135.643 301.391 136.258 301.391C137.232 301.391 137.995 301.635 138.547 302.125C139.099 302.609 139.385 303.279 139.406 304.133V308.023C139.406 308.799 139.505 309.417 139.703 309.875V310H138.188ZM135.789 308.898C136.242 308.898 136.672 308.781 137.078 308.547C137.484 308.312 137.779 308.008 137.961 307.633V305.898H136.828C135.057 305.898 134.172 306.417 134.172 307.453C134.172 307.906 134.323 308.26 134.625 308.516C134.927 308.771 135.315 308.898 135.789 308.898ZM146.594 307.758C146.594 307.367 146.445 307.065 146.148 306.852C145.857 306.633 145.344 306.445 144.609 306.289C143.88 306.133 143.299 305.945 142.867 305.727C142.44 305.508 142.122 305.247 141.914 304.945C141.711 304.643 141.609 304.284 141.609 303.867C141.609 303.174 141.901 302.589 142.484 302.109C143.073 301.63 143.823 301.391 144.734 301.391C145.693 301.391 146.469 301.638 147.062 302.133C147.661 302.628 147.961 303.26 147.961 304.031H146.508C146.508 303.635 146.339 303.294 146 303.008C145.667 302.721 145.245 302.578 144.734 302.578C144.208 302.578 143.797 302.693 143.5 302.922C143.203 303.151 143.055 303.451 143.055 303.82C143.055 304.169 143.193 304.432 143.469 304.609C143.745 304.786 144.242 304.956 144.961 305.117C145.685 305.279 146.271 305.471 146.719 305.695C147.167 305.919 147.497 306.19 147.711 306.508C147.93 306.82 148.039 307.203 148.039 307.656C148.039 308.411 147.737 309.018 147.133 309.477C146.529 309.93 145.745 310.156 144.781 310.156C144.104 310.156 143.505 310.036 142.984 309.797C142.464 309.557 142.055 309.224 141.758 308.797C141.466 308.365 141.32 307.898 141.32 307.398H142.766C142.792 307.883 142.984 308.268 143.344 308.555C143.708 308.836 144.188 308.977 144.781 308.977C145.328 308.977 145.766 308.867 146.094 308.648C146.427 308.424 146.594 308.128 146.594 307.758ZM151.492 310H150.047V301.547H151.492V310ZM149.93 299.305C149.93 299.07 150 298.872 150.141 298.711C150.286 298.549 150.5 298.469 150.781 298.469C151.062 298.469 151.276 298.549 151.422 298.711C151.568 298.872 151.641 299.07 151.641 299.305C151.641 299.539 151.568 299.734 151.422 299.891C151.276 300.047 151.062 300.125 150.781 300.125C150.5 300.125 150.286 300.047 150.141 299.891C150 299.734 149.93 299.539 149.93 299.305ZM160.547 307.883L162.516 301.547H164.062L160.664 311.305C160.138 312.711 159.302 313.414 158.156 313.414L157.883 313.391L157.344 313.289V312.117L157.734 312.148C158.224 312.148 158.604 312.049 158.875 311.852C159.151 311.654 159.378 311.292 159.555 310.766L159.875 309.906L156.859 301.547H158.438L160.547 307.883ZM170.453 310C170.37 309.833 170.302 309.536 170.25 309.109C169.578 309.807 168.776 310.156 167.844 310.156C167.01 310.156 166.326 309.922 165.789 309.453C165.258 308.979 164.992 308.38 164.992 307.656C164.992 306.776 165.326 306.094 165.992 305.609C166.664 305.12 167.607 304.875 168.82 304.875H170.227V304.211C170.227 303.706 170.076 303.305 169.773 303.008C169.471 302.706 169.026 302.555 168.438 302.555C167.922 302.555 167.49 302.685 167.141 302.945C166.792 303.206 166.617 303.521 166.617 303.891H165.164C165.164 303.469 165.312 303.062 165.609 302.672C165.911 302.276 166.318 301.964 166.828 301.734C167.344 301.505 167.909 301.391 168.523 301.391C169.497 301.391 170.26 301.635 170.812 302.125C171.365 302.609 171.651 303.279 171.672 304.133V308.023C171.672 308.799 171.771 309.417 171.969 309.875V310H170.453ZM168.055 308.898C168.508 308.898 168.938 308.781 169.344 308.547C169.75 308.312 170.044 308.008 170.227 307.633V305.898H169.094C167.323 305.898 166.438 306.417 166.438 307.453C166.438 307.906 166.589 308.26 166.891 308.516C167.193 308.771 167.581 308.898 168.055 308.898ZM175.305 301.547L175.352 302.609C175.997 301.797 176.841 301.391 177.883 301.391C179.669 301.391 180.57 302.398 180.586 304.414V310H179.141V304.406C179.135 303.797 178.995 303.346 178.719 303.055C178.448 302.763 178.023 302.617 177.445 302.617C176.977 302.617 176.565 302.742 176.211 302.992C175.857 303.242 175.581 303.57 175.383 303.977V310H173.938V301.547H175.305ZM182.422 305.703C182.422 304.385 182.727 303.339 183.336 302.562C183.945 301.781 184.753 301.391 185.758 301.391C186.789 301.391 187.594 301.755 188.172 302.484L188.242 301.547H189.562V309.797C189.562 310.891 189.237 311.753 188.586 312.383C187.94 313.013 187.07 313.328 185.977 313.328C185.367 313.328 184.771 313.198 184.188 312.938C183.604 312.677 183.159 312.32 182.852 311.867L183.602 311C184.221 311.766 184.979 312.148 185.875 312.148C186.578 312.148 187.125 311.951 187.516 311.555C187.911 311.159 188.109 310.602 188.109 309.883V309.156C187.531 309.823 186.742 310.156 185.742 310.156C184.753 310.156 183.951 309.758 183.336 308.961C182.727 308.164 182.422 307.078 182.422 305.703ZM183.875 305.867C183.875 306.82 184.07 307.57 184.461 308.117C184.852 308.659 185.398 308.93 186.102 308.93C187.013 308.93 187.682 308.516 188.109 307.688V303.828C187.667 303.021 187.003 302.617 186.117 302.617C185.414 302.617 184.865 302.891 184.469 303.438C184.073 303.984 183.875 304.794 183.875 305.867ZM202.227 307.031H197.461L196.391 310H194.844L199.188 298.625H200.5L204.852 310H203.312L202.227 307.031ZM197.914 305.797H201.781L199.844 300.477L197.914 305.797ZM207.523 301.547L207.57 302.609C208.216 301.797 209.06 301.391 210.102 301.391C211.888 301.391 212.789 302.398 212.805 304.414V310H211.359V304.406C211.354 303.797 211.214 303.346 210.938 303.055C210.667 302.763 210.242 302.617 209.664 302.617C209.195 302.617 208.784 302.742 208.43 302.992C208.076 303.242 207.799 303.57 207.602 303.977V310H206.156V301.547H207.523ZM214.633 305.703C214.633 304.406 214.94 303.365 215.555 302.578C216.169 301.786 216.974 301.391 217.969 301.391C218.958 301.391 219.742 301.729 220.32 302.406V298H221.766V310H220.438L220.367 309.094C219.789 309.802 218.984 310.156 217.953 310.156C216.974 310.156 216.174 309.755 215.555 308.953C214.94 308.151 214.633 307.104 214.633 305.812V305.703ZM216.078 305.867C216.078 306.826 216.276 307.576 216.672 308.117C217.068 308.659 217.615 308.93 218.312 308.93C219.229 308.93 219.898 308.518 220.32 307.695V303.812C219.888 303.016 219.224 302.617 218.328 302.617C217.62 302.617 217.068 302.891 216.672 303.438C216.276 303.984 216.078 304.794 216.078 305.867ZM229.234 310C229.151 309.833 229.083 309.536 229.031 309.109C228.359 309.807 227.557 310.156 226.625 310.156C225.792 310.156 225.107 309.922 224.57 309.453C224.039 308.979 223.773 308.38 223.773 307.656C223.773 306.776 224.107 306.094 224.773 305.609C225.445 305.12 226.388 304.875 227.602 304.875H229.008V304.211C229.008 303.706 228.857 303.305 228.555 303.008C228.253 302.706 227.807 302.555 227.219 302.555C226.703 302.555 226.271 302.685 225.922 302.945C225.573 303.206 225.398 303.521 225.398 303.891H223.945C223.945 303.469 224.094 303.062 224.391 302.672C224.693 302.276 225.099 301.964 225.609 301.734C226.125 301.505 226.69 301.391 227.305 301.391C228.279 301.391 229.042 301.635 229.594 302.125C230.146 302.609 230.432 303.279 230.453 304.133V308.023C230.453 308.799 230.552 309.417 230.75 309.875V310H229.234ZM226.836 308.898C227.289 308.898 227.719 308.781 228.125 308.547C228.531 308.312 228.826 308.008 229.008 307.633V305.898H227.875C226.104 305.898 225.219 306.417 225.219 307.453C225.219 307.906 225.37 308.26 225.672 308.516C225.974 308.771 226.362 308.898 226.836 308.898ZM240.078 308.977C240.594 308.977 241.044 308.82 241.43 308.508C241.815 308.195 242.029 307.805 242.07 307.336H243.438C243.411 307.82 243.245 308.281 242.938 308.719C242.63 309.156 242.219 309.505 241.703 309.766C241.193 310.026 240.651 310.156 240.078 310.156C238.927 310.156 238.01 309.773 237.328 309.008C236.651 308.237 236.312 307.185 236.312 305.852V305.609C236.312 304.786 236.464 304.055 236.766 303.414C237.068 302.773 237.5 302.276 238.062 301.922C238.63 301.568 239.299 301.391 240.07 301.391C241.018 301.391 241.805 301.674 242.43 302.242C243.06 302.81 243.396 303.547 243.438 304.453H242.07C242.029 303.906 241.82 303.458 241.445 303.109C241.076 302.755 240.617 302.578 240.07 302.578C239.336 302.578 238.766 302.844 238.359 303.375C237.958 303.901 237.758 304.664 237.758 305.664V305.938C237.758 306.911 237.958 307.661 238.359 308.188C238.76 308.714 239.333 308.977 240.078 308.977ZM250.281 310C250.198 309.833 250.13 309.536 250.078 309.109C249.406 309.807 248.604 310.156 247.672 310.156C246.839 310.156 246.154 309.922 245.617 309.453C245.086 308.979 244.82 308.38 244.82 307.656C244.82 306.776 245.154 306.094 245.82 305.609C246.492 305.12 247.435 304.875 248.648 304.875H250.055V304.211C250.055 303.706 249.904 303.305 249.602 303.008C249.299 302.706 248.854 302.555 248.266 302.555C247.75 302.555 247.318 302.685 246.969 302.945C246.62 303.206 246.445 303.521 246.445 303.891H244.992C244.992 303.469 245.141 303.062 245.438 302.672C245.74 302.276 246.146 301.964 246.656 301.734C247.172 301.505 247.737 301.391 248.352 301.391C249.326 301.391 250.089 301.635 250.641 302.125C251.193 302.609 251.479 303.279 251.5 304.133V308.023C251.5 308.799 251.599 309.417 251.797 309.875V310H250.281ZM247.883 308.898C248.336 308.898 248.766 308.781 249.172 308.547C249.578 308.312 249.872 308.008 250.055 307.633V305.898H248.922C247.151 305.898 246.266 306.417 246.266 307.453C246.266 307.906 246.417 308.26 246.719 308.516C247.021 308.771 247.409 308.898 247.883 308.898ZM257.852 302.844C257.633 302.807 257.396 302.789 257.141 302.789C256.193 302.789 255.549 303.193 255.211 304V310H253.766V301.547H255.172L255.195 302.523C255.669 301.768 256.341 301.391 257.211 301.391C257.492 301.391 257.706 301.427 257.852 301.5V302.844ZM260.758 310H259.312V301.547H260.758V310ZM259.195 299.305C259.195 299.07 259.266 298.872 259.406 298.711C259.552 298.549 259.766 298.469 260.047 298.469C260.328 298.469 260.542 298.549 260.688 298.711C260.833 298.872 260.906 299.07 260.906 299.305C260.906 299.539 260.833 299.734 260.688 299.891C260.542 300.047 260.328 300.125 260.047 300.125C259.766 300.125 259.552 300.047 259.406 299.891C259.266 299.734 259.195 299.539 259.195 299.305Z" fill="#757575"/>
</svg>
