<svg width="40" height="40" viewBox="0 0 40 40" fill="none"
  xmlns="http://www.w3.org/2000/svg">
  <g clip-path="url(#clip0)">
    <path d="M35.1777 27.8068C32.7341 24.4864 29.3092 22.1235 25.3511 20.9788C28.6789 18.0084 28.2053 15.0585 28.2155 10.984L28.3548 10.1817C29.0019 6.83653 26.5765 3.42656 23.2653 2.7264C20.8663 -1.22795 14.71 -0.792992 12.93 3.46126C9.24617 4.85298 8.59033 9.68414 11.8018 11.9411V14.7542C11.8018 17.2402 12.9131 19.4713 14.6649 20.9776C6.30117 23.317 0.718666 31.368 1.20857 40H38.8036C38.9827 35.6256 37.8141 31.3288 35.1777 27.8068ZM14.1081 5.54704L14.7774 5.38869L14.9657 4.72722C15.3681 3.31385 16.7337 2.32685 18.2866 2.32685C19.6505 2.32685 20.8868 3.08906 21.4363 4.26873L21.7035 4.84227L22.3296 4.93372C24.4709 5.20337 26.2265 7.12963 26.0998 9.27974L21.1826 7.44579L20.6547 7.9192C19.969 8.53643 19.041 8.85728 18.0994 8.80757L17.4313 8.77404L17.0625 9.33226C15.659 11.4361 12.1967 10.598 12.0736 8.0638C12.0435 6.87264 12.8801 5.83764 14.1081 5.54704ZM14.1467 14.7543V12.8406C15.814 13.0516 17.5412 12.3893 18.6195 11.1482C19.7127 11.0878 20.757 10.7312 21.6428 10.12L25.8707 11.697V14.7544C25.5486 22.5316 14.4671 22.5281 14.1467 14.7543ZM22.3663 22.6154L19.9997 25.6111L17.5844 22.5955C19.0818 23.0729 20.8633 23.0805 22.3663 22.6154ZM33.7362 37.6552L31.3463 34.7015L29.5235 36.1764L30.72 37.6552H16.3691L15.9305 34.5226L13.6083 34.8476L14.0014 37.6551H3.59488C3.72244 35.8603 4.14333 34.1202 4.84005 32.4852L7.05182 33.8173L8.26166 31.8088L5.916 30.396C8.00155 26.9684 11.2855 24.4269 15.1338 23.2868L20.0124 29.3777L24.8347 23.2734C26.1234 23.6574 27.3566 24.1903 28.4921 24.861L27.023 26.6096L28.8182 28.118L30.4278 26.2023C33.8837 28.9761 36.132 33.24 36.4173 37.6553H33.7362V37.6552Z" fill="#008444"/>
    <path d="M22.54 33.5449L25.0892 30.534L26.8783 32.0488L24.3291 35.0597L22.54 33.5449Z" fill="#008444"/>
    <path d="M10.9248 29.675L13.474 26.6641L15.2631 28.1789L12.7139 31.1898L10.9248 29.675Z" fill="#008444"/>
  </g>
  <defs>
    <clipPath id="clip0">
      <rect width="40" height="40" fill="white"/>
    </clipPath>
  </defs>
</svg>
