<svg width="554" height="320" viewBox="0 0 554 320" fill="none" xmlns="http://www.w3.org/2000/svg">
<path d="M302.39 236.243C302.255 235.917 302.099 235.601 301.924 235.295L194.581 49.3492C193.508 47.4904 191.741 46.134 189.668 45.5783C187.595 45.0227 185.386 45.3133 183.527 46.3862L100.31 94.4372L98.2789 90.9187L94.4674 99.2122C93.936 100.434 93.7075 101.766 93.8012 103.095C93.895 104.424 94.3083 105.71 95.0059 106.845L202.35 292.792C203.423 294.65 205.191 296.007 207.264 296.562C209.337 297.118 211.546 296.827 213.404 295.754L298.962 246.351C300.498 245.466 301.7 244.1 302.382 242.464L306.191 233.506L302.39 236.243Z" fill="#212121"/>
<path d="M302.783 237.37L217.224 286.773C215.365 287.846 213.156 288.137 211.083 287.582C209.01 287.026 207.243 285.67 206.169 283.811L98.825 97.865C97.752 96.0062 97.4612 93.7971 98.0166 91.7238C98.5721 89.6505 99.9283 87.8828 101.787 86.8095L187.346 37.4058C189.205 36.3329 191.414 36.0423 193.487 36.598C195.56 37.1536 197.327 38.51 198.4 40.3688L305.745 226.315C306.818 228.174 307.109 230.383 306.553 232.456C305.998 234.529 304.642 236.297 302.783 237.37Z" fill="white"/>
<path d="M135.013 70.986C134.928 70.9862 134.844 70.9581 134.777 70.9062C134.709 70.8542 134.66 70.7814 134.638 70.6988C134.615 70.6163 134.621 70.5287 134.654 70.4497C134.686 70.3707 134.744 70.3047 134.818 70.262L156.502 57.7413C156.546 57.7158 156.595 57.6993 156.645 57.6927C156.696 57.686 156.747 57.6894 156.796 57.7027C156.846 57.7159 156.892 57.7387 156.932 57.7697C156.973 57.8008 157.007 57.8395 157.032 57.8837C157.058 57.9279 157.074 57.9766 157.081 58.0272C157.087 58.0778 157.084 58.1292 157.071 58.1784C157.057 58.2277 157.035 58.2738 157.004 58.3143C156.973 58.3547 156.934 58.3887 156.89 58.4141L135.206 70.934C135.148 70.9684 135.081 70.9863 135.013 70.986Z" fill="#EF5350"/>
<path d="M299.788 220.404L197.961 44.0199C196.336 41.2049 192.737 40.2405 189.922 41.8658L104.364 91.2694C101.55 92.8947 100.586 96.4941 102.211 99.309L204.038 275.693C205.663 278.508 209.262 279.473 212.077 277.848L297.634 228.444C300.449 226.819 301.413 223.219 299.788 220.404Z" fill="#E3F2FD"/>
<path d="M279.901 185.962L233.773 265.323L212.073 277.853C210.721 278.631 209.115 278.842 207.608 278.438C206.101 278.034 204.815 277.049 204.034 275.698L197.698 264.719L261.751 154.517L279.901 185.962ZM145.427 174.175L209.48 63.9768L197.96 44.0208C197.178 42.6702 195.893 41.6849 194.385 41.281C192.878 40.8771 191.272 41.0877 189.92 41.8665L157.28 60.7135L118.473 127.483L145.427 174.175ZM243.179 122.347L233.192 105.048L169.139 215.246L179.126 232.546L243.179 122.347Z" fill="#BBDEFB"/>
<path d="M272.725 228.395L207.284 236.11C205.034 255.97 206.904 271.261 208.203 278.56C209.536 278.777 210.904 278.526 212.074 277.849L290.532 232.546L272.725 228.395Z" fill="#212121"/>
<path d="M122.663 146.01C122.478 146.117 122.258 146.146 122.051 146.09C121.845 146.035 121.669 145.9 121.562 145.714L114.496 133.475C114.443 133.383 114.408 133.282 114.395 133.176C114.381 133.071 114.388 132.965 114.415 132.862C114.443 132.76 114.49 132.664 114.555 132.58C114.619 132.496 114.7 132.425 114.791 132.373C114.977 132.266 115.197 132.237 115.403 132.292C115.61 132.347 115.786 132.482 115.893 132.667L122.959 144.907C123.012 144.999 123.047 145.1 123.06 145.206C123.074 145.311 123.067 145.417 123.04 145.52C123.012 145.622 122.965 145.718 122.9 145.802C122.836 145.886 122.755 145.957 122.663 146.01ZM132.742 161.854L125.676 149.615C125.624 149.523 125.553 149.443 125.469 149.378C125.385 149.314 125.289 149.266 125.187 149.239C125.084 149.212 124.978 149.205 124.873 149.218C124.768 149.232 124.666 149.267 124.575 149.32C124.483 149.373 124.402 149.443 124.338 149.527C124.273 149.611 124.226 149.707 124.198 149.81C124.171 149.912 124.164 150.019 124.178 150.124C124.192 150.229 124.226 150.33 124.279 150.422L131.345 162.662C131.452 162.847 131.628 162.982 131.835 163.037C132.041 163.092 132.261 163.063 132.447 162.956C132.539 162.904 132.62 162.833 132.684 162.75C132.749 162.666 132.797 162.57 132.825 162.467C132.852 162.365 132.86 162.258 132.846 162.153C132.833 162.048 132.798 161.946 132.745 161.854H132.742ZM260.245 265.54C260.15 265.376 259.994 265.256 259.811 265.207C259.628 265.158 259.433 265.184 259.268 265.278L251.222 269.925C251.058 270.02 250.938 270.176 250.889 270.359C250.84 270.542 250.865 270.738 250.96 270.902C251.055 271.066 251.211 271.185 251.394 271.234C251.577 271.283 251.772 271.258 251.936 271.163L259.983 266.517C260.147 266.422 260.267 266.266 260.316 266.083C260.366 265.9 260.34 265.704 260.245 265.54ZM245.032 273.499C244.292 273.927 243.852 274.55 244.049 274.896C244.247 275.242 245.006 275.168 245.746 274.741C246.487 274.313 246.926 273.69 246.729 273.344C246.532 272.998 245.772 273.072 245.032 273.499Z" fill="#16A75C"/>
<path d="M211.112 87.2697C209.858 87.6933 208.574 88.0182 207.269 88.2413C207.36 89.1823 207.375 90.129 207.313 91.0723L211.112 87.2697Z" fill="#16A75C"/>
<path d="M206.368 83.2436C204.707 77.3883 201.363 72.15 196.751 68.179C184.968 57.7281 170.729 73.9862 183.19 83.0791C187.623 86.3153 192.869 88.2557 198.342 88.6836C191.799 90.7285 182.383 94.5544 183.676 99.3651C185.228 105.136 197.266 95.4158 202.203 91.1274C202.656 88.1028 204.125 85.3226 206.368 83.2436Z" fill="#212121"/>
<path d="M204.625 191.949L165.581 188.917C162.824 184.777 164.029 179.466 165.855 174.838C167.68 170.211 167.606 164.547 167.519 159.573C167.411 153.478 165.993 149.219 164.893 143.222C163.701 136.729 166.111 129.945 170.184 124.752C171.978 122.331 174.123 120.191 176.546 118.401C178.997 116.747 181.785 115.666 184.201 113.885C189.038 110.325 193.072 105.788 196.042 100.568C199.107 95.152 200.984 89.0662 204.611 84.0088C207.756 79.6229 212.079 76.2175 217.079 74.1868C222.08 72.1562 227.553 71.5832 232.865 72.5342C238.177 73.4853 243.111 75.9215 247.097 79.5608C251.082 83.2002 253.955 87.8938 255.384 93.0986C257.228 99.8168 256.562 106.923 256.44 113.888C256.23 125.742 257.75 137.957 263.484 148.333L204.625 191.949Z" fill="#212121"/>
<path d="M259.465 138.805L246.062 137.277L211.852 137.427L192.558 142.499C192.575 154.528 207.28 236.11 207.28 236.11L272.722 228.395C272.722 228.395 264.178 162.942 259.465 138.805Z" fill="#16A75C"/>
<path d="M220.78 135.255L211.856 137.428C211.856 137.428 229.186 153.118 237.569 150.506C245.952 147.893 246.067 137.278 246.067 137.278L239.441 136.701L220.78 135.255Z" fill="#16A75C"/>
<path d="M219.088 135.666L212.797 116.433C212.797 116.433 202.787 121.517 200.757 113.038C198.951 105.483 207.202 103.737 211.709 106.777C211.709 106.777 200.775 81.0427 223.617 75.6896C246.458 70.3364 251.102 101.997 252.26 109.656C254.301 123.143 245.509 130.98 238.598 132.627L240.293 140.835C240.293 140.835 241.805 147.734 235.087 149.23C222.874 151.951 219.088 135.666 219.088 135.666Z" fill="#F4A386"/>
<path d="M210.54 113.051C210.582 113.05 210.623 113.045 210.663 113.036C210.737 113.019 210.807 112.988 210.868 112.944C210.93 112.9 210.983 112.845 211.023 112.781C211.063 112.717 211.091 112.645 211.103 112.571C211.116 112.496 211.114 112.42 211.097 112.346C210.925 111.59 210.574 110.886 210.074 110.293C209.574 109.701 208.939 109.237 208.222 108.94C207.506 108.644 206.729 108.523 205.956 108.589C205.183 108.655 204.438 108.906 203.782 109.319C203.658 109.404 203.572 109.533 203.542 109.679C203.511 109.825 203.539 109.978 203.619 110.105C203.698 110.231 203.824 110.322 203.969 110.358C204.115 110.393 204.268 110.371 204.397 110.296C204.897 109.98 205.465 109.788 206.054 109.738C206.643 109.687 207.236 109.778 207.782 110.004C208.329 110.23 208.813 110.584 209.194 111.036C209.575 111.488 209.843 112.025 209.973 112.601C210.002 112.73 210.075 112.844 210.178 112.926C210.281 113.008 210.409 113.052 210.54 113.051Z" fill="#16A75C"/>
<path d="M238.598 132.629C233.871 133.572 228.969 133.024 224.567 131.06C224.567 131.06 228.473 135.812 239.077 134.964L238.598 132.629Z" fill="#E53935"/>
<path d="M244.915 85.6874L224.082 89.365C232.753 93.0373 242.166 91.7289 247.33 90.5058C246.632 88.8482 245.825 87.2385 244.915 85.6874Z" fill="#E53935"/>
<path d="M206.219 92.7913C206.219 92.7913 207.547 77.7252 224.018 74.2438C240.49 70.7625 249.688 88.076 249.688 88.076C238.525 92.6601 224.081 89.365 224.081 89.365C224.401 98.8103 217.33 102.593 217.33 102.593C219.189 113.512 219.78 124.61 219.089 135.665C219.089 135.665 203.816 124.878 199.329 115.826C194.842 106.773 206.219 92.7913 206.219 92.7913Z" fill="#212121"/>
<path d="M152.732 50.2307C152.732 50.2307 153.25 46.6074 153.896 43.0135C154.542 39.4197 157.566 30.9717 155.896 29.8262C154.225 28.6808 150.018 38.6855 150.018 38.6855C150.018 38.6855 144.478 20.5145 142.227 20.3127C139.559 20.0729 143.319 32.27 143.319 32.27C143.319 32.27 136.884 20.0124 135.002 20.2755C133.119 20.5386 138.749 32.7698 138.749 32.7698C138.749 32.7698 130.602 21.0119 128.903 21.3542C127.205 21.6964 133.994 33.5489 133.994 33.5489C133.994 33.5489 127.182 23.8352 125.572 24.6818C123.962 25.5285 139.662 54.4431 139.662 54.4431L152.732 50.2307Z" fill="#F4A386"/>
<path d="M219.088 135.666L159.776 129.14L158.572 50.2408H132.888C132.888 50.2408 126.723 140.53 132.078 146.414C137.433 152.299 198.762 170.95 198.762 170.95L219.088 135.666Z" fill="#16A75C"/>
<path d="M287.915 122.013C285.764 118.394 282.018 117.147 281.272 118.644C280.526 120.142 283.91 124.963 285.338 128.168C286.766 131.373 291.047 145.52 291.047 145.52L306.994 141.832L305.896 132.033L287.915 122.013Z" fill="#F4A386"/>
<path d="M259.465 138.805C270.599 140.544 298.573 181.15 298.573 181.15L287.883 144.667L311.345 139.828C311.345 139.828 336.02 203.525 316.363 217.904C296.706 232.283 259.461 179.257 259.461 179.257L259.465 138.805Z" fill="#16A75C"/>
<path d="M332.81 93.9269C338.222 93.336 342.13 88.4691 341.539 83.0564C340.948 77.6437 336.082 73.7348 330.67 74.3256C325.258 74.9165 321.35 79.7834 321.941 85.1961C322.531 90.6088 327.398 94.5177 332.81 93.9269Z" fill="#EEEEEE"/>
<path d="M331.745 74.2679C330.314 74.266 328.899 74.5768 327.601 75.1785C326.303 75.7802 325.151 76.6584 324.227 77.7515C326.31 82.7042 329.07 87.3439 332.428 91.5379C333.009 92.2604 333.627 92.9728 334.281 93.6472C334.696 93.5391 335.104 93.4043 335.502 93.2437C336.934 92.652 338.207 91.7301 339.215 90.5531C340.224 89.3762 340.94 87.9775 341.306 86.4711C337.408 83.0143 334.169 78.8797 331.745 74.2679Z" fill="#212121"/>
<path d="M281.526 97.5763L270.786 104.605L274.904 114.582L287.474 111.987L281.526 97.5763Z" fill="#EEEEEE"/>
<path d="M284.192 114.354C284.192 114.354 287.935 123.42 289.815 127.977C291.695 132.534 294.245 136.034 297.601 134.651C300.226 133.565 299.067 130.643 297.729 125.11C296.423 119.706 296.476 109.87 296.476 109.87L284.192 114.354Z" fill="#757575"/>
<path d="M285.213 116.827L296.659 116.344C296.461 112.802 296.476 109.868 296.476 109.868L284.192 114.354L285.213 116.827Z" fill="#212121"/>
<path d="M290.457 88.6782L273.083 100.049L279.745 116.19L300.08 111.993L290.457 88.6782Z" fill="#BDBDBD"/>
<path d="M291.076 87.7837C290.691 88.3415 290.614 89.0565 290.873 89.6831L299.665 110.988C299.924 111.614 300.482 112.068 301.149 112.191L347.114 120.717C348.673 121.007 349.933 119.454 349.328 117.988L321.137 49.687C320.532 48.2214 318.544 48.0088 317.643 49.3136L291.076 87.7837Z" fill="#EEEEEE"/>
<path d="M301.48 115.314C297.155 115.596 291.093 124.759 291.486 126.631C291.878 128.502 295.871 126.16 295.871 126.16C295.871 126.16 294.125 130.29 295.434 131.204C296.744 132.117 298.367 130.123 298.367 130.123C298.367 130.123 296.126 134.538 297.244 135.664C298.362 136.789 301.48 133.866 301.48 133.866C301.48 133.866 300.445 137.742 301.838 138.238C303.232 138.734 311.468 129.374 310.47 128.251C309.471 127.128 307.215 127.417 307.215 127.417C307.215 127.417 309.971 122.507 308.473 121.385C306.976 120.263 305.354 122.136 305.354 122.136C305.354 122.136 306.851 118.656 305.604 117.525C304.356 116.395 302.533 118.392 302.533 118.392C302.533 118.392 302.967 115.216 301.48 115.314Z" fill="#F4A386"/>
<path d="M146.084 47.066C145.976 47.066 145.871 47.0341 145.782 46.9743C145.693 46.9144 145.623 46.8294 145.582 46.73C144.9 45.1144 143.848 43.6816 142.512 42.5469C141.175 41.4122 139.59 40.6074 137.885 40.1973C137.814 40.1833 137.746 40.155 137.685 40.1142C137.625 40.0734 137.573 40.0208 137.534 39.9596C137.494 39.8984 137.467 39.8298 137.455 39.758C137.442 39.6861 137.444 39.6125 137.461 39.5414C137.477 39.4704 137.508 39.4034 137.551 39.3444C137.593 39.2855 137.648 39.2358 137.71 39.1983C137.773 39.1607 137.842 39.1362 137.915 39.1261C137.987 39.116 138.06 39.1206 138.131 39.1395C140.004 39.5891 141.746 40.4728 143.215 41.7193C144.684 42.9658 145.839 44.5403 146.588 46.3156C146.622 46.3981 146.636 46.4876 146.627 46.5764C146.618 46.6652 146.587 46.7504 146.538 46.8246C146.488 46.8987 146.421 46.9596 146.343 47.0017C146.264 47.0438 146.176 47.0659 146.087 47.066H146.084Z" fill="#E53935"/>
<path d="M233.558 154.151C225.714 154.151 219.295 149.716 215.362 141.521C215.31 141.393 215.309 141.25 215.36 141.121C215.41 140.992 215.507 140.887 215.632 140.828C215.757 140.769 215.9 140.759 216.032 140.801C216.163 140.844 216.274 140.935 216.341 141.056C220.336 149.38 227.002 153.628 235.106 153.007C238.259 152.767 240.632 151.572 242.159 149.455C244.116 146.739 244.154 143.142 243.537 140.678C243.502 140.538 243.524 140.39 243.599 140.266C243.673 140.143 243.793 140.054 243.933 140.019C244.073 139.984 244.221 140.006 244.344 140.08C244.468 140.154 244.557 140.274 244.592 140.414C245.041 142.044 245.135 143.751 244.868 145.421C244.6 147.09 243.977 148.683 243.04 150.09C241.341 152.446 238.626 153.829 235.188 154.09C234.639 154.131 234.095 154.151 233.558 154.151Z" fill="#006430"/>
<path d="M268.141 187.985C268.03 187.985 267.922 187.952 267.831 187.888C267.739 187.825 267.67 187.735 267.631 187.631C267.593 187.527 267.587 187.414 267.615 187.306C267.642 187.199 267.702 187.102 267.787 187.03C277.846 178.36 263.511 157.881 263.364 157.675C263.28 157.558 263.247 157.412 263.271 157.27C263.295 157.128 263.375 157.001 263.493 156.918C263.61 156.835 263.756 156.801 263.898 156.826C264.04 156.85 264.166 156.929 264.25 157.047C266.747 160.72 268.823 164.662 270.438 168.8C273.667 177.385 272.998 183.973 268.498 187.853C268.399 187.939 268.272 187.986 268.141 187.985Z" fill="#006430"/>
<path d="M347.988 41.3031L344.2 41.1122C334.666 40.6318 332.82 37.4361 332.126 36.2324C331.456 35.0728 331.204 33.719 331.409 32.3958C331.615 31.0726 332.267 29.8596 333.257 28.9582C334.247 28.0567 335.516 27.5211 336.852 27.4401C338.189 27.3592 339.513 27.7378 340.605 28.5131C340.479 27.18 340.814 25.844 341.552 24.727C342.29 23.6101 343.389 22.7792 344.664 22.3724C345.94 21.9655 347.316 22.0071 348.565 22.4903C349.813 22.9735 350.859 23.8691 351.529 25.0287C353.279 28.0599 352.336 31.5638 351.319 34.2784C350.849 35.5214 350.314 36.7388 349.716 37.9258L347.988 41.3031Z" fill="#EF5350"/>
<path d="M382.091 28.0716L379.733 27.9528C373.799 27.6541 372.651 25.6651 372.218 24.9162C371.802 24.1945 371.645 23.3522 371.773 22.5291C371.901 21.706 372.307 20.9515 372.923 20.3906C373.539 19.8298 374.328 19.4964 375.159 19.4456C375.991 19.3949 376.815 19.6299 377.494 20.1117C377.416 19.282 377.624 18.4506 378.084 17.7555C378.543 17.0604 379.227 16.5433 380.02 16.29C380.814 16.0368 381.671 16.0626 382.448 16.3632C383.225 16.6638 383.876 17.2211 384.293 17.9427C385.379 19.8292 384.796 22.0099 384.162 23.6993C383.87 24.4731 383.537 25.2311 383.165 25.97L382.091 28.0716Z" fill="#EF5350"/>
<path d="M377.301 66.9762L371.768 66.6976C357.84 65.9991 355.144 61.3273 354.13 59.5696C353.153 57.8755 352.784 55.8981 353.085 53.9656C353.386 52.0331 354.339 50.2616 355.785 48.945C357.231 47.6284 359.084 46.8459 361.036 46.7273C362.988 46.6087 364.922 47.1611 366.516 48.2929C366.333 46.3455 366.821 44.3939 367.9 42.7622C368.979 41.1304 370.583 39.9167 372.446 39.3223C374.309 38.7279 376.32 38.7887 378.144 39.4946C379.968 40.2004 381.496 41.5089 382.474 43.2029C385.03 47.6302 383.653 52.7482 382.168 56.7145C381.482 58.5308 380.701 60.3097 379.827 62.0436L377.301 66.9762Z" fill="#EF5350"/>
<path d="M422.1 110.061L332.919 161.486C329.091 163.693 327.781 168.583 329.992 172.408L381.516 261.54C383.727 265.365 388.623 266.677 392.45 264.47L481.632 213.045C485.459 210.838 486.769 205.948 484.558 202.123L433.034 112.991C430.823 109.166 425.928 107.854 422.1 110.061Z" fill="#EEEEEE"/>
<path d="M435.867 139.652L351.687 188.261C349.774 189.366 349.118 191.812 350.223 193.726L378.109 242.03C379.213 243.944 381.659 244.599 383.572 243.494L467.752 194.885C469.665 193.78 470.32 191.334 469.216 189.421L441.33 141.116C440.226 139.202 437.78 138.547 435.867 139.652Z" fill="#FAFAFA"/>
<path d="M356.83 166.709C357.781 168.355 358.222 170.247 358.097 172.145C357.973 174.043 357.289 175.861 356.131 177.369C354.974 178.878 353.395 180.01 351.594 180.621C349.794 181.232 347.852 181.296 346.016 180.804C344.179 180.312 342.53 179.286 341.276 177.856C340.022 176.426 339.221 174.657 338.972 172.771C338.724 170.886 339.041 168.969 339.882 167.263C340.723 165.558 342.05 164.14 343.697 163.189C345.905 161.914 348.529 161.569 350.992 162.229C353.455 162.889 355.555 164.5 356.83 166.709Z" fill="#BDBDBD"/>
<path d="M379.553 153.518L363.819 162.603C363.624 162.716 363.408 162.789 363.185 162.818C362.962 162.848 362.735 162.833 362.517 162.775C362.3 162.716 362.096 162.616 361.917 162.479C361.739 162.342 361.589 162.171 361.476 161.975C361.249 161.581 361.187 161.113 361.305 160.674C361.422 160.234 361.71 159.859 362.104 159.632L377.838 150.547C378.033 150.434 378.249 150.361 378.472 150.331C378.695 150.302 378.922 150.317 379.14 150.375C379.357 150.433 379.561 150.534 379.74 150.671C379.919 150.808 380.069 150.979 380.181 151.175C380.409 151.569 380.47 152.037 380.352 152.477C380.235 152.916 379.947 153.291 379.553 153.518Z" fill="white"/>
<path d="M403.233 150L368.831 169.867C368.555 170.026 368.251 170.13 367.935 170.172C367.619 170.213 367.298 170.192 366.99 170.11C366.683 170.027 366.394 169.885 366.141 169.691C365.889 169.497 365.676 169.255 365.517 168.979C365.196 168.422 365.108 167.76 365.275 167.138C365.441 166.517 365.848 165.987 366.405 165.665L400.807 145.798C401.364 145.476 402.026 145.389 402.647 145.556C403.269 145.722 403.799 146.129 404.12 146.686C404.442 147.243 404.529 147.905 404.363 148.527C404.196 149.148 403.79 149.678 403.233 150Z" fill="white"/>
<path d="M451.363 220.411L416.962 240.278C416.686 240.437 416.382 240.541 416.066 240.582C415.75 240.624 415.429 240.603 415.121 240.52C414.813 240.438 414.525 240.296 414.272 240.102C414.019 239.908 413.807 239.666 413.648 239.39C413.326 238.833 413.239 238.17 413.406 237.549C413.572 236.927 413.979 236.397 414.536 236.075L448.938 216.209C449.495 215.887 450.157 215.8 450.778 215.966C451.4 216.133 451.929 216.539 452.251 217.096C452.573 217.654 452.66 218.316 452.494 218.938C452.327 219.559 451.921 220.089 451.363 220.411Z" fill="white"/>
<path d="M449.659 219.558L415.258 239.424C414.982 239.584 414.678 239.687 414.362 239.729C414.046 239.771 413.725 239.75 413.417 239.667C413.109 239.585 412.821 239.442 412.568 239.248C412.315 239.054 412.103 238.813 411.944 238.537C411.622 237.979 411.535 237.317 411.702 236.696C411.868 236.074 412.275 235.544 412.832 235.222L447.234 215.355C447.791 215.034 448.453 214.947 449.074 215.113C449.696 215.28 450.225 215.686 450.547 216.243C450.869 216.801 450.956 217.463 450.789 218.084C450.623 218.706 450.217 219.236 449.659 219.558Z" fill="white"/>
<path d="M450.511 220.411L416.11 240.278C415.834 240.437 415.53 240.541 415.214 240.582C414.898 240.624 414.577 240.603 414.269 240.52C413.961 240.438 413.673 240.296 413.42 240.102C413.167 239.908 412.955 239.666 412.796 239.39C412.474 238.833 412.387 238.17 412.554 237.549C412.72 236.927 413.126 236.397 413.684 236.075L448.086 216.209C448.643 215.887 449.305 215.8 449.926 215.966C450.548 216.133 451.077 216.539 451.399 217.096C451.721 217.654 451.808 218.316 451.641 218.938C451.475 219.559 451.068 220.089 450.511 220.411Z" fill="white"/>
<path d="M451.363 220.411L416.962 240.278C416.686 240.437 416.381 240.541 416.065 240.582C415.749 240.624 415.428 240.603 415.121 240.52C414.813 240.438 414.524 240.296 414.272 240.102C414.019 239.908 413.807 239.666 413.647 239.39C413.326 238.833 413.239 238.17 413.405 237.549C413.572 236.927 413.978 236.397 414.535 236.075L448.937 216.209C449.494 215.887 450.156 215.8 450.778 215.966C451.399 216.133 451.929 216.539 452.251 217.096C452.572 217.654 452.659 218.316 452.493 218.938C452.326 219.559 451.92 220.089 451.363 220.411Z" fill="white"/>
<path d="M451.363 221.264L416.962 241.131C416.686 241.29 416.381 241.394 416.065 241.435C415.749 241.477 415.428 241.456 415.121 241.374C414.813 241.291 414.524 241.149 414.272 240.955C414.019 240.761 413.807 240.519 413.647 240.243C413.326 239.686 413.239 239.024 413.405 238.402C413.572 237.78 413.978 237.25 414.535 236.929L448.937 217.062C449.494 216.74 450.156 216.653 450.778 216.82C451.399 216.986 451.929 217.393 452.251 217.95C452.572 218.507 452.659 219.169 452.493 219.791C452.326 220.412 451.92 220.942 451.363 221.264Z" fill="white"/>
<path d="M452.215 221.264L417.813 241.131C417.537 241.29 417.233 241.394 416.917 241.435C416.601 241.477 416.28 241.456 415.972 241.374C415.665 241.291 415.376 241.149 415.123 240.955C414.871 240.761 414.659 240.519 414.499 240.243C414.178 239.686 414.09 239.024 414.257 238.402C414.423 237.78 414.83 237.25 415.387 236.929L449.789 217.062C450.346 216.74 451.008 216.653 451.629 216.82C452.251 216.986 452.781 217.393 453.102 217.95C453.424 218.507 453.511 219.169 453.345 219.791C453.178 220.412 452.772 220.942 452.215 221.264Z" fill="white"/>
<path d="M420.908 122.956C426.348 122.963 431.699 121.57 436.446 118.911L428.996 106.005L406.028 119.268C410.612 121.695 415.721 122.962 420.908 122.956Z" fill="#212121"/>
<path d="M449.836 93.9352C452.697 76.5628 440.933 60.1669 423.561 57.3139C406.189 54.4609 389.788 66.2311 386.928 83.6035C384.068 100.976 395.832 117.372 413.203 120.225C430.575 123.078 446.976 111.308 449.836 93.9352Z" fill="#FFB900"/>
<path d="M407.731 69.3237L419.98 77.504L433.662 72.05L429.669 86.229L439.083 97.5593L424.366 98.1421L416.502 110.598L411.397 96.777L397.12 93.1467L408.681 84.0235L407.731 69.3237Z" fill="#F5F5F5"/>
<path d="M84.7051 188.419C83.1428 185.713 82.418 182.604 82.6224 179.485C82.8269 176.367 83.9513 173.379 85.8536 170.9C87.7559 168.42 90.3506 166.561 93.3095 165.556C96.2685 164.552 99.4588 164.448 102.477 165.256C105.495 166.065 108.206 167.751 110.266 170.101C112.327 172.45 113.644 175.358 114.052 178.457C114.46 181.555 113.94 184.705 112.558 187.508C111.176 190.31 108.994 192.64 106.288 194.203C104.491 195.241 102.507 195.914 100.45 196.185C98.393 196.456 96.3027 196.319 94.2986 195.782C92.2944 195.244 90.4157 194.318 88.7697 193.055C87.1236 191.791 85.7425 190.216 84.7051 188.419Z" fill="#9BDBB3"/>
<path d="M100.012 179.581C100.198 179.902 100.284 180.272 100.26 180.642C100.236 181.013 100.102 181.367 99.8762 181.662C99.6502 181.956 99.3419 182.177 98.9903 182.297C98.6388 182.416 98.2598 182.428 97.9013 182.332C97.5428 182.236 97.2209 182.035 96.9763 181.756C96.7318 181.476 96.5755 181.131 96.5274 180.763C96.4793 180.395 96.5414 180.021 96.706 179.688C96.8705 179.355 97.1301 179.078 97.4518 178.893C97.8826 178.645 98.3942 178.578 98.8743 178.707C99.3544 178.836 99.7637 179.15 100.012 179.581ZM91.7541 182.18C91.4324 182.365 91.1729 182.642 91.0085 182.974C90.844 183.307 90.7819 183.681 90.8301 184.05C90.8784 184.418 91.0347 184.763 91.2793 185.042C91.524 185.322 91.8459 185.522 92.2045 185.618C92.563 185.714 92.942 185.702 93.2935 185.583C93.6451 185.463 93.9533 185.242 94.1792 184.948C94.4051 184.653 94.5386 184.298 94.5627 183.928C94.5868 183.557 94.5005 183.188 94.3147 182.867C94.0657 182.436 93.6564 182.122 93.1764 181.994C92.6963 181.865 92.1849 181.932 91.7541 182.18ZM105.023 178.854C105.345 178.668 105.604 178.392 105.769 178.059C105.934 177.726 105.996 177.351 105.948 176.983C105.899 176.615 105.743 176.269 105.498 175.989C105.254 175.71 104.931 175.51 104.573 175.413C104.214 175.317 103.835 175.329 103.483 175.449C103.131 175.568 102.823 175.79 102.597 176.084C102.371 176.379 102.237 176.734 102.213 177.105C102.189 177.476 102.276 177.845 102.462 178.167C102.711 178.597 103.119 178.91 103.599 179.04C104.078 179.169 104.589 179.103 105.02 178.856L105.023 178.854Z" fill="white"/>
<path d="M269.524 6C262.144 6.00115 254.988 8.53097 249.246 13.1681C243.505 17.8052 239.525 24.2697 237.97 31.4848C236.415 38.6999 237.378 46.23 240.7 52.8209C244.022 59.4117 249.501 64.6655 256.225 67.7071L254.604 80.3566L263.432 69.9972C267.849 70.8457 272.394 70.7619 276.777 69.7512C281.159 68.7405 285.282 66.8252 288.882 64.128C292.481 61.4308 295.477 58.0113 297.678 54.0886C299.879 50.166 301.236 45.8267 301.662 41.3489C302.088 36.8712 301.574 32.3538 300.153 28.0862C298.732 23.8187 296.435 19.8952 293.409 16.5672C290.383 13.2393 286.696 10.5803 282.583 8.76068C278.47 6.94108 274.022 6.00103 269.524 6.00078V6Z" fill="#16A75C"/>
<path d="M266.116 21.4394C266.653 21.7791 267.061 22.2874 267.276 22.8844C268.108 24.869 268.964 26.8688 269.844 28.884C270.724 30.8991 271.605 32.8765 272.488 34.816C273.371 36.7546 274.244 38.6016 275.109 40.357C275.973 42.1124 276.797 43.7317 277.581 45.215C277.705 45.3874 277.79 45.5846 277.83 45.7931C277.87 46.0017 277.865 46.2164 277.814 46.4225C277.573 46.8219 277.207 47.1309 276.773 47.3018C276.163 47.683 275.529 48.0237 274.875 48.3215C274.267 48.5954 273.638 48.8214 272.994 48.9975C272.462 49.1717 271.89 49.1809 271.353 49.0238C270.814 48.749 270.374 48.3124 270.095 47.7752C269.208 46.4601 268.199 44.8787 267.069 43.0312C265.939 41.1837 264.806 39.2599 263.668 37.2598C262.53 35.2592 261.419 33.2694 260.336 31.2905C259.252 29.3116 258.304 27.5225 257.489 25.9234C257.309 25.6662 257.187 25.3731 257.132 25.0642C257.077 24.7554 257.089 24.4382 257.168 24.1346C257.528 23.5742 258.077 23.1613 258.715 22.9705C259.557 22.5497 260.428 22.188 261.321 21.8879C262.215 21.5713 263.139 21.3464 264.079 21.2167C264.765 21.0832 265.475 21.1609 266.116 21.4394ZM273.698 54.1325C273.555 53.5801 273.552 53.0008 273.689 52.447C273.847 51.83 274.15 51.2594 274.572 50.7824C275.099 50.1923 275.742 49.7168 276.461 49.3855C277.044 49.0653 277.687 48.8697 278.35 48.8112C278.878 48.7689 279.409 48.8422 279.906 49.0262C280.331 49.1871 280.715 49.4387 281.033 49.7634C281.304 50.0371 281.526 50.3559 281.688 50.7055C281.807 51.0153 281.885 51.3393 281.921 51.6694C281.975 52.0898 281.971 52.5157 281.91 52.9351C281.837 53.4067 281.696 53.865 281.491 54.2955C281.252 54.7915 280.914 55.2335 280.498 55.5946C279.666 56.4217 278.565 56.9237 277.395 57.0101C276.826 57.0419 276.258 56.9307 275.743 56.6867C275.228 56.4427 274.782 56.0737 274.446 55.6132C274.093 55.1792 273.838 54.6742 273.698 54.1325Z" fill="white"/>
<path d="M485.955 127.748C488.198 118.868 482.818 109.856 473.938 107.618C465.057 105.38 456.04 110.765 453.797 119.645C451.554 128.524 456.934 137.537 465.815 139.774C474.695 142.012 483.712 136.628 485.955 127.748Z" fill="#9BDBB3"/>
<g clip-path="url(#clip0)">
<path d="M478.502 122.46C478.03 122.46 477.617 122.717 477.395 123.1H476.235C476.105 121.726 475.56 120.472 474.728 119.465L475.551 118.641C475.975 118.755 476.451 118.645 476.785 118.31C477.284 117.811 477.284 116.999 476.785 116.5C476.287 116.001 475.476 116.001 474.978 116.5C474.644 116.834 474.534 117.309 474.648 117.736L473.824 118.56C472.818 117.727 471.566 117.182 470.195 117.051V115.889C470.576 115.667 470.834 115.254 470.834 114.781C470.834 114.075 470.261 113.501 469.556 113.501C468.851 113.501 468.278 114.075 468.278 114.781C468.278 115.254 468.535 115.667 468.917 115.889V117.051C467.545 117.182 466.293 117.727 465.287 118.56L464.464 117.736C464.577 117.309 464.467 116.834 464.134 116.5C463.635 116.001 462.825 116.001 462.326 116.5C461.828 116.999 461.828 117.811 462.326 118.31C462.661 118.645 463.136 118.755 463.56 118.641L464.383 119.465C463.551 120.472 463.007 121.726 462.876 123.1H461.716C461.495 122.717 461.082 122.46 460.61 122.46C459.905 122.46 459.332 123.034 459.332 123.74C459.332 124.445 459.905 125.019 460.61 125.019C461.082 125.019 461.495 124.762 461.716 124.379H462.876C463.007 125.753 463.551 127.007 464.383 128.014L463.56 128.839C463.134 128.725 462.66 128.835 462.326 129.169C461.828 129.668 461.828 130.48 462.326 130.979C462.825 131.479 463.636 131.477 464.134 130.979C464.467 130.645 464.577 130.17 464.464 129.744L465.287 128.919C466.293 129.753 467.545 130.298 468.917 130.428V131.59C468.535 131.812 468.278 132.225 468.278 132.698C468.278 133.404 468.851 133.978 469.556 133.978C470.261 133.978 470.834 133.404 470.834 132.698C470.834 132.225 470.576 131.812 470.195 131.59V130.428C471.566 130.298 472.818 129.753 473.824 128.919L474.648 129.744C474.534 130.17 474.644 130.645 474.978 130.979C475.475 131.477 476.286 131.479 476.785 130.979C477.284 130.48 477.284 129.668 476.785 129.169C476.451 128.835 475.977 128.725 475.551 128.839L474.728 128.014C475.56 127.007 476.105 125.753 476.235 124.379H477.395C477.617 124.762 478.03 125.019 478.502 125.019C479.207 125.019 479.78 124.445 479.78 123.74C479.78 123.034 479.207 122.46 478.502 122.46ZM467.439 123.42C466.822 123.42 466.321 122.917 466.321 122.3C466.321 121.682 466.822 121.18 467.439 121.18C468.056 121.18 468.557 121.682 468.557 122.3C468.557 122.917 468.056 123.42 467.439 123.42ZM470.195 127.259C469.49 127.259 468.917 126.685 468.917 125.979C468.917 125.273 469.49 124.699 470.195 124.699C470.9 124.699 471.473 125.273 471.473 125.979C471.473 126.685 470.9 127.259 470.195 127.259ZM472.431 122.78C471.903 122.78 471.473 122.349 471.473 121.82C471.473 121.291 471.903 120.86 472.431 120.86C472.96 120.86 473.39 121.291 473.39 121.82C473.39 122.349 472.96 122.78 472.431 122.78Z" fill="white"/>
</g>
<path d="M414.403 225.694L397.889 235.23L446.943 150.833L452.411 160.301L414.403 225.694ZM378.527 172.768L358.256 207.644L373.013 233.206L423.102 147.025L378.527 172.768ZM462.577 177.911L445.112 207.959L467.759 194.889C469.672 193.784 470.328 191.338 469.224 189.425L462.577 177.911Z" fill="white"/>
<path d="M180.094 254.238C182.507 248.564 183.568 242.406 183.193 236.251C182.819 230.095 181.019 224.112 177.936 218.771C174.853 213.431 170.572 208.88 165.429 205.478C160.286 202.076 154.423 199.916 148.303 199.169L180.094 254.238Z" fill="#212121"/>
<path d="M141.778 275.771C163.746 275.771 181.554 257.961 181.554 235.991C181.554 214.02 163.746 196.21 141.778 196.21C119.81 196.21 102.002 214.02 102.002 235.991C102.002 257.961 119.81 275.771 141.778 275.771Z" fill="#EF5350"/>
<path d="M153.022 254.147L145.504 253.768C126.581 252.815 122.919 246.473 121.54 244.084C120.212 241.782 119.711 239.096 120.12 236.47C120.529 233.845 121.823 231.438 123.788 229.649C125.753 227.86 128.27 226.797 130.922 226.636C133.575 226.475 136.202 227.226 138.369 228.764C138.12 226.118 138.783 223.467 140.248 221.25C141.714 219.032 143.893 217.383 146.425 216.576C148.957 215.768 151.689 215.851 154.167 216.81C156.645 217.769 158.721 219.547 160.05 221.849C163.522 227.864 161.651 234.819 159.633 240.205C158.7 242.673 157.638 245.09 156.452 247.446L153.022 254.147Z" fill="white"/>
<path d="M358.949 222.578L382.537 263.442C383.698 259.209 384.006 254.788 383.446 250.436C382.886 246.083 381.468 241.885 379.274 238.084C377.08 234.283 374.154 230.956 370.665 228.294C367.176 225.633 363.194 223.69 358.949 222.578Z" fill="#212121"/>
<path d="M348.614 285.625C366.929 285.625 381.777 270.775 381.777 252.457C381.777 234.139 366.929 219.29 348.614 219.29C330.298 219.29 315.45 234.139 315.45 252.457C315.45 270.775 330.298 285.625 348.614 285.625Z" fill="#FFB900"/>
<g clip-path="url(#clip1)">
<path d="M338.56 248.73L348.785 241.053L348.561 235.927C348.483 235.163 347.999 234.5 347.296 234.192C346.593 233.884 345.779 233.979 345.165 234.44L342.609 236.359C342.157 236.699 341.858 237.204 341.778 237.764L341.44 240.131L339.075 239.793C338.516 239.713 337.948 239.859 337.496 240.198L333.236 243.397C332.622 243.858 332.303 244.614 332.401 245.376C332.499 246.138 332.999 246.789 333.71 247.079L338.56 248.73Z" fill="white"/>
<path d="M350.063 242.759L339.838 250.437C338.199 256.198 339.267 263.897 342.47 268.174C347.716 275.18 354.054 270.421 359.645 266.223C365.237 262.024 371.574 257.266 366.328 250.26C363.126 245.983 356.045 242.798 350.063 242.759Z" fill="white"/>
</g>
<path d="M287.244 314C361.357 314 421.437 311.46 421.437 308.326C421.437 305.193 361.357 302.653 287.244 302.653C213.131 302.653 153.051 305.193 153.051 308.326C153.051 311.46 213.131 314 287.244 314Z" fill="#EEEEEE"/>
<path d="M103.056 277.729C103.057 277.846 103.034 277.962 102.989 278.07C102.944 278.179 102.879 278.277 102.796 278.36C102.713 278.443 102.615 278.508 102.507 278.553C102.399 278.598 102.283 278.621 102.166 278.621H94.1573C94.0403 278.621 93.9244 278.598 93.8162 278.553C93.7081 278.508 93.6099 278.443 93.5272 278.36C93.4444 278.277 93.3788 278.179 93.3341 278.07C93.2894 277.962 93.2664 277.846 93.2665 277.729V270.611H86.1505C86.0334 270.611 85.9176 270.588 85.8096 270.543C85.7016 270.498 85.6035 270.432 85.521 270.349C85.4385 270.266 85.3731 270.167 85.3287 270.059C85.2843 269.95 85.2616 269.834 85.262 269.717V262.6H78.1452C78.0281 262.6 77.9123 262.577 77.8041 262.533C77.696 262.488 77.5978 262.422 77.5151 262.34C77.4323 262.257 77.3667 262.159 77.322 262.05C77.2772 261.942 77.2543 261.826 77.2544 261.709V253.702C77.2544 253.465 77.3484 253.238 77.5157 253.071C77.6831 252.904 77.91 252.81 78.1467 252.81C78.3834 252.81 78.6103 252.904 78.7777 253.071C78.945 253.238 79.039 253.465 79.039 253.702V260.821H86.1567C86.2737 260.821 86.3895 260.844 86.4977 260.888C86.6058 260.933 86.704 260.999 86.7868 261.082C86.8695 261.164 86.9351 261.263 86.9798 261.371C87.0246 261.479 87.0475 261.595 87.0474 261.712V268.829H94.1635C94.2806 268.829 94.3965 268.852 94.5046 268.896C94.6128 268.941 94.7111 269.007 94.7939 269.09C94.8767 269.172 94.9424 269.27 94.9872 269.379C95.032 269.487 95.0551 269.603 95.0551 269.72V276.838H102.172C102.407 276.84 102.632 276.934 102.798 277.101C102.964 277.268 103.057 277.494 103.056 277.729Z" fill="#E6F6EC"/>
<path d="M461.796 35.7304C461.038 35.7326 460.286 35.5842 459.585 35.2938C458.883 35.0034 458.247 34.5768 457.712 34.0386C457.629 33.9558 457.563 33.8576 457.519 33.7495C457.474 33.6413 457.451 33.5255 457.451 33.4084C457.451 33.2914 457.474 33.1755 457.519 33.0674C457.563 32.9593 457.629 32.861 457.712 32.7783C457.795 32.6955 457.893 32.6299 458.001 32.5851C458.109 32.5403 458.225 32.5173 458.342 32.5173C458.459 32.5173 458.575 32.5403 458.683 32.5851C458.791 32.6299 458.889 32.6955 458.972 32.7783C459.733 33.5045 460.744 33.9096 461.796 33.9096C462.848 33.9096 463.859 33.5045 464.62 32.7783C465.72 31.7274 467.183 31.1411 468.705 31.1411C470.226 31.1411 471.689 31.7274 472.789 32.7783C473.54 33.5256 474.555 33.9451 475.614 33.9451C476.673 33.9451 477.689 33.5256 478.439 32.7783C479.539 31.7274 481.002 31.1411 482.524 31.1411C484.045 31.1411 485.508 31.7274 486.608 32.7783C486.776 32.9454 486.869 33.1721 486.869 33.4084C486.869 33.6448 486.776 33.8715 486.608 34.0386C486.441 34.2057 486.215 34.2996 485.978 34.2996C485.742 34.2996 485.515 34.2057 485.348 34.0386C484.587 33.312 483.576 32.9066 482.524 32.9066C481.472 32.9066 480.46 33.312 479.699 34.0386C478.615 35.1206 477.146 35.7283 475.614 35.7283C474.083 35.7283 472.613 35.1206 471.529 34.0386C470.768 33.312 469.757 32.9066 468.705 32.9066C467.653 32.9066 466.641 33.312 465.88 34.0386C465.345 34.5767 464.709 35.0033 464.008 35.2937C463.307 35.5841 462.555 35.7325 461.796 35.7304ZM465.88 43.0865C466.641 42.3599 467.653 41.9545 468.705 41.9545C469.757 41.9545 470.768 42.3599 471.529 43.0865C472.613 44.1685 474.083 44.7762 475.614 44.7762C477.146 44.7762 478.615 44.1685 479.699 43.0865C480.46 42.3599 481.472 41.9545 482.524 41.9545C483.576 41.9545 484.587 42.3599 485.348 43.0865C485.431 43.1692 485.529 43.2349 485.637 43.2796C485.745 43.3244 485.861 43.3475 485.978 43.3475C486.095 43.3475 486.211 43.3244 486.319 43.2796C486.427 43.2349 486.526 43.1692 486.608 43.0865C486.691 43.0037 486.757 42.9055 486.802 42.7974C486.846 42.6892 486.869 42.5733 486.869 42.4563C486.869 42.3393 486.846 42.2234 486.802 42.1153C486.757 42.0072 486.691 41.9089 486.608 41.8262C485.508 40.7757 484.045 40.1895 482.524 40.1895C481.003 40.1895 479.54 40.7757 478.439 41.8262C477.689 42.5738 476.673 42.9937 475.614 42.9937C474.555 42.9937 473.539 42.5738 472.789 41.8262C471.689 40.7757 470.226 40.1895 468.705 40.1895C467.183 40.1895 465.721 40.7757 464.62 41.8262C463.859 42.5527 462.848 42.9581 461.796 42.9581C460.744 42.9581 459.733 42.5527 458.972 41.8262C458.805 41.659 458.578 41.5652 458.342 41.5652C458.106 41.5652 457.879 41.659 457.712 41.8262C457.545 41.9933 457.451 42.22 457.451 42.4563C457.451 42.6927 457.545 42.9193 457.712 43.0865C458.795 44.1697 460.264 44.7783 461.796 44.7783C463.328 44.7783 464.797 44.1697 465.88 43.0865Z" fill="#E6F6EC"/>
<path d="M71.5916 136.542C71.4746 136.542 71.3587 136.519 71.2506 136.474C71.1424 136.429 71.0442 136.364 70.9616 136.281L64.2606 129.578C64.0936 129.411 63.9998 129.184 63.9998 128.948C63.9998 128.712 64.0936 128.485 64.2606 128.318L70.9616 121.616C71.0442 121.533 71.1424 121.467 71.2506 121.422C71.3587 121.377 71.4746 121.354 71.5916 121.354C71.7087 121.354 71.8246 121.377 71.9327 121.422C72.0408 121.467 72.139 121.533 72.2217 121.616L78.9234 128.318C79.0904 128.485 79.1842 128.712 79.1842 128.948C79.1842 129.184 79.0904 129.411 78.9234 129.578L72.2217 136.281C72.1391 136.364 72.0409 136.43 71.9328 136.474C71.8247 136.519 71.7087 136.542 71.5916 136.542ZM66.1508 128.948L71.5916 134.39L77.0333 128.948L71.5916 123.506L66.1508 128.948Z" fill="#E6F6EC"/>
<path d="M417.294 27.7239H407.818C407.701 27.724 407.585 27.701 407.477 27.6563C407.369 27.6116 407.271 27.5459 407.188 27.4632C407.105 27.3805 407.039 27.2822 406.995 27.1741C406.95 27.0659 406.927 26.95 406.927 26.833V17.3544C406.927 17.2374 406.95 17.1215 406.995 17.0134C407.039 16.9052 407.105 16.807 407.188 16.7242C407.271 16.6415 407.369 16.5759 407.477 16.5311C407.585 16.4864 407.701 16.4634 407.818 16.4635H417.294C417.411 16.4634 417.527 16.4864 417.635 16.5311C417.743 16.5759 417.842 16.6415 417.924 16.7242C418.007 16.807 418.073 16.9052 418.118 17.0134C418.162 17.1215 418.185 17.2374 418.185 17.3544V26.833C418.185 26.95 418.162 27.0659 418.118 27.1741C418.073 27.2822 418.007 27.3805 417.924 27.4632C417.842 27.5459 417.743 27.6116 417.635 27.6563C417.527 27.701 417.411 27.724 417.294 27.7239ZM408.709 25.939H416.403V18.2461H408.709V25.939Z" fill="#E6F6EC"/>
<path d="M296.659 279.749C295.545 279.749 294.457 279.418 293.531 278.8C292.605 278.181 291.884 277.302 291.458 276.273C291.032 275.244 290.92 274.112 291.137 273.02C291.355 271.928 291.891 270.925 292.678 270.137C293.465 269.35 294.468 268.814 295.56 268.596C296.652 268.379 297.784 268.491 298.813 268.917C299.842 269.343 300.721 270.064 301.339 270.99C301.958 271.916 302.288 273.005 302.288 274.118C302.287 275.611 301.693 277.042 300.638 278.098C299.582 279.153 298.151 279.747 296.659 279.749ZM296.659 270.27C295.898 270.27 295.154 270.496 294.521 270.919C293.888 271.341 293.395 271.942 293.104 272.646C292.813 273.349 292.736 274.123 292.885 274.869C293.033 275.616 293.4 276.301 293.938 276.84C294.476 277.378 295.162 277.744 295.908 277.893C296.654 278.041 297.428 277.965 298.131 277.674C298.834 277.383 299.435 276.889 299.858 276.256C300.281 275.624 300.507 274.879 300.507 274.118C300.506 273.098 300.1 272.12 299.378 271.398C298.657 270.677 297.679 270.271 296.659 270.27Z" fill="#E6F6EC"/>
<path d="M455.053 267.143C453.939 267.143 452.851 266.813 451.925 266.194C450.999 265.576 450.278 264.696 449.852 263.668C449.426 262.639 449.314 261.507 449.531 260.415C449.749 259.323 450.285 258.319 451.072 257.532C451.859 256.745 452.862 256.208 453.954 255.991C455.046 255.774 456.178 255.885 457.207 256.311C458.236 256.738 459.115 257.459 459.733 258.385C460.352 259.311 460.682 260.4 460.682 261.513C460.681 263.006 460.087 264.437 459.032 265.493C457.976 266.548 456.545 267.142 455.053 267.143ZM455.053 257.665C454.292 257.665 453.548 257.891 452.915 258.314C452.283 258.737 451.79 259.338 451.498 260.041C451.207 260.744 451.131 261.517 451.28 262.264C451.428 263.01 451.794 263.696 452.332 264.234C452.87 264.772 453.556 265.138 454.302 265.287C455.048 265.435 455.822 265.359 456.525 265.068C457.228 264.777 457.829 264.283 458.251 263.651C458.674 263.018 458.9 262.274 458.9 261.513C458.899 260.493 458.493 259.515 457.772 258.794C457.05 258.072 456.073 257.667 455.053 257.665Z" fill="#E6F6EC"/>
<path d="M488.886 160.718H478.833C478.676 160.718 478.523 160.677 478.387 160.599C478.252 160.52 478.139 160.408 478.061 160.272C477.983 160.137 477.941 159.983 477.941 159.827C477.941 159.67 477.983 159.517 478.061 159.381L483.087 150.674C483.172 150.547 483.286 150.442 483.421 150.37C483.556 150.298 483.706 150.26 483.859 150.26C484.012 150.26 484.162 150.298 484.297 150.37C484.431 150.442 484.546 150.547 484.63 150.674L489.658 159.381C489.736 159.517 489.777 159.67 489.777 159.827C489.777 159.983 489.736 160.137 489.657 160.272C489.579 160.408 489.467 160.52 489.331 160.599C489.196 160.677 489.042 160.718 488.886 160.718ZM480.376 158.933H487.342L483.858 152.9L480.376 158.933Z" fill="#E6F6EC"/>
<path d="M75.3211 50.895L72.8521 53.3636L75.3211 55.833C75.4039 55.9157 75.4695 56.014 75.5143 56.1221C75.5591 56.2302 75.5821 56.3461 75.5821 56.4631C75.5821 56.5802 75.5591 56.696 75.5143 56.8042C75.4695 56.9123 75.4039 57.0105 75.3211 57.0933C75.2384 57.176 75.1402 57.2417 75.0321 57.2865C74.924 57.3312 74.8081 57.3543 74.6911 57.3543C74.5741 57.3543 74.4582 57.3312 74.3501 57.2865C74.242 57.2417 74.1437 57.176 74.061 57.0933L71.5927 54.6239L69.1228 57.0933C68.9557 57.2604 68.7291 57.3543 68.4927 57.3543C68.2564 57.3543 68.0298 57.2604 67.8627 57.0933C67.6955 56.9261 67.6017 56.6995 67.6017 56.4631C67.6017 56.2268 67.6955 56.0001 67.8627 55.833L70.3317 53.3636L67.8627 50.895C67.6951 50.7279 67.6009 50.5011 67.6006 50.2644C67.6003 50.0278 67.694 49.8007 67.8611 49.6332C68.0282 49.4656 68.255 49.3714 68.4916 49.3711C68.7282 49.3708 68.9553 49.4645 69.1228 49.6316L71.5919 52.1002L74.0602 49.6316C74.2273 49.4645 74.454 49.3706 74.6903 49.3706C74.9266 49.3706 75.1533 49.4645 75.3204 49.6316C75.4875 49.7987 75.5814 50.0254 75.5814 50.2618C75.5814 50.4981 75.4875 50.7248 75.3204 50.8919L75.3211 50.895ZM87.9646 49.6347C87.7975 49.4678 87.5711 49.374 87.3349 49.374C87.0987 49.374 86.8722 49.4678 86.7052 49.6347L84.2361 52.1033L81.767 49.6347C81.6843 49.552 81.586 49.4863 81.4779 49.4415C81.3698 49.3968 81.254 49.3737 81.1369 49.3737C81.0199 49.3737 80.9041 49.3968 80.796 49.4415C80.6878 49.4863 80.5896 49.552 80.5069 49.6347C80.4241 49.7175 80.3585 49.8157 80.3137 49.9238C80.2689 50.032 80.2459 50.1478 80.2459 50.2649C80.2459 50.3819 80.2689 50.4978 80.3137 50.6059C80.3585 50.714 80.4241 50.8123 80.5069 50.895L82.976 53.3636L80.5069 55.833C80.3398 56.0001 80.2459 56.2268 80.2459 56.4631C80.2459 56.6995 80.3398 56.9261 80.5069 57.0933C80.674 57.2604 80.9006 57.3543 81.1369 57.3543C81.3733 57.3543 81.5999 57.2604 81.767 57.0933L84.2361 54.6239L86.7052 57.0933C86.8726 57.259 87.0988 57.3517 87.3343 57.3511C87.5699 57.3505 87.7956 57.2566 87.9621 57.09C88.1286 56.9234 88.2223 56.6976 88.2228 56.462C88.2233 56.2264 88.1304 56.0003 87.9646 55.833L85.4955 53.3636L87.9638 50.895C88.0472 50.8123 88.1134 50.714 88.1586 50.6056C88.2038 50.4972 88.2271 50.3809 88.2272 50.2635C88.2273 50.146 88.2041 50.0298 88.159 49.9213C88.1139 49.8129 88.0479 49.7144 87.9646 49.6316V49.6347ZM98.1397 53.3636L100.609 50.895C100.776 50.7279 100.87 50.5012 100.87 50.2649C100.87 50.0285 100.776 49.8018 100.609 49.6347C100.442 49.4676 100.215 49.3737 99.9787 49.3737C99.7424 49.3737 99.5158 49.4676 99.3486 49.6347L96.8796 52.1033L94.4105 49.6347C94.2434 49.4676 94.0167 49.3737 93.7804 49.3737C93.5441 49.3737 93.3174 49.4676 93.1503 49.6347C92.9832 49.8018 92.8893 50.0285 92.8893 50.2649C92.8893 50.5012 92.9832 50.7279 93.1503 50.895L95.6194 53.3636L93.1503 55.833C92.9832 56.0001 92.8893 56.2268 92.8893 56.4631C92.8893 56.6995 92.9832 56.9261 93.1503 57.0933C93.3174 57.2604 93.5441 57.3543 93.7804 57.3543C94.0167 57.3543 94.2434 57.2604 94.4105 57.0933L96.8796 54.6239L99.3486 57.0933C99.4314 57.176 99.5296 57.2417 99.6377 57.2865C99.7458 57.3312 99.8617 57.3543 99.9787 57.3543C100.096 57.3543 100.212 57.3312 100.32 57.2865C100.428 57.2417 100.526 57.176 100.609 57.0933C100.692 57.0105 100.757 56.9123 100.802 56.8042C100.847 56.696 100.87 56.5802 100.87 56.4631C100.87 56.3461 100.847 56.2302 100.802 56.1221C100.757 56.014 100.692 55.9157 100.609 55.833L98.1397 53.3636Z" fill="#E6F6EC"/>
<path d="M225.305 45.3952H221.914V42.0039C221.914 41.7672 221.82 41.5402 221.653 41.3728C221.485 41.2054 221.258 41.1114 221.022 41.1114C220.785 41.1114 220.558 41.2054 220.391 41.3728C220.223 41.5402 220.129 41.7672 220.129 42.0039V45.3952H216.739C216.503 45.3952 216.276 45.4892 216.108 45.6566C215.941 45.8239 215.847 46.0509 215.847 46.2876C215.847 46.5243 215.941 46.7513 216.108 46.9187C216.276 47.086 216.503 47.1801 216.739 47.1801H220.129V50.5706C220.129 50.8073 220.223 51.0343 220.391 51.2017C220.558 51.369 220.785 51.4631 221.022 51.4631C221.258 51.4631 221.485 51.369 221.653 51.2017C221.82 51.0343 221.914 50.8073 221.914 50.5706V47.1801H225.305C225.541 47.1801 225.768 47.086 225.936 46.9187C226.103 46.7513 226.197 46.5243 226.197 46.2876C226.197 46.0509 226.103 45.8239 225.936 45.6566C225.768 45.4892 225.541 45.3952 225.305 45.3952Z" fill="#E6F6EC"/>
<defs>
<clipPath id="clip0">
<rect width="20.4482" height="20.4765" fill="white" transform="translate(459.332 113.501)"/>
</clipPath>
<clipPath id="clip1">
<rect width="34.0973" height="34.1105" fill="white" transform="matrix(0.799672 -0.600437 0.599376 0.800468 325.567 249.155)"/>
</clipPath>
</defs>
</svg>
