<svg width="40" height="40" viewBox="0 0 40 40" fill="none" xmlns="http://www.w3.org/2000/svg">
<circle cx="20" cy="20" r="20" fill="#FFF9E1"/>
<g clip-path="url(#clip0)">
<path d="M32 19.2975H28.1863C27.9652 18.6353 27.4409 18.111 26.7786 17.8899V14.8233C28.3408 14.4981 29.5182 13.1108 29.5182 11.4536C29.5182 9.55566 27.9741 8.0116 26.0762 8.0116C24.1783 8.0116 22.6342 9.55566 22.6342 11.4536C22.6342 13.1108 23.8116 14.498 25.3738 14.8233V17.8899C24.7115 18.111 24.1872 18.6353 23.9661 19.2975H22.0985C21.8036 18.4143 20.9694 17.7756 19.9884 17.7756C19.0073 17.7756 18.1731 18.4143 17.8783 19.2975H16.0106C15.7895 18.6353 15.2652 18.111 14.603 17.8899V14.8233C16.1651 14.4981 17.3425 13.1108 17.3425 11.4536C17.3425 9.55566 15.7984 8.0116 13.9005 8.0116C12.0026 8.0116 10.4586 9.55566 10.4586 11.4536C10.4586 13.1108 11.6359 14.498 13.1981 14.8233V17.8899C12.5358 18.111 12.0115 18.6353 11.7904 19.2975H8V20.7024H11.7904C12.0853 21.5857 12.9194 22.2244 13.9005 22.2244C14.8816 22.2244 15.7158 21.5857 16.0106 20.7024H17.8783C18.0994 21.3647 18.6237 21.889 19.2859 22.1101V25.1766C17.7238 25.5019 16.5464 26.8891 16.5464 28.5464C16.5464 30.4443 18.0905 31.9883 19.9884 31.9883C21.8863 31.9883 23.4303 30.4443 23.4303 28.5464C23.4303 26.8891 22.2529 25.5019 20.6908 25.1766V22.1101C21.3531 21.889 21.8774 21.3647 22.0985 20.7024H23.9661C24.261 21.5857 25.0951 22.2244 26.0762 22.2244C27.0573 22.2244 27.8915 21.5857 28.1863 20.7024H32V19.2975ZM24.0391 11.4536C24.0391 10.3303 24.9529 9.41648 26.0762 9.41648C27.1995 9.41648 28.1133 10.3303 28.1133 11.4536C28.1133 12.5768 27.1995 13.4907 26.0762 13.4907C24.9529 13.4907 24.0391 12.5768 24.0391 11.4536ZM11.8634 11.4536C11.8634 10.3303 12.7773 9.41648 13.9005 9.41648C15.0238 9.41648 15.9376 10.3303 15.9376 11.4536C15.9376 12.5768 15.0238 13.4907 13.9005 13.4907C12.7773 13.4907 11.8634 12.5768 11.8634 11.4536ZM13.9005 20.8195C13.4487 20.8195 13.081 20.4518 13.081 20C13.081 19.5481 13.4487 19.1804 13.9005 19.1804C14.3524 19.1804 14.72 19.5481 14.72 20C14.72 20.4518 14.3524 20.8195 13.9005 20.8195ZM22.0254 28.5464C22.0254 29.6696 21.1116 30.5834 19.9884 30.5834C18.8651 30.5834 17.9513 29.6696 17.9513 28.5464C17.9513 27.4231 18.8651 26.5093 19.9884 26.5093C21.1116 26.5093 22.0254 27.4231 22.0254 28.5464ZM19.9884 20.8195C19.5365 20.8195 19.1688 20.4518 19.1688 20C19.1688 19.5481 19.5365 19.1804 19.9884 19.1804C20.4402 19.1804 20.8079 19.5481 20.8079 20C20.8079 20.4518 20.4402 20.8195 19.9884 20.8195ZM26.0762 20.8195C25.6243 20.8195 25.2567 20.4518 25.2567 20C25.2567 19.5481 25.6243 19.1804 26.0762 19.1804C26.5281 19.1804 26.8957 19.5481 26.8957 20C26.8957 20.4518 26.5281 20.8195 26.0762 20.8195Z" fill="#FFA600"/>
</g>
<defs>
<clipPath id="clip0">
<rect width="24" height="24" fill="white" transform="translate(8 8)"/>
</clipPath>
</defs>
</svg>
