<svg width="165" height="38" viewBox="0 0 165 38" fill="none" xmlns="http://www.w3.org/2000/svg">
<path d="M4.74706 21.527C2.7507 22.333 1.3541 24.5975 1.06534 25.5972C0.541412 23.8697 -0.415504 19.3848 0.199032 15.9572C0.42986 14.6698 0.774332 13.1394 1.49849 11.4586C3.23103 7.43705 7.9956 0.961708 17.0916 0.104815C29.4362 -1.05811 35.067 7.8168 35.5002 8.8879C35.8415 9.73171 36.3665 11.6728 35.9333 13.1723C35.4207 14.9471 33.7676 16.1714 32.4682 16.5999C31.8185 16.8141 30.5191 16.8141 30.5191 16.8141C30.9522 16.1714 30.6908 15.0323 30.7356 13.815C30.773 12.7979 31.1254 12.427 30.7356 11.4586C30.2664 10.2927 29.9661 9.49059 29.0031 8.67368C28.0552 7.86958 26.9095 7.45976 26.4042 7.38835C25.1048 5.03192 21.8562 4.38925 21.8562 4.38925C21.8562 4.38925 18.3282 4.62186 14.7093 8.03102C10.1613 12.3154 9.65597 18.3851 9.72816 21.7412C9.07845 21.3842 6.46975 20.8314 4.74706 21.527Z" fill="#16A75C"/>
<path d="M11.4608 25.5972C12.1105 26.8826 14.8243 30.9786 18.8242 32.4523C25.1048 35.4514 30.2626 33.2175 34.2008 30.7385C29.8693 36.7368 20.5568 39.5216 13.6265 37.1652C10.2298 36.1866 7.37985 34.297 5.39675 32.2381C2.58132 29.6674 2.36475 28.0756 2.36475 26.9468C2.36475 24.6547 4.41065 22.4268 6.93441 22.4268C9.45816 22.4268 10.811 24.3119 11.4608 25.5972Z" fill="#FFD026"/>
<path fill-rule="evenodd" clip-rule="evenodd" d="M35.0195 8.04495C35.2815 8.44344 35.4404 8.74013 35.5002 8.88802C35.8415 9.73183 36.3665 11.6729 35.9333 13.1725C35.4207 14.9472 33.7676 16.1716 32.4682 16.6C31.8185 16.8142 30.5191 16.8142 30.5191 16.8142C30.8158 16.374 30.7866 15.7009 30.7532 14.9293C30.7378 14.5744 30.7215 14.1986 30.7356 13.8151C30.7482 13.4728 30.7965 13.2037 30.8401 12.9604C30.9262 12.4807 30.9943 12.1012 30.7356 11.4587C30.7199 11.4196 30.7043 11.3809 30.6889 11.3425C30.2455 10.239 29.9338 9.4633 29.0031 8.6738C28.0552 7.8697 26.9095 7.45988 26.4042 7.38847C25.1048 5.03203 21.8562 4.38937 21.8562 4.38937C21.8562 4.38937 21.6988 4.39975 21.4165 4.44823C21.2825 4.40922 21.2065 4.38944 21.2065 4.38944C26.4042 3.74678 32.0612 4.81559 34.6339 7.60277C34.7709 7.75118 34.8993 7.89859 35.0195 8.04495Z" fill="#008444"/>
<ellipse cx="24.8883" cy="13.6005" rx="6.49715" ry="6.42665" fill="#1E88E5"/>
<path d="M23.1235 15.7428V12.5638L22.3898 12.8697L22.0987 12.2039L23.3176 11.6401H23.9179V15.7428H23.1235Z" fill="white"/>
<path d="M25.918 14.2733C25.7603 14.2733 25.6067 14.2413 25.4571 14.1773C25.3075 14.1133 25.1741 14.0233 25.0569 13.9074C24.9397 13.7874 24.8446 13.6475 24.7719 13.4875C24.7032 13.3236 24.6688 13.1436 24.6688 12.9477C24.6688 12.7437 24.7092 12.5558 24.7901 12.3838C24.8709 12.2079 24.9781 12.0579 25.1115 11.934C25.2489 11.81 25.4046 11.714 25.5784 11.6461C25.7563 11.5741 25.9422 11.5381 26.1363 11.5381C26.3586 11.5381 26.5608 11.5781 26.7427 11.658C26.9286 11.734 27.0863 11.838 27.2157 11.97C27.3491 12.0979 27.4502 12.2499 27.5189 12.4258C27.5916 12.5978 27.628 12.7797 27.628 12.9717C27.628 13.2476 27.5714 13.5015 27.4582 13.7334C27.3491 13.9614 27.2096 14.1953 27.0398 14.4352L26.0332 15.8568L25.4207 15.4429L26.2697 14.2493L26.2394 14.2133C26.1464 14.2533 26.0393 14.2733 25.918 14.2733ZM26.1484 12.2639C26.0554 12.2639 25.9665 12.2799 25.8816 12.3119C25.8007 12.3438 25.728 12.3898 25.6633 12.4498C25.5986 12.5098 25.5461 12.5818 25.5056 12.6657C25.4692 12.7457 25.4511 12.8357 25.4511 12.9357C25.4511 13.0396 25.4692 13.1336 25.5056 13.2176C25.5461 13.2976 25.5986 13.3675 25.6633 13.4275C25.728 13.4875 25.8007 13.5335 25.8816 13.5655C25.9665 13.5975 26.0554 13.6135 26.1484 13.6135C26.2374 13.6135 26.3243 13.5975 26.4092 13.5655C26.4941 13.5335 26.5689 13.4875 26.6335 13.4275C26.7023 13.3675 26.7548 13.2976 26.7912 13.2176C26.8316 13.1336 26.8518 13.0396 26.8518 12.9357C26.8518 12.8357 26.8316 12.7457 26.7912 12.6657C26.7548 12.5818 26.7023 12.5098 26.6335 12.4498C26.5689 12.3898 26.4941 12.3438 26.4092 12.3119C26.3243 12.2799 26.2374 12.2639 26.1484 12.2639Z" fill="white"/>
<path d="M37.8392 23.6907C37.666 27.5253 34.2008 29.8817 30.5191 31.3813C25.3214 33.095 22.506 32.4524 22.506 32.4524C22.506 32.4524 24.236 31.6863 25.538 29.4533C26.5017 27.8004 26.7286 25.7069 27.1406 23.6693C27.4871 21.9555 29.0031 18.3138 32.5332 18.4423C35.4636 18.4423 37.97 20.795 37.8392 23.6907Z" fill="#FFB900"/>
<path d="M53.6665 14.1804V10.2258H56.6196C59.7907 10.2258 61.5546 7.88907 61.5546 5.29267C61.5546 2.65632 59.8501 0.199723 56.6196 0.199723C54.6377 0.199723 52.6756 0.179751 50.6937 0.199723V14.1804H53.6665ZM53.6071 7.66938V2.8161C54.6179 2.8161 55.6088 2.79613 56.6196 2.8161C57.9277 2.8161 58.7204 3.91458 58.7204 5.21278C58.7204 6.55093 57.888 7.66938 56.6196 7.66938H53.6071Z" fill="#424242"/>
<path d="M67.7468 11.8236V2.53649H69.5504V0.219695H62.9704V2.53649H64.774V11.8236H62.8119V14.2003H69.7089V11.8236H67.7468Z" fill="#424242"/>
<path d="M75.1687 0.219695H72.2156V14.2003H75.1687V8.5881C75.7831 8.5881 76.8137 8.5881 77.3488 8.4483L80.8369 14.2003H84.1864V13.7609L79.9451 7.2899C80.7973 6.43109 81.273 5.17283 81.6892 3.57505C81.9865 2.51651 82.581 2.17698 83.6909 2.27685V0.239667C80.6388 -0.399446 79.4298 0.958672 78.9541 2.69627C78.5776 4.27408 78.3001 5.33261 77.5668 5.73206C77.0118 6.01167 76.0209 5.9917 75.1687 5.9917V0.219695Z" fill="#424242"/>
<path d="M99.0262 7.21001C99.0262 2.51651 95.5974 0 91.9705 0C88.2842 0 84.8554 2.49654 84.8554 7.21001C84.8554 11.9235 88.2049 14.44 91.9111 14.44C96.1127 14.44 99.0262 11.4641 99.0262 7.21001ZM87.8481 7.21001C87.8481 4.25411 89.7904 2.75618 91.9705 2.75618C94.1308 2.75618 96.0731 4.23414 96.0731 7.21001C96.0731 10.2658 94.111 11.7038 91.9507 11.7038C89.731 11.7038 87.8481 10.2658 87.8481 7.21001Z" fill="#424242"/>
<path d="M111.727 4.37394C111.727 1.75757 109.903 0.239667 107.367 0.239667H101.48V14.2003H107.922C110.696 14.2003 112.321 12.5227 112.321 10.0661C112.321 8.62805 111.628 7.48963 110.34 6.95037C111.212 6.41112 111.727 5.39253 111.727 4.37394ZM107.149 2.79613C108.179 2.79613 108.833 3.45521 108.813 4.4738C108.794 5.4125 108.159 5.97173 107.149 5.97173H104.433V2.79613H107.149ZM107.585 8.40835C108.04 8.40835 108.437 8.4483 108.774 8.68797C109.19 8.98755 109.408 9.50683 109.388 10.0661C109.329 11.0048 108.734 11.6039 107.723 11.6039H104.433V8.40835H107.585Z" fill="#424242"/>
<path d="M122.807 11.8835L123.898 14.2003H126.97V13.8009L120.627 0.0998616H119.26L112.878 13.8009V14.2003H115.97L117.04 11.8835H122.807ZM119.934 4.75342L121.856 9.36703H118.011L119.934 4.75342Z" fill="#424242"/>
<path d="M136.843 9.10739C138.429 8.32846 139.321 6.77062 139.321 4.99308C139.321 2.51651 137.596 0.199723 134.425 0.199723C132.443 0.179751 130.481 0.199723 128.499 0.199723V14.1804H131.472V9.56675H133.95L136.804 14.1804H139.975V13.7609L136.843 9.10739ZM131.433 7.11015V2.8161H134.406C135.674 2.8161 136.447 3.7548 136.447 4.93317C136.467 6.13151 135.654 7.11015 134.406 7.11015H131.433Z" fill="#424242"/>
<path d="M51.9305 29.5664V27.9487H53.1591C54.4784 27.9487 55.2123 26.9929 55.2123 25.9307C55.2123 24.8523 54.5032 23.8474 53.1591 23.8474C52.3346 23.8474 51.5182 23.8392 50.6937 23.8474V29.5664H51.9305ZM51.9058 26.903V24.9177C52.3263 24.9177 52.7386 24.9095 53.1591 24.9177C53.7033 24.9177 54.0332 25.367 54.0332 25.8981C54.0332 26.4455 53.6869 26.903 53.1591 26.903H51.9058Z" fill="#757575"/>
<path d="M58.5788 25.6366V27.867C58.5788 28.3981 58.2242 28.7412 57.7625 28.7331C57.3584 28.7331 57.0533 28.4471 57.0781 27.8916V25.6366H55.9154V27.8916C55.9154 28.872 56.2453 29.6318 57.3914 29.6318C57.8862 29.6318 58.4386 29.4602 58.6613 29.0027C58.6613 29.7625 59.5518 29.7053 60.1125 29.5746L60.1043 28.8638C59.7497 28.8883 59.7332 28.7576 59.7332 28.3899V25.6366H58.5788Z" fill="#757575"/>
<path d="M60.7018 28.3736C60.743 29.4194 61.6583 29.6808 62.5571 29.6808C63.4559 29.6808 64.3217 29.3295 64.3464 28.3899C64.3711 27.336 63.3569 27.2625 62.4664 27.1563C62.2108 27.1317 61.8974 27.0909 61.8974 26.7968C61.8974 26.5353 62.1778 26.3883 62.5076 26.3883C62.8374 26.3883 63.1178 26.5026 63.126 26.7886H64.2145C64.2557 25.9553 63.4394 25.5304 62.4911 25.5304C61.5181 25.5304 60.7843 25.9471 60.7843 26.8295C60.7843 27.7853 61.8232 27.8916 62.6231 27.9978C62.9034 28.0386 63.192 28.0713 63.192 28.3899C63.1838 28.7412 62.8457 28.8393 62.5076 28.8393C62.1778 28.8474 61.8644 28.7004 61.8562 28.3736H60.7018Z" fill="#757575"/>
<path d="M67.7085 28.97C67.7085 29.6726 68.3682 29.7053 68.9701 29.5746L68.9619 28.9373C68.5826 28.9618 68.5908 28.7657 68.5908 28.4308V27.0092C68.5908 25.8736 67.7168 25.5386 66.6943 25.5386C66.1583 25.5386 65.6224 25.6366 65.2018 25.8327L65.3503 26.6497C65.6883 26.4618 66.0759 26.4128 66.4964 26.4128C66.8922 26.4128 67.4859 26.4945 67.4859 26.9765V27.2461C67.189 27.0582 66.785 26.9929 66.4304 26.9929C65.5481 26.9929 64.8473 27.4504 64.8885 28.4144C64.9132 29.1742 65.5894 29.6481 66.3315 29.6481C66.8427 29.6481 67.4694 29.4602 67.7085 28.97ZM67.4611 28.1612C67.4199 28.5778 66.9417 28.7657 66.5624 28.7657C66.2985 28.7657 66.0429 28.6269 66.0182 28.3409C65.9769 27.9569 66.2738 27.7527 66.6366 27.7282C66.9252 27.7282 67.2303 27.8017 67.4611 27.9569V28.1612Z" fill="#757575"/>
<path d="M71.1872 24.4193H70.2637L70.14 25.6448H69.3071V26.4291L70.0575 26.5026V28.055C70.0575 29.6726 71.2696 29.8932 72.6384 29.5174L72.5312 28.6514C71.8716 28.8883 71.1872 28.8474 71.1872 28.0304V26.5026H72.4817V25.6448H71.1872V24.4193Z" fill="#757575"/>
<path d="M77.2916 28.6023V24.8033H78.0419V23.8556H75.3043V24.8033H76.0547V28.6023H75.2384V29.5746H78.1079V28.6023H77.2916Z" fill="#757575"/>
<path d="M82.9304 29.5746V27.2951C82.9304 26.3147 82.4851 25.5468 81.3637 25.5468C80.9019 25.5468 80.3165 25.702 80.0939 26.1595C80.0939 25.4487 79.1703 25.5386 78.6426 25.6285V26.3392C79.0219 26.3392 79.0219 26.4618 79.0219 26.854V29.5746H80.1763V27.3197C80.1763 26.7641 80.5804 26.4536 81.0174 26.4536C81.4297 26.4536 81.7925 26.7559 81.7677 27.2951V29.5746H82.9304Z" fill="#757575"/>
<path d="M84.326 29.5746H85.4474V26.4536H86.7008V25.6448H85.4474V25.1709C85.4474 24.3294 86.1978 24.3621 86.7915 24.5827L86.9069 23.733C85.6041 23.3408 84.3508 23.5369 84.3508 25.1464L84.3425 25.6448H83.5922V26.4536H84.326V29.5746Z" fill="#757575"/>
<path d="M91.2551 27.5893C91.2551 26.2004 90.1914 25.5141 89.1277 25.5222C88.0805 25.5304 87.0415 26.2249 87.0415 27.5893C87.0415 28.97 88.1052 29.6563 89.1607 29.6563C90.2079 29.6563 91.2551 28.97 91.2551 27.5893ZM88.1877 27.5893C88.1877 26.8785 88.6742 26.5272 89.1607 26.5272C89.6471 26.5272 90.1089 26.8866 90.1089 27.5893C90.1089 28.3082 89.6224 28.6677 89.1359 28.6595C88.6577 28.6595 88.1877 28.3001 88.1877 27.5893Z" fill="#757575"/>
<path d="M93.333 26.184C93.2671 25.4814 92.4178 25.4814 91.8406 25.6121V26.3147C92.2034 26.2575 92.2364 26.47 92.2364 26.7968V29.5746H93.366V27.4422C93.366 26.8376 93.7948 26.5108 94.2978 26.5108C94.5534 26.5026 94.8008 26.568 95.0399 26.7232L95.2955 25.7673C95.0646 25.5958 94.7513 25.5059 94.4462 25.5141C93.9597 25.5141 93.4979 25.7347 93.333 26.184Z" fill="#757575"/>
<path d="M102.328 29.5746V27.2951C102.353 26.3392 102.089 25.5468 100.959 25.5468C100.407 25.5468 99.8215 25.7837 99.5824 26.2657C99.3927 25.7837 99.0629 25.5468 98.3702 25.5468C97.8755 25.5468 97.3066 25.7265 97.0922 26.1758C97.0922 25.3915 96.1769 25.4814 95.6574 25.6285V26.3229C96.0202 26.3229 96.0367 26.4536 96.0367 26.8376V29.5746H97.1829V27.3278C97.1829 26.7968 97.5457 26.47 97.9662 26.4618C98.3867 26.4536 98.6588 26.7723 98.6506 27.3033V29.5746H99.7885V27.3033C99.7968 26.7804 100.118 26.47 100.522 26.4618C100.918 26.4536 101.19 26.7723 101.166 27.2951V29.5746H102.328Z" fill="#757575"/>
<path d="M105.909 28.97C105.909 29.6726 106.569 29.7053 107.171 29.5746L107.163 28.9373C106.783 28.9618 106.792 28.7657 106.792 28.4308V27.0092C106.792 25.8736 105.918 25.5386 104.895 25.5386C104.359 25.5386 103.823 25.6366 103.403 25.8327L103.551 26.6497C103.889 26.4618 104.277 26.4128 104.697 26.4128C105.093 26.4128 105.687 26.4945 105.687 26.9765V27.2461C105.39 27.0582 104.986 26.9929 104.631 26.9929C103.749 26.9929 103.048 27.4504 103.089 28.4144C103.114 29.1742 103.79 29.6481 104.532 29.6481C105.043 29.6481 105.67 29.4602 105.909 28.97ZM105.662 28.1612C105.621 28.5778 105.142 28.7657 104.763 28.7657C104.499 28.7657 104.244 28.6269 104.219 28.3409C104.178 27.9569 104.475 27.7527 104.837 27.7282C105.126 27.7282 105.431 27.8017 105.662 27.9569V28.1612Z" fill="#757575"/>
<path d="M107.68 28.3736C107.721 29.4194 108.636 29.6808 109.535 29.6808C110.434 29.6808 111.3 29.3295 111.324 28.3899C111.349 27.336 110.335 27.2625 109.444 27.1563C109.189 27.1317 108.875 27.0909 108.875 26.7968C108.875 26.5353 109.156 26.3883 109.486 26.3883C109.815 26.3883 110.096 26.5026 110.104 26.7886H111.192C111.234 25.9553 110.417 25.5304 109.469 25.5304C108.496 25.5304 107.762 25.9471 107.762 26.8295C107.762 27.7853 108.801 27.8916 109.601 27.9978C109.881 28.0386 110.17 28.0713 110.17 28.3899C110.162 28.7412 109.824 28.8393 109.486 28.8393C109.156 28.8474 108.842 28.7004 108.834 28.3736H107.68Z" fill="#757575"/>
<path d="M112.048 24.501C112.048 24.9503 112.402 25.1709 112.749 25.1628C113.078 25.1546 113.4 24.934 113.4 24.501C113.4 24.0762 113.07 23.8556 112.74 23.8474C112.394 23.8392 112.048 24.0516 112.048 24.501ZM113.301 25.6856H112.147V29.5746H113.301V25.6856Z" fill="#757575"/>
<path d="M120.241 25.2445C120.241 24.2641 119.449 23.7657 118.459 23.7657C117.503 23.7657 116.555 24.3131 116.621 25.3343C116.645 25.7347 116.835 26.1105 117.19 26.3311C116.604 26.617 116.266 27.1563 116.266 27.818C116.241 28.7657 116.959 29.6645 118.435 29.6645C119.663 29.6645 120.389 28.921 120.389 27.72V26.8376H120.95V25.9144H119.391V27.7282C119.366 28.3164 118.995 28.6514 118.435 28.6514C117.841 28.6514 117.47 28.2592 117.47 27.7772C117.47 27.2788 117.841 26.9112 118.41 26.8866H118.682V25.9553C118.097 25.9553 117.759 25.7919 117.759 25.3343C117.759 24.9422 118.121 24.7624 118.492 24.7624C118.913 24.7624 119.226 24.9503 119.226 25.2445H120.241Z" fill="#757575"/>
<path d="M125.151 23.8556H123.922V29.5746H125.151V27.2788C125.407 27.2788 125.835 27.2788 126.058 27.2216L127.509 29.5746H128.903V29.3948L127.138 26.7478C127.493 26.3964 127.691 25.8817 127.864 25.2281C127.987 24.7951 128.235 24.6562 128.697 24.6971V23.8637C127.427 23.6023 126.924 24.1579 126.726 24.8686C126.569 25.5141 126.454 25.9471 126.149 26.1105C125.918 26.2249 125.505 26.2167 125.151 26.2167V23.8556Z" fill="#757575"/>
<path d="M133.313 27.5893C133.313 26.2004 132.249 25.5141 131.186 25.5222C130.138 25.5304 129.099 26.2249 129.099 27.5893C129.099 28.97 130.163 29.6563 131.219 29.6563C132.266 29.6563 133.313 28.97 133.313 27.5893ZM130.246 27.5893C130.246 26.8785 130.732 26.5272 131.219 26.5272C131.705 26.5272 132.167 26.8866 132.167 27.5893C132.167 28.3082 131.68 28.6677 131.194 28.6595C130.716 28.6595 130.246 28.3001 130.246 27.5893Z" fill="#757575"/>
<path d="M138.12 27.5893C138.12 26.2004 137.057 25.5141 135.993 25.5222C134.946 25.5304 133.907 26.2249 133.907 27.5893C133.907 28.97 134.97 29.6563 136.026 29.6563C137.073 29.6563 138.12 28.97 138.12 27.5893ZM135.053 27.5893C135.053 26.8785 135.539 26.5272 136.026 26.5272C136.512 26.5272 136.974 26.8866 136.974 27.5893C136.974 28.3082 136.488 28.6677 136.001 28.6595C135.523 28.6595 135.053 28.3001 135.053 27.5893Z" fill="#757575"/>
<path d="M140.198 26.184C140.132 25.4814 139.283 25.4814 138.706 25.6121V26.3147C139.069 26.2575 139.102 26.47 139.102 26.7968V29.5746H140.231V27.4422C140.231 26.8376 140.66 26.5108 141.163 26.5108C141.419 26.5026 141.666 26.568 141.905 26.7232L142.161 25.7673C141.93 25.5958 141.616 25.5059 141.311 25.5141C140.825 25.5141 140.363 25.7347 140.198 26.184Z" fill="#757575"/>
<path d="M145.477 29.019C145.502 29.7053 146.211 29.7135 146.788 29.5828L146.78 28.8393C146.359 28.8638 146.409 28.6514 146.409 28.2674V23.6023H145.254V25.7837C143.869 25.1056 142.442 26.0533 142.442 27.6056C142.442 28.7086 143.077 29.6971 144.281 29.6726C144.801 29.6645 145.254 29.403 145.477 28.9128V29.019ZM145.287 27.7608C145.287 28.2429 144.966 28.6595 144.463 28.6595C143.844 28.6595 143.589 28.1693 143.589 27.6056C143.589 26.617 144.463 26.2739 145.287 26.7478V27.7608Z" fill="#757575"/>
<path d="M147.559 24.501C147.559 24.9503 147.914 25.1709 148.26 25.1628C148.59 25.1546 148.911 24.934 148.911 24.501C148.911 24.0762 148.581 23.8556 148.252 23.8474C147.905 23.8392 147.559 24.0516 147.559 24.501ZM148.812 25.6856H147.658V29.5746H148.812V25.6856Z" fill="#757575"/>
<path d="M153.937 29.5746V27.2951C153.937 26.3147 153.491 25.5468 152.37 25.5468C151.908 25.5468 151.323 25.702 151.1 26.1595C151.1 25.4487 150.177 25.5386 149.649 25.6285V26.3392C150.028 26.3392 150.028 26.4618 150.028 26.854V29.5746H151.183V27.3197C151.183 26.7641 151.587 26.4536 152.024 26.4536C152.436 26.4536 152.799 26.7559 152.774 27.2951V29.5746H153.937Z" fill="#757575"/>
<path d="M157.509 28.97C157.509 29.6726 158.169 29.7053 158.771 29.5746L158.763 28.9373C158.383 28.9618 158.392 28.7657 158.392 28.4308V27.0092C158.392 25.8736 157.517 25.5386 156.495 25.5386C155.959 25.5386 155.423 25.6366 155.003 25.8327L155.151 26.6497C155.489 26.4618 155.877 26.4128 156.297 26.4128C156.693 26.4128 157.287 26.4945 157.287 26.9765V27.2461C156.99 27.0582 156.586 26.9929 156.231 26.9929C155.349 26.9929 154.648 27.4504 154.689 28.4144C154.714 29.1742 155.39 29.6481 156.132 29.6481C156.643 29.6481 157.27 29.4602 157.509 28.97ZM157.262 28.1612C157.221 28.5778 156.742 28.7657 156.363 28.7657C156.099 28.7657 155.844 28.6269 155.819 28.3409C155.778 27.9569 156.074 27.7527 156.437 27.7282C156.726 27.7282 157.031 27.8017 157.262 27.9569V28.1612Z" fill="#757575"/>
<path d="M159.28 28.3736C159.321 29.4194 160.236 29.6808 161.135 29.6808C162.034 29.6808 162.9 29.3295 162.924 28.3899C162.949 27.336 161.935 27.2625 161.044 27.1563C160.789 27.1317 160.475 27.0909 160.475 26.7968C160.475 26.5353 160.756 26.3883 161.085 26.3883C161.415 26.3883 161.696 26.5026 161.704 26.7886H162.792C162.834 25.9553 162.017 25.5304 161.069 25.5304C160.096 25.5304 159.362 25.9471 159.362 26.8295C159.362 27.7853 160.401 27.8916 161.201 27.9978C161.481 28.0386 161.77 28.0713 161.77 28.3899C161.762 28.7412 161.424 28.8393 161.085 28.8393C160.756 28.8474 160.442 28.7004 160.434 28.3736H159.28Z" fill="#757575"/>
<path d="M163.648 24.501C163.648 24.9503 164.002 25.1709 164.349 25.1628C164.678 25.1546 165 24.934 165 24.501C165 24.0762 164.67 23.8556 164.34 23.8474C163.994 23.8392 163.648 24.0516 163.648 24.501ZM164.901 25.6856H163.747V29.5746H164.901V25.6856Z" fill="#757575"/>
<path d="M51.9305 37.7364V36.1188H53.1591C54.4784 36.1188 55.2123 35.1629 55.2123 34.1008C55.2123 33.0223 54.5032 32.0174 53.1591 32.0174C52.3346 32.0174 51.5182 32.0092 50.6937 32.0174V37.7364H51.9305ZM51.9058 35.073V33.0877C52.3263 33.0877 52.7386 33.0795 53.1591 33.0877C53.7033 33.0877 54.0332 33.537 54.0332 34.0681C54.0332 34.6155 53.6869 35.073 53.1591 35.073H51.9058Z" fill="#757575"/>
<path d="M57.2018 34.354C57.1358 33.6514 56.2865 33.6514 55.7093 33.7821V34.4848C56.0721 34.4276 56.1051 34.64 56.1051 34.9668V37.7446H57.2348V35.6122C57.2348 35.0077 57.6635 34.6809 58.1665 34.6809C58.4221 34.6727 58.6695 34.738 58.9086 34.8933L59.1642 33.9374C58.9334 33.7658 58.62 33.6759 58.3149 33.6841C57.8284 33.6841 57.3667 33.9047 57.2018 34.354Z" fill="#757575"/>
<path d="M63.6594 35.7593C63.6594 34.3704 62.5957 33.6841 61.532 33.6923C60.4848 33.7004 59.4458 34.3949 59.4458 35.7593C59.4458 37.14 60.5095 37.8263 61.565 37.8263C62.6122 37.8263 63.6594 37.14 63.6594 35.7593ZM60.592 35.7593C60.592 35.0485 61.0785 34.6972 61.565 34.6972C62.0515 34.6972 62.5132 35.0567 62.5132 35.7593C62.5132 36.4783 62.0267 36.8377 61.5402 36.8296C61.062 36.8296 60.592 36.4701 60.592 35.7593Z" fill="#757575"/>
<path d="M66.3339 37.8018L68.2882 33.9374V33.8067H67.0596L66.5896 34.8769L66.1031 36.1351H66.0866L65.6083 34.8769L65.1383 33.8067H63.9015V33.9374L65.8557 37.8018H66.3339Z" fill="#757575"/>
<path d="M68.7982 32.671C68.7982 33.1204 69.1527 33.341 69.4991 33.3328C69.8289 33.3246 70.1505 33.104 70.1505 32.671C70.1505 32.2462 69.8206 32.0256 69.4908 32.0174C69.1445 32.0092 68.7982 32.2217 68.7982 32.671ZM70.0515 33.8557H68.8971V37.7446H70.0515V33.8557Z" fill="#757575"/>
<path d="M75.1759 37.7446V35.4652C75.1759 34.4848 74.7306 33.7168 73.6092 33.7168C73.1475 33.7168 72.562 33.872 72.3394 34.3295C72.3394 33.6187 71.4159 33.7086 70.8881 33.7985V34.5093C71.2674 34.5093 71.2674 34.6318 71.2674 35.024V37.7446H72.4218V35.4897C72.4218 34.9341 72.8259 34.6237 73.2629 34.6237C73.6752 34.6237 74.038 34.926 74.0133 35.4652V37.7446H75.1759Z" fill="#757575"/>
<path d="M75.9531 36.5436C75.9943 37.5894 76.9096 37.8508 77.8084 37.8508C78.7072 37.8508 79.573 37.4995 79.5977 36.56C79.6224 35.506 78.6082 35.4325 77.7177 35.3263C77.4621 35.3018 77.1487 35.2609 77.1487 34.9668C77.1487 34.7054 77.4291 34.5583 77.7589 34.5583C78.0887 34.5583 78.3691 34.6727 78.3773 34.9586H79.4658C79.507 34.1253 78.6907 33.7004 77.7424 33.7004C76.7694 33.7004 76.0356 34.1171 76.0356 34.9995C76.0356 35.9554 77.0745 36.0616 77.8744 36.1678C78.1547 36.2086 78.4433 36.2413 78.4433 36.56C78.4351 36.9113 78.097 37.0093 77.7589 37.0093C77.4291 37.0175 77.1158 36.8704 77.1075 36.5436H75.9531Z" fill="#757575"/>
<path d="M80.3212 32.671C80.3212 33.1204 80.6758 33.341 81.0221 33.3328C81.3519 33.3246 81.6735 33.104 81.6735 32.671C81.6735 32.2462 81.3437 32.0256 81.0138 32.0174C80.6675 32.0092 80.3212 32.2217 80.3212 32.671ZM81.5745 33.8557H80.4202V37.7446H81.5745V33.8557Z" fill="#757575"/>
<path d="M88.5107 32.0256H86.2432V33.0795H87.2739V35.8247C87.2739 36.4211 86.8863 36.7397 86.3009 36.7397C85.7154 36.7397 85.2949 36.4374 85.2949 35.8247V35.1547H84.1488V35.8492C84.1488 37.091 85.1053 37.8263 86.3009 37.8263C87.4965 37.8263 88.5107 37.091 88.5107 35.8492V32.0256Z" fill="#757575"/>
<path d="M92.1315 37.14C92.1315 37.8427 92.7912 37.8753 93.3931 37.7446L93.3849 37.1073C93.0056 37.1319 93.0138 36.9358 93.0138 36.6008V35.1792C93.0138 34.0436 92.1398 33.7086 91.1173 33.7086C90.5814 33.7086 90.0454 33.8067 89.6249 34.0027L89.7733 34.8197C90.1114 34.6318 90.4989 34.5828 90.9194 34.5828C91.3152 34.5828 91.9089 34.6645 91.9089 35.1465V35.4162C91.6121 35.2282 91.208 35.1629 90.8535 35.1629C89.9712 35.1629 89.2703 35.6204 89.3115 36.5845C89.3363 37.3443 90.0124 37.8181 90.7545 37.8181C91.2657 37.8181 91.8924 37.6302 92.1315 37.14ZM91.8842 36.3312C91.8429 36.7479 91.3647 36.9358 90.9854 36.9358C90.7215 36.9358 90.4659 36.7969 90.4412 36.5109C90.4 36.1269 90.6968 35.9227 91.0596 35.8982C91.3482 35.8982 91.6533 35.9717 91.8842 36.1269V36.3312Z" fill="#757575"/>
<path d="M95.7354 37.8018L96.1889 36.8704L96.6672 35.8001L97.1619 36.8377L97.6567 37.8018H98.0937L99.7428 33.9374V33.8067H98.4977L98.1102 34.9586L97.8133 35.8573H97.7886L96.8898 33.8965H96.4528L95.5623 35.8573H95.5458L95.2407 34.9586L94.8202 33.8067H93.5915V33.9374L95.2242 37.8018H95.7354Z" fill="#757575"/>
<path d="M102.849 37.14C102.849 37.8427 103.509 37.8753 104.111 37.7446L104.103 37.1073C103.723 37.1319 103.732 36.9358 103.732 36.6008V35.1792C103.732 34.0436 102.858 33.7086 101.835 33.7086C101.299 33.7086 100.763 33.8067 100.343 34.0027L100.491 34.8197C100.829 34.6318 101.217 34.5828 101.637 34.5828C102.033 34.5828 102.627 34.6645 102.627 35.1465V35.4162C102.33 35.2282 101.926 35.1629 101.571 35.1629C100.689 35.1629 99.9881 35.6204 100.029 36.5845C100.054 37.3443 100.73 37.8181 101.472 37.8181C101.984 37.8181 102.61 37.6302 102.849 37.14ZM102.602 36.3312C102.561 36.7479 102.082 36.9358 101.703 36.9358C101.439 36.9358 101.184 36.7969 101.159 36.5109C101.118 36.1269 101.415 35.9227 101.777 35.8982C102.066 35.8982 102.371 35.9717 102.602 36.1269V36.3312Z" fill="#757575"/>
<path d="M111.292 33.725C111.292 32.6547 110.533 32.0338 109.477 32.0338H107.028V37.7446H109.708C110.863 37.7446 111.539 37.0583 111.539 36.0534C111.539 35.4652 111.25 34.9995 110.714 34.7789C111.077 34.5583 111.292 34.1416 111.292 33.725ZM109.387 33.0795C109.816 33.0795 110.088 33.3491 110.079 33.7658C110.071 34.1498 109.807 34.3786 109.387 34.3786H108.257V33.0795H109.387ZM109.568 35.3753C109.758 35.3753 109.923 35.3916 110.063 35.4897C110.236 35.6122 110.327 35.8247 110.319 36.0534C110.294 36.4374 110.046 36.6825 109.626 36.6825H108.257V35.3753H109.568Z" fill="#757575"/>
<path d="M114.976 37.14C114.976 37.8427 115.636 37.8753 116.238 37.7446L116.23 37.1073C115.85 37.1319 115.859 36.9358 115.859 36.6008V35.1792C115.859 34.0436 114.985 33.7086 113.962 33.7086C113.426 33.7086 112.89 33.8067 112.47 34.0027L112.618 34.8197C112.956 34.6318 113.344 34.5828 113.764 34.5828C114.16 34.5828 114.754 34.6645 114.754 35.1465V35.4162C114.457 35.2282 114.053 35.1629 113.698 35.1629C112.816 35.1629 112.115 35.6204 112.156 36.5845C112.181 37.3443 112.857 37.8181 113.599 37.8181C114.11 37.8181 114.737 37.6302 114.976 37.14ZM114.729 36.3312C114.688 36.7479 114.209 36.9358 113.83 36.9358C113.566 36.9358 113.311 36.7969 113.286 36.5109C113.245 36.1269 113.542 35.9227 113.904 35.8982C114.193 35.8982 114.498 35.9717 114.729 36.1269V36.3312Z" fill="#757575"/>
<path d="M118.239 34.354C118.173 33.6514 117.324 33.6514 116.747 33.7821V34.4848C117.11 34.4276 117.143 34.64 117.143 34.9668V37.7446H118.272V35.6122C118.272 35.0077 118.701 34.6809 119.204 34.6809C119.46 34.6727 119.707 34.738 119.946 34.8933L120.202 33.9374C119.971 33.7658 119.657 33.6759 119.352 33.6841C118.866 33.6841 118.404 33.9047 118.239 34.354Z" fill="#757575"/>
<path d="M123.286 37.14C123.286 37.8427 123.946 37.8753 124.548 37.7446L124.54 37.1073C124.16 37.1319 124.169 36.9358 124.169 36.6008V35.1792C124.169 34.0436 123.295 33.7086 122.272 33.7086C121.736 33.7086 121.2 33.8067 120.78 34.0027L120.928 34.8197C121.266 34.6318 121.654 34.5828 122.074 34.5828C122.47 34.5828 123.064 34.6645 123.064 35.1465V35.4162C122.767 35.2282 122.363 35.1629 122.008 35.1629C121.126 35.1629 120.425 35.6204 120.466 36.5845C120.491 37.3443 121.167 37.8181 121.909 37.8181C122.421 37.8181 123.047 37.6302 123.286 37.14ZM123.039 36.3312C122.998 36.7479 122.52 36.9358 122.14 36.9358C121.876 36.9358 121.621 36.7969 121.596 36.5109C121.555 36.1269 121.852 35.9227 122.214 35.8982C122.503 35.8982 122.808 35.9717 123.039 36.1269V36.3312Z" fill="#757575"/>
<path d="M126.765 32.5893H125.842L125.718 33.8148H124.885V34.5991L125.635 34.6727V36.225C125.635 37.8427 126.848 38.0632 128.216 37.6874L128.109 36.8214C127.449 37.0583 126.765 37.0175 126.765 36.2005V34.6727H128.06V33.8148H126.765V32.5893Z" fill="#757575"/>
</svg>
