<svg width="750" height="79" viewBox="0 0 750 79" fill="none" xmlns="http://www.w3.org/2000/svg">
<rect width="40" height="40" rx="20" fill="#069550"/>
<g clip-path="url(#clip0_5237_163002)">
<path d="M27.5314 16.9122L19.0907 25.3523C18.4656 25.9774 17.4517 25.9774 16.8261 25.3523L12.469 20.9948C11.8437 20.3696 11.8437 19.3556 12.469 18.7303C13.0944 18.1049 14.1082 18.1049 14.7333 18.7301L17.9587 21.9555L25.2666 14.6476C25.892 14.0222 26.906 14.0227 27.5311 14.6476C28.1563 15.2729 28.1563 16.2865 27.5314 16.9122Z" fill="white"/>
</g>
<rect x="56" y="18" width="96.25" height="4" rx="2" fill="#069550"/>
<path d="M2.57031 62.0469V72H1.25098V62.0469H2.57031ZM9.44043 70.5645V61.5H10.7119V72H9.5498L9.44043 70.5645ZM4.46387 68.3838V68.2402C4.46387 67.6751 4.53223 67.1624 4.66895 66.7021C4.81022 66.2373 5.00846 65.8385 5.26367 65.5059C5.52344 65.1732 5.83105 64.918 6.18652 64.7402C6.54655 64.5579 6.94759 64.4668 7.38965 64.4668C7.85449 64.4668 8.26009 64.5488 8.60645 64.7129C8.95736 64.8724 9.25358 65.1071 9.49512 65.417C9.74121 65.7223 9.9349 66.0915 10.0762 66.5244C10.2174 66.9574 10.3154 67.4473 10.3701 67.9941V68.623C10.32 69.1654 10.222 69.653 10.0762 70.0859C9.9349 70.5189 9.74121 70.888 9.49512 71.1934C9.25358 71.4987 8.95736 71.7334 8.60645 71.8975C8.25553 72.057 7.84538 72.1367 7.37598 72.1367C6.94303 72.1367 6.54655 72.0433 6.18652 71.8564C5.83105 71.6696 5.52344 71.4076 5.26367 71.0703C5.00846 70.7331 4.81022 70.3366 4.66895 69.8809C4.53223 69.4206 4.46387 68.9215 4.46387 68.3838ZM5.73535 68.2402V68.3838C5.73535 68.7529 5.77181 69.0993 5.84473 69.4229C5.9222 69.7464 6.04069 70.0312 6.2002 70.2773C6.3597 70.5234 6.5625 70.7171 6.80859 70.8584C7.05469 70.9951 7.34863 71.0635 7.69043 71.0635C8.1097 71.0635 8.45378 70.9746 8.72266 70.7969C8.99609 70.6191 9.21484 70.3844 9.37891 70.0928C9.54297 69.8011 9.67057 69.4844 9.76172 69.1426V67.4951C9.70703 67.2445 9.62728 67.0029 9.52246 66.7705C9.4222 66.5335 9.29004 66.3239 9.12598 66.1416C8.96647 65.9548 8.76823 65.8066 8.53125 65.6973C8.29883 65.5879 8.02311 65.5332 7.7041 65.5332C7.35775 65.5332 7.05924 65.6061 6.80859 65.752C6.5625 65.8932 6.3597 66.0892 6.2002 66.3398C6.04069 66.5859 5.9222 66.873 5.84473 67.2012C5.77181 67.5247 5.73535 67.8711 5.73535 68.2402ZM15.75 72.1367C15.235 72.1367 14.7679 72.0501 14.3486 71.877C13.9339 71.6992 13.5762 71.4508 13.2754 71.1318C12.9792 70.8128 12.7513 70.4346 12.5918 69.9971C12.4323 69.5596 12.3525 69.0811 12.3525 68.5615V68.2744C12.3525 67.6729 12.4414 67.1374 12.6191 66.668C12.7969 66.194 13.0384 65.793 13.3438 65.4648C13.6491 65.1367 13.9954 64.8883 14.3828 64.7197C14.7702 64.5511 15.1712 64.4668 15.5859 64.4668C16.1146 64.4668 16.5703 64.5579 16.9531 64.7402C17.3405 64.9225 17.6572 65.1777 17.9033 65.5059C18.1494 65.8294 18.3317 66.2122 18.4502 66.6543C18.5687 67.0918 18.6279 67.5703 18.6279 68.0898V68.6572H13.1045V67.625H17.3633V67.5293C17.3451 67.2012 17.2767 66.8822 17.1582 66.5723C17.0443 66.2624 16.862 66.0072 16.6113 65.8066C16.3607 65.6061 16.0189 65.5059 15.5859 65.5059C15.2988 65.5059 15.0345 65.5674 14.793 65.6904C14.5514 65.8089 14.3441 65.9867 14.1709 66.2236C13.9977 66.4606 13.8633 66.75 13.7676 67.0918C13.6719 67.4336 13.624 67.8278 13.624 68.2744V68.5615C13.624 68.9124 13.6719 69.2428 13.7676 69.5527C13.8678 69.8581 14.0114 70.127 14.1982 70.3594C14.3896 70.5918 14.6198 70.7741 14.8887 70.9062C15.1621 71.0384 15.472 71.1045 15.8184 71.1045C16.265 71.1045 16.6432 71.0133 16.9531 70.8311C17.263 70.6488 17.5342 70.4049 17.7666 70.0996L18.5322 70.708C18.3727 70.9495 18.1699 71.1797 17.9238 71.3984C17.6777 71.6172 17.3747 71.7949 17.0146 71.9316C16.6592 72.0684 16.2376 72.1367 15.75 72.1367ZM21.3691 66.1826V72H20.1045V64.6035H21.3008L21.3691 66.1826ZM21.0684 68.0215L20.542 68.001C20.5465 67.4951 20.6217 67.028 20.7676 66.5996C20.9134 66.1667 21.1185 65.7907 21.3828 65.4717C21.6471 65.1527 21.9616 64.9066 22.3262 64.7334C22.6953 64.5557 23.1032 64.4668 23.5498 64.4668C23.9144 64.4668 24.2425 64.5169 24.5342 64.6172C24.8258 64.7129 25.0742 64.8678 25.2793 65.082C25.4889 65.2962 25.6484 65.5742 25.7578 65.916C25.8672 66.2533 25.9219 66.6657 25.9219 67.1533V72H24.6504V67.1396C24.6504 66.7523 24.5934 66.4424 24.4795 66.21C24.3656 65.973 24.1992 65.8021 23.9805 65.6973C23.7617 65.5879 23.4928 65.5332 23.1738 65.5332C22.8594 65.5332 22.5723 65.5993 22.3125 65.7314C22.0573 65.8636 21.8363 66.0459 21.6494 66.2783C21.4671 66.5107 21.3236 66.7773 21.2188 67.0781C21.1185 67.3743 21.0684 67.6888 21.0684 68.0215ZM30.9395 64.6035V65.5742H26.9404V64.6035H30.9395ZM28.2939 62.8057H29.5586V70.168C29.5586 70.4186 29.5973 70.6077 29.6748 70.7354C29.7523 70.863 29.8525 70.9473 29.9756 70.9883C30.0986 71.0293 30.2308 71.0498 30.3721 71.0498C30.4769 71.0498 30.5863 71.0407 30.7002 71.0225C30.8187 70.9997 30.9076 70.9814 30.9668 70.9678L30.9736 72C30.8734 72.0319 30.7412 72.0615 30.5771 72.0889C30.4176 72.1208 30.224 72.1367 29.9961 72.1367C29.6862 72.1367 29.4014 72.0752 29.1416 71.9521C28.8818 71.8291 28.6745 71.624 28.5195 71.3369C28.3691 71.0452 28.2939 70.6533 28.2939 70.1611V62.8057ZM33.7969 64.6035V72H32.5254V64.6035H33.7969ZM32.4297 62.6416C32.4297 62.4365 32.4912 62.2633 32.6143 62.1221C32.7419 61.9808 32.9287 61.9102 33.1748 61.9102C33.4163 61.9102 33.6009 61.9808 33.7285 62.1221C33.8607 62.2633 33.9268 62.4365 33.9268 62.6416C33.9268 62.8376 33.8607 63.0062 33.7285 63.1475C33.6009 63.2842 33.4163 63.3525 33.1748 63.3525C32.9287 63.3525 32.7419 63.2842 32.6143 63.1475C32.4912 63.0062 32.4297 62.8376 32.4297 62.6416ZM38.9238 64.6035V65.5742H34.9248V64.6035H38.9238ZM36.2783 62.8057H37.543V70.168C37.543 70.4186 37.5817 70.6077 37.6592 70.7354C37.7367 70.863 37.8369 70.9473 37.96 70.9883C38.083 71.0293 38.2152 71.0498 38.3564 71.0498C38.4613 71.0498 38.5706 71.0407 38.6846 71.0225C38.8031 70.9997 38.8919 70.9814 38.9512 70.9678L38.958 72C38.8577 72.0319 38.7256 72.0615 38.5615 72.0889C38.402 72.1208 38.2083 72.1367 37.9805 72.1367C37.6706 72.1367 37.3857 72.0752 37.126 71.9521C36.8662 71.8291 36.6589 71.624 36.5039 71.3369C36.3535 71.0452 36.2783 70.6533 36.2783 70.1611V62.8057ZM44.7686 70.7354V66.9277C44.7686 66.6361 44.7093 66.3831 44.5908 66.1689C44.4769 65.9502 44.3037 65.7816 44.0713 65.6631C43.8389 65.5446 43.5518 65.4854 43.21 65.4854C42.891 65.4854 42.6107 65.54 42.3691 65.6494C42.1322 65.7588 41.9453 65.9023 41.8086 66.0801C41.6764 66.2578 41.6104 66.4492 41.6104 66.6543H40.3457C40.3457 66.39 40.4141 66.1279 40.5508 65.8682C40.6875 65.6084 40.8835 65.3737 41.1387 65.1641C41.3984 64.9499 41.7083 64.7812 42.0684 64.6582C42.4329 64.5306 42.8385 64.4668 43.2852 64.4668C43.8229 64.4668 44.2969 64.5579 44.707 64.7402C45.1217 64.9225 45.4453 65.1982 45.6777 65.5674C45.9147 65.932 46.0332 66.39 46.0332 66.9414V70.3867C46.0332 70.6328 46.0537 70.8949 46.0947 71.1729C46.1403 71.4508 46.2064 71.6901 46.293 71.8906V72H44.9736C44.9098 71.8542 44.8597 71.6605 44.8232 71.4189C44.7868 71.1729 44.7686 70.945 44.7686 70.7354ZM44.9873 67.5156L45.001 68.4043H43.7227C43.3626 68.4043 43.0413 68.4339 42.7588 68.4932C42.4762 68.5479 42.2393 68.6322 42.0479 68.7461C41.8564 68.86 41.7106 69.0036 41.6104 69.1768C41.5101 69.3454 41.46 69.5436 41.46 69.7715C41.46 70.0039 41.5124 70.2158 41.6172 70.4072C41.722 70.5986 41.8792 70.7513 42.0889 70.8652C42.3031 70.9746 42.5651 71.0293 42.875 71.0293C43.2624 71.0293 43.6042 70.9473 43.9004 70.7832C44.1966 70.6191 44.4313 70.4186 44.6045 70.1816C44.7822 69.9447 44.8779 69.7145 44.8916 69.4912L45.4316 70.0996C45.3997 70.291 45.3132 70.5029 45.1719 70.7354C45.0306 70.9678 44.8415 71.1911 44.6045 71.4053C44.3721 71.6149 44.0941 71.7904 43.7705 71.9316C43.4515 72.0684 43.0915 72.1367 42.6904 72.1367C42.1891 72.1367 41.7493 72.0387 41.3711 71.8428C40.9974 71.6468 40.7057 71.3848 40.4961 71.0566C40.291 70.724 40.1885 70.3525 40.1885 69.9424C40.1885 69.5459 40.266 69.1973 40.4209 68.8965C40.5758 68.5911 40.7992 68.3382 41.0908 68.1377C41.3825 67.9326 41.7334 67.7777 42.1436 67.6729C42.5537 67.568 43.0117 67.5156 43.5176 67.5156H44.9873ZM52.3291 70.0381C52.3291 69.8558 52.2881 69.6872 52.2061 69.5322C52.1286 69.3727 51.9668 69.2292 51.7207 69.1016C51.4792 68.9694 51.1146 68.8555 50.627 68.7598C50.2168 68.6732 49.8454 68.5706 49.5127 68.4521C49.1846 68.3337 48.9043 68.1901 48.6719 68.0215C48.444 67.8529 48.2686 67.6546 48.1455 67.4268C48.0225 67.1989 47.9609 66.9323 47.9609 66.627C47.9609 66.3353 48.0247 66.0596 48.1523 65.7998C48.2845 65.54 48.4691 65.3099 48.7061 65.1094C48.9476 64.9089 49.237 64.7516 49.5742 64.6377C49.9115 64.5238 50.2874 64.4668 50.7021 64.4668C51.2946 64.4668 51.8005 64.5716 52.2197 64.7812C52.639 64.9909 52.9603 65.2712 53.1836 65.6221C53.4069 65.9684 53.5186 66.3535 53.5186 66.7773H52.2539C52.2539 66.5723 52.1924 66.374 52.0693 66.1826C51.9508 65.9867 51.7754 65.8249 51.543 65.6973C51.3151 65.5697 51.0348 65.5059 50.7021 65.5059C50.3512 65.5059 50.0664 65.5605 49.8477 65.6699C49.6335 65.7747 49.4762 65.9092 49.376 66.0732C49.2803 66.2373 49.2324 66.4105 49.2324 66.5928C49.2324 66.7295 49.2552 66.8525 49.3008 66.9619C49.3509 67.0667 49.4375 67.1647 49.5605 67.2559C49.6836 67.3424 49.8568 67.4245 50.0801 67.502C50.3034 67.5794 50.5882 67.6569 50.9346 67.7344C51.5407 67.8711 52.0397 68.0352 52.4316 68.2266C52.8236 68.418 53.1152 68.6527 53.3066 68.9307C53.498 69.2087 53.5938 69.5459 53.5938 69.9424C53.5938 70.266 53.5254 70.5622 53.3887 70.8311C53.2565 71.0999 53.0628 71.3324 52.8076 71.5283C52.557 71.7197 52.2562 71.8701 51.9053 71.9795C51.5589 72.0843 51.1693 72.1367 50.7363 72.1367C50.0846 72.1367 49.5332 72.0205 49.082 71.7881C48.6309 71.5557 48.2891 71.2549 48.0566 70.8857C47.8242 70.5166 47.708 70.127 47.708 69.7168H48.9795C48.9977 70.0632 49.098 70.3389 49.2803 70.5439C49.4626 70.7445 49.6859 70.888 49.9502 70.9746C50.2145 71.0566 50.4766 71.0977 50.7363 71.0977C51.0827 71.0977 51.3721 71.0521 51.6045 70.9609C51.8415 70.8698 52.0215 70.7445 52.1445 70.585C52.2676 70.4255 52.3291 70.2432 52.3291 70.0381ZM61.6123 72H59.5342L59.5479 70.9268H61.6123C62.3232 70.9268 62.9157 70.7786 63.3896 70.4824C63.8636 70.1816 64.2191 69.7624 64.4561 69.2246C64.6976 68.6823 64.8184 68.0488 64.8184 67.3242V66.7158C64.8184 66.1462 64.75 65.6403 64.6133 65.1982C64.4766 64.7516 64.276 64.3757 64.0117 64.0703C63.7474 63.7604 63.4238 63.5257 63.041 63.3662C62.6628 63.2067 62.2275 63.127 61.7354 63.127H59.4932V62.0469H61.7354C62.387 62.0469 62.9818 62.1562 63.5195 62.375C64.0573 62.5892 64.5199 62.9014 64.9072 63.3115C65.2992 63.7171 65.5999 64.2093 65.8096 64.7881C66.0192 65.3623 66.124 66.0094 66.124 66.7295V67.3242C66.124 68.0443 66.0192 68.6937 65.8096 69.2725C65.5999 69.8467 65.2969 70.3366 64.9004 70.7422C64.5085 71.1478 64.0345 71.46 63.4785 71.6787C62.9271 71.8929 62.305 72 61.6123 72ZM60.2383 62.0469V72H58.9189V62.0469H60.2383ZM69.2891 64.6035V72H68.0176V64.6035H69.2891ZM67.9219 62.6416C67.9219 62.4365 67.9834 62.2633 68.1064 62.1221C68.234 61.9808 68.4209 61.9102 68.667 61.9102C68.9085 61.9102 69.0931 61.9808 69.2207 62.1221C69.3529 62.2633 69.4189 62.4365 69.4189 62.6416C69.4189 62.8376 69.3529 63.0062 69.2207 63.1475C69.0931 63.2842 68.9085 63.3525 68.667 63.3525C68.4209 63.3525 68.234 63.2842 68.1064 63.1475C67.9834 63.0062 67.9219 62.8376 67.9219 62.6416ZM72.584 65.7656V72H71.3193V64.6035H72.5498L72.584 65.7656ZM74.8945 64.5625L74.8877 65.7383C74.7829 65.7155 74.6826 65.7018 74.5869 65.6973C74.4958 65.6882 74.391 65.6836 74.2725 65.6836C73.9808 65.6836 73.7233 65.7292 73.5 65.8203C73.2767 65.9115 73.0876 66.0391 72.9326 66.2031C72.7777 66.3672 72.6546 66.5632 72.5635 66.791C72.4769 67.0143 72.4199 67.2604 72.3926 67.5293L72.0371 67.7344C72.0371 67.2878 72.0804 66.8685 72.167 66.4766C72.2581 66.0846 72.3971 65.7383 72.584 65.4375C72.7708 65.1322 73.0078 64.8952 73.2949 64.7266C73.5866 64.5534 73.9329 64.4668 74.334 64.4668C74.4251 64.4668 74.5299 64.4782 74.6484 64.501C74.7669 64.5192 74.849 64.5397 74.8945 64.5625ZM77.4375 64.6035V72H76.166V64.6035H77.4375ZM76.0703 62.6416C76.0703 62.4365 76.1318 62.2633 76.2549 62.1221C76.3825 61.9808 76.5693 61.9102 76.8154 61.9102C77.057 61.9102 77.2415 61.9808 77.3691 62.1221C77.5013 62.2633 77.5674 62.4365 77.5674 62.6416C77.5674 62.8376 77.5013 63.0062 77.3691 63.1475C77.2415 63.2842 77.057 63.3525 76.8154 63.3525C76.5693 63.3525 76.3825 63.2842 76.2549 63.1475C76.1318 63.0062 76.0703 62.8376 76.0703 62.6416Z" fill="#424242"/>
<rect x="176.25" width="40" height="40" rx="20" fill="#069550"/>
<g clip-path="url(#clip1_5237_163002)">
<path d="M203.781 16.9122L195.341 25.3523C194.716 25.9774 193.702 25.9774 193.076 25.3523L188.719 20.9948C188.094 20.3696 188.094 19.3556 188.719 18.7303C189.344 18.1049 190.358 18.1049 190.983 18.7301L194.209 21.9555L201.517 14.6476C202.142 14.0222 203.156 14.0227 203.781 14.6476C204.406 15.2729 204.406 16.2865 203.781 16.9122Z" fill="white"/>
</g>
<rect x="232.25" y="18" width="96.25" height="4" rx="2" fill="#069550"/>
<path d="M178.82 62.0469V72H177.501V62.0469H178.82ZM182.293 66.1826V72H181.028V64.6035H182.225L182.293 66.1826ZM181.992 68.0215L181.466 68.001C181.47 67.4951 181.546 67.028 181.691 66.5996C181.837 66.1667 182.042 65.7907 182.307 65.4717C182.571 65.1527 182.885 64.9066 183.25 64.7334C183.619 64.5557 184.027 64.4668 184.474 64.4668C184.838 64.4668 185.166 64.5169 185.458 64.6172C185.75 64.7129 185.998 64.8678 186.203 65.082C186.413 65.2962 186.572 65.5742 186.682 65.916C186.791 66.2533 186.846 66.6657 186.846 67.1533V72H185.574V67.1396C185.574 66.7523 185.517 66.4424 185.403 66.21C185.289 65.973 185.123 65.8021 184.904 65.6973C184.686 65.5879 184.417 65.5332 184.098 65.5332C183.783 65.5332 183.496 65.5993 183.236 65.7314C182.981 65.8636 182.76 66.0459 182.573 66.2783C182.391 66.5107 182.247 66.7773 182.143 67.0781C182.042 67.3743 181.992 67.6888 181.992 68.0215ZM190.653 72H189.389V63.8242C189.389 63.291 189.484 62.8421 189.676 62.4775C189.872 62.1084 190.152 61.8304 190.517 61.6436C190.881 61.4521 191.314 61.3564 191.815 61.3564C191.961 61.3564 192.107 61.3656 192.253 61.3838C192.403 61.402 192.549 61.4294 192.69 61.4658L192.622 62.498C192.526 62.4753 192.417 62.4593 192.294 62.4502C192.175 62.4411 192.057 62.4365 191.938 62.4365C191.67 62.4365 191.437 62.4912 191.241 62.6006C191.05 62.7054 190.904 62.8604 190.804 63.0654C190.703 63.2705 190.653 63.5234 190.653 63.8242V72ZM192.226 64.6035V65.5742H188.22V64.6035H192.226ZM193.299 68.3838V68.2266C193.299 67.6934 193.376 67.1989 193.531 66.7432C193.686 66.2829 193.91 65.8841 194.201 65.5469C194.493 65.2051 194.846 64.9408 195.261 64.7539C195.675 64.5625 196.14 64.4668 196.655 64.4668C197.175 64.4668 197.642 64.5625 198.057 64.7539C198.476 64.9408 198.831 65.2051 199.123 65.5469C199.419 65.8841 199.645 66.2829 199.8 66.7432C199.955 67.1989 200.032 67.6934 200.032 68.2266V68.3838C200.032 68.917 199.955 69.4115 199.8 69.8672C199.645 70.3229 199.419 70.7217 199.123 71.0635C198.831 71.4007 198.478 71.665 198.063 71.8564C197.653 72.0433 197.188 72.1367 196.669 72.1367C196.149 72.1367 195.682 72.0433 195.268 71.8564C194.853 71.665 194.497 71.4007 194.201 71.0635C193.91 70.7217 193.686 70.3229 193.531 69.8672C193.376 69.4115 193.299 68.917 193.299 68.3838ZM194.563 68.2266V68.3838C194.563 68.7529 194.607 69.1016 194.693 69.4297C194.78 69.7533 194.91 70.0404 195.083 70.291C195.261 70.5417 195.482 70.7399 195.746 70.8857C196.01 71.027 196.318 71.0977 196.669 71.0977C197.015 71.0977 197.318 71.027 197.578 70.8857C197.842 70.7399 198.061 70.5417 198.234 70.291C198.408 70.0404 198.537 69.7533 198.624 69.4297C198.715 69.1016 198.761 68.7529 198.761 68.3838V68.2266C198.761 67.862 198.715 67.5179 198.624 67.1943C198.537 66.8662 198.405 66.5768 198.228 66.3262C198.054 66.071 197.836 65.8704 197.571 65.7246C197.312 65.5788 197.006 65.5059 196.655 65.5059C196.309 65.5059 196.004 65.5788 195.739 65.7246C195.479 65.8704 195.261 66.071 195.083 66.3262C194.91 66.5768 194.78 66.8662 194.693 67.1943C194.607 67.5179 194.563 67.862 194.563 68.2266ZM202.883 65.7656V72H201.618V64.6035H202.849L202.883 65.7656ZM205.193 64.5625L205.187 65.7383C205.082 65.7155 204.981 65.7018 204.886 65.6973C204.795 65.6882 204.69 65.6836 204.571 65.6836C204.28 65.6836 204.022 65.7292 203.799 65.8203C203.576 65.9115 203.386 66.0391 203.231 66.2031C203.076 66.3672 202.953 66.5632 202.862 66.791C202.776 67.0143 202.719 67.2604 202.691 67.5293L202.336 67.7344C202.336 67.2878 202.379 66.8685 202.466 66.4766C202.557 66.0846 202.696 65.7383 202.883 65.4375C203.07 65.1322 203.307 64.8952 203.594 64.7266C203.885 64.5534 204.232 64.4668 204.633 64.4668C204.724 64.4668 204.829 64.4782 204.947 64.501C205.066 64.5192 205.148 64.5397 205.193 64.5625ZM207.62 66.0732V72H206.349V64.6035H207.552L207.62 66.0732ZM207.36 68.0215L206.772 68.001C206.777 67.4951 206.843 67.028 206.971 66.5996C207.098 66.1667 207.287 65.7907 207.538 65.4717C207.789 65.1527 208.101 64.9066 208.475 64.7334C208.848 64.5557 209.281 64.4668 209.773 64.4668C210.12 64.4668 210.439 64.5169 210.73 64.6172C211.022 64.7129 211.275 64.8656 211.489 65.0752C211.703 65.2848 211.87 65.5537 211.988 65.8818C212.107 66.21 212.166 66.6064 212.166 67.0713V72H210.901V67.1328C210.901 66.7454 210.835 66.4355 210.703 66.2031C210.576 65.9707 210.393 65.8021 210.156 65.6973C209.919 65.5879 209.641 65.5332 209.322 65.5332C208.949 65.5332 208.636 65.5993 208.386 65.7314C208.135 65.8636 207.935 66.0459 207.784 66.2783C207.634 66.5107 207.524 66.7773 207.456 67.0781C207.392 67.3743 207.36 67.6888 207.36 68.0215ZM212.152 67.3242L211.305 67.584C211.309 67.1784 211.375 66.7887 211.503 66.415C211.635 66.0413 211.824 65.7087 212.07 65.417C212.321 65.1253 212.629 64.8952 212.993 64.7266C213.358 64.5534 213.775 64.4668 214.244 64.4668C214.641 64.4668 214.992 64.5192 215.297 64.624C215.607 64.7288 215.867 64.8906 216.076 65.1094C216.29 65.3236 216.452 65.5993 216.562 65.9365C216.671 66.2738 216.726 66.6748 216.726 67.1396V72H215.454V67.126C215.454 66.7113 215.388 66.39 215.256 66.1621C215.128 65.9297 214.946 65.7679 214.709 65.6768C214.477 65.5811 214.199 65.5332 213.875 65.5332C213.597 65.5332 213.351 65.5811 213.137 65.6768C212.923 65.7725 212.743 65.9046 212.597 66.0732C212.451 66.2373 212.339 66.4264 212.262 66.6406C212.189 66.8548 212.152 67.0827 212.152 67.3242ZM223.001 70.7354V66.9277C223.001 66.6361 222.942 66.3831 222.823 66.1689C222.709 65.9502 222.536 65.7816 222.304 65.6631C222.071 65.5446 221.784 65.4854 221.442 65.4854C221.123 65.4854 220.843 65.54 220.602 65.6494C220.365 65.7588 220.178 65.9023 220.041 66.0801C219.909 66.2578 219.843 66.4492 219.843 66.6543H218.578C218.578 66.39 218.646 66.1279 218.783 65.8682C218.92 65.6084 219.116 65.3737 219.371 65.1641C219.631 64.9499 219.941 64.7812 220.301 64.6582C220.665 64.5306 221.071 64.4668 221.518 64.4668C222.055 64.4668 222.529 64.5579 222.939 64.7402C223.354 64.9225 223.678 65.1982 223.91 65.5674C224.147 65.932 224.266 66.39 224.266 66.9414V70.3867C224.266 70.6328 224.286 70.8949 224.327 71.1729C224.373 71.4508 224.439 71.6901 224.525 71.8906V72H223.206C223.142 71.8542 223.092 71.6605 223.056 71.4189C223.019 71.1729 223.001 70.945 223.001 70.7354ZM223.22 67.5156L223.233 68.4043H221.955C221.595 68.4043 221.274 68.4339 220.991 68.4932C220.709 68.5479 220.472 68.6322 220.28 68.7461C220.089 68.86 219.943 69.0036 219.843 69.1768C219.743 69.3454 219.692 69.5436 219.692 69.7715C219.692 70.0039 219.745 70.2158 219.85 70.4072C219.954 70.5986 220.112 70.7513 220.321 70.8652C220.535 70.9746 220.798 71.0293 221.107 71.0293C221.495 71.0293 221.837 70.9473 222.133 70.7832C222.429 70.6191 222.664 70.4186 222.837 70.1816C223.015 69.9447 223.11 69.7145 223.124 69.4912L223.664 70.0996C223.632 70.291 223.546 70.5029 223.404 70.7354C223.263 70.9678 223.074 71.1911 222.837 71.4053C222.604 71.6149 222.326 71.7904 222.003 71.9316C221.684 72.0684 221.324 72.1367 220.923 72.1367C220.422 72.1367 219.982 72.0387 219.604 71.8428C219.23 71.6468 218.938 71.3848 218.729 71.0566C218.523 70.724 218.421 70.3525 218.421 69.9424C218.421 69.5459 218.498 69.1973 218.653 68.8965C218.808 68.5911 219.032 68.3382 219.323 68.1377C219.615 67.9326 219.966 67.7777 220.376 67.6729C220.786 67.568 221.244 67.5156 221.75 67.5156H223.22ZM230.562 70.0381C230.562 69.8558 230.521 69.6872 230.438 69.5322C230.361 69.3727 230.199 69.2292 229.953 69.1016C229.712 68.9694 229.347 68.8555 228.859 68.7598C228.449 68.6732 228.078 68.5706 227.745 68.4521C227.417 68.3337 227.137 68.1901 226.904 68.0215C226.676 67.8529 226.501 67.6546 226.378 67.4268C226.255 67.1989 226.193 66.9323 226.193 66.627C226.193 66.3353 226.257 66.0596 226.385 65.7998C226.517 65.54 226.701 65.3099 226.938 65.1094C227.18 64.9089 227.469 64.7516 227.807 64.6377C228.144 64.5238 228.52 64.4668 228.935 64.4668C229.527 64.4668 230.033 64.5716 230.452 64.7812C230.871 64.9909 231.193 65.2712 231.416 65.6221C231.639 65.9684 231.751 66.3535 231.751 66.7773H230.486C230.486 66.5723 230.425 66.374 230.302 66.1826C230.183 65.9867 230.008 65.8249 229.775 65.6973C229.548 65.5697 229.267 65.5059 228.935 65.5059C228.584 65.5059 228.299 65.5605 228.08 65.6699C227.866 65.7747 227.709 65.9092 227.608 66.0732C227.513 66.2373 227.465 66.4105 227.465 66.5928C227.465 66.7295 227.488 66.8525 227.533 66.9619C227.583 67.0667 227.67 67.1647 227.793 67.2559C227.916 67.3424 228.089 67.4245 228.312 67.502C228.536 67.5794 228.821 67.6569 229.167 67.7344C229.773 67.8711 230.272 68.0352 230.664 68.2266C231.056 68.418 231.348 68.6527 231.539 68.9307C231.73 69.2087 231.826 69.5459 231.826 69.9424C231.826 70.266 231.758 70.5622 231.621 70.8311C231.489 71.0999 231.295 71.3324 231.04 71.5283C230.789 71.7197 230.489 71.8701 230.138 71.9795C229.791 72.0843 229.402 72.1367 228.969 72.1367C228.317 72.1367 227.766 72.0205 227.314 71.7881C226.863 71.5557 226.521 71.2549 226.289 70.8857C226.057 70.5166 225.94 70.127 225.94 69.7168H227.212C227.23 70.0632 227.33 70.3389 227.513 70.5439C227.695 70.7445 227.918 70.888 228.183 70.9746C228.447 71.0566 228.709 71.0977 228.969 71.0977C229.315 71.0977 229.604 71.0521 229.837 70.9609C230.074 70.8698 230.254 70.7445 230.377 70.585C230.5 70.4255 230.562 70.2432 230.562 70.0381ZM234.861 64.6035V72H233.59V64.6035H234.861ZM233.494 62.6416C233.494 62.4365 233.556 62.2633 233.679 62.1221C233.806 61.9808 233.993 61.9102 234.239 61.9102C234.481 61.9102 234.665 61.9808 234.793 62.1221C234.925 62.2633 234.991 62.4365 234.991 62.6416C234.991 62.8376 234.925 63.0062 234.793 63.1475C234.665 63.2842 234.481 63.3525 234.239 63.3525C233.993 63.3525 233.806 63.2842 233.679 63.1475C233.556 63.0062 233.494 62.8376 233.494 62.6416ZM240.973 62.0469H242.251L245.512 70.1611L248.766 62.0469H250.051L246.004 72H245.006L240.973 62.0469ZM240.556 62.0469H241.684L241.868 68.1172V72H240.556V62.0469ZM249.333 62.0469H250.461V72H249.148V68.1172L249.333 62.0469ZM255.656 72.1367C255.141 72.1367 254.674 72.0501 254.255 71.877C253.84 71.6992 253.482 71.4508 253.182 71.1318C252.885 70.8128 252.658 70.4346 252.498 69.9971C252.339 69.5596 252.259 69.0811 252.259 68.5615V68.2744C252.259 67.6729 252.348 67.1374 252.525 66.668C252.703 66.194 252.945 65.793 253.25 65.4648C253.555 65.1367 253.902 64.8883 254.289 64.7197C254.676 64.5511 255.077 64.4668 255.492 64.4668C256.021 64.4668 256.477 64.5579 256.859 64.7402C257.247 64.9225 257.563 65.1777 257.81 65.5059C258.056 65.8294 258.238 66.2122 258.356 66.6543C258.475 67.0918 258.534 67.5703 258.534 68.0898V68.6572H253.011V67.625H257.27V67.5293C257.251 67.2012 257.183 66.8822 257.064 66.5723C256.951 66.2624 256.768 66.0072 256.518 65.8066C256.267 65.6061 255.925 65.5059 255.492 65.5059C255.205 65.5059 254.941 65.5674 254.699 65.6904C254.458 65.8089 254.25 65.9867 254.077 66.2236C253.904 66.4606 253.77 66.75 253.674 67.0918C253.578 67.4336 253.53 67.8278 253.53 68.2744V68.5615C253.53 68.9124 253.578 69.2428 253.674 69.5527C253.774 69.8581 253.918 70.127 254.104 70.3594C254.296 70.5918 254.526 70.7741 254.795 70.9062C255.068 71.0384 255.378 71.1045 255.725 71.1045C256.171 71.1045 256.549 71.0133 256.859 70.8311C257.169 70.6488 257.44 70.4049 257.673 70.0996L258.438 70.708C258.279 70.9495 258.076 71.1797 257.83 71.3984C257.584 71.6172 257.281 71.7949 256.921 71.9316C256.565 72.0684 256.144 72.1367 255.656 72.1367ZM264.673 70.5645V61.5H265.944V72H264.782L264.673 70.5645ZM259.696 68.3838V68.2402C259.696 67.6751 259.765 67.1624 259.901 66.7021C260.043 66.2373 260.241 65.8385 260.496 65.5059C260.756 65.1732 261.063 64.918 261.419 64.7402C261.779 64.5579 262.18 64.4668 262.622 64.4668C263.087 64.4668 263.493 64.5488 263.839 64.7129C264.19 64.8724 264.486 65.1071 264.728 65.417C264.974 65.7223 265.167 66.0915 265.309 66.5244C265.45 66.9574 265.548 67.4473 265.603 67.9941V68.623C265.552 69.1654 265.454 69.653 265.309 70.0859C265.167 70.5189 264.974 70.888 264.728 71.1934C264.486 71.4987 264.19 71.7334 263.839 71.8975C263.488 72.057 263.078 72.1367 262.608 72.1367C262.175 72.1367 261.779 72.0433 261.419 71.8564C261.063 71.6696 260.756 71.4076 260.496 71.0703C260.241 70.7331 260.043 70.3366 259.901 69.8809C259.765 69.4206 259.696 68.9215 259.696 68.3838ZM260.968 68.2402V68.3838C260.968 68.7529 261.004 69.0993 261.077 69.4229C261.155 69.7464 261.273 70.0312 261.433 70.2773C261.592 70.5234 261.795 70.7171 262.041 70.8584C262.287 70.9951 262.581 71.0635 262.923 71.0635C263.342 71.0635 263.686 70.9746 263.955 70.7969C264.229 70.6191 264.447 70.3844 264.611 70.0928C264.775 69.8011 264.903 69.4844 264.994 69.1426V67.4951C264.939 67.2445 264.86 67.0029 264.755 66.7705C264.655 66.5335 264.522 66.3239 264.358 66.1416C264.199 65.9548 264.001 65.8066 263.764 65.6973C263.531 65.5879 263.256 65.5332 262.937 65.5332C262.59 65.5332 262.292 65.6061 262.041 65.752C261.795 65.8932 261.592 66.0892 261.433 66.3398C261.273 66.5859 261.155 66.873 261.077 67.2012C261.004 67.5247 260.968 67.8711 260.968 68.2402ZM269.287 64.6035V72H268.016V64.6035H269.287ZM267.92 62.6416C267.92 62.4365 267.981 62.2633 268.104 62.1221C268.232 61.9808 268.419 61.9102 268.665 61.9102C268.907 61.9102 269.091 61.9808 269.219 62.1221C269.351 62.2633 269.417 62.4365 269.417 62.6416C269.417 62.8376 269.351 63.0062 269.219 63.1475C269.091 63.2842 268.907 63.3525 268.665 63.3525C268.419 63.3525 268.232 63.2842 268.104 63.1475C267.981 63.0062 267.92 62.8376 267.92 62.6416ZM275.624 70.0381C275.624 69.8558 275.583 69.6872 275.501 69.5322C275.424 69.3727 275.262 69.2292 275.016 69.1016C274.774 68.9694 274.41 68.8555 273.922 68.7598C273.512 68.6732 273.14 68.5706 272.808 68.4521C272.479 68.3337 272.199 68.1901 271.967 68.0215C271.739 67.8529 271.563 67.6546 271.44 67.4268C271.317 67.1989 271.256 66.9323 271.256 66.627C271.256 66.3353 271.32 66.0596 271.447 65.7998C271.579 65.54 271.764 65.3099 272.001 65.1094C272.243 64.9089 272.532 64.7516 272.869 64.6377C273.206 64.5238 273.582 64.4668 273.997 64.4668C274.59 64.4668 275.095 64.5716 275.515 64.7812C275.934 64.9909 276.255 65.2712 276.479 65.6221C276.702 65.9684 276.813 66.3535 276.813 66.7773H275.549C275.549 66.5723 275.487 66.374 275.364 66.1826C275.246 65.9867 275.07 65.8249 274.838 65.6973C274.61 65.5697 274.33 65.5059 273.997 65.5059C273.646 65.5059 273.361 65.5605 273.143 65.6699C272.928 65.7747 272.771 65.9092 272.671 66.0732C272.575 66.2373 272.527 66.4105 272.527 66.5928C272.527 66.7295 272.55 66.8525 272.596 66.9619C272.646 67.0667 272.732 67.1647 272.855 67.2559C272.979 67.3424 273.152 67.4245 273.375 67.502C273.598 67.5794 273.883 67.6569 274.229 67.7344C274.836 67.8711 275.335 68.0352 275.727 68.2266C276.118 68.418 276.41 68.6527 276.602 68.9307C276.793 69.2087 276.889 69.5459 276.889 69.9424C276.889 70.266 276.82 70.5622 276.684 70.8311C276.551 71.0999 276.358 71.3324 276.103 71.5283C275.852 71.7197 275.551 71.8701 275.2 71.9795C274.854 72.0843 274.464 72.1367 274.031 72.1367C273.38 72.1367 272.828 72.0205 272.377 71.7881C271.926 71.5557 271.584 71.2549 271.352 70.8857C271.119 70.5166 271.003 70.127 271.003 69.7168H272.274C272.293 70.0632 272.393 70.3389 272.575 70.5439C272.757 70.7445 272.981 70.888 273.245 70.9746C273.509 71.0566 273.771 71.0977 274.031 71.0977C274.378 71.0977 274.667 71.0521 274.899 70.9609C275.136 70.8698 275.316 70.7445 275.439 70.585C275.562 70.4255 275.624 70.2432 275.624 70.0381Z" fill="#424242"/>
<rect x="352.5" width="40" height="40" rx="20" fill="#069550"/>
<g clip-path="url(#clip2_5237_163002)">
<path d="M380.031 16.9122L371.591 25.3523C370.966 25.9774 369.952 25.9774 369.326 25.3523L364.969 20.9948C364.344 20.3696 364.344 19.3556 364.969 18.7303C365.594 18.1049 366.608 18.1049 367.233 18.7301L370.459 21.9555L377.767 14.6476C378.392 14.0222 379.406 14.0227 380.031 14.6476C380.656 15.2729 380.656 16.2865 380.031 16.9122Z" fill="white"/>
</g>
<rect x="408.5" y="18" width="96.25" height="4" rx="2" fill="#069550"/>
<path d="M359.35 62.0469H360.662V68.7803C360.662 69.5277 360.496 70.1497 360.163 70.6465C359.83 71.1432 359.388 71.5169 358.837 71.7676C358.29 72.0137 357.695 72.1367 357.053 72.1367C356.378 72.1367 355.768 72.0137 355.221 71.7676C354.678 71.5169 354.248 71.1432 353.929 70.6465C353.614 70.1497 353.457 69.5277 353.457 68.7803V62.0469H354.763V68.7803C354.763 69.2998 354.858 69.7282 355.05 70.0654C355.241 70.4027 355.508 70.6533 355.85 70.8174C356.196 70.9814 356.597 71.0635 357.053 71.0635C357.513 71.0635 357.914 70.9814 358.256 70.8174C358.602 70.6533 358.871 70.4027 359.062 70.0654C359.254 69.7282 359.35 69.2998 359.35 68.7803V62.0469ZM363.807 66.1826V72H362.542V64.6035H363.738L363.807 66.1826ZM363.506 68.0215L362.979 68.001C362.984 67.4951 363.059 67.028 363.205 66.5996C363.351 66.1667 363.556 65.7907 363.82 65.4717C364.085 65.1527 364.399 64.9066 364.764 64.7334C365.133 64.5557 365.541 64.4668 365.987 64.4668C366.352 64.4668 366.68 64.5169 366.972 64.6172C367.263 64.7129 367.512 64.8678 367.717 65.082C367.926 65.2962 368.086 65.5742 368.195 65.916C368.305 66.2533 368.359 66.6657 368.359 67.1533V72H367.088V67.1396C367.088 66.7523 367.031 66.4424 366.917 66.21C366.803 65.973 366.637 65.8021 366.418 65.6973C366.199 65.5879 365.93 65.5332 365.611 65.5332C365.297 65.5332 365.01 65.5993 364.75 65.7314C364.495 65.8636 364.274 66.0459 364.087 66.2783C363.905 66.5107 363.761 66.7773 363.656 67.0781C363.556 67.3743 363.506 67.6888 363.506 68.0215ZM375.072 64.6035H376.221V71.8428C376.221 72.4945 376.089 73.0505 375.824 73.5107C375.56 73.971 375.191 74.3197 374.717 74.5566C374.247 74.7982 373.705 74.9189 373.09 74.9189C372.835 74.9189 372.534 74.8779 372.188 74.7959C371.846 74.7184 371.508 74.584 371.176 74.3926C370.848 74.2057 370.572 73.9528 370.349 73.6338L371.012 72.8818C371.322 73.2555 371.645 73.5153 371.982 73.6611C372.324 73.807 372.661 73.8799 372.994 73.8799C373.395 73.8799 373.742 73.8047 374.033 73.6543C374.325 73.5039 374.55 73.2806 374.71 72.9844C374.874 72.6927 374.956 72.3327 374.956 71.9043V66.2305L375.072 64.6035ZM369.979 68.3838V68.2402C369.979 67.6751 370.046 67.1624 370.178 66.7021C370.314 66.2373 370.508 65.8385 370.759 65.5059C371.014 65.1732 371.322 64.918 371.682 64.7402C372.042 64.5579 372.447 64.4668 372.898 64.4668C373.363 64.4668 373.769 64.5488 374.115 64.7129C374.466 64.8724 374.762 65.1071 375.004 65.417C375.25 65.7223 375.444 66.0915 375.585 66.5244C375.726 66.9574 375.824 67.4473 375.879 67.9941V68.623C375.829 69.1654 375.731 69.653 375.585 70.0859C375.444 70.5189 375.25 70.888 375.004 71.1934C374.762 71.4987 374.466 71.7334 374.115 71.8975C373.764 72.057 373.354 72.1367 372.885 72.1367C372.443 72.1367 372.042 72.0433 371.682 71.8564C371.326 71.6696 371.021 71.4076 370.766 71.0703C370.51 70.7331 370.314 70.3366 370.178 69.8809C370.046 69.4206 369.979 68.9215 369.979 68.3838ZM371.244 68.2402V68.3838C371.244 68.7529 371.281 69.0993 371.354 69.4229C371.431 69.7464 371.547 70.0312 371.702 70.2773C371.862 70.5234 372.064 70.7171 372.311 70.8584C372.557 70.9951 372.851 71.0635 373.192 71.0635C373.612 71.0635 373.958 70.9746 374.231 70.7969C374.505 70.6191 374.721 70.3844 374.881 70.0928C375.045 69.8011 375.173 69.4844 375.264 69.1426V67.4951C375.214 67.2445 375.136 67.0029 375.031 66.7705C374.931 66.5335 374.799 66.3239 374.635 66.1416C374.475 65.9548 374.277 65.8066 374.04 65.6973C373.803 65.5879 373.525 65.5332 373.206 65.5332C372.86 65.5332 372.561 65.6061 372.311 65.752C372.064 65.8932 371.862 66.0892 371.702 66.3398C371.547 66.5859 371.431 66.873 371.354 67.2012C371.281 67.5247 371.244 67.8711 371.244 68.2402ZM382.934 64.6035H384.082V71.8428C384.082 72.4945 383.95 73.0505 383.686 73.5107C383.421 73.971 383.052 74.3197 382.578 74.5566C382.109 74.7982 381.566 74.9189 380.951 74.9189C380.696 74.9189 380.395 74.8779 380.049 74.7959C379.707 74.7184 379.37 74.584 379.037 74.3926C378.709 74.2057 378.433 73.9528 378.21 73.6338L378.873 72.8818C379.183 73.2555 379.507 73.5153 379.844 73.6611C380.186 73.807 380.523 73.8799 380.855 73.8799C381.257 73.8799 381.603 73.8047 381.895 73.6543C382.186 73.5039 382.412 73.2806 382.571 72.9844C382.735 72.6927 382.817 72.3327 382.817 71.9043V66.2305L382.934 64.6035ZM377.841 68.3838V68.2402C377.841 67.6751 377.907 67.1624 378.039 66.7021C378.176 66.2373 378.369 65.8385 378.62 65.5059C378.875 65.1732 379.183 64.918 379.543 64.7402C379.903 64.5579 380.309 64.4668 380.76 64.4668C381.225 64.4668 381.63 64.5488 381.977 64.7129C382.327 64.8724 382.624 65.1071 382.865 65.417C383.111 65.7223 383.305 66.0915 383.446 66.5244C383.588 66.9574 383.686 67.4473 383.74 67.9941V68.623C383.69 69.1654 383.592 69.653 383.446 70.0859C383.305 70.5189 383.111 70.888 382.865 71.1934C382.624 71.4987 382.327 71.7334 381.977 71.8975C381.626 72.057 381.215 72.1367 380.746 72.1367C380.304 72.1367 379.903 72.0433 379.543 71.8564C379.188 71.6696 378.882 71.4076 378.627 71.0703C378.372 70.7331 378.176 70.3366 378.039 69.8809C377.907 69.4206 377.841 68.9215 377.841 68.3838ZM379.105 68.2402V68.3838C379.105 68.7529 379.142 69.0993 379.215 69.4229C379.292 69.7464 379.409 70.0312 379.563 70.2773C379.723 70.5234 379.926 70.7171 380.172 70.8584C380.418 70.9951 380.712 71.0635 381.054 71.0635C381.473 71.0635 381.819 70.9746 382.093 70.7969C382.366 70.6191 382.583 70.3844 382.742 70.0928C382.906 69.8011 383.034 69.4844 383.125 69.1426V67.4951C383.075 67.2445 382.997 67.0029 382.893 66.7705C382.792 66.5335 382.66 66.3239 382.496 66.1416C382.337 65.9548 382.138 65.8066 381.901 65.6973C381.664 65.5879 381.386 65.5332 381.067 65.5332C380.721 65.5332 380.423 65.6061 380.172 65.752C379.926 65.8932 379.723 66.0892 379.563 66.3398C379.409 66.5859 379.292 66.873 379.215 67.2012C379.142 67.5247 379.105 67.8711 379.105 68.2402ZM390.364 70.7354V66.9277C390.364 66.6361 390.305 66.3831 390.187 66.1689C390.073 65.9502 389.899 65.7816 389.667 65.6631C389.435 65.5446 389.147 65.4854 388.806 65.4854C388.487 65.4854 388.206 65.54 387.965 65.6494C387.728 65.7588 387.541 65.9023 387.404 66.0801C387.272 66.2578 387.206 66.4492 387.206 66.6543H385.941C385.941 66.39 386.01 66.1279 386.146 65.8682C386.283 65.6084 386.479 65.3737 386.734 65.1641C386.994 64.9499 387.304 64.7812 387.664 64.6582C388.029 64.5306 388.434 64.4668 388.881 64.4668C389.419 64.4668 389.893 64.5579 390.303 64.7402C390.717 64.9225 391.041 65.1982 391.273 65.5674C391.51 65.932 391.629 66.39 391.629 66.9414V70.3867C391.629 70.6328 391.649 70.8949 391.69 71.1729C391.736 71.4508 391.802 71.6901 391.889 71.8906V72H390.569C390.506 71.8542 390.455 71.6605 390.419 71.4189C390.382 71.1729 390.364 70.945 390.364 70.7354ZM390.583 67.5156L390.597 68.4043H389.318C388.958 68.4043 388.637 68.4339 388.354 68.4932C388.072 68.5479 387.835 68.6322 387.644 68.7461C387.452 68.86 387.306 69.0036 387.206 69.1768C387.106 69.3454 387.056 69.5436 387.056 69.7715C387.056 70.0039 387.108 70.2158 387.213 70.4072C387.318 70.5986 387.475 70.7513 387.685 70.8652C387.899 70.9746 388.161 71.0293 388.471 71.0293C388.858 71.0293 389.2 70.9473 389.496 70.7832C389.792 70.6191 390.027 70.4186 390.2 70.1816C390.378 69.9447 390.474 69.7145 390.487 69.4912L391.027 70.0996C390.995 70.291 390.909 70.5029 390.768 70.7354C390.626 70.9678 390.437 71.1911 390.2 71.4053C389.968 71.6149 389.69 71.7904 389.366 71.9316C389.047 72.0684 388.687 72.1367 388.286 72.1367C387.785 72.1367 387.345 72.0387 386.967 71.8428C386.593 71.6468 386.301 71.3848 386.092 71.0566C385.887 70.724 385.784 70.3525 385.784 69.9424C385.784 69.5459 385.862 69.1973 386.017 68.8965C386.172 68.5911 386.395 68.3382 386.687 68.1377C386.978 67.9326 387.329 67.7777 387.739 67.6729C388.149 67.568 388.607 67.5156 389.113 67.5156H390.583ZM394.883 61.5V72H393.618V61.5H394.883ZM394.582 68.0215L394.056 68.001C394.06 67.4951 394.135 67.028 394.281 66.5996C394.427 66.1667 394.632 65.7907 394.896 65.4717C395.161 65.1527 395.475 64.9066 395.84 64.7334C396.209 64.5557 396.617 64.4668 397.063 64.4668C397.428 64.4668 397.756 64.5169 398.048 64.6172C398.34 64.7129 398.588 64.8678 398.793 65.082C399.003 65.2962 399.162 65.5742 399.271 65.916C399.381 66.2533 399.436 66.6657 399.436 67.1533V72H398.164V67.1396C398.164 66.7523 398.107 66.4424 397.993 66.21C397.879 65.973 397.713 65.8021 397.494 65.6973C397.275 65.5879 397.007 65.5332 396.688 65.5332C396.373 65.5332 396.086 65.5993 395.826 65.7314C395.571 65.8636 395.35 66.0459 395.163 66.2783C394.981 66.5107 394.837 66.7773 394.732 67.0781C394.632 67.3743 394.582 67.6888 394.582 68.0215ZM407.687 72H405.608L405.622 70.9268H407.687C408.397 70.9268 408.99 70.7786 409.464 70.4824C409.938 70.1816 410.293 69.7624 410.53 69.2246C410.772 68.6823 410.893 68.0488 410.893 67.3242V66.7158C410.893 66.1462 410.824 65.6403 410.688 65.1982C410.551 64.7516 410.35 64.3757 410.086 64.0703C409.822 63.7604 409.498 63.5257 409.115 63.3662C408.737 63.2067 408.302 63.127 407.81 63.127H405.567V62.0469H407.81C408.461 62.0469 409.056 62.1562 409.594 62.375C410.132 62.5892 410.594 62.9014 410.981 63.3115C411.373 63.7171 411.674 64.2093 411.884 64.7881C412.093 65.3623 412.198 66.0094 412.198 66.7295V67.3242C412.198 68.0443 412.093 68.6937 411.884 69.2725C411.674 69.8467 411.371 70.3366 410.975 70.7422C410.583 71.1478 410.109 71.46 409.553 71.6787C409.001 71.8929 408.379 72 407.687 72ZM406.312 62.0469V72H404.993V62.0469H406.312ZM418.351 70.7354V66.9277C418.351 66.6361 418.291 66.3831 418.173 66.1689C418.059 65.9502 417.886 65.7816 417.653 65.6631C417.421 65.5446 417.134 65.4854 416.792 65.4854C416.473 65.4854 416.193 65.54 415.951 65.6494C415.714 65.7588 415.527 65.9023 415.391 66.0801C415.258 66.2578 415.192 66.4492 415.192 66.6543H413.928C413.928 66.39 413.996 66.1279 414.133 65.8682C414.27 65.6084 414.465 65.3737 414.721 65.1641C414.98 64.9499 415.29 64.7812 415.65 64.6582C416.015 64.5306 416.421 64.4668 416.867 64.4668C417.405 64.4668 417.879 64.5579 418.289 64.7402C418.704 64.9225 419.027 65.1982 419.26 65.5674C419.497 65.932 419.615 66.39 419.615 66.9414V70.3867C419.615 70.6328 419.636 70.8949 419.677 71.1729C419.722 71.4508 419.788 71.6901 419.875 71.8906V72H418.556C418.492 71.8542 418.442 71.6605 418.405 71.4189C418.369 71.1729 418.351 70.945 418.351 70.7354ZM418.569 67.5156L418.583 68.4043H417.305C416.945 68.4043 416.623 68.4339 416.341 68.4932C416.058 68.5479 415.821 68.6322 415.63 68.7461C415.438 68.86 415.293 69.0036 415.192 69.1768C415.092 69.3454 415.042 69.5436 415.042 69.7715C415.042 70.0039 415.094 70.2158 415.199 70.4072C415.304 70.5986 415.461 70.7513 415.671 70.8652C415.885 70.9746 416.147 71.0293 416.457 71.0293C416.844 71.0293 417.186 70.9473 417.482 70.7832C417.779 70.6191 418.013 70.4186 418.187 70.1816C418.364 69.9447 418.46 69.7145 418.474 69.4912L419.014 70.0996C418.982 70.291 418.895 70.5029 418.754 70.7354C418.613 70.9678 418.424 71.1911 418.187 71.4053C417.954 71.6149 417.676 71.7904 417.353 71.9316C417.034 72.0684 416.674 72.1367 416.272 72.1367C415.771 72.1367 415.331 72.0387 414.953 71.8428C414.579 71.6468 414.288 71.3848 414.078 71.0566C413.873 70.724 413.771 70.3525 413.771 69.9424C413.771 69.5459 413.848 69.1973 414.003 68.8965C414.158 68.5911 414.381 68.3382 414.673 68.1377C414.965 67.9326 415.315 67.7777 415.726 67.6729C416.136 67.568 416.594 67.5156 417.1 67.5156H418.569ZM424.701 64.6035V65.5742H420.702V64.6035H424.701ZM422.056 62.8057H423.32V70.168C423.32 70.4186 423.359 70.6077 423.437 70.7354C423.514 70.863 423.614 70.9473 423.737 70.9883C423.86 71.0293 423.993 71.0498 424.134 71.0498C424.239 71.0498 424.348 71.0407 424.462 71.0225C424.58 70.9997 424.669 70.9814 424.729 70.9678L424.735 72C424.635 72.0319 424.503 72.0615 424.339 72.0889C424.179 72.1208 423.986 72.1367 423.758 72.1367C423.448 72.1367 423.163 72.0752 422.903 71.9521C422.644 71.8291 422.436 71.624 422.281 71.3369C422.131 71.0452 422.056 70.6533 422.056 70.1611V62.8057ZM430.546 70.7354V66.9277C430.546 66.6361 430.487 66.3831 430.368 66.1689C430.254 65.9502 430.081 65.7816 429.849 65.6631C429.616 65.5446 429.329 65.4854 428.987 65.4854C428.668 65.4854 428.388 65.54 428.146 65.6494C427.91 65.7588 427.723 65.9023 427.586 66.0801C427.454 66.2578 427.388 66.4492 427.388 66.6543H426.123C426.123 66.39 426.191 66.1279 426.328 65.8682C426.465 65.6084 426.661 65.3737 426.916 65.1641C427.176 64.9499 427.486 64.7812 427.846 64.6582C428.21 64.5306 428.616 64.4668 429.062 64.4668C429.6 64.4668 430.074 64.5579 430.484 64.7402C430.899 64.9225 431.223 65.1982 431.455 65.5674C431.692 65.932 431.811 66.39 431.811 66.9414V70.3867C431.811 70.6328 431.831 70.8949 431.872 71.1729C431.918 71.4508 431.984 71.6901 432.07 71.8906V72H430.751C430.687 71.8542 430.637 71.6605 430.601 71.4189C430.564 71.1729 430.546 70.945 430.546 70.7354ZM430.765 67.5156L430.778 68.4043H429.5C429.14 68.4043 428.819 68.4339 428.536 68.4932C428.254 68.5479 428.017 68.6322 427.825 68.7461C427.634 68.86 427.488 69.0036 427.388 69.1768C427.287 69.3454 427.237 69.5436 427.237 69.7715C427.237 70.0039 427.29 70.2158 427.395 70.4072C427.499 70.5986 427.657 70.7513 427.866 70.8652C428.08 70.9746 428.342 71.0293 428.652 71.0293C429.04 71.0293 429.382 70.9473 429.678 70.7832C429.974 70.6191 430.209 70.4186 430.382 70.1816C430.56 69.9447 430.655 69.7145 430.669 69.4912L431.209 70.0996C431.177 70.291 431.09 70.5029 430.949 70.7354C430.808 70.9678 430.619 71.1911 430.382 71.4053C430.149 71.6149 429.871 71.7904 429.548 71.9316C429.229 72.0684 428.869 72.1367 428.468 72.1367C427.966 72.1367 427.527 72.0387 427.148 71.8428C426.775 71.6468 426.483 71.3848 426.273 71.0566C426.068 70.724 425.966 70.3525 425.966 69.9424C425.966 69.5459 426.043 69.1973 426.198 68.8965C426.353 68.5911 426.576 68.3382 426.868 68.1377C427.16 67.9326 427.511 67.7777 427.921 67.6729C428.331 67.568 428.789 67.5156 429.295 67.5156H430.765Z" fill="#424242"/>
<rect x="528.75" width="40" height="40" rx="20" fill="#069550"/>
<path d="M553.936 21.9316V23.8066H543.682L543.604 22.3906L549.736 12.7812H551.621L549.58 16.2773L546.055 21.9316H553.936ZM552.158 12.7812V27H549.805V12.7812H552.158Z" fill="white"/>
<rect x="584.75" y="18" width="96.25" height="4" rx="2" fill="#EEEEEE"/>
<path d="M533.576 68.0967H530.917V67.0234H533.576C534.091 67.0234 534.508 66.9414 534.827 66.7773C535.146 66.6133 535.379 66.3854 535.524 66.0938C535.675 65.8021 535.75 65.4694 535.75 65.0957C535.75 64.7539 535.675 64.4326 535.524 64.1318C535.379 63.8311 535.146 63.5895 534.827 63.4072C534.508 63.2204 534.091 63.127 533.576 63.127H531.225V72H529.905V62.0469H533.576C534.328 62.0469 534.964 62.1768 535.483 62.4365C536.003 62.6963 536.397 63.0563 536.666 63.5166C536.935 63.9723 537.069 64.4941 537.069 65.082C537.069 65.7201 536.935 66.2646 536.666 66.7158C536.397 67.167 536.003 67.5111 535.483 67.748C534.964 67.9805 534.328 68.0967 533.576 68.0967ZM539.811 65.7656V72H538.546V64.6035H539.776L539.811 65.7656ZM542.121 64.5625L542.114 65.7383C542.009 65.7155 541.909 65.7018 541.813 65.6973C541.722 65.6882 541.618 65.6836 541.499 65.6836C541.207 65.6836 540.95 65.7292 540.727 65.8203C540.503 65.9115 540.314 66.0391 540.159 66.2031C540.004 66.3672 539.881 66.5632 539.79 66.791C539.703 67.0143 539.646 67.2604 539.619 67.5293L539.264 67.7344C539.264 67.2878 539.307 66.8685 539.394 66.4766C539.485 66.0846 539.624 65.7383 539.811 65.4375C539.997 65.1322 540.234 64.8952 540.521 64.7266C540.813 64.5534 541.16 64.4668 541.561 64.4668C541.652 64.4668 541.757 64.4782 541.875 64.501C541.993 64.5192 542.076 64.5397 542.121 64.5625ZM547.378 70.7354V66.9277C547.378 66.6361 547.319 66.3831 547.2 66.1689C547.086 65.9502 546.913 65.7816 546.681 65.6631C546.448 65.5446 546.161 65.4854 545.819 65.4854C545.5 65.4854 545.22 65.54 544.979 65.6494C544.742 65.7588 544.555 65.9023 544.418 66.0801C544.286 66.2578 544.22 66.4492 544.22 66.6543H542.955C542.955 66.39 543.023 66.1279 543.16 65.8682C543.297 65.6084 543.493 65.3737 543.748 65.1641C544.008 64.9499 544.318 64.7812 544.678 64.6582C545.042 64.5306 545.448 64.4668 545.895 64.4668C546.432 64.4668 546.906 64.5579 547.316 64.7402C547.731 64.9225 548.055 65.1982 548.287 65.5674C548.524 65.932 548.643 66.39 548.643 66.9414V70.3867C548.643 70.6328 548.663 70.8949 548.704 71.1729C548.75 71.4508 548.816 71.6901 548.902 71.8906V72H547.583C547.519 71.8542 547.469 71.6605 547.433 71.4189C547.396 71.1729 547.378 70.945 547.378 70.7354ZM547.597 67.5156L547.61 68.4043H546.332C545.972 68.4043 545.651 68.4339 545.368 68.4932C545.086 68.5479 544.849 68.6322 544.657 68.7461C544.466 68.86 544.32 69.0036 544.22 69.1768C544.119 69.3454 544.069 69.5436 544.069 69.7715C544.069 70.0039 544.122 70.2158 544.227 70.4072C544.331 70.5986 544.489 70.7513 544.698 70.8652C544.912 70.9746 545.174 71.0293 545.484 71.0293C545.872 71.0293 546.214 70.9473 546.51 70.7832C546.806 70.6191 547.041 70.4186 547.214 70.1816C547.392 69.9447 547.487 69.7145 547.501 69.4912L548.041 70.0996C548.009 70.291 547.923 70.5029 547.781 70.7354C547.64 70.9678 547.451 71.1911 547.214 71.4053C546.981 71.6149 546.703 71.7904 546.38 71.9316C546.061 72.0684 545.701 72.1367 545.3 72.1367C544.799 72.1367 544.359 72.0387 543.98 71.8428C543.607 71.6468 543.315 71.3848 543.105 71.0566C542.9 70.724 542.798 70.3525 542.798 69.9424C542.798 69.5459 542.875 69.1973 543.03 68.8965C543.185 68.5911 543.409 68.3382 543.7 68.1377C543.992 67.9326 544.343 67.7777 544.753 67.6729C545.163 67.568 545.621 67.5156 546.127 67.5156H547.597ZM553.729 64.6035V65.5742H549.729V64.6035H553.729ZM551.083 62.8057H552.348V70.168C552.348 70.4186 552.386 70.6077 552.464 70.7354C552.541 70.863 552.642 70.9473 552.765 70.9883C552.888 71.0293 553.02 71.0498 553.161 71.0498C553.266 71.0498 553.375 71.0407 553.489 71.0225C553.608 70.9997 553.697 70.9814 553.756 70.9678L553.763 72C553.662 72.0319 553.53 72.0615 553.366 72.0889C553.207 72.1208 553.013 72.1367 552.785 72.1367C552.475 72.1367 552.19 72.0752 551.931 71.9521C551.671 71.8291 551.464 71.624 551.309 71.3369C551.158 71.0452 551.083 70.6533 551.083 70.1611V62.8057ZM556.586 64.6035V72H555.314V64.6035H556.586ZM555.219 62.6416C555.219 62.4365 555.28 62.2633 555.403 62.1221C555.531 61.9808 555.718 61.9102 555.964 61.9102C556.205 61.9102 556.39 61.9808 556.518 62.1221C556.65 62.2633 556.716 62.4365 556.716 62.6416C556.716 62.8376 556.65 63.0062 556.518 63.1475C556.39 63.2842 556.205 63.3525 555.964 63.3525C555.718 63.3525 555.531 63.2842 555.403 63.1475C555.28 63.0062 555.219 62.8376 555.219 62.6416ZM559.881 66.1826V72H558.616V64.6035H559.812L559.881 66.1826ZM559.58 68.0215L559.054 68.001C559.058 67.4951 559.133 67.028 559.279 66.5996C559.425 66.1667 559.63 65.7907 559.895 65.4717C560.159 65.1527 560.473 64.9066 560.838 64.7334C561.207 64.5557 561.615 64.4668 562.062 64.4668C562.426 64.4668 562.754 64.5169 563.046 64.6172C563.338 64.7129 563.586 64.8678 563.791 65.082C564.001 65.2962 564.16 65.5742 564.27 65.916C564.379 66.2533 564.434 66.6657 564.434 67.1533V72H563.162V67.1396C563.162 66.7523 563.105 66.4424 562.991 66.21C562.877 65.973 562.711 65.8021 562.492 65.6973C562.273 65.5879 562.005 65.5332 561.686 65.5332C561.371 65.5332 561.084 65.5993 560.824 65.7314C560.569 65.8636 560.348 66.0459 560.161 66.2783C559.979 66.5107 559.835 66.7773 559.73 67.0781C559.63 67.3743 559.58 67.6888 559.58 68.0215ZM566.389 64.6035H567.66V72.8818C567.66 73.333 567.587 73.7158 567.441 74.0303C567.3 74.3447 567.086 74.5817 566.799 74.7412C566.516 74.9053 566.159 74.9873 565.726 74.9873C565.612 74.9873 565.479 74.9759 565.329 74.9531C565.174 74.9303 565.044 74.903 564.939 74.8711L564.946 73.8525C565.033 73.8708 565.131 73.8844 565.24 73.8936C565.35 73.9072 565.445 73.9141 565.527 73.9141C565.714 73.9141 565.871 73.8799 565.999 73.8115C566.127 73.7432 566.222 73.6338 566.286 73.4834C566.354 73.333 566.389 73.1325 566.389 72.8818V64.6035ZM566.259 62.6416C566.259 62.4365 566.323 62.2633 566.45 62.1221C566.578 61.9808 566.762 61.9102 567.004 61.9102C567.25 61.9102 567.437 61.9808 567.564 62.1221C567.692 62.2633 567.756 62.4365 567.756 62.6416C567.756 62.8376 567.692 63.0062 567.564 63.1475C567.437 63.2842 567.25 63.3525 567.004 63.3525C566.762 63.3525 566.578 63.2842 566.45 63.1475C566.323 63.0062 566.259 62.8376 566.259 62.6416ZM574.065 70.7354V66.9277C574.065 66.6361 574.006 66.3831 573.888 66.1689C573.774 65.9502 573.601 65.7816 573.368 65.6631C573.136 65.5446 572.849 65.4854 572.507 65.4854C572.188 65.4854 571.908 65.54 571.666 65.6494C571.429 65.7588 571.242 65.9023 571.105 66.0801C570.973 66.2578 570.907 66.4492 570.907 66.6543H569.643C569.643 66.39 569.711 66.1279 569.848 65.8682C569.984 65.6084 570.18 65.3737 570.436 65.1641C570.695 64.9499 571.005 64.7812 571.365 64.6582C571.73 64.5306 572.135 64.4668 572.582 64.4668C573.12 64.4668 573.594 64.5579 574.004 64.7402C574.419 64.9225 574.742 65.1982 574.975 65.5674C575.212 65.932 575.33 66.39 575.33 66.9414V70.3867C575.33 70.6328 575.351 70.8949 575.392 71.1729C575.437 71.4508 575.503 71.6901 575.59 71.8906V72H574.271C574.207 71.8542 574.157 71.6605 574.12 71.4189C574.084 71.1729 574.065 70.945 574.065 70.7354ZM574.284 67.5156L574.298 68.4043H573.02C572.66 68.4043 572.338 68.4339 572.056 68.4932C571.773 68.5479 571.536 68.6322 571.345 68.7461C571.153 68.86 571.007 69.0036 570.907 69.1768C570.807 69.3454 570.757 69.5436 570.757 69.7715C570.757 70.0039 570.809 70.2158 570.914 70.4072C571.019 70.5986 571.176 70.7513 571.386 70.8652C571.6 70.9746 571.862 71.0293 572.172 71.0293C572.559 71.0293 572.901 70.9473 573.197 70.7832C573.493 70.6191 573.728 70.4186 573.901 70.1816C574.079 69.9447 574.175 69.7145 574.188 69.4912L574.729 70.0996C574.697 70.291 574.61 70.5029 574.469 70.7354C574.327 70.9678 574.138 71.1911 573.901 71.4053C573.669 71.6149 573.391 71.7904 573.067 71.9316C572.748 72.0684 572.388 72.1367 571.987 72.1367C571.486 72.1367 571.046 72.0387 570.668 71.8428C570.294 71.6468 570.003 71.3848 569.793 71.0566C569.588 70.724 569.485 70.3525 569.485 69.9424C569.485 69.5459 569.563 69.1973 569.718 68.8965C569.873 68.5911 570.096 68.3382 570.388 68.1377C570.679 67.9326 571.03 67.7777 571.44 67.6729C571.851 67.568 572.309 67.5156 572.814 67.5156H574.284ZM581.845 70.291V64.6035H583.116V72H581.906L581.845 70.291ZM582.084 68.7324L582.61 68.7188C582.61 69.2109 582.558 69.6667 582.453 70.0859C582.353 70.5007 582.189 70.8607 581.961 71.166C581.733 71.4714 581.435 71.7106 581.065 71.8838C580.696 72.0524 580.247 72.1367 579.719 72.1367C579.359 72.1367 579.028 72.0843 578.728 71.9795C578.431 71.8747 578.176 71.7129 577.962 71.4941C577.748 71.2754 577.581 70.9906 577.463 70.6396C577.349 70.2887 577.292 69.8672 577.292 69.375V64.6035H578.557V69.3887C578.557 69.7214 578.593 69.9971 578.666 70.2158C578.743 70.43 578.846 70.6009 578.974 70.7285C579.106 70.8516 579.252 70.9382 579.411 70.9883C579.575 71.0384 579.744 71.0635 579.917 71.0635C580.455 71.0635 580.881 70.9609 581.195 70.7559C581.51 70.5462 581.735 70.266 581.872 69.915C582.013 69.5596 582.084 69.1654 582.084 68.7324ZM591.401 72H589.323L589.337 70.9268H591.401C592.112 70.9268 592.705 70.7786 593.179 70.4824C593.653 70.1816 594.008 69.7624 594.245 69.2246C594.487 68.6823 594.607 68.0488 594.607 67.3242V66.7158C594.607 66.1462 594.539 65.6403 594.402 65.1982C594.266 64.7516 594.065 64.3757 593.801 64.0703C593.536 63.7604 593.213 63.5257 592.83 63.3662C592.452 63.2067 592.017 63.127 591.524 63.127H589.282V62.0469H591.524C592.176 62.0469 592.771 62.1562 593.309 62.375C593.846 62.5892 594.309 62.9014 594.696 63.3115C595.088 63.7171 595.389 64.2093 595.599 64.7881C595.808 65.3623 595.913 66.0094 595.913 66.7295V67.3242C595.913 68.0443 595.808 68.6937 595.599 69.2725C595.389 69.8467 595.086 70.3366 594.689 70.7422C594.298 71.1478 593.824 71.46 593.268 71.6787C592.716 71.8929 592.094 72 591.401 72ZM590.027 62.0469V72H588.708V62.0469H590.027ZM602.065 70.7354V66.9277C602.065 66.6361 602.006 66.3831 601.888 66.1689C601.774 65.9502 601.601 65.7816 601.368 65.6631C601.136 65.5446 600.849 65.4854 600.507 65.4854C600.188 65.4854 599.908 65.54 599.666 65.6494C599.429 65.7588 599.242 65.9023 599.105 66.0801C598.973 66.2578 598.907 66.4492 598.907 66.6543H597.643C597.643 66.39 597.711 66.1279 597.848 65.8682C597.984 65.6084 598.18 65.3737 598.436 65.1641C598.695 64.9499 599.005 64.7812 599.365 64.6582C599.73 64.5306 600.135 64.4668 600.582 64.4668C601.12 64.4668 601.594 64.5579 602.004 64.7402C602.419 64.9225 602.742 65.1982 602.975 65.5674C603.212 65.932 603.33 66.39 603.33 66.9414V70.3867C603.33 70.6328 603.351 70.8949 603.392 71.1729C603.437 71.4508 603.503 71.6901 603.59 71.8906V72H602.271C602.207 71.8542 602.157 71.6605 602.12 71.4189C602.084 71.1729 602.065 70.945 602.065 70.7354ZM602.284 67.5156L602.298 68.4043H601.02C600.66 68.4043 600.338 68.4339 600.056 68.4932C599.773 68.5479 599.536 68.6322 599.345 68.7461C599.153 68.86 599.007 69.0036 598.907 69.1768C598.807 69.3454 598.757 69.5436 598.757 69.7715C598.757 70.0039 598.809 70.2158 598.914 70.4072C599.019 70.5986 599.176 70.7513 599.386 70.8652C599.6 70.9746 599.862 71.0293 600.172 71.0293C600.559 71.0293 600.901 70.9473 601.197 70.7832C601.493 70.6191 601.728 70.4186 601.901 70.1816C602.079 69.9447 602.175 69.7145 602.188 69.4912L602.729 70.0996C602.697 70.291 602.61 70.5029 602.469 70.7354C602.327 70.9678 602.138 71.1911 601.901 71.4053C601.669 71.6149 601.391 71.7904 601.067 71.9316C600.748 72.0684 600.388 72.1367 599.987 72.1367C599.486 72.1367 599.046 72.0387 598.668 71.8428C598.294 71.6468 598.003 71.3848 597.793 71.0566C597.588 70.724 597.485 70.3525 597.485 69.9424C597.485 69.5459 597.563 69.1973 597.718 68.8965C597.873 68.5911 598.096 68.3382 598.388 68.1377C598.679 67.9326 599.03 67.7777 599.44 67.6729C599.851 67.568 600.309 67.5156 600.814 67.5156H602.284ZM608.416 64.6035V65.5742H604.417V64.6035H608.416ZM605.771 62.8057H607.035V70.168C607.035 70.4186 607.074 70.6077 607.151 70.7354C607.229 70.863 607.329 70.9473 607.452 70.9883C607.575 71.0293 607.707 71.0498 607.849 71.0498C607.953 71.0498 608.063 71.0407 608.177 71.0225C608.295 70.9997 608.384 70.9814 608.443 70.9678L608.45 72C608.35 72.0319 608.218 72.0615 608.054 72.0889C607.894 72.1208 607.701 72.1367 607.473 72.1367C607.163 72.1367 606.878 72.0752 606.618 71.9521C606.358 71.8291 606.151 71.624 605.996 71.3369C605.846 71.0452 605.771 70.6533 605.771 70.1611V62.8057ZM614.261 70.7354V66.9277C614.261 66.6361 614.201 66.3831 614.083 66.1689C613.969 65.9502 613.796 65.7816 613.563 65.6631C613.331 65.5446 613.044 65.4854 612.702 65.4854C612.383 65.4854 612.103 65.54 611.861 65.6494C611.624 65.7588 611.438 65.9023 611.301 66.0801C611.169 66.2578 611.103 66.4492 611.103 66.6543H609.838C609.838 66.39 609.906 66.1279 610.043 65.8682C610.18 65.6084 610.376 65.3737 610.631 65.1641C610.891 64.9499 611.201 64.7812 611.561 64.6582C611.925 64.5306 612.331 64.4668 612.777 64.4668C613.315 64.4668 613.789 64.5579 614.199 64.7402C614.614 64.9225 614.938 65.1982 615.17 65.5674C615.407 65.932 615.525 66.39 615.525 66.9414V70.3867C615.525 70.6328 615.546 70.8949 615.587 71.1729C615.632 71.4508 615.699 71.6901 615.785 71.8906V72H614.466C614.402 71.8542 614.352 71.6605 614.315 71.4189C614.279 71.1729 614.261 70.945 614.261 70.7354ZM614.479 67.5156L614.493 68.4043H613.215C612.855 68.4043 612.534 68.4339 612.251 68.4932C611.968 68.5479 611.731 68.6322 611.54 68.7461C611.349 68.86 611.203 69.0036 611.103 69.1768C611.002 69.3454 610.952 69.5436 610.952 69.7715C610.952 70.0039 611.005 70.2158 611.109 70.4072C611.214 70.5986 611.371 70.7513 611.581 70.8652C611.795 70.9746 612.057 71.0293 612.367 71.0293C612.755 71.0293 613.096 70.9473 613.393 70.7832C613.689 70.6191 613.924 70.4186 614.097 70.1816C614.274 69.9447 614.37 69.7145 614.384 69.4912L614.924 70.0996C614.892 70.291 614.805 70.5029 614.664 70.7354C614.523 70.9678 614.334 71.1911 614.097 71.4053C613.864 71.6149 613.586 71.7904 613.263 71.9316C612.944 72.0684 612.584 72.1367 612.183 72.1367C611.681 72.1367 611.242 72.0387 610.863 71.8428C610.49 71.6468 610.198 71.3848 609.988 71.0566C609.783 70.724 609.681 70.3525 609.681 69.9424C609.681 69.5459 609.758 69.1973 609.913 68.8965C610.068 68.5911 610.291 68.3382 610.583 68.1377C610.875 67.9326 611.226 67.7777 611.636 67.6729C612.046 67.568 612.504 67.5156 613.01 67.5156H614.479Z" fill="#424242"/>
<rect x="705.5" y="0.5" width="39" height="39" rx="19.5" fill="white"/>
<path d="M722.861 20.3887L720.986 19.9297L721.758 12.7812H729.424V14.7734H723.711L723.32 18.2598C723.542 18.1296 723.848 18.0026 724.238 17.8789C724.629 17.7487 725.075 17.6836 725.576 17.6836C726.247 17.6836 726.846 17.7943 727.373 18.0156C727.907 18.2305 728.359 18.5462 728.73 18.9629C729.102 19.373 729.385 19.8743 729.58 20.4668C729.775 21.0527 729.873 21.7135 729.873 22.4492C729.873 23.1068 729.775 23.722 729.58 24.2949C729.391 24.8678 729.105 25.3724 728.721 25.8086C728.337 26.2448 727.852 26.5866 727.266 26.834C726.686 27.0749 725.999 27.1953 725.205 27.1953C724.613 27.1953 724.043 27.1107 723.496 26.9414C722.956 26.7656 722.471 26.5085 722.041 26.1699C721.611 25.8249 721.266 25.4017 721.006 24.9004C720.745 24.3926 720.596 23.8099 720.557 23.1523H722.861C722.92 23.6146 723.047 24.0085 723.242 24.334C723.444 24.653 723.711 24.8971 724.043 25.0664C724.375 25.2357 724.759 25.3203 725.195 25.3203C725.592 25.3203 725.934 25.252 726.221 25.1152C726.507 24.972 726.745 24.7702 726.934 24.5098C727.129 24.2428 727.272 23.9303 727.363 23.5723C727.461 23.2142 727.51 22.8171 727.51 22.3809C727.51 21.9642 727.454 21.5833 727.344 21.2383C727.24 20.8932 727.08 20.5938 726.865 20.3398C726.657 20.0859 726.393 19.8906 726.074 19.7539C725.755 19.6107 725.387 19.5391 724.971 19.5391C724.411 19.5391 723.981 19.6204 723.682 19.7832C723.389 19.946 723.115 20.1478 722.861 20.3887Z" fill="#BDBDBD"/>
<rect x="705.5" y="0.5" width="39" height="39" rx="19.5" stroke="#E0E0E0"/>
<path d="M711.46 69.4844C711.46 69.252 711.424 69.0469 711.351 68.8691C711.282 68.6868 711.159 68.5228 710.981 68.377C710.808 68.2311 710.567 68.0921 710.257 67.96C709.951 67.8278 709.564 67.6934 709.095 67.5566C708.603 67.4108 708.158 67.249 707.762 67.0713C707.365 66.889 707.026 66.6816 706.743 66.4492C706.461 66.2168 706.244 65.9502 706.094 65.6494C705.943 65.3486 705.868 65.0046 705.868 64.6172C705.868 64.2298 705.948 63.8721 706.107 63.5439C706.267 63.2158 706.495 62.931 706.791 62.6895C707.092 62.4434 707.45 62.252 707.864 62.1152C708.279 61.9785 708.742 61.9102 709.252 61.9102C709.999 61.9102 710.633 62.0537 711.152 62.3408C711.676 62.6234 712.075 62.9948 712.349 63.4551C712.622 63.9108 712.759 64.3984 712.759 64.918H711.446C711.446 64.5443 711.367 64.2139 711.207 63.9268C711.048 63.6351 710.806 63.4072 710.482 63.2432C710.159 63.0745 709.749 62.9902 709.252 62.9902C708.783 62.9902 708.395 63.0609 708.09 63.2021C707.785 63.3434 707.557 63.5348 707.406 63.7764C707.26 64.0179 707.188 64.2936 707.188 64.6035C707.188 64.8132 707.231 65.0046 707.317 65.1777C707.409 65.3464 707.548 65.5036 707.734 65.6494C707.926 65.7952 708.167 65.9297 708.459 66.0527C708.755 66.1758 709.108 66.2943 709.519 66.4082C710.084 66.5677 710.571 66.7454 710.981 66.9414C711.392 67.1374 711.729 67.3584 711.993 67.6045C712.262 67.846 712.46 68.1217 712.588 68.4316C712.72 68.737 712.786 69.0833 712.786 69.4707C712.786 69.8763 712.704 70.2432 712.54 70.5713C712.376 70.8994 712.141 71.1797 711.836 71.4121C711.531 71.6445 711.164 71.8245 710.735 71.9521C710.312 72.0752 709.838 72.1367 709.313 72.1367C708.853 72.1367 708.4 72.0729 707.953 71.9453C707.511 71.8177 707.108 71.6263 706.743 71.3711C706.383 71.1159 706.094 70.8014 705.875 70.4277C705.661 70.0495 705.554 69.612 705.554 69.1152H706.866C706.866 69.457 706.932 69.751 707.064 69.9971C707.197 70.2386 707.377 70.4391 707.604 70.5986C707.837 70.7581 708.099 70.8766 708.391 70.9541C708.687 71.027 708.994 71.0635 709.313 71.0635C709.774 71.0635 710.163 70.9997 710.482 70.8721C710.801 70.7445 711.043 70.5622 711.207 70.3252C711.376 70.0882 711.46 69.8079 711.46 69.4844ZM717.346 72.1367C716.831 72.1367 716.364 72.0501 715.944 71.877C715.53 71.6992 715.172 71.4508 714.871 71.1318C714.575 70.8128 714.347 70.4346 714.188 69.9971C714.028 69.5596 713.948 69.0811 713.948 68.5615V68.2744C713.948 67.6729 714.037 67.1374 714.215 66.668C714.393 66.194 714.634 65.793 714.939 65.4648C715.245 65.1367 715.591 64.8883 715.979 64.7197C716.366 64.5511 716.767 64.4668 717.182 64.4668C717.71 64.4668 718.166 64.5579 718.549 64.7402C718.936 64.9225 719.253 65.1777 719.499 65.5059C719.745 65.8294 719.927 66.2122 720.046 66.6543C720.164 67.0918 720.224 67.5703 720.224 68.0898V68.6572H714.7V67.625H718.959V67.5293C718.941 67.2012 718.872 66.8822 718.754 66.5723C718.64 66.2624 718.458 66.0072 718.207 65.8066C717.956 65.6061 717.615 65.5059 717.182 65.5059C716.895 65.5059 716.63 65.5674 716.389 65.6904C716.147 65.8089 715.94 65.9867 715.767 66.2236C715.593 66.4606 715.459 66.75 715.363 67.0918C715.268 67.4336 715.22 67.8278 715.22 68.2744V68.5615C715.22 68.9124 715.268 69.2428 715.363 69.5527C715.464 69.8581 715.607 70.127 715.794 70.3594C715.985 70.5918 716.215 70.7741 716.484 70.9062C716.758 71.0384 717.068 71.1045 717.414 71.1045C717.861 71.1045 718.239 71.0133 718.549 70.8311C718.859 70.6488 719.13 70.4049 719.362 70.0996L720.128 70.708C719.968 70.9495 719.766 71.1797 719.52 71.3984C719.273 71.6172 718.97 71.7949 718.61 71.9316C718.255 72.0684 717.833 72.1367 717.346 72.1367ZM723.074 61.5V72H721.803V61.5H723.074ZM728.174 72.1367C727.659 72.1367 727.192 72.0501 726.772 71.877C726.358 71.6992 726 71.4508 725.699 71.1318C725.403 70.8128 725.175 70.4346 725.016 69.9971C724.856 69.5596 724.776 69.0811 724.776 68.5615V68.2744C724.776 67.6729 724.865 67.1374 725.043 66.668C725.221 66.194 725.462 65.793 725.768 65.4648C726.073 65.1367 726.419 64.8883 726.807 64.7197C727.194 64.5511 727.595 64.4668 728.01 64.4668C728.538 64.4668 728.994 64.5579 729.377 64.7402C729.764 64.9225 730.081 65.1777 730.327 65.5059C730.573 65.8294 730.756 66.2122 730.874 66.6543C730.993 67.0918 731.052 67.5703 731.052 68.0898V68.6572H725.528V67.625H729.787V67.5293C729.769 67.2012 729.701 66.8822 729.582 66.5723C729.468 66.2624 729.286 66.0072 729.035 65.8066C728.785 65.6061 728.443 65.5059 728.01 65.5059C727.723 65.5059 727.458 65.5674 727.217 65.6904C726.975 65.8089 726.768 65.9867 726.595 66.2236C726.422 66.4606 726.287 66.75 726.191 67.0918C726.096 67.4336 726.048 67.8278 726.048 68.2744V68.5615C726.048 68.9124 726.096 69.2428 726.191 69.5527C726.292 69.8581 726.435 70.127 726.622 70.3594C726.813 70.5918 727.044 70.7741 727.312 70.9062C727.586 71.0384 727.896 71.1045 728.242 71.1045C728.689 71.1045 729.067 71.0133 729.377 70.8311C729.687 70.6488 729.958 70.4049 730.19 70.0996L730.956 70.708C730.797 70.9495 730.594 71.1797 730.348 71.3984C730.102 71.6172 729.799 71.7949 729.438 71.9316C729.083 72.0684 728.661 72.1367 728.174 72.1367ZM736.835 70.0381C736.835 69.8558 736.794 69.6872 736.712 69.5322C736.634 69.3727 736.473 69.2292 736.227 69.1016C735.985 68.9694 735.62 68.8555 735.133 68.7598C734.723 68.6732 734.351 68.5706 734.019 68.4521C733.69 68.3337 733.41 68.1901 733.178 68.0215C732.95 67.8529 732.774 67.6546 732.651 67.4268C732.528 67.1989 732.467 66.9323 732.467 66.627C732.467 66.3353 732.531 66.0596 732.658 65.7998C732.79 65.54 732.975 65.3099 733.212 65.1094C733.453 64.9089 733.743 64.7516 734.08 64.6377C734.417 64.5238 734.793 64.4668 735.208 64.4668C735.8 64.4668 736.306 64.5716 736.726 64.7812C737.145 64.9909 737.466 65.2712 737.689 65.6221C737.913 65.9684 738.024 66.3535 738.024 66.7773H736.76C736.76 66.5723 736.698 66.374 736.575 66.1826C736.457 65.9867 736.281 65.8249 736.049 65.6973C735.821 65.5697 735.541 65.5059 735.208 65.5059C734.857 65.5059 734.572 65.5605 734.354 65.6699C734.139 65.7747 733.982 65.9092 733.882 66.0732C733.786 66.2373 733.738 66.4105 733.738 66.5928C733.738 66.7295 733.761 66.8525 733.807 66.9619C733.857 67.0667 733.943 67.1647 734.066 67.2559C734.189 67.3424 734.363 67.4245 734.586 67.502C734.809 67.5794 735.094 67.6569 735.44 67.7344C736.047 67.8711 736.546 68.0352 736.938 68.2266C737.329 68.418 737.621 68.6527 737.812 68.9307C738.004 69.2087 738.1 69.5459 738.1 69.9424C738.1 70.266 738.031 70.5622 737.895 70.8311C737.762 71.0999 737.569 71.3324 737.313 71.5283C737.063 71.7197 736.762 71.8701 736.411 71.9795C736.065 72.0843 735.675 72.1367 735.242 72.1367C734.59 72.1367 734.039 72.0205 733.588 71.7881C733.137 71.5557 732.795 71.2549 732.562 70.8857C732.33 70.5166 732.214 70.127 732.214 69.7168H733.485C733.504 70.0632 733.604 70.3389 733.786 70.5439C733.968 70.7445 734.192 70.888 734.456 70.9746C734.72 71.0566 734.982 71.0977 735.242 71.0977C735.589 71.0977 735.878 71.0521 736.11 70.9609C736.347 70.8698 736.527 70.7445 736.65 70.585C736.773 70.4255 736.835 70.2432 736.835 70.0381ZM744.122 70.7354V66.9277C744.122 66.6361 744.063 66.3831 743.944 66.1689C743.83 65.9502 743.657 65.7816 743.425 65.6631C743.192 65.5446 742.905 65.4854 742.563 65.4854C742.244 65.4854 741.964 65.54 741.723 65.6494C741.486 65.7588 741.299 65.9023 741.162 66.0801C741.03 66.2578 740.964 66.4492 740.964 66.6543H739.699C739.699 66.39 739.768 66.1279 739.904 65.8682C740.041 65.6084 740.237 65.3737 740.492 65.1641C740.752 64.9499 741.062 64.7812 741.422 64.6582C741.786 64.5306 742.192 64.4668 742.639 64.4668C743.176 64.4668 743.65 64.5579 744.061 64.7402C744.475 64.9225 744.799 65.1982 745.031 65.5674C745.268 65.932 745.387 66.39 745.387 66.9414V70.3867C745.387 70.6328 745.407 70.8949 745.448 71.1729C745.494 71.4508 745.56 71.6901 745.646 71.8906V72H744.327C744.263 71.8542 744.213 71.6605 744.177 71.4189C744.14 71.1729 744.122 70.945 744.122 70.7354ZM744.341 67.5156L744.354 68.4043H743.076C742.716 68.4043 742.395 68.4339 742.112 68.4932C741.83 68.5479 741.593 68.6322 741.401 68.7461C741.21 68.86 741.064 69.0036 740.964 69.1768C740.864 69.3454 740.813 69.5436 740.813 69.7715C740.813 70.0039 740.866 70.2158 740.971 70.4072C741.076 70.5986 741.233 70.7513 741.442 70.8652C741.657 70.9746 741.919 71.0293 742.229 71.0293C742.616 71.0293 742.958 70.9473 743.254 70.7832C743.55 70.6191 743.785 70.4186 743.958 70.1816C744.136 69.9447 744.231 69.7145 744.245 69.4912L744.785 70.0996C744.753 70.291 744.667 70.5029 744.525 70.7354C744.384 70.9678 744.195 71.1911 743.958 71.4053C743.726 71.6149 743.448 71.7904 743.124 71.9316C742.805 72.0684 742.445 72.1367 742.044 72.1367C741.543 72.1367 741.103 72.0387 740.725 71.8428C740.351 71.6468 740.059 71.3848 739.85 71.0566C739.645 70.724 739.542 70.3525 739.542 69.9424C739.542 69.5459 739.619 69.1973 739.774 68.8965C739.929 68.5911 740.153 68.3382 740.444 68.1377C740.736 67.9326 741.087 67.7777 741.497 67.6729C741.907 67.568 742.365 67.5156 742.871 67.5156H744.341ZM748.75 64.6035V72H747.479V64.6035H748.75ZM747.383 62.6416C747.383 62.4365 747.444 62.2633 747.567 62.1221C747.695 61.9808 747.882 61.9102 748.128 61.9102C748.369 61.9102 748.554 61.9808 748.682 62.1221C748.814 62.2633 748.88 62.4365 748.88 62.6416C748.88 62.8376 748.814 63.0062 748.682 63.1475C748.554 63.2842 748.369 63.3525 748.128 63.3525C747.882 63.3525 747.695 63.2842 747.567 63.1475C747.444 63.0062 747.383 62.8376 747.383 62.6416Z" fill="#757575"/>
<defs>
<clipPath id="clip0_5237_163002">
<rect width="16" height="16" fill="white" transform="translate(12 12)"/>
</clipPath>
<clipPath id="clip1_5237_163002">
<rect width="16" height="16" fill="white" transform="translate(188.25 12)"/>
</clipPath>
<clipPath id="clip2_5237_163002">
<rect width="16" height="16" fill="white" transform="translate(364.5 12)"/>
</clipPath>
</defs>
</svg>
