<svg width="750" height="79" viewBox="0 0 750 79" fill="none" xmlns="http://www.w3.org/2000/svg">
<rect width="40" height="40" rx="20" fill="#069550"/>
<path d="M21.8164 12.7324V27H19.4629V15.5254L15.9766 16.707V14.7637L21.5332 12.7324H21.8164Z" fill="white"/>
<rect x="56" y="18" width="69" height="4" rx="2" fill="#EEEEEE"/>
<path d="M2.57031 62.0469V72H1.25098V62.0469H2.57031ZM9.44043 70.5645V61.5H10.7119V72H9.5498L9.44043 70.5645ZM4.46387 68.3838V68.2402C4.46387 67.6751 4.53223 67.1624 4.66895 66.7021C4.81022 66.2373 5.00846 65.8385 5.26367 65.5059C5.52344 65.1732 5.83105 64.918 6.18652 64.7402C6.54655 64.5579 6.94759 64.4668 7.38965 64.4668C7.85449 64.4668 8.26009 64.5488 8.60645 64.7129C8.95736 64.8724 9.25358 65.1071 9.49512 65.417C9.74121 65.7223 9.9349 66.0915 10.0762 66.5244C10.2174 66.9574 10.3154 67.4473 10.3701 67.9941V68.623C10.32 69.1654 10.222 69.653 10.0762 70.0859C9.9349 70.5189 9.74121 70.888 9.49512 71.1934C9.25358 71.4987 8.95736 71.7334 8.60645 71.8975C8.25553 72.057 7.84538 72.1367 7.37598 72.1367C6.94303 72.1367 6.54655 72.0433 6.18652 71.8564C5.83105 71.6696 5.52344 71.4076 5.26367 71.0703C5.00846 70.7331 4.81022 70.3366 4.66895 69.8809C4.53223 69.4206 4.46387 68.9215 4.46387 68.3838ZM5.73535 68.2402V68.3838C5.73535 68.7529 5.77181 69.0993 5.84473 69.4229C5.9222 69.7464 6.04069 70.0312 6.2002 70.2773C6.3597 70.5234 6.5625 70.7171 6.80859 70.8584C7.05469 70.9951 7.34863 71.0635 7.69043 71.0635C8.1097 71.0635 8.45378 70.9746 8.72266 70.7969C8.99609 70.6191 9.21484 70.3844 9.37891 70.0928C9.54297 69.8011 9.67057 69.4844 9.76172 69.1426V67.4951C9.70703 67.2445 9.62728 67.0029 9.52246 66.7705C9.4222 66.5335 9.29004 66.3239 9.12598 66.1416C8.96647 65.9548 8.76823 65.8066 8.53125 65.6973C8.29883 65.5879 8.02311 65.5332 7.7041 65.5332C7.35775 65.5332 7.05924 65.6061 6.80859 65.752C6.5625 65.8932 6.3597 66.0892 6.2002 66.3398C6.04069 66.5859 5.9222 66.873 5.84473 67.2012C5.77181 67.5247 5.73535 67.8711 5.73535 68.2402ZM15.75 72.1367C15.235 72.1367 14.7679 72.0501 14.3486 71.877C13.9339 71.6992 13.5762 71.4508 13.2754 71.1318C12.9792 70.8128 12.7513 70.4346 12.5918 69.9971C12.4323 69.5596 12.3525 69.0811 12.3525 68.5615V68.2744C12.3525 67.6729 12.4414 67.1374 12.6191 66.668C12.7969 66.194 13.0384 65.793 13.3438 65.4648C13.6491 65.1367 13.9954 64.8883 14.3828 64.7197C14.7702 64.5511 15.1712 64.4668 15.5859 64.4668C16.1146 64.4668 16.5703 64.5579 16.9531 64.7402C17.3405 64.9225 17.6572 65.1777 17.9033 65.5059C18.1494 65.8294 18.3317 66.2122 18.4502 66.6543C18.5687 67.0918 18.6279 67.5703 18.6279 68.0898V68.6572H13.1045V67.625H17.3633V67.5293C17.3451 67.2012 17.2767 66.8822 17.1582 66.5723C17.0443 66.2624 16.862 66.0072 16.6113 65.8066C16.3607 65.6061 16.0189 65.5059 15.5859 65.5059C15.2988 65.5059 15.0345 65.5674 14.793 65.6904C14.5514 65.8089 14.3441 65.9867 14.1709 66.2236C13.9977 66.4606 13.8633 66.75 13.7676 67.0918C13.6719 67.4336 13.624 67.8278 13.624 68.2744V68.5615C13.624 68.9124 13.6719 69.2428 13.7676 69.5527C13.8678 69.8581 14.0114 70.127 14.1982 70.3594C14.3896 70.5918 14.6198 70.7741 14.8887 70.9062C15.1621 71.0384 15.472 71.1045 15.8184 71.1045C16.265 71.1045 16.6432 71.0133 16.9531 70.8311C17.263 70.6488 17.5342 70.4049 17.7666 70.0996L18.5322 70.708C18.3727 70.9495 18.1699 71.1797 17.9238 71.3984C17.6777 71.6172 17.3747 71.7949 17.0146 71.9316C16.6592 72.0684 16.2376 72.1367 15.75 72.1367ZM21.3691 66.1826V72H20.1045V64.6035H21.3008L21.3691 66.1826ZM21.0684 68.0215L20.542 68.001C20.5465 67.4951 20.6217 67.028 20.7676 66.5996C20.9134 66.1667 21.1185 65.7907 21.3828 65.4717C21.6471 65.1527 21.9616 64.9066 22.3262 64.7334C22.6953 64.5557 23.1032 64.4668 23.5498 64.4668C23.9144 64.4668 24.2425 64.5169 24.5342 64.6172C24.8258 64.7129 25.0742 64.8678 25.2793 65.082C25.4889 65.2962 25.6484 65.5742 25.7578 65.916C25.8672 66.2533 25.9219 66.6657 25.9219 67.1533V72H24.6504V67.1396C24.6504 66.7523 24.5934 66.4424 24.4795 66.21C24.3656 65.973 24.1992 65.8021 23.9805 65.6973C23.7617 65.5879 23.4928 65.5332 23.1738 65.5332C22.8594 65.5332 22.5723 65.5993 22.3125 65.7314C22.0573 65.8636 21.8363 66.0459 21.6494 66.2783C21.4671 66.5107 21.3236 66.7773 21.2188 67.0781C21.1185 67.3743 21.0684 67.6888 21.0684 68.0215ZM30.9395 64.6035V65.5742H26.9404V64.6035H30.9395ZM28.2939 62.8057H29.5586V70.168C29.5586 70.4186 29.5973 70.6077 29.6748 70.7354C29.7523 70.863 29.8525 70.9473 29.9756 70.9883C30.0986 71.0293 30.2308 71.0498 30.3721 71.0498C30.4769 71.0498 30.5863 71.0407 30.7002 71.0225C30.8187 70.9997 30.9076 70.9814 30.9668 70.9678L30.9736 72C30.8734 72.0319 30.7412 72.0615 30.5771 72.0889C30.4176 72.1208 30.224 72.1367 29.9961 72.1367C29.6862 72.1367 29.4014 72.0752 29.1416 71.9521C28.8818 71.8291 28.6745 71.624 28.5195 71.3369C28.3691 71.0452 28.2939 70.6533 28.2939 70.1611V62.8057ZM33.7969 64.6035V72H32.5254V64.6035H33.7969ZM32.4297 62.6416C32.4297 62.4365 32.4912 62.2633 32.6143 62.1221C32.7419 61.9808 32.9287 61.9102 33.1748 61.9102C33.4163 61.9102 33.6009 61.9808 33.7285 62.1221C33.8607 62.2633 33.9268 62.4365 33.9268 62.6416C33.9268 62.8376 33.8607 63.0062 33.7285 63.1475C33.6009 63.2842 33.4163 63.3525 33.1748 63.3525C32.9287 63.3525 32.7419 63.2842 32.6143 63.1475C32.4912 63.0062 32.4297 62.8376 32.4297 62.6416ZM38.9238 64.6035V65.5742H34.9248V64.6035H38.9238ZM36.2783 62.8057H37.543V70.168C37.543 70.4186 37.5817 70.6077 37.6592 70.7354C37.7367 70.863 37.8369 70.9473 37.96 70.9883C38.083 71.0293 38.2152 71.0498 38.3564 71.0498C38.4613 71.0498 38.5706 71.0407 38.6846 71.0225C38.8031 70.9997 38.8919 70.9814 38.9512 70.9678L38.958 72C38.8577 72.0319 38.7256 72.0615 38.5615 72.0889C38.402 72.1208 38.2083 72.1367 37.9805 72.1367C37.6706 72.1367 37.3857 72.0752 37.126 71.9521C36.8662 71.8291 36.6589 71.624 36.5039 71.3369C36.3535 71.0452 36.2783 70.6533 36.2783 70.1611V62.8057ZM44.7686 70.7354V66.9277C44.7686 66.6361 44.7093 66.3831 44.5908 66.1689C44.4769 65.9502 44.3037 65.7816 44.0713 65.6631C43.8389 65.5446 43.5518 65.4854 43.21 65.4854C42.891 65.4854 42.6107 65.54 42.3691 65.6494C42.1322 65.7588 41.9453 65.9023 41.8086 66.0801C41.6764 66.2578 41.6104 66.4492 41.6104 66.6543H40.3457C40.3457 66.39 40.4141 66.1279 40.5508 65.8682C40.6875 65.6084 40.8835 65.3737 41.1387 65.1641C41.3984 64.9499 41.7083 64.7812 42.0684 64.6582C42.4329 64.5306 42.8385 64.4668 43.2852 64.4668C43.8229 64.4668 44.2969 64.5579 44.707 64.7402C45.1217 64.9225 45.4453 65.1982 45.6777 65.5674C45.9147 65.932 46.0332 66.39 46.0332 66.9414V70.3867C46.0332 70.6328 46.0537 70.8949 46.0947 71.1729C46.1403 71.4508 46.2064 71.6901 46.293 71.8906V72H44.9736C44.9098 71.8542 44.8597 71.6605 44.8232 71.4189C44.7868 71.1729 44.7686 70.945 44.7686 70.7354ZM44.9873 67.5156L45.001 68.4043H43.7227C43.3626 68.4043 43.0413 68.4339 42.7588 68.4932C42.4762 68.5479 42.2393 68.6322 42.0479 68.7461C41.8564 68.86 41.7106 69.0036 41.6104 69.1768C41.5101 69.3454 41.46 69.5436 41.46 69.7715C41.46 70.0039 41.5124 70.2158 41.6172 70.4072C41.722 70.5986 41.8792 70.7513 42.0889 70.8652C42.3031 70.9746 42.5651 71.0293 42.875 71.0293C43.2624 71.0293 43.6042 70.9473 43.9004 70.7832C44.1966 70.6191 44.4313 70.4186 44.6045 70.1816C44.7822 69.9447 44.8779 69.7145 44.8916 69.4912L45.4316 70.0996C45.3997 70.291 45.3132 70.5029 45.1719 70.7354C45.0306 70.9678 44.8415 71.1911 44.6045 71.4053C44.3721 71.6149 44.0941 71.7904 43.7705 71.9316C43.4515 72.0684 43.0915 72.1367 42.6904 72.1367C42.1891 72.1367 41.7493 72.0387 41.3711 71.8428C40.9974 71.6468 40.7057 71.3848 40.4961 71.0566C40.291 70.724 40.1885 70.3525 40.1885 69.9424C40.1885 69.5459 40.266 69.1973 40.4209 68.8965C40.5758 68.5911 40.7992 68.3382 41.0908 68.1377C41.3825 67.9326 41.7334 67.7777 42.1436 67.6729C42.5537 67.568 43.0117 67.5156 43.5176 67.5156H44.9873ZM52.3291 70.0381C52.3291 69.8558 52.2881 69.6872 52.2061 69.5322C52.1286 69.3727 51.9668 69.2292 51.7207 69.1016C51.4792 68.9694 51.1146 68.8555 50.627 68.7598C50.2168 68.6732 49.8454 68.5706 49.5127 68.4521C49.1846 68.3337 48.9043 68.1901 48.6719 68.0215C48.444 67.8529 48.2686 67.6546 48.1455 67.4268C48.0225 67.1989 47.9609 66.9323 47.9609 66.627C47.9609 66.3353 48.0247 66.0596 48.1523 65.7998C48.2845 65.54 48.4691 65.3099 48.7061 65.1094C48.9476 64.9089 49.237 64.7516 49.5742 64.6377C49.9115 64.5238 50.2874 64.4668 50.7021 64.4668C51.2946 64.4668 51.8005 64.5716 52.2197 64.7812C52.639 64.9909 52.9603 65.2712 53.1836 65.6221C53.4069 65.9684 53.5186 66.3535 53.5186 66.7773H52.2539C52.2539 66.5723 52.1924 66.374 52.0693 66.1826C51.9508 65.9867 51.7754 65.8249 51.543 65.6973C51.3151 65.5697 51.0348 65.5059 50.7021 65.5059C50.3512 65.5059 50.0664 65.5605 49.8477 65.6699C49.6335 65.7747 49.4762 65.9092 49.376 66.0732C49.2803 66.2373 49.2324 66.4105 49.2324 66.5928C49.2324 66.7295 49.2552 66.8525 49.3008 66.9619C49.3509 67.0667 49.4375 67.1647 49.5605 67.2559C49.6836 67.3424 49.8568 67.4245 50.0801 67.502C50.3034 67.5794 50.5882 67.6569 50.9346 67.7344C51.5407 67.8711 52.0397 68.0352 52.4316 68.2266C52.8236 68.418 53.1152 68.6527 53.3066 68.9307C53.498 69.2087 53.5938 69.5459 53.5938 69.9424C53.5938 70.266 53.5254 70.5622 53.3887 70.8311C53.2565 71.0999 53.0628 71.3324 52.8076 71.5283C52.557 71.7197 52.2562 71.8701 51.9053 71.9795C51.5589 72.0843 51.1693 72.1367 50.7363 72.1367C50.0846 72.1367 49.5332 72.0205 49.082 71.7881C48.6309 71.5557 48.2891 71.2549 48.0566 70.8857C47.8242 70.5166 47.708 70.127 47.708 69.7168H48.9795C48.9977 70.0632 49.098 70.3389 49.2803 70.5439C49.4626 70.7445 49.6859 70.888 49.9502 70.9746C50.2145 71.0566 50.4766 71.0977 50.7363 71.0977C51.0827 71.0977 51.3721 71.0521 51.6045 70.9609C51.8415 70.8698 52.0215 70.7445 52.1445 70.585C52.2676 70.4255 52.3291 70.2432 52.3291 70.0381ZM61.6123 72H59.5342L59.5479 70.9268H61.6123C62.3232 70.9268 62.9157 70.7786 63.3896 70.4824C63.8636 70.1816 64.2191 69.7624 64.4561 69.2246C64.6976 68.6823 64.8184 68.0488 64.8184 67.3242V66.7158C64.8184 66.1462 64.75 65.6403 64.6133 65.1982C64.4766 64.7516 64.276 64.3757 64.0117 64.0703C63.7474 63.7604 63.4238 63.5257 63.041 63.3662C62.6628 63.2067 62.2275 63.127 61.7354 63.127H59.4932V62.0469H61.7354C62.387 62.0469 62.9818 62.1562 63.5195 62.375C64.0573 62.5892 64.5199 62.9014 64.9072 63.3115C65.2992 63.7171 65.5999 64.2093 65.8096 64.7881C66.0192 65.3623 66.124 66.0094 66.124 66.7295V67.3242C66.124 68.0443 66.0192 68.6937 65.8096 69.2725C65.5999 69.8467 65.2969 70.3366 64.9004 70.7422C64.5085 71.1478 64.0345 71.46 63.4785 71.6787C62.9271 71.8929 62.305 72 61.6123 72ZM60.2383 62.0469V72H58.9189V62.0469H60.2383ZM69.2891 64.6035V72H68.0176V64.6035H69.2891ZM67.9219 62.6416C67.9219 62.4365 67.9834 62.2633 68.1064 62.1221C68.234 61.9808 68.4209 61.9102 68.667 61.9102C68.9085 61.9102 69.0931 61.9808 69.2207 62.1221C69.3529 62.2633 69.4189 62.4365 69.4189 62.6416C69.4189 62.8376 69.3529 63.0062 69.2207 63.1475C69.0931 63.2842 68.9085 63.3525 68.667 63.3525C68.4209 63.3525 68.234 63.2842 68.1064 63.1475C67.9834 63.0062 67.9219 62.8376 67.9219 62.6416ZM72.584 65.7656V72H71.3193V64.6035H72.5498L72.584 65.7656ZM74.8945 64.5625L74.8877 65.7383C74.7829 65.7155 74.6826 65.7018 74.5869 65.6973C74.4958 65.6882 74.391 65.6836 74.2725 65.6836C73.9808 65.6836 73.7233 65.7292 73.5 65.8203C73.2767 65.9115 73.0876 66.0391 72.9326 66.2031C72.7777 66.3672 72.6546 66.5632 72.5635 66.791C72.4769 67.0143 72.4199 67.2604 72.3926 67.5293L72.0371 67.7344C72.0371 67.2878 72.0804 66.8685 72.167 66.4766C72.2581 66.0846 72.3971 65.7383 72.584 65.4375C72.7708 65.1322 73.0078 64.8952 73.2949 64.7266C73.5866 64.5534 73.9329 64.4668 74.334 64.4668C74.4251 64.4668 74.5299 64.4782 74.6484 64.501C74.7669 64.5192 74.849 64.5397 74.8945 64.5625ZM77.4375 64.6035V72H76.166V64.6035H77.4375ZM76.0703 62.6416C76.0703 62.4365 76.1318 62.2633 76.2549 62.1221C76.3825 61.9808 76.5693 61.9102 76.8154 61.9102C77.057 61.9102 77.2415 61.9808 77.3691 62.1221C77.5013 62.2633 77.5674 62.4365 77.5674 62.6416C77.5674 62.8376 77.5013 63.0062 77.3691 63.1475C77.2415 63.2842 77.057 63.3525 76.8154 63.3525C76.5693 63.3525 76.3825 63.2842 76.2549 63.1475C76.1318 63.0062 76.0703 62.8376 76.0703 62.6416Z" fill="#424242"/>
<rect x="141.5" y="0.5" width="39" height="39" rx="19.5" fill="white"/>
<path d="M165.922 25.125V27H156.391V25.3887L161.02 20.3398C161.527 19.7669 161.928 19.2721 162.221 18.8555C162.514 18.4388 162.719 18.0645 162.836 17.7324C162.96 17.3939 163.021 17.0651 163.021 16.7461C163.021 16.2969 162.937 15.903 162.768 15.5645C162.605 15.2194 162.364 14.9492 162.045 14.7539C161.726 14.5521 161.339 14.4512 160.883 14.4512C160.355 14.4512 159.913 14.5651 159.555 14.793C159.197 15.0208 158.926 15.3366 158.744 15.7402C158.562 16.1374 158.471 16.5931 158.471 17.1074H156.117C156.117 16.2806 156.306 15.5254 156.684 14.8418C157.061 14.1517 157.608 13.6048 158.324 13.2012C159.04 12.791 159.903 12.5859 160.912 12.5859C161.863 12.5859 162.67 12.7454 163.334 13.0645C163.998 13.3835 164.503 13.8359 164.848 14.4219C165.199 15.0078 165.375 15.7012 165.375 16.502C165.375 16.9447 165.303 17.3841 165.16 17.8203C165.017 18.2565 164.812 18.6927 164.545 19.1289C164.285 19.5586 163.975 19.9915 163.617 20.4277C163.259 20.8574 162.865 21.2936 162.436 21.7363L159.359 25.125H165.922Z" fill="#BDBDBD"/>
<rect x="141.5" y="0.5" width="39" height="39" rx="19.5" stroke="#E0E0E0"/>
<rect x="197" y="18" width="69" height="4" rx="2" fill="#EEEEEE"/>
<path d="M143.57 62.0469V72H142.251V62.0469H143.57ZM147.043 66.1826V72H145.778V64.6035H146.975L147.043 66.1826ZM146.742 68.0215L146.216 68.001C146.22 67.4951 146.296 67.028 146.441 66.5996C146.587 66.1667 146.792 65.7907 147.057 65.4717C147.321 65.1527 147.635 64.9066 148 64.7334C148.369 64.5557 148.777 64.4668 149.224 64.4668C149.588 64.4668 149.916 64.5169 150.208 64.6172C150.5 64.7129 150.748 64.8678 150.953 65.082C151.163 65.2962 151.322 65.5742 151.432 65.916C151.541 66.2533 151.596 66.6657 151.596 67.1533V72H150.324V67.1396C150.324 66.7523 150.267 66.4424 150.153 66.21C150.039 65.973 149.873 65.8021 149.654 65.6973C149.436 65.5879 149.167 65.5332 148.848 65.5332C148.533 65.5332 148.246 65.5993 147.986 65.7314C147.731 65.8636 147.51 66.0459 147.323 66.2783C147.141 66.5107 146.997 66.7773 146.893 67.0781C146.792 67.3743 146.742 67.6888 146.742 68.0215ZM155.403 72H154.139V63.8242C154.139 63.291 154.234 62.8421 154.426 62.4775C154.622 62.1084 154.902 61.8304 155.267 61.6436C155.631 61.4521 156.064 61.3564 156.565 61.3564C156.711 61.3564 156.857 61.3656 157.003 61.3838C157.153 61.402 157.299 61.4294 157.44 61.4658L157.372 62.498C157.276 62.4753 157.167 62.4593 157.044 62.4502C156.925 62.4411 156.807 62.4365 156.688 62.4365C156.42 62.4365 156.187 62.4912 155.991 62.6006C155.8 62.7054 155.654 62.8604 155.554 63.0654C155.453 63.2705 155.403 63.5234 155.403 63.8242V72ZM156.976 64.6035V65.5742H152.97V64.6035H156.976ZM158.049 68.3838V68.2266C158.049 67.6934 158.126 67.1989 158.281 66.7432C158.436 66.2829 158.66 65.8841 158.951 65.5469C159.243 65.2051 159.596 64.9408 160.011 64.7539C160.425 64.5625 160.89 64.4668 161.405 64.4668C161.925 64.4668 162.392 64.5625 162.807 64.7539C163.226 64.9408 163.581 65.2051 163.873 65.5469C164.169 65.8841 164.395 66.2829 164.55 66.7432C164.705 67.1989 164.782 67.6934 164.782 68.2266V68.3838C164.782 68.917 164.705 69.4115 164.55 69.8672C164.395 70.3229 164.169 70.7217 163.873 71.0635C163.581 71.4007 163.228 71.665 162.813 71.8564C162.403 72.0433 161.938 72.1367 161.419 72.1367C160.899 72.1367 160.432 72.0433 160.018 71.8564C159.603 71.665 159.247 71.4007 158.951 71.0635C158.66 70.7217 158.436 70.3229 158.281 69.8672C158.126 69.4115 158.049 68.917 158.049 68.3838ZM159.313 68.2266V68.3838C159.313 68.7529 159.357 69.1016 159.443 69.4297C159.53 69.7533 159.66 70.0404 159.833 70.291C160.011 70.5417 160.232 70.7399 160.496 70.8857C160.76 71.027 161.068 71.0977 161.419 71.0977C161.765 71.0977 162.068 71.027 162.328 70.8857C162.592 70.7399 162.811 70.5417 162.984 70.291C163.158 70.0404 163.287 69.7533 163.374 69.4297C163.465 69.1016 163.511 68.7529 163.511 68.3838V68.2266C163.511 67.862 163.465 67.5179 163.374 67.1943C163.287 66.8662 163.155 66.5768 162.978 66.3262C162.804 66.071 162.586 65.8704 162.321 65.7246C162.062 65.5788 161.756 65.5059 161.405 65.5059C161.059 65.5059 160.754 65.5788 160.489 65.7246C160.229 65.8704 160.011 66.071 159.833 66.3262C159.66 66.5768 159.53 66.8662 159.443 67.1943C159.357 67.5179 159.313 67.862 159.313 68.2266ZM167.633 65.7656V72H166.368V64.6035H167.599L167.633 65.7656ZM169.943 64.5625L169.937 65.7383C169.832 65.7155 169.731 65.7018 169.636 65.6973C169.545 65.6882 169.44 65.6836 169.321 65.6836C169.03 65.6836 168.772 65.7292 168.549 65.8203C168.326 65.9115 168.136 66.0391 167.981 66.2031C167.826 66.3672 167.703 66.5632 167.612 66.791C167.526 67.0143 167.469 67.2604 167.441 67.5293L167.086 67.7344C167.086 67.2878 167.129 66.8685 167.216 66.4766C167.307 66.0846 167.446 65.7383 167.633 65.4375C167.82 65.1322 168.057 64.8952 168.344 64.7266C168.635 64.5534 168.982 64.4668 169.383 64.4668C169.474 64.4668 169.579 64.4782 169.697 64.501C169.816 64.5192 169.898 64.5397 169.943 64.5625ZM172.37 66.0732V72H171.099V64.6035H172.302L172.37 66.0732ZM172.11 68.0215L171.522 68.001C171.527 67.4951 171.593 67.028 171.721 66.5996C171.848 66.1667 172.037 65.7907 172.288 65.4717C172.539 65.1527 172.851 64.9066 173.225 64.7334C173.598 64.5557 174.031 64.4668 174.523 64.4668C174.87 64.4668 175.189 64.5169 175.48 64.6172C175.772 64.7129 176.025 64.8656 176.239 65.0752C176.453 65.2848 176.62 65.5537 176.738 65.8818C176.857 66.21 176.916 66.6064 176.916 67.0713V72H175.651V67.1328C175.651 66.7454 175.585 66.4355 175.453 66.2031C175.326 65.9707 175.143 65.8021 174.906 65.6973C174.669 65.5879 174.391 65.5332 174.072 65.5332C173.699 65.5332 173.386 65.5993 173.136 65.7314C172.885 65.8636 172.685 66.0459 172.534 66.2783C172.384 66.5107 172.274 66.7773 172.206 67.0781C172.142 67.3743 172.11 67.6888 172.11 68.0215ZM176.902 67.3242L176.055 67.584C176.059 67.1784 176.125 66.7887 176.253 66.415C176.385 66.0413 176.574 65.7087 176.82 65.417C177.071 65.1253 177.379 64.8952 177.743 64.7266C178.108 64.5534 178.525 64.4668 178.994 64.4668C179.391 64.4668 179.742 64.5192 180.047 64.624C180.357 64.7288 180.617 64.8906 180.826 65.1094C181.04 65.3236 181.202 65.5993 181.312 65.9365C181.421 66.2738 181.476 66.6748 181.476 67.1396V72H180.204V67.126C180.204 66.7113 180.138 66.39 180.006 66.1621C179.878 65.9297 179.696 65.7679 179.459 65.6768C179.227 65.5811 178.949 65.5332 178.625 65.5332C178.347 65.5332 178.101 65.5811 177.887 65.6768C177.673 65.7725 177.493 65.9046 177.347 66.0732C177.201 66.2373 177.089 66.4264 177.012 66.6406C176.939 66.8548 176.902 67.0827 176.902 67.3242ZM187.751 70.7354V66.9277C187.751 66.6361 187.692 66.3831 187.573 66.1689C187.459 65.9502 187.286 65.7816 187.054 65.6631C186.821 65.5446 186.534 65.4854 186.192 65.4854C185.873 65.4854 185.593 65.54 185.352 65.6494C185.115 65.7588 184.928 65.9023 184.791 66.0801C184.659 66.2578 184.593 66.4492 184.593 66.6543H183.328C183.328 66.39 183.396 66.1279 183.533 65.8682C183.67 65.6084 183.866 65.3737 184.121 65.1641C184.381 64.9499 184.691 64.7812 185.051 64.6582C185.415 64.5306 185.821 64.4668 186.268 64.4668C186.805 64.4668 187.279 64.5579 187.689 64.7402C188.104 64.9225 188.428 65.1982 188.66 65.5674C188.897 65.932 189.016 66.39 189.016 66.9414V70.3867C189.016 70.6328 189.036 70.8949 189.077 71.1729C189.123 71.4508 189.189 71.6901 189.275 71.8906V72H187.956C187.892 71.8542 187.842 71.6605 187.806 71.4189C187.769 71.1729 187.751 70.945 187.751 70.7354ZM187.97 67.5156L187.983 68.4043H186.705C186.345 68.4043 186.024 68.4339 185.741 68.4932C185.459 68.5479 185.222 68.6322 185.03 68.7461C184.839 68.86 184.693 69.0036 184.593 69.1768C184.493 69.3454 184.442 69.5436 184.442 69.7715C184.442 70.0039 184.495 70.2158 184.6 70.4072C184.704 70.5986 184.862 70.7513 185.071 70.8652C185.285 70.9746 185.548 71.0293 185.857 71.0293C186.245 71.0293 186.587 70.9473 186.883 70.7832C187.179 70.6191 187.414 70.4186 187.587 70.1816C187.765 69.9447 187.86 69.7145 187.874 69.4912L188.414 70.0996C188.382 70.291 188.296 70.5029 188.154 70.7354C188.013 70.9678 187.824 71.1911 187.587 71.4053C187.354 71.6149 187.076 71.7904 186.753 71.9316C186.434 72.0684 186.074 72.1367 185.673 72.1367C185.172 72.1367 184.732 72.0387 184.354 71.8428C183.98 71.6468 183.688 71.3848 183.479 71.0566C183.273 70.724 183.171 70.3525 183.171 69.9424C183.171 69.5459 183.248 69.1973 183.403 68.8965C183.558 68.5911 183.782 68.3382 184.073 68.1377C184.365 67.9326 184.716 67.7777 185.126 67.6729C185.536 67.568 185.994 67.5156 186.5 67.5156H187.97ZM195.312 70.0381C195.312 69.8558 195.271 69.6872 195.188 69.5322C195.111 69.3727 194.949 69.2292 194.703 69.1016C194.462 68.9694 194.097 68.8555 193.609 68.7598C193.199 68.6732 192.828 68.5706 192.495 68.4521C192.167 68.3337 191.887 68.1901 191.654 68.0215C191.426 67.8529 191.251 67.6546 191.128 67.4268C191.005 67.1989 190.943 66.9323 190.943 66.627C190.943 66.3353 191.007 66.0596 191.135 65.7998C191.267 65.54 191.451 65.3099 191.688 65.1094C191.93 64.9089 192.219 64.7516 192.557 64.6377C192.894 64.5238 193.27 64.4668 193.685 64.4668C194.277 64.4668 194.783 64.5716 195.202 64.7812C195.621 64.9909 195.943 65.2712 196.166 65.6221C196.389 65.9684 196.501 66.3535 196.501 66.7773H195.236C195.236 66.5723 195.175 66.374 195.052 66.1826C194.933 65.9867 194.758 65.8249 194.525 65.6973C194.298 65.5697 194.017 65.5059 193.685 65.5059C193.334 65.5059 193.049 65.5605 192.83 65.6699C192.616 65.7747 192.459 65.9092 192.358 66.0732C192.263 66.2373 192.215 66.4105 192.215 66.5928C192.215 66.7295 192.238 66.8525 192.283 66.9619C192.333 67.0667 192.42 67.1647 192.543 67.2559C192.666 67.3424 192.839 67.4245 193.062 67.502C193.286 67.5794 193.571 67.6569 193.917 67.7344C194.523 67.8711 195.022 68.0352 195.414 68.2266C195.806 68.418 196.098 68.6527 196.289 68.9307C196.48 69.2087 196.576 69.5459 196.576 69.9424C196.576 70.266 196.508 70.5622 196.371 70.8311C196.239 71.0999 196.045 71.3324 195.79 71.5283C195.539 71.7197 195.239 71.8701 194.888 71.9795C194.541 72.0843 194.152 72.1367 193.719 72.1367C193.067 72.1367 192.516 72.0205 192.064 71.7881C191.613 71.5557 191.271 71.2549 191.039 70.8857C190.807 70.5166 190.69 70.127 190.69 69.7168H191.962C191.98 70.0632 192.08 70.3389 192.263 70.5439C192.445 70.7445 192.668 70.888 192.933 70.9746C193.197 71.0566 193.459 71.0977 193.719 71.0977C194.065 71.0977 194.354 71.0521 194.587 70.9609C194.824 70.8698 195.004 70.7445 195.127 70.585C195.25 70.4255 195.312 70.2432 195.312 70.0381ZM199.611 64.6035V72H198.34V64.6035H199.611ZM198.244 62.6416C198.244 62.4365 198.306 62.2633 198.429 62.1221C198.556 61.9808 198.743 61.9102 198.989 61.9102C199.231 61.9102 199.415 61.9808 199.543 62.1221C199.675 62.2633 199.741 62.4365 199.741 62.6416C199.741 62.8376 199.675 63.0062 199.543 63.1475C199.415 63.2842 199.231 63.3525 198.989 63.3525C198.743 63.3525 198.556 63.2842 198.429 63.1475C198.306 63.0062 198.244 62.8376 198.244 62.6416ZM205.723 62.0469H207.001L210.262 70.1611L213.516 62.0469H214.801L210.754 72H209.756L205.723 62.0469ZM205.306 62.0469H206.434L206.618 68.1172V72H205.306V62.0469ZM214.083 62.0469H215.211V72H213.898V68.1172L214.083 62.0469ZM220.406 72.1367C219.891 72.1367 219.424 72.0501 219.005 71.877C218.59 71.6992 218.232 71.4508 217.932 71.1318C217.635 70.8128 217.408 70.4346 217.248 69.9971C217.089 69.5596 217.009 69.0811 217.009 68.5615V68.2744C217.009 67.6729 217.098 67.1374 217.275 66.668C217.453 66.194 217.695 65.793 218 65.4648C218.305 65.1367 218.652 64.8883 219.039 64.7197C219.426 64.5511 219.827 64.4668 220.242 64.4668C220.771 64.4668 221.227 64.5579 221.609 64.7402C221.997 64.9225 222.313 65.1777 222.56 65.5059C222.806 65.8294 222.988 66.2122 223.106 66.6543C223.225 67.0918 223.284 67.5703 223.284 68.0898V68.6572H217.761V67.625H222.02V67.5293C222.001 67.2012 221.933 66.8822 221.814 66.5723C221.701 66.2624 221.518 66.0072 221.268 65.8066C221.017 65.6061 220.675 65.5059 220.242 65.5059C219.955 65.5059 219.691 65.5674 219.449 65.6904C219.208 65.8089 219 65.9867 218.827 66.2236C218.654 66.4606 218.52 66.75 218.424 67.0918C218.328 67.4336 218.28 67.8278 218.28 68.2744V68.5615C218.28 68.9124 218.328 69.2428 218.424 69.5527C218.524 69.8581 218.668 70.127 218.854 70.3594C219.046 70.5918 219.276 70.7741 219.545 70.9062C219.818 71.0384 220.128 71.1045 220.475 71.1045C220.921 71.1045 221.299 71.0133 221.609 70.8311C221.919 70.6488 222.19 70.4049 222.423 70.0996L223.188 70.708C223.029 70.9495 222.826 71.1797 222.58 71.3984C222.334 71.6172 222.031 71.7949 221.671 71.9316C221.315 72.0684 220.894 72.1367 220.406 72.1367ZM229.423 70.5645V61.5H230.694V72H229.532L229.423 70.5645ZM224.446 68.3838V68.2402C224.446 67.6751 224.515 67.1624 224.651 66.7021C224.793 66.2373 224.991 65.8385 225.246 65.5059C225.506 65.1732 225.813 64.918 226.169 64.7402C226.529 64.5579 226.93 64.4668 227.372 64.4668C227.837 64.4668 228.243 64.5488 228.589 64.7129C228.94 64.8724 229.236 65.1071 229.478 65.417C229.724 65.7223 229.917 66.0915 230.059 66.5244C230.2 66.9574 230.298 67.4473 230.353 67.9941V68.623C230.302 69.1654 230.204 69.653 230.059 70.0859C229.917 70.5189 229.724 70.888 229.478 71.1934C229.236 71.4987 228.94 71.7334 228.589 71.8975C228.238 72.057 227.828 72.1367 227.358 72.1367C226.925 72.1367 226.529 72.0433 226.169 71.8564C225.813 71.6696 225.506 71.4076 225.246 71.0703C224.991 70.7331 224.793 70.3366 224.651 69.8809C224.515 69.4206 224.446 68.9215 224.446 68.3838ZM225.718 68.2402V68.3838C225.718 68.7529 225.754 69.0993 225.827 69.4229C225.905 69.7464 226.023 70.0312 226.183 70.2773C226.342 70.5234 226.545 70.7171 226.791 70.8584C227.037 70.9951 227.331 71.0635 227.673 71.0635C228.092 71.0635 228.436 70.9746 228.705 70.7969C228.979 70.6191 229.197 70.3844 229.361 70.0928C229.525 69.8011 229.653 69.4844 229.744 69.1426V67.4951C229.689 67.2445 229.61 67.0029 229.505 66.7705C229.405 66.5335 229.272 66.3239 229.108 66.1416C228.949 65.9548 228.751 65.8066 228.514 65.6973C228.281 65.5879 228.006 65.5332 227.687 65.5332C227.34 65.5332 227.042 65.6061 226.791 65.752C226.545 65.8932 226.342 66.0892 226.183 66.3398C226.023 66.5859 225.905 66.873 225.827 67.2012C225.754 67.5247 225.718 67.8711 225.718 68.2402ZM234.037 64.6035V72H232.766V64.6035H234.037ZM232.67 62.6416C232.67 62.4365 232.731 62.2633 232.854 62.1221C232.982 61.9808 233.169 61.9102 233.415 61.9102C233.657 61.9102 233.841 61.9808 233.969 62.1221C234.101 62.2633 234.167 62.4365 234.167 62.6416C234.167 62.8376 234.101 63.0062 233.969 63.1475C233.841 63.2842 233.657 63.3525 233.415 63.3525C233.169 63.3525 232.982 63.2842 232.854 63.1475C232.731 63.0062 232.67 62.8376 232.67 62.6416ZM240.374 70.0381C240.374 69.8558 240.333 69.6872 240.251 69.5322C240.174 69.3727 240.012 69.2292 239.766 69.1016C239.524 68.9694 239.16 68.8555 238.672 68.7598C238.262 68.6732 237.89 68.5706 237.558 68.4521C237.229 68.3337 236.949 68.1901 236.717 68.0215C236.489 67.8529 236.313 67.6546 236.19 67.4268C236.067 67.1989 236.006 66.9323 236.006 66.627C236.006 66.3353 236.07 66.0596 236.197 65.7998C236.329 65.54 236.514 65.3099 236.751 65.1094C236.993 64.9089 237.282 64.7516 237.619 64.6377C237.956 64.5238 238.332 64.4668 238.747 64.4668C239.34 64.4668 239.845 64.5716 240.265 64.7812C240.684 64.9909 241.005 65.2712 241.229 65.6221C241.452 65.9684 241.563 66.3535 241.563 66.7773H240.299C240.299 66.5723 240.237 66.374 240.114 66.1826C239.996 65.9867 239.82 65.8249 239.588 65.6973C239.36 65.5697 239.08 65.5059 238.747 65.5059C238.396 65.5059 238.111 65.5605 237.893 65.6699C237.678 65.7747 237.521 65.9092 237.421 66.0732C237.325 66.2373 237.277 66.4105 237.277 66.5928C237.277 66.7295 237.3 66.8525 237.346 66.9619C237.396 67.0667 237.482 67.1647 237.605 67.2559C237.729 67.3424 237.902 67.4245 238.125 67.502C238.348 67.5794 238.633 67.6569 238.979 67.7344C239.586 67.8711 240.085 68.0352 240.477 68.2266C240.868 68.418 241.16 68.6527 241.352 68.9307C241.543 69.2087 241.639 69.5459 241.639 69.9424C241.639 70.266 241.57 70.5622 241.434 70.8311C241.301 71.0999 241.108 71.3324 240.853 71.5283C240.602 71.7197 240.301 71.8701 239.95 71.9795C239.604 72.0843 239.214 72.1367 238.781 72.1367C238.13 72.1367 237.578 72.0205 237.127 71.7881C236.676 71.5557 236.334 71.2549 236.102 70.8857C235.869 70.5166 235.753 70.127 235.753 69.7168H237.024C237.043 70.0632 237.143 70.3389 237.325 70.5439C237.507 70.7445 237.731 70.888 237.995 70.9746C238.259 71.0566 238.521 71.0977 238.781 71.0977C239.128 71.0977 239.417 71.0521 239.649 70.9609C239.886 70.8698 240.066 70.7445 240.189 70.585C240.312 70.4255 240.374 70.2432 240.374 70.0381Z" fill="#757575"/>
<rect x="282.5" y="0.5" width="39" height="39" rx="19.5" fill="white"/>
<path d="M300.154 18.8262H301.561C302.107 18.8262 302.56 18.7318 302.918 18.543C303.283 18.3542 303.553 18.0938 303.729 17.7617C303.904 17.4297 303.992 17.0488 303.992 16.6191C303.992 16.1699 303.911 15.7858 303.748 15.4668C303.592 15.1413 303.351 14.8906 303.025 14.7148C302.706 14.5391 302.299 14.4512 301.805 14.4512C301.388 14.4512 301.01 14.5358 300.672 14.7051C300.34 14.8678 300.076 15.1022 299.881 15.4082C299.686 15.7077 299.588 16.0658 299.588 16.4824H297.225C297.225 15.7272 297.423 15.0566 297.82 14.4707C298.217 13.8848 298.758 13.4258 299.441 13.0938C300.132 12.7552 300.906 12.5859 301.766 12.5859C302.684 12.5859 303.484 12.7389 304.168 13.0449C304.858 13.3444 305.395 13.7936 305.779 14.3926C306.163 14.9915 306.355 15.7337 306.355 16.6191C306.355 17.0228 306.261 17.4329 306.072 17.8496C305.883 18.2663 305.604 18.6471 305.232 18.9922C304.861 19.3307 304.399 19.6074 303.846 19.8223C303.292 20.0306 302.651 20.1348 301.922 20.1348H300.154V18.8262ZM300.154 20.6621V19.373H301.922C302.755 19.373 303.465 19.4707 304.051 19.666C304.643 19.8613 305.125 20.1315 305.496 20.4766C305.867 20.8151 306.137 21.2025 306.307 21.6387C306.482 22.0749 306.57 22.5371 306.57 23.0254C306.57 23.6895 306.45 24.2819 306.209 24.8027C305.975 25.3171 305.639 25.7533 305.203 26.1113C304.767 26.4694 304.256 26.7396 303.67 26.9219C303.09 27.1042 302.459 27.1953 301.775 27.1953C301.163 27.1953 300.577 27.1107 300.018 26.9414C299.458 26.7721 298.956 26.5215 298.514 26.1895C298.071 25.8509 297.719 25.431 297.459 24.9297C297.205 24.4219 297.078 23.8359 297.078 23.1719H299.432C299.432 23.5951 299.529 23.9694 299.725 24.2949C299.926 24.6139 300.206 24.8646 300.564 25.0469C300.929 25.2292 301.346 25.3203 301.814 25.3203C302.309 25.3203 302.736 25.2324 303.094 25.0566C303.452 24.8809 303.725 24.6204 303.914 24.2754C304.109 23.9303 304.207 23.5137 304.207 23.0254C304.207 22.472 304.1 22.0228 303.885 21.6777C303.67 21.3327 303.364 21.0788 302.967 20.916C302.57 20.7467 302.101 20.6621 301.561 20.6621H300.154Z" fill="#BDBDBD"/>
<rect x="282.5" y="0.5" width="39" height="39" rx="19.5" stroke="#E0E0E0"/>
<rect x="338" y="18" width="69" height="4" rx="2" fill="#EEEEEE"/>
<path d="M288.85 62.0469H290.162V68.7803C290.162 69.5277 289.996 70.1497 289.663 70.6465C289.33 71.1432 288.888 71.5169 288.337 71.7676C287.79 72.0137 287.195 72.1367 286.553 72.1367C285.878 72.1367 285.268 72.0137 284.721 71.7676C284.178 71.5169 283.748 71.1432 283.429 70.6465C283.114 70.1497 282.957 69.5277 282.957 68.7803V62.0469H284.263V68.7803C284.263 69.2998 284.358 69.7282 284.55 70.0654C284.741 70.4027 285.008 70.6533 285.35 70.8174C285.696 70.9814 286.097 71.0635 286.553 71.0635C287.013 71.0635 287.414 70.9814 287.756 70.8174C288.102 70.6533 288.371 70.4027 288.562 70.0654C288.754 69.7282 288.85 69.2998 288.85 68.7803V62.0469ZM293.307 66.1826V72H292.042V64.6035H293.238L293.307 66.1826ZM293.006 68.0215L292.479 68.001C292.484 67.4951 292.559 67.028 292.705 66.5996C292.851 66.1667 293.056 65.7907 293.32 65.4717C293.585 65.1527 293.899 64.9066 294.264 64.7334C294.633 64.5557 295.041 64.4668 295.487 64.4668C295.852 64.4668 296.18 64.5169 296.472 64.6172C296.763 64.7129 297.012 64.8678 297.217 65.082C297.426 65.2962 297.586 65.5742 297.695 65.916C297.805 66.2533 297.859 66.6657 297.859 67.1533V72H296.588V67.1396C296.588 66.7523 296.531 66.4424 296.417 66.21C296.303 65.973 296.137 65.8021 295.918 65.6973C295.699 65.5879 295.43 65.5332 295.111 65.5332C294.797 65.5332 294.51 65.5993 294.25 65.7314C293.995 65.8636 293.774 66.0459 293.587 66.2783C293.405 66.5107 293.261 66.7773 293.156 67.0781C293.056 67.3743 293.006 67.6888 293.006 68.0215ZM304.572 64.6035H305.721V71.8428C305.721 72.4945 305.589 73.0505 305.324 73.5107C305.06 73.971 304.691 74.3197 304.217 74.5566C303.747 74.7982 303.205 74.9189 302.59 74.9189C302.335 74.9189 302.034 74.8779 301.688 74.7959C301.346 74.7184 301.008 74.584 300.676 74.3926C300.348 74.2057 300.072 73.9528 299.849 73.6338L300.512 72.8818C300.822 73.2555 301.145 73.5153 301.482 73.6611C301.824 73.807 302.161 73.8799 302.494 73.8799C302.895 73.8799 303.242 73.8047 303.533 73.6543C303.825 73.5039 304.05 73.2806 304.21 72.9844C304.374 72.6927 304.456 72.3327 304.456 71.9043V66.2305L304.572 64.6035ZM299.479 68.3838V68.2402C299.479 67.6751 299.546 67.1624 299.678 66.7021C299.814 66.2373 300.008 65.8385 300.259 65.5059C300.514 65.1732 300.822 64.918 301.182 64.7402C301.542 64.5579 301.947 64.4668 302.398 64.4668C302.863 64.4668 303.269 64.5488 303.615 64.7129C303.966 64.8724 304.262 65.1071 304.504 65.417C304.75 65.7223 304.944 66.0915 305.085 66.5244C305.226 66.9574 305.324 67.4473 305.379 67.9941V68.623C305.329 69.1654 305.231 69.653 305.085 70.0859C304.944 70.5189 304.75 70.888 304.504 71.1934C304.262 71.4987 303.966 71.7334 303.615 71.8975C303.264 72.057 302.854 72.1367 302.385 72.1367C301.943 72.1367 301.542 72.0433 301.182 71.8564C300.826 71.6696 300.521 71.4076 300.266 71.0703C300.01 70.7331 299.814 70.3366 299.678 69.8809C299.546 69.4206 299.479 68.9215 299.479 68.3838ZM300.744 68.2402V68.3838C300.744 68.7529 300.781 69.0993 300.854 69.4229C300.931 69.7464 301.047 70.0312 301.202 70.2773C301.362 70.5234 301.564 70.7171 301.811 70.8584C302.057 70.9951 302.351 71.0635 302.692 71.0635C303.112 71.0635 303.458 70.9746 303.731 70.7969C304.005 70.6191 304.221 70.3844 304.381 70.0928C304.545 69.8011 304.673 69.4844 304.764 69.1426V67.4951C304.714 67.2445 304.636 67.0029 304.531 66.7705C304.431 66.5335 304.299 66.3239 304.135 66.1416C303.975 65.9548 303.777 65.8066 303.54 65.6973C303.303 65.5879 303.025 65.5332 302.706 65.5332C302.36 65.5332 302.061 65.6061 301.811 65.752C301.564 65.8932 301.362 66.0892 301.202 66.3398C301.047 66.5859 300.931 66.873 300.854 67.2012C300.781 67.5247 300.744 67.8711 300.744 68.2402ZM312.434 64.6035H313.582V71.8428C313.582 72.4945 313.45 73.0505 313.186 73.5107C312.921 73.971 312.552 74.3197 312.078 74.5566C311.609 74.7982 311.066 74.9189 310.451 74.9189C310.196 74.9189 309.895 74.8779 309.549 74.7959C309.207 74.7184 308.87 74.584 308.537 74.3926C308.209 74.2057 307.933 73.9528 307.71 73.6338L308.373 72.8818C308.683 73.2555 309.007 73.5153 309.344 73.6611C309.686 73.807 310.023 73.8799 310.355 73.8799C310.757 73.8799 311.103 73.8047 311.395 73.6543C311.686 73.5039 311.912 73.2806 312.071 72.9844C312.235 72.6927 312.317 72.3327 312.317 71.9043V66.2305L312.434 64.6035ZM307.341 68.3838V68.2402C307.341 67.6751 307.407 67.1624 307.539 66.7021C307.676 66.2373 307.869 65.8385 308.12 65.5059C308.375 65.1732 308.683 64.918 309.043 64.7402C309.403 64.5579 309.809 64.4668 310.26 64.4668C310.725 64.4668 311.13 64.5488 311.477 64.7129C311.827 64.8724 312.124 65.1071 312.365 65.417C312.611 65.7223 312.805 66.0915 312.946 66.5244C313.088 66.9574 313.186 67.4473 313.24 67.9941V68.623C313.19 69.1654 313.092 69.653 312.946 70.0859C312.805 70.5189 312.611 70.888 312.365 71.1934C312.124 71.4987 311.827 71.7334 311.477 71.8975C311.126 72.057 310.715 72.1367 310.246 72.1367C309.804 72.1367 309.403 72.0433 309.043 71.8564C308.688 71.6696 308.382 71.4076 308.127 71.0703C307.872 70.7331 307.676 70.3366 307.539 69.8809C307.407 69.4206 307.341 68.9215 307.341 68.3838ZM308.605 68.2402V68.3838C308.605 68.7529 308.642 69.0993 308.715 69.4229C308.792 69.7464 308.909 70.0312 309.063 70.2773C309.223 70.5234 309.426 70.7171 309.672 70.8584C309.918 70.9951 310.212 71.0635 310.554 71.0635C310.973 71.0635 311.319 70.9746 311.593 70.7969C311.866 70.6191 312.083 70.3844 312.242 70.0928C312.406 69.8011 312.534 69.4844 312.625 69.1426V67.4951C312.575 67.2445 312.497 67.0029 312.393 66.7705C312.292 66.5335 312.16 66.3239 311.996 66.1416C311.837 65.9548 311.638 65.8066 311.401 65.6973C311.164 65.5879 310.886 65.5332 310.567 65.5332C310.221 65.5332 309.923 65.6061 309.672 65.752C309.426 65.8932 309.223 66.0892 309.063 66.3398C308.909 66.5859 308.792 66.873 308.715 67.2012C308.642 67.5247 308.605 67.8711 308.605 68.2402ZM319.864 70.7354V66.9277C319.864 66.6361 319.805 66.3831 319.687 66.1689C319.573 65.9502 319.399 65.7816 319.167 65.6631C318.935 65.5446 318.647 65.4854 318.306 65.4854C317.987 65.4854 317.706 65.54 317.465 65.6494C317.228 65.7588 317.041 65.9023 316.904 66.0801C316.772 66.2578 316.706 66.4492 316.706 66.6543H315.441C315.441 66.39 315.51 66.1279 315.646 65.8682C315.783 65.6084 315.979 65.3737 316.234 65.1641C316.494 64.9499 316.804 64.7812 317.164 64.6582C317.529 64.5306 317.934 64.4668 318.381 64.4668C318.919 64.4668 319.393 64.5579 319.803 64.7402C320.217 64.9225 320.541 65.1982 320.773 65.5674C321.01 65.932 321.129 66.39 321.129 66.9414V70.3867C321.129 70.6328 321.149 70.8949 321.19 71.1729C321.236 71.4508 321.302 71.6901 321.389 71.8906V72H320.069C320.006 71.8542 319.955 71.6605 319.919 71.4189C319.882 71.1729 319.864 70.945 319.864 70.7354ZM320.083 67.5156L320.097 68.4043H318.818C318.458 68.4043 318.137 68.4339 317.854 68.4932C317.572 68.5479 317.335 68.6322 317.144 68.7461C316.952 68.86 316.806 69.0036 316.706 69.1768C316.606 69.3454 316.556 69.5436 316.556 69.7715C316.556 70.0039 316.608 70.2158 316.713 70.4072C316.818 70.5986 316.975 70.7513 317.185 70.8652C317.399 70.9746 317.661 71.0293 317.971 71.0293C318.358 71.0293 318.7 70.9473 318.996 70.7832C319.292 70.6191 319.527 70.4186 319.7 70.1816C319.878 69.9447 319.974 69.7145 319.987 69.4912L320.527 70.0996C320.495 70.291 320.409 70.5029 320.268 70.7354C320.126 70.9678 319.937 71.1911 319.7 71.4053C319.468 71.6149 319.19 71.7904 318.866 71.9316C318.547 72.0684 318.187 72.1367 317.786 72.1367C317.285 72.1367 316.845 72.0387 316.467 71.8428C316.093 71.6468 315.801 71.3848 315.592 71.0566C315.387 70.724 315.284 70.3525 315.284 69.9424C315.284 69.5459 315.362 69.1973 315.517 68.8965C315.672 68.5911 315.895 68.3382 316.187 68.1377C316.478 67.9326 316.829 67.7777 317.239 67.6729C317.649 67.568 318.107 67.5156 318.613 67.5156H320.083ZM324.383 61.5V72H323.118V61.5H324.383ZM324.082 68.0215L323.556 68.001C323.56 67.4951 323.635 67.028 323.781 66.5996C323.927 66.1667 324.132 65.7907 324.396 65.4717C324.661 65.1527 324.975 64.9066 325.34 64.7334C325.709 64.5557 326.117 64.4668 326.563 64.4668C326.928 64.4668 327.256 64.5169 327.548 64.6172C327.84 64.7129 328.088 64.8678 328.293 65.082C328.503 65.2962 328.662 65.5742 328.771 65.916C328.881 66.2533 328.936 66.6657 328.936 67.1533V72H327.664V67.1396C327.664 66.7523 327.607 66.4424 327.493 66.21C327.379 65.973 327.213 65.8021 326.994 65.6973C326.775 65.5879 326.507 65.5332 326.188 65.5332C325.873 65.5332 325.586 65.5993 325.326 65.7314C325.071 65.8636 324.85 66.0459 324.663 66.2783C324.481 66.5107 324.337 66.7773 324.232 67.0781C324.132 67.3743 324.082 67.6888 324.082 68.0215ZM337.187 72H335.108L335.122 70.9268H337.187C337.897 70.9268 338.49 70.7786 338.964 70.4824C339.438 70.1816 339.793 69.7624 340.03 69.2246C340.272 68.6823 340.393 68.0488 340.393 67.3242V66.7158C340.393 66.1462 340.324 65.6403 340.188 65.1982C340.051 64.7516 339.85 64.3757 339.586 64.0703C339.322 63.7604 338.998 63.5257 338.615 63.3662C338.237 63.2067 337.802 63.127 337.31 63.127H335.067V62.0469H337.31C337.961 62.0469 338.556 62.1562 339.094 62.375C339.632 62.5892 340.094 62.9014 340.481 63.3115C340.873 63.7171 341.174 64.2093 341.384 64.7881C341.593 65.3623 341.698 66.0094 341.698 66.7295V67.3242C341.698 68.0443 341.593 68.6937 341.384 69.2725C341.174 69.8467 340.871 70.3366 340.475 70.7422C340.083 71.1478 339.609 71.46 339.053 71.6787C338.501 71.8929 337.879 72 337.187 72ZM335.812 62.0469V72H334.493V62.0469H335.812ZM347.851 70.7354V66.9277C347.851 66.6361 347.791 66.3831 347.673 66.1689C347.559 65.9502 347.386 65.7816 347.153 65.6631C346.921 65.5446 346.634 65.4854 346.292 65.4854C345.973 65.4854 345.693 65.54 345.451 65.6494C345.214 65.7588 345.027 65.9023 344.891 66.0801C344.758 66.2578 344.692 66.4492 344.692 66.6543H343.428C343.428 66.39 343.496 66.1279 343.633 65.8682C343.77 65.6084 343.965 65.3737 344.221 65.1641C344.48 64.9499 344.79 64.7812 345.15 64.6582C345.515 64.5306 345.921 64.4668 346.367 64.4668C346.905 64.4668 347.379 64.5579 347.789 64.7402C348.204 64.9225 348.527 65.1982 348.76 65.5674C348.997 65.932 349.115 66.39 349.115 66.9414V70.3867C349.115 70.6328 349.136 70.8949 349.177 71.1729C349.222 71.4508 349.288 71.6901 349.375 71.8906V72H348.056C347.992 71.8542 347.942 71.6605 347.905 71.4189C347.869 71.1729 347.851 70.945 347.851 70.7354ZM348.069 67.5156L348.083 68.4043H346.805C346.445 68.4043 346.123 68.4339 345.841 68.4932C345.558 68.5479 345.321 68.6322 345.13 68.7461C344.938 68.86 344.793 69.0036 344.692 69.1768C344.592 69.3454 344.542 69.5436 344.542 69.7715C344.542 70.0039 344.594 70.2158 344.699 70.4072C344.804 70.5986 344.961 70.7513 345.171 70.8652C345.385 70.9746 345.647 71.0293 345.957 71.0293C346.344 71.0293 346.686 70.9473 346.982 70.7832C347.279 70.6191 347.513 70.4186 347.687 70.1816C347.864 69.9447 347.96 69.7145 347.974 69.4912L348.514 70.0996C348.482 70.291 348.395 70.5029 348.254 70.7354C348.113 70.9678 347.924 71.1911 347.687 71.4053C347.454 71.6149 347.176 71.7904 346.853 71.9316C346.534 72.0684 346.174 72.1367 345.772 72.1367C345.271 72.1367 344.831 72.0387 344.453 71.8428C344.079 71.6468 343.788 71.3848 343.578 71.0566C343.373 70.724 343.271 70.3525 343.271 69.9424C343.271 69.5459 343.348 69.1973 343.503 68.8965C343.658 68.5911 343.881 68.3382 344.173 68.1377C344.465 67.9326 344.815 67.7777 345.226 67.6729C345.636 67.568 346.094 67.5156 346.6 67.5156H348.069ZM354.201 64.6035V65.5742H350.202V64.6035H354.201ZM351.556 62.8057H352.82V70.168C352.82 70.4186 352.859 70.6077 352.937 70.7354C353.014 70.863 353.114 70.9473 353.237 70.9883C353.36 71.0293 353.493 71.0498 353.634 71.0498C353.739 71.0498 353.848 71.0407 353.962 71.0225C354.08 70.9997 354.169 70.9814 354.229 70.9678L354.235 72C354.135 72.0319 354.003 72.0615 353.839 72.0889C353.679 72.1208 353.486 72.1367 353.258 72.1367C352.948 72.1367 352.663 72.0752 352.403 71.9521C352.144 71.8291 351.936 71.624 351.781 71.3369C351.631 71.0452 351.556 70.6533 351.556 70.1611V62.8057ZM360.046 70.7354V66.9277C360.046 66.6361 359.987 66.3831 359.868 66.1689C359.754 65.9502 359.581 65.7816 359.349 65.6631C359.116 65.5446 358.829 65.4854 358.487 65.4854C358.168 65.4854 357.888 65.54 357.646 65.6494C357.41 65.7588 357.223 65.9023 357.086 66.0801C356.954 66.2578 356.888 66.4492 356.888 66.6543H355.623C355.623 66.39 355.691 66.1279 355.828 65.8682C355.965 65.6084 356.161 65.3737 356.416 65.1641C356.676 64.9499 356.986 64.7812 357.346 64.6582C357.71 64.5306 358.116 64.4668 358.562 64.4668C359.1 64.4668 359.574 64.5579 359.984 64.7402C360.399 64.9225 360.723 65.1982 360.955 65.5674C361.192 65.932 361.311 66.39 361.311 66.9414V70.3867C361.311 70.6328 361.331 70.8949 361.372 71.1729C361.418 71.4508 361.484 71.6901 361.57 71.8906V72H360.251C360.187 71.8542 360.137 71.6605 360.101 71.4189C360.064 71.1729 360.046 70.945 360.046 70.7354ZM360.265 67.5156L360.278 68.4043H359C358.64 68.4043 358.319 68.4339 358.036 68.4932C357.754 68.5479 357.517 68.6322 357.325 68.7461C357.134 68.86 356.988 69.0036 356.888 69.1768C356.787 69.3454 356.737 69.5436 356.737 69.7715C356.737 70.0039 356.79 70.2158 356.895 70.4072C356.999 70.5986 357.157 70.7513 357.366 70.8652C357.58 70.9746 357.842 71.0293 358.152 71.0293C358.54 71.0293 358.882 70.9473 359.178 70.7832C359.474 70.6191 359.709 70.4186 359.882 70.1816C360.06 69.9447 360.155 69.7145 360.169 69.4912L360.709 70.0996C360.677 70.291 360.59 70.5029 360.449 70.7354C360.308 70.9678 360.119 71.1911 359.882 71.4053C359.649 71.6149 359.371 71.7904 359.048 71.9316C358.729 72.0684 358.369 72.1367 357.968 72.1367C357.466 72.1367 357.027 72.0387 356.648 71.8428C356.275 71.6468 355.983 71.3848 355.773 71.0566C355.568 70.724 355.466 70.3525 355.466 69.9424C355.466 69.5459 355.543 69.1973 355.698 68.8965C355.853 68.5911 356.076 68.3382 356.368 68.1377C356.66 67.9326 357.011 67.7777 357.421 67.6729C357.831 67.568 358.289 67.5156 358.795 67.5156H360.265Z" fill="#757575"/>
<rect x="423.5" y="0.5" width="39" height="39" rx="19.5" fill="white"/>
<path d="M448.186 21.9316V23.8066H437.932L437.854 22.3906L443.986 12.7812H445.871L443.83 16.2773L440.305 21.9316H448.186ZM446.408 12.7812V27H444.055V12.7812H446.408Z" fill="#BDBDBD"/>
<rect x="423.5" y="0.5" width="39" height="39" rx="19.5" stroke="#E0E0E0"/>
<rect x="479" y="18" width="69" height="4" rx="2" fill="#EEEEEE"/>
<path d="M427.826 68.0967H425.167V67.0234H427.826C428.341 67.0234 428.758 66.9414 429.077 66.7773C429.396 66.6133 429.629 66.3854 429.774 66.0938C429.925 65.8021 430 65.4694 430 65.0957C430 64.7539 429.925 64.4326 429.774 64.1318C429.629 63.8311 429.396 63.5895 429.077 63.4072C428.758 63.2204 428.341 63.127 427.826 63.127H425.475V72H424.155V62.0469H427.826C428.578 62.0469 429.214 62.1768 429.733 62.4365C430.253 62.6963 430.647 63.0563 430.916 63.5166C431.185 63.9723 431.319 64.4941 431.319 65.082C431.319 65.7201 431.185 66.2646 430.916 66.7158C430.647 67.167 430.253 67.5111 429.733 67.748C429.214 67.9805 428.578 68.0967 427.826 68.0967ZM434.061 65.7656V72H432.796V64.6035H434.026L434.061 65.7656ZM436.371 64.5625L436.364 65.7383C436.259 65.7155 436.159 65.7018 436.063 65.6973C435.972 65.6882 435.868 65.6836 435.749 65.6836C435.457 65.6836 435.2 65.7292 434.977 65.8203C434.753 65.9115 434.564 66.0391 434.409 66.2031C434.254 66.3672 434.131 66.5632 434.04 66.791C433.953 67.0143 433.896 67.2604 433.869 67.5293L433.514 67.7344C433.514 67.2878 433.557 66.8685 433.644 66.4766C433.735 66.0846 433.874 65.7383 434.061 65.4375C434.247 65.1322 434.484 64.8952 434.771 64.7266C435.063 64.5534 435.41 64.4668 435.811 64.4668C435.902 64.4668 436.007 64.4782 436.125 64.501C436.243 64.5192 436.326 64.5397 436.371 64.5625ZM441.628 70.7354V66.9277C441.628 66.6361 441.569 66.3831 441.45 66.1689C441.336 65.9502 441.163 65.7816 440.931 65.6631C440.698 65.5446 440.411 65.4854 440.069 65.4854C439.75 65.4854 439.47 65.54 439.229 65.6494C438.992 65.7588 438.805 65.9023 438.668 66.0801C438.536 66.2578 438.47 66.4492 438.47 66.6543H437.205C437.205 66.39 437.273 66.1279 437.41 65.8682C437.547 65.6084 437.743 65.3737 437.998 65.1641C438.258 64.9499 438.568 64.7812 438.928 64.6582C439.292 64.5306 439.698 64.4668 440.145 64.4668C440.682 64.4668 441.156 64.5579 441.566 64.7402C441.981 64.9225 442.305 65.1982 442.537 65.5674C442.774 65.932 442.893 66.39 442.893 66.9414V70.3867C442.893 70.6328 442.913 70.8949 442.954 71.1729C443 71.4508 443.066 71.6901 443.152 71.8906V72H441.833C441.769 71.8542 441.719 71.6605 441.683 71.4189C441.646 71.1729 441.628 70.945 441.628 70.7354ZM441.847 67.5156L441.86 68.4043H440.582C440.222 68.4043 439.901 68.4339 439.618 68.4932C439.336 68.5479 439.099 68.6322 438.907 68.7461C438.716 68.86 438.57 69.0036 438.47 69.1768C438.369 69.3454 438.319 69.5436 438.319 69.7715C438.319 70.0039 438.372 70.2158 438.477 70.4072C438.581 70.5986 438.739 70.7513 438.948 70.8652C439.162 70.9746 439.424 71.0293 439.734 71.0293C440.122 71.0293 440.464 70.9473 440.76 70.7832C441.056 70.6191 441.291 70.4186 441.464 70.1816C441.642 69.9447 441.737 69.7145 441.751 69.4912L442.291 70.0996C442.259 70.291 442.173 70.5029 442.031 70.7354C441.89 70.9678 441.701 71.1911 441.464 71.4053C441.231 71.6149 440.953 71.7904 440.63 71.9316C440.311 72.0684 439.951 72.1367 439.55 72.1367C439.049 72.1367 438.609 72.0387 438.23 71.8428C437.857 71.6468 437.565 71.3848 437.355 71.0566C437.15 70.724 437.048 70.3525 437.048 69.9424C437.048 69.5459 437.125 69.1973 437.28 68.8965C437.435 68.5911 437.659 68.3382 437.95 68.1377C438.242 67.9326 438.593 67.7777 439.003 67.6729C439.413 67.568 439.871 67.5156 440.377 67.5156H441.847ZM447.979 64.6035V65.5742H443.979V64.6035H447.979ZM445.333 62.8057H446.598V70.168C446.598 70.4186 446.636 70.6077 446.714 70.7354C446.791 70.863 446.892 70.9473 447.015 70.9883C447.138 71.0293 447.27 71.0498 447.411 71.0498C447.516 71.0498 447.625 71.0407 447.739 71.0225C447.858 70.9997 447.947 70.9814 448.006 70.9678L448.013 72C447.912 72.0319 447.78 72.0615 447.616 72.0889C447.457 72.1208 447.263 72.1367 447.035 72.1367C446.725 72.1367 446.44 72.0752 446.181 71.9521C445.921 71.8291 445.714 71.624 445.559 71.3369C445.408 71.0452 445.333 70.6533 445.333 70.1611V62.8057ZM450.836 64.6035V72H449.564V64.6035H450.836ZM449.469 62.6416C449.469 62.4365 449.53 62.2633 449.653 62.1221C449.781 61.9808 449.968 61.9102 450.214 61.9102C450.455 61.9102 450.64 61.9808 450.768 62.1221C450.9 62.2633 450.966 62.4365 450.966 62.6416C450.966 62.8376 450.9 63.0062 450.768 63.1475C450.64 63.2842 450.455 63.3525 450.214 63.3525C449.968 63.3525 449.781 63.2842 449.653 63.1475C449.53 63.0062 449.469 62.8376 449.469 62.6416ZM454.131 66.1826V72H452.866V64.6035H454.062L454.131 66.1826ZM453.83 68.0215L453.304 68.001C453.308 67.4951 453.383 67.028 453.529 66.5996C453.675 66.1667 453.88 65.7907 454.145 65.4717C454.409 65.1527 454.723 64.9066 455.088 64.7334C455.457 64.5557 455.865 64.4668 456.312 64.4668C456.676 64.4668 457.004 64.5169 457.296 64.6172C457.588 64.7129 457.836 64.8678 458.041 65.082C458.251 65.2962 458.41 65.5742 458.52 65.916C458.629 66.2533 458.684 66.6657 458.684 67.1533V72H457.412V67.1396C457.412 66.7523 457.355 66.4424 457.241 66.21C457.127 65.973 456.961 65.8021 456.742 65.6973C456.523 65.5879 456.255 65.5332 455.936 65.5332C455.621 65.5332 455.334 65.5993 455.074 65.7314C454.819 65.8636 454.598 66.0459 454.411 66.2783C454.229 66.5107 454.085 66.7773 453.98 67.0781C453.88 67.3743 453.83 67.6888 453.83 68.0215ZM460.639 64.6035H461.91V72.8818C461.91 73.333 461.837 73.7158 461.691 74.0303C461.55 74.3447 461.336 74.5817 461.049 74.7412C460.766 74.9053 460.409 74.9873 459.976 74.9873C459.862 74.9873 459.729 74.9759 459.579 74.9531C459.424 74.9303 459.294 74.903 459.189 74.8711L459.196 73.8525C459.283 73.8708 459.381 73.8844 459.49 73.8936C459.6 73.9072 459.695 73.9141 459.777 73.9141C459.964 73.9141 460.121 73.8799 460.249 73.8115C460.377 73.7432 460.472 73.6338 460.536 73.4834C460.604 73.333 460.639 73.1325 460.639 72.8818V64.6035ZM460.509 62.6416C460.509 62.4365 460.573 62.2633 460.7 62.1221C460.828 61.9808 461.012 61.9102 461.254 61.9102C461.5 61.9102 461.687 61.9808 461.814 62.1221C461.942 62.2633 462.006 62.4365 462.006 62.6416C462.006 62.8376 461.942 63.0062 461.814 63.1475C461.687 63.2842 461.5 63.3525 461.254 63.3525C461.012 63.3525 460.828 63.2842 460.7 63.1475C460.573 63.0062 460.509 62.8376 460.509 62.6416ZM468.315 70.7354V66.9277C468.315 66.6361 468.256 66.3831 468.138 66.1689C468.024 65.9502 467.851 65.7816 467.618 65.6631C467.386 65.5446 467.099 65.4854 466.757 65.4854C466.438 65.4854 466.158 65.54 465.916 65.6494C465.679 65.7588 465.492 65.9023 465.355 66.0801C465.223 66.2578 465.157 66.4492 465.157 66.6543H463.893C463.893 66.39 463.961 66.1279 464.098 65.8682C464.234 65.6084 464.43 65.3737 464.686 65.1641C464.945 64.9499 465.255 64.7812 465.615 64.6582C465.98 64.5306 466.385 64.4668 466.832 64.4668C467.37 64.4668 467.844 64.5579 468.254 64.7402C468.669 64.9225 468.992 65.1982 469.225 65.5674C469.462 65.932 469.58 66.39 469.58 66.9414V70.3867C469.58 70.6328 469.601 70.8949 469.642 71.1729C469.687 71.4508 469.753 71.6901 469.84 71.8906V72H468.521C468.457 71.8542 468.407 71.6605 468.37 71.4189C468.334 71.1729 468.315 70.945 468.315 70.7354ZM468.534 67.5156L468.548 68.4043H467.27C466.91 68.4043 466.588 68.4339 466.306 68.4932C466.023 68.5479 465.786 68.6322 465.595 68.7461C465.403 68.86 465.257 69.0036 465.157 69.1768C465.057 69.3454 465.007 69.5436 465.007 69.7715C465.007 70.0039 465.059 70.2158 465.164 70.4072C465.269 70.5986 465.426 70.7513 465.636 70.8652C465.85 70.9746 466.112 71.0293 466.422 71.0293C466.809 71.0293 467.151 70.9473 467.447 70.7832C467.743 70.6191 467.978 70.4186 468.151 70.1816C468.329 69.9447 468.425 69.7145 468.438 69.4912L468.979 70.0996C468.947 70.291 468.86 70.5029 468.719 70.7354C468.577 70.9678 468.388 71.1911 468.151 71.4053C467.919 71.6149 467.641 71.7904 467.317 71.9316C466.998 72.0684 466.638 72.1367 466.237 72.1367C465.736 72.1367 465.296 72.0387 464.918 71.8428C464.544 71.6468 464.253 71.3848 464.043 71.0566C463.838 70.724 463.735 70.3525 463.735 69.9424C463.735 69.5459 463.813 69.1973 463.968 68.8965C464.123 68.5911 464.346 68.3382 464.638 68.1377C464.929 67.9326 465.28 67.7777 465.69 67.6729C466.101 67.568 466.559 67.5156 467.064 67.5156H468.534ZM476.095 70.291V64.6035H477.366V72H476.156L476.095 70.291ZM476.334 68.7324L476.86 68.7188C476.86 69.2109 476.808 69.6667 476.703 70.0859C476.603 70.5007 476.439 70.8607 476.211 71.166C475.983 71.4714 475.685 71.7106 475.315 71.8838C474.946 72.0524 474.497 72.1367 473.969 72.1367C473.609 72.1367 473.278 72.0843 472.978 71.9795C472.681 71.8747 472.426 71.7129 472.212 71.4941C471.998 71.2754 471.831 70.9906 471.713 70.6396C471.599 70.2887 471.542 69.8672 471.542 69.375V64.6035H472.807V69.3887C472.807 69.7214 472.843 69.9971 472.916 70.2158C472.993 70.43 473.096 70.6009 473.224 70.7285C473.356 70.8516 473.502 70.9382 473.661 70.9883C473.825 71.0384 473.994 71.0635 474.167 71.0635C474.705 71.0635 475.131 70.9609 475.445 70.7559C475.76 70.5462 475.985 70.266 476.122 69.915C476.263 69.5596 476.334 69.1654 476.334 68.7324ZM485.651 72H483.573L483.587 70.9268H485.651C486.362 70.9268 486.955 70.7786 487.429 70.4824C487.903 70.1816 488.258 69.7624 488.495 69.2246C488.737 68.6823 488.857 68.0488 488.857 67.3242V66.7158C488.857 66.1462 488.789 65.6403 488.652 65.1982C488.516 64.7516 488.315 64.3757 488.051 64.0703C487.786 63.7604 487.463 63.5257 487.08 63.3662C486.702 63.2067 486.267 63.127 485.774 63.127H483.532V62.0469H485.774C486.426 62.0469 487.021 62.1562 487.559 62.375C488.096 62.5892 488.559 62.9014 488.946 63.3115C489.338 63.7171 489.639 64.2093 489.849 64.7881C490.058 65.3623 490.163 66.0094 490.163 66.7295V67.3242C490.163 68.0443 490.058 68.6937 489.849 69.2725C489.639 69.8467 489.336 70.3366 488.939 70.7422C488.548 71.1478 488.074 71.46 487.518 71.6787C486.966 71.8929 486.344 72 485.651 72ZM484.277 62.0469V72H482.958V62.0469H484.277ZM496.315 70.7354V66.9277C496.315 66.6361 496.256 66.3831 496.138 66.1689C496.024 65.9502 495.851 65.7816 495.618 65.6631C495.386 65.5446 495.099 65.4854 494.757 65.4854C494.438 65.4854 494.158 65.54 493.916 65.6494C493.679 65.7588 493.492 65.9023 493.355 66.0801C493.223 66.2578 493.157 66.4492 493.157 66.6543H491.893C491.893 66.39 491.961 66.1279 492.098 65.8682C492.234 65.6084 492.43 65.3737 492.686 65.1641C492.945 64.9499 493.255 64.7812 493.615 64.6582C493.98 64.5306 494.385 64.4668 494.832 64.4668C495.37 64.4668 495.844 64.5579 496.254 64.7402C496.669 64.9225 496.992 65.1982 497.225 65.5674C497.462 65.932 497.58 66.39 497.58 66.9414V70.3867C497.58 70.6328 497.601 70.8949 497.642 71.1729C497.687 71.4508 497.753 71.6901 497.84 71.8906V72H496.521C496.457 71.8542 496.407 71.6605 496.37 71.4189C496.334 71.1729 496.315 70.945 496.315 70.7354ZM496.534 67.5156L496.548 68.4043H495.27C494.91 68.4043 494.588 68.4339 494.306 68.4932C494.023 68.5479 493.786 68.6322 493.595 68.7461C493.403 68.86 493.257 69.0036 493.157 69.1768C493.057 69.3454 493.007 69.5436 493.007 69.7715C493.007 70.0039 493.059 70.2158 493.164 70.4072C493.269 70.5986 493.426 70.7513 493.636 70.8652C493.85 70.9746 494.112 71.0293 494.422 71.0293C494.809 71.0293 495.151 70.9473 495.447 70.7832C495.743 70.6191 495.978 70.4186 496.151 70.1816C496.329 69.9447 496.425 69.7145 496.438 69.4912L496.979 70.0996C496.947 70.291 496.86 70.5029 496.719 70.7354C496.577 70.9678 496.388 71.1911 496.151 71.4053C495.919 71.6149 495.641 71.7904 495.317 71.9316C494.998 72.0684 494.638 72.1367 494.237 72.1367C493.736 72.1367 493.296 72.0387 492.918 71.8428C492.544 71.6468 492.253 71.3848 492.043 71.0566C491.838 70.724 491.735 70.3525 491.735 69.9424C491.735 69.5459 491.813 69.1973 491.968 68.8965C492.123 68.5911 492.346 68.3382 492.638 68.1377C492.929 67.9326 493.28 67.7777 493.69 67.6729C494.101 67.568 494.559 67.5156 495.064 67.5156H496.534ZM502.666 64.6035V65.5742H498.667V64.6035H502.666ZM500.021 62.8057H501.285V70.168C501.285 70.4186 501.324 70.6077 501.401 70.7354C501.479 70.863 501.579 70.9473 501.702 70.9883C501.825 71.0293 501.957 71.0498 502.099 71.0498C502.203 71.0498 502.313 71.0407 502.427 71.0225C502.545 70.9997 502.634 70.9814 502.693 70.9678L502.7 72C502.6 72.0319 502.468 72.0615 502.304 72.0889C502.144 72.1208 501.951 72.1367 501.723 72.1367C501.413 72.1367 501.128 72.0752 500.868 71.9521C500.608 71.8291 500.401 71.624 500.246 71.3369C500.096 71.0452 500.021 70.6533 500.021 70.1611V62.8057ZM508.511 70.7354V66.9277C508.511 66.6361 508.451 66.3831 508.333 66.1689C508.219 65.9502 508.046 65.7816 507.813 65.6631C507.581 65.5446 507.294 65.4854 506.952 65.4854C506.633 65.4854 506.353 65.54 506.111 65.6494C505.874 65.7588 505.688 65.9023 505.551 66.0801C505.419 66.2578 505.353 66.4492 505.353 66.6543H504.088C504.088 66.39 504.156 66.1279 504.293 65.8682C504.43 65.6084 504.626 65.3737 504.881 65.1641C505.141 64.9499 505.451 64.7812 505.811 64.6582C506.175 64.5306 506.581 64.4668 507.027 64.4668C507.565 64.4668 508.039 64.5579 508.449 64.7402C508.864 64.9225 509.188 65.1982 509.42 65.5674C509.657 65.932 509.775 66.39 509.775 66.9414V70.3867C509.775 70.6328 509.796 70.8949 509.837 71.1729C509.882 71.4508 509.949 71.6901 510.035 71.8906V72H508.716C508.652 71.8542 508.602 71.6605 508.565 71.4189C508.529 71.1729 508.511 70.945 508.511 70.7354ZM508.729 67.5156L508.743 68.4043H507.465C507.105 68.4043 506.784 68.4339 506.501 68.4932C506.218 68.5479 505.981 68.6322 505.79 68.7461C505.599 68.86 505.453 69.0036 505.353 69.1768C505.252 69.3454 505.202 69.5436 505.202 69.7715C505.202 70.0039 505.255 70.2158 505.359 70.4072C505.464 70.5986 505.621 70.7513 505.831 70.8652C506.045 70.9746 506.307 71.0293 506.617 71.0293C507.005 71.0293 507.346 70.9473 507.643 70.7832C507.939 70.6191 508.174 70.4186 508.347 70.1816C508.524 69.9447 508.62 69.7145 508.634 69.4912L509.174 70.0996C509.142 70.291 509.055 70.5029 508.914 70.7354C508.773 70.9678 508.584 71.1911 508.347 71.4053C508.114 71.6149 507.836 71.7904 507.513 71.9316C507.194 72.0684 506.834 72.1367 506.433 72.1367C505.931 72.1367 505.492 72.0387 505.113 71.8428C504.74 71.6468 504.448 71.3848 504.238 71.0566C504.033 70.724 503.931 70.3525 503.931 69.9424C503.931 69.5459 504.008 69.1973 504.163 68.8965C504.318 68.5911 504.541 68.3382 504.833 68.1377C505.125 67.9326 505.476 67.7777 505.886 67.6729C506.296 67.568 506.754 67.5156 507.26 67.5156H508.729Z" fill="#757575"/>
<rect x="564.5" y="0.5" width="39" height="39" rx="19.5" fill="white"/>
<path d="M581.861 20.3887L579.986 19.9297L580.758 12.7812H588.424V14.7734H582.711L582.32 18.2598C582.542 18.1296 582.848 18.0026 583.238 17.8789C583.629 17.7487 584.075 17.6836 584.576 17.6836C585.247 17.6836 585.846 17.7943 586.373 18.0156C586.907 18.2305 587.359 18.5462 587.73 18.9629C588.102 19.373 588.385 19.8743 588.58 20.4668C588.775 21.0527 588.873 21.7135 588.873 22.4492C588.873 23.1068 588.775 23.722 588.58 24.2949C588.391 24.8678 588.105 25.3724 587.721 25.8086C587.337 26.2448 586.852 26.5866 586.266 26.834C585.686 27.0749 584.999 27.1953 584.205 27.1953C583.613 27.1953 583.043 27.1107 582.496 26.9414C581.956 26.7656 581.471 26.5085 581.041 26.1699C580.611 25.8249 580.266 25.4017 580.006 24.9004C579.745 24.3926 579.596 23.8099 579.557 23.1523H581.861C581.92 23.6146 582.047 24.0085 582.242 24.334C582.444 24.653 582.711 24.8971 583.043 25.0664C583.375 25.2357 583.759 25.3203 584.195 25.3203C584.592 25.3203 584.934 25.252 585.221 25.1152C585.507 24.972 585.745 24.7702 585.934 24.5098C586.129 24.2428 586.272 23.9303 586.363 23.5723C586.461 23.2142 586.51 22.8171 586.51 22.3809C586.51 21.9642 586.454 21.5833 586.344 21.2383C586.24 20.8932 586.08 20.5938 585.865 20.3398C585.657 20.0859 585.393 19.8906 585.074 19.7539C584.755 19.6107 584.387 19.5391 583.971 19.5391C583.411 19.5391 582.981 19.6204 582.682 19.7832C582.389 19.946 582.115 20.1478 581.861 20.3887Z" fill="#BDBDBD"/>
<rect x="564.5" y="0.5" width="39" height="39" rx="19.5" stroke="#E0E0E0"/>
<rect x="620" y="18" width="69" height="4" rx="2" fill="#EEEEEE"/>
<path d="M566.475 62.0469V72H565.155V62.0469H566.475ZM572.483 62.0469L568.348 66.6885L566.023 69.1016L565.805 67.6934L567.555 65.7656L570.897 62.0469H572.483ZM571.212 72L567.527 67.1465L568.313 66.1006L572.784 72H571.212ZM573.229 68.3838V68.2266C573.229 67.6934 573.306 67.1989 573.461 66.7432C573.616 66.2829 573.839 65.8841 574.131 65.5469C574.423 65.2051 574.776 64.9408 575.19 64.7539C575.605 64.5625 576.07 64.4668 576.585 64.4668C577.104 64.4668 577.572 64.5625 577.986 64.7539C578.406 64.9408 578.761 65.2051 579.053 65.5469C579.349 65.8841 579.575 66.2829 579.729 66.7432C579.884 67.1989 579.962 67.6934 579.962 68.2266V68.3838C579.962 68.917 579.884 69.4115 579.729 69.8672C579.575 70.3229 579.349 70.7217 579.053 71.0635C578.761 71.4007 578.408 71.665 577.993 71.8564C577.583 72.0433 577.118 72.1367 576.599 72.1367C576.079 72.1367 575.612 72.0433 575.197 71.8564C574.783 71.665 574.427 71.4007 574.131 71.0635C573.839 70.7217 573.616 70.3229 573.461 69.8672C573.306 69.4115 573.229 68.917 573.229 68.3838ZM574.493 68.2266V68.3838C574.493 68.7529 574.536 69.1016 574.623 69.4297C574.71 69.7533 574.84 70.0404 575.013 70.291C575.19 70.5417 575.411 70.7399 575.676 70.8857C575.94 71.027 576.248 71.0977 576.599 71.0977C576.945 71.0977 577.248 71.027 577.508 70.8857C577.772 70.7399 577.991 70.5417 578.164 70.291C578.337 70.0404 578.467 69.7533 578.554 69.4297C578.645 69.1016 578.69 68.7529 578.69 68.3838V68.2266C578.69 67.862 578.645 67.5179 578.554 67.1943C578.467 66.8662 578.335 66.5768 578.157 66.3262C577.984 66.071 577.765 65.8704 577.501 65.7246C577.241 65.5788 576.936 65.5059 576.585 65.5059C576.239 65.5059 575.933 65.5788 575.669 65.7246C575.409 65.8704 575.19 66.071 575.013 66.3262C574.84 66.5768 574.71 66.8662 574.623 67.1943C574.536 67.5179 574.493 67.862 574.493 68.2266ZM582.812 66.1826V72H581.548V64.6035H582.744L582.812 66.1826ZM582.512 68.0215L581.985 68.001C581.99 67.4951 582.065 67.028 582.211 66.5996C582.357 66.1667 582.562 65.7907 582.826 65.4717C583.09 65.1527 583.405 64.9066 583.77 64.7334C584.139 64.5557 584.547 64.4668 584.993 64.4668C585.358 64.4668 585.686 64.5169 585.978 64.6172C586.269 64.7129 586.518 64.8678 586.723 65.082C586.932 65.2962 587.092 65.5742 587.201 65.916C587.311 66.2533 587.365 66.6657 587.365 67.1533V72H586.094V67.1396C586.094 66.7523 586.037 66.4424 585.923 66.21C585.809 65.973 585.643 65.8021 585.424 65.6973C585.205 65.5879 584.936 65.5332 584.617 65.5332C584.303 65.5332 584.016 65.5993 583.756 65.7314C583.501 65.8636 583.28 66.0459 583.093 66.2783C582.91 66.5107 582.767 66.7773 582.662 67.0781C582.562 67.3743 582.512 67.6888 582.512 68.0215ZM593.593 70.0381C593.593 69.8558 593.552 69.6872 593.47 69.5322C593.392 69.3727 593.23 69.2292 592.984 69.1016C592.743 68.9694 592.378 68.8555 591.891 68.7598C591.48 68.6732 591.109 68.5706 590.776 68.4521C590.448 68.3337 590.168 68.1901 589.936 68.0215C589.708 67.8529 589.532 67.6546 589.409 67.4268C589.286 67.1989 589.225 66.9323 589.225 66.627C589.225 66.3353 589.288 66.0596 589.416 65.7998C589.548 65.54 589.733 65.3099 589.97 65.1094C590.211 64.9089 590.501 64.7516 590.838 64.6377C591.175 64.5238 591.551 64.4668 591.966 64.4668C592.558 64.4668 593.064 64.5716 593.483 64.7812C593.903 64.9909 594.224 65.2712 594.447 65.6221C594.671 65.9684 594.782 66.3535 594.782 66.7773H593.518C593.518 66.5723 593.456 66.374 593.333 66.1826C593.215 65.9867 593.039 65.8249 592.807 65.6973C592.579 65.5697 592.299 65.5059 591.966 65.5059C591.615 65.5059 591.33 65.5605 591.111 65.6699C590.897 65.7747 590.74 65.9092 590.64 66.0732C590.544 66.2373 590.496 66.4105 590.496 66.5928C590.496 66.7295 590.519 66.8525 590.564 66.9619C590.615 67.0667 590.701 67.1647 590.824 67.2559C590.947 67.3424 591.12 67.4245 591.344 67.502C591.567 67.5794 591.852 67.6569 592.198 67.7344C592.804 67.8711 593.303 68.0352 593.695 68.2266C594.087 68.418 594.379 68.6527 594.57 68.9307C594.762 69.2087 594.857 69.5459 594.857 69.9424C594.857 70.266 594.789 70.5622 594.652 70.8311C594.52 71.0999 594.326 71.3324 594.071 71.5283C593.821 71.7197 593.52 71.8701 593.169 71.9795C592.823 72.0843 592.433 72.1367 592 72.1367C591.348 72.1367 590.797 72.0205 590.346 71.7881C589.895 71.5557 589.553 71.2549 589.32 70.8857C589.088 70.5166 588.972 70.127 588.972 69.7168H590.243C590.261 70.0632 590.362 70.3389 590.544 70.5439C590.726 70.7445 590.95 70.888 591.214 70.9746C591.478 71.0566 591.74 71.0977 592 71.0977C592.346 71.0977 592.636 71.0521 592.868 70.9609C593.105 70.8698 593.285 70.7445 593.408 70.585C593.531 70.4255 593.593 70.2432 593.593 70.0381ZM601.044 70.291V64.6035H602.315V72H601.105L601.044 70.291ZM601.283 68.7324L601.81 68.7188C601.81 69.2109 601.757 69.6667 601.652 70.0859C601.552 70.5007 601.388 70.8607 601.16 71.166C600.932 71.4714 600.634 71.7106 600.265 71.8838C599.896 72.0524 599.447 72.1367 598.918 72.1367C598.558 72.1367 598.228 72.0843 597.927 71.9795C597.631 71.8747 597.375 71.7129 597.161 71.4941C596.947 71.2754 596.781 70.9906 596.662 70.6396C596.548 70.2887 596.491 69.8672 596.491 69.375V64.6035H597.756V69.3887C597.756 69.7214 597.792 69.9971 597.865 70.2158C597.943 70.43 598.045 70.6009 598.173 70.7285C598.305 70.8516 598.451 70.9382 598.61 70.9883C598.774 71.0384 598.943 71.0635 599.116 71.0635C599.654 71.0635 600.08 70.9609 600.395 70.7559C600.709 70.5462 600.935 70.266 601.071 69.915C601.213 69.5596 601.283 69.1654 601.283 68.7324ZM605.617 61.5V72H604.346V61.5H605.617ZM610.744 64.6035V65.5742H606.745V64.6035H610.744ZM608.099 62.8057H609.363V70.168C609.363 70.4186 609.402 70.6077 609.479 70.7354C609.557 70.863 609.657 70.9473 609.78 70.9883C609.903 71.0293 610.035 71.0498 610.177 71.0498C610.282 71.0498 610.391 71.0407 610.505 71.0225C610.623 70.9997 610.712 70.9814 610.771 70.9678L610.778 72C610.678 72.0319 610.546 72.0615 610.382 72.0889C610.222 72.1208 610.029 72.1367 609.801 72.1367C609.491 72.1367 609.206 72.0752 608.946 71.9521C608.687 71.8291 608.479 71.624 608.324 71.3369C608.174 71.0452 608.099 70.6533 608.099 70.1611V62.8057ZM616.589 70.7354V66.9277C616.589 66.6361 616.53 66.3831 616.411 66.1689C616.297 65.9502 616.124 65.7816 615.892 65.6631C615.659 65.5446 615.372 65.4854 615.03 65.4854C614.711 65.4854 614.431 65.54 614.189 65.6494C613.952 65.7588 613.766 65.9023 613.629 66.0801C613.497 66.2578 613.431 66.4492 613.431 66.6543H612.166C612.166 66.39 612.234 66.1279 612.371 65.8682C612.508 65.6084 612.704 65.3737 612.959 65.1641C613.219 64.9499 613.529 64.7812 613.889 64.6582C614.253 64.5306 614.659 64.4668 615.105 64.4668C615.643 64.4668 616.117 64.5579 616.527 64.7402C616.942 64.9225 617.266 65.1982 617.498 65.5674C617.735 65.932 617.854 66.39 617.854 66.9414V70.3867C617.854 70.6328 617.874 70.8949 617.915 71.1729C617.961 71.4508 618.027 71.6901 618.113 71.8906V72H616.794C616.73 71.8542 616.68 71.6605 616.644 71.4189C616.607 71.1729 616.589 70.945 616.589 70.7354ZM616.808 67.5156L616.821 68.4043H615.543C615.183 68.4043 614.862 68.4339 614.579 68.4932C614.297 68.5479 614.06 68.6322 613.868 68.7461C613.677 68.86 613.531 69.0036 613.431 69.1768C613.33 69.3454 613.28 69.5436 613.28 69.7715C613.28 70.0039 613.333 70.2158 613.438 70.4072C613.542 70.5986 613.7 70.7513 613.909 70.8652C614.123 70.9746 614.385 71.0293 614.695 71.0293C615.083 71.0293 615.424 70.9473 615.721 70.7832C616.017 70.6191 616.252 70.4186 616.425 70.1816C616.603 69.9447 616.698 69.7145 616.712 69.4912L617.252 70.0996C617.22 70.291 617.133 70.5029 616.992 70.7354C616.851 70.9678 616.662 71.1911 616.425 71.4053C616.192 71.6149 615.914 71.7904 615.591 71.9316C615.272 72.0684 614.912 72.1367 614.511 72.1367C614.009 72.1367 613.57 72.0387 613.191 71.8428C612.818 71.6468 612.526 71.3848 612.316 71.0566C612.111 70.724 612.009 70.3525 612.009 69.9424C612.009 69.5459 612.086 69.1973 612.241 68.8965C612.396 68.5911 612.619 68.3382 612.911 68.1377C613.203 67.9326 613.554 67.7777 613.964 67.6729C614.374 67.568 614.832 67.5156 615.338 67.5156H616.808ZM624.149 70.0381C624.149 69.8558 624.108 69.6872 624.026 69.5322C623.949 69.3727 623.787 69.2292 623.541 69.1016C623.299 68.9694 622.935 68.8555 622.447 68.7598C622.037 68.6732 621.666 68.5706 621.333 68.4521C621.005 68.3337 620.725 68.1901 620.492 68.0215C620.264 67.8529 620.089 67.6546 619.966 67.4268C619.843 67.1989 619.781 66.9323 619.781 66.627C619.781 66.3353 619.845 66.0596 619.973 65.7998C620.105 65.54 620.289 65.3099 620.526 65.1094C620.768 64.9089 621.057 64.7516 621.395 64.6377C621.732 64.5238 622.108 64.4668 622.522 64.4668C623.115 64.4668 623.621 64.5716 624.04 64.7812C624.459 64.9909 624.781 65.2712 625.004 65.6221C625.227 65.9684 625.339 66.3535 625.339 66.7773H624.074C624.074 66.5723 624.013 66.374 623.89 66.1826C623.771 65.9867 623.596 65.8249 623.363 65.6973C623.135 65.5697 622.855 65.5059 622.522 65.5059C622.172 65.5059 621.887 65.5605 621.668 65.6699C621.454 65.7747 621.297 65.9092 621.196 66.0732C621.101 66.2373 621.053 66.4105 621.053 66.5928C621.053 66.7295 621.076 66.8525 621.121 66.9619C621.171 67.0667 621.258 67.1647 621.381 67.2559C621.504 67.3424 621.677 67.4245 621.9 67.502C622.124 67.5794 622.409 67.6569 622.755 67.7344C623.361 67.8711 623.86 68.0352 624.252 68.2266C624.644 68.418 624.936 68.6527 625.127 68.9307C625.318 69.2087 625.414 69.5459 625.414 69.9424C625.414 70.266 625.346 70.5622 625.209 70.8311C625.077 71.0999 624.883 71.3324 624.628 71.5283C624.377 71.7197 624.076 71.8701 623.726 71.9795C623.379 72.0843 622.99 72.1367 622.557 72.1367C621.905 72.1367 621.354 72.0205 620.902 71.7881C620.451 71.5557 620.109 71.2549 619.877 70.8857C619.645 70.5166 619.528 70.127 619.528 69.7168H620.8C620.818 70.0632 620.918 70.3389 621.101 70.5439C621.283 70.7445 621.506 70.888 621.771 70.9746C622.035 71.0566 622.297 71.0977 622.557 71.0977C622.903 71.0977 623.192 71.0521 623.425 70.9609C623.662 70.8698 623.842 70.7445 623.965 70.585C624.088 70.4255 624.149 70.2432 624.149 70.0381ZM628.449 64.6035V72H627.178V64.6035H628.449ZM627.082 62.6416C627.082 62.4365 627.144 62.2633 627.267 62.1221C627.394 61.9808 627.581 61.9102 627.827 61.9102C628.069 61.9102 628.253 61.9808 628.381 62.1221C628.513 62.2633 628.579 62.4365 628.579 62.6416C628.579 62.8376 628.513 63.0062 628.381 63.1475C628.253 63.2842 628.069 63.3525 627.827 63.3525C627.581 63.3525 627.394 63.2842 627.267 63.1475C627.144 63.0062 627.082 62.8376 627.082 62.6416Z" fill="#757575"/>
<rect x="705.5" y="0.5" width="39" height="39" rx="19.5" fill="white"/>
<path d="M727.5 12.6934H727.793V14.6172H727.627C726.787 14.6172 726.061 14.7474 725.449 15.0078C724.844 15.2682 724.346 15.6263 723.955 16.082C723.564 16.5378 723.271 17.0716 723.076 17.6836C722.887 18.2891 722.793 18.9336 722.793 19.6172V21.8535C722.793 22.4199 722.855 22.9212 722.979 23.3574C723.102 23.7871 723.275 24.1484 723.496 24.4414C723.724 24.7279 723.984 24.946 724.277 25.0957C724.57 25.2454 724.886 25.3203 725.225 25.3203C725.576 25.3203 725.895 25.2487 726.182 25.1055C726.468 24.9557 726.712 24.7507 726.914 24.4902C727.116 24.2298 727.269 23.9206 727.373 23.5625C727.477 23.2044 727.529 22.8138 727.529 22.3906C727.529 21.987 727.477 21.6094 727.373 21.2578C727.275 20.8997 727.129 20.5872 726.934 20.3203C726.738 20.0469 726.494 19.8353 726.201 19.6855C725.915 19.5293 725.583 19.4512 725.205 19.4512C724.736 19.4512 724.31 19.5618 723.926 19.7832C723.548 20.0046 723.242 20.2943 723.008 20.6523C722.78 21.0039 722.656 21.3783 722.637 21.7754L721.738 21.4824C721.79 20.877 721.924 20.3333 722.139 19.8516C722.36 19.3698 722.65 18.9596 723.008 18.6211C723.366 18.2826 723.779 18.0254 724.248 17.8496C724.723 17.6673 725.244 17.5762 725.811 17.5762C726.501 17.5762 727.1 17.7064 727.607 17.9668C728.115 18.2272 728.535 18.582 728.867 19.0312C729.206 19.474 729.456 19.9818 729.619 20.5547C729.788 21.1211 729.873 21.7135 729.873 22.332C729.873 23.0156 729.769 23.6536 729.561 24.2461C729.352 24.832 729.046 25.3464 728.643 25.7891C728.245 26.2318 727.76 26.5768 727.188 26.8242C726.621 27.0716 725.977 27.1953 725.254 27.1953C724.492 27.1953 723.812 27.0488 723.213 26.7559C722.62 26.4629 722.116 26.0592 721.699 25.5449C721.289 25.0306 720.977 24.4382 720.762 23.7676C720.547 23.097 720.439 22.3874 720.439 21.6387V20.6621C720.439 19.5814 720.576 18.5625 720.85 17.6055C721.123 16.6419 721.543 15.7923 722.109 15.0566C722.682 14.321 723.415 13.7448 724.307 13.3281C725.199 12.9049 726.263 12.6934 727.5 12.6934Z" fill="#BDBDBD"/>
<rect x="705.5" y="0.5" width="39" height="39" rx="19.5" stroke="#E0E0E0"/>
<path d="M711.46 69.4844C711.46 69.252 711.424 69.0469 711.351 68.8691C711.282 68.6868 711.159 68.5228 710.981 68.377C710.808 68.2311 710.567 68.0921 710.257 67.96C709.951 67.8278 709.564 67.6934 709.095 67.5566C708.603 67.4108 708.158 67.249 707.762 67.0713C707.365 66.889 707.026 66.6816 706.743 66.4492C706.461 66.2168 706.244 65.9502 706.094 65.6494C705.943 65.3486 705.868 65.0046 705.868 64.6172C705.868 64.2298 705.948 63.8721 706.107 63.5439C706.267 63.2158 706.495 62.931 706.791 62.6895C707.092 62.4434 707.45 62.252 707.864 62.1152C708.279 61.9785 708.742 61.9102 709.252 61.9102C709.999 61.9102 710.633 62.0537 711.152 62.3408C711.676 62.6234 712.075 62.9948 712.349 63.4551C712.622 63.9108 712.759 64.3984 712.759 64.918H711.446C711.446 64.5443 711.367 64.2139 711.207 63.9268C711.048 63.6351 710.806 63.4072 710.482 63.2432C710.159 63.0745 709.749 62.9902 709.252 62.9902C708.783 62.9902 708.395 63.0609 708.09 63.2021C707.785 63.3434 707.557 63.5348 707.406 63.7764C707.26 64.0179 707.188 64.2936 707.188 64.6035C707.188 64.8132 707.231 65.0046 707.317 65.1777C707.409 65.3464 707.548 65.5036 707.734 65.6494C707.926 65.7952 708.167 65.9297 708.459 66.0527C708.755 66.1758 709.108 66.2943 709.519 66.4082C710.084 66.5677 710.571 66.7454 710.981 66.9414C711.392 67.1374 711.729 67.3584 711.993 67.6045C712.262 67.846 712.46 68.1217 712.588 68.4316C712.72 68.737 712.786 69.0833 712.786 69.4707C712.786 69.8763 712.704 70.2432 712.54 70.5713C712.376 70.8994 712.141 71.1797 711.836 71.4121C711.531 71.6445 711.164 71.8245 710.735 71.9521C710.312 72.0752 709.838 72.1367 709.313 72.1367C708.853 72.1367 708.4 72.0729 707.953 71.9453C707.511 71.8177 707.108 71.6263 706.743 71.3711C706.383 71.1159 706.094 70.8014 705.875 70.4277C705.661 70.0495 705.554 69.612 705.554 69.1152H706.866C706.866 69.457 706.932 69.751 707.064 69.9971C707.197 70.2386 707.377 70.4391 707.604 70.5986C707.837 70.7581 708.099 70.8766 708.391 70.9541C708.687 71.027 708.994 71.0635 709.313 71.0635C709.774 71.0635 710.163 70.9997 710.482 70.8721C710.801 70.7445 711.043 70.5622 711.207 70.3252C711.376 70.0882 711.46 69.8079 711.46 69.4844ZM717.346 72.1367C716.831 72.1367 716.364 72.0501 715.944 71.877C715.53 71.6992 715.172 71.4508 714.871 71.1318C714.575 70.8128 714.347 70.4346 714.188 69.9971C714.028 69.5596 713.948 69.0811 713.948 68.5615V68.2744C713.948 67.6729 714.037 67.1374 714.215 66.668C714.393 66.194 714.634 65.793 714.939 65.4648C715.245 65.1367 715.591 64.8883 715.979 64.7197C716.366 64.5511 716.767 64.4668 717.182 64.4668C717.71 64.4668 718.166 64.5579 718.549 64.7402C718.936 64.9225 719.253 65.1777 719.499 65.5059C719.745 65.8294 719.927 66.2122 720.046 66.6543C720.164 67.0918 720.224 67.5703 720.224 68.0898V68.6572H714.7V67.625H718.959V67.5293C718.941 67.2012 718.872 66.8822 718.754 66.5723C718.64 66.2624 718.458 66.0072 718.207 65.8066C717.956 65.6061 717.615 65.5059 717.182 65.5059C716.895 65.5059 716.63 65.5674 716.389 65.6904C716.147 65.8089 715.94 65.9867 715.767 66.2236C715.593 66.4606 715.459 66.75 715.363 67.0918C715.268 67.4336 715.22 67.8278 715.22 68.2744V68.5615C715.22 68.9124 715.268 69.2428 715.363 69.5527C715.464 69.8581 715.607 70.127 715.794 70.3594C715.985 70.5918 716.215 70.7741 716.484 70.9062C716.758 71.0384 717.068 71.1045 717.414 71.1045C717.861 71.1045 718.239 71.0133 718.549 70.8311C718.859 70.6488 719.13 70.4049 719.362 70.0996L720.128 70.708C719.968 70.9495 719.766 71.1797 719.52 71.3984C719.273 71.6172 718.97 71.7949 718.61 71.9316C718.255 72.0684 717.833 72.1367 717.346 72.1367ZM723.074 61.5V72H721.803V61.5H723.074ZM728.174 72.1367C727.659 72.1367 727.192 72.0501 726.772 71.877C726.358 71.6992 726 71.4508 725.699 71.1318C725.403 70.8128 725.175 70.4346 725.016 69.9971C724.856 69.5596 724.776 69.0811 724.776 68.5615V68.2744C724.776 67.6729 724.865 67.1374 725.043 66.668C725.221 66.194 725.462 65.793 725.768 65.4648C726.073 65.1367 726.419 64.8883 726.807 64.7197C727.194 64.5511 727.595 64.4668 728.01 64.4668C728.538 64.4668 728.994 64.5579 729.377 64.7402C729.764 64.9225 730.081 65.1777 730.327 65.5059C730.573 65.8294 730.756 66.2122 730.874 66.6543C730.993 67.0918 731.052 67.5703 731.052 68.0898V68.6572H725.528V67.625H729.787V67.5293C729.769 67.2012 729.701 66.8822 729.582 66.5723C729.468 66.2624 729.286 66.0072 729.035 65.8066C728.785 65.6061 728.443 65.5059 728.01 65.5059C727.723 65.5059 727.458 65.5674 727.217 65.6904C726.975 65.8089 726.768 65.9867 726.595 66.2236C726.422 66.4606 726.287 66.75 726.191 67.0918C726.096 67.4336 726.048 67.8278 726.048 68.2744V68.5615C726.048 68.9124 726.096 69.2428 726.191 69.5527C726.292 69.8581 726.435 70.127 726.622 70.3594C726.813 70.5918 727.044 70.7741 727.312 70.9062C727.586 71.0384 727.896 71.1045 728.242 71.1045C728.689 71.1045 729.067 71.0133 729.377 70.8311C729.687 70.6488 729.958 70.4049 730.19 70.0996L730.956 70.708C730.797 70.9495 730.594 71.1797 730.348 71.3984C730.102 71.6172 729.799 71.7949 729.438 71.9316C729.083 72.0684 728.661 72.1367 728.174 72.1367ZM736.835 70.0381C736.835 69.8558 736.794 69.6872 736.712 69.5322C736.634 69.3727 736.473 69.2292 736.227 69.1016C735.985 68.9694 735.62 68.8555 735.133 68.7598C734.723 68.6732 734.351 68.5706 734.019 68.4521C733.69 68.3337 733.41 68.1901 733.178 68.0215C732.95 67.8529 732.774 67.6546 732.651 67.4268C732.528 67.1989 732.467 66.9323 732.467 66.627C732.467 66.3353 732.531 66.0596 732.658 65.7998C732.79 65.54 732.975 65.3099 733.212 65.1094C733.453 64.9089 733.743 64.7516 734.08 64.6377C734.417 64.5238 734.793 64.4668 735.208 64.4668C735.8 64.4668 736.306 64.5716 736.726 64.7812C737.145 64.9909 737.466 65.2712 737.689 65.6221C737.913 65.9684 738.024 66.3535 738.024 66.7773H736.76C736.76 66.5723 736.698 66.374 736.575 66.1826C736.457 65.9867 736.281 65.8249 736.049 65.6973C735.821 65.5697 735.541 65.5059 735.208 65.5059C734.857 65.5059 734.572 65.5605 734.354 65.6699C734.139 65.7747 733.982 65.9092 733.882 66.0732C733.786 66.2373 733.738 66.4105 733.738 66.5928C733.738 66.7295 733.761 66.8525 733.807 66.9619C733.857 67.0667 733.943 67.1647 734.066 67.2559C734.189 67.3424 734.363 67.4245 734.586 67.502C734.809 67.5794 735.094 67.6569 735.44 67.7344C736.047 67.8711 736.546 68.0352 736.938 68.2266C737.329 68.418 737.621 68.6527 737.812 68.9307C738.004 69.2087 738.1 69.5459 738.1 69.9424C738.1 70.266 738.031 70.5622 737.895 70.8311C737.762 71.0999 737.569 71.3324 737.313 71.5283C737.063 71.7197 736.762 71.8701 736.411 71.9795C736.065 72.0843 735.675 72.1367 735.242 72.1367C734.59 72.1367 734.039 72.0205 733.588 71.7881C733.137 71.5557 732.795 71.2549 732.562 70.8857C732.33 70.5166 732.214 70.127 732.214 69.7168H733.485C733.504 70.0632 733.604 70.3389 733.786 70.5439C733.968 70.7445 734.192 70.888 734.456 70.9746C734.72 71.0566 734.982 71.0977 735.242 71.0977C735.589 71.0977 735.878 71.0521 736.11 70.9609C736.347 70.8698 736.527 70.7445 736.65 70.585C736.773 70.4255 736.835 70.2432 736.835 70.0381ZM744.122 70.7354V66.9277C744.122 66.6361 744.063 66.3831 743.944 66.1689C743.83 65.9502 743.657 65.7816 743.425 65.6631C743.192 65.5446 742.905 65.4854 742.563 65.4854C742.244 65.4854 741.964 65.54 741.723 65.6494C741.486 65.7588 741.299 65.9023 741.162 66.0801C741.03 66.2578 740.964 66.4492 740.964 66.6543H739.699C739.699 66.39 739.768 66.1279 739.904 65.8682C740.041 65.6084 740.237 65.3737 740.492 65.1641C740.752 64.9499 741.062 64.7812 741.422 64.6582C741.786 64.5306 742.192 64.4668 742.639 64.4668C743.176 64.4668 743.65 64.5579 744.061 64.7402C744.475 64.9225 744.799 65.1982 745.031 65.5674C745.268 65.932 745.387 66.39 745.387 66.9414V70.3867C745.387 70.6328 745.407 70.8949 745.448 71.1729C745.494 71.4508 745.56 71.6901 745.646 71.8906V72H744.327C744.263 71.8542 744.213 71.6605 744.177 71.4189C744.14 71.1729 744.122 70.945 744.122 70.7354ZM744.341 67.5156L744.354 68.4043H743.076C742.716 68.4043 742.395 68.4339 742.112 68.4932C741.83 68.5479 741.593 68.6322 741.401 68.7461C741.21 68.86 741.064 69.0036 740.964 69.1768C740.864 69.3454 740.813 69.5436 740.813 69.7715C740.813 70.0039 740.866 70.2158 740.971 70.4072C741.076 70.5986 741.233 70.7513 741.442 70.8652C741.657 70.9746 741.919 71.0293 742.229 71.0293C742.616 71.0293 742.958 70.9473 743.254 70.7832C743.55 70.6191 743.785 70.4186 743.958 70.1816C744.136 69.9447 744.231 69.7145 744.245 69.4912L744.785 70.0996C744.753 70.291 744.667 70.5029 744.525 70.7354C744.384 70.9678 744.195 71.1911 743.958 71.4053C743.726 71.6149 743.448 71.7904 743.124 71.9316C742.805 72.0684 742.445 72.1367 742.044 72.1367C741.543 72.1367 741.103 72.0387 740.725 71.8428C740.351 71.6468 740.059 71.3848 739.85 71.0566C739.645 70.724 739.542 70.3525 739.542 69.9424C739.542 69.5459 739.619 69.1973 739.774 68.8965C739.929 68.5911 740.153 68.3382 740.444 68.1377C740.736 67.9326 741.087 67.7777 741.497 67.6729C741.907 67.568 742.365 67.5156 742.871 67.5156H744.341ZM748.75 64.6035V72H747.479V64.6035H748.75ZM747.383 62.6416C747.383 62.4365 747.444 62.2633 747.567 62.1221C747.695 61.9808 747.882 61.9102 748.128 61.9102C748.369 61.9102 748.554 61.9808 748.682 62.1221C748.814 62.2633 748.88 62.4365 748.88 62.6416C748.88 62.8376 748.814 63.0062 748.682 63.1475C748.554 63.2842 748.369 63.3525 748.128 63.3525C747.882 63.3525 747.695 63.2842 747.567 63.1475C747.444 63.0062 747.383 62.8376 747.383 62.6416Z" fill="#757575"/>
</svg>
