<svg width="1440" height="119" viewBox="0 0 1440 119" fill="none" xmlns="http://www.w3.org/2000/svg">
<rect x="345" width="40" height="40" rx="20" fill="#069550"/>
<g clip-path="url(#clip0_5237_160311)">
<path d="M372.531 16.9122L364.091 25.3523C363.466 25.9774 362.452 25.9774 361.826 25.3523L357.469 20.9948C356.844 20.3696 356.844 19.3556 357.469 18.7303C358.094 18.1049 359.108 18.1049 359.733 18.7301L362.959 21.9555L370.267 14.6476C370.892 14.0222 371.906 14.0227 372.531 14.6476C373.156 15.2729 373.156 16.2865 372.531 16.9122Z" fill="white"/>
</g>
<rect x="401" y="18" width="96.25" height="4" rx="2" fill="#069550"/>
<path d="M347.57 62.0469V72H346.251V62.0469H347.57ZM354.44 70.5645V61.5H355.712V72H354.55L354.44 70.5645ZM349.464 68.3838V68.2402C349.464 67.6751 349.532 67.1624 349.669 66.7021C349.81 66.2373 350.008 65.8385 350.264 65.5059C350.523 65.1732 350.831 64.918 351.187 64.7402C351.547 64.5579 351.948 64.4668 352.39 64.4668C352.854 64.4668 353.26 64.5488 353.606 64.7129C353.957 64.8724 354.254 65.1071 354.495 65.417C354.741 65.7223 354.935 66.0915 355.076 66.5244C355.217 66.9574 355.315 67.4473 355.37 67.9941V68.623C355.32 69.1654 355.222 69.653 355.076 70.0859C354.935 70.5189 354.741 70.888 354.495 71.1934C354.254 71.4987 353.957 71.7334 353.606 71.8975C353.256 72.057 352.845 72.1367 352.376 72.1367C351.943 72.1367 351.547 72.0433 351.187 71.8564C350.831 71.6696 350.523 71.4076 350.264 71.0703C350.008 70.7331 349.81 70.3366 349.669 69.8809C349.532 69.4206 349.464 68.9215 349.464 68.3838ZM350.735 68.2402V68.3838C350.735 68.7529 350.772 69.0993 350.845 69.4229C350.922 69.7464 351.041 70.0312 351.2 70.2773C351.36 70.5234 351.562 70.7171 351.809 70.8584C352.055 70.9951 352.349 71.0635 352.69 71.0635C353.11 71.0635 353.454 70.9746 353.723 70.7969C353.996 70.6191 354.215 70.3844 354.379 70.0928C354.543 69.8011 354.671 69.4844 354.762 69.1426V67.4951C354.707 67.2445 354.627 67.0029 354.522 66.7705C354.422 66.5335 354.29 66.3239 354.126 66.1416C353.966 65.9548 353.768 65.8066 353.531 65.6973C353.299 65.5879 353.023 65.5332 352.704 65.5332C352.358 65.5332 352.059 65.6061 351.809 65.752C351.562 65.8932 351.36 66.0892 351.2 66.3398C351.041 66.5859 350.922 66.873 350.845 67.2012C350.772 67.5247 350.735 67.8711 350.735 68.2402ZM360.75 72.1367C360.235 72.1367 359.768 72.0501 359.349 71.877C358.934 71.6992 358.576 71.4508 358.275 71.1318C357.979 70.8128 357.751 70.4346 357.592 69.9971C357.432 69.5596 357.353 69.0811 357.353 68.5615V68.2744C357.353 67.6729 357.441 67.1374 357.619 66.668C357.797 66.194 358.038 65.793 358.344 65.4648C358.649 65.1367 358.995 64.8883 359.383 64.7197C359.77 64.5511 360.171 64.4668 360.586 64.4668C361.115 64.4668 361.57 64.5579 361.953 64.7402C362.34 64.9225 362.657 65.1777 362.903 65.5059C363.149 65.8294 363.332 66.2122 363.45 66.6543C363.569 67.0918 363.628 67.5703 363.628 68.0898V68.6572H358.104V67.625H362.363V67.5293C362.345 67.2012 362.277 66.8822 362.158 66.5723C362.044 66.2624 361.862 66.0072 361.611 65.8066C361.361 65.6061 361.019 65.5059 360.586 65.5059C360.299 65.5059 360.035 65.5674 359.793 65.6904C359.551 65.8089 359.344 65.9867 359.171 66.2236C358.998 66.4606 358.863 66.75 358.768 67.0918C358.672 67.4336 358.624 67.8278 358.624 68.2744V68.5615C358.624 68.9124 358.672 69.2428 358.768 69.5527C358.868 69.8581 359.011 70.127 359.198 70.3594C359.39 70.5918 359.62 70.7741 359.889 70.9062C360.162 71.0384 360.472 71.1045 360.818 71.1045C361.265 71.1045 361.643 71.0133 361.953 70.8311C362.263 70.6488 362.534 70.4049 362.767 70.0996L363.532 70.708C363.373 70.9495 363.17 71.1797 362.924 71.3984C362.678 71.6172 362.375 71.7949 362.015 71.9316C361.659 72.0684 361.238 72.1367 360.75 72.1367ZM366.369 66.1826V72H365.104V64.6035H366.301L366.369 66.1826ZM366.068 68.0215L365.542 68.001C365.547 67.4951 365.622 67.028 365.768 66.5996C365.913 66.1667 366.118 65.7907 366.383 65.4717C366.647 65.1527 366.962 64.9066 367.326 64.7334C367.695 64.5557 368.103 64.4668 368.55 64.4668C368.914 64.4668 369.243 64.5169 369.534 64.6172C369.826 64.7129 370.074 64.8678 370.279 65.082C370.489 65.2962 370.648 65.5742 370.758 65.916C370.867 66.2533 370.922 66.6657 370.922 67.1533V72H369.65V67.1396C369.65 66.7523 369.593 66.4424 369.479 66.21C369.366 65.973 369.199 65.8021 368.98 65.6973C368.762 65.5879 368.493 65.5332 368.174 65.5332C367.859 65.5332 367.572 65.5993 367.312 65.7314C367.057 65.8636 366.836 66.0459 366.649 66.2783C366.467 66.5107 366.324 66.7773 366.219 67.0781C366.118 67.3743 366.068 67.6888 366.068 68.0215ZM375.939 64.6035V65.5742H371.94V64.6035H375.939ZM373.294 62.8057H374.559V70.168C374.559 70.4186 374.597 70.6077 374.675 70.7354C374.752 70.863 374.853 70.9473 374.976 70.9883C375.099 71.0293 375.231 71.0498 375.372 71.0498C375.477 71.0498 375.586 71.0407 375.7 71.0225C375.819 70.9997 375.908 70.9814 375.967 70.9678L375.974 72C375.873 72.0319 375.741 72.0615 375.577 72.0889C375.418 72.1208 375.224 72.1367 374.996 72.1367C374.686 72.1367 374.401 72.0752 374.142 71.9521C373.882 71.8291 373.674 71.624 373.52 71.3369C373.369 71.0452 373.294 70.6533 373.294 70.1611V62.8057ZM378.797 64.6035V72H377.525V64.6035H378.797ZM377.43 62.6416C377.43 62.4365 377.491 62.2633 377.614 62.1221C377.742 61.9808 377.929 61.9102 378.175 61.9102C378.416 61.9102 378.601 61.9808 378.729 62.1221C378.861 62.2633 378.927 62.4365 378.927 62.6416C378.927 62.8376 378.861 63.0062 378.729 63.1475C378.601 63.2842 378.416 63.3525 378.175 63.3525C377.929 63.3525 377.742 63.2842 377.614 63.1475C377.491 63.0062 377.43 62.8376 377.43 62.6416ZM383.924 64.6035V65.5742H379.925V64.6035H383.924ZM381.278 62.8057H382.543V70.168C382.543 70.4186 382.582 70.6077 382.659 70.7354C382.737 70.863 382.837 70.9473 382.96 70.9883C383.083 71.0293 383.215 71.0498 383.356 71.0498C383.461 71.0498 383.571 71.0407 383.685 71.0225C383.803 70.9997 383.892 70.9814 383.951 70.9678L383.958 72C383.858 72.0319 383.726 72.0615 383.562 72.0889C383.402 72.1208 383.208 72.1367 382.98 72.1367C382.671 72.1367 382.386 72.0752 382.126 71.9521C381.866 71.8291 381.659 71.624 381.504 71.3369C381.354 71.0452 381.278 70.6533 381.278 70.1611V62.8057ZM389.769 70.7354V66.9277C389.769 66.6361 389.709 66.3831 389.591 66.1689C389.477 65.9502 389.304 65.7816 389.071 65.6631C388.839 65.5446 388.552 65.4854 388.21 65.4854C387.891 65.4854 387.611 65.54 387.369 65.6494C387.132 65.7588 386.945 65.9023 386.809 66.0801C386.676 66.2578 386.61 66.4492 386.61 66.6543H385.346C385.346 66.39 385.414 66.1279 385.551 65.8682C385.688 65.6084 385.883 65.3737 386.139 65.1641C386.398 64.9499 386.708 64.7812 387.068 64.6582C387.433 64.5306 387.839 64.4668 388.285 64.4668C388.823 64.4668 389.297 64.5579 389.707 64.7402C390.122 64.9225 390.445 65.1982 390.678 65.5674C390.915 65.932 391.033 66.39 391.033 66.9414V70.3867C391.033 70.6328 391.054 70.8949 391.095 71.1729C391.14 71.4508 391.206 71.6901 391.293 71.8906V72H389.974C389.91 71.8542 389.86 71.6605 389.823 71.4189C389.787 71.1729 389.769 70.945 389.769 70.7354ZM389.987 67.5156L390.001 68.4043H388.723C388.363 68.4043 388.041 68.4339 387.759 68.4932C387.476 68.5479 387.239 68.6322 387.048 68.7461C386.856 68.86 386.711 69.0036 386.61 69.1768C386.51 69.3454 386.46 69.5436 386.46 69.7715C386.46 70.0039 386.512 70.2158 386.617 70.4072C386.722 70.5986 386.879 70.7513 387.089 70.8652C387.303 70.9746 387.565 71.0293 387.875 71.0293C388.262 71.0293 388.604 70.9473 388.9 70.7832C389.197 70.6191 389.431 70.4186 389.604 70.1816C389.782 69.9447 389.878 69.7145 389.892 69.4912L390.432 70.0996C390.4 70.291 390.313 70.5029 390.172 70.7354C390.031 70.9678 389.841 71.1911 389.604 71.4053C389.372 71.6149 389.094 71.7904 388.771 71.9316C388.451 72.0684 388.091 72.1367 387.69 72.1367C387.189 72.1367 386.749 72.0387 386.371 71.8428C385.997 71.6468 385.706 71.3848 385.496 71.0566C385.291 70.724 385.188 70.3525 385.188 69.9424C385.188 69.5459 385.266 69.1973 385.421 68.8965C385.576 68.5911 385.799 68.3382 386.091 68.1377C386.382 67.9326 386.733 67.7777 387.144 67.6729C387.554 67.568 388.012 67.5156 388.518 67.5156H389.987ZM397.329 70.0381C397.329 69.8558 397.288 69.6872 397.206 69.5322C397.129 69.3727 396.967 69.2292 396.721 69.1016C396.479 68.9694 396.115 68.8555 395.627 68.7598C395.217 68.6732 394.845 68.5706 394.513 68.4521C394.185 68.3337 393.904 68.1901 393.672 68.0215C393.444 67.8529 393.269 67.6546 393.146 67.4268C393.022 67.1989 392.961 66.9323 392.961 66.627C392.961 66.3353 393.025 66.0596 393.152 65.7998C393.285 65.54 393.469 65.3099 393.706 65.1094C393.948 64.9089 394.237 64.7516 394.574 64.6377C394.911 64.5238 395.287 64.4668 395.702 64.4668C396.295 64.4668 396.8 64.5716 397.22 64.7812C397.639 64.9909 397.96 65.2712 398.184 65.6221C398.407 65.9684 398.519 66.3535 398.519 66.7773H397.254C397.254 66.5723 397.192 66.374 397.069 66.1826C396.951 65.9867 396.775 65.8249 396.543 65.6973C396.315 65.5697 396.035 65.5059 395.702 65.5059C395.351 65.5059 395.066 65.5605 394.848 65.6699C394.633 65.7747 394.476 65.9092 394.376 66.0732C394.28 66.2373 394.232 66.4105 394.232 66.5928C394.232 66.7295 394.255 66.8525 394.301 66.9619C394.351 67.0667 394.438 67.1647 394.561 67.2559C394.684 67.3424 394.857 67.4245 395.08 67.502C395.303 67.5794 395.588 67.6569 395.935 67.7344C396.541 67.8711 397.04 68.0352 397.432 68.2266C397.824 68.418 398.115 68.6527 398.307 68.9307C398.498 69.2087 398.594 69.5459 398.594 69.9424C398.594 70.266 398.525 70.5622 398.389 70.8311C398.257 71.0999 398.063 71.3324 397.808 71.5283C397.557 71.7197 397.256 71.8701 396.905 71.9795C396.559 72.0843 396.169 72.1367 395.736 72.1367C395.085 72.1367 394.533 72.0205 394.082 71.7881C393.631 71.5557 393.289 71.2549 393.057 70.8857C392.824 70.5166 392.708 70.127 392.708 69.7168H393.979C393.998 70.0632 394.098 70.3389 394.28 70.5439C394.463 70.7445 394.686 70.888 394.95 70.9746C395.215 71.0566 395.477 71.0977 395.736 71.0977C396.083 71.0977 396.372 71.0521 396.604 70.9609C396.841 70.8698 397.021 70.7445 397.145 70.585C397.268 70.4255 397.329 70.2432 397.329 70.0381ZM406.612 72H404.534L404.548 70.9268H406.612C407.323 70.9268 407.916 70.7786 408.39 70.4824C408.864 70.1816 409.219 69.7624 409.456 69.2246C409.698 68.6823 409.818 68.0488 409.818 67.3242V66.7158C409.818 66.1462 409.75 65.6403 409.613 65.1982C409.477 64.7516 409.276 64.3757 409.012 64.0703C408.747 63.7604 408.424 63.5257 408.041 63.3662C407.663 63.2067 407.228 63.127 406.735 63.127H404.493V62.0469H406.735C407.387 62.0469 407.982 62.1562 408.52 62.375C409.057 62.5892 409.52 62.9014 409.907 63.3115C410.299 63.7171 410.6 64.2093 410.81 64.7881C411.019 65.3623 411.124 66.0094 411.124 66.7295V67.3242C411.124 68.0443 411.019 68.6937 410.81 69.2725C410.6 69.8467 410.297 70.3366 409.9 70.7422C409.508 71.1478 409.035 71.46 408.479 71.6787C407.927 71.8929 407.305 72 406.612 72ZM405.238 62.0469V72H403.919V62.0469H405.238ZM414.289 64.6035V72H413.018V64.6035H414.289ZM412.922 62.6416C412.922 62.4365 412.983 62.2633 413.106 62.1221C413.234 61.9808 413.421 61.9102 413.667 61.9102C413.909 61.9102 414.093 61.9808 414.221 62.1221C414.353 62.2633 414.419 62.4365 414.419 62.6416C414.419 62.8376 414.353 63.0062 414.221 63.1475C414.093 63.2842 413.909 63.3525 413.667 63.3525C413.421 63.3525 413.234 63.2842 413.106 63.1475C412.983 63.0062 412.922 62.8376 412.922 62.6416ZM417.584 65.7656V72H416.319V64.6035H417.55L417.584 65.7656ZM419.895 64.5625L419.888 65.7383C419.783 65.7155 419.683 65.7018 419.587 65.6973C419.496 65.6882 419.391 65.6836 419.272 65.6836C418.981 65.6836 418.723 65.7292 418.5 65.8203C418.277 65.9115 418.088 66.0391 417.933 66.2031C417.778 66.3672 417.655 66.5632 417.563 66.791C417.477 67.0143 417.42 67.2604 417.393 67.5293L417.037 67.7344C417.037 67.2878 417.08 66.8685 417.167 66.4766C417.258 66.0846 417.397 65.7383 417.584 65.4375C417.771 65.1322 418.008 64.8952 418.295 64.7266C418.587 64.5534 418.933 64.4668 419.334 64.4668C419.425 64.4668 419.53 64.4782 419.648 64.501C419.767 64.5192 419.849 64.5397 419.895 64.5625ZM422.438 64.6035V72H421.166V64.6035H422.438ZM421.07 62.6416C421.07 62.4365 421.132 62.2633 421.255 62.1221C421.382 61.9808 421.569 61.9102 421.815 61.9102C422.057 61.9102 422.242 61.9808 422.369 62.1221C422.501 62.2633 422.567 62.4365 422.567 62.6416C422.567 62.8376 422.501 63.0062 422.369 63.1475C422.242 63.2842 422.057 63.3525 421.815 63.3525C421.569 63.3525 421.382 63.2842 421.255 63.1475C421.132 63.0062 421.07 62.8376 421.07 62.6416Z" fill="#424242"/>
<rect x="521.25" width="40" height="40" rx="20" fill="#069550"/>
<path d="M546.172 25.125V27H536.641V25.3887L541.27 20.3398C541.777 19.7669 542.178 19.2721 542.471 18.8555C542.764 18.4388 542.969 18.0645 543.086 17.7324C543.21 17.3939 543.271 17.0651 543.271 16.7461C543.271 16.2969 543.187 15.903 543.018 15.5645C542.855 15.2194 542.614 14.9492 542.295 14.7539C541.976 14.5521 541.589 14.4512 541.133 14.4512C540.605 14.4512 540.163 14.5651 539.805 14.793C539.447 15.0208 539.176 15.3366 538.994 15.7402C538.812 16.1374 538.721 16.5931 538.721 17.1074H536.367C536.367 16.2806 536.556 15.5254 536.934 14.8418C537.311 14.1517 537.858 13.6048 538.574 13.2012C539.29 12.791 540.153 12.5859 541.162 12.5859C542.113 12.5859 542.92 12.7454 543.584 13.0645C544.248 13.3835 544.753 13.8359 545.098 14.4219C545.449 15.0078 545.625 15.7012 545.625 16.502C545.625 16.9447 545.553 17.3841 545.41 17.8203C545.267 18.2565 545.062 18.6927 544.795 19.1289C544.535 19.5586 544.225 19.9915 543.867 20.4277C543.509 20.8574 543.115 21.2936 542.686 21.7363L539.609 25.125H546.172Z" fill="white"/>
<rect x="577.25" y="18" width="96.25" height="4" rx="2" fill="#EEEEEE"/>
<path d="M523.82 62.0469V72H522.501V62.0469H523.82ZM527.293 66.1826V72H526.028V64.6035H527.225L527.293 66.1826ZM526.992 68.0215L526.466 68.001C526.47 67.4951 526.546 67.028 526.691 66.5996C526.837 66.1667 527.042 65.7907 527.307 65.4717C527.571 65.1527 527.885 64.9066 528.25 64.7334C528.619 64.5557 529.027 64.4668 529.474 64.4668C529.838 64.4668 530.166 64.5169 530.458 64.6172C530.75 64.7129 530.998 64.8678 531.203 65.082C531.413 65.2962 531.572 65.5742 531.682 65.916C531.791 66.2533 531.846 66.6657 531.846 67.1533V72H530.574V67.1396C530.574 66.7523 530.517 66.4424 530.403 66.21C530.289 65.973 530.123 65.8021 529.904 65.6973C529.686 65.5879 529.417 65.5332 529.098 65.5332C528.783 65.5332 528.496 65.5993 528.236 65.7314C527.981 65.8636 527.76 66.0459 527.573 66.2783C527.391 66.5107 527.247 66.7773 527.143 67.0781C527.042 67.3743 526.992 67.6888 526.992 68.0215ZM535.653 72H534.389V63.8242C534.389 63.291 534.484 62.8421 534.676 62.4775C534.872 62.1084 535.152 61.8304 535.517 61.6436C535.881 61.4521 536.314 61.3564 536.815 61.3564C536.961 61.3564 537.107 61.3656 537.253 61.3838C537.403 61.402 537.549 61.4294 537.69 61.4658L537.622 62.498C537.526 62.4753 537.417 62.4593 537.294 62.4502C537.175 62.4411 537.057 62.4365 536.938 62.4365C536.67 62.4365 536.437 62.4912 536.241 62.6006C536.05 62.7054 535.904 62.8604 535.804 63.0654C535.703 63.2705 535.653 63.5234 535.653 63.8242V72ZM537.226 64.6035V65.5742H533.22V64.6035H537.226ZM538.299 68.3838V68.2266C538.299 67.6934 538.376 67.1989 538.531 66.7432C538.686 66.2829 538.91 65.8841 539.201 65.5469C539.493 65.2051 539.846 64.9408 540.261 64.7539C540.675 64.5625 541.14 64.4668 541.655 64.4668C542.175 64.4668 542.642 64.5625 543.057 64.7539C543.476 64.9408 543.831 65.2051 544.123 65.5469C544.419 65.8841 544.645 66.2829 544.8 66.7432C544.955 67.1989 545.032 67.6934 545.032 68.2266V68.3838C545.032 68.917 544.955 69.4115 544.8 69.8672C544.645 70.3229 544.419 70.7217 544.123 71.0635C543.831 71.4007 543.478 71.665 543.063 71.8564C542.653 72.0433 542.188 72.1367 541.669 72.1367C541.149 72.1367 540.682 72.0433 540.268 71.8564C539.853 71.665 539.497 71.4007 539.201 71.0635C538.91 70.7217 538.686 70.3229 538.531 69.8672C538.376 69.4115 538.299 68.917 538.299 68.3838ZM539.563 68.2266V68.3838C539.563 68.7529 539.607 69.1016 539.693 69.4297C539.78 69.7533 539.91 70.0404 540.083 70.291C540.261 70.5417 540.482 70.7399 540.746 70.8857C541.01 71.027 541.318 71.0977 541.669 71.0977C542.015 71.0977 542.318 71.027 542.578 70.8857C542.842 70.7399 543.061 70.5417 543.234 70.291C543.408 70.0404 543.537 69.7533 543.624 69.4297C543.715 69.1016 543.761 68.7529 543.761 68.3838V68.2266C543.761 67.862 543.715 67.5179 543.624 67.1943C543.537 66.8662 543.405 66.5768 543.228 66.3262C543.054 66.071 542.836 65.8704 542.571 65.7246C542.312 65.5788 542.006 65.5059 541.655 65.5059C541.309 65.5059 541.004 65.5788 540.739 65.7246C540.479 65.8704 540.261 66.071 540.083 66.3262C539.91 66.5768 539.78 66.8662 539.693 67.1943C539.607 67.5179 539.563 67.862 539.563 68.2266ZM547.883 65.7656V72H546.618V64.6035H547.849L547.883 65.7656ZM550.193 64.5625L550.187 65.7383C550.082 65.7155 549.981 65.7018 549.886 65.6973C549.795 65.6882 549.69 65.6836 549.571 65.6836C549.28 65.6836 549.022 65.7292 548.799 65.8203C548.576 65.9115 548.386 66.0391 548.231 66.2031C548.076 66.3672 547.953 66.5632 547.862 66.791C547.776 67.0143 547.719 67.2604 547.691 67.5293L547.336 67.7344C547.336 67.2878 547.379 66.8685 547.466 66.4766C547.557 66.0846 547.696 65.7383 547.883 65.4375C548.07 65.1322 548.307 64.8952 548.594 64.7266C548.885 64.5534 549.232 64.4668 549.633 64.4668C549.724 64.4668 549.829 64.4782 549.947 64.501C550.066 64.5192 550.148 64.5397 550.193 64.5625ZM552.62 66.0732V72H551.349V64.6035H552.552L552.62 66.0732ZM552.36 68.0215L551.772 68.001C551.777 67.4951 551.843 67.028 551.971 66.5996C552.098 66.1667 552.287 65.7907 552.538 65.4717C552.789 65.1527 553.101 64.9066 553.475 64.7334C553.848 64.5557 554.281 64.4668 554.773 64.4668C555.12 64.4668 555.439 64.5169 555.73 64.6172C556.022 64.7129 556.275 64.8656 556.489 65.0752C556.703 65.2848 556.87 65.5537 556.988 65.8818C557.107 66.21 557.166 66.6064 557.166 67.0713V72H555.901V67.1328C555.901 66.7454 555.835 66.4355 555.703 66.2031C555.576 65.9707 555.393 65.8021 555.156 65.6973C554.919 65.5879 554.641 65.5332 554.322 65.5332C553.949 65.5332 553.636 65.5993 553.386 65.7314C553.135 65.8636 552.935 66.0459 552.784 66.2783C552.634 66.5107 552.524 66.7773 552.456 67.0781C552.392 67.3743 552.36 67.6888 552.36 68.0215ZM557.152 67.3242L556.305 67.584C556.309 67.1784 556.375 66.7887 556.503 66.415C556.635 66.0413 556.824 65.7087 557.07 65.417C557.321 65.1253 557.629 64.8952 557.993 64.7266C558.358 64.5534 558.775 64.4668 559.244 64.4668C559.641 64.4668 559.992 64.5192 560.297 64.624C560.607 64.7288 560.867 64.8906 561.076 65.1094C561.29 65.3236 561.452 65.5993 561.562 65.9365C561.671 66.2738 561.726 66.6748 561.726 67.1396V72H560.454V67.126C560.454 66.7113 560.388 66.39 560.256 66.1621C560.128 65.9297 559.946 65.7679 559.709 65.6768C559.477 65.5811 559.199 65.5332 558.875 65.5332C558.597 65.5332 558.351 65.5811 558.137 65.6768C557.923 65.7725 557.743 65.9046 557.597 66.0732C557.451 66.2373 557.339 66.4264 557.262 66.6406C557.189 66.8548 557.152 67.0827 557.152 67.3242ZM568.001 70.7354V66.9277C568.001 66.6361 567.942 66.3831 567.823 66.1689C567.709 65.9502 567.536 65.7816 567.304 65.6631C567.071 65.5446 566.784 65.4854 566.442 65.4854C566.123 65.4854 565.843 65.54 565.602 65.6494C565.365 65.7588 565.178 65.9023 565.041 66.0801C564.909 66.2578 564.843 66.4492 564.843 66.6543H563.578C563.578 66.39 563.646 66.1279 563.783 65.8682C563.92 65.6084 564.116 65.3737 564.371 65.1641C564.631 64.9499 564.941 64.7812 565.301 64.6582C565.665 64.5306 566.071 64.4668 566.518 64.4668C567.055 64.4668 567.529 64.5579 567.939 64.7402C568.354 64.9225 568.678 65.1982 568.91 65.5674C569.147 65.932 569.266 66.39 569.266 66.9414V70.3867C569.266 70.6328 569.286 70.8949 569.327 71.1729C569.373 71.4508 569.439 71.6901 569.525 71.8906V72H568.206C568.142 71.8542 568.092 71.6605 568.056 71.4189C568.019 71.1729 568.001 70.945 568.001 70.7354ZM568.22 67.5156L568.233 68.4043H566.955C566.595 68.4043 566.274 68.4339 565.991 68.4932C565.709 68.5479 565.472 68.6322 565.28 68.7461C565.089 68.86 564.943 69.0036 564.843 69.1768C564.743 69.3454 564.692 69.5436 564.692 69.7715C564.692 70.0039 564.745 70.2158 564.85 70.4072C564.954 70.5986 565.112 70.7513 565.321 70.8652C565.535 70.9746 565.798 71.0293 566.107 71.0293C566.495 71.0293 566.837 70.9473 567.133 70.7832C567.429 70.6191 567.664 70.4186 567.837 70.1816C568.015 69.9447 568.11 69.7145 568.124 69.4912L568.664 70.0996C568.632 70.291 568.546 70.5029 568.404 70.7354C568.263 70.9678 568.074 71.1911 567.837 71.4053C567.604 71.6149 567.326 71.7904 567.003 71.9316C566.684 72.0684 566.324 72.1367 565.923 72.1367C565.422 72.1367 564.982 72.0387 564.604 71.8428C564.23 71.6468 563.938 71.3848 563.729 71.0566C563.523 70.724 563.421 70.3525 563.421 69.9424C563.421 69.5459 563.498 69.1973 563.653 68.8965C563.808 68.5911 564.032 68.3382 564.323 68.1377C564.615 67.9326 564.966 67.7777 565.376 67.6729C565.786 67.568 566.244 67.5156 566.75 67.5156H568.22ZM575.562 70.0381C575.562 69.8558 575.521 69.6872 575.438 69.5322C575.361 69.3727 575.199 69.2292 574.953 69.1016C574.712 68.9694 574.347 68.8555 573.859 68.7598C573.449 68.6732 573.078 68.5706 572.745 68.4521C572.417 68.3337 572.137 68.1901 571.904 68.0215C571.676 67.8529 571.501 67.6546 571.378 67.4268C571.255 67.1989 571.193 66.9323 571.193 66.627C571.193 66.3353 571.257 66.0596 571.385 65.7998C571.517 65.54 571.701 65.3099 571.938 65.1094C572.18 64.9089 572.469 64.7516 572.807 64.6377C573.144 64.5238 573.52 64.4668 573.935 64.4668C574.527 64.4668 575.033 64.5716 575.452 64.7812C575.871 64.9909 576.193 65.2712 576.416 65.6221C576.639 65.9684 576.751 66.3535 576.751 66.7773H575.486C575.486 66.5723 575.425 66.374 575.302 66.1826C575.183 65.9867 575.008 65.8249 574.775 65.6973C574.548 65.5697 574.267 65.5059 573.935 65.5059C573.584 65.5059 573.299 65.5605 573.08 65.6699C572.866 65.7747 572.709 65.9092 572.608 66.0732C572.513 66.2373 572.465 66.4105 572.465 66.5928C572.465 66.7295 572.488 66.8525 572.533 66.9619C572.583 67.0667 572.67 67.1647 572.793 67.2559C572.916 67.3424 573.089 67.4245 573.312 67.502C573.536 67.5794 573.821 67.6569 574.167 67.7344C574.773 67.8711 575.272 68.0352 575.664 68.2266C576.056 68.418 576.348 68.6527 576.539 68.9307C576.73 69.2087 576.826 69.5459 576.826 69.9424C576.826 70.266 576.758 70.5622 576.621 70.8311C576.489 71.0999 576.295 71.3324 576.04 71.5283C575.789 71.7197 575.489 71.8701 575.138 71.9795C574.791 72.0843 574.402 72.1367 573.969 72.1367C573.317 72.1367 572.766 72.0205 572.314 71.7881C571.863 71.5557 571.521 71.2549 571.289 70.8857C571.057 70.5166 570.94 70.127 570.94 69.7168H572.212C572.23 70.0632 572.33 70.3389 572.513 70.5439C572.695 70.7445 572.918 70.888 573.183 70.9746C573.447 71.0566 573.709 71.0977 573.969 71.0977C574.315 71.0977 574.604 71.0521 574.837 70.9609C575.074 70.8698 575.254 70.7445 575.377 70.585C575.5 70.4255 575.562 70.2432 575.562 70.0381ZM579.861 64.6035V72H578.59V64.6035H579.861ZM578.494 62.6416C578.494 62.4365 578.556 62.2633 578.679 62.1221C578.806 61.9808 578.993 61.9102 579.239 61.9102C579.481 61.9102 579.665 61.9808 579.793 62.1221C579.925 62.2633 579.991 62.4365 579.991 62.6416C579.991 62.8376 579.925 63.0062 579.793 63.1475C579.665 63.2842 579.481 63.3525 579.239 63.3525C578.993 63.3525 578.806 63.2842 578.679 63.1475C578.556 63.0062 578.494 62.8376 578.494 62.6416ZM585.973 62.0469H587.251L590.512 70.1611L593.766 62.0469H595.051L591.004 72H590.006L585.973 62.0469ZM585.556 62.0469H586.684L586.868 68.1172V72H585.556V62.0469ZM594.333 62.0469H595.461V72H594.148V68.1172L594.333 62.0469ZM600.656 72.1367C600.141 72.1367 599.674 72.0501 599.255 71.877C598.84 71.6992 598.482 71.4508 598.182 71.1318C597.885 70.8128 597.658 70.4346 597.498 69.9971C597.339 69.5596 597.259 69.0811 597.259 68.5615V68.2744C597.259 67.6729 597.348 67.1374 597.525 66.668C597.703 66.194 597.945 65.793 598.25 65.4648C598.555 65.1367 598.902 64.8883 599.289 64.7197C599.676 64.5511 600.077 64.4668 600.492 64.4668C601.021 64.4668 601.477 64.5579 601.859 64.7402C602.247 64.9225 602.563 65.1777 602.81 65.5059C603.056 65.8294 603.238 66.2122 603.356 66.6543C603.475 67.0918 603.534 67.5703 603.534 68.0898V68.6572H598.011V67.625H602.27V67.5293C602.251 67.2012 602.183 66.8822 602.064 66.5723C601.951 66.2624 601.768 66.0072 601.518 65.8066C601.267 65.6061 600.925 65.5059 600.492 65.5059C600.205 65.5059 599.941 65.5674 599.699 65.6904C599.458 65.8089 599.25 65.9867 599.077 66.2236C598.904 66.4606 598.77 66.75 598.674 67.0918C598.578 67.4336 598.53 67.8278 598.53 68.2744V68.5615C598.53 68.9124 598.578 69.2428 598.674 69.5527C598.774 69.8581 598.918 70.127 599.104 70.3594C599.296 70.5918 599.526 70.7741 599.795 70.9062C600.068 71.0384 600.378 71.1045 600.725 71.1045C601.171 71.1045 601.549 71.0133 601.859 70.8311C602.169 70.6488 602.44 70.4049 602.673 70.0996L603.438 70.708C603.279 70.9495 603.076 71.1797 602.83 71.3984C602.584 71.6172 602.281 71.7949 601.921 71.9316C601.565 72.0684 601.144 72.1367 600.656 72.1367ZM609.673 70.5645V61.5H610.944V72H609.782L609.673 70.5645ZM604.696 68.3838V68.2402C604.696 67.6751 604.765 67.1624 604.901 66.7021C605.043 66.2373 605.241 65.8385 605.496 65.5059C605.756 65.1732 606.063 64.918 606.419 64.7402C606.779 64.5579 607.18 64.4668 607.622 64.4668C608.087 64.4668 608.493 64.5488 608.839 64.7129C609.19 64.8724 609.486 65.1071 609.728 65.417C609.974 65.7223 610.167 66.0915 610.309 66.5244C610.45 66.9574 610.548 67.4473 610.603 67.9941V68.623C610.552 69.1654 610.454 69.653 610.309 70.0859C610.167 70.5189 609.974 70.888 609.728 71.1934C609.486 71.4987 609.19 71.7334 608.839 71.8975C608.488 72.057 608.078 72.1367 607.608 72.1367C607.175 72.1367 606.779 72.0433 606.419 71.8564C606.063 71.6696 605.756 71.4076 605.496 71.0703C605.241 70.7331 605.043 70.3366 604.901 69.8809C604.765 69.4206 604.696 68.9215 604.696 68.3838ZM605.968 68.2402V68.3838C605.968 68.7529 606.004 69.0993 606.077 69.4229C606.155 69.7464 606.273 70.0312 606.433 70.2773C606.592 70.5234 606.795 70.7171 607.041 70.8584C607.287 70.9951 607.581 71.0635 607.923 71.0635C608.342 71.0635 608.686 70.9746 608.955 70.7969C609.229 70.6191 609.447 70.3844 609.611 70.0928C609.775 69.8011 609.903 69.4844 609.994 69.1426V67.4951C609.939 67.2445 609.86 67.0029 609.755 66.7705C609.655 66.5335 609.522 66.3239 609.358 66.1416C609.199 65.9548 609.001 65.8066 608.764 65.6973C608.531 65.5879 608.256 65.5332 607.937 65.5332C607.59 65.5332 607.292 65.6061 607.041 65.752C606.795 65.8932 606.592 66.0892 606.433 66.3398C606.273 66.5859 606.155 66.873 606.077 67.2012C606.004 67.5247 605.968 67.8711 605.968 68.2402ZM614.287 64.6035V72H613.016V64.6035H614.287ZM612.92 62.6416C612.92 62.4365 612.981 62.2633 613.104 62.1221C613.232 61.9808 613.419 61.9102 613.665 61.9102C613.907 61.9102 614.091 61.9808 614.219 62.1221C614.351 62.2633 614.417 62.4365 614.417 62.6416C614.417 62.8376 614.351 63.0062 614.219 63.1475C614.091 63.2842 613.907 63.3525 613.665 63.3525C613.419 63.3525 613.232 63.2842 613.104 63.1475C612.981 63.0062 612.92 62.8376 612.92 62.6416ZM620.624 70.0381C620.624 69.8558 620.583 69.6872 620.501 69.5322C620.424 69.3727 620.262 69.2292 620.016 69.1016C619.774 68.9694 619.41 68.8555 618.922 68.7598C618.512 68.6732 618.14 68.5706 617.808 68.4521C617.479 68.3337 617.199 68.1901 616.967 68.0215C616.739 67.8529 616.563 67.6546 616.44 67.4268C616.317 67.1989 616.256 66.9323 616.256 66.627C616.256 66.3353 616.32 66.0596 616.447 65.7998C616.579 65.54 616.764 65.3099 617.001 65.1094C617.243 64.9089 617.532 64.7516 617.869 64.6377C618.206 64.5238 618.582 64.4668 618.997 64.4668C619.59 64.4668 620.095 64.5716 620.515 64.7812C620.934 64.9909 621.255 65.2712 621.479 65.6221C621.702 65.9684 621.813 66.3535 621.813 66.7773H620.549C620.549 66.5723 620.487 66.374 620.364 66.1826C620.246 65.9867 620.07 65.8249 619.838 65.6973C619.61 65.5697 619.33 65.5059 618.997 65.5059C618.646 65.5059 618.361 65.5605 618.143 65.6699C617.928 65.7747 617.771 65.9092 617.671 66.0732C617.575 66.2373 617.527 66.4105 617.527 66.5928C617.527 66.7295 617.55 66.8525 617.596 66.9619C617.646 67.0667 617.732 67.1647 617.855 67.2559C617.979 67.3424 618.152 67.4245 618.375 67.502C618.598 67.5794 618.883 67.6569 619.229 67.7344C619.836 67.8711 620.335 68.0352 620.727 68.2266C621.118 68.418 621.41 68.6527 621.602 68.9307C621.793 69.2087 621.889 69.5459 621.889 69.9424C621.889 70.266 621.82 70.5622 621.684 70.8311C621.551 71.0999 621.358 71.3324 621.103 71.5283C620.852 71.7197 620.551 71.8701 620.2 71.9795C619.854 72.0843 619.464 72.1367 619.031 72.1367C618.38 72.1367 617.828 72.0205 617.377 71.7881C616.926 71.5557 616.584 71.2549 616.352 70.8857C616.119 70.5166 616.003 70.127 616.003 69.7168H617.274C617.293 70.0632 617.393 70.3389 617.575 70.5439C617.757 70.7445 617.981 70.888 618.245 70.9746C618.509 71.0566 618.771 71.0977 619.031 71.0977C619.378 71.0977 619.667 71.0521 619.899 70.9609C620.136 70.8698 620.316 70.7445 620.439 70.585C620.562 70.4255 620.624 70.2432 620.624 70.0381Z" fill="#424242"/>
<rect x="698" y="0.5" width="39" height="39" rx="19.5" fill="white"/>
<path d="M715.654 18.8262H717.061C717.607 18.8262 718.06 18.7318 718.418 18.543C718.783 18.3542 719.053 18.0938 719.229 17.7617C719.404 17.4297 719.492 17.0488 719.492 16.6191C719.492 16.1699 719.411 15.7858 719.248 15.4668C719.092 15.1413 718.851 14.8906 718.525 14.7148C718.206 14.5391 717.799 14.4512 717.305 14.4512C716.888 14.4512 716.51 14.5358 716.172 14.7051C715.84 14.8678 715.576 15.1022 715.381 15.4082C715.186 15.7077 715.088 16.0658 715.088 16.4824H712.725C712.725 15.7272 712.923 15.0566 713.32 14.4707C713.717 13.8848 714.258 13.4258 714.941 13.0938C715.632 12.7552 716.406 12.5859 717.266 12.5859C718.184 12.5859 718.984 12.7389 719.668 13.0449C720.358 13.3444 720.895 13.7936 721.279 14.3926C721.663 14.9915 721.855 15.7337 721.855 16.6191C721.855 17.0228 721.761 17.4329 721.572 17.8496C721.383 18.2663 721.104 18.6471 720.732 18.9922C720.361 19.3307 719.899 19.6074 719.346 19.8223C718.792 20.0306 718.151 20.1348 717.422 20.1348H715.654V18.8262ZM715.654 20.6621V19.373H717.422C718.255 19.373 718.965 19.4707 719.551 19.666C720.143 19.8613 720.625 20.1315 720.996 20.4766C721.367 20.8151 721.637 21.2025 721.807 21.6387C721.982 22.0749 722.07 22.5371 722.07 23.0254C722.07 23.6895 721.95 24.2819 721.709 24.8027C721.475 25.3171 721.139 25.7533 720.703 26.1113C720.267 26.4694 719.756 26.7396 719.17 26.9219C718.59 27.1042 717.959 27.1953 717.275 27.1953C716.663 27.1953 716.077 27.1107 715.518 26.9414C714.958 26.7721 714.456 26.5215 714.014 26.1895C713.571 25.8509 713.219 25.431 712.959 24.9297C712.705 24.4219 712.578 23.8359 712.578 23.1719H714.932C714.932 23.5951 715.029 23.9694 715.225 24.2949C715.426 24.6139 715.706 24.8646 716.064 25.0469C716.429 25.2292 716.846 25.3203 717.314 25.3203C717.809 25.3203 718.236 25.2324 718.594 25.0566C718.952 24.8809 719.225 24.6204 719.414 24.2754C719.609 23.9303 719.707 23.5137 719.707 23.0254C719.707 22.472 719.6 22.0228 719.385 21.6777C719.17 21.3327 718.864 21.0788 718.467 20.916C718.07 20.7467 717.601 20.6621 717.061 20.6621H715.654Z" fill="#BDBDBD"/>
<rect x="698" y="0.5" width="39" height="39" rx="19.5" stroke="#E0E0E0"/>
<rect x="753.5" y="18" width="96.25" height="4" rx="2" fill="#EEEEEE"/>
<path d="M704.35 62.0469H705.662V68.7803C705.662 69.5277 705.496 70.1497 705.163 70.6465C704.83 71.1432 704.388 71.5169 703.837 71.7676C703.29 72.0137 702.695 72.1367 702.053 72.1367C701.378 72.1367 700.768 72.0137 700.221 71.7676C699.678 71.5169 699.248 71.1432 698.929 70.6465C698.614 70.1497 698.457 69.5277 698.457 68.7803V62.0469H699.763V68.7803C699.763 69.2998 699.858 69.7282 700.05 70.0654C700.241 70.4027 700.508 70.6533 700.85 70.8174C701.196 70.9814 701.597 71.0635 702.053 71.0635C702.513 71.0635 702.914 70.9814 703.256 70.8174C703.602 70.6533 703.871 70.4027 704.062 70.0654C704.254 69.7282 704.35 69.2998 704.35 68.7803V62.0469ZM708.807 66.1826V72H707.542V64.6035H708.738L708.807 66.1826ZM708.506 68.0215L707.979 68.001C707.984 67.4951 708.059 67.028 708.205 66.5996C708.351 66.1667 708.556 65.7907 708.82 65.4717C709.085 65.1527 709.399 64.9066 709.764 64.7334C710.133 64.5557 710.541 64.4668 710.987 64.4668C711.352 64.4668 711.68 64.5169 711.972 64.6172C712.263 64.7129 712.512 64.8678 712.717 65.082C712.926 65.2962 713.086 65.5742 713.195 65.916C713.305 66.2533 713.359 66.6657 713.359 67.1533V72H712.088V67.1396C712.088 66.7523 712.031 66.4424 711.917 66.21C711.803 65.973 711.637 65.8021 711.418 65.6973C711.199 65.5879 710.93 65.5332 710.611 65.5332C710.297 65.5332 710.01 65.5993 709.75 65.7314C709.495 65.8636 709.274 66.0459 709.087 66.2783C708.905 66.5107 708.761 66.7773 708.656 67.0781C708.556 67.3743 708.506 67.6888 708.506 68.0215ZM720.072 64.6035H721.221V71.8428C721.221 72.4945 721.089 73.0505 720.824 73.5107C720.56 73.971 720.191 74.3197 719.717 74.5566C719.247 74.7982 718.705 74.9189 718.09 74.9189C717.835 74.9189 717.534 74.8779 717.188 74.7959C716.846 74.7184 716.508 74.584 716.176 74.3926C715.848 74.2057 715.572 73.9528 715.349 73.6338L716.012 72.8818C716.322 73.2555 716.645 73.5153 716.982 73.6611C717.324 73.807 717.661 73.8799 717.994 73.8799C718.395 73.8799 718.742 73.8047 719.033 73.6543C719.325 73.5039 719.55 73.2806 719.71 72.9844C719.874 72.6927 719.956 72.3327 719.956 71.9043V66.2305L720.072 64.6035ZM714.979 68.3838V68.2402C714.979 67.6751 715.046 67.1624 715.178 66.7021C715.314 66.2373 715.508 65.8385 715.759 65.5059C716.014 65.1732 716.322 64.918 716.682 64.7402C717.042 64.5579 717.447 64.4668 717.898 64.4668C718.363 64.4668 718.769 64.5488 719.115 64.7129C719.466 64.8724 719.762 65.1071 720.004 65.417C720.25 65.7223 720.444 66.0915 720.585 66.5244C720.726 66.9574 720.824 67.4473 720.879 67.9941V68.623C720.829 69.1654 720.731 69.653 720.585 70.0859C720.444 70.5189 720.25 70.888 720.004 71.1934C719.762 71.4987 719.466 71.7334 719.115 71.8975C718.764 72.057 718.354 72.1367 717.885 72.1367C717.443 72.1367 717.042 72.0433 716.682 71.8564C716.326 71.6696 716.021 71.4076 715.766 71.0703C715.51 70.7331 715.314 70.3366 715.178 69.8809C715.046 69.4206 714.979 68.9215 714.979 68.3838ZM716.244 68.2402V68.3838C716.244 68.7529 716.281 69.0993 716.354 69.4229C716.431 69.7464 716.547 70.0312 716.702 70.2773C716.862 70.5234 717.064 70.7171 717.311 70.8584C717.557 70.9951 717.851 71.0635 718.192 71.0635C718.612 71.0635 718.958 70.9746 719.231 70.7969C719.505 70.6191 719.721 70.3844 719.881 70.0928C720.045 69.8011 720.173 69.4844 720.264 69.1426V67.4951C720.214 67.2445 720.136 67.0029 720.031 66.7705C719.931 66.5335 719.799 66.3239 719.635 66.1416C719.475 65.9548 719.277 65.8066 719.04 65.6973C718.803 65.5879 718.525 65.5332 718.206 65.5332C717.86 65.5332 717.561 65.6061 717.311 65.752C717.064 65.8932 716.862 66.0892 716.702 66.3398C716.547 66.5859 716.431 66.873 716.354 67.2012C716.281 67.5247 716.244 67.8711 716.244 68.2402ZM727.934 64.6035H729.082V71.8428C729.082 72.4945 728.95 73.0505 728.686 73.5107C728.421 73.971 728.052 74.3197 727.578 74.5566C727.109 74.7982 726.566 74.9189 725.951 74.9189C725.696 74.9189 725.395 74.8779 725.049 74.7959C724.707 74.7184 724.37 74.584 724.037 74.3926C723.709 74.2057 723.433 73.9528 723.21 73.6338L723.873 72.8818C724.183 73.2555 724.507 73.5153 724.844 73.6611C725.186 73.807 725.523 73.8799 725.855 73.8799C726.257 73.8799 726.603 73.8047 726.895 73.6543C727.186 73.5039 727.412 73.2806 727.571 72.9844C727.735 72.6927 727.817 72.3327 727.817 71.9043V66.2305L727.934 64.6035ZM722.841 68.3838V68.2402C722.841 67.6751 722.907 67.1624 723.039 66.7021C723.176 66.2373 723.369 65.8385 723.62 65.5059C723.875 65.1732 724.183 64.918 724.543 64.7402C724.903 64.5579 725.309 64.4668 725.76 64.4668C726.225 64.4668 726.63 64.5488 726.977 64.7129C727.327 64.8724 727.624 65.1071 727.865 65.417C728.111 65.7223 728.305 66.0915 728.446 66.5244C728.588 66.9574 728.686 67.4473 728.74 67.9941V68.623C728.69 69.1654 728.592 69.653 728.446 70.0859C728.305 70.5189 728.111 70.888 727.865 71.1934C727.624 71.4987 727.327 71.7334 726.977 71.8975C726.626 72.057 726.215 72.1367 725.746 72.1367C725.304 72.1367 724.903 72.0433 724.543 71.8564C724.188 71.6696 723.882 71.4076 723.627 71.0703C723.372 70.7331 723.176 70.3366 723.039 69.8809C722.907 69.4206 722.841 68.9215 722.841 68.3838ZM724.105 68.2402V68.3838C724.105 68.7529 724.142 69.0993 724.215 69.4229C724.292 69.7464 724.409 70.0312 724.563 70.2773C724.723 70.5234 724.926 70.7171 725.172 70.8584C725.418 70.9951 725.712 71.0635 726.054 71.0635C726.473 71.0635 726.819 70.9746 727.093 70.7969C727.366 70.6191 727.583 70.3844 727.742 70.0928C727.906 69.8011 728.034 69.4844 728.125 69.1426V67.4951C728.075 67.2445 727.997 67.0029 727.893 66.7705C727.792 66.5335 727.66 66.3239 727.496 66.1416C727.337 65.9548 727.138 65.8066 726.901 65.6973C726.664 65.5879 726.386 65.5332 726.067 65.5332C725.721 65.5332 725.423 65.6061 725.172 65.752C724.926 65.8932 724.723 66.0892 724.563 66.3398C724.409 66.5859 724.292 66.873 724.215 67.2012C724.142 67.5247 724.105 67.8711 724.105 68.2402ZM735.364 70.7354V66.9277C735.364 66.6361 735.305 66.3831 735.187 66.1689C735.073 65.9502 734.899 65.7816 734.667 65.6631C734.435 65.5446 734.147 65.4854 733.806 65.4854C733.487 65.4854 733.206 65.54 732.965 65.6494C732.728 65.7588 732.541 65.9023 732.404 66.0801C732.272 66.2578 732.206 66.4492 732.206 66.6543H730.941C730.941 66.39 731.01 66.1279 731.146 65.8682C731.283 65.6084 731.479 65.3737 731.734 65.1641C731.994 64.9499 732.304 64.7812 732.664 64.6582C733.029 64.5306 733.434 64.4668 733.881 64.4668C734.419 64.4668 734.893 64.5579 735.303 64.7402C735.717 64.9225 736.041 65.1982 736.273 65.5674C736.51 65.932 736.629 66.39 736.629 66.9414V70.3867C736.629 70.6328 736.649 70.8949 736.69 71.1729C736.736 71.4508 736.802 71.6901 736.889 71.8906V72H735.569C735.506 71.8542 735.455 71.6605 735.419 71.4189C735.382 71.1729 735.364 70.945 735.364 70.7354ZM735.583 67.5156L735.597 68.4043H734.318C733.958 68.4043 733.637 68.4339 733.354 68.4932C733.072 68.5479 732.835 68.6322 732.644 68.7461C732.452 68.86 732.306 69.0036 732.206 69.1768C732.106 69.3454 732.056 69.5436 732.056 69.7715C732.056 70.0039 732.108 70.2158 732.213 70.4072C732.318 70.5986 732.475 70.7513 732.685 70.8652C732.899 70.9746 733.161 71.0293 733.471 71.0293C733.858 71.0293 734.2 70.9473 734.496 70.7832C734.792 70.6191 735.027 70.4186 735.2 70.1816C735.378 69.9447 735.474 69.7145 735.487 69.4912L736.027 70.0996C735.995 70.291 735.909 70.5029 735.768 70.7354C735.626 70.9678 735.437 71.1911 735.2 71.4053C734.968 71.6149 734.69 71.7904 734.366 71.9316C734.047 72.0684 733.687 72.1367 733.286 72.1367C732.785 72.1367 732.345 72.0387 731.967 71.8428C731.593 71.6468 731.301 71.3848 731.092 71.0566C730.887 70.724 730.784 70.3525 730.784 69.9424C730.784 69.5459 730.862 69.1973 731.017 68.8965C731.172 68.5911 731.395 68.3382 731.687 68.1377C731.978 67.9326 732.329 67.7777 732.739 67.6729C733.149 67.568 733.607 67.5156 734.113 67.5156H735.583ZM739.883 61.5V72H738.618V61.5H739.883ZM739.582 68.0215L739.056 68.001C739.06 67.4951 739.135 67.028 739.281 66.5996C739.427 66.1667 739.632 65.7907 739.896 65.4717C740.161 65.1527 740.475 64.9066 740.84 64.7334C741.209 64.5557 741.617 64.4668 742.063 64.4668C742.428 64.4668 742.756 64.5169 743.048 64.6172C743.34 64.7129 743.588 64.8678 743.793 65.082C744.003 65.2962 744.162 65.5742 744.271 65.916C744.381 66.2533 744.436 66.6657 744.436 67.1533V72H743.164V67.1396C743.164 66.7523 743.107 66.4424 742.993 66.21C742.879 65.973 742.713 65.8021 742.494 65.6973C742.275 65.5879 742.007 65.5332 741.688 65.5332C741.373 65.5332 741.086 65.5993 740.826 65.7314C740.571 65.8636 740.35 66.0459 740.163 66.2783C739.981 66.5107 739.837 66.7773 739.732 67.0781C739.632 67.3743 739.582 67.6888 739.582 68.0215ZM752.687 72H750.608L750.622 70.9268H752.687C753.397 70.9268 753.99 70.7786 754.464 70.4824C754.938 70.1816 755.293 69.7624 755.53 69.2246C755.772 68.6823 755.893 68.0488 755.893 67.3242V66.7158C755.893 66.1462 755.824 65.6403 755.688 65.1982C755.551 64.7516 755.35 64.3757 755.086 64.0703C754.822 63.7604 754.498 63.5257 754.115 63.3662C753.737 63.2067 753.302 63.127 752.81 63.127H750.567V62.0469H752.81C753.461 62.0469 754.056 62.1562 754.594 62.375C755.132 62.5892 755.594 62.9014 755.981 63.3115C756.373 63.7171 756.674 64.2093 756.884 64.7881C757.093 65.3623 757.198 66.0094 757.198 66.7295V67.3242C757.198 68.0443 757.093 68.6937 756.884 69.2725C756.674 69.8467 756.371 70.3366 755.975 70.7422C755.583 71.1478 755.109 71.46 754.553 71.6787C754.001 71.8929 753.379 72 752.687 72ZM751.312 62.0469V72H749.993V62.0469H751.312ZM763.351 70.7354V66.9277C763.351 66.6361 763.291 66.3831 763.173 66.1689C763.059 65.9502 762.886 65.7816 762.653 65.6631C762.421 65.5446 762.134 65.4854 761.792 65.4854C761.473 65.4854 761.193 65.54 760.951 65.6494C760.714 65.7588 760.527 65.9023 760.391 66.0801C760.258 66.2578 760.192 66.4492 760.192 66.6543H758.928C758.928 66.39 758.996 66.1279 759.133 65.8682C759.27 65.6084 759.465 65.3737 759.721 65.1641C759.98 64.9499 760.29 64.7812 760.65 64.6582C761.015 64.5306 761.421 64.4668 761.867 64.4668C762.405 64.4668 762.879 64.5579 763.289 64.7402C763.704 64.9225 764.027 65.1982 764.26 65.5674C764.497 65.932 764.615 66.39 764.615 66.9414V70.3867C764.615 70.6328 764.636 70.8949 764.677 71.1729C764.722 71.4508 764.788 71.6901 764.875 71.8906V72H763.556C763.492 71.8542 763.442 71.6605 763.405 71.4189C763.369 71.1729 763.351 70.945 763.351 70.7354ZM763.569 67.5156L763.583 68.4043H762.305C761.945 68.4043 761.623 68.4339 761.341 68.4932C761.058 68.5479 760.821 68.6322 760.63 68.7461C760.438 68.86 760.293 69.0036 760.192 69.1768C760.092 69.3454 760.042 69.5436 760.042 69.7715C760.042 70.0039 760.094 70.2158 760.199 70.4072C760.304 70.5986 760.461 70.7513 760.671 70.8652C760.885 70.9746 761.147 71.0293 761.457 71.0293C761.844 71.0293 762.186 70.9473 762.482 70.7832C762.779 70.6191 763.013 70.4186 763.187 70.1816C763.364 69.9447 763.46 69.7145 763.474 69.4912L764.014 70.0996C763.982 70.291 763.895 70.5029 763.754 70.7354C763.613 70.9678 763.424 71.1911 763.187 71.4053C762.954 71.6149 762.676 71.7904 762.353 71.9316C762.034 72.0684 761.674 72.1367 761.272 72.1367C760.771 72.1367 760.331 72.0387 759.953 71.8428C759.579 71.6468 759.288 71.3848 759.078 71.0566C758.873 70.724 758.771 70.3525 758.771 69.9424C758.771 69.5459 758.848 69.1973 759.003 68.8965C759.158 68.5911 759.381 68.3382 759.673 68.1377C759.965 67.9326 760.315 67.7777 760.726 67.6729C761.136 67.568 761.594 67.5156 762.1 67.5156H763.569ZM769.701 64.6035V65.5742H765.702V64.6035H769.701ZM767.056 62.8057H768.32V70.168C768.32 70.4186 768.359 70.6077 768.437 70.7354C768.514 70.863 768.614 70.9473 768.737 70.9883C768.86 71.0293 768.993 71.0498 769.134 71.0498C769.239 71.0498 769.348 71.0407 769.462 71.0225C769.58 70.9997 769.669 70.9814 769.729 70.9678L769.735 72C769.635 72.0319 769.503 72.0615 769.339 72.0889C769.179 72.1208 768.986 72.1367 768.758 72.1367C768.448 72.1367 768.163 72.0752 767.903 71.9521C767.644 71.8291 767.436 71.624 767.281 71.3369C767.131 71.0452 767.056 70.6533 767.056 70.1611V62.8057ZM775.546 70.7354V66.9277C775.546 66.6361 775.487 66.3831 775.368 66.1689C775.254 65.9502 775.081 65.7816 774.849 65.6631C774.616 65.5446 774.329 65.4854 773.987 65.4854C773.668 65.4854 773.388 65.54 773.146 65.6494C772.91 65.7588 772.723 65.9023 772.586 66.0801C772.454 66.2578 772.388 66.4492 772.388 66.6543H771.123C771.123 66.39 771.191 66.1279 771.328 65.8682C771.465 65.6084 771.661 65.3737 771.916 65.1641C772.176 64.9499 772.486 64.7812 772.846 64.6582C773.21 64.5306 773.616 64.4668 774.062 64.4668C774.6 64.4668 775.074 64.5579 775.484 64.7402C775.899 64.9225 776.223 65.1982 776.455 65.5674C776.692 65.932 776.811 66.39 776.811 66.9414V70.3867C776.811 70.6328 776.831 70.8949 776.872 71.1729C776.918 71.4508 776.984 71.6901 777.07 71.8906V72H775.751C775.687 71.8542 775.637 71.6605 775.601 71.4189C775.564 71.1729 775.546 70.945 775.546 70.7354ZM775.765 67.5156L775.778 68.4043H774.5C774.14 68.4043 773.819 68.4339 773.536 68.4932C773.254 68.5479 773.017 68.6322 772.825 68.7461C772.634 68.86 772.488 69.0036 772.388 69.1768C772.287 69.3454 772.237 69.5436 772.237 69.7715C772.237 70.0039 772.29 70.2158 772.395 70.4072C772.499 70.5986 772.657 70.7513 772.866 70.8652C773.08 70.9746 773.342 71.0293 773.652 71.0293C774.04 71.0293 774.382 70.9473 774.678 70.7832C774.974 70.6191 775.209 70.4186 775.382 70.1816C775.56 69.9447 775.655 69.7145 775.669 69.4912L776.209 70.0996C776.177 70.291 776.09 70.5029 775.949 70.7354C775.808 70.9678 775.619 71.1911 775.382 71.4053C775.149 71.6149 774.871 71.7904 774.548 71.9316C774.229 72.0684 773.869 72.1367 773.468 72.1367C772.966 72.1367 772.527 72.0387 772.148 71.8428C771.775 71.6468 771.483 71.3848 771.273 71.0566C771.068 70.724 770.966 70.3525 770.966 69.9424C770.966 69.5459 771.043 69.1973 771.198 68.8965C771.353 68.5911 771.576 68.3382 771.868 68.1377C772.16 67.9326 772.511 67.7777 772.921 67.6729C773.331 67.568 773.789 67.5156 774.295 67.5156H775.765Z" fill="#757575"/>
<rect x="874.25" y="0.5" width="39" height="39" rx="19.5" fill="white"/>
<path d="M898.936 21.9316V23.8066H888.682L888.604 22.3906L894.736 12.7812H896.621L894.58 16.2773L891.055 21.9316H898.936ZM897.158 12.7812V27H894.805V12.7812H897.158Z" fill="#BDBDBD"/>
<rect x="874.25" y="0.5" width="39" height="39" rx="19.5" stroke="#E0E0E0"/>
<rect x="929.75" y="18" width="96.25" height="4" rx="2" fill="#EEEEEE"/>
<path d="M878.576 68.0967H875.917V67.0234H878.576C879.091 67.0234 879.508 66.9414 879.827 66.7773C880.146 66.6133 880.379 66.3854 880.524 66.0938C880.675 65.8021 880.75 65.4694 880.75 65.0957C880.75 64.7539 880.675 64.4326 880.524 64.1318C880.379 63.8311 880.146 63.5895 879.827 63.4072C879.508 63.2204 879.091 63.127 878.576 63.127H876.225V72H874.905V62.0469H878.576C879.328 62.0469 879.964 62.1768 880.483 62.4365C881.003 62.6963 881.397 63.0563 881.666 63.5166C881.935 63.9723 882.069 64.4941 882.069 65.082C882.069 65.7201 881.935 66.2646 881.666 66.7158C881.397 67.167 881.003 67.5111 880.483 67.748C879.964 67.9805 879.328 68.0967 878.576 68.0967ZM884.811 65.7656V72H883.546V64.6035H884.776L884.811 65.7656ZM887.121 64.5625L887.114 65.7383C887.009 65.7155 886.909 65.7018 886.813 65.6973C886.722 65.6882 886.618 65.6836 886.499 65.6836C886.207 65.6836 885.95 65.7292 885.727 65.8203C885.503 65.9115 885.314 66.0391 885.159 66.2031C885.004 66.3672 884.881 66.5632 884.79 66.791C884.703 67.0143 884.646 67.2604 884.619 67.5293L884.264 67.7344C884.264 67.2878 884.307 66.8685 884.394 66.4766C884.485 66.0846 884.624 65.7383 884.811 65.4375C884.997 65.1322 885.234 64.8952 885.521 64.7266C885.813 64.5534 886.16 64.4668 886.561 64.4668C886.652 64.4668 886.757 64.4782 886.875 64.501C886.993 64.5192 887.076 64.5397 887.121 64.5625ZM892.378 70.7354V66.9277C892.378 66.6361 892.319 66.3831 892.2 66.1689C892.086 65.9502 891.913 65.7816 891.681 65.6631C891.448 65.5446 891.161 65.4854 890.819 65.4854C890.5 65.4854 890.22 65.54 889.979 65.6494C889.742 65.7588 889.555 65.9023 889.418 66.0801C889.286 66.2578 889.22 66.4492 889.22 66.6543H887.955C887.955 66.39 888.023 66.1279 888.16 65.8682C888.297 65.6084 888.493 65.3737 888.748 65.1641C889.008 64.9499 889.318 64.7812 889.678 64.6582C890.042 64.5306 890.448 64.4668 890.895 64.4668C891.432 64.4668 891.906 64.5579 892.316 64.7402C892.731 64.9225 893.055 65.1982 893.287 65.5674C893.524 65.932 893.643 66.39 893.643 66.9414V70.3867C893.643 70.6328 893.663 70.8949 893.704 71.1729C893.75 71.4508 893.816 71.6901 893.902 71.8906V72H892.583C892.519 71.8542 892.469 71.6605 892.433 71.4189C892.396 71.1729 892.378 70.945 892.378 70.7354ZM892.597 67.5156L892.61 68.4043H891.332C890.972 68.4043 890.651 68.4339 890.368 68.4932C890.086 68.5479 889.849 68.6322 889.657 68.7461C889.466 68.86 889.32 69.0036 889.22 69.1768C889.119 69.3454 889.069 69.5436 889.069 69.7715C889.069 70.0039 889.122 70.2158 889.227 70.4072C889.331 70.5986 889.489 70.7513 889.698 70.8652C889.912 70.9746 890.174 71.0293 890.484 71.0293C890.872 71.0293 891.214 70.9473 891.51 70.7832C891.806 70.6191 892.041 70.4186 892.214 70.1816C892.392 69.9447 892.487 69.7145 892.501 69.4912L893.041 70.0996C893.009 70.291 892.923 70.5029 892.781 70.7354C892.64 70.9678 892.451 71.1911 892.214 71.4053C891.981 71.6149 891.703 71.7904 891.38 71.9316C891.061 72.0684 890.701 72.1367 890.3 72.1367C889.799 72.1367 889.359 72.0387 888.98 71.8428C888.607 71.6468 888.315 71.3848 888.105 71.0566C887.9 70.724 887.798 70.3525 887.798 69.9424C887.798 69.5459 887.875 69.1973 888.03 68.8965C888.185 68.5911 888.409 68.3382 888.7 68.1377C888.992 67.9326 889.343 67.7777 889.753 67.6729C890.163 67.568 890.621 67.5156 891.127 67.5156H892.597ZM898.729 64.6035V65.5742H894.729V64.6035H898.729ZM896.083 62.8057H897.348V70.168C897.348 70.4186 897.386 70.6077 897.464 70.7354C897.541 70.863 897.642 70.9473 897.765 70.9883C897.888 71.0293 898.02 71.0498 898.161 71.0498C898.266 71.0498 898.375 71.0407 898.489 71.0225C898.608 70.9997 898.697 70.9814 898.756 70.9678L898.763 72C898.662 72.0319 898.53 72.0615 898.366 72.0889C898.207 72.1208 898.013 72.1367 897.785 72.1367C897.475 72.1367 897.19 72.0752 896.931 71.9521C896.671 71.8291 896.464 71.624 896.309 71.3369C896.158 71.0452 896.083 70.6533 896.083 70.1611V62.8057ZM901.586 64.6035V72H900.314V64.6035H901.586ZM900.219 62.6416C900.219 62.4365 900.28 62.2633 900.403 62.1221C900.531 61.9808 900.718 61.9102 900.964 61.9102C901.205 61.9102 901.39 61.9808 901.518 62.1221C901.65 62.2633 901.716 62.4365 901.716 62.6416C901.716 62.8376 901.65 63.0062 901.518 63.1475C901.39 63.2842 901.205 63.3525 900.964 63.3525C900.718 63.3525 900.531 63.2842 900.403 63.1475C900.28 63.0062 900.219 62.8376 900.219 62.6416ZM904.881 66.1826V72H903.616V64.6035H904.812L904.881 66.1826ZM904.58 68.0215L904.054 68.001C904.058 67.4951 904.133 67.028 904.279 66.5996C904.425 66.1667 904.63 65.7907 904.895 65.4717C905.159 65.1527 905.473 64.9066 905.838 64.7334C906.207 64.5557 906.615 64.4668 907.062 64.4668C907.426 64.4668 907.754 64.5169 908.046 64.6172C908.338 64.7129 908.586 64.8678 908.791 65.082C909.001 65.2962 909.16 65.5742 909.27 65.916C909.379 66.2533 909.434 66.6657 909.434 67.1533V72H908.162V67.1396C908.162 66.7523 908.105 66.4424 907.991 66.21C907.877 65.973 907.711 65.8021 907.492 65.6973C907.273 65.5879 907.005 65.5332 906.686 65.5332C906.371 65.5332 906.084 65.5993 905.824 65.7314C905.569 65.8636 905.348 66.0459 905.161 66.2783C904.979 66.5107 904.835 66.7773 904.73 67.0781C904.63 67.3743 904.58 67.6888 904.58 68.0215ZM911.389 64.6035H912.66V72.8818C912.66 73.333 912.587 73.7158 912.441 74.0303C912.3 74.3447 912.086 74.5817 911.799 74.7412C911.516 74.9053 911.159 74.9873 910.726 74.9873C910.612 74.9873 910.479 74.9759 910.329 74.9531C910.174 74.9303 910.044 74.903 909.939 74.8711L909.946 73.8525C910.033 73.8708 910.131 73.8844 910.24 73.8936C910.35 73.9072 910.445 73.9141 910.527 73.9141C910.714 73.9141 910.871 73.8799 910.999 73.8115C911.127 73.7432 911.222 73.6338 911.286 73.4834C911.354 73.333 911.389 73.1325 911.389 72.8818V64.6035ZM911.259 62.6416C911.259 62.4365 911.323 62.2633 911.45 62.1221C911.578 61.9808 911.762 61.9102 912.004 61.9102C912.25 61.9102 912.437 61.9808 912.564 62.1221C912.692 62.2633 912.756 62.4365 912.756 62.6416C912.756 62.8376 912.692 63.0062 912.564 63.1475C912.437 63.2842 912.25 63.3525 912.004 63.3525C911.762 63.3525 911.578 63.2842 911.45 63.1475C911.323 63.0062 911.259 62.8376 911.259 62.6416ZM919.065 70.7354V66.9277C919.065 66.6361 919.006 66.3831 918.888 66.1689C918.774 65.9502 918.601 65.7816 918.368 65.6631C918.136 65.5446 917.849 65.4854 917.507 65.4854C917.188 65.4854 916.908 65.54 916.666 65.6494C916.429 65.7588 916.242 65.9023 916.105 66.0801C915.973 66.2578 915.907 66.4492 915.907 66.6543H914.643C914.643 66.39 914.711 66.1279 914.848 65.8682C914.984 65.6084 915.18 65.3737 915.436 65.1641C915.695 64.9499 916.005 64.7812 916.365 64.6582C916.73 64.5306 917.135 64.4668 917.582 64.4668C918.12 64.4668 918.594 64.5579 919.004 64.7402C919.419 64.9225 919.742 65.1982 919.975 65.5674C920.212 65.932 920.33 66.39 920.33 66.9414V70.3867C920.33 70.6328 920.351 70.8949 920.392 71.1729C920.437 71.4508 920.503 71.6901 920.59 71.8906V72H919.271C919.207 71.8542 919.157 71.6605 919.12 71.4189C919.084 71.1729 919.065 70.945 919.065 70.7354ZM919.284 67.5156L919.298 68.4043H918.02C917.66 68.4043 917.338 68.4339 917.056 68.4932C916.773 68.5479 916.536 68.6322 916.345 68.7461C916.153 68.86 916.007 69.0036 915.907 69.1768C915.807 69.3454 915.757 69.5436 915.757 69.7715C915.757 70.0039 915.809 70.2158 915.914 70.4072C916.019 70.5986 916.176 70.7513 916.386 70.8652C916.6 70.9746 916.862 71.0293 917.172 71.0293C917.559 71.0293 917.901 70.9473 918.197 70.7832C918.493 70.6191 918.728 70.4186 918.901 70.1816C919.079 69.9447 919.175 69.7145 919.188 69.4912L919.729 70.0996C919.697 70.291 919.61 70.5029 919.469 70.7354C919.327 70.9678 919.138 71.1911 918.901 71.4053C918.669 71.6149 918.391 71.7904 918.067 71.9316C917.748 72.0684 917.388 72.1367 916.987 72.1367C916.486 72.1367 916.046 72.0387 915.668 71.8428C915.294 71.6468 915.003 71.3848 914.793 71.0566C914.588 70.724 914.485 70.3525 914.485 69.9424C914.485 69.5459 914.563 69.1973 914.718 68.8965C914.873 68.5911 915.096 68.3382 915.388 68.1377C915.679 67.9326 916.03 67.7777 916.44 67.6729C916.851 67.568 917.309 67.5156 917.814 67.5156H919.284ZM926.845 70.291V64.6035H928.116V72H926.906L926.845 70.291ZM927.084 68.7324L927.61 68.7188C927.61 69.2109 927.558 69.6667 927.453 70.0859C927.353 70.5007 927.189 70.8607 926.961 71.166C926.733 71.4714 926.435 71.7106 926.065 71.8838C925.696 72.0524 925.247 72.1367 924.719 72.1367C924.359 72.1367 924.028 72.0843 923.728 71.9795C923.431 71.8747 923.176 71.7129 922.962 71.4941C922.748 71.2754 922.581 70.9906 922.463 70.6396C922.349 70.2887 922.292 69.8672 922.292 69.375V64.6035H923.557V69.3887C923.557 69.7214 923.593 69.9971 923.666 70.2158C923.743 70.43 923.846 70.6009 923.974 70.7285C924.106 70.8516 924.252 70.9382 924.411 70.9883C924.575 71.0384 924.744 71.0635 924.917 71.0635C925.455 71.0635 925.881 70.9609 926.195 70.7559C926.51 70.5462 926.735 70.266 926.872 69.915C927.013 69.5596 927.084 69.1654 927.084 68.7324ZM936.401 72H934.323L934.337 70.9268H936.401C937.112 70.9268 937.705 70.7786 938.179 70.4824C938.653 70.1816 939.008 69.7624 939.245 69.2246C939.487 68.6823 939.607 68.0488 939.607 67.3242V66.7158C939.607 66.1462 939.539 65.6403 939.402 65.1982C939.266 64.7516 939.065 64.3757 938.801 64.0703C938.536 63.7604 938.213 63.5257 937.83 63.3662C937.452 63.2067 937.017 63.127 936.524 63.127H934.282V62.0469H936.524C937.176 62.0469 937.771 62.1562 938.309 62.375C938.846 62.5892 939.309 62.9014 939.696 63.3115C940.088 63.7171 940.389 64.2093 940.599 64.7881C940.808 65.3623 940.913 66.0094 940.913 66.7295V67.3242C940.913 68.0443 940.808 68.6937 940.599 69.2725C940.389 69.8467 940.086 70.3366 939.689 70.7422C939.298 71.1478 938.824 71.46 938.268 71.6787C937.716 71.8929 937.094 72 936.401 72ZM935.027 62.0469V72H933.708V62.0469H935.027ZM947.065 70.7354V66.9277C947.065 66.6361 947.006 66.3831 946.888 66.1689C946.774 65.9502 946.601 65.7816 946.368 65.6631C946.136 65.5446 945.849 65.4854 945.507 65.4854C945.188 65.4854 944.908 65.54 944.666 65.6494C944.429 65.7588 944.242 65.9023 944.105 66.0801C943.973 66.2578 943.907 66.4492 943.907 66.6543H942.643C942.643 66.39 942.711 66.1279 942.848 65.8682C942.984 65.6084 943.18 65.3737 943.436 65.1641C943.695 64.9499 944.005 64.7812 944.365 64.6582C944.73 64.5306 945.135 64.4668 945.582 64.4668C946.12 64.4668 946.594 64.5579 947.004 64.7402C947.419 64.9225 947.742 65.1982 947.975 65.5674C948.212 65.932 948.33 66.39 948.33 66.9414V70.3867C948.33 70.6328 948.351 70.8949 948.392 71.1729C948.437 71.4508 948.503 71.6901 948.59 71.8906V72H947.271C947.207 71.8542 947.157 71.6605 947.12 71.4189C947.084 71.1729 947.065 70.945 947.065 70.7354ZM947.284 67.5156L947.298 68.4043H946.02C945.66 68.4043 945.338 68.4339 945.056 68.4932C944.773 68.5479 944.536 68.6322 944.345 68.7461C944.153 68.86 944.007 69.0036 943.907 69.1768C943.807 69.3454 943.757 69.5436 943.757 69.7715C943.757 70.0039 943.809 70.2158 943.914 70.4072C944.019 70.5986 944.176 70.7513 944.386 70.8652C944.6 70.9746 944.862 71.0293 945.172 71.0293C945.559 71.0293 945.901 70.9473 946.197 70.7832C946.493 70.6191 946.728 70.4186 946.901 70.1816C947.079 69.9447 947.175 69.7145 947.188 69.4912L947.729 70.0996C947.697 70.291 947.61 70.5029 947.469 70.7354C947.327 70.9678 947.138 71.1911 946.901 71.4053C946.669 71.6149 946.391 71.7904 946.067 71.9316C945.748 72.0684 945.388 72.1367 944.987 72.1367C944.486 72.1367 944.046 72.0387 943.668 71.8428C943.294 71.6468 943.003 71.3848 942.793 71.0566C942.588 70.724 942.485 70.3525 942.485 69.9424C942.485 69.5459 942.563 69.1973 942.718 68.8965C942.873 68.5911 943.096 68.3382 943.388 68.1377C943.679 67.9326 944.03 67.7777 944.44 67.6729C944.851 67.568 945.309 67.5156 945.814 67.5156H947.284ZM953.416 64.6035V65.5742H949.417V64.6035H953.416ZM950.771 62.8057H952.035V70.168C952.035 70.4186 952.074 70.6077 952.151 70.7354C952.229 70.863 952.329 70.9473 952.452 70.9883C952.575 71.0293 952.707 71.0498 952.849 71.0498C952.953 71.0498 953.063 71.0407 953.177 71.0225C953.295 70.9997 953.384 70.9814 953.443 70.9678L953.45 72C953.35 72.0319 953.218 72.0615 953.054 72.0889C952.894 72.1208 952.701 72.1367 952.473 72.1367C952.163 72.1367 951.878 72.0752 951.618 71.9521C951.358 71.8291 951.151 71.624 950.996 71.3369C950.846 71.0452 950.771 70.6533 950.771 70.1611V62.8057ZM959.261 70.7354V66.9277C959.261 66.6361 959.201 66.3831 959.083 66.1689C958.969 65.9502 958.796 65.7816 958.563 65.6631C958.331 65.5446 958.044 65.4854 957.702 65.4854C957.383 65.4854 957.103 65.54 956.861 65.6494C956.624 65.7588 956.438 65.9023 956.301 66.0801C956.169 66.2578 956.103 66.4492 956.103 66.6543H954.838C954.838 66.39 954.906 66.1279 955.043 65.8682C955.18 65.6084 955.376 65.3737 955.631 65.1641C955.891 64.9499 956.201 64.7812 956.561 64.6582C956.925 64.5306 957.331 64.4668 957.777 64.4668C958.315 64.4668 958.789 64.5579 959.199 64.7402C959.614 64.9225 959.938 65.1982 960.17 65.5674C960.407 65.932 960.525 66.39 960.525 66.9414V70.3867C960.525 70.6328 960.546 70.8949 960.587 71.1729C960.632 71.4508 960.699 71.6901 960.785 71.8906V72H959.466C959.402 71.8542 959.352 71.6605 959.315 71.4189C959.279 71.1729 959.261 70.945 959.261 70.7354ZM959.479 67.5156L959.493 68.4043H958.215C957.855 68.4043 957.534 68.4339 957.251 68.4932C956.968 68.5479 956.731 68.6322 956.54 68.7461C956.349 68.86 956.203 69.0036 956.103 69.1768C956.002 69.3454 955.952 69.5436 955.952 69.7715C955.952 70.0039 956.005 70.2158 956.109 70.4072C956.214 70.5986 956.371 70.7513 956.581 70.8652C956.795 70.9746 957.057 71.0293 957.367 71.0293C957.755 71.0293 958.096 70.9473 958.393 70.7832C958.689 70.6191 958.924 70.4186 959.097 70.1816C959.274 69.9447 959.37 69.7145 959.384 69.4912L959.924 70.0996C959.892 70.291 959.805 70.5029 959.664 70.7354C959.523 70.9678 959.334 71.1911 959.097 71.4053C958.864 71.6149 958.586 71.7904 958.263 71.9316C957.944 72.0684 957.584 72.1367 957.183 72.1367C956.681 72.1367 956.242 72.0387 955.863 71.8428C955.49 71.6468 955.198 71.3848 954.988 71.0566C954.783 70.724 954.681 70.3525 954.681 69.9424C954.681 69.5459 954.758 69.1973 954.913 68.8965C955.068 68.5911 955.291 68.3382 955.583 68.1377C955.875 67.9326 956.226 67.7777 956.636 67.6729C957.046 67.568 957.504 67.5156 958.01 67.5156H959.479Z" fill="#757575"/>
<rect x="1050.5" y="0.5" width="39" height="39" rx="19.5" fill="white"/>
<path d="M1067.86 20.3887L1065.99 19.9297L1066.76 12.7812H1074.42V14.7734H1068.71L1068.32 18.2598C1068.54 18.1296 1068.85 18.0026 1069.24 17.8789C1069.63 17.7487 1070.07 17.6836 1070.58 17.6836C1071.25 17.6836 1071.85 17.7943 1072.37 18.0156C1072.91 18.2305 1073.36 18.5462 1073.73 18.9629C1074.1 19.373 1074.38 19.8743 1074.58 20.4668C1074.78 21.0527 1074.87 21.7135 1074.87 22.4492C1074.87 23.1068 1074.78 23.722 1074.58 24.2949C1074.39 24.8678 1074.1 25.3724 1073.72 25.8086C1073.34 26.2448 1072.85 26.5866 1072.27 26.834C1071.69 27.0749 1071 27.1953 1070.21 27.1953C1069.61 27.1953 1069.04 27.1107 1068.5 26.9414C1067.96 26.7656 1067.47 26.5085 1067.04 26.1699C1066.61 25.8249 1066.27 25.4017 1066.01 24.9004C1065.75 24.3926 1065.6 23.8099 1065.56 23.1523H1067.86C1067.92 23.6146 1068.05 24.0085 1068.24 24.334C1068.44 24.653 1068.71 24.8971 1069.04 25.0664C1069.38 25.2357 1069.76 25.3203 1070.2 25.3203C1070.59 25.3203 1070.93 25.252 1071.22 25.1152C1071.51 24.972 1071.74 24.7702 1071.93 24.5098C1072.13 24.2428 1072.27 23.9303 1072.36 23.5723C1072.46 23.2142 1072.51 22.8171 1072.51 22.3809C1072.51 21.9642 1072.45 21.5833 1072.34 21.2383C1072.24 20.8932 1072.08 20.5938 1071.87 20.3398C1071.66 20.0859 1071.39 19.8906 1071.07 19.7539C1070.76 19.6107 1070.39 19.5391 1069.97 19.5391C1069.41 19.5391 1068.98 19.6204 1068.68 19.7832C1068.39 19.946 1068.12 20.1478 1067.86 20.3887Z" fill="#BDBDBD"/>
<rect x="1050.5" y="0.5" width="39" height="39" rx="19.5" stroke="#E0E0E0"/>
<path d="M1056.46 69.4844C1056.46 69.252 1056.42 69.0469 1056.35 68.8691C1056.28 68.6868 1056.16 68.5228 1055.98 68.377C1055.81 68.2311 1055.57 68.0921 1055.26 67.96C1054.95 67.8278 1054.56 67.6934 1054.09 67.5566C1053.6 67.4108 1053.16 67.249 1052.76 67.0713C1052.37 66.889 1052.03 66.6816 1051.74 66.4492C1051.46 66.2168 1051.24 65.9502 1051.09 65.6494C1050.94 65.3486 1050.87 65.0046 1050.87 64.6172C1050.87 64.2298 1050.95 63.8721 1051.11 63.5439C1051.27 63.2158 1051.49 62.931 1051.79 62.6895C1052.09 62.4434 1052.45 62.252 1052.86 62.1152C1053.28 61.9785 1053.74 61.9102 1054.25 61.9102C1055 61.9102 1055.63 62.0537 1056.15 62.3408C1056.68 62.6234 1057.08 62.9948 1057.35 63.4551C1057.62 63.9108 1057.76 64.3984 1057.76 64.918H1056.45C1056.45 64.5443 1056.37 64.2139 1056.21 63.9268C1056.05 63.6351 1055.81 63.4072 1055.48 63.2432C1055.16 63.0745 1054.75 62.9902 1054.25 62.9902C1053.78 62.9902 1053.4 63.0609 1053.09 63.2021C1052.78 63.3434 1052.56 63.5348 1052.41 63.7764C1052.26 64.0179 1052.19 64.2936 1052.19 64.6035C1052.19 64.8132 1052.23 65.0046 1052.32 65.1777C1052.41 65.3464 1052.55 65.5036 1052.73 65.6494C1052.93 65.7952 1053.17 65.9297 1053.46 66.0527C1053.76 66.1758 1054.11 66.2943 1054.52 66.4082C1055.08 66.5677 1055.57 66.7454 1055.98 66.9414C1056.39 67.1374 1056.73 67.3584 1056.99 67.6045C1057.26 67.846 1057.46 68.1217 1057.59 68.4316C1057.72 68.737 1057.79 69.0833 1057.79 69.4707C1057.79 69.8763 1057.7 70.2432 1057.54 70.5713C1057.38 70.8994 1057.14 71.1797 1056.84 71.4121C1056.53 71.6445 1056.16 71.8245 1055.74 71.9521C1055.31 72.0752 1054.84 72.1367 1054.31 72.1367C1053.85 72.1367 1053.4 72.0729 1052.95 71.9453C1052.51 71.8177 1052.11 71.6263 1051.74 71.3711C1051.38 71.1159 1051.09 70.8014 1050.88 70.4277C1050.66 70.0495 1050.55 69.612 1050.55 69.1152H1051.87C1051.87 69.457 1051.93 69.751 1052.06 69.9971C1052.2 70.2386 1052.38 70.4391 1052.6 70.5986C1052.84 70.7581 1053.1 70.8766 1053.39 70.9541C1053.69 71.027 1053.99 71.0635 1054.31 71.0635C1054.77 71.0635 1055.16 70.9997 1055.48 70.8721C1055.8 70.7445 1056.04 70.5622 1056.21 70.3252C1056.38 70.0882 1056.46 69.8079 1056.46 69.4844ZM1062.35 72.1367C1061.83 72.1367 1061.36 72.0501 1060.94 71.877C1060.53 71.6992 1060.17 71.4508 1059.87 71.1318C1059.57 70.8128 1059.35 70.4346 1059.19 69.9971C1059.03 69.5596 1058.95 69.0811 1058.95 68.5615V68.2744C1058.95 67.6729 1059.04 67.1374 1059.21 66.668C1059.39 66.194 1059.63 65.793 1059.94 65.4648C1060.24 65.1367 1060.59 64.8883 1060.98 64.7197C1061.37 64.5511 1061.77 64.4668 1062.18 64.4668C1062.71 64.4668 1063.17 64.5579 1063.55 64.7402C1063.94 64.9225 1064.25 65.1777 1064.5 65.5059C1064.75 65.8294 1064.93 66.2122 1065.05 66.6543C1065.16 67.0918 1065.22 67.5703 1065.22 68.0898V68.6572H1059.7V67.625H1063.96V67.5293C1063.94 67.2012 1063.87 66.8822 1063.75 66.5723C1063.64 66.2624 1063.46 66.0072 1063.21 65.8066C1062.96 65.6061 1062.61 65.5059 1062.18 65.5059C1061.89 65.5059 1061.63 65.5674 1061.39 65.6904C1061.15 65.8089 1060.94 65.9867 1060.77 66.2236C1060.59 66.4606 1060.46 66.75 1060.36 67.0918C1060.27 67.4336 1060.22 67.8278 1060.22 68.2744V68.5615C1060.22 68.9124 1060.27 69.2428 1060.36 69.5527C1060.46 69.8581 1060.61 70.127 1060.79 70.3594C1060.99 70.5918 1061.22 70.7741 1061.48 70.9062C1061.76 71.0384 1062.07 71.1045 1062.41 71.1045C1062.86 71.1045 1063.24 71.0133 1063.55 70.8311C1063.86 70.6488 1064.13 70.4049 1064.36 70.0996L1065.13 70.708C1064.97 70.9495 1064.77 71.1797 1064.52 71.3984C1064.27 71.6172 1063.97 71.7949 1063.61 71.9316C1063.25 72.0684 1062.83 72.1367 1062.35 72.1367ZM1068.07 61.5V72H1066.8V61.5H1068.07ZM1073.17 72.1367C1072.66 72.1367 1072.19 72.0501 1071.77 71.877C1071.36 71.6992 1071 71.4508 1070.7 71.1318C1070.4 70.8128 1070.18 70.4346 1070.02 69.9971C1069.86 69.5596 1069.78 69.0811 1069.78 68.5615V68.2744C1069.78 67.6729 1069.87 67.1374 1070.04 66.668C1070.22 66.194 1070.46 65.793 1070.77 65.4648C1071.07 65.1367 1071.42 64.8883 1071.81 64.7197C1072.19 64.5511 1072.6 64.4668 1073.01 64.4668C1073.54 64.4668 1073.99 64.5579 1074.38 64.7402C1074.76 64.9225 1075.08 65.1777 1075.33 65.5059C1075.57 65.8294 1075.76 66.2122 1075.87 66.6543C1075.99 67.0918 1076.05 67.5703 1076.05 68.0898V68.6572H1070.53V67.625H1074.79V67.5293C1074.77 67.2012 1074.7 66.8822 1074.58 66.5723C1074.47 66.2624 1074.29 66.0072 1074.04 65.8066C1073.78 65.6061 1073.44 65.5059 1073.01 65.5059C1072.72 65.5059 1072.46 65.5674 1072.22 65.6904C1071.98 65.8089 1071.77 65.9867 1071.59 66.2236C1071.42 66.4606 1071.29 66.75 1071.19 67.0918C1071.1 67.4336 1071.05 67.8278 1071.05 68.2744V68.5615C1071.05 68.9124 1071.1 69.2428 1071.19 69.5527C1071.29 69.8581 1071.44 70.127 1071.62 70.3594C1071.81 70.5918 1072.04 70.7741 1072.31 70.9062C1072.59 71.0384 1072.9 71.1045 1073.24 71.1045C1073.69 71.1045 1074.07 71.0133 1074.38 70.8311C1074.69 70.6488 1074.96 70.4049 1075.19 70.0996L1075.96 70.708C1075.8 70.9495 1075.59 71.1797 1075.35 71.3984C1075.1 71.6172 1074.8 71.7949 1074.44 71.9316C1074.08 72.0684 1073.66 72.1367 1073.17 72.1367ZM1081.83 70.0381C1081.83 69.8558 1081.79 69.6872 1081.71 69.5322C1081.63 69.3727 1081.47 69.2292 1081.23 69.1016C1080.99 68.9694 1080.62 68.8555 1080.13 68.7598C1079.72 68.6732 1079.35 68.5706 1079.02 68.4521C1078.69 68.3337 1078.41 68.1901 1078.18 68.0215C1077.95 67.8529 1077.77 67.6546 1077.65 67.4268C1077.53 67.1989 1077.47 66.9323 1077.47 66.627C1077.47 66.3353 1077.53 66.0596 1077.66 65.7998C1077.79 65.54 1077.97 65.3099 1078.21 65.1094C1078.45 64.9089 1078.74 64.7516 1079.08 64.6377C1079.42 64.5238 1079.79 64.4668 1080.21 64.4668C1080.8 64.4668 1081.31 64.5716 1081.73 64.7812C1082.14 64.9909 1082.47 65.2712 1082.69 65.6221C1082.91 65.9684 1083.02 66.3535 1083.02 66.7773H1081.76C1081.76 66.5723 1081.7 66.374 1081.58 66.1826C1081.46 65.9867 1081.28 65.8249 1081.05 65.6973C1080.82 65.5697 1080.54 65.5059 1080.21 65.5059C1079.86 65.5059 1079.57 65.5605 1079.35 65.6699C1079.14 65.7747 1078.98 65.9092 1078.88 66.0732C1078.79 66.2373 1078.74 66.4105 1078.74 66.5928C1078.74 66.7295 1078.76 66.8525 1078.81 66.9619C1078.86 67.0667 1078.94 67.1647 1079.07 67.2559C1079.19 67.3424 1079.36 67.4245 1079.59 67.502C1079.81 67.5794 1080.09 67.6569 1080.44 67.7344C1081.05 67.8711 1081.55 68.0352 1081.94 68.2266C1082.33 68.418 1082.62 68.6527 1082.81 68.9307C1083 69.2087 1083.1 69.5459 1083.1 69.9424C1083.1 70.266 1083.03 70.5622 1082.89 70.8311C1082.76 71.0999 1082.57 71.3324 1082.31 71.5283C1082.06 71.7197 1081.76 71.8701 1081.41 71.9795C1081.06 72.0843 1080.68 72.1367 1080.24 72.1367C1079.59 72.1367 1079.04 72.0205 1078.59 71.7881C1078.14 71.5557 1077.79 71.2549 1077.56 70.8857C1077.33 70.5166 1077.21 70.127 1077.21 69.7168H1078.49C1078.5 70.0632 1078.6 70.3389 1078.79 70.5439C1078.97 70.7445 1079.19 70.888 1079.46 70.9746C1079.72 71.0566 1079.98 71.0977 1080.24 71.0977C1080.59 71.0977 1080.88 71.0521 1081.11 70.9609C1081.35 70.8698 1081.53 70.7445 1081.65 70.585C1081.77 70.4255 1081.83 70.2432 1081.83 70.0381ZM1089.12 70.7354V66.9277C1089.12 66.6361 1089.06 66.3831 1088.94 66.1689C1088.83 65.9502 1088.66 65.7816 1088.42 65.6631C1088.19 65.5446 1087.91 65.4854 1087.56 65.4854C1087.24 65.4854 1086.96 65.54 1086.72 65.6494C1086.49 65.7588 1086.3 65.9023 1086.16 66.0801C1086.03 66.2578 1085.96 66.4492 1085.96 66.6543H1084.7C1084.7 66.39 1084.77 66.1279 1084.9 65.8682C1085.04 65.6084 1085.24 65.3737 1085.49 65.1641C1085.75 64.9499 1086.06 64.7812 1086.42 64.6582C1086.79 64.5306 1087.19 64.4668 1087.64 64.4668C1088.18 64.4668 1088.65 64.5579 1089.06 64.7402C1089.48 64.9225 1089.8 65.1982 1090.03 65.5674C1090.27 65.932 1090.39 66.39 1090.39 66.9414V70.3867C1090.39 70.6328 1090.41 70.8949 1090.45 71.1729C1090.49 71.4508 1090.56 71.6901 1090.65 71.8906V72H1089.33C1089.26 71.8542 1089.21 71.6605 1089.18 71.4189C1089.14 71.1729 1089.12 70.945 1089.12 70.7354ZM1089.34 67.5156L1089.35 68.4043H1088.08C1087.72 68.4043 1087.39 68.4339 1087.11 68.4932C1086.83 68.5479 1086.59 68.6322 1086.4 68.7461C1086.21 68.86 1086.06 69.0036 1085.96 69.1768C1085.86 69.3454 1085.81 69.5436 1085.81 69.7715C1085.81 70.0039 1085.87 70.2158 1085.97 70.4072C1086.08 70.5986 1086.23 70.7513 1086.44 70.8652C1086.66 70.9746 1086.92 71.0293 1087.23 71.0293C1087.62 71.0293 1087.96 70.9473 1088.25 70.7832C1088.55 70.6191 1088.78 70.4186 1088.96 70.1816C1089.14 69.9447 1089.23 69.7145 1089.25 69.4912L1089.79 70.0996C1089.75 70.291 1089.67 70.5029 1089.53 70.7354C1089.38 70.9678 1089.19 71.1911 1088.96 71.4053C1088.73 71.6149 1088.45 71.7904 1088.12 71.9316C1087.81 72.0684 1087.44 72.1367 1087.04 72.1367C1086.54 72.1367 1086.1 72.0387 1085.72 71.8428C1085.35 71.6468 1085.06 71.3848 1084.85 71.0566C1084.64 70.724 1084.54 70.3525 1084.54 69.9424C1084.54 69.5459 1084.62 69.1973 1084.77 68.8965C1084.93 68.5911 1085.15 68.3382 1085.44 68.1377C1085.74 67.9326 1086.09 67.7777 1086.5 67.6729C1086.91 67.568 1087.37 67.5156 1087.87 67.5156H1089.34ZM1093.75 64.6035V72H1092.48V64.6035H1093.75ZM1092.38 62.6416C1092.38 62.4365 1092.44 62.2633 1092.57 62.1221C1092.69 61.9808 1092.88 61.9102 1093.13 61.9102C1093.37 61.9102 1093.55 61.9808 1093.68 62.1221C1093.81 62.2633 1093.88 62.4365 1093.88 62.6416C1093.88 62.8376 1093.81 63.0062 1093.68 63.1475C1093.55 63.2842 1093.37 63.3525 1093.13 63.3525C1092.88 63.3525 1092.69 63.2842 1092.57 63.1475C1092.44 63.0062 1092.38 62.8376 1092.38 62.6416Z" fill="#757575"/>
<defs>
<clipPath id="clip0_5237_160311">
<rect width="16" height="16" fill="white" transform="translate(357 12)"/>
</clipPath>
</defs>
</svg>
