<svg width="488" height="320" viewBox="0 0 488 320" fill="none" xmlns="http://www.w3.org/2000/svg">
<path d="M438.661 295.456H406.407V295.7H438.661V295.456Z" fill="#EBEBEB"/>
<path d="M323.091 298.099H314.626V298.342H323.091V298.099Z" fill="#EBEBEB"/>
<path d="M405.434 286.416H386.745V286.659H405.434V286.416Z" fill="#EBEBEB"/>
<path d="M93.6991 288.052H51.6384V288.295H93.6991V288.052Z" fill="#EBEBEB"/>
<path d="M108.539 288.052H102.372V288.295H108.539V288.052Z" fill="#EBEBEB"/>
<path d="M219.799 292.163H128.579V292.406H219.799V292.163Z" fill="#EBEBEB"/>
<path d="M231.355 236.367H43.3179C41.8442 236.366 40.4315 235.78 39.3895 234.738C38.3475 233.696 37.7613 232.284 37.7595 230.81V-33.4439C37.7613 -34.9171 38.3475 -36.3294 39.3895 -37.371C40.4316 -38.4126 41.8443 -38.9985 43.3179 -39H231.356C232.829 -38.9982 234.241 -38.4122 235.283 -37.3707C236.325 -36.3291 236.911 -34.9169 236.913 -33.4439V230.81C236.911 232.284 236.325 233.696 235.283 234.738C234.241 235.78 232.828 236.366 231.355 236.367ZM43.3179 -38.7595C41.9088 -38.7582 40.5578 -38.1981 39.5614 -37.2021C38.565 -36.2061 38.0045 -34.8555 38.0029 -33.4468V230.81C38.0045 232.219 38.5649 233.57 39.5613 234.566C40.5578 235.562 41.9087 236.122 43.3179 236.124H231.356C232.765 236.122 234.116 235.562 235.112 234.566C236.108 233.57 236.668 232.219 236.67 230.81V-33.4439C236.668 -34.8525 236.108 -36.2029 235.111 -37.1988C234.115 -38.1948 232.764 -38.7551 231.356 -38.7566L43.3179 -38.7595Z" fill="#EBEBEB"/>
<path d="M441.981 236.367H253.944C252.47 236.366 251.057 235.78 250.016 234.738C248.974 233.696 248.388 232.284 248.386 230.81V-33.4439C248.388 -34.917 248.974 -36.3293 250.016 -37.371C251.058 -38.4126 252.47 -38.9985 253.944 -39H441.981C443.455 -38.9985 444.868 -38.4126 445.91 -37.371C446.952 -36.3294 447.538 -34.9171 447.54 -33.4439V230.81C447.538 232.284 446.952 233.696 445.91 234.738C444.868 235.78 443.455 236.366 441.981 236.367ZM253.945 -38.7595C252.536 -38.758 251.185 -38.1978 250.189 -37.2018C249.193 -36.2058 248.632 -34.8554 248.631 -33.4468V230.81C248.632 232.219 249.192 233.57 250.188 234.566C251.185 235.562 252.536 236.122 253.945 236.124H441.982C443.391 236.122 444.742 235.562 445.739 234.566C446.735 233.57 447.296 232.219 447.297 230.81V-33.4439C447.295 -34.8525 446.735 -36.2029 445.738 -37.1989C444.742 -38.1949 443.391 -38.7551 441.982 -38.7566L253.945 -38.7595Z" fill="#EBEBEB"/>
<path d="M487.446 279.786H0.553818V280.03H487.446V279.786Z" fill="#EBEBEB"/>
<path d="M330.865 279.016H408.485V137.97H330.865V279.016Z" fill="#F0F0F0"/>
<path d="M308.911 279.016H330.87V137.97H308.911V279.016Z" fill="#E6E6E6"/>
<path d="M338.34 186.522H400.426V149.333H338.34V186.522Z" fill="#FAFAFA"/>
<path d="M338.34 227.773H400.426V190.584H338.34V227.773Z" fill="#FAFAFA"/>
<path d="M338.34 269.024H400.426V231.835H338.34V269.024Z" fill="#FAFAFA"/>
<path d="M366.245 157.608C366.244 158.426 366.487 159.226 366.942 159.907C367.396 160.588 368.043 161.118 368.799 161.432C369.556 161.745 370.388 161.827 371.191 161.668C371.994 161.508 372.732 161.114 373.311 160.535C373.89 159.957 374.284 159.219 374.444 158.416C374.604 157.613 374.522 156.781 374.209 156.025C373.895 155.269 373.365 154.622 372.684 154.168C372.003 153.713 371.203 153.47 370.384 153.47C369.286 153.47 368.234 153.906 367.457 154.682C366.681 155.458 366.245 156.51 366.245 157.608Z" fill="#E0E0E0"/>
<path d="M368.383 157.607C368.383 158.426 368.626 159.226 369.08 159.907C369.535 160.587 370.181 161.118 370.938 161.431C371.694 161.745 372.527 161.827 373.33 161.667C374.133 161.508 374.87 161.114 375.449 160.535C376.028 159.956 376.423 159.219 376.583 158.416C376.742 157.613 376.66 156.781 376.347 156.025C376.034 155.268 375.503 154.622 374.823 154.167C374.142 153.712 373.341 153.469 372.523 153.469C371.425 153.469 370.372 153.905 369.596 154.681C368.82 155.457 368.383 156.51 368.383 157.607Z" fill="#F0F0F0"/>
<path d="M366.245 198.704C366.245 199.522 366.487 200.323 366.942 201.003C367.397 201.684 368.044 202.214 368.8 202.527C369.556 202.841 370.389 202.923 371.192 202.763C371.995 202.603 372.732 202.209 373.311 201.63C373.89 201.052 374.284 200.314 374.444 199.511C374.604 198.708 374.522 197.876 374.209 197.12C373.895 196.364 373.365 195.718 372.684 195.263C372.003 194.808 371.203 194.565 370.384 194.565C369.286 194.565 368.233 195.001 367.457 195.777C366.681 196.554 366.245 197.606 366.245 198.704Z" fill="#E0E0E0"/>
<path d="M368.383 198.704C368.383 199.522 368.626 200.322 369.081 201.003C369.536 201.683 370.182 202.214 370.938 202.527C371.695 202.84 372.527 202.922 373.33 202.763C374.133 202.603 374.871 202.209 375.45 201.63C376.029 201.051 376.423 200.314 376.583 199.511C376.742 198.708 376.66 197.876 376.347 197.12C376.034 196.364 375.503 195.717 374.822 195.262C374.142 194.808 373.341 194.565 372.523 194.565C371.425 194.565 370.372 195.001 369.596 195.777C368.819 196.553 368.383 197.606 368.383 198.704Z" fill="#F0F0F0"/>
<path d="M366.245 239.797C366.244 240.616 366.487 241.416 366.942 242.097C367.396 242.777 368.043 243.308 368.799 243.621C369.556 243.935 370.388 244.017 371.191 243.857C371.994 243.698 372.732 243.303 373.311 242.725C373.89 242.146 374.284 241.409 374.444 240.606C374.604 239.803 374.522 238.971 374.209 238.214C373.895 237.458 373.365 236.812 372.684 236.357C372.003 235.902 371.203 235.659 370.384 235.659C369.286 235.659 368.234 236.095 367.457 236.871C366.681 237.647 366.245 238.7 366.245 239.797Z" fill="#E0E0E0"/>
<path d="M368.383 239.797C368.383 240.616 368.626 241.416 369.08 242.097C369.535 242.777 370.181 243.308 370.938 243.621C371.694 243.935 372.527 244.017 373.33 243.857C374.133 243.698 374.87 243.303 375.449 242.725C376.028 242.146 376.423 241.409 376.583 240.606C376.742 239.803 376.66 238.971 376.347 238.214C376.034 237.458 375.503 236.812 374.823 236.357C374.142 235.902 373.341 235.659 372.523 235.659C371.425 235.659 370.372 236.095 369.596 236.871C368.82 237.647 368.383 238.7 368.383 239.797Z" fill="#F0F0F0"/>
<path d="M75.7233 280.124H193.361L193.361 0.974548H75.7233L75.7233 280.124Z" fill="#E6E6E6"/>
<path d="M80.7245 280.124H188.357L188.357 6.03119H80.7245L80.7245 280.124Z" fill="#F0F0F0"/>
<path d="M180.214 42.1893H88.2964V142.57H180.214V42.1893Z" fill="#FAFAFA"/>
<path d="M180.214 172.929H88.2964V273.309H180.214V172.929Z" fill="#E6E6E6"/>
<path d="M180.214 36.9969L88.2969 36.9969V30.1305C88.2972 25.6688 90.0701 21.3899 93.2257 18.235C96.3813 15.0802 100.661 13.3077 105.124 13.3074L163.386 13.3074C167.849 13.3074 172.129 15.0798 175.285 18.2347C178.441 21.3896 180.214 25.6686 180.214 30.1305V36.9969Z" fill="#FAFAFA"/>
<path d="M172.367 167.535H180.214V147.09H172.367V167.535Z" fill="#E6E6E6"/>
<path d="M172.365 147.09H170.824V167.535H172.365V147.09Z" fill="#E0E0E0"/>
<path d="M174.96 155.121C174.96 155.776 175.154 156.416 175.518 156.96C175.882 157.505 176.399 157.929 177.004 158.18C177.609 158.43 178.275 158.496 178.917 158.368C179.559 158.24 180.149 157.925 180.612 157.462C181.075 156.999 181.391 156.409 181.518 155.767C181.646 155.125 181.581 154.46 181.33 153.855C181.079 153.25 180.655 152.733 180.111 152.369C179.566 152.006 178.926 151.811 178.271 151.811C177.393 151.811 176.551 152.16 175.93 152.781C175.309 153.402 174.96 154.244 174.96 155.121Z" fill="#E0E0E0"/>
<path d="M175.591 164.979H177.296V160.841H175.591V164.979Z" fill="#E0E0E0"/>
<path d="M181.186 159.746C183.74 159.746 185.811 157.676 185.811 155.122C185.811 152.568 183.74 150.497 181.186 150.497C178.631 150.497 176.56 152.568 176.56 155.122C176.56 157.676 178.631 159.746 181.186 159.746Z" fill="#F5F5F5"/>
<path d="M147.883 13.3069H153.142L158.178 36.9964H152.92L147.883 13.3069Z" fill="#F5F5F5"/>
<path d="M89.4277 24.1108C90.2997 21.8348 91.6556 19.7754 93.4018 18.0747L97.4245 36.9958H92.166L89.4277 24.1108Z" fill="#F5F5F5"/>
<path d="M100.326 14.0077C101.883 13.5421 103.499 13.305 105.124 13.3038H124.52L129.557 36.9943H105.212L100.326 14.0077Z" fill="#F5F5F5"/>
<path d="M154.014 42.1895H159.273L180.209 140.68V142.57H175.354L154.014 42.1895Z" fill="#F5F5F5"/>
<path d="M106.313 42.1895H130.657L151.999 142.571H127.654L106.313 42.1895Z" fill="#F5F5F5"/>
<path d="M93.2669 42.1902H98.5253L119.867 142.572H114.608L93.2669 42.1902Z" fill="#F5F5F5"/>
<path d="M408.493 34.9601L284.173 34.9601V8.74613C284.173 7.43601 284.694 6.17955 285.62 5.25315C286.547 4.32675 287.804 3.80631 289.114 3.80631L403.552 3.80631C404.863 3.80631 406.119 4.32675 407.046 5.25315C407.973 6.17955 408.493 7.43601 408.493 8.74613V34.9601Z" fill="#F5F5F5"/>
<path d="M403.552 46.496L289.113 46.496C287.803 46.496 286.546 45.9755 285.619 45.0491C284.693 44.1227 284.172 42.8663 284.172 41.5562V37.07L408.493 37.07V41.5562C408.493 42.8663 407.973 44.1227 407.046 45.0491C406.119 45.9755 404.863 46.496 403.552 46.496V46.496Z" fill="#F0F0F0"/>
<path d="M401.861 30.8225H390.538C390.07 30.8225 389.622 30.6368 389.291 30.3061C388.96 29.9755 388.774 29.527 388.774 29.0594V26.2585C388.774 25.7906 388.96 25.3419 389.291 25.0111C389.622 24.6802 390.071 24.4944 390.539 24.4944H401.86C402.328 24.4944 402.777 24.6802 403.108 25.0111C403.439 25.3419 403.625 25.7906 403.625 26.2585V29.0594C403.625 29.527 403.439 29.9755 403.108 30.3061C402.777 30.6368 402.329 30.8225 401.861 30.8225V30.8225Z" fill="#E0E0E0"/>
<path d="M294.504 30.8225H290.971C290.503 30.8225 290.055 30.6368 289.724 30.3061C289.393 29.9755 289.207 29.527 289.207 29.0594V26.2585C289.207 25.7906 289.393 25.3419 289.724 25.0111C290.055 24.6802 290.504 24.4944 290.972 24.4944H294.503C294.971 24.4944 295.42 24.6802 295.751 25.0111C296.081 25.3419 296.267 25.7906 296.267 26.2585V29.0594C296.267 29.527 296.082 29.9755 295.751 30.3061C295.42 30.6368 294.972 30.8225 294.504 30.8225V30.8225Z" fill="#E0E0E0"/>
<path d="M287.257 39.8358H405.815L403.868 38.8545H289.205L287.257 39.8358Z" fill="#E0E0E0"/>
<path d="M287.257 42.2731H405.815L403.868 41.2917H289.205L287.257 42.2731Z" fill="#E0E0E0"/>
<path d="M287.257 44.711H405.815L403.868 43.7296H289.205L287.257 44.711Z" fill="#E0E0E0"/>
<path d="M340.277 97.6211C343.342 97.6211 345.827 98.3795 345.827 99.3151C345.827 100.251 343.341 98.987 340.277 98.987C339.872 98.987 339.481 99.0103 339.1 99.0464V105.764H337.347V99.3092C335.778 99.6081 334.726 99.9255 334.726 99.318C334.727 98.3795 337.212 97.6211 340.277 97.6211Z" fill="#E0E0E0"/>
<path d="M335.097 109.824H341.348V103.573H335.097V109.824Z" fill="#EBEBEB"/>
<path d="M331.241 138.226H345.209C346.77 138.226 348.035 136.961 348.035 135.401V111.463C348.035 109.903 346.77 108.638 345.209 108.638H331.241C329.68 108.638 328.415 109.903 328.415 111.463V135.401C328.415 136.961 329.68 138.226 331.241 138.226Z" fill="#EBEBEB"/>
<path d="M346.649 118.896V134.208C346.648 134.906 346.37 135.576 345.876 136.069C345.382 136.563 344.712 136.841 344.014 136.841H332.435C331.737 136.841 331.067 136.563 330.573 136.069C330.079 135.576 329.801 134.906 329.8 134.208V116.08C334.743 116.104 342.734 119.112 346.649 118.896Z" fill="#FAFAFA"/>
<path d="M335.541 123.547H337.358V121.73H339.09V123.547H340.907V125.279H339.09V127.096H337.358V125.279H335.541V123.547Z" fill="#E0E0E0"/>
<path d="M239.304 320.009C343.579 320.009 428.11 315.074 428.11 308.986C428.11 302.898 343.579 297.962 239.304 297.962C135.029 297.962 50.498 302.898 50.498 308.986C50.498 315.074 135.029 320.009 239.304 320.009Z" fill="#F5F5F5"/>
<path d="M213.298 301.828L221.307 299.857L216.746 282.698L208.737 284.669L213.298 301.828Z" fill="#F4A386"/>
<path d="M221.227 297.083L212.145 300.363C211.997 300.417 211.871 300.52 211.789 300.655C211.707 300.79 211.673 300.949 211.693 301.106L212.623 308.294C212.666 308.602 212.83 308.88 213.078 309.068C213.326 309.255 213.638 309.337 213.946 309.294C214.032 309.282 214.116 309.261 214.198 309.23C217.119 308.118 219.194 307.168 222.883 305.837C225.156 305.016 232.1 302.778 235.237 301.645C238.375 300.511 237.664 297.264 236.279 297.442C230.062 298.268 225.097 298.094 222.655 297.106C222.199 296.915 221.688 296.907 221.227 297.083Z" fill="#2E353A"/>
<path d="M224.174 297.504C224.697 297.361 225.155 297.044 225.473 296.605C225.57 296.441 225.623 296.256 225.628 296.066C225.633 295.876 225.589 295.688 225.5 295.52C225.465 295.416 225.401 295.325 225.316 295.256C225.23 295.188 225.126 295.146 225.017 295.135C224.035 295.007 222.155 297.359 221.951 297.629C221.926 297.656 221.91 297.69 221.906 297.726C221.902 297.762 221.909 297.799 221.927 297.831C221.945 297.865 221.972 297.892 222.006 297.91C222.039 297.928 222.077 297.936 222.115 297.932C222.815 297.866 223.505 297.722 224.174 297.504ZM224.727 295.552C224.804 295.517 224.889 295.505 224.972 295.517C225.02 295.5 225.101 295.545 225.161 295.685C225.219 295.797 225.248 295.921 225.247 296.047C225.246 296.173 225.214 296.297 225.154 296.408C224.453 297.091 223.519 297.482 222.54 297.503C223.139 296.718 223.883 296.056 224.732 295.552H224.727Z" fill="#E0E0E0"/>
<path d="M222.165 297.928L222.25 297.897C222.87 297.201 223.767 295.016 223.331 294.282C223.257 294.16 223.143 294.067 223.008 294.02C222.874 293.973 222.727 293.974 222.593 294.022C222.452 294.053 222.32 294.114 222.204 294.2C222.089 294.286 221.993 294.396 221.923 294.522C221.317 295.538 221.907 297.757 221.936 297.858C221.947 297.89 221.966 297.919 221.991 297.942C222.016 297.965 222.047 297.981 222.08 297.989C222.114 297.978 222.144 297.956 222.165 297.928ZM222.57 294.352L222.655 294.322C222.884 294.239 222.951 294.365 222.977 294.41C223.248 294.86 222.746 296.449 222.185 297.307C221.928 296.437 221.942 295.51 222.226 294.648C222.301 294.509 222.424 294.402 222.572 294.347L222.57 294.352Z" fill="#E0E0E0"/>
<path opacity="0.2" d="M208.736 284.67L216.745 282.699L219.091 291.552L211.081 293.522L208.736 284.67Z" fill="#424242"/>
<path d="M160.266 301.748L168.456 302.721L170.227 285.055L162.037 284.083L160.266 301.748Z" fill="#F4A386"/>
<path d="M169.367 300.097L159.711 299.971C159.553 299.97 159.399 300.022 159.275 300.12C159.15 300.217 159.063 300.354 159.026 300.508L157.368 307.563C157.3 307.866 157.355 308.185 157.521 308.447C157.688 308.71 157.952 308.897 158.255 308.965C158.34 308.984 158.426 308.994 158.513 308.993C161.637 308.983 163.914 308.821 167.837 308.872C170.254 308.903 177.544 309.25 180.881 309.294C184.218 309.337 184.695 306.047 183.334 305.726C177.224 304.311 172.637 302.403 170.695 300.619C170.336 300.281 169.861 300.094 169.367 300.097Z" fill="#2E353A"/>
<path d="M171.976 301.524C172.516 301.575 173.056 301.439 173.508 301.14C173.656 301.021 173.77 300.866 173.841 300.69C173.912 300.514 173.937 300.322 173.913 300.134C173.917 300.025 173.889 299.916 173.832 299.822C173.776 299.728 173.694 299.653 173.595 299.605C172.721 299.138 170.133 300.681 169.848 300.86C169.815 300.876 169.788 300.903 169.771 300.935C169.754 300.968 169.748 301.005 169.754 301.041C169.758 301.079 169.774 301.115 169.799 301.144C169.824 301.173 169.857 301.194 169.893 301.204C170.574 301.388 171.272 301.495 171.976 301.524ZM173.179 299.892C173.264 299.886 173.348 299.905 173.422 299.945C173.473 299.945 173.532 300.018 173.54 300.17C173.554 300.295 173.538 300.422 173.492 300.539C173.447 300.656 173.373 300.761 173.279 300.844C172.382 301.235 171.37 301.271 170.447 300.945C171.283 300.423 172.21 300.066 173.179 299.893V299.892Z" fill="#E0E0E0"/>
<path d="M169.941 301.216H170.032C170.857 300.782 172.467 299.053 172.316 298.212C172.291 298.071 172.217 297.944 172.107 297.851C171.998 297.759 171.859 297.708 171.716 297.707C171.573 297.686 171.428 297.696 171.29 297.736C171.152 297.776 171.024 297.845 170.914 297.938C169.985 298.674 169.763 300.957 169.751 301.072C169.75 301.106 169.758 301.14 169.774 301.17C169.789 301.2 169.812 301.226 169.84 301.245C169.876 301.246 169.912 301.236 169.941 301.216ZM171.58 298.012H171.671C171.914 298.012 171.933 298.157 171.942 298.208C172.036 298.725 171.008 300.036 170.182 300.641C170.246 299.737 170.585 298.874 171.154 298.167C171.273 298.066 171.424 298.011 171.58 298.012Z" fill="#E0E0E0"/>
<path opacity="0.2" d="M162.037 284.083L170.227 285.055L169.308 294.167L161.118 293.195L162.037 284.083Z" fill="#424242"/>
<path d="M198.361 140.346C198.361 140.346 218.951 241.107 219.673 279.748L205.946 285.888C205.946 285.888 194.766 242.183 191.136 217.631C191.136 217.631 181.505 198.129 178.916 182.238C178.916 182.238 179.456 251.957 172.23 288.794L159.347 287.802L152.794 217.631C152.794 217.631 147.599 145.812 148.697 136.012L198.361 140.346Z" fill="#424242"/>
<path opacity="0.2" d="M181.158 156.82C181.158 156.82 182.684 180.77 180.508 189.565C179.858 187.094 179.309 184.626 178.92 182.239L181.158 156.82Z" fill="#424242"/>
<path d="M173.856 291.727L156.18 289.099L156.72 284.205L175.109 286.618L173.856 291.727Z" fill="#424242"/>
<path d="M222.004 283.515L204.925 288.778L203.298 284.128L220.925 278.366L222.004 283.515Z" fill="#424242"/>
<path d="M187.315 90.6968C188.411 93.9719 189.625 97.0649 190.861 100.22C192.127 103.351 193.443 106.465 194.889 109.548C196.335 112.631 197.845 115.704 199.583 118.746C200.459 120.268 201.347 121.795 202.382 123.308C203.45 124.912 204.645 126.428 205.954 127.842C206.458 128.466 207.036 129.027 207.676 129.513C207.935 129.705 208.203 129.883 208.481 130.047C208.797 130.227 209.124 130.386 209.461 130.523C210.216 130.823 211.017 130.992 211.83 131.022C213.257 131.058 214.664 130.678 215.878 129.927C216.668 129.436 217.385 128.836 218.007 128.145C218.907 127.139 219.676 126.022 220.295 124.823C220.841 123.806 221.328 122.759 221.756 121.687C222.543 119.678 223.203 117.622 223.732 115.53C223.997 114.506 224.213 113.474 224.427 112.446C224.64 111.418 224.825 110.402 224.977 109.313C225.067 108.661 224.923 107.997 224.57 107.441C224.216 106.885 223.677 106.472 223.047 106.277C222.418 106.082 221.739 106.117 221.133 106.376C220.527 106.634 220.032 107.1 219.738 107.689L219.692 107.787C218.837 109.504 217.983 111.318 217.063 113.02C216.165 114.739 215.248 116.428 214.273 117.968C213.818 118.709 213.326 119.426 212.799 120.118C212.77 120.156 212.739 120.191 212.709 120.229C212.172 119.486 211.624 118.638 211.102 117.754C210.355 116.477 209.617 115.12 208.916 113.73C208.215 112.34 207.534 110.907 206.88 109.458C206.226 108.01 205.564 106.549 204.932 105.068C203.675 102.108 202.452 99.1145 201.263 96.0894C200.059 93.0908 198.917 89.9959 197.797 87.0353L197.775 86.9769C197.281 85.5898 196.256 84.4558 194.925 83.8244C193.595 83.1929 192.068 83.1158 190.681 83.6098C189.293 84.1039 188.159 85.1288 187.527 86.4589C186.896 87.7891 186.819 89.3156 187.313 90.7027L187.315 90.6968ZM211.186 121.671C211.29 121.581 211.412 121.515 211.544 121.476C211.503 121.511 211.456 121.555 211.418 121.583C211.245 121.714 211.109 121.754 211.186 121.671Z" fill="#FF8B7B"/>
<path d="M222.712 113.341L231.906 110.704L225.251 102.803C225.251 102.803 217.505 105.101 218.739 109.91L222.712 113.341Z" fill="#FF8B7B"/>
<path d="M234.876 104.896L232.63 101.247C232.44 100.938 232.19 100.67 231.894 100.46C231.598 100.25 231.263 100.102 230.908 100.024C230.553 99.9468 230.187 99.9416 229.83 100.009C229.474 100.076 229.134 100.215 228.832 100.417L225.257 102.803L231.912 110.704L234.451 108.251C234.894 107.824 235.178 107.258 235.255 106.648C235.332 106.038 235.198 105.42 234.876 104.896Z" fill="#FF8B7B"/>
<path d="M195.603 78.8349C203.54 84.6022 206.564 101.697 206.564 101.697L188.867 109.856C188.867 109.856 185.474 105.555 183.856 96.4144C183.366 93.6456 187.541 72.976 195.603 78.8349Z" fill="#008444"/>
<g opacity="0.5">
<path opacity="0.5" d="M195.464 78.9178C203.384 84.6725 206.4 101.731 206.4 101.731L188.743 109.873C188.743 109.873 185.357 105.581 183.742 96.4603C183.253 93.6973 187.419 73.0716 195.464 78.9178Z" fill="white"/>
</g>
<path d="M190.631 76.7527C181.249 74.8953 171.65 74.3959 162.126 75.27C159.548 75.4598 157.097 76.4663 155.13 78.1433C153.163 79.8202 151.782 82.0805 151.187 84.5957C148.375 96.587 144.943 103.815 146.605 141.565C150.946 143.382 171.982 144.439 182.494 144.603C183.636 144.621 186.652 142.201 186.652 142.201C186.652 142.201 188.963 144.594 190.422 144.547C197.416 144.322 196.903 143.611 198.294 142.36C197.911 133.366 195.589 121.683 197.077 102.748C197.802 93.5281 199.136 99.7627 200.152 89.8919C200.467 86.913 199.669 83.9228 197.911 81.497C196.154 79.0712 193.56 77.3813 190.631 76.7527Z" fill="#008444"/>
<path d="M175.071 59.7396C174.221 66.0677 172.928 73.4132 168.459 77.0047C169.395 79.4621 171.034 81.5897 173.172 83.122C175.31 84.6543 177.851 85.5237 180.48 85.6216C187.256 85.975 186.211 80.565 185.09 77.7008C182.212 74.4715 183.596 70.8781 184.321 68.3235L175.071 59.7396Z" fill="#FF8B7B"/>
<path opacity="0.2" d="M176.944 62.8333C176.986 62.4303 177.051 62.0272 177.114 61.6349L184.32 68.3261C183.682 70.0576 183.359 71.8891 183.366 73.7342C179.788 71.3383 176.51 66.6721 176.944 62.8333Z" fill="#424242"/>
<path d="M172.697 50.5387C173.768 58.9113 173.963 63.8657 178.495 67.868C185.311 73.8845 195.449 69.2611 196.909 60.7192C198.223 53.0281 196.258 40.6337 187.801 37.9C185.929 37.2943 183.933 37.1734 182.002 37.5488C180.07 37.9242 178.265 38.7835 176.756 40.0463C175.247 41.3091 174.083 42.934 173.373 44.7691C172.663 46.6042 172.43 48.5893 172.697 50.5387Z" fill="#FF8B7B"/>
<path d="M154.2 80.8602C153.634 81.5904 153.177 82.2076 152.683 82.8813C152.189 83.555 151.742 84.2151 151.281 84.8858C150.363 86.228 149.471 87.5868 148.605 88.9621C146.885 91.7231 145.269 94.564 143.805 97.5206C142.296 100.515 141 103.612 139.926 106.789C139.368 108.441 138.906 110.124 138.544 111.83C138.349 112.695 138.209 113.593 138.074 114.493L137.916 115.869C137.904 115.948 137.887 116.208 137.878 116.377C137.868 116.566 137.854 116.761 137.856 116.944C137.856 117.302 137.874 117.659 137.91 118.015C138.194 120.29 139.007 122.468 140.283 124.373C141.273 125.909 142.394 127.356 143.635 128.697C145.918 131.134 148.393 133.385 151.035 135.428C156.108 139.374 161.511 142.876 167.185 145.896C167.777 146.213 168.467 146.299 169.119 146.136C169.772 145.974 170.34 145.574 170.714 145.016C171.089 144.457 171.242 143.78 171.144 143.115C171.046 142.45 170.705 141.845 170.186 141.417L170.111 141.356C167.774 139.447 165.366 137.483 163.089 135.458C160.786 133.453 158.535 131.408 156.405 129.307C154.311 127.29 152.359 125.131 150.562 122.846C149.759 121.829 149.047 120.744 148.434 119.602C148.004 118.88 147.738 118.072 147.655 117.235C147.648 117.184 147.673 117.173 147.668 117.138C147.668 117.125 147.68 117.127 147.682 117.12C147.689 117.096 147.674 117.161 147.696 117.047L147.871 116.11C148.016 115.476 148.164 114.844 148.352 114.194C148.726 112.906 149.166 111.598 149.68 110.287C150.761 107.611 151.997 105 153.38 102.466C154.788 99.8874 156.302 97.3269 157.905 94.8122C158.699 93.5498 159.515 92.3004 160.355 91.064L161.621 89.2289C162.032 88.6331 162.486 87.9856 162.861 87.4765L162.91 87.4083C163.779 86.2525 164.153 84.7988 163.95 83.3671C163.747 81.9355 162.983 80.643 161.827 79.7742C160.671 78.9053 159.217 78.5312 157.785 78.7342C156.353 78.9371 155.06 79.7004 154.191 80.8563L154.2 80.8602Z" fill="#FF8B7B"/>
<path d="M159.163 75.8003C149.552 77.7766 141.564 94.3407 141.564 94.3407L152.435 110.599C157.106 106.868 160.996 102.253 163.881 97.018C165.189 94.5315 168.926 73.7929 159.163 75.8003Z" fill="#008444"/>
<g opacity="0.5">
<path opacity="0.5" d="M159.107 75.8902C149.516 77.8626 141.546 94.3877 141.546 94.3877L152.394 110.614C157.055 106.891 160.936 102.286 163.815 97.0621C165.12 94.5815 168.849 73.8866 159.107 75.8902Z" fill="white"/>
</g>
<path d="M168.415 140.634L175.787 142.73L170.897 150.51C170.897 150.51 164.452 147.803 165.338 144.147L168.415 140.634Z" fill="#FF8B7B"/>
<path d="M179.717 149.651L177.543 152.089C177.124 152.56 176.551 152.867 175.926 152.954C175.302 153.041 174.667 152.903 174.135 152.565L170.894 150.51L175.784 142.73L179.455 145.865C179.724 146.095 179.945 146.375 180.104 146.691C180.263 147.006 180.358 147.35 180.382 147.703C180.407 148.056 180.36 148.409 180.246 148.744C180.132 149.078 179.952 149.387 179.717 149.651Z" fill="#FF8B7B"/>
<path d="M170.834 73.8689C170.631 75.816 172.956 82.6942 181.087 85.6382C177.949 85.6655 176.579 89.6425 176.579 89.6425C176.579 89.6425 165.796 83.8985 167.078 76.9619C167.249 76.0916 167.718 75.3077 168.402 74.7437C169.087 74.1798 169.946 73.8706 170.834 73.8689Z" fill="#008444"/>
<path d="M183.607 74.3986C183.412 76.2989 185.61 80.2905 181.088 85.6383C184.225 85.6655 186.108 88.7877 186.108 88.7877C187.317 86.8949 188.032 84.729 188.188 82.4883C188.343 80.2476 187.934 78.0038 186.998 75.9621C186.053 75.1082 184.87 74.5628 183.607 74.3986Z" fill="#008444"/>
<g opacity="0.5">
<path opacity="0.5" d="M170.756 73.9625C170.553 75.9028 172.873 82.7693 180.986 85.7065C177.856 85.7338 176.488 89.6981 176.488 89.6981C176.488 89.6981 165.728 83.9668 167.007 77.0419C167.18 76.1747 167.648 75.3941 168.331 74.8327C169.014 74.2714 169.871 73.9639 170.756 73.9625Z" fill="white"/>
<path opacity="0.5" d="M183.501 74.491C183.306 76.3875 185.499 80.3703 180.986 85.7063C184.118 85.7336 185.996 88.849 185.996 88.849C187.202 86.9603 187.916 84.7991 188.071 82.5633C188.226 80.3276 187.817 78.0886 186.883 76.0516C185.94 75.1994 184.761 74.655 183.501 74.491Z" fill="white"/>
</g>
<path d="M176.906 58.6755C176.906 58.6755 178.854 58.8235 178.088 52.1614C178.088 52.1614 180.61 49.6672 180.611 43.3021C180.611 43.3021 198.608 47.0317 199.869 38.8042C201.13 30.5767 187.733 34.8555 187.733 34.8555C187.733 34.8555 180.424 28.2733 174.264 35.5136C174.264 35.5136 166.291 35.8222 168.458 42.863C168.458 42.863 164.573 47.7999 168.011 50.9172C168.011 50.923 166.287 58.25 176.906 58.6755Z" fill="#263238"/>
<path d="M170.398 59.2692C170.961 60.1537 171.694 60.9181 172.554 61.5181C173.414 62.1181 174.384 62.542 175.408 62.7652C178.161 63.3435 179.378 60.8366 178.481 58.3336C177.673 56.0808 175.267 53.0647 172.568 53.6119C169.909 54.1493 169.029 57.068 170.398 59.2692Z" fill="#FF8B7B"/>
<path d="M228.693 102.153L230.596 104.056C230.736 104.196 230.903 104.307 231.086 104.383C231.268 104.459 231.465 104.498 231.663 104.498C231.861 104.498 232.057 104.459 232.24 104.383C232.423 104.307 232.589 104.196 232.729 104.056L235.321 101.464C235.586 101.199 235.797 100.885 235.94 100.538C236.084 100.192 236.158 99.8209 236.158 99.446C236.158 99.0712 236.084 98.7 235.94 98.3538C235.797 98.0075 235.586 97.6928 235.321 97.4279C234.786 96.893 234.06 96.5925 233.303 96.5925C232.546 96.5925 231.82 96.893 231.285 97.4279L228.693 100.02C228.553 100.16 228.441 100.327 228.366 100.509C228.29 100.692 228.251 100.888 228.251 101.086C228.251 101.284 228.29 101.481 228.366 101.663C228.441 101.846 228.553 102.013 228.693 102.153Z" fill="#FFB900"/>
<path d="M230.016 102.267L230.532 102.784C230.873 103.125 231.336 103.317 231.819 103.317C232.302 103.317 232.765 103.125 233.107 102.784C233.448 102.443 233.64 101.98 233.64 101.497C233.64 101.014 233.448 100.551 233.107 100.21L232.591 99.6931C232.249 99.3519 231.786 99.1602 231.303 99.1602C230.82 99.1602 230.357 99.3519 230.016 99.6931C229.847 99.862 229.712 100.063 229.621 100.283C229.529 100.504 229.482 100.741 229.482 100.98C229.482 101.219 229.529 101.456 229.621 101.677C229.712 101.898 229.847 102.098 230.016 102.267Z" fill="#263238"/>
<path opacity="0.9" d="M231.947 101.444L232.486 101.983C232.54 102.035 232.613 102.064 232.688 102.064C232.763 102.064 232.836 102.035 232.89 101.983C232.942 101.929 232.971 101.856 232.971 101.781C232.971 101.706 232.942 101.633 232.89 101.579L232.351 101.04C232.297 100.987 232.225 100.958 232.149 100.958C232.074 100.958 232.002 100.987 231.947 101.04C231.895 101.094 231.866 101.166 231.866 101.242C231.866 101.317 231.895 101.389 231.947 101.444Z" fill="white"/>
<path opacity="0.9" d="M230.951 100.451L231.161 100.662C231.216 100.714 231.288 100.743 231.363 100.743C231.439 100.743 231.511 100.714 231.565 100.662C231.618 100.608 231.647 100.535 231.647 100.46C231.647 100.384 231.618 100.312 231.565 100.257L231.355 100.047C231.301 99.9948 231.228 99.9657 231.153 99.9657C231.078 99.9657 231.005 99.9948 230.951 100.047C230.924 100.073 230.903 100.105 230.889 100.139C230.874 100.174 230.867 100.211 230.867 100.249C230.867 100.286 230.874 100.324 230.889 100.358C230.903 100.393 230.924 100.424 230.951 100.451Z" fill="white"/>
<path opacity="0.9" d="M231.185 102.199L231.723 102.739C231.778 102.791 231.85 102.82 231.925 102.82C232.001 102.82 232.073 102.791 232.127 102.739C232.179 102.684 232.209 102.612 232.209 102.537C232.209 102.461 232.179 102.389 232.127 102.335L231.589 101.795C231.535 101.743 231.462 101.714 231.387 101.714C231.312 101.714 231.239 101.743 231.185 101.795C231.133 101.85 231.104 101.922 231.104 101.997C231.104 102.073 231.133 102.145 231.185 102.199Z" fill="white"/>
<path opacity="0.9" d="M230.194 101.206L230.406 101.417C230.46 101.47 230.532 101.499 230.608 101.499C230.683 101.499 230.755 101.47 230.81 101.417C230.862 101.363 230.891 101.29 230.891 101.215C230.891 101.139 230.862 101.067 230.81 101.012L230.599 100.802C230.545 100.75 230.472 100.721 230.397 100.721C230.321 100.721 230.249 100.75 230.194 100.802C230.142 100.857 230.113 100.929 230.113 101.004C230.113 101.079 230.142 101.152 230.194 101.206Z" fill="white"/>
<path d="M268.392 171.482V153.405C268.392 152.782 268.144 152.184 267.704 151.743C267.263 151.303 266.665 151.055 266.042 151.055C265.419 151.056 264.822 151.303 264.381 151.744C263.941 152.184 263.693 152.782 263.693 153.405V171.479H263.352C262.985 171.479 262.622 171.551 262.283 171.691C261.945 171.831 261.637 172.037 261.378 172.296C261.119 172.555 260.913 172.863 260.773 173.202C260.633 173.54 260.561 173.903 260.561 174.27V186.577C260.561 187.332 260.861 188.056 261.395 188.59C261.929 189.123 262.653 189.423 263.408 189.423H268.677C269.432 189.423 270.157 189.123 270.691 188.59C271.225 188.056 271.525 187.332 271.525 186.577V174.273C271.525 173.906 271.453 173.543 271.312 173.205C271.172 172.866 270.967 172.558 270.708 172.299C270.448 172.04 270.141 171.834 269.802 171.694C269.463 171.554 269.1 171.482 268.734 171.482H268.392Z" fill="#1E88E5"/>
<path opacity="0.5" d="M268.392 171.482V153.405C268.392 152.782 268.144 152.184 267.704 151.743C267.263 151.303 266.665 151.055 266.042 151.055C265.419 151.056 264.822 151.303 264.381 151.744C263.941 152.184 263.693 152.782 263.693 153.405V171.479H263.352C262.985 171.479 262.622 171.551 262.283 171.691C261.945 171.831 261.637 172.037 261.378 172.296C261.119 172.555 260.913 172.863 260.773 173.202C260.633 173.54 260.561 173.903 260.561 174.27V186.577C260.561 187.332 260.861 188.056 261.395 188.59C261.929 189.123 262.653 189.423 263.408 189.423H268.677C269.432 189.423 270.157 189.123 270.691 188.59C271.225 188.056 271.525 187.332 271.525 186.577V174.273C271.525 173.906 271.453 173.543 271.312 173.205C271.172 172.866 270.967 172.558 270.708 172.299C270.448 172.04 270.141 171.834 269.802 171.694C269.463 171.554 269.1 171.482 268.734 171.482H268.392Z" fill="white"/>
<path d="M280.677 161.931C280.68 161.276 280.501 160.633 280.159 160.075C279.817 159.516 279.326 159.064 278.741 158.769C278.156 158.474 277.501 158.347 276.848 158.404C276.195 158.46 275.571 158.698 275.046 159.089C274.521 159.481 274.115 160.011 273.875 160.62C273.634 161.229 273.568 161.893 273.684 162.538C273.8 163.183 274.094 163.782 274.532 164.269C274.97 164.756 275.535 165.112 276.163 165.296V168.598H278.142V165.296C278.872 165.084 279.513 164.642 279.97 164.035C280.427 163.429 280.675 162.69 280.677 161.931Z" fill="#263238"/>
<path opacity="0.5" d="M280.677 161.931C280.68 161.276 280.501 160.633 280.159 160.075C279.817 159.516 279.326 159.064 278.741 158.769C278.156 158.474 277.501 158.347 276.848 158.404C276.195 158.46 275.571 158.698 275.046 159.089C274.521 159.481 274.115 160.011 273.875 160.62C273.634 161.229 273.568 161.893 273.684 162.538C273.8 163.183 274.094 163.782 274.532 164.269C274.97 164.756 275.535 165.112 276.163 165.296V168.598H278.142V165.296C278.872 165.084 279.513 164.642 279.97 164.035C280.427 163.429 280.675 162.69 280.677 161.931Z" fill="white"/>
<path d="M287.969 167.501H267.449V170.163H287.969V167.501Z" fill="#263238"/>
<path d="M294.598 161.238H285.356C285.045 161.238 284.746 161.362 284.526 161.582C284.305 161.802 284.181 162.101 284.181 162.413C284.181 162.724 284.305 163.023 284.526 163.243C284.746 163.464 285.045 163.587 285.356 163.587H288.803V168.598H291.151V163.587H294.598C294.909 163.587 295.208 163.464 295.428 163.243C295.649 163.023 295.772 162.724 295.772 162.413C295.772 162.101 295.649 161.802 295.428 161.582C295.208 161.362 294.909 161.238 294.598 161.238Z" fill="#263238"/>
<path d="M293.232 172.604V177.509H286.717V172.604L286.399 169.029C286.399 168.081 286.775 167.172 287.446 166.502C288.117 165.831 289.026 165.455 289.975 165.455C290.923 165.455 291.832 165.831 292.503 166.502C293.174 167.172 293.55 168.081 293.55 169.029L293.232 172.604Z" fill="#1E88E5"/>
<path opacity="0.4" d="M293.232 172.604V177.509H286.717V172.604L286.399 169.029C286.399 168.081 286.775 167.172 287.446 166.502C288.117 165.831 289.026 165.455 289.975 165.455C290.923 165.455 291.832 165.831 292.503 166.502C293.174 167.172 293.55 168.081 293.55 169.029L293.232 172.604Z" fill="#424242"/>
<path d="M285.944 174.34H294.002C295.156 174.34 296.299 174.568 297.365 175.009C298.432 175.451 299.4 176.098 300.217 176.914C301.033 177.73 301.68 178.698 302.122 179.764C302.563 180.83 302.791 181.973 302.791 183.127V292.105H277.156V183.127C277.156 180.796 278.082 178.562 279.73 176.914C281.378 175.266 283.613 174.34 285.944 174.34V174.34Z" fill="#1E88E5"/>
<path d="M277.059 294.192C275.572 294.192 274.119 294.633 272.882 295.459C271.646 296.285 270.682 297.459 270.113 298.833C269.544 300.206 269.395 301.718 269.685 303.176C269.976 304.634 270.692 305.974 271.743 307.025C272.795 308.076 274.135 308.792 275.593 309.082C277.052 309.372 278.564 309.223 279.937 308.654C281.311 308.085 282.485 307.121 283.311 305.885C284.137 304.648 284.578 303.195 284.578 301.708C284.578 300.721 284.384 299.744 284.006 298.832C283.628 297.92 283.074 297.091 282.376 296.393C281.678 295.695 280.849 295.142 279.937 294.764C279.024 294.387 278.047 294.192 277.059 294.192ZM277.059 305.744C276.261 305.744 275.481 305.507 274.817 305.064C274.153 304.62 273.636 303.99 273.33 303.253C273.025 302.515 272.945 301.704 273.101 300.921C273.256 300.138 273.641 299.419 274.205 298.855C274.77 298.29 275.489 297.906 276.272 297.75C277.055 297.595 277.867 297.675 278.604 297.98C279.342 298.285 279.972 298.803 280.415 299.466C280.859 300.13 281.096 300.91 281.096 301.708C281.096 302.779 280.67 303.805 279.914 304.562C279.157 305.319 278.13 305.744 277.059 305.744Z" fill="#263238"/>
<path d="M305.465 294.192C303.978 294.192 302.524 294.633 301.288 295.459C300.051 296.285 299.087 297.459 298.518 298.833C297.949 300.206 297.801 301.718 298.091 303.176C298.381 304.634 299.097 305.974 300.149 307.025C301.2 308.076 302.54 308.792 303.999 309.082C305.457 309.372 306.969 309.223 308.343 308.654C309.716 308.085 310.891 307.121 311.717 305.885C312.543 304.648 312.984 303.195 312.983 301.708C312.983 300.721 312.789 299.744 312.411 298.832C312.033 297.92 311.479 297.091 310.781 296.393C310.083 295.695 309.254 295.142 308.342 294.764C307.43 294.387 306.452 294.192 305.465 294.192ZM305.465 305.744C304.666 305.744 303.886 305.507 303.222 305.064C302.559 304.62 302.041 303.99 301.736 303.253C301.43 302.515 301.35 301.704 301.506 300.921C301.662 300.138 302.046 299.419 302.611 298.855C303.175 298.29 303.894 297.906 304.677 297.75C305.46 297.595 306.272 297.675 307.009 297.98C307.747 298.285 308.377 298.803 308.821 299.466C309.264 300.13 309.501 300.91 309.501 301.708C309.501 302.238 309.397 302.763 309.194 303.253C308.991 303.742 308.694 304.187 308.319 304.562C307.944 304.937 307.499 305.234 307.01 305.437C306.52 305.64 305.995 305.744 305.465 305.744Z" fill="#263238"/>
<path d="M310.476 294.609H272.046C271.717 294.609 271.391 294.545 271.087 294.419C270.783 294.293 270.507 294.108 270.274 293.875C270.042 293.643 269.857 293.366 269.731 293.062C269.605 292.758 269.541 292.433 269.541 292.103C269.541 291.439 269.805 290.802 270.275 290.332C270.745 289.862 271.382 289.599 272.046 289.599H305.463V153.451C305.463 149.049 307.212 144.827 310.326 141.714L331.576 120.469C331.808 120.237 332.085 120.052 332.389 119.926C332.693 119.8 333.018 119.736 333.348 119.736C333.677 119.736 334.002 119.8 334.306 119.926C334.61 120.052 334.887 120.237 335.119 120.469C335.352 120.702 335.537 120.978 335.663 121.282C335.788 121.586 335.853 121.912 335.853 122.241C335.853 122.57 335.788 122.896 335.663 123.199C335.537 123.503 335.352 123.78 335.119 124.012L313.87 145.256C311.697 147.43 310.476 150.377 310.476 153.451V294.609Z" fill="#263238"/>
<path d="M307.969 255.563H271.42C270.922 255.563 270.444 255.365 270.091 255.013C269.739 254.661 269.541 254.183 269.541 253.684C269.541 253.186 269.739 252.708 270.091 252.356C270.444 252.003 270.922 251.805 271.42 251.805H307.969V255.563Z" fill="#263238"/>
<g opacity="0.4">
<g opacity="0.4">
<path opacity="0.4" d="M310.476 294.609H272.046C271.717 294.609 271.391 294.545 271.087 294.419C270.783 294.293 270.507 294.108 270.274 293.875C270.042 293.643 269.857 293.366 269.731 293.062C269.605 292.758 269.541 292.433 269.541 292.103C269.541 291.439 269.805 290.802 270.275 290.332C270.745 289.862 271.382 289.599 272.046 289.599H305.463V153.451C305.463 149.049 307.212 144.827 310.326 141.714L331.576 120.469C331.808 120.237 332.085 120.052 332.389 119.926C332.693 119.8 333.018 119.736 333.348 119.736C333.677 119.736 334.002 119.8 334.306 119.926C334.61 120.052 334.887 120.237 335.119 120.469C335.352 120.702 335.537 120.978 335.663 121.282C335.788 121.586 335.853 121.912 335.853 122.241C335.853 122.57 335.788 122.896 335.663 123.199C335.537 123.503 335.352 123.78 335.119 124.012L313.87 145.256C311.697 147.43 310.476 150.377 310.476 153.451V294.609Z" fill="white"/>
</g>
<g opacity="0.4">
<path opacity="0.4" d="M307.969 255.563H271.42C270.922 255.563 270.444 255.365 270.091 255.013C269.739 254.661 269.541 254.183 269.541 253.684C269.541 253.186 269.739 252.708 270.091 252.356C270.444 252.003 270.922 251.805 271.42 251.805H307.969V255.563Z" fill="white"/>
</g>
</g>
<g opacity="0.4">
<g opacity="0.4">
<path opacity="0.4" d="M310.476 294.609H272.046C271.717 294.609 271.391 294.545 271.087 294.419C270.783 294.293 270.507 294.108 270.274 293.875C270.042 293.643 269.857 293.366 269.731 293.062C269.605 292.758 269.541 292.433 269.541 292.103C269.541 291.439 269.805 290.802 270.275 290.332C270.745 289.862 271.382 289.599 272.046 289.599H305.463V153.451C305.463 149.049 307.212 144.827 310.326 141.714L331.576 120.469C331.808 120.237 332.085 120.052 332.389 119.926C332.693 119.8 333.018 119.736 333.348 119.736C333.677 119.736 334.002 119.8 334.306 119.926C334.61 120.052 334.887 120.237 335.119 120.469C335.352 120.702 335.537 120.978 335.663 121.282C335.788 121.586 335.853 121.912 335.853 122.241C335.853 122.57 335.788 122.896 335.663 123.199C335.537 123.503 335.352 123.78 335.119 124.012L313.87 145.256C311.697 147.43 310.476 150.377 310.476 153.451V294.609Z" fill="white"/>
</g>
<g opacity="0.4">
<path opacity="0.4" d="M307.969 255.563H271.42C270.922 255.563 270.444 255.365 270.091 255.013C269.739 254.661 269.541 254.183 269.541 253.684C269.541 253.186 269.739 252.708 270.091 252.356C270.444 252.003 270.922 251.805 271.42 251.805H307.969V255.563Z" fill="white"/>
</g>
</g>
<path d="M271.525 186.579V180.576C269.724 181.125 267.79 181.043 266.042 180.343C264.155 179.399 261.988 179.991 260.561 180.611V186.579C260.561 187.334 260.861 188.059 261.395 188.592C261.929 189.126 262.653 189.426 263.408 189.426H268.677C269.051 189.426 269.421 189.353 269.767 189.209C270.112 189.066 270.426 188.857 270.691 188.592C270.955 188.328 271.165 188.014 271.308 187.669C271.451 187.323 271.525 186.953 271.525 186.579Z" fill="#1E88E5"/>
<path d="M269.564 168.833C269.564 169.529 269.358 170.211 268.97 170.79C268.583 171.369 268.033 171.821 267.389 172.088C266.745 172.354 266.037 172.424 265.353 172.288C264.669 172.152 264.042 171.817 263.549 171.324C263.056 170.832 262.72 170.204 262.584 169.521C262.448 168.837 262.517 168.129 262.784 167.485C263.051 166.841 263.502 166.291 264.082 165.904C264.661 165.516 265.342 165.31 266.039 165.309C266.974 165.309 267.87 165.68 268.531 166.341C269.193 167.002 269.564 167.898 269.564 168.833Z" fill="#1E88E5"/>
<path d="M314.52 137.517L331.571 120.469C332.041 120 332.678 119.736 333.343 119.736C334.008 119.736 334.645 120 335.115 120.469C335.585 120.939 335.849 121.576 335.849 122.241C335.849 122.905 335.585 123.542 335.115 124.012L318.063 141.06L314.52 137.517Z" fill="#263238"/>
</svg>
