<svg width="150" height="150" viewBox="0 0 150 150" fill="none" xmlns="http://www.w3.org/2000/svg">
<g style="mix-blend-mode:multiply">
<path d="M91.0068 143.176C122.984 143.176 148.907 140.997 148.907 138.31C148.907 135.623 122.984 133.444 91.0068 133.444C59.0295 133.444 33.1068 135.623 33.1068 138.31C33.1068 140.997 59.0295 143.176 91.0068 143.176Z" fill="#D4D4D4"/>
</g>
<path d="M45.5196 80.272C47.0902 78.0863 44.9525 73.9976 44.7183 73.5496C43.4919 71.2042 42.3859 71.244 42.0664 69.602C41.5227 66.8086 44.5097 65.5869 44.0404 63.1883C43.5253 60.5567 39.7297 60.9987 38.0583 57.5754C36.8366 55.0741 38.4201 53.9295 37.257 50.853C36.4907 48.8275 34.3133 45.3825 31.2748 45.5487C28.1692 45.7188 25.5818 49.5837 26.0939 52.2092C26.606 54.8347 30.0246 55.2646 30.1021 57.7602C30.1627 59.6922 28.1337 60.0844 28.1285 62.0156C28.1203 64.9852 32.9129 66.148 32.6921 68.615C32.5315 70.4064 29.9497 70.4103 29.4229 72.3769C28.6458 75.2773 33.0817 79.7062 37.8721 81.0733C38.5829 81.2763 43.7815 82.6902 45.5196 80.272Z" fill="#006430"/>
<path d="M31.151 48.8793C31.151 48.8793 33.9263 53.5048 34.3579 57.8835C34.7895 62.2623 36.0843 61.8311 37.0094 65.8397C37.9345 69.8483 37.0094 73.2422 39.5375 75.5842C42.0656 77.9261 43.6067 83.1706 43.6067 83.1706" stroke="#16A75C" stroke-miterlimit="10"/>
<path d="M111.643 68.4727C114.164 67.5294 114.66 62.9425 114.717 62.4399C115.002 59.8087 114.06 59.2265 114.707 57.6845C115.809 55.0599 118.971 55.7058 119.915 53.4513C120.95 50.9777 117.549 49.2344 118.064 45.46C118.439 42.7012 120.392 42.6306 121.137 39.4268C121.627 37.3173 121.733 33.2433 119.115 31.6918C116.439 30.1066 112.139 31.8797 111.106 34.3468C110.073 36.8138 112.674 39.0718 111.351 41.1891C110.327 42.8285 108.423 42.0263 107.344 43.6285C105.686 46.0925 109.023 49.7232 107.468 51.6509C106.338 53.0508 104.19 51.6184 102.659 52.9599C100.399 54.94 101.624 61.0862 104.845 64.8862C105.319 65.4502 108.854 69.516 111.643 68.4727Z" fill="#006430"/>
<path d="M117.157 34.3914C117.157 34.3914 116.891 39.7787 114.815 43.6583C112.739 47.5379 114.055 47.9007 112.595 51.7452C111.134 55.5898 108.479 57.8962 109.278 61.2503C110.076 64.6043 108.442 69.8185 108.442 69.8185" stroke="#16A75C" stroke-miterlimit="10"/>
<path d="M52.3564 107.97C52.0442 103.927 45.6114 101.291 44.9062 101C41.2167 99.4885 39.9808 100.608 38.0185 99.0266C34.6796 96.3353 36.9362 92.028 34.0657 89.7194C30.9177 87.1869 26.9732 91.3812 21.7239 89.0601C17.8876 87.3631 18.6014 84.5069 14.2738 82.0905C11.4249 80.5004 5.57261 78.6446 2.23153 81.7874C-1.18184 84.9986 -0.409119 91.9639 2.72807 94.492C5.86525 97.0201 10.2232 94.1963 12.7361 96.9963C14.6811 99.1638 12.724 101.585 14.5933 103.816C17.4672 107.246 24.1169 103.932 26.2585 106.989C27.813 109.209 24.8416 111.72 26.1442 114.498C28.0662 118.596 37.4756 119.389 44.3223 116.316C45.3387 115.861 52.7018 112.444 52.3564 107.97Z" fill="#16A75C"/>
<path d="M5.32245 85.7476C5.32245 85.7476 13.0111 88.3831 17.7595 93.0099C22.5079 97.6366 23.581 95.8817 28.5386 99.6028C33.4961 103.324 35.7246 108.131 40.912 108.377C46.0993 108.623 52.9668 113.166 52.9668 113.166" stroke="#006430" stroke-miterlimit="10"/>
<path d="M44.3223 116.318C44.5673 116.208 45.1824 115.925 45.9673 115.498C41.9015 115.38 32.1285 115.766 29.3762 110.726C28.1238 108.432 29.09 106.416 27.1944 104.908C24.7914 102.996 21.9022 105.172 18.3633 103.038C16.9899 102.141 15.8502 100.93 15.0387 99.5052C13.0608 96.3884 14.043 94.9269 12.5452 93.4794C10.6128 91.6097 8.20199 93.3001 3.92197 92.1287C2.66684 91.7861 1.47171 91.2529 0.378296 90.5478C0.73525 92.0745 1.55607 93.4534 2.72805 94.4949C5.86437 97.0209 10.2236 94.1993 12.7361 96.9992C14.6811 99.1667 12.724 101.588 14.5932 103.819C17.4672 107.248 24.1169 103.935 26.2584 106.992C27.813 109.212 24.8416 111.723 26.1442 114.501C28.0662 118.599 37.4756 119.392 44.3223 116.318Z" fill="#006430"/>
<path d="M49.5762 99.225C51.0948 95.4649 46.5057 90.2433 46.0027 89.6706C43.3703 86.6759 41.7655 87.1291 40.7114 84.8395C38.9175 80.9435 42.8538 78.0898 41.3101 74.7462C39.6166 71.0778 34.2185 73.0804 30.5492 68.6666C27.8679 65.4407 29.7774 63.2 26.9757 59.1122C25.1307 56.4209 20.7135 52.1551 16.3265 53.4846C11.8413 54.8426 9.43396 61.4238 11.121 65.0861C12.8079 68.7484 17.9659 68.1549 18.9711 71.78C19.7503 74.5864 16.9196 75.8851 17.6014 78.7141C18.6503 83.0642 26.0805 83.0543 26.638 86.7443C27.0432 89.4239 23.2654 90.3516 23.1965 93.4186C23.0952 97.9445 31.1691 102.841 38.6695 103.131C39.7811 103.172 47.8957 103.386 49.5762 99.225Z" fill="#16A75C"/>
<path d="M17.3335 58.403C17.3335 58.403 23.0477 64.183 25.2429 70.4375C27.4381 76.6919 29.1796 75.5989 31.9653 81.1369C34.751 86.6749 34.606 91.9705 39.1457 94.4982C43.6855 97.0258 47.8127 104.152 47.8127 104.152" stroke="#006430" stroke-miterlimit="10"/>
<path d="M38.6678 103.129C38.9362 103.14 39.6133 103.159 40.5059 103.126C36.9168 101.212 27.9918 97.2115 27.7684 91.4727C27.6667 88.8619 29.429 87.4857 28.4017 85.2914C27.1 82.5104 23.5442 83.1745 21.3239 79.6889C20.4926 78.2752 20.0103 76.6838 19.917 75.0465C19.5313 71.376 21.0598 70.5011 20.3638 68.5405C19.4646 66.0064 16.5543 66.4479 13.2409 63.4956C12.2693 62.6305 11.4361 61.6215 10.7704 60.5038C10.4112 62.0299 10.5331 63.6298 11.1193 65.0839C12.805 68.741 17.9642 68.1527 18.9694 71.7777C19.7486 74.5842 16.9179 75.8828 17.5997 78.7118C18.6486 83.0615 26.0788 83.052 26.6364 86.742C27.0416 89.4216 23.2637 90.3493 23.1949 93.4164C23.0936 97.9423 31.1675 102.839 38.6678 103.129Z" fill="#006430"/>
<path d="M119.249 82.2784C123.44 81.5148 125.498 74.5084 125.723 73.7405C126.903 69.7219 125.6 68.5518 127.04 66.3302C129.49 62.5501 134.235 64.4415 136.337 61.193C138.641 57.6299 133.832 53.9637 135.69 48.2265C137.047 44.0348 140.109 44.4712 142.164 39.6886C143.517 36.5397 144.823 30.2225 141.178 27.0732C137.455 23.8546 130.26 25.4134 127.958 28.9671C125.656 32.5207 129.078 36.7665 126.425 39.6946C124.37 41.9617 121.628 40.179 119.498 42.3729C116.226 45.7469 120.407 52.3369 117.445 54.9048C115.294 56.7693 112.349 53.9364 109.588 55.5974C105.513 58.0493 105.701 67.9661 109.656 74.7872C110.244 75.7997 114.612 83.1234 119.249 82.2784Z" fill="#16A75C"/>
<path d="M137.378 30.731C137.378 30.731 135.456 39.0495 131.136 44.5113C126.815 49.9732 128.765 50.9048 125.414 56.4874C122.062 62.07 117.281 64.9175 117.586 70.3655C117.89 75.8135 113.884 83.4792 113.884 83.4792" stroke="#006430" stroke-miterlimit="10"/>
<path d="M109.657 74.7878C109.799 75.0319 110.162 75.644 110.693 76.4176C110.375 72.1571 108.914 61.9875 113.883 58.5664C116.143 57.008 118.355 57.801 119.727 55.6569C121.464 52.9396 118.878 50.1565 120.725 46.2276C121.513 44.6958 122.655 43.374 124.056 42.3718C127.097 39.9679 128.731 40.8337 130.082 39.1143C131.827 36.8931 129.799 34.5572 130.558 29.9586C130.78 28.6101 131.208 27.3037 131.827 26.085C130.27 26.6233 128.918 27.6301 127.957 28.9672C125.657 32.517 129.077 36.7667 126.424 39.6948C124.369 41.9618 121.627 40.1792 119.497 42.3731C116.225 45.7471 120.406 52.337 117.444 54.905C115.293 56.7694 112.348 53.9366 109.587 55.5976C105.515 58.0512 105.702 67.9645 109.657 74.7878Z" fill="#006430"/>
<path d="M112.347 58.4703C112.197 58.544 112.064 58.6477 111.956 58.7749C111.847 58.9022 111.766 59.0503 111.718 59.2101C111.669 59.3699 111.654 59.5379 111.672 59.7039C111.691 59.8699 111.744 60.0302 111.827 60.175C112.804 62.2126 114.529 70.8458 115.832 71.8605C117.31 73.012 122.473 72.8129 124.964 72.8073L125.536 71.367C125.536 71.367 119.316 69.5922 117.808 69.7346C117.807 69.7346 115.933 56.3426 112.347 58.4703Z" fill="#FCA465"/>
<path d="M117.027 61.2114C117.546 62.8508 117.798 64.5629 117.775 66.2824C117.775 66.2824 114.543 67.6096 112.86 67.0131L111.46 60.0807C110.966 58.8491 114.003 59.9444 114.003 59.9444C115.324 58.9963 116.494 59.6755 117.027 61.2114Z" fill="#1E88E5"/>
<path d="M127.304 71.2111C127.304 71.2111 130.421 71.7652 130.448 72.0336C130.476 72.302 130.535 74.8825 130.535 74.8825C130.535 74.8825 129.775 74.9989 129.155 72.7449C129.155 72.7449 126.198 73.6128 124.218 72.8016L125.091 71.2994L127.304 71.2111Z" fill="#FCA465"/>
<path d="M110.192 6H38.844C37.8203 6 36.9904 6.82991 36.9904 7.85365V136.936C36.9904 137.96 37.8203 138.79 38.844 138.79H110.192C111.216 138.79 112.046 137.96 112.046 136.936V7.85365C112.046 6.82991 111.216 6 110.192 6Z" fill="#4D483D"/>
<path d="M108.592 10.5363H40.444V130.258H108.592V10.5363Z" fill="#D9CFBD"/>
<path d="M45.199 85.1996L62.0511 87.9844L57.8481 72.7058L51.7699 75.1673L45.8561 68.3059L45.199 85.1996Z" fill="#EBE0CC"/>
<path d="M47.8274 66.5465L53.2485 71.2979L66.0622 65.8434L61.9553 60.0362L47.6633 57.9245L47.8274 66.5465Z" fill="#EBE0CC"/>
<path d="M62.2831 72.7057L73.4517 66.8984L77.5586 79.5683L64.5445 86.5526L62.2831 72.7057Z" fill="#EBE0CC"/>
<path d="M70.1548 65.6974L64.2549 55.4603L75.4235 44.7245C75.4235 44.7245 85.139 61.0793 84.6442 61.0793C84.1494 61.0793 70.1548 65.6974 70.1548 65.6974Z" fill="#EBE0CC"/>
<path d="M60.1481 55.8124L47.663 54.5804L44.3773 46.6614L55.7122 44.9017L63.926 46.8372L60.1481 55.8124Z" fill="#EBE0CC"/>
<path d="M77.0682 66.3707L80.1894 78.3367L86.4317 81.5042L93.1671 82.2081L87.5828 64.0828L77.0682 66.3707Z" fill="#EBE0CC"/>
<path d="M69.6761 44.7258L57.5195 41.912L44.0487 43.496L45.1985 31.8818L61.6259 34.6956L74.6037 41.5588L69.6761 44.7258Z" fill="#EBE0CC"/>
<path d="M68.9436 34.3358L76.6716 39.9076L94.5069 31.7887L68.9436 34.3358Z" fill="#EBE0CC"/>
<path d="M80.2378 44.6839L87.1412 60.6031L91.8164 61.2399L95.6934 80.0249L104.908 73.1796L102.678 30.675L80.2378 44.6839Z" fill="#EBE0CC"/>
<path d="M45.3135 87.3473L61.3635 91.0087L51.7636 110.59L44.4391 112.023L45.3135 87.3473Z" fill="#EBE0CC"/>
<path d="M64.0394 91.8049C63.445 92.6009 55.2703 111.704 55.2703 111.704C55.2703 111.704 82.1686 110.908 80.8314 108.202C79.4942 105.496 77.7102 82.7305 77.7102 82.7305L64.0394 91.8049Z" fill="#EBE0CC"/>
<path d="M44.4409 115.525L44.5708 119.346H69.8349L62.2065 114.092L51.6092 113.774L44.4409 115.525Z" fill="#EBE0CC"/>
<path d="M80.3867 83.6859L83.8066 101.516L99.5575 96.4225C99.5575 96.4225 103.273 85.279 102.827 85.1197C102.381 84.9603 80.3867 83.6859 80.3867 83.6859Z" fill="#EBE0CC"/>
<path d="M85.5879 106.929L87.3714 118.709L102.084 119.346L103.272 99.4464L85.5879 106.929Z" fill="#EBE0CC"/>
<path d="M82.6158 113.615L81.2782 119.505L69.9835 117.913L66.1195 114.093L82.6158 113.615Z" fill="#EBE0CC"/>
<path d="M50.5188 88.485C49.863 88.485 49.2137 88.6141 48.6079 88.8651C48.0022 89.1161 47.4517 89.484 46.9882 89.9477C46.5246 90.4115 46.1569 90.962 45.9061 91.5679C45.6553 92.1737 45.5264 92.8231 45.5266 93.4788C45.5266 96.2359 50.5188 101.903 50.5188 101.903C50.5188 101.903 55.5109 96.2359 55.5109 93.4788C55.5111 92.8231 55.3821 92.1737 55.1314 91.5679C54.8806 90.962 54.5129 90.4115 54.0493 89.9477C53.5857 89.484 53.0353 89.1161 52.4296 88.8651C51.8238 88.6141 51.1745 88.485 50.5188 88.485ZM50.5188 95.3489C50.1072 95.3493 49.7047 95.2277 49.3623 94.9993C49.0199 94.7709 48.753 94.446 48.5953 94.0659C48.4376 93.6857 48.3962 93.2673 48.4764 92.8636C48.5566 92.4599 48.7547 92.0891 49.0458 91.798C49.3368 91.507 49.7076 91.3089 50.1113 91.2287C50.515 91.1485 50.9334 91.1899 51.3136 91.3476C51.6938 91.5053 52.0186 91.7722 52.247 92.1146C52.4754 92.457 52.5971 92.8595 52.5966 93.271C52.5966 93.8221 52.3777 94.3506 51.988 94.7403C51.5984 95.13 51.0698 95.3489 50.5188 95.3489Z" fill="#EF5350"/>
<path d="M85.9819 35.2895C84.6579 35.2896 83.3881 35.8157 82.4519 36.7519C81.5157 37.6882 80.9897 38.958 80.9897 40.2821C80.9897 43.0392 85.9819 48.7062 85.9819 48.7062C85.9819 48.7062 90.974 43.0392 90.974 40.2821C90.974 38.958 90.4481 37.6882 89.5119 36.7519C88.5757 35.8157 87.3059 35.2896 85.9819 35.2895ZM85.9819 42.1539C85.5703 42.1543 85.1679 42.0326 84.8255 41.8042C84.4831 41.5758 84.2161 41.251 84.0584 40.8708C83.9007 40.4907 83.8593 40.0723 83.9395 39.6686C84.0197 39.2649 84.2179 38.894 84.5089 38.603C84.7999 38.312 85.1708 38.1138 85.5745 38.0336C85.9782 37.9535 86.3966 37.9948 86.7767 38.1525C87.1569 38.3102 87.4817 38.5772 87.7101 38.9196C87.9385 39.262 88.0602 39.6644 88.0598 40.076C88.0598 40.3489 88.006 40.6191 87.9016 40.8712C87.7972 41.1233 87.6441 41.3523 87.4512 41.5453C87.2582 41.7382 87.0292 41.8913 86.7771 41.9957C86.525 42.1001 86.2548 42.1539 85.9819 42.1539Z" fill="#EF5350"/>
<path d="M52.0472 81.759C54.0684 71.0708 58.0844 66.9687 61.5246 65.2501C67.2591 62.3852 72.953 65.3648 78.9503 61.2757C82.3702 58.9437 84.123 55.5182 85.0649 53.0213" stroke="#EF5350" stroke-miterlimit="10" stroke-dasharray="6 6"/>
<path d="M140.193 134.544C145.609 129.629 146.718 122.027 142.669 117.567C138.621 113.106 130.948 113.474 125.532 118.39C120.116 123.305 119.007 130.906 123.056 135.367C127.104 139.828 134.777 139.459 140.193 134.544Z" fill="#24211C"/>
<path d="M137.615 131.703C141.126 128.516 141.845 123.588 139.221 120.696C136.596 117.804 131.621 118.043 128.11 121.23C124.598 124.417 123.879 129.345 126.504 132.237C129.129 135.129 134.103 134.89 137.615 131.703Z" fill="#C2BEC1"/>
<path d="M136.692 126.466C136.461 127.521 135.887 128.469 135.059 129.163C134.231 129.856 133.197 130.255 132.118 130.297C130.002 130.297 128.621 128.582 129.032 126.466C129.263 125.412 129.838 124.464 130.666 123.771C131.494 123.078 132.528 122.679 133.607 122.637C135.722 122.637 137.104 124.351 136.692 126.466Z" fill="#FFF6F8"/>
<g style="mix-blend-mode:multiply">
<path d="M135.198 114.448C128.561 114.448 122.134 119.829 120.843 126.466C120.434 128.424 120.57 130.457 121.236 132.342L145.067 123.244C144.644 118.172 140.72 114.448 135.198 114.448Z" fill="#9FBFD4"/>
</g>
<path d="M85.5799 134.544C90.9961 129.629 92.1049 122.027 88.0564 117.567C84.008 113.106 76.3353 113.474 70.919 118.39C65.5028 123.305 64.394 130.906 68.4425 135.367C72.4909 139.828 80.1636 139.459 85.5799 134.544Z" fill="#24211C"/>
<path d="M86.0419 126.466C85.2051 130.77 81.0381 134.258 76.7347 134.258C72.4313 134.258 69.6201 130.77 70.4577 126.466C71.2954 122.163 75.4611 118.674 79.7649 118.674C84.0688 118.674 86.8783 122.163 86.0419 126.466Z" fill="#C2BEC1"/>
<path d="M82.0797 126.466C81.8486 127.521 81.2741 128.469 80.4462 129.163C79.6183 129.856 78.5838 130.255 77.5049 130.297C75.3894 130.297 74.008 128.582 74.4192 126.466C74.6504 125.412 75.225 124.464 76.0529 123.771C76.8807 123.078 77.9152 122.679 78.9941 122.637C81.1092 122.637 82.4905 124.351 82.0797 126.466Z" fill="#FFF6F8"/>
<g style="mix-blend-mode:multiply">
<path d="M84.9122 115.15C79.2231 112.683 71.6375 115.681 67.9696 121.85C66.8565 123.679 66.1946 125.747 66.0385 127.882L89.9775 127.632C91.5706 122.392 89.642 117.202 84.9122 115.15Z" fill="#9FBFD4"/>
</g>
<path d="M130.046 83.0017L128.024 76.0551L126.043 76.8806L126.865 83.6402" fill="#0F0F0F"/>
<path d="M130.597 82.7388L133.775 95.8122C134.876 99.5546 135.438 102.85 138.756 104.7C143.048 107.094 141.26 112.212 141.26 112.212L126.841 118.597L121.447 125.986H95.0305L91.2869 115.265H64.0232V107.7C64.0232 91.6539 77.0312 89.3669 93.0778 89.3669H105.029V116.473C109.795 118.591 119.85 120.303 119.85 120.303L127.891 104.827C128.836 103.007 129.13 100.918 128.725 98.9074L126.249 83.4531C126.226 83.3068 126.232 83.1574 126.268 83.0136C126.303 82.8698 126.367 82.7346 126.456 82.6161C126.545 82.4976 126.657 82.3981 126.785 82.3236C126.913 82.2492 127.055 82.2012 127.202 82.1826L129.382 81.9038C129.651 81.869 129.925 81.935 130.149 82.0891C130.373 82.2431 130.532 82.4745 130.597 82.7388Z" fill="#FFB900"/>
<path d="M94.0402 93.3912V114.855L122.784 124.266" stroke="#4D483D" stroke-miterlimit="10"/>
<path d="M93.9025 109.736H105.157" stroke="#4D483D" stroke-miterlimit="10"/>
<path d="M108.132 122.701L99.686 116.641C99.5714 116.566 99.473 116.47 99.3969 116.356C99.3208 116.243 99.2684 116.115 99.2431 115.981C99.2178 115.846 99.2199 115.708 99.2495 115.575C99.279 115.442 99.3353 115.316 99.4149 115.205C99.4946 115.094 99.5959 115 99.7128 114.929C99.8297 114.859 99.9598 114.812 100.095 114.793C100.23 114.774 100.368 114.783 100.5 114.819C100.632 114.854 100.755 114.917 100.862 115.001L109.308 121.06C109.423 121.134 109.521 121.231 109.597 121.344C109.674 121.458 109.726 121.585 109.751 121.72C109.777 121.854 109.774 121.992 109.745 122.125C109.715 122.259 109.659 122.385 109.579 122.496C109.5 122.607 109.398 122.7 109.282 122.771C109.165 122.842 109.035 122.888 108.899 122.907C108.764 122.926 108.626 122.918 108.494 122.882C108.363 122.846 108.239 122.784 108.132 122.699V122.701Z" fill="#24211C"/>
<path d="M97.2921 120.125H64.1393C63.749 120.125 63.3746 119.97 63.0986 119.694C62.8225 119.418 62.6675 119.044 62.6675 118.653C62.6675 114.603 64.2767 110.718 67.141 107.853C70.0054 104.989 73.8904 103.379 77.9413 103.379H83.4893C87.5402 103.379 91.4253 104.988 94.2898 107.853C97.1542 110.717 98.7635 114.603 98.7635 118.653C98.7635 119.044 98.6085 119.418 98.3325 119.694C98.0566 119.97 97.6824 120.125 97.2921 120.125Z" fill="white"/>
<g style="mix-blend-mode:multiply">
<path d="M105.047 90.5202H80.5564V95.1249H105.047V90.5202Z" fill="#9FBFD4"/>
</g>
<path d="M113.582 88.709H80.5564V93.3137H113.582V88.709Z" fill="white"/>
<path d="M113.582 88.709H80.5564V90.5843H113.582V88.709Z" fill="#4D483D"/>
<g style="mix-blend-mode:multiply">
<g style="mix-blend-mode:multiply">
<path d="M87.6563 114.607H69.9899V115.35H87.6563V114.607Z" fill="#4D483D"/>
</g>
<g style="mix-blend-mode:multiply">
<path d="M87.6563 112.543H69.9899V113.286H87.6563V112.543Z" fill="#4D483D"/>
</g>
<g style="mix-blend-mode:multiply">
<path d="M87.6563 110.48H69.9899V111.223H87.6563V110.48Z" fill="#4D483D"/>
</g>
</g>
<path d="M102.818 102.417H97.0121V103.16H102.818V102.417Z" fill="#4D483D"/>
<path d="M102.818 100.353H97.0121V101.096H102.818V100.353Z" fill="#4D483D"/>
<path d="M102.818 98.2895H97.0121V99.0323H102.818V98.2895Z" fill="#4D483D"/>
<path d="M135.263 97.849H133.464V102.169H135.263V97.849Z" fill="#0F0F0F"/>
<path d="M137.023 97.849H135.224V102.169H137.023V97.849Z" fill="#EF5350"/>
<g style="mix-blend-mode:multiply">
<path d="M104.923 91.9696C106.314 92.473 107.573 92.9284 108.717 93.3141H113.581V88.709H97.118C98.5254 89.6527 101.226 90.6315 104.923 91.9696Z" fill="#DFECF5"/>
</g>
<path d="M124.403 76.9632C124.403 76.9632 123.356 73.1741 128.173 72.2577L129.054 76.7568L124.403 76.9632Z" fill="#FFB900"/>
<path d="M129.537 76.9904C129.537 77.5455 129.373 78.0882 129.064 78.5498C128.756 79.0114 128.318 79.3712 127.805 79.5836C127.292 79.7961 126.727 79.8517 126.183 79.7434C125.639 79.635 125.138 79.3677 124.746 78.9752C124.353 78.5826 124.086 78.0825 123.978 77.538C123.869 76.9935 123.925 76.4291 124.137 75.9162C124.35 75.4034 124.71 74.965 125.171 74.6566C125.633 74.3481 126.175 74.1835 126.731 74.1835C127.099 74.1835 127.464 74.2561 127.805 74.3972C128.145 74.5382 128.455 74.745 128.715 75.0056C128.976 75.2663 129.183 75.5757 129.324 75.9162C129.465 76.2568 129.537 76.6218 129.537 76.9904Z" fill="#FFB900"/>
<path d="M129.416 70.9683L128.675 71.0518C128.166 71.1085 127.886 72.3306 128.048 73.779C128.211 75.2275 128.755 76.3582 129.264 76.3015L130.005 76.218C130.514 76.1608 130.795 74.9392 130.632 73.4907C130.469 72.0423 129.925 70.9111 129.416 70.9683Z" fill="#4D483D"/>
<path d="M130.632 73.4909C130.795 74.9411 130.602 76.1532 130.201 76.1982C129.8 76.2432 129.344 75.1038 129.181 73.6536C129.019 72.2034 129.212 70.9913 129.612 70.9468C130.012 70.9022 130.469 72.0407 130.632 73.4909Z" fill="#EBE0CC"/>
<path d="M99.6777 72.5273C99.6777 72.5273 114.589 80.3805 121.585 85.8787C127.883 90.8288 117.321 91.3249 99.4937 88.5037C95.9475 87.941 95.4484 80.0463 97.2085 76.9169L99.6777 72.5273Z" fill="#24211C"/>
<path d="M103.093 113.095L104.401 110.938L106.804 112.616L105.888 113.871L104.57 115.446L103.093 113.095Z" fill="#FCA465"/>
<path d="M103.298 112.809C103.298 112.809 101.317 114.081 100.826 115.381C100.826 115.381 103.926 117.749 106.134 119.826C108.343 121.903 110.623 121.463 109.375 119.687C108.128 117.912 105.889 113.871 105.889 113.871C105.889 113.871 104.538 115.389 103.298 112.809Z" fill="#EF5350"/>
<path d="M105.914 115.648L105.87 115.598C106.003 115.45 106.18 115.348 106.374 115.308C106.569 115.268 106.772 115.291 106.952 115.374L106.918 115.432C106.75 115.353 106.561 115.332 106.38 115.371C106.198 115.41 106.035 115.507 105.914 115.648Z" fill="#29201D"/>
<path d="M106.501 116.424L106.458 116.374C106.591 116.226 106.768 116.124 106.962 116.084C107.157 116.043 107.359 116.066 107.54 116.149L107.506 116.207C107.338 116.129 107.149 116.108 106.967 116.147C106.786 116.186 106.622 116.283 106.501 116.424Z" fill="#29201D"/>
<path d="M105.402 114.904L105.359 114.854C105.491 114.706 105.668 114.604 105.863 114.564C106.057 114.524 106.26 114.547 106.441 114.63L106.407 114.688C106.238 114.609 106.049 114.588 105.868 114.627C105.686 114.666 105.523 114.764 105.402 114.904Z" fill="#29201D"/>
<g style="mix-blend-mode:multiply">
<path d="M99.5708 73.7162C98.9708 74.4698 100.228 78.6339 103.306 79.5321C105.211 80.088 107.713 79.7278 107.895 78.8854C107.918 78.6793 107.861 78.4721 107.737 78.3062C106.452 77.3741 105.236 76.498 104.157 75.7231C102.001 74.6447 100.065 73.0954 99.5708 73.7162Z" fill="#9FBFD4"/>
</g>
<path d="M109.203 119.436C108.597 119.601 108.046 120.154 107.657 120.373C106.952 120.77 102.718 115.918 102.718 115.918C102.606 115.184 102.364 114.475 102.003 113.825C101.503 114.252 101.101 114.783 100.826 115.381C100.826 115.381 103.927 117.748 106.135 119.825C108.343 121.903 110.623 121.462 109.376 119.686C109.32 119.609 109.262 119.522 109.203 119.436Z" fill="#FFF6F8"/>
<path d="M114.404 89.5937C114.404 89.5937 112.649 92.8733 108.872 98.8394C103.997 106.541 102.237 110.015 102.237 110.015L106.213 113.378C106.213 113.378 114.351 104.889 117.706 99.2524C117.706 99.2524 122.289 92.659 123.236 89.3461C124.091 86.3591 121.288 88.5456 119.003 86.9279L114.404 89.5937Z" fill="#24211C"/>
<path d="M95.6788 81.9715L75.4098 81.968L75.4258 75.1715L95.6948 75.175L95.6788 81.9715Z" fill="#D9B67E"/>
<path d="M96.5073 79.1681L74.5916 79.1577L74.6024 75.2015L96.5181 75.2119L96.5073 79.1681Z" fill="#D9B67E"/>
<path d="M85.2343 75.1469V81.9299" stroke="#4D483D" stroke-width="0.5" stroke-miterlimit="10"/>
<path d="M85.1792 75.1468C85.1792 75.1468 86.3913 71.1846 87.7108 71.1846C89.0302 71.1846 88.9765 74.2114 85.1792 75.5871C85.1792 75.5871 88.206 76.633 90.4077 75.2572" stroke="#4D483D" stroke-width="0.5" stroke-miterlimit="10"/>
<path d="M85.2342 75.1468C85.2342 75.1468 84.0221 71.1846 82.7026 71.1846C81.3831 71.1846 81.4368 74.2114 85.2342 75.5871C85.2342 75.5871 82.2074 76.633 80.0061 75.2572" stroke="#4D483D" stroke-width="0.5" stroke-miterlimit="10"/>
<path d="M75.4244 79.1645H95.6497" stroke="#4D483D" stroke-width="0.5" stroke-miterlimit="10"/>
<path d="M94.3713 88.7267L74.1023 88.7233L74.1183 81.9268L94.3873 81.9303L94.3713 88.7267Z" fill="#D9B67E"/>
<path d="M95.1829 85.9232L73.2672 85.9128L73.278 81.9233L95.1937 81.9337L95.1829 85.9232Z" fill="#D9B67E"/>
<path d="M83.9307 81.9315L83.9272 88.6855" stroke="#4D483D" stroke-width="0.5" stroke-miterlimit="10"/>
<path d="M74.1174 85.9202H94.3427" stroke="#4D483D" stroke-width="0.5" stroke-miterlimit="10"/>
<g style="mix-blend-mode:multiply">
<path d="M73.2953 81.9264H95.2111L73.2919 83.6082L73.2953 81.9264Z" fill="#CDBA9A"/>
</g>
<path d="M127.612 79.1918C128.66 79.1918 129.51 78.3417 129.51 77.2931C129.51 76.2445 128.66 75.3944 127.612 75.3944C126.563 75.3944 125.713 76.2445 125.713 77.2931C125.713 78.3417 126.563 79.1918 127.612 79.1918Z" fill="#4D483D"/>
<path d="M127.57 76.7569L125.975 69.4197L126.287 69.0223L127.882 76.3595L127.57 76.7569Z" fill="#4D483D"/>
<path d="M125.41 72.5248C126.133 72.5248 126.719 71.0252 126.719 69.1755C126.719 67.3257 126.133 65.8262 125.41 65.8262C124.687 65.8262 124.101 67.3257 124.101 69.1755C124.101 71.0252 124.687 72.5248 125.41 72.5248Z" fill="#4D483D"/>
<g style="mix-blend-mode:multiply">
<path d="M128.217 78.5867C127.878 78.588 127.545 78.4982 127.252 78.3267C126.96 78.1552 126.719 77.9084 126.555 77.6119C126.391 77.3155 126.309 76.9804 126.319 76.6416C126.328 76.3029 126.429 75.9729 126.61 75.6863C126.367 75.8367 126.161 76.0401 126.008 76.2813C125.855 76.5225 125.758 76.7951 125.725 77.0789C125.693 77.3626 125.724 77.6502 125.818 77.9199C125.912 78.1897 126.066 78.4348 126.268 78.6368C126.47 78.8388 126.715 78.9925 126.985 79.0864C127.254 79.1803 127.542 79.212 127.826 79.1791C128.11 79.1463 128.382 79.0497 128.623 78.8965C128.865 78.7434 129.068 78.5377 129.218 78.2949C128.919 78.4846 128.571 78.5858 128.217 78.5867Z" fill="#9FBFD4"/>
</g>
<path d="M124.49 69.1768C124.49 67.6292 124.915 66.3301 125.491 65.9461C125.388 65.8724 125.265 65.8311 125.139 65.8275C124.391 65.8275 123.785 67.3271 123.785 69.1768C123.785 71.0266 124.391 72.5266 125.139 72.5266C125.265 72.523 125.388 72.4817 125.491 72.4079C124.916 72.0222 124.49 70.7235 124.49 69.1768Z" fill="white"/>
<path d="M125.41 72.5248C126.133 72.5248 126.719 71.0252 126.719 69.1755C126.719 67.3257 126.133 65.8262 125.41 65.8262C124.687 65.8262 124.101 67.3257 124.101 69.1755C124.101 71.0252 124.687 72.5248 125.41 72.5248Z" fill="#4D483D"/>
<path d="M116.702 62.5797C116.702 62.5797 116.699 59.0906 116.919 58.5322C117.455 57.1668 118.069 55.7919 119.01 55.0426L119.732 49.85C117.674 51.6289 115.737 53.5419 113.931 55.5764C113.667 55.9186 113.325 56.1927 112.933 56.3755C112.542 56.5584 112.112 56.6448 111.68 56.6274C110.552 56.6023 109.299 62.8178 115 62.8325C115.024 62.8325 115.048 62.8325 115.072 62.8325C116.222 62.8217 115.249 63.3485 116.702 62.5797Z" fill="#FCA465"/>
<path d="M116.812 59.0003L116.83 58.9189C116.841 58.7867 116.871 58.6567 116.917 58.5324C117.12 58.0129 117.335 57.496 117.574 57.0103L116.554 54.5458C116.554 54.5458 115.333 57.3752 116.812 59.0003Z" fill="#B57536"/>
<path d="M116.669 64.4352C116.669 64.4352 117.045 60.095 116.713 59.5721C115.269 58.743 114.181 57.4105 113.658 55.8297C112.145 55.3626 108.919 57.8154 108.54 58.1409C104.322 61.7668 100.405 72.0546 98.2211 73.8809C98.064 74.0108 104.189 79.6384 108.898 79.5233C109.259 79.5321 109.618 79.4653 109.951 79.3273C110.285 79.1893 110.586 78.9831 110.835 78.722C111.58 76.4548 112.616 74.2938 113.917 72.2931C115.396 69.9053 116.335 67.2236 116.669 64.4352Z" fill="#1E88E5"/>
<path d="M122.756 51.9847C122.756 51.9847 122.742 58.8443 119.71 58.3815C115.961 57.8092 115.013 52.3435 115.051 49.3661C115.069 47.9453 116.414 47.5626 117.795 47.2267C119.942 46.7046 122.819 48.0847 122.756 51.9847Z" fill="#FCA465"/>
<path d="M121.957 48.4188C121.191 47.0171 119.126 46.0418 116.935 46.215C115.95 46.2626 115.019 46.6743 114.32 47.3703C113.622 48.0662 113.208 48.9967 113.157 49.9811C112.864 53.2937 115.444 53.9322 115.444 53.9322C115.444 53.9322 117.81 54.1919 119.148 50.14C122.285 51.0383 122.722 49.8205 121.957 48.4188Z" fill="#24211C"/>
<path d="M122.633 52.2565C122.74 52.9727 122.897 53.6805 123.104 54.3746C123.328 54.9374 123.11 55.3555 122.097 55.3084" fill="#FCA465"/>
<path d="M121.143 55.6955C120.434 55.6955 119.893 54.9432 119.887 54.9345L119.942 54.896C119.949 54.9055 120.632 55.8505 121.441 55.58L121.462 55.6436C121.359 55.6781 121.251 55.6957 121.143 55.6955Z" fill="#29201D"/>
<path d="M114.884 54.3465C115.301 54.9846 116.035 55.2431 116.523 54.9245C117.011 54.6058 117.068 53.8301 116.653 53.1929C116.237 52.5557 115.502 52.2959 115.014 52.615C114.526 52.934 114.468 53.7085 114.884 54.3465Z" fill="#FCA465"/>
<path d="M108.679 59.7097C108.503 59.7965 108.346 59.9186 108.218 60.0686C108.09 60.2185 107.994 60.393 107.937 60.5814C107.879 60.7698 107.861 60.9679 107.883 61.1637C107.905 61.3594 107.967 61.5485 108.066 61.7192C109.218 64.1218 111.251 74.2996 112.787 75.4956C114.53 76.8532 120.617 76.616 123.552 76.6121L124.227 74.9138C124.227 74.9138 116.895 72.8204 115.117 72.9896C115.117 72.9896 112.908 57.2011 108.679 59.7097Z" fill="#FCA465"/>
<path d="M112.389 60.2591C113.374 63.0968 115.078 68.917 115.078 68.917C115.078 68.917 111.269 70.4819 109.285 69.7785L107.634 61.6059C107.052 60.154 108.824 58.7644 108.824 58.7644C110.382 57.6492 111.76 58.4497 112.389 60.2591Z" fill="#1976D2"/>
<path d="M122.702 52.7184C122.702 52.7184 122.326 54.1357 121.648 54.6232C120.969 55.1106 119.935 54.5942 119.42 55.1505C119.42 55.1505 119.414 58.1002 120.99 58.0145C124.674 57.8158 122.702 52.7184 122.702 52.7184Z" fill="white"/>
<path d="M121.149 56.969C120.144 57.0236 119.784 55.8435 119.653 54.9829C119.566 55.0238 119.487 55.0809 119.42 55.1513C119.42 55.1513 119.414 58.101 120.99 58.0153C122.733 57.9205 123.204 56.7301 123.223 55.502C122.969 56.2881 122.378 56.9032 121.149 56.969Z" fill="#E6E6E6"/>
<path d="M120.236 55.3443C117.96 54.721 116.025 52.631 116.006 52.6097L116.154 52.4738C116.172 52.4946 118.07 54.5426 120.289 55.1504L120.236 55.3443Z" fill="white"/>
<path d="M126.31 74.7324C126.31 74.7324 129.987 75.3856 130.017 75.7033C130.047 76.0211 130.119 79.0617 130.119 79.0617C130.119 79.0617 129.224 79.1994 128.493 76.5419C128.493 76.5419 125.007 77.5648 122.672 76.6085L123.702 74.8376L126.31 74.7324Z" fill="#FCA465"/>
<path d="M122.988 48.9778C122.464 48.039 121.697 47.2579 120.768 46.7159C119.84 46.1738 118.782 45.8906 117.707 45.8956C114.68 45.8956 113.232 47.3398 112.972 49.8947C112.549 54.0479 115.414 54.7726 115.414 54.7726C115.414 54.7726 116.562 54.4262 118.173 49.3181C121.648 50.3518 123.862 50.725 122.988 48.9778Z" fill="#FFB900"/>
<path d="M118.283 48.5237C118.283 48.5237 124.392 50.0509 124.598 50.67C124.967 51.7782 121.939 50.2332 118.171 49.3163L118.283 48.5237Z" fill="#FFB900"/>
<path d="M116.037 50.9147C116.171 51.129 116.238 51.3783 116.231 51.6309C116.223 51.8836 116.141 52.1283 115.994 52.3341C115.847 52.54 115.643 52.6977 115.407 52.7873C115.17 52.8769 114.913 52.8944 114.666 52.8376C114.42 52.7808 114.196 52.6522 114.023 52.4681C113.85 52.2841 113.735 52.0527 113.693 51.8034C113.651 51.5541 113.684 51.2981 113.788 51.0676C113.892 50.8371 114.062 50.6426 114.276 50.5087C114.419 50.4197 114.577 50.3596 114.742 50.3319C114.908 50.3042 115.077 50.3093 115.241 50.347C115.404 50.3847 115.559 50.4543 115.695 50.5517C115.832 50.6491 115.948 50.7724 116.037 50.9147Z" fill="#FFB900" stroke="#29201D" stroke-width="0.25" stroke-miterlimit="10"/>
<path d="M117.842 47.2021C117.776 47.4089 117.79 47.6333 117.883 47.8298C117.975 48.0263 118.139 48.1803 118.341 48.2605C121.626 49.5631 122.518 49.6129 122.658 49.3631C122.841 49.0376 121.809 48.1012 121.2 47.6571C120.488 47.142 119.671 46.7906 118.807 46.6281C118.604 46.5898 118.394 46.627 118.216 46.7327C118.039 46.8384 117.906 47.0053 117.842 47.2021Z" fill="#FFE483"/>
<path d="M124.571 122.89L141.467 112.213L141.742 110.342L128.671 110.011L126.91 111.883L122.095 123L124.571 122.89Z" fill="white"/>
<path d="M68.4487 114.579H62.1198V120.083H68.4487V114.579Z" fill="#4D483D"/>
<path d="M132.495 84.8475L131.153 84.9981C130.233 85.1016 129.725 87.3128 130.02 89.937C130.315 92.5612 131.299 94.6053 132.22 94.5023L133.562 94.3517C134.483 94.2482 134.991 92.037 134.696 89.4123C134.402 86.7877 133.417 84.7457 132.495 84.8475Z" fill="#4D483D"/>
<path d="M134.696 89.4136C134.991 92.0383 134.642 94.2317 133.917 94.3131C133.192 94.3945 132.366 92.3331 132.071 89.7084C131.777 87.0838 132.126 84.8903 132.85 84.8089C133.575 84.7276 134.403 86.7894 134.696 89.4136Z" fill="#EBE0CC"/>
<path d="M107.304 62.0773L109.285 69.7829C109.285 69.7829 112.312 70.1681 114.568 69.1223L112.422 59.8215" stroke="#29201D" stroke-width="0.25" stroke-miterlimit="10"/>
<path d="M88.5913 100.738C88.5913 101.696 85.2649 102.472 81.1615 102.472C77.0581 102.472 73.7322 101.696 73.7322 100.738C73.7322 99.7806 77.0585 99.0044 81.1615 99.0044C85.2645 99.0044 88.5913 99.7823 88.5913 100.738Z" fill="#FFE483"/>
<path d="M140.57 109.169C140.069 109.612 138.911 109.119 137.985 108.069C137.059 107.018 136.715 105.809 137.217 105.366C137.718 104.924 138.875 105.417 139.801 106.467C140.727 107.517 141.07 108.727 140.57 109.169Z" fill="#FFE483"/>
<path d="M134.191 88.2137C134.357 89.6951 134.16 90.9336 133.751 90.9795C133.341 91.0253 132.875 89.8613 132.709 88.3799C132.543 86.8986 132.74 85.6601 133.149 85.6142C133.558 85.5683 134.025 86.7323 134.191 88.2137Z" fill="white"/>
<path d="M130.464 73.2356C130.55 74.0187 130.448 74.6736 130.231 74.6979C130.015 74.7221 129.768 74.1065 129.68 73.3234C129.592 72.5403 129.697 71.8853 129.913 71.8611C130.129 71.8369 130.377 72.452 130.464 73.2356Z" fill="white"/>
<path d="M133.597 91.8747C133.659 92.4322 133.585 92.898 133.431 92.9136C133.277 92.9292 133.101 92.4933 133.041 91.9361C132.981 91.379 133.053 90.9128 133.207 90.8972C133.361 90.8816 133.534 91.3175 133.597 91.8747Z" fill="white"/>
<path d="M116.663 61.7307C116.663 61.7307 116.559 64.6397 116.3 66.6137" stroke="#29201D" stroke-width="0.25" stroke-miterlimit="10"/>
</svg>
