<svg width="150" height="150" viewBox="0 0 150 150" fill="none" xmlns="http://www.w3.org/2000/svg">
<g clip-path="url(#clip0)">
<path d="M122.523 44.6266L119.005 51.1581L121.435 52.4672L124.953 45.9357L122.523 44.6266Z" fill="#E0E0E0"/>
<path d="M123.182 44.9773L119.662 51.5118L122.094 52.8215L125.613 46.2869L123.182 44.9773Z" fill="#EBEBEB"/>
<path d="M123.059 46.9524C123 47.0609 122.975 47.1842 122.987 47.3069C122.999 47.4296 123.047 47.5461 123.125 47.6416C123.202 47.7371 123.307 47.8073 123.425 47.8435C123.543 47.8796 123.668 47.88 123.786 47.8446C123.904 47.8092 124.009 47.7396 124.088 47.6446C124.166 47.5496 124.215 47.4334 124.227 47.3108C124.24 47.1882 124.216 47.0647 124.158 46.9558C124.1 46.847 124.011 46.7577 123.903 46.6992C123.757 46.6209 123.587 46.6036 123.428 46.651C123.27 46.6985 123.137 46.8069 123.059 46.9524Z" fill="white"/>
<path d="M121.999 45.6085C122.121 46.0287 122.171 46.4667 122.146 46.9037C122.023 46.4835 121.973 46.0455 121.999 45.6085Z" fill="#EBEBEB"/>
<path d="M121.61 46.3317C121.732 46.7517 121.782 47.1896 121.757 47.6265C121.635 47.2063 121.585 46.7685 121.61 46.3317Z" fill="#EBEBEB"/>
<path d="M121.22 47.0551C121.343 47.4752 121.392 47.9133 121.367 48.3502C121.245 47.9299 121.195 47.492 121.22 47.0551Z" fill="#EBEBEB"/>
<path d="M120.83 47.7775C120.953 48.1975 121.003 48.6355 120.977 49.0723C120.855 48.6521 120.806 48.2143 120.83 47.7775Z" fill="#EBEBEB"/>
<path d="M120.442 48.4985C120.564 48.9188 120.614 49.3568 120.589 49.7937C120.466 49.3735 120.417 48.9355 120.442 48.4985Z" fill="#EBEBEB"/>
<path d="M120.051 49.2234C120.173 49.6435 120.223 50.0814 120.198 50.5182C120.076 50.0981 120.026 49.6602 120.051 49.2234Z" fill="#EBEBEB"/>
<path d="M119.663 49.9462C119.785 50.3663 119.834 50.8042 119.81 51.241C119.687 50.8209 119.637 50.383 119.663 49.9462Z" fill="#EBEBEB"/>
<path d="M122.349 44.9736C122.471 45.3938 122.521 45.8316 122.496 46.2684C122.374 45.8484 122.324 45.4105 122.349 44.9736Z" fill="#EBEBEB"/>
<path d="M122.783 44.7625C122.813 44.7591 122.858 44.928 122.881 45.1395C122.905 45.351 122.9 45.5256 122.87 45.5292C122.839 45.5329 122.795 45.3637 122.771 45.1523C122.747 44.9408 122.752 44.7662 122.783 44.7625Z" fill="#EBEBEB"/>
<path d="M118.053 49.9837L121.031 44.1384C121.031 44.1384 119.88 43.1964 119.675 40.8317C119.541 39.2667 120.481 38.1921 120.607 37.6059C120.686 37.2474 119.92 36.9157 119.579 36.7804C119.356 36.683 119.111 36.6444 118.869 36.6684C118.626 36.6924 118.393 36.7781 118.193 36.9174C117.32 37.5979 116.721 40.0247 116.721 40.0247C116.721 40.0247 116.726 40.5873 116.117 40.2597L113.949 39.0921C113.669 38.9373 113.343 38.8878 113.029 38.9524C112.868 38.9837 112.717 39.0545 112.589 39.1584C112.462 39.2623 112.362 39.3962 112.299 39.548C111.92 40.4077 112.156 41.0107 112.062 41.1846C111.968 41.3585 111.566 41.5334 111.471 42.1245C111.376 42.7157 111.507 42.7325 111.379 42.9715C111.157 43.3846 111.002 43.8304 110.919 44.2922C110.887 44.5317 110.899 44.7751 110.953 45.0106C110.676 45.4017 110.5 45.8545 110.438 46.3296C110.445 47.0816 111.669 48.2381 112.405 48.2854C112.75 48.3076 114.206 48.695 114.896 48.8705C115.586 49.0461 117.619 49.3858 118.053 49.9837Z" fill="#E0E0E0"/>
<path d="M118.794 50.4675L121.94 44.6263C121.94 44.6263 120.788 43.6843 120.584 41.3196C120.473 40.2281 120.525 39.1263 120.737 38.0501C120.777 37.8766 120.754 37.6947 120.672 37.5366C120.591 37.3784 120.455 37.2544 120.291 37.1863C120.093 37.0941 119.873 37.0603 119.656 37.0888C119.44 37.1174 119.236 37.2071 119.068 37.3475C118.198 38.028 117.63 40.5125 117.63 40.5125C117.63 40.5125 117.635 41.0752 117.025 40.7475L114.857 39.5799C114.577 39.4251 114.251 39.3756 113.938 39.4403C113.776 39.4716 113.625 39.5423 113.498 39.6462C113.37 39.7502 113.271 39.884 113.208 40.0358C112.829 40.8959 113.064 41.4988 112.97 41.6724C112.877 41.8459 112.474 42.0212 112.379 42.614C112.284 43.2069 112.416 43.222 112.287 43.461C112.065 43.8741 111.91 44.3199 111.828 44.7817C111.795 45.0212 111.807 45.2646 111.861 45.5001C111.599 45.8991 111.424 46.3485 111.346 46.8194C111.318 47.3921 112.101 48.122 112.405 48.2858C112.709 48.4496 115.114 49.1845 115.804 49.36C116.494 49.5356 118.36 49.8696 118.794 50.4675Z" fill="#EBEBEB"/>
<path d="M117.147 38.75C117.267 39.0108 117.359 39.283 117.424 39.5624C117.524 39.8311 117.596 40.1093 117.64 40.3926C117.375 39.8804 117.208 39.3234 117.147 38.75Z" fill="#EBEBEB"/>
<path d="M117.451 37.906C117.565 38.14 117.66 38.3822 117.738 38.6305C117.851 38.8669 117.928 39.1192 117.966 39.3787C117.825 39.1579 117.713 38.9195 117.633 38.6697C117.52 38.4305 117.458 38.1705 117.451 37.906Z" fill="#EBEBEB"/>
<path d="M117.889 37.2339C117.988 37.4199 118.074 37.6125 118.146 37.8103C118.258 37.9947 118.327 38.2019 118.348 38.4166C118.225 38.2427 118.124 38.0549 118.046 37.857C117.937 37.6676 117.883 37.452 117.889 37.2339Z" fill="#EBEBEB"/>
<path d="M118.444 36.775C118.473 36.7639 118.572 36.9496 118.665 37.1899C118.738 37.3305 118.778 37.4862 118.781 37.6448C118.752 37.6559 118.654 37.4703 118.561 37.2299C118.487 37.0893 118.448 36.9336 118.444 36.775Z" fill="#EBEBEB"/>
<path d="M119.071 36.6659C119.098 36.6501 119.178 36.7468 119.251 36.8814C119.323 37.016 119.359 37.1365 119.331 37.15C119.304 37.1634 119.224 37.067 119.153 36.9344C119.081 36.8018 119.044 36.6816 119.071 36.6659Z" fill="#EBEBEB"/>
<path d="M116.762 39.8709C116.791 39.8598 116.893 40.0572 116.991 40.3117C117.068 40.4609 117.111 40.6249 117.117 40.7924C117.088 40.8035 116.986 40.6061 116.888 40.3517C116.811 40.2025 116.768 40.0384 116.762 39.8709Z" fill="#EBEBEB"/>
<path d="M112.137 40.0051C112.482 40.5107 112.763 41.0564 112.976 41.6303C112.631 41.1246 112.35 40.5789 112.137 40.0051Z" fill="#EBEBEB"/>
<path d="M112.704 39.0344C112.934 39.3206 113.104 39.6507 113.202 40.0046C112.972 39.7185 112.802 39.3884 112.704 39.0344Z" fill="#EBEBEB"/>
<path d="M111.705 41.6014C112.009 41.942 112.223 42.3537 112.325 42.7986C112.088 42.4161 111.881 42.0159 111.705 41.6014Z" fill="#EBEBEB"/>
<path d="M111.415 42.8973C111.668 43.2681 111.858 43.6783 111.976 44.1113C111.723 43.7406 111.533 43.3304 111.415 42.8973Z" fill="#EBEBEB"/>
<path d="M110.951 44.3646C111.095 44.5815 111.216 44.8123 111.313 45.0535C111.444 45.2786 111.551 45.5164 111.634 45.7632C111.304 45.3543 111.071 44.8762 110.951 44.3646Z" fill="#EBEBEB"/>
<path d="M110.627 45.6343C110.788 45.891 110.929 46.1604 111.046 46.44C111.194 46.7047 111.32 46.9809 111.424 47.2658C111.055 46.7786 110.785 46.2247 110.627 45.6346V45.6343Z" fill="#EBEBEB"/>
<path d="M33.127 8.29131L29.6289 9.74585L33.5379 19.1468L37.036 17.6923L33.127 8.29131Z" fill="#E0E0E0"/>
<path d="M32.1817 8.68438L28.6836 10.1389L32.5926 19.5399L36.0907 18.0853L32.1817 8.68438Z" fill="#EBEBEB"/>
<path d="M34.094 16.2461C34.0291 16.09 33.9193 15.9567 33.7786 15.863C33.6379 15.7693 33.4726 15.7195 33.3036 15.7197C33.1345 15.72 32.9694 15.7704 32.829 15.8645C32.6886 15.9586 32.5792 16.0923 32.5148 16.2485C32.4503 16.4048 32.4336 16.5767 32.4669 16.7424C32.5001 16.9082 32.5817 17.0603 32.7014 17.1797C32.8211 17.299 32.9735 17.3802 33.1394 17.413C33.3052 17.4457 33.477 17.4285 33.6331 17.3636C33.7368 17.3206 33.8309 17.2575 33.9102 17.178C33.9895 17.0985 34.0524 17.0042 34.0952 16.9004C34.138 16.7966 34.1599 16.6854 34.1597 16.5731C34.1595 16.4608 34.1372 16.3497 34.094 16.2461Z" fill="white"/>
<path d="M36.4422 16.2807C36.1559 16.1869 35.8875 16.0456 35.6482 15.8627C35.382 15.722 35.1414 15.5373 34.9365 15.3165C35.4895 15.55 35.9987 15.8761 36.4422 16.2807Z" fill="#EBEBEB"/>
<path d="M36.0092 15.2406C35.7231 15.1468 35.4548 15.0055 35.2156 14.8227C34.9493 14.6819 34.7087 14.4973 34.5039 14.2765C35.0569 14.5099 35.5659 14.836 36.0092 15.2406Z" fill="#EBEBEB"/>
<path d="M35.5769 14.2006C35.2907 14.1068 35.0223 13.9655 34.783 13.7826C34.517 13.6415 34.2764 13.4569 34.0713 13.2365C34.3577 13.3301 34.6262 13.4714 34.8656 13.6544C35.1318 13.7951 35.3723 13.9797 35.5769 14.2006Z" fill="#EBEBEB"/>
<path d="M35.1443 13.1606C34.8581 13.0666 34.5898 12.9254 34.3504 12.7426C34.0843 12.6015 33.8438 12.4169 33.6387 12.1964C33.9249 12.2899 34.1934 12.4311 34.4326 12.614C34.6989 12.7549 34.9395 12.9397 35.1443 13.1606Z" fill="#EBEBEB"/>
<path d="M34.7117 12.1206C34.4255 12.0267 34.1572 11.8854 33.9178 11.7027C33.6514 11.5619 33.4108 11.3771 33.2061 11.1561C33.4922 11.2501 33.7606 11.3914 34 11.5741C34.2662 11.7151 34.5068 11.8999 34.7117 12.1206Z" fill="#EBEBEB"/>
<path d="M34.2791 11.0802C33.9928 10.9867 33.7244 10.8455 33.4851 10.6626C33.2188 10.5218 32.9782 10.337 32.7734 10.1161C33.0596 10.2101 33.3279 10.3514 33.5674 10.534C33.8334 10.6751 34.074 10.8598 34.2791 11.0802Z" fill="#EBEBEB"/>
<path d="M33.8471 10.0402C33.5611 9.94695 33.2928 9.80623 33.0535 9.62392C32.7873 9.48299 32.5467 9.29823 32.3418 9.07739C32.6279 9.17146 32.8963 9.31272 33.1357 9.49535C33.4017 9.63585 33.6422 9.82003 33.8471 10.0402Z" fill="#EBEBEB"/>
<path d="M36.8139 17.2018C36.5277 17.1081 36.2593 16.9669 36.02 16.7842C35.7539 16.6432 35.5134 16.4584 35.3086 16.2377C35.8614 16.4713 36.3705 16.7973 36.8139 17.2018Z" fill="#EBEBEB"/>
<path d="M36.6627 17.8487C36.6399 17.8843 36.422 17.7852 36.1759 17.6275C35.9299 17.4697 35.7489 17.3136 35.7714 17.278C35.7939 17.2424 36.0121 17.3414 36.2582 17.4992C36.5043 17.657 36.6866 17.8114 36.6627 17.8487Z" fill="#EBEBEB"/>
<path d="M35.2002 8.2942L38.8443 16.5227C38.8443 16.5227 40.8434 16.1128 43.5371 17.9414C45.3197 19.1519 45.6504 21.0819 46.1637 21.7251C46.4776 22.1182 47.4931 21.5908 47.9322 21.3454C48.2293 21.1918 48.482 20.9646 48.6664 20.6856C48.8509 20.4066 48.9607 20.085 48.9856 19.7515C49.0155 18.2354 46.9526 15.4958 46.9526 15.4958C46.9526 15.4958 46.3483 15.0137 47.2238 14.6501L50.3432 13.3533C50.7501 13.189 51.085 12.8849 51.2876 12.4956C51.3939 12.2967 51.4494 12.0746 51.449 11.8491C51.4487 11.6235 51.3925 11.4016 51.2855 11.2031C50.6984 10.055 49.8527 9.78406 49.749 9.53396C49.6453 9.28386 49.8068 8.70409 49.2582 8.09042C48.7097 7.47675 48.5794 7.60331 48.4367 7.25955C48.1895 6.66563 47.8496 6.11471 47.4296 5.62735C47.2025 5.38603 46.9338 5.18759 46.6364 5.04154C46.6364 5.04154 46.2923 3.84341 45.6776 3.35194C44.8719 2.70806 42.5817 3.01019 41.8942 3.75311C41.5722 4.10056 39.8997 5.31481 39.1162 5.89726C38.3327 6.47971 36.212 8.34825 35.2002 8.2942Z" fill="#E0E0E0"/>
<path d="M34.0439 8.66421L37.5373 17.0659C37.5373 17.0659 39.5364 16.656 42.2301 18.4849C43.4878 19.3112 44.6157 20.3198 45.5768 21.4778C45.7271 21.6702 45.9407 21.8031 46.1797 21.8529C46.4187 21.9028 46.6677 21.8663 46.8823 21.75C47.1519 21.6192 47.3786 21.4142 47.5356 21.159C47.6927 20.9038 47.7736 20.6091 47.7689 20.3095C47.7985 18.7935 45.6456 16.039 45.6456 16.039C45.6456 16.039 45.0413 15.5573 45.9168 15.1937L49.0362 13.8965C49.4432 13.7323 49.778 13.4281 49.9806 13.0388C50.0869 12.8399 50.1424 12.6178 50.142 12.3923C50.1417 12.1668 50.0855 11.9449 49.9785 11.7463C49.3914 10.5985 48.5458 10.3273 48.442 10.0775C48.3383 9.82777 48.4998 9.24733 47.9512 8.634C47.4027 8.02066 47.2724 8.14689 47.1297 7.80346C46.8827 7.20945 46.5427 6.65851 46.1226 6.17126C45.8956 5.92978 45.6269 5.73122 45.3294 5.58512C45.3294 5.58512 44.9557 4.4219 44.3706 3.89585C43.7855 3.3698 42.3308 3.57156 41.8937 3.75351C41.4567 3.93546 38.5928 5.85872 37.8092 6.44083C37.0257 7.02295 35.0564 8.7196 34.0439 8.66421Z" fill="#EBEBEB"/>
<path d="M47.942 17.052C47.5612 16.9532 47.1914 16.8162 46.8382 16.6431C46.4655 16.5167 46.1066 16.3532 45.7666 16.155C46.5412 16.3162 47.2789 16.6204 47.942 17.052Z" fill="#EBEBEB"/>
<path d="M48.5764 18.1058C48.2292 18.024 47.8886 17.9163 47.5575 17.7836C47.2076 17.6999 46.8724 17.5635 46.5635 17.379C46.9202 17.4202 47.27 17.5075 47.6042 17.6389C47.957 17.7257 48.288 17.8847 48.5764 18.1058Z" fill="#EBEBEB"/>
<path d="M48.9112 19.1542C48.6279 19.0983 48.3487 19.0231 48.0757 18.9289C47.7826 18.8881 47.5024 18.782 47.2559 18.6184C47.5471 18.6382 47.835 18.6928 48.1133 18.7812C48.4086 18.8295 48.6848 18.9586 48.9112 19.1542Z" fill="#EBEBEB"/>
<path d="M48.9199 20.1423C48.7024 20.1501 48.486 20.1075 48.2878 20.0178C47.9521 19.9087 47.6895 19.7878 47.7026 19.7492C47.9201 19.7414 48.1365 19.784 48.3348 19.8737C48.6708 19.9815 48.9327 20.1024 48.9199 20.1423Z" fill="#EBEBEB"/>
<path d="M48.4936 20.9037C48.4875 20.9453 48.3153 20.9473 48.1092 20.9077C47.9031 20.8681 47.7436 20.8027 47.7534 20.7617C47.7631 20.7207 47.9353 20.7191 48.1377 20.758C48.3402 20.7969 48.4996 20.8624 48.4936 20.9037Z" fill="#EBEBEB"/>
<path d="M47.0814 15.6727C46.626 15.6312 46.1856 15.4879 45.793 15.2534C46.2485 15.2946 46.6889 15.4379 47.0814 15.6727Z" fill="#EBEBEB"/>
<path d="M50.9407 10.631C50.5208 10.6203 50.1037 10.559 49.6986 10.4484C49.2827 10.3868 48.8757 10.2754 48.4863 10.1167C48.9062 10.1272 49.3233 10.1884 49.7284 10.299C50.1444 10.3604 50.5515 10.4718 50.9407 10.631Z" fill="#EBEBEB"/>
<path d="M51.4832 12.077C50.9794 12.0742 50.4813 11.9689 50.0195 11.7675C50.5234 11.7702 51.0214 11.8755 51.4832 12.077Z" fill="#EBEBEB"/>
<path d="M49.6152 8.79179C48.9897 8.82097 48.3669 8.69176 47.8047 8.41614C48.1138 8.4304 48.4202 8.48168 48.7171 8.56888C49.0243 8.60704 49.3258 8.68188 49.6152 8.79179Z" fill="#EBEBEB"/>
<path d="M48.4873 7.36263C47.8732 7.31121 47.2719 7.15806 46.708 6.90942C47.3222 6.96041 47.9235 7.11358 48.4873 7.36263Z" fill="#EBEBEB"/>
<path d="M47.3264 5.59877C46.9713 5.56397 46.6207 5.49345 46.2797 5.38829C45.9272 5.33216 45.5813 5.24073 45.2471 5.11536C45.9678 5.11772 46.6786 5.28297 47.3264 5.59877Z" fill="#EBEBEB"/>
<path d="M46.2565 4.15456C45.8437 4.10412 45.4357 4.02014 45.0366 3.90345C44.6269 3.83204 44.2237 3.7274 43.8311 3.59058C44.6684 3.62013 45.4921 3.81166 46.2565 4.15456Z" fill="#EBEBEB"/>
<path d="M16.6444 108.412C14.5882 107.351 12.1674 107.213 9.88495 107.59C8.65862 107.792 7.38025 108.161 6.54569 109.081C5.71112 110.001 5.55334 111.623 6.51211 112.415C7.08281 112.885 7.87777 112.957 8.61733 112.949C10.4043 112.928 12.387 112.613 13.8144 113.687C14.6288 114.301 15.171 115.32 16.1445 115.622C17.0973 115.917 18.1725 115.353 18.6774 114.495C19.1415 113.6 19.2442 112.56 18.9641 111.592C18.8484 110.919 18.5789 110.282 18.1765 109.73C17.7741 109.179 17.2498 108.727 16.6444 108.412Z" fill="#EBEBEB"/>
<path d="M21.3545 99.3187C20.0973 101.114 17.6537 100.52 16.5204 99.4238C15.387 98.3281 14.909 96.7382 14.4726 95.2245C13.4765 91.7633 12.4724 88.1327 13.213 84.6081C13.3914 83.5395 13.8605 82.5407 14.5689 81.721C15.3095 80.9395 16.4489 80.4746 17.4896 80.7495C18.7216 81.0748 19.4873 82.2817 20.0409 83.4294C21.6713 86.8188 22.5256 90.5289 22.5419 94.2899C22.548 96.0392 22.3405 97.8739 21.3549 99.3181" fill="#EBEBEB"/>
<path d="M24.8069 101.895C23.442 100.275 23.1828 97.9121 23.7901 95.8827C24.3974 93.8534 25.7707 92.1265 27.3512 90.7169C29.2121 89.0603 31.3781 87.7824 33.728 86.9546C34.6374 86.5872 35.6155 86.4208 36.5952 86.4669C37.0846 86.4953 37.5597 86.6428 37.9791 86.8966C38.3985 87.1504 38.7496 87.5028 39.0019 87.9231C39.6733 89.2029 39.0294 90.7555 38.3335 92.0221C37.1067 94.2547 35.7063 96.3874 34.1453 98.4005C32.8901 100.019 31.4519 101.616 29.5387 102.347C27.6255 103.079 25.6381 102.992 24.624 101.666" fill="#EBEBEB"/>
<path d="M21.4403 126.404C21.3735 126.137 21.3354 125.864 21.3265 125.589C21.2684 124.995 21.1959 124.249 21.1096 123.362C20.9987 122.265 20.8315 121.175 20.6087 120.096C20.3167 118.781 19.9198 117.492 19.4217 116.241C18.9334 114.991 18.2706 113.817 17.4531 112.753C16.7876 111.887 15.9375 111.18 14.9645 110.684C14.305 110.357 13.5977 110.137 12.869 110.032C12.5949 110.021 12.3226 109.981 12.0566 109.914C12.3309 109.88 12.608 109.876 12.8831 109.901C13.6397 109.959 14.3799 110.151 15.0686 110.47C16.093 110.954 16.9916 111.668 17.6938 112.557C18.5463 113.635 19.2339 114.835 19.7339 116.115C20.2397 117.385 20.6341 118.695 20.9126 120.033C21.1239 121.126 21.269 122.23 21.347 123.34C21.4175 124.286 21.4443 125.053 21.4574 125.581C21.4812 125.855 21.4755 126.131 21.4403 126.404Z" fill="#E0E0E0"/>
<path d="M21.2873 124.691C21.2653 124.566 21.258 124.439 21.2655 124.312C21.2655 124.028 21.2655 123.67 21.2685 123.23C21.2708 122.29 21.2705 120.93 21.2202 119.252C21.1369 115.895 20.8479 112.28 20.2896 107.185C19.7608 102.394 19.0508 96.8187 18.3019 93.1938C18.1414 92.3693 17.9796 91.6274 17.8272 90.9781C17.6821 90.3269 17.5586 89.7656 17.4384 89.3114C17.3354 88.884 17.2518 88.5355 17.1853 88.2593C17.1483 88.1378 17.1257 88.0124 17.1182 87.8856C17.1759 87.9983 17.2201 88.1174 17.2498 88.2405C17.3323 88.5131 17.4361 88.8565 17.564 89.2778C17.7033 89.728 17.8463 90.2849 18.0095 90.9342C18.1793 91.5811 18.3579 92.3213 18.5338 93.1444C19.4615 97.4315 20.159 101.765 20.6233 106.127C21.1829 111.233 21.435 115.881 21.4572 119.248C21.4773 120.931 21.4414 122.293 21.3984 123.233C21.3716 123.673 21.3497 124.031 21.3313 124.315C21.3316 124.442 21.3169 124.568 21.2873 124.691Z" fill="#E0E0E0"/>
<path d="M21.2638 115.725C21.2365 115.348 21.2391 114.97 21.2715 114.594C21.3131 113.867 21.4132 112.817 21.6179 111.53C21.8654 110.024 22.198 108.533 22.6143 107.065C23.1006 105.259 23.7247 103.493 24.4812 101.783C26.0295 98.1095 28.1333 95.1066 29.9633 93.2465C30.3673 92.8199 30.7981 92.4195 31.253 92.0477C31.4508 91.8798 31.6257 91.7136 31.8039 91.5814L32.3041 91.2363C32.6049 91.0084 32.9233 90.8046 33.2562 90.627C33.3102 90.7001 31.9073 91.526 30.1341 93.411C27.8816 95.9214 26.074 98.7979 24.789 101.916C24.0475 103.617 23.4202 105.366 22.9114 107.15C22.4844 108.605 22.1306 110.08 21.8513 111.57C21.6163 112.844 21.482 113.884 21.4007 114.604C21.3839 114.98 21.3381 115.355 21.2638 115.725Z" fill="#E0E0E0"/>
<path d="M29.9301 131.542L29.0317 143.85H13.22L12.3203 131.542H29.9301Z" fill="#E0E0E0"/>
<path d="M31.4572 126.69H10.4336V131.541H31.4572V126.69Z" fill="#E0E0E0"/>
<path d="M31.459 143.379V144.724H10.7812V143.379H31.459Z" fill="#EBEBEB"/>
<path d="M29.5018 147.091L30.4699 144.724H11.5361L12.6658 147.091H29.5018Z" fill="#E0E0E0"/>
<path d="M12.6143 135.564C12.6337 135.605 12.6586 135.643 12.6881 135.677C12.7509 135.76 12.8284 135.864 12.9231 135.991C13.1477 136.278 13.4565 136.673 13.8443 137.169L13.8852 137.222L13.9252 137.167L16.1882 134.037H16.0579L18.286 137.193L18.3558 137.293L18.4341 137.2L21.0764 134.057L20.924 134.055L21.0693 134.237L23.4324 137.199L23.5109 137.298L23.5838 137.195L25.8129 134.04L25.6833 134.046L28.4287 137.174L28.4774 137.23L28.5146 137.167C28.8765 136.559 29.1649 136.074 29.3744 135.723L29.5946 135.339C29.6228 135.296 29.6453 135.25 29.6617 135.201C29.6261 135.238 29.5952 135.279 29.5697 135.323L29.3257 135.693C29.1061 136.038 28.803 136.514 28.4233 137.11L28.5093 137.104L25.8092 133.936L25.742 133.856L25.6803 133.942L23.431 137.082L23.5824 137.078L21.2251 134.111L21.0797 133.928L21.0039 133.835L20.9267 133.927L18.2917 137.078L18.4394 137.083L16.1902 133.944L16.1231 133.852L16.0586 133.944C15.1673 135.217 14.4099 136.299 13.8429 137.108L13.9235 137.106L12.9651 135.957L12.7086 135.66C12.6502 135.594 12.618 135.561 12.6143 135.564Z" fill="#F5F5F5"/>
<path d="M12.1006 131.46C12.1006 131.515 16.0619 131.559 20.9491 131.559C25.8363 131.559 29.7983 131.515 29.7983 131.46C29.7983 131.406 25.837 131.362 20.9491 131.362C16.0612 131.362 12.1006 131.406 12.1006 131.46Z" fill="#F5F5F5"/>
<path d="M11.3018 144.857C11.3018 144.911 15.6079 144.955 20.9184 144.955C26.2289 144.955 30.536 144.911 30.536 144.857C30.536 144.802 26.2309 144.758 20.9184 144.758C15.6058 144.758 11.3018 144.802 11.3018 144.857Z" fill="#F5F5F5"/>
<path d="M104.932 84.6099C110.848 84.6099 115.644 79.8139 115.644 73.8978C115.644 67.9817 110.848 63.1858 104.932 63.1858C99.0157 63.1858 94.2197 67.9817 94.2197 73.8978C94.2197 79.8139 99.0157 84.6099 104.932 84.6099Z" fill="#EBEBEB"/>
<path d="M114.812 72.0673C114.995 72.0572 115.195 72.3385 115.343 72.8921C115.522 73.6776 115.551 74.4901 115.428 75.2864C115.263 76.4863 114.871 77.6436 114.272 78.6965C113.537 80.0212 112.513 81.1624 111.274 82.0345C110.036 82.9067 108.616 83.487 107.121 83.732C105.928 83.941 104.706 83.9208 103.521 83.6723C102.729 83.5196 101.974 83.2187 101.295 82.7854C100.825 82.459 100.627 82.176 100.698 82.0072C100.853 81.6379 101.995 81.845 103.695 81.7554C105.849 81.7279 107.945 81.0495 109.706 79.8092C111.467 78.569 112.812 76.825 113.563 74.8063C114.222 73.2342 114.412 72.0891 114.812 72.0673Z" fill="#E0E0E0"/>
<path d="M105.423 76.4965C106.535 76.4291 107.586 75.9588 108.377 75.1735C108.805 74.7058 109.199 73.9968 109.149 73.3647C109.131 73.0471 109.008 72.7447 108.798 72.5059C108.587 72.2671 108.303 72.1059 107.99 72.0481C107.537 72.0399 107.093 72.1842 106.732 72.458C106.373 72.7311 105.97 72.9406 105.54 73.0773C104.912 73.2197 104.267 72.9706 103.674 72.7198C103.08 72.469 102.445 72.2062 101.811 72.321C101.594 72.336 101.386 72.4085 101.206 72.5309C101.027 72.6533 100.883 72.8213 100.791 73.0176C100.791 73.0176 100.47 73.7155 101.114 74.6491C101.613 75.3012 102.272 75.8137 103.026 76.1373C103.781 76.4608 104.606 76.5846 105.423 76.4965Z" fill="white"/>
<path d="M100.555 70.4014C100.464 70.2276 100.322 70.0856 100.148 69.9943C99.974 69.9029 99.7765 69.8665 99.5815 69.8898C99.4628 69.8952 99.3479 69.934 99.2502 70.0016C99.2471 70.0036 99.2434 70.0049 99.2404 70.007H99.2448C99.0943 70.1235 98.9783 70.2788 98.9093 70.4562C98.8402 70.6336 98.8208 70.8265 98.853 71.0141C98.8833 71.139 98.9389 71.2564 99.0163 71.3591C99.0937 71.4617 99.1914 71.5473 99.3033 71.6107C99.4151 71.6741 99.5388 71.7138 99.6666 71.7275C99.7944 71.7412 99.9237 71.7285 100.046 71.6902C100.166 71.6403 100.274 71.5671 100.364 71.4748C100.454 71.3826 100.525 71.2732 100.573 71.1531C100.62 71.033 100.643 70.9046 100.64 70.7755C100.637 70.6464 100.608 70.5192 100.555 70.4014Z" fill="white"/>
<path d="M110.747 70.435C110.656 70.2612 110.514 70.1191 110.34 70.0277C110.166 69.9363 109.969 69.8998 109.774 69.9231C109.655 69.9288 109.54 69.9675 109.443 70.0349C109.439 70.0369 109.436 70.0382 109.433 70.0403H109.437C109.286 70.1569 109.171 70.3122 109.102 70.4896C109.033 70.667 109.013 70.8598 109.045 71.0474C109.076 71.1723 109.131 71.2897 109.209 71.3924C109.286 71.495 109.384 71.5806 109.496 71.644C109.608 71.7074 109.731 71.7471 109.859 71.7608C109.987 71.7745 110.116 71.7618 110.239 71.7235C110.358 71.6737 110.466 71.6005 110.556 71.5083C110.647 71.416 110.718 71.3067 110.765 71.1866C110.812 71.0665 110.835 70.9381 110.832 70.809C110.829 70.68 110.8 70.5528 110.747 70.435Z" fill="white"/>
<path d="M106.671 23.3157C111.091 23.3157 114.674 19.7324 114.674 15.3122C114.674 10.8919 111.091 7.30859 106.671 7.30859C102.25 7.30859 98.667 10.8919 98.667 15.3122C98.667 19.7324 102.25 23.3157 106.671 23.3157Z" fill="#EBEBEB"/>
<path d="M114.052 13.9444C114.188 13.937 114.338 14.1458 114.449 14.5604C114.583 15.1474 114.604 15.7544 114.513 16.3494C114.389 17.2459 114.096 18.1107 113.649 18.8974C113.1 19.8869 112.334 20.7393 111.409 21.3908C110.484 22.0423 109.424 22.476 108.307 22.6593C107.415 22.8162 106.502 22.8014 105.616 22.6157C105.025 22.5017 104.461 22.2769 103.953 21.953C103.601 21.7093 103.454 21.4978 103.507 21.3719C103.623 21.0956 104.476 21.2507 105.746 21.1836C107.35 21.1273 108.906 20.6233 110.239 19.7286C111.529 18.7756 112.527 17.4807 113.12 15.9902C113.611 14.8162 113.753 13.9605 114.052 13.9444Z" fill="#E0E0E0"/>
<path d="M106.304 13.9401C105.472 13.9907 104.688 14.3421 104.097 14.9288C103.738 15.2887 103.532 15.7725 103.52 16.2803C103.533 16.5176 103.625 16.7435 103.782 16.9218C103.939 17.1002 104.152 17.2207 104.385 17.2639C104.724 17.2699 105.055 17.162 105.325 16.9574C105.593 16.7536 105.894 16.5972 106.215 16.4948C106.697 16.438 107.184 16.5318 107.61 16.7634C108.036 16.9943 108.519 17.0977 109.002 17.0612C109.164 17.05 109.32 16.9959 109.454 16.9044C109.588 16.813 109.695 16.6875 109.764 16.5408C109.83 16.3337 109.842 16.1134 109.8 15.9003C109.757 15.6872 109.662 15.4883 109.522 15.3219C109.15 14.8345 108.658 14.4513 108.094 14.2093C107.53 13.9673 106.914 13.8746 106.304 13.9401Z" fill="white"/>
<path d="M103.4 12.7C103.332 12.5701 103.226 12.464 103.096 12.3958C102.966 12.3275 102.818 12.3002 102.673 12.3176C102.584 12.3215 102.498 12.3505 102.425 12.4012L102.418 12.4052H102.421C102.309 12.4922 102.222 12.608 102.171 12.7404C102.119 12.8727 102.104 13.0165 102.128 13.1565C102.151 13.2499 102.192 13.3377 102.25 13.4145C102.308 13.4912 102.381 13.5552 102.465 13.6026C102.548 13.65 102.641 13.6796 102.736 13.6898C102.832 13.7 102.928 13.6904 103.02 13.6618C103.109 13.6245 103.189 13.5698 103.257 13.501C103.324 13.4321 103.377 13.3505 103.413 13.2609C103.448 13.1713 103.465 13.0755 103.463 12.9792C103.461 12.8828 103.439 12.7879 103.4 12.7Z" fill="white"/>
<path d="M111.015 12.7248C110.947 12.5949 110.841 12.4887 110.711 12.4204C110.581 12.3521 110.433 12.3249 110.288 12.3424C110.199 12.3466 110.113 12.3755 110.04 12.426L110.033 12.4301H110.036C109.924 12.517 109.837 12.6328 109.786 12.7652C109.734 12.8975 109.72 13.0414 109.744 13.1814C109.766 13.2746 109.808 13.3622 109.866 13.4388C109.924 13.5153 109.997 13.5792 110.08 13.6264C110.164 13.6736 110.256 13.7031 110.352 13.7132C110.447 13.7233 110.544 13.7137 110.635 13.6849C110.724 13.6477 110.804 13.5931 110.871 13.5244C110.939 13.4557 110.992 13.3742 111.027 13.2848C111.062 13.1953 111.08 13.0998 111.078 13.0036C111.076 12.9074 111.054 12.8127 111.015 12.7248Z" fill="white"/>
<path d="M8.6646 74.835C12.6032 74.835 15.796 71.6422 15.796 67.7037C15.796 63.7651 12.6032 60.5723 8.6646 60.5723C4.72604 60.5723 1.5332 63.7651 1.5332 67.7037C1.5332 71.6422 4.72604 74.835 8.6646 74.835Z" fill="#EBEBEB"/>
<path d="M15.2414 66.4847C15.3632 66.4783 15.4965 66.6653 15.5952 67.0339C15.7145 67.5568 15.7337 68.0977 15.6519 68.6278C15.542 69.4266 15.2807 70.1972 14.8822 70.8982C14.3932 71.7798 13.7111 72.5393 12.8868 73.1198C12.0626 73.7003 11.1177 74.0868 10.1229 74.2502C9.3285 74.3894 8.51488 74.3758 7.72559 74.2102C7.19888 74.1088 6.69618 73.9085 6.24413 73.6197C5.93024 73.4025 5.79898 73.2142 5.84631 73.1017C5.94971 72.856 6.70975 72.994 7.84208 72.9339C9.27077 72.8837 10.6569 72.4347 11.8437 71.6377C12.9936 70.789 13.883 69.6353 14.4112 68.3072C14.8489 67.2615 14.9758 66.4994 15.2414 66.4847Z" fill="#E0E0E0"/>
<path d="M8.99127 69.4326C9.73186 69.3876 10.4308 69.0746 10.9575 68.552C11.2769 68.2312 11.4609 67.8001 11.4718 67.3475C11.46 67.136 11.3775 66.9347 11.2374 66.7757C11.0974 66.6168 10.908 66.5096 10.6997 66.4713C10.3972 66.4655 10.1016 66.5616 9.86041 66.7442C9.62164 66.926 9.35343 67.0655 9.06748 67.1565C8.6388 67.2072 8.20492 67.1241 7.82536 66.9185C7.44609 66.7127 7.01556 66.6205 6.58527 66.6529C6.4411 66.6629 6.30219 66.7112 6.18284 66.7926C6.06348 66.8741 5.96797 66.9859 5.90614 67.1165C5.84772 67.3011 5.83685 67.4975 5.87453 67.6874C5.9122 67.8773 5.9972 68.0546 6.12166 68.2029C6.45396 68.6372 6.89261 68.9785 7.39526 69.1939C7.89791 69.4093 8.4476 69.4915 8.99127 69.4326Z" fill="white"/>
<path d="M5.75066 65.3759C5.68973 65.2602 5.59516 65.1657 5.47943 65.1049C5.3637 65.0441 5.23224 65.0197 5.10241 65.0351C5.02339 65.039 4.947 65.0648 4.88185 65.1097L4.87514 65.1134H4.87816C4.77813 65.1909 4.70104 65.2941 4.6551 65.412C4.60915 65.5299 4.5961 65.658 4.61731 65.7828C4.63731 65.866 4.67422 65.9443 4.72575 66.0127C4.77727 66.0811 4.84232 66.1382 4.91684 66.1804C4.99135 66.2227 5.07376 66.2491 5.15893 66.2581C5.2441 66.2672 5.33022 66.2586 5.41193 66.2329C5.49116 66.1998 5.56294 66.1511 5.62306 66.0898C5.68318 66.0284 5.73042 65.9557 5.76198 65.8758C5.79355 65.7959 5.80881 65.7106 5.80687 65.6247C5.80492 65.5388 5.78581 65.4542 5.75066 65.3759Z" fill="white"/>
<path d="M12.5355 65.398C12.4747 65.2823 12.3801 65.1878 12.2643 65.1269C12.1486 65.0661 12.0171 65.0418 11.8873 65.0573C11.8083 65.0611 11.7319 65.087 11.6667 65.1318L11.6604 65.1355H11.663C11.5631 65.213 11.486 65.3162 11.4401 65.4341C11.3942 65.552 11.3812 65.6802 11.4025 65.8049C11.4225 65.8882 11.4594 65.9664 11.511 66.0349C11.5625 66.1033 11.6275 66.1604 11.7021 66.2026C11.7766 66.2448 11.859 66.2712 11.9442 66.2803C12.0293 66.2893 12.1154 66.2807 12.1972 66.2551C12.2763 66.2218 12.348 66.1731 12.4081 66.1118C12.4682 66.0504 12.5153 65.9777 12.5469 65.8978C12.5784 65.818 12.5936 65.7326 12.5917 65.6468C12.5898 65.5609 12.5707 65.4764 12.5355 65.398Z" fill="white"/>
<path d="M124.428 124.138L112.475 124.202L112.542 136.882L124.495 136.818L124.428 124.138Z" fill="#EBEBEB"/>
<path d="M136.324 124.075L124.371 124.139L124.439 136.818L136.392 136.754L136.324 124.075Z" fill="#F5F5F5"/>
<path d="M112.493 127.704C120.437 127.771 128.4 127.723 136.343 127.595C136.375 127.593 136.406 127.579 136.429 127.555C136.451 127.531 136.464 127.5 136.464 127.467C136.464 127.435 136.451 127.403 136.429 127.38C136.406 127.356 136.375 127.342 136.343 127.34C128.399 127.297 120.436 127.336 112.494 127.486C112.466 127.488 112.44 127.5 112.42 127.52C112.401 127.541 112.391 127.567 112.391 127.595C112.391 127.623 112.401 127.65 112.42 127.67C112.44 127.691 112.466 127.703 112.494 127.704H112.493Z" fill="#E0E0E0"/>
<path d="M126.739 136.606L105.022 136.723L105.078 147.056L126.794 146.939L126.739 136.606Z" fill="#EBEBEB"/>
<path d="M148.352 136.49L126.636 136.607L126.691 146.94L148.408 146.823L148.352 136.49Z" fill="#F5F5F5"/>
<path d="M105.037 139.597C119.464 139.76 133.942 139.613 148.368 139.382C148.401 139.382 148.434 139.369 148.458 139.345C148.481 139.321 148.495 139.289 148.495 139.256C148.495 139.222 148.481 139.19 148.458 139.166C148.434 139.142 148.401 139.129 148.368 139.129C133.94 139.052 119.464 139.062 105.038 139.379C105.01 139.38 104.984 139.392 104.964 139.413C104.945 139.433 104.935 139.46 104.935 139.488C104.935 139.516 104.945 139.542 104.964 139.563C104.984 139.583 105.01 139.595 105.038 139.597H105.037Z" fill="#E0E0E0"/>
<path d="M103.659 80.29L86.6082 74.82L66.2014 74.7445C66.2014 74.7445 50.4521 79.6552 48.5409 80.6704L47.6614 123.114L46.9775 147.319L102.597 147.022V117.705L103.659 80.29Z" fill="#16A75C"/>
<path d="M48.5412 80.6708C44.2637 84.5031 40.9527 89.2924 38.8786 94.6479C36.6109 100.644 31.4541 113.948 31.4541 113.948L47.6106 119.676L51.2648 93.8768L48.5412 80.6708Z" fill="#16A75C"/>
<path d="M101.681 79.6555C101.681 79.6555 105.889 80.013 110.014 86.6258C112.923 91.2897 120.009 111.705 120.009 111.705L101.36 118.222L96.8574 114.755L101.681 79.6555Z" fill="#16A75C"/>
<path d="M47.6618 91.1669C47.7098 91.1669 47.7491 98.3174 47.7491 107.14C47.7491 115.962 47.7098 123.114 47.6618 123.114C47.6138 123.114 47.5742 115.964 47.5742 107.14C47.5742 98.3157 47.6135 91.1669 47.6618 91.1669Z" fill="#212121"/>
<path d="M46.86 92.6981C46.569 92.6431 46.288 92.5443 46.0267 92.405C44.725 91.7937 43.6324 90.8119 42.8859 89.5827C42.7195 89.3378 42.5913 89.0689 42.5059 88.7854C43.4953 90.5266 45.0233 91.8996 46.86 92.6981Z" fill="white"/>
<path d="M101.831 94.1144C101.792 94.1402 101.75 94.1627 101.707 94.1815L101.333 94.3668L99.8899 95.0648L98.8445 95.5653C98.4574 95.7379 98.0264 95.901 97.5688 96.0883C96.6476 96.4485 95.6174 96.9115 94.4246 97.275L92.5688 97.8917C91.9223 98.1019 91.2314 98.261 90.5257 98.4561L89.4461 98.7441C89.2628 98.7911 89.0795 98.8448 88.8922 98.8874L88.3215 99.0039L85.9628 99.4863C82.4408 100.101 78.8741 100.422 75.2991 100.449C71.7231 100.421 68.1555 100.098 64.6327 99.4826L62.2737 98.9996L61.7047 98.8827C61.517 98.8404 61.3354 98.786 61.1508 98.7387L60.0712 98.4507C59.3662 98.2536 58.6746 98.0958 58.0281 97.8857L56.1723 97.2683C54.9798 96.9041 53.9496 96.4408 53.0287 96.0803C52.5712 95.8919 52.1401 95.7295 51.753 95.5569L50.7077 95.056L49.2641 94.3578L48.8908 94.1721C48.8477 94.153 48.8062 94.1305 48.7666 94.105C48.812 94.1188 48.8563 94.1363 48.8989 94.1574L49.2799 94.3272L50.7362 94.9953L51.7863 95.4817C52.1743 95.6496 52.6067 95.8073 53.0653 95.9906C53.9882 96.3421 55.0191 96.7963 56.2119 97.1522L58.0667 97.7564C58.7129 97.9629 59.4031 98.117 60.1078 98.3104L61.1857 98.5937C61.3687 98.64 61.5513 98.6944 61.7386 98.735L62.307 98.8495L64.6613 99.3245C68.1756 99.9291 71.7333 100.247 75.2991 100.275C78.864 100.248 82.4207 99.9316 85.9343 99.3282L88.2882 98.8545L88.8566 98.7404C89.0436 98.6994 89.2259 98.6457 89.4095 98.5994L90.4874 98.3164C91.1924 98.1234 91.8823 97.9696 92.5285 97.7635L94.3836 97.1592C95.5764 96.8037 96.6077 96.3498 97.5309 95.9987C97.9895 95.8154 98.4215 95.6576 98.8099 95.4901L99.8604 95.004L101.317 94.3363L101.698 94.1667C101.741 94.1456 101.785 94.1281 101.831 94.1144Z" fill="white"/>
<path d="M109.986 88.2351C109.994 88.2442 109.919 88.3274 109.771 88.4701C109.624 88.6128 109.408 88.8132 109.133 89.0522C107.686 90.2922 106.087 91.3438 104.375 92.182C104.046 92.3411 103.777 92.4627 103.587 92.5389C103.492 92.5876 103.39 92.6225 103.285 92.6426C103.618 92.4334 103.963 92.2428 104.317 92.0719C104.957 91.7278 105.828 91.2299 106.756 90.6213C107.684 90.0127 108.484 89.4081 109.054 88.9569C109.351 88.6993 109.662 88.4583 109.986 88.2351Z" fill="white"/>
<path d="M47.3905 96.4892C47.2845 96.4855 47.1796 96.4669 47.0789 96.4338C46.7999 96.3662 46.5252 96.2817 46.2564 96.1807C44.4637 95.5177 42.8962 94.3592 41.7362 92.8401C41.5608 92.6126 41.3993 92.3748 41.2524 92.128C41.191 92.0417 41.1425 91.947 41.1084 91.8467C41.1339 91.8303 41.377 92.2079 41.8332 92.7632C43.0275 94.2156 44.5625 95.3501 46.3014 96.0655C46.9665 96.3395 47.3985 96.4597 47.3905 96.4892Z" fill="white"/>
<path d="M100.868 99.9453C100.829 99.9705 100.788 99.9924 100.744 100.011L100.373 100.187L98.9361 100.85L97.8954 101.325C97.5103 101.488 97.0816 101.64 96.6264 101.816C95.7103 102.152 94.6847 102.59 93.4996 102.922L91.6533 103.489C91.0104 103.682 90.3249 103.82 89.6239 103.997L88.5517 104.254C88.3697 104.296 88.1878 104.346 88.0018 104.383L87.4371 104.483L85.0976 104.897C81.6063 105.407 78.0779 105.618 74.5507 105.528C71.0245 105.383 67.517 104.937 64.0666 104.195L61.7597 103.624L61.2027 103.487C61.0194 103.438 60.8412 103.376 60.6626 103.322L59.6098 102.994C58.9223 102.77 58.2475 102.587 57.6187 102.352L55.816 101.663C54.6555 101.253 53.6618 100.748 52.7701 100.351C52.3277 100.145 51.9101 99.9654 51.5368 99.7771L50.5296 99.2332L49.1405 98.4759L48.7813 98.2744C48.7397 98.2531 48.6998 98.2285 48.6621 98.2009C48.7064 98.2164 48.7494 98.2357 48.7904 98.2587L49.1576 98.4443L50.5612 99.1718L51.573 99.7012C51.9477 99.8848 52.367 100.06 52.8104 100.261C53.7044 100.649 54.6994 101.145 55.8603 101.547L57.6627 102.223C58.2908 102.455 58.9653 102.634 59.6518 102.854L60.7032 103.178C60.8815 103.231 61.0594 103.292 61.2423 103.34L61.7983 103.474L64.1009 104.034C67.5428 104.765 71.0401 105.205 74.5558 105.349C78.0725 105.439 81.5905 105.233 85.0727 104.734L87.4072 104.329L87.9706 104.231C88.1562 104.195 88.3378 104.147 88.5194 104.106L89.59 103.853C90.2896 103.679 90.9745 103.545 91.6167 103.356L93.46 102.801C94.6451 102.478 95.671 102.05 96.5888 101.722C97.045 101.55 97.4747 101.404 97.8611 101.246L98.9062 100.785L100.355 100.152L100.734 99.9919C100.778 99.9726 100.822 99.957 100.868 99.9453Z" fill="white"/>
<path d="M111.885 90.4763C111.799 90.5904 111.701 90.695 111.593 90.7882C111.398 90.9816 111.109 91.2531 110.745 91.5821C110.018 92.2405 108.985 93.1193 107.796 94.0294C106.607 94.9395 105.487 95.708 104.661 96.236C104.248 96.5009 103.911 96.7094 103.673 96.8467C103.555 96.927 103.428 96.9945 103.296 97.0481C103.4 96.9504 103.514 96.8643 103.637 96.7913C103.891 96.616 104.212 96.3962 104.593 96.135C105.398 95.5801 106.503 94.7992 107.689 93.8925C108.876 92.9857 109.917 92.124 110.664 91.4908L111.548 90.7395C111.65 90.6399 111.763 90.5516 111.885 90.4763Z" fill="white"/>
<path d="M72.3488 127.669C72.2681 127.686 72.1859 127.695 72.1034 127.696L71.3985 127.74C71.092 127.76 70.7166 127.774 70.2802 127.783C69.8438 127.792 69.3476 127.807 68.7984 127.801C67.7003 127.81 66.3927 127.761 64.9428 127.684C63.4936 127.592 61.9027 127.453 60.2389 127.251C58.5758 127.04 56.9987 126.786 55.5726 126.521C54.1475 126.241 52.8678 125.969 51.805 125.692C51.2709 125.564 50.7925 125.43 50.3725 125.312C49.9526 125.194 49.591 125.092 49.2983 124.998L48.6249 124.782C48.5452 124.761 48.4678 124.732 48.3936 124.696C48.4756 124.706 48.5565 124.724 48.6353 124.749L49.3171 124.932C49.6118 125.017 49.9747 125.112 50.3974 125.218C50.82 125.323 51.2987 125.453 51.8335 125.572C52.8981 125.833 54.1778 126.092 55.6011 126.363C57.0279 126.618 58.602 126.866 60.2618 127.077C61.9215 127.278 63.5084 127.422 64.9539 127.523C66.4001 127.608 67.7043 127.67 68.8004 127.678C69.3486 127.691 69.8445 127.688 70.2799 127.685C70.7153 127.682 71.0906 127.682 71.3971 127.672L72.1021 127.661C72.1844 127.656 72.267 127.658 72.3488 127.669Z" fill="white"/>
<path d="M68.1001 131.446C68.031 131.46 67.9607 131.466 67.8902 131.465L67.2883 131.486C67.0265 131.496 66.7065 131.5 66.3346 131.493C65.9626 131.486 65.5393 131.488 65.072 131.465C64.136 131.438 63.0242 131.352 61.7925 131.237C60.5614 131.109 59.2116 130.938 57.8006 130.72C54.9807 130.275 52.4478 129.746 50.6219 129.343C49.7088 129.142 48.9719 128.971 48.4636 128.848L47.8792 128.702C47.81 128.688 47.7424 128.667 47.6777 128.639C47.7482 128.641 47.8182 128.65 47.8865 128.667L48.4777 128.781L50.6474 129.223C52.4787 129.595 55.0116 130.103 57.8275 130.547C59.2357 130.764 60.5802 130.94 61.8086 131.076C63.0366 131.199 64.1444 131.298 65.0774 131.34C65.5433 131.372 65.9653 131.382 66.3363 131.395C66.7072 131.407 67.0265 131.417 67.2876 131.417L67.8896 131.429C67.9601 131.427 68.0307 131.433 68.1001 131.446Z" fill="white"/>
<path d="M102.597 123.991C102.574 124.003 102.549 124.011 102.524 124.015L102.305 124.071L101.46 124.268C100.726 124.439 99.6596 124.663 98.3382 124.919C95.6935 125.432 92.0159 126.03 87.9256 126.455C83.8354 126.88 80.1107 127.043 77.418 127.082C76.0712 127.102 74.9808 127.101 74.2288 127.084L73.3617 127.064L73.1361 127.055C73.1103 127.055 73.0845 127.052 73.0596 127.045C73.0846 127.038 73.1105 127.035 73.1364 127.036L73.362 127.029L74.2288 127.016C74.9818 127.012 76.0709 126.994 77.4164 126.958C80.107 126.888 83.823 126.701 87.9095 126.281C91.9961 125.86 95.6694 125.279 98.3164 124.797C99.6408 124.557 100.711 124.352 101.449 124.202L102.3 124.037L102.522 123.998C102.547 123.992 102.572 123.989 102.597 123.991Z" fill="white"/>
<path d="M102.597 128.64C102.57 128.652 102.542 128.659 102.513 128.664L102.265 128.716L101.307 128.899C100.473 129.054 99.2658 129.268 97.7692 129.507C96.274 129.755 94.4874 130.011 92.4987 130.272C90.5099 130.519 88.3191 130.759 86.0125 130.938C83.7045 131.105 81.5006 131.193 79.4954 131.211C77.4903 131.199 75.6832 131.156 74.1725 131.017C73.7945 130.985 73.4339 130.963 73.0942 130.928L72.1378 130.814L71.3045 130.713C71.0491 130.677 70.8174 130.633 70.608 130.599L69.6465 130.431L69.3974 130.383C69.3686 130.379 69.3404 130.372 69.3135 130.361C69.3425 130.358 69.3718 130.36 69.4004 130.365L69.6525 130.396L70.618 130.531C70.8278 130.56 71.0598 130.598 71.3156 130.629L72.1488 130.716L73.1066 130.816C73.4457 130.848 73.8059 130.866 74.1832 130.893C75.6919 131.016 77.4953 131.047 79.4961 131.049C81.4972 131.023 83.6965 130.932 86.0011 130.763C88.304 130.584 90.4928 130.35 92.4802 130.112C94.4662 129.86 96.2532 129.617 97.7508 129.385C99.2487 129.162 100.459 128.966 101.295 128.831L102.26 128.681L102.511 128.647C102.539 128.641 102.568 128.638 102.597 128.64Z" fill="white"/>
<path d="M92.2191 110.906C92.1956 110.934 92.1691 110.96 92.1402 110.982L91.8968 111.19L90.9508 111.979L87.4631 114.868C84.5217 117.311 80.4788 120.711 76.0699 124.532C71.6611 128.352 67.7206 131.874 64.8846 134.439L61.5299 137.481L60.6151 138.305L60.3744 138.516C60.348 138.542 60.3191 138.564 60.2881 138.584C60.3098 138.554 60.3347 138.527 60.3623 138.503L60.5912 138.279L61.4835 137.43C62.2604 136.695 63.3934 135.641 64.8013 134.347C67.6165 131.758 71.5446 128.223 75.9555 124.399C80.3663 120.574 84.4223 117.191 87.3846 114.772C88.8654 113.563 90.0702 112.59 90.9078 111.925L91.8746 111.162L92.1288 110.967C92.1568 110.944 92.187 110.924 92.2191 110.906Z" fill="#212121"/>
<g opacity="0.3">
<g opacity="0.3">
<path opacity="0.3" d="M75.6205 124.909L64.0645 135.102C74.0171 130.593 82.5179 123.73 88.0469 114.306L75.6205 124.909Z" fill="#212121"/>
</g>
</g>
<g opacity="0.3">
<g opacity="0.3">
<path opacity="0.3" d="M102.598 117.705C105.096 112.64 105.153 102.709 102.631 97.2341C102.782 103.391 102.768 111.563 102.598 117.705Z" fill="#212121"/>
</g>
</g>
<path d="M102.597 92.3322C102.645 92.3322 102.685 104.575 102.685 119.675C102.685 134.775 102.645 147.02 102.597 147.02C102.549 147.02 102.51 134.78 102.51 119.675C102.51 104.57 102.549 92.3322 102.597 92.3322Z" fill="#212121"/>
<path d="M98.4922 49.967C99.3187 48.1522 100.16 46.282 100.278 44.2829C100.397 42.2837 99.6262 40.098 97.9188 39.1506C96.341 38.2754 94.3707 38.6249 92.6902 37.984C90.6169 37.1931 89.3442 35.0563 88.463 32.9649C87.5817 30.8734 88.8886 30.1473 87.3551 28.5047C85.3234 26.3256 83.9773 25.9869 81.3145 27.232C79.4496 25.8472 72.9238 23.2677 71.0264 23.1666C68.2122 23.0166 65.0018 23.169 62.9906 25.1429C61.4303 26.6744 60.4171 28.644 58.519 29.7297C55.9086 31.2232 52.6556 29.8304 49.648 29.8724C49.0347 29.8811 48.3176 30.0214 48.0521 30.5743C47.8228 31.0527 48.0417 31.615 48.2602 32.0981L50.4725 36.9974C49.8318 37.271 49.1376 37.3962 48.4417 37.3636C47.7458 37.3309 47.0663 37.1412 46.4541 36.8087C46.5291 40.0064 47.7238 43.0764 49.83 45.4837C49.3052 45.0939 48.4938 45.4659 48.2149 46.0567C47.9359 46.6476 48.0423 47.3435 48.1988 47.978C48.6801 49.932 49.5752 51.76 50.8236 53.3385C52.072 54.9169 53.6447 56.2091 55.4353 57.1276C57.2259 58.0461 59.1928 58.5696 61.2032 58.6627C63.2135 58.7559 65.2204 58.4165 67.0882 57.6674L83.6218 59.2879C83.8357 59.9318 84.2013 60.5149 84.6879 60.9878C85.1745 61.4607 85.7677 61.8096 86.4175 62.0051C88.3035 60.674 88.6171 59.91 88.6171 59.91C89.7397 60.7848 88.852 60.337 89.7397 60.7848C91.7707 61.8104 94.834 60.7177 95.3483 58.4396C95.5635 57.4872 95.8502 56.5754 96.5065 55.9392C97.1779 55.2883 98.1179 55.053 98.9571 54.6548C100.295 54.0078 101.385 52.9407 102.06 51.6164C101.384 51.6017 100.718 51.4476 100.104 51.1638C99.4903 50.88 98.9415 50.4726 98.4922 49.967Z" fill="#212121"/>
<path d="M73.2821 25.8473L72.4495 25.8893C68.4114 26.0916 64.5974 27.8066 61.7662 30.6932C58.9351 33.5798 57.2944 37.4264 57.1705 41.4677C56.9355 49.2695 56.7761 57.8958 57.0362 62.0622C57.5781 70.6845 66.2749 71.5912 66.2749 71.5912C66.2799 71.6812 66.2463 72.9747 66.1993 74.7448C66.1633 76.0964 66.3983 77.4415 66.8906 78.7008C67.3829 79.96 68.1224 81.1079 69.0655 82.0767C70.0087 83.0455 71.1363 83.8155 72.3819 84.3414C73.6275 84.8673 74.9658 85.1384 76.3178 85.1386C78.9761 85.1386 81.5277 84.0928 83.4213 82.2273C85.315 80.3617 86.3988 77.8261 86.4387 75.1682L86.9308 42.601C87.2531 33.6048 82.2847 25.9188 73.2821 25.8473Z" fill="#F4A386"/>
<path d="M66.2762 71.5912C66.2762 71.5912 71.7304 71.6359 77.342 67.7037C77.342 67.7037 74.9196 74.1436 66.2715 73.8008L66.2762 71.5912Z" fill="#F07F57"/>
<path d="M86.5508 49.026C86.6948 48.9548 92.3921 46.9735 92.4995 52.8813C92.6069 58.789 86.6549 57.6802 86.6414 57.511C86.628 57.3418 86.5508 49.026 86.5508 49.026Z" fill="#F4A386"/>
<path d="M88.4046 55.2396C88.4304 55.2201 88.509 55.3098 88.6842 55.386C88.9309 55.4861 89.2068 55.4867 89.454 55.3876C90.0737 55.1469 90.5809 54.1455 90.59 53.081C90.5956 52.5743 90.4879 52.0727 90.2748 51.613C90.216 51.4294 90.1134 51.263 89.976 51.1279C89.8386 50.9928 89.6704 50.8931 89.4859 50.8375C89.3671 50.8084 89.2419 50.8218 89.1319 50.8753C89.022 50.9288 88.9343 51.0191 88.8839 51.1306C88.8077 51.2984 88.8473 51.4146 88.8168 51.4253C88.8007 51.4404 88.6882 51.3286 88.7315 51.0836C88.7618 50.9367 88.8414 50.8046 88.9571 50.7092C89.1175 50.5834 89.3209 50.5257 89.5235 50.5484C89.7669 50.5918 89.9952 50.6969 90.1864 50.8538C90.3775 51.0107 90.5252 51.2141 90.6152 51.4444C90.8763 51.9514 91.0093 52.5145 91.0026 53.0847C90.9868 54.2758 90.3983 55.4011 89.5483 55.6636C89.3906 55.7127 89.2239 55.7257 89.0605 55.7016C88.8971 55.6776 88.7412 55.6171 88.6043 55.5246C88.418 55.3806 88.3844 55.2503 88.4046 55.2396Z" fill="#F07F57"/>
<path d="M94.6134 39.6468C93.43 37.5372 93.1994 35.0476 92.5796 32.7091C91.9599 30.3706 90.7198 27.9357 88.4605 27.0726L88.4088 27.0941C86.3822 26.2256 83.8614 26.1568 82.15 27.5389C81.8028 24.4618 79.1686 21.9722 76.1919 21.1189C73.2152 20.2655 68.4018 20.6264 65.504 21.7181C63.2638 22.5617 61.0764 24.344 58.4072 26.9749C57.28 28.0826 56.2452 29.2806 55.3133 30.5569L52.5286 38.539C52.2438 38.739 51.9913 38.9815 51.78 39.258C50.7128 40.6465 52.6075 42.461 53.9467 41.3324L53.9705 41.3122C54.2108 41.7655 54.4279 42.2307 54.6208 42.7061V42.7172L54.6647 42.8051C54.7916 43.0952 54.9232 43.3849 55.084 43.6726L55.086 43.6531L56.8988 52.5829C57.0808 50.1624 57.0939 41.7298 57.2758 39.3094C59.0992 39.2971 60.9012 38.916 62.5734 38.1891C64.2456 37.4621 65.7535 36.4044 67.0063 35.0795C68.3625 33.6434 69.4442 31.8302 71.2338 30.9943C73.5415 29.9164 76.2435 30.7993 78.6297 31.6889L78.529 31.5949C79.7711 32.2041 80.8845 33.0465 81.8085 34.0761C81.1602 38.8524 81.5472 43.7123 82.9432 48.3258C83.1537 49.018 83.7372 50.4474 84.4059 50.7234C85.7202 51.2656 86.1073 49.9237 86.9213 49.2248C87.5202 48.7102 88.3931 48.6615 89.3451 48.6857C89.938 47.226 90.5705 44.7579 91.1032 42.597C91.8993 42.8625 92.7465 42.9382 93.577 42.8182C93.3367 42.2041 93.0963 41.5901 92.8559 40.9762C93.167 41.2152 93.5246 41.3867 93.9057 41.4797C94.0971 41.5223 94.2969 41.5053 94.4783 41.4311C94.6597 41.3568 94.8142 41.2289 94.9209 41.0645C95.1545 40.6163 94.8608 40.0879 94.6134 39.6468Z" fill="#212121"/>
<path d="M79.4199 28.4661C79.7226 28.7131 80.0054 28.9836 80.2656 29.2751C80.9269 30.1127 81.3599 31.1074 81.5224 32.1622C81.6534 32.8855 81.7106 33.6202 81.6933 34.355C81.6789 35.148 81.596 35.9953 81.5154 36.8886C81.414 37.825 81.3712 38.7668 81.3872 39.7085C81.4029 40.2097 81.4566 40.709 81.5476 41.2021C81.6114 41.7294 81.8094 42.2315 82.1227 42.6604C82.2688 42.8312 82.4567 42.9612 82.6681 43.0376C82.8794 43.1141 83.107 43.1345 83.3285 43.0968C83.7535 43.028 84.1434 42.8194 84.4364 42.5039C85.0051 41.8698 85.1615 41.053 85.3153 40.3336L85.1343 40.3514C85.3797 41.0061 85.719 41.6216 86.1414 42.1786C86.5504 42.6959 87.1428 43.0359 87.7958 43.128C88.0995 43.1665 88.4079 43.12 88.6867 42.9937C88.946 42.8669 89.1609 42.6645 89.3031 42.4133C89.4375 42.1831 89.5071 41.9208 89.5045 41.6543C89.4987 41.4054 89.4062 41.1664 89.243 40.9785L89.15 41.0577C89.649 41.6565 90.2685 42.1434 90.9682 42.4868C91.1525 42.5767 91.3422 42.6552 91.5362 42.7218C91.602 42.7479 91.6704 42.7665 91.7403 42.7772C91.6793 42.7417 91.6149 42.7126 91.548 42.6903C91.4211 42.6349 91.2327 42.5536 90.9981 42.4277C90.3227 42.0671 89.7265 41.5748 89.2447 40.9798L89.1517 41.0591C89.2889 41.243 89.3654 41.4653 89.3705 41.6947C89.3755 41.9242 89.3089 42.1496 89.1799 42.3394C89.0498 42.5625 88.8558 42.7414 88.623 42.8531C88.3699 42.964 88.0911 43.003 87.8173 42.9659C87.209 42.873 86.6596 42.5502 86.2824 42.0642C85.8753 41.518 85.549 40.9161 85.3136 40.2769L85.1957 39.9979L85.1323 40.2947C84.9782 41.0131 84.8134 41.7973 84.2954 42.3683C84.0328 42.6498 83.6843 42.8364 83.3044 42.8987C83.1162 42.9318 82.9226 42.9152 82.7428 42.8504C82.563 42.7856 82.4033 42.675 82.2795 42.5294C81.9905 42.1267 81.808 41.6573 81.7491 41.1651C81.6592 40.6822 81.6057 40.1931 81.5889 39.7021C81.5708 38.7679 81.6095 37.8335 81.7047 36.904C81.7803 36.011 81.8575 35.1584 81.8649 34.3564C81.8758 33.6108 81.8094 32.8662 81.6668 32.1343C81.489 31.0617 81.0273 30.0563 80.3297 29.2224C80.0715 28.9205 79.7639 28.6647 79.4199 28.4661Z" fill="#616161"/>
<path d="M52.5997 36.2431C52.5977 36.2458 52.6205 36.2663 52.6669 36.3035L52.8784 36.4653C52.9919 36.5547 53.112 36.6355 53.2376 36.707C53.4037 36.814 53.5766 36.9101 53.7552 36.9947C54.8977 37.544 56.1589 37.8002 57.4252 37.7403C59.3082 37.6583 61.1272 37.0325 62.6622 35.9386C64.4099 34.7408 65.9601 32.9528 67.2412 30.8946C67.8908 29.8664 68.4252 28.8092 69.01 27.835C69.5444 26.8856 70.2121 26.0176 70.9927 25.2575C71.6965 24.5717 72.561 24.0734 73.5071 23.8079C73.9352 23.6989 74.3777 23.658 74.8184 23.6867C75.2255 23.7193 75.6264 23.8057 76.0108 23.9435C77.1849 24.3756 78.1536 25.2334 78.7247 26.3465C78.9124 26.7628 79.0518 27.1993 79.14 27.6474C79.1427 27.6172 79.141 27.5867 79.1349 27.557C79.1255 27.4852 79.1141 27.3986 79.1013 27.2925C79.0392 26.955 78.9368 26.6261 78.7965 26.3129C78.5611 25.8213 78.2453 25.3723 77.8623 24.9845C77.3535 24.468 76.7392 24.0672 76.0615 23.8096C75.6657 23.6624 75.2521 23.5688 74.8315 23.5313C74.3737 23.4973 73.9133 23.5358 73.4675 23.6454C72.4906 23.9115 71.5965 24.4195 70.8678 25.1225C70.0704 25.8912 69.3881 26.7709 68.8422 27.7346C68.2503 28.7156 67.7159 29.77 67.072 30.7896C65.8003 32.8323 64.2725 34.6005 62.5578 35.7879C61.0533 36.8709 59.2698 37.5001 57.4188 37.6007C56.1721 37.6719 54.9268 37.4406 53.7888 36.9266C53.3798 36.7214 52.9828 36.4932 52.5997 36.2431Z" fill="#616161"/>
<path d="M51.9014 32.4426C51.9911 32.5304 52.0929 32.6051 52.2035 32.6645C52.4919 32.8491 52.794 33.0112 53.1072 33.1496C53.5708 33.3596 54.0515 33.5294 54.544 33.6571C55.7554 33.9716 57.0174 34.0401 58.2556 33.8586C58.7591 33.7849 59.2554 33.6684 59.7391 33.5101C60.0655 33.4068 60.3834 33.2785 60.6901 33.1264C60.8071 33.0794 60.917 33.0162 61.0164 32.9387C61.0003 32.9052 60.5193 33.1402 59.6975 33.3751C59.2166 33.512 58.7262 33.613 58.2304 33.6773C57.0146 33.8339 55.7803 33.7667 54.5887 33.4789C54.1029 33.3611 53.6265 33.2078 53.1633 33.02C52.3737 32.695 51.9208 32.4103 51.9014 32.4426Z" fill="#616161"/>
<path d="M30.8342 61.9064C30.8342 61.9064 20.5952 65.5958 15.5818 64.1459C10.5684 62.696 7.04446 60.6663 4.53137 54.7264C2.49766 49.9197 2.90353 44.0153 5.33941 39.3994C7.47081 35.3595 11.277 33.0821 15.284 30.8896C20.2602 28.1667 27.0149 25.9255 32.683 25.7086C38.351 25.4918 41.9884 27.1565 46.1783 30.9816C50.3683 34.8066 52.5987 40.9111 51.1213 46.3874C49.5552 52.1914 44.3326 56.3129 38.8596 58.7998C38.8596 58.7998 37.3174 64.1835 41.6601 67.1609C41.6587 67.1609 34.58 68.9153 30.8342 61.9064Z" fill="#FAFAFA"/>
<path d="M30.8338 61.9065C30.8338 61.9065 30.8741 61.9659 30.9517 62.0891L31.2964 62.642L31.5516 63.0542C31.6499 63.2033 31.7795 63.3486 31.9078 63.5165L32.3311 64.0536C32.4865 64.2413 32.6842 64.4132 32.8759 64.6109C33.8365 65.5669 34.9999 66.2945 36.28 66.7396C37.0839 67.0261 37.9223 67.2043 38.7733 67.2694C39.7334 67.3553 40.7009 67.3033 41.6462 67.1149L41.6305 67.2029C40.392 66.3602 39.4586 65.1403 38.969 63.7246C38.7044 62.9546 38.5599 62.1484 38.5406 61.3344C38.5088 60.4762 38.5954 59.6176 38.7981 58.7831L38.8048 58.7562L38.8324 58.7438C40.4439 58.0103 41.9903 57.1415 43.455 56.1468C45.0459 55.0765 46.4922 53.8055 47.7581 52.3654C47.9283 52.1848 48.078 51.9857 48.2331 51.7896C48.3882 51.5936 48.5497 51.4012 48.693 51.1941C48.977 50.7781 49.2778 50.3679 49.5256 49.9184C49.7896 49.4756 50.0311 49.0197 50.249 48.5524C50.3618 48.3174 50.4481 48.0717 50.5495 47.8307L50.6965 47.4661C50.7419 47.3429 50.7768 47.216 50.8177 47.0908C51.1586 46.0767 51.3699 45.0237 51.4468 43.9566C51.5351 42.8611 51.4907 41.7589 51.3146 40.6741C50.9562 38.4166 50.1307 36.2588 48.8908 34.3386C48.2494 33.3519 47.5102 32.4325 46.6842 31.5943C45.8306 30.7487 44.9205 29.9621 43.9603 29.2399C42.0223 27.7077 39.7573 26.6426 37.3412 26.1273C34.8394 25.68 32.2798 25.6608 29.7717 26.0705C27.2396 26.4489 24.7484 27.0633 22.3308 27.9055C19.977 28.7067 17.6926 29.6985 15.5001 30.8711C13.3516 32.0374 11.2545 33.2301 9.4269 34.7066C7.60891 36.118 6.14002 37.9287 5.1339 39.9986C4.6561 40.9965 4.26719 42.0344 3.97168 43.1006C3.69355 44.1413 3.50055 45.2029 3.39461 46.275C3.29063 47.316 3.27805 48.3642 3.35701 49.4075C3.3842 49.9221 3.46141 50.4273 3.52654 50.9299C3.62255 51.4271 3.70278 51.9236 3.83639 52.404C4.88245 56.2263 6.93731 59.5928 9.75488 61.5103C11.095 62.4115 12.5546 63.1209 14.0912 63.6179C14.4531 63.7424 14.8109 63.8603 15.1678 63.9647C15.5156 64.0751 15.8699 64.1641 16.2286 64.2312C16.5738 64.3068 16.9243 64.3554 17.277 64.3766C17.6175 64.4135 17.9599 64.4291 18.3023 64.4232C19.5562 64.4254 20.808 64.3236 22.0451 64.1188C23.1891 63.9509 24.2231 63.7256 25.151 63.5192C27.0031 63.0861 28.4201 62.6648 29.3772 62.3711L30.8325 61.9065C30.8325 61.9065 30.712 61.9565 30.4686 62.0407C30.2252 62.125 29.8643 62.2502 29.3876 62.4033C28.4335 62.7081 27.0185 63.1418 25.1665 63.584C24.2386 63.7961 23.2039 64.0258 22.0578 64.1997C20.8168 64.4106 19.5604 64.5176 18.3016 64.5196C17.9566 64.5268 17.6115 64.5122 17.2683 64.4759C16.9117 64.4557 16.5573 64.4078 16.2082 64.3326C15.8459 64.2658 15.488 64.1769 15.1366 64.0664C14.7787 63.963 14.4188 63.8458 14.0553 63.7216C12.5068 63.2254 11.0354 62.5147 9.68405 61.6104C8.96686 61.1082 8.30075 60.5368 7.69533 59.9043C7.07323 59.2343 6.51154 58.5106 6.0168 57.7417C5.51236 56.9358 5.06565 56.0952 4.68002 55.2262C4.46953 54.7898 4.30269 54.3292 4.12342 53.8693C3.97437 53.3993 3.80719 52.9294 3.6964 52.4382C3.56212 51.9538 3.4792 51.4533 3.38185 50.9517C3.31471 50.4455 3.23682 49.9359 3.20862 49.4172C3.12764 48.3655 3.13887 47.3087 3.2422 46.2589C3.34725 45.178 3.54013 44.1075 3.81894 43.0579C4.11561 41.982 4.50689 40.9344 4.9882 39.9275C6.00285 37.8349 7.48542 36.0038 9.32115 34.576C11.1628 33.0865 13.268 31.8887 15.4182 30.7197C17.6184 29.5415 19.9112 28.545 22.2737 27.7403C24.7017 26.8941 27.2035 26.2768 29.7465 25.8967C32.2745 25.4842 34.8542 25.5043 37.3754 25.9561C39.8167 26.4774 42.1051 27.5541 44.063 29.1026C45.0292 29.8301 45.9449 30.6224 46.8037 31.4741C47.6376 32.3212 48.3838 33.2505 49.0308 34.2477C50.2817 36.1881 51.1136 38.3684 51.4734 40.6489C51.6504 41.7461 51.6941 42.8607 51.6036 43.9684C51.5245 45.0478 51.3093 46.113 50.9631 47.1384C50.9218 47.265 50.8862 47.3932 50.8402 47.5178L50.6912 47.8871C50.5884 48.1308 50.5005 48.3799 50.3863 48.6162C50.1657 49.0879 49.9212 49.5481 49.6538 49.9949C49.4031 50.4475 49.0992 50.8611 48.8119 51.2804C48.6669 51.4892 48.5007 51.6809 48.3473 51.8803C48.1938 52.0797 48.0387 52.2781 47.8675 52.46C46.5913 53.9072 45.1337 55.1836 43.5309 56.2579C42.058 57.2541 40.5031 58.1233 38.8831 58.8562L38.9166 58.8166C38.7157 59.6382 38.6285 60.4834 38.6575 61.3287C38.6744 62.1314 38.8148 62.9267 39.0737 63.6867C39.552 65.0823 40.4677 66.2863 41.6849 67.12L41.7795 67.1851L41.6691 67.2079C40.7131 67.3959 39.735 67.4452 38.7649 67.3543C37.9072 67.2853 37.0626 67.1019 36.2535 66.8091C34.9669 66.3548 33.7997 65.6154 32.8393 64.6461C32.648 64.4447 32.4509 64.2715 32.2965 64.0818L31.8762 63.5403C31.7496 63.3725 31.6204 63.2224 31.5251 63.0734C31.4297 62.9243 31.3522 62.7843 31.2786 62.6615L30.9456 62.1008C30.8708 61.9743 30.8338 61.9065 30.8338 61.9065Z" fill="#212121"/>
<path d="M36.6029 34.1228C36.6241 34.1661 31.1024 36.9162 24.2711 40.2662C17.4398 43.6163 11.8829 46.2932 11.8614 46.2495C11.8399 46.2059 17.3609 43.4568 24.1942 40.1061C31.0275 36.7554 36.5814 34.0795 36.6029 34.1228Z" fill="#212121"/>
<path d="M38.9053 38.951C38.9264 38.9943 33.4048 41.7444 26.5738 45.0944C19.7429 48.4444 14.1863 51.123 14.1641 51.0797C14.142 51.0364 19.6633 48.2869 26.4966 44.9363C33.3299 41.5856 38.8841 38.9077 38.9053 38.951Z" fill="#212121"/>
<path d="M41.0014 43.6115C40.9293 43.6624 40.8528 43.7068 40.7728 43.7441L40.1014 44.0935L37.6262 45.3601C35.5364 46.4297 32.6601 47.9273 29.4847 49.5857C26.3092 51.244 23.4212 52.7252 21.3166 53.7669C20.2642 54.2879 19.4102 54.7042 18.8163 54.9841L18.1311 55.3041C18.0528 55.3448 17.971 55.3785 17.8867 55.4048C17.9588 55.3533 18.0353 55.3083 18.1153 55.2705L18.7867 54.9214L21.2616 53.6544C23.3513 52.5849 26.228 51.0873 29.4044 49.4286C32.5809 47.7698 35.4666 46.2894 37.5712 45.2477C38.6236 44.7267 39.4776 44.3104 40.0718 44.0304L40.757 43.7105C40.8354 43.6704 40.9172 43.6373 41.0014 43.6115Z" fill="#212121"/>
<path d="M39.6488 80.9807L41.1152 112.532L43.6948 115.307L46.9783 119.294C46.9783 119.294 43.6948 132.546 38.8878 133.719C34.0808 134.891 28.8717 133.114 27.3469 128.894C25.8221 124.673 26.6003 117.286 27.0693 112.552C27.5382 107.819 29.7636 81.9599 29.7636 81.9599L35.3699 79.6556L39.6488 80.9807Z" fill="#F4A386"/>
<path d="M39.6071 81.3264C39.6071 81.3264 39.9878 78.5645 39.6071 76.7551C39.2265 74.9456 36.7496 71.1357 36.7496 71.1357C36.7496 71.1357 37.1307 67.5168 36.7496 66.9451C36.3686 66.3734 35.5115 64.2786 33.8924 66.3744C33.8924 66.3744 32.751 63.8982 31.9876 63.7075C31.6176 63.5818 31.2163 63.5818 30.8462 63.7075L32.8464 61.041C32.9131 60.6809 32.9152 60.3118 32.8524 59.951C32.8012 59.6937 32.6621 59.4622 32.4589 59.2962C32.2558 59.1301 32.0012 59.0399 31.7389 59.0409C31.5752 59.0409 31.4134 59.0763 31.2647 59.1447C31.1159 59.2131 30.9837 59.3128 30.8771 59.437L25.9876 65.1356C25.9876 65.1356 22.9397 70.6597 23.0334 71.3264C23.127 71.9931 24.8432 74.1836 24.8432 74.1836C24.8432 74.1836 29.2241 80.1836 29.6051 81.3264C29.834 82.1308 29.8987 82.973 29.7955 83.8029L39.6071 81.3264Z" fill="#F4A386"/>
<path d="M27.3945 70.0809C27.4179 69.7144 27.4741 69.3507 27.5624 68.9942C27.7258 68.1198 27.9899 67.2673 28.3493 66.4536C28.7155 65.6327 29.2671 64.908 29.9607 64.3363C30.1722 64.1667 30.4013 64.0204 30.6442 63.8999C30.7299 63.8488 30.824 63.8133 30.9221 63.7948C30.9376 63.824 30.5471 63.9922 30.0396 64.4326C29.3883 65.0164 28.8669 65.7304 28.5091 66.5285C28.1569 67.3323 27.8808 68.1674 27.6842 69.0227C27.6131 69.3819 27.5162 69.7355 27.3945 70.0809Z" fill="#F07F57"/>
<path d="M31.7051 70.2656C31.706 70.0497 31.7437 69.8356 31.8165 69.6324C32.0984 68.6315 32.5942 67.7037 33.2698 66.9132C33.398 66.7396 33.555 66.5893 33.7341 66.4688C33.775 66.505 33.1077 67.2217 32.5494 68.2769C31.9827 69.3263 31.7581 70.2797 31.7051 70.2656Z" fill="#F07F57"/>
<path d="M36.6051 70.9742C36.591 70.9798 36.5755 70.9812 36.5605 70.9783C36.5456 70.9753 36.5318 70.968 36.5209 70.9574C36.51 70.9467 36.5024 70.9332 36.499 70.9183C36.4957 70.9034 36.4967 70.8879 36.5019 70.8736C36.5072 70.8593 36.5165 70.8468 36.5287 70.8377C36.541 70.8286 36.5555 70.8232 36.5708 70.8222C36.586 70.8212 36.6011 70.8246 36.6144 70.832C36.6278 70.8395 36.6386 70.8506 36.6457 70.8641C36.6549 70.8841 36.6557 70.9069 36.6481 70.9275C36.6405 70.9482 36.6251 70.9649 36.6051 70.9742Z" fill="#F07F57"/>
<path d="M36.5525 72.5131C36.5169 72.0847 36.5395 71.6534 36.6196 71.231C36.6586 70.9091 36.7026 70.616 36.7428 70.3968L36.8607 70.4438C36.6871 70.6509 36.5683 70.7721 36.5475 70.7563C36.5266 70.7406 36.6076 70.5918 36.7553 70.3659L36.8896 70.1625L36.8744 70.4126C36.861 70.6351 36.8335 70.9302 36.7945 71.2518C36.7711 71.6812 36.6896 72.1055 36.5525 72.5131Z" fill="#F07F57"/>
<path d="M40.0877 91.3442C40.0965 91.3699 40.1016 91.3967 40.1028 91.4238L40.1296 91.6588C40.1504 91.8804 40.1786 92.1825 40.2142 92.5652C40.2746 93.3518 40.3505 94.4908 40.4277 95.8991C40.5832 98.7157 40.7527 102.609 40.9132 106.91C41.0736 111.212 41.1972 115.107 41.275 117.926C41.3086 119.325 41.3372 120.461 41.3566 121.265C41.362 121.648 41.3662 121.95 41.3694 122.172C41.3694 122.267 41.3694 122.344 41.3694 122.407C41.3713 122.434 41.3692 122.461 41.363 122.487C41.3554 122.461 41.3515 122.434 41.3516 122.407C41.3472 122.344 41.3419 122.266 41.3355 122.172C41.3243 121.95 41.3092 121.648 41.2902 121.266C41.2566 120.463 41.2103 119.326 41.1529 117.929C41.0468 115.097 40.9011 111.21 40.7399 106.916C40.5721 102.623 40.4173 98.7365 40.3055 95.9045C40.2384 94.5076 40.1857 93.3719 40.1477 92.5686L40.0957 91.6621C40.092 91.5671 40.089 91.4896 40.0863 91.4272C40.0828 91.3996 40.0833 91.3717 40.0877 91.3442Z" fill="#F07F57"/>
<path d="M132.795 89.6757C132.795 89.6757 125.275 118.555 124.018 121.897C121.53 128.506 119.831 131.65 117.016 133.299C113.937 135.102 108.434 134.075 107.134 131.133C105.944 128.439 102.791 117.223 102.791 117.223L112.447 113.741L123.964 89.6072L132.795 89.6757Z" fill="#F4A386"/>
<path d="M149.985 76.1118C150.457 76.4536 140.311 85.334 140.311 85.334L132.795 89.6757L130.317 98.8999L122.462 94.0503C122.462 94.0503 125.305 84.8519 126.625 84.2181C128.929 83.113 129.373 79.4091 130.197 79.5464C131.021 79.6837 131.381 79.6686 131.106 81.0427C130.831 82.4167 130.721 83.0233 130.721 83.0233L139.402 80.5072C139.402 80.5072 144.211 75.8359 145.722 76.1095C146.595 76.2679 146.696 76.3841 146.696 76.3841C146.696 76.3841 148.161 74.7915 149.985 76.1118Z" fill="#F4A386"/>
<path d="M139.405 80.5082C139.275 80.5749 139.138 80.6277 138.997 80.666L137.865 81.0352L134.115 82.2069L130.363 83.3694L129.227 83.7239C129.091 83.7766 128.949 83.8151 128.805 83.8387C128.931 83.7653 129.065 83.7053 129.205 83.6598C129.467 83.5571 129.849 83.4161 130.325 83.2523C131.275 82.9223 132.597 82.4936 134.064 82.0397C135.53 81.5858 136.862 81.1927 137.829 80.9171C138.313 80.7794 138.705 80.6713 138.977 80.6005C139.116 80.5549 139.26 80.524 139.405 80.5082Z" fill="#F07F57"/>
<path d="M140.884 82.9421C140.945 82.8401 141.019 82.7465 141.104 82.6634C141.254 82.4922 141.476 82.2482 141.752 81.9491C142.305 81.3508 143.077 80.5331 143.938 79.6374L146.15 77.3573C146.372 77.1345 146.524 76.8517 146.587 76.5439C146.594 76.429 146.588 76.3137 146.57 76.2001C146.576 76.1977 146.591 76.2256 146.616 76.2823C146.646 76.3679 146.659 76.4586 146.655 76.5492C146.615 76.8809 146.472 77.1915 146.245 77.4365C145.702 78.0545 144.923 78.8579 144.063 79.7586C143.203 80.6593 142.416 81.4586 141.841 82.0347C141.553 82.3227 141.318 82.5537 141.152 82.7108C141.073 82.799 140.983 82.8768 140.884 82.9421Z" fill="#F07F57"/>
<path d="M114.375 109.701C114.419 109.72 113.158 112.689 111.558 116.332C109.958 119.975 108.625 122.912 108.58 122.894C108.536 122.876 109.797 119.906 111.398 116.262C112.998 112.618 114.331 109.681 114.375 109.701Z" fill="#F07F57"/>
<path d="M147.784 147.02C147.784 147.068 114.699 147.108 73.8949 147.108C33.0778 147.108 0 147.068 0 147.02C0 146.972 33.0778 146.933 73.8949 146.933C114.699 146.933 147.784 146.972 147.784 147.02Z" fill="#212121"/>
<path d="M137.928 25.6709L136.211 34.2899L139.418 34.9289L141.135 26.3099L137.928 25.6709Z" fill="#212121"/>
<path d="M138.794 25.8434L137.077 34.4624L140.284 35.1014L142.001 26.4823L138.794 25.8434Z" fill="#FFA600"/>
<path d="M138.456 32.5677C138.484 32.4244 138.554 32.2927 138.658 32.1893C138.761 32.0859 138.892 32.0155 139.036 31.987C139.179 31.9585 139.328 31.9731 139.463 32.029C139.598 32.085 139.713 32.1797 139.794 32.3012C139.875 32.4227 139.919 32.5656 139.919 32.7118C139.918 32.8579 139.875 33.0007 139.794 33.1222C139.712 33.2436 139.597 33.3382 139.462 33.394C139.327 33.4497 139.178 33.4642 139.035 33.4355C138.843 33.3971 138.674 33.2841 138.566 33.1214C138.457 32.9587 138.417 32.7596 138.456 32.5677Z" fill="white"/>
<path d="M136.475 32.9945C136.793 32.5869 137.167 32.2263 137.586 31.9236C137.268 32.3312 136.894 32.6917 136.475 32.9945Z" fill="#FFA600"/>
<path d="M136.664 32.0408C136.982 31.6331 137.356 31.2726 137.775 30.9698C137.457 31.3775 137.083 31.738 136.664 32.0408Z" fill="#FFA600"/>
<path d="M136.854 31.0873C137.173 30.6796 137.547 30.3191 137.966 30.0164C137.648 30.424 137.274 30.7845 136.854 31.0873Z" fill="#FFA600"/>
<path d="M137.045 30.1339C137.363 29.7263 137.737 29.3657 138.156 29.063C137.838 29.4706 137.464 29.8311 137.045 30.1339Z" fill="#FFA600"/>
<path d="M137.234 29.1805C137.553 28.7729 137.927 28.4123 138.346 28.1093C138.027 28.5169 137.653 28.8775 137.234 29.1805Z" fill="#FFA600"/>
<path d="M137.425 28.2268C137.743 27.8192 138.117 27.4586 138.536 27.1559C138.218 27.5633 137.844 27.9238 137.425 28.2268Z" fill="#FFA600"/>
<path d="M137.614 27.2737C137.932 26.8662 138.306 26.5056 138.725 26.2028C138.407 26.6103 138.033 26.9708 137.614 27.2737Z" fill="#FFA600"/>
<path d="M136.315 33.837C136.633 33.4294 137.008 33.0689 137.427 32.7661C137.109 33.1737 136.734 33.5343 136.315 33.837Z" fill="#FFA600"/>
<path d="M136.552 34.3571C136.531 34.3356 136.661 34.1761 136.843 34.0009C137.025 33.8256 137.189 33.7018 137.21 33.7232C137.23 33.7447 137.101 33.9045 136.919 34.0794C136.737 34.2543 136.573 34.3796 136.552 34.3571Z" fill="#FFA600"/>
<path d="M136.174 26.0245L134.482 33.6057C134.482 33.6057 132.721 33.5973 130.75 35.6011C129.447 36.9275 129.494 38.6171 129.168 39.2486C128.969 39.6343 128.02 39.3597 127.607 39.2264C127.329 39.1465 127.077 38.997 126.873 38.792C126.67 38.5871 126.523 38.3335 126.445 38.0555C126.163 36.7775 127.445 34.1093 127.445 34.1093C127.445 34.1093 127.875 33.5993 127.073 33.4395L124.213 32.8688C123.841 32.7988 123.506 32.5979 123.269 32.3025C123.145 32.1522 123.06 31.9737 123.022 31.7827C122.985 31.5918 122.995 31.3945 123.052 31.2084C123.354 30.1372 124.025 29.7649 124.07 29.5356C124.114 29.3063 123.88 28.8427 124.24 28.2301C124.601 27.6174 124.733 27.7027 124.795 27.3878C124.904 26.843 125.099 26.3191 125.372 25.8355C125.523 25.5928 125.717 25.3794 125.943 25.2053C125.943 25.2053 126.032 24.1328 126.469 23.6131C127.042 22.9316 129.031 22.7997 129.739 23.311C130.07 23.5507 131.691 24.2952 132.453 24.6538C133.216 25.0123 135.326 26.2427 136.174 26.0245Z" fill="#212121"/>
<path d="M137.215 26.1419L135.68 33.8443C135.68 33.8443 133.919 33.8359 131.948 35.8398C131.023 36.752 130.24 37.7968 129.622 38.9397C129.527 39.128 129.369 39.2766 129.175 39.3592C128.981 39.4418 128.764 39.453 128.563 39.3909C128.313 39.3258 128.086 39.1906 127.91 39.0012C127.734 38.8118 127.615 38.576 127.569 38.3216C127.287 37.0436 128.643 34.3479 128.643 34.3479C128.643 34.3479 129.072 33.838 128.27 33.6782L125.41 33.1075C125.038 33.0375 124.703 32.8366 124.466 32.5411C124.342 32.3909 124.258 32.2123 124.22 32.0214C124.182 31.8305 124.192 31.6332 124.249 31.4471C124.551 30.3758 125.222 30.0035 125.267 29.7742C125.311 29.545 125.077 29.0813 125.438 28.4683C125.798 27.8553 125.93 27.9413 125.993 27.6264C126.101 27.0817 126.296 26.5577 126.57 26.0741C126.72 25.8315 126.914 25.618 127.14 25.444C127.202 24.8823 127.381 24.3399 127.666 23.8517C128.072 23.3075 129.337 23.232 129.738 23.3119C130.139 23.3918 132.889 24.5349 133.651 24.8951C134.413 25.2553 136.369 26.3601 137.215 26.1419Z" fill="#FFA600"/>
<path d="M126.873 35.5941C127.371 35.1283 127.941 34.7473 128.562 34.4664C128.019 34.8704 127.455 35.2468 126.873 35.5941Z" fill="#FFA600"/>
<path d="M126.514 36.5931C126.727 36.3659 126.981 36.1796 127.262 36.0435C127.524 35.8789 127.803 35.7427 128.095 35.6373C127.857 35.8368 127.596 36.0052 127.316 36.1382C127.056 36.3035 126.789 36.4554 126.514 36.5931Z" fill="#FFA600"/>
<path d="M126.407 37.5378C126.573 37.3418 126.785 37.1903 127.024 37.0967C127.246 36.9784 127.478 36.8803 127.718 36.8036C127.53 36.9752 127.311 37.1082 127.072 37.195C126.7 37.3679 126.428 37.5643 126.407 37.5378Z" fill="#FFA600"/>
<path d="M126.566 38.375C126.849 38.1332 127.176 37.9497 127.53 37.8352C127.247 38.0768 126.92 38.2603 126.566 38.375Z" fill="#FFA600"/>
<path d="M127.057 38.9478C127.047 38.9192 127.173 38.8417 127.338 38.7745C127.503 38.7074 127.647 38.6738 127.66 38.7023C127.673 38.7309 127.547 38.8071 127.379 38.8756C127.212 38.9441 127.067 38.976 127.057 38.9478Z" fill="#FFA600"/>
<path d="M127.366 34.2807C127.667 34.028 128.013 33.8337 128.386 33.708C128.084 33.9604 127.739 34.1546 127.366 34.2807Z" fill="#FFA600"/>
<path d="M123.247 30.6679C123.88 30.3179 124.547 30.0328 125.238 29.8169C124.605 30.1667 123.938 30.4518 123.247 30.6679Z" fill="#FFA600"/>
<path d="M123.032 31.9826C123.396 31.747 123.797 31.5745 124.219 31.4727C123.855 31.7083 123.454 31.8807 123.032 31.9826Z" fill="#FFA600"/>
<path d="M124.057 28.885C124.288 28.7529 124.532 28.6423 124.783 28.5547C125.021 28.4338 125.27 28.3353 125.526 28.2606C125.089 28.5758 124.587 28.7891 124.057 28.885Z" fill="#FFA600"/>
<path d="M124.77 27.4848C125.212 27.1921 125.693 26.9618 126.198 26.8003C125.756 27.093 125.275 27.3233 124.77 27.4848Z" fill="#FFA600"/>
<path d="M125.453 25.7965C125.956 25.4325 126.527 25.1735 127.132 25.0352C126.865 25.1882 126.586 25.3204 126.299 25.4306C126.027 25.574 125.744 25.6963 125.453 25.7965Z" fill="#FFA600"/>
<path d="M126.115 24.3923C126.712 23.9855 127.374 23.685 128.073 23.504C127.758 23.6766 127.433 23.8299 127.1 23.9629C126.78 24.1257 126.452 24.2691 126.115 24.3923Z" fill="#FFA600"/>
<path d="M129.9 73.2729L128.342 59.2805L123.135 59.8604L124.694 73.8528L129.9 73.2729Z" fill="#212121"/>
<path d="M128.494 73.4296L126.936 59.4373L121.729 60.0172L123.288 74.0095L128.494 73.4296Z" fill="#1E88E5"/>
<path d="M125.75 62.9987C125.777 63.2313 125.733 63.4665 125.626 63.6744C125.518 63.8823 125.351 64.0536 125.146 64.1667C124.941 64.2798 124.707 64.3295 124.474 64.3096C124.241 64.2897 124.019 64.201 123.836 64.0548C123.653 63.9086 123.518 63.7115 123.447 63.4883C123.376 63.2651 123.373 63.026 123.438 62.8012C123.504 62.5763 123.634 62.3759 123.813 62.2252C123.992 62.0746 124.212 61.9804 124.445 61.9547C124.756 61.9204 125.069 62.011 125.314 62.2067C125.558 62.4024 125.715 62.6872 125.75 62.9987Z" fill="white"/>
<path d="M128.568 61.3862C128.28 62.1628 127.883 62.8947 127.39 63.5602C127.678 62.7836 128.075 62.0517 128.568 61.3862Z" fill="#1E88E5"/>
<path d="M128.741 62.9344C128.453 63.711 128.057 64.4429 127.564 65.1084C127.852 64.3318 128.248 63.5999 128.741 62.9344Z" fill="#1E88E5"/>
<path d="M128.913 64.4824C128.625 65.259 128.229 65.9909 127.736 66.6564C128.024 65.8798 128.42 65.1479 128.913 64.4824Z" fill="#1E88E5"/>
<path d="M129.085 66.0302C128.797 66.8068 128.401 67.5387 127.908 68.2042C128.196 67.4277 128.592 66.6957 129.085 66.0302Z" fill="#1E88E5"/>
<path d="M129.258 67.5779C128.97 68.3546 128.574 69.0866 128.081 69.7524C128.369 68.9758 128.765 68.2438 129.258 67.5779Z" fill="#1E88E5"/>
<path d="M129.43 69.1264C129.142 69.903 128.746 70.6349 128.253 71.3004C128.541 70.5241 128.937 69.7922 129.43 69.1264Z" fill="#1E88E5"/>
<path d="M129.603 70.6736C129.315 71.45 128.919 72.1818 128.426 72.8474C128.714 72.071 129.11 71.3391 129.603 70.6736Z" fill="#1E88E5"/>
<path d="M128.401 60.0229C128.114 60.7995 127.717 61.5314 127.224 62.1969C127.512 61.4203 127.909 60.6884 128.401 60.0229Z" fill="#1E88E5"/>
<path d="M127.79 59.3433C127.832 59.366 127.71 59.6726 127.518 60.0282C127.326 60.3839 127.135 60.6526 127.093 60.6299C127.051 60.6072 127.172 60.3002 127.364 59.9451C127.557 59.59 127.746 59.3192 127.79 59.3433Z" fill="#1E88E5"/>
<path d="M132.409 71.8817L131.314 59.4865C131.314 59.4865 134.007 58.645 136.044 54.6298C137.392 51.9723 136.5 49.4154 136.691 48.2933C136.808 47.6079 138.39 47.5668 139.086 47.5699C139.548 47.5573 140.006 47.6632 140.416 47.8775C140.826 48.0919 141.174 48.4074 141.427 48.7943C142.477 50.609 141.814 55.3046 141.814 55.3046C141.814 55.3046 141.406 56.2914 142.708 56.1464L147.35 55.6308C147.953 55.5571 148.562 55.7013 149.067 56.0373C149.329 56.2067 149.545 56.4383 149.695 56.7115C149.846 56.9846 149.926 57.2907 149.929 57.6025C149.987 59.3846 149.143 60.2787 149.186 60.6502C149.23 61.0218 149.812 61.6163 149.559 62.7264C149.306 63.8365 149.063 63.7703 149.12 64.2816C149.218 65.1661 149.175 66.0605 148.992 66.9315C148.879 67.3751 148.688 67.7947 148.426 68.1704C148.426 68.1704 148.811 69.8509 148.396 70.8564C147.851 72.1748 144.878 73.3411 143.549 72.9037C142.927 72.6985 140.091 72.3479 138.754 72.1701C137.416 71.9923 133.597 71.1376 132.409 71.8817Z" fill="#212121"/>
<path d="M130.762 72.2074L129.369 59.7029C129.369 59.7029 132.063 58.8614 134.099 54.8464C135.069 53.0051 135.759 51.0297 136.147 48.9853C136.2 48.6519 136.37 48.3481 136.626 48.128C136.882 47.9078 137.208 47.7855 137.545 47.7827C137.959 47.7607 138.371 47.8572 138.731 48.0609C139.092 48.2647 139.387 48.5672 139.582 48.9329C140.632 50.7476 139.869 55.521 139.869 55.521C139.869 55.521 139.461 56.5077 140.763 56.3627L145.406 55.8471C146.009 55.7733 146.617 55.9176 147.123 56.2537C147.385 56.4231 147.6 56.6547 147.751 56.9278C147.901 57.2009 147.982 57.507 147.985 57.8188C148.043 59.6009 147.199 60.495 147.242 60.8665C147.286 61.2381 147.867 61.8326 147.615 62.9432C147.362 64.0539 147.119 63.9866 147.176 64.4979C147.274 65.3824 147.231 66.2769 147.048 67.1478C146.935 67.5914 146.743 68.011 146.482 68.3867C146.66 69.2743 146.649 70.1893 146.452 71.0727C146.095 72.1005 144.2 72.8295 143.549 72.902C142.899 72.9744 138.146 72.5627 136.808 72.3823C135.47 72.2019 131.947 71.4641 130.762 72.2074Z" fill="#1E88E5"/>
<path d="M141.968 52.7595C141.434 53.7121 140.747 54.5705 139.935 55.3005C140.57 54.42 141.248 53.5719 141.968 52.7595Z" fill="#1E88E5"/>
<path d="M142.032 51.0604C141.815 51.511 141.519 51.9183 141.156 52.2622C140.835 52.6408 140.475 52.9842 140.082 53.2864C140.347 52.8667 140.665 52.4828 141.028 52.1439C141.343 51.7657 141.679 51.4041 142.032 51.0604Z" fill="#1E88E5"/>
<path d="M141.737 49.5661C141.578 49.9457 141.328 50.28 141.009 50.5388C140.727 50.827 140.42 51.0893 140.092 51.3227C140.295 50.9697 140.566 50.6601 140.889 50.4116C141.372 49.9674 141.693 49.5355 141.737 49.5661Z" fill="#1E88E5"/>
<path d="M141.087 48.3653C140.773 48.8714 140.362 49.3104 139.878 49.6568C140.192 49.1508 140.603 48.7119 141.087 48.3653Z" fill="#1E88E5"/>
<path d="M140.061 47.7287C140.09 47.7673 139.936 47.9466 139.716 48.1293C139.497 48.3119 139.293 48.433 139.26 48.3956C139.226 48.3582 139.382 48.1808 139.604 47.995C139.827 47.8092 140.032 47.6905 140.061 47.7287Z" fill="#1E88E5"/>
<path d="M141.851 55.0044C141.514 55.5364 141.08 56.0006 140.572 56.3733C140.91 55.8417 141.344 55.3775 141.851 55.0044Z" fill="#1E88E5"/>
<path d="M149.892 58.5225C149.095 59.364 148.214 60.1228 147.265 60.7875C148.062 59.9462 148.942 59.1873 149.892 58.5225Z" fill="#1E88E5"/>
<path d="M149.584 56.4109C149.142 56.9471 148.614 57.4049 148.02 57.7649C148.461 57.2286 148.99 56.7708 149.584 56.4109Z" fill="#1E88E5"/>
<path d="M149.521 61.6374C149.232 61.9515 148.914 62.2383 148.572 62.4942C148.268 62.7941 147.936 63.065 147.581 63.3032C148.096 62.6101 148.758 62.0409 149.521 61.6374Z" fill="#1E88E5"/>
<path d="M149.112 64.121C148.579 64.7825 147.957 65.3673 147.263 65.859C147.797 65.1975 148.419 64.6127 149.112 64.121Z" fill="#1E88E5"/>
<path d="M148.887 67.0303C148.296 67.8299 147.55 68.5022 146.693 69.0069C147.026 68.6437 147.387 68.3068 147.772 67.9993C148.119 67.6483 148.491 67.3244 148.887 67.0303Z" fill="#1E88E5"/>
<path d="M148.557 69.4951C147.844 70.4055 146.978 71.1856 145.999 71.8009C146.396 71.3847 146.818 70.993 147.263 70.6281C147.671 70.2247 148.104 69.8464 148.557 69.4951Z" fill="#1E88E5"/>
</g>
<defs>
<clipPath id="clip0">
<rect width="150" height="150" fill="white"/>
</clipPath>
</defs>
</svg>
