<svg width="73" height="72" viewBox="0 0 73 72" fill="none" xmlns="http://www.w3.org/2000/svg">
<rect x="0.666748" width="72" height="72" rx="36" fill="url(#paint0_linear_4808_152539)"/>
<g clip-path="url(#clip0_4808_152539)">
<path d="M40.3665 27.5623C39.1724 26.7469 36.9119 25.8676 37.044 24.0863V22.2943L29.3076 20.6895L21.1946 22.2943V24.0863C21.301 26.9323 16.587 26.8473 16.6934 29.6933V32.6875L18.6672 42.9916L16.6934 50.8005V53.4839C16.6934 54.8733 17.8198 55.9996 19.2091 55.9996H39.0296C40.4189 55.9996 41.5453 54.8733 41.5453 53.4839L40.2022 40.1147L41.5453 32.6875V29.6933C41.5452 28.8274 41.1 28.0224 40.3665 27.5623Z" fill="url(#paint1_linear_4808_152539)"/>
<path d="M22.8039 24.8909V24.7766C22.8039 24.2876 23.2003 23.8913 23.6892 23.8913H37.0444V22.2945L29.3077 20.6897L21.1943 22.2945V23.8913V24.086C21.2926 25.678 19.6065 26.4857 18.4683 27.188C18.4683 27.188 18.4684 27.1879 18.4684 27.1878C17.5042 27.6826 16.6577 28.5397 16.6937 29.6932V32.6875L18.3034 39.3642V30.498C18.1967 27.6516 22.9106 27.7373 22.8039 24.8909V24.8909Z" fill="url(#paint2_linear_4808_152539)"/>
<path d="M40.6396 54.39H20.8185C19.4294 54.39 18.3035 53.264 18.3035 51.8741V43.1033L16.6938 50.8006V53.4838C16.6661 54.8333 17.8591 56.0272 19.2089 55.9997H39.03C40.1463 55.9997 41.0927 55.2729 41.4211 54.2661C41.1756 54.3465 40.9125 54.39 40.6396 54.39V54.39Z" fill="url(#paint3_linear_4808_152539)"/>
<path d="M18.3035 39.3643V43.1033L18.7221 41.1011L18.3035 39.3643Z" fill="url(#paint4_linear_4808_152539)"/>
<path d="M41.5451 50.8005H16.6675L17.4985 41.9475L16.6675 32.6875H41.5451V50.8005Z" fill="url(#paint5_linear_4808_152539)"/>
<path d="M16.6936 32.687H18.3032V50.8003H16.6936V32.687Z" fill="url(#paint6_linear_4808_152539)"/>
<path d="M33.8566 40.1595H31.0528C30.9639 40.1595 30.8919 40.0875 30.8919 39.9985V37.1948C30.8919 36.3634 30.2455 35.6536 29.4146 35.6259C28.5458 35.5968 27.8324 36.2925 27.8324 37.1547V39.9985C27.8324 40.0875 27.7604 40.1595 27.6715 40.1595H24.7585C23.9271 40.1595 23.2174 40.8059 23.1896 41.6368C23.1605 42.5056 23.8562 43.2189 24.7184 43.2189H27.8324V46.2929C27.8324 47.1243 28.4788 47.834 29.3098 47.8618C30.1785 47.8908 30.8919 47.1952 30.8919 46.333V43.3799C30.8919 43.291 30.9639 43.2189 31.0528 43.2189H33.8967C34.7589 43.2189 35.4546 42.5056 35.4255 41.6368C35.3977 40.8059 34.688 40.1595 33.8566 40.1595Z" fill="url(#paint7_linear_4808_152539)"/>
<path d="M29.6843 47.8281C29.5588 47.8555 29.4276 47.8667 29.2932 47.8611C28.4674 47.8249 27.8324 47.111 27.8324 46.2853V43.3799C27.8324 43.2909 27.7604 43.2189 27.6715 43.2189H24.7186C23.851 43.2189 23.1516 42.4962 23.1902 41.6197C23.1943 41.5376 23.2039 41.458 23.2208 41.3799C23.5017 41.7171 23.9242 41.9312 24.3967 41.9312H28.9592C29.0481 41.9312 29.1201 42.0032 29.1201 42.0921V46.6072C29.1201 47.0909 29.3375 47.536 29.6843 47.8281V47.8281Z" fill="url(#paint8_linear_4808_152539)"/>
<path d="M29.137 35.6416C29.1259 35.7152 29.12 35.7902 29.1201 35.867V39.9989C29.1201 40.0874 29.0476 40.1598 28.9591 40.1598H27.6714C27.7607 40.1598 27.8324 40.0874 27.8324 39.9989V37.1547C27.8286 36.6536 28.0901 36.1645 28.5068 35.8871C28.5068 35.8871 28.5068 35.8863 28.5076 35.8863C28.6955 35.7587 28.9119 35.6753 29.137 35.6416V35.6416Z" fill="url(#paint9_linear_4808_152539)"/>
<path d="M41.5449 53.4836C41.5449 54.8188 40.5058 55.9101 39.1932 55.9938C37.7147 54.7455 36.7723 52.8808 36.7634 50.8003H41.2753L41.5449 53.4836Z" fill="url(#paint10_linear_4808_152539)"/>
<path d="M41.5449 34.304V50.8003H36.7634V40.8254C36.7634 37.887 38.6266 35.376 41.2334 34.4102C41.3356 34.3724 41.4394 34.337 41.5449 34.304Z" fill="url(#paint11_linear_4808_152539)"/>
<path d="M48.8293 45.875V50.7715C48.8293 53.6592 46.4889 55.9996 43.6012 55.9996C42.5793 55.9996 41.6259 55.7065 40.8205 55.1998C39.3501 54.2747 39.1541 52.7342 39.1541 50.8684L38.373 45.8749L43.6012 44.8545L48.8293 45.875Z" fill="url(#paint12_linear_4808_152539)"/>
<path d="M48.8293 40.8255V45.875H38.373V40.8255C38.373 37.9378 40.7135 35.5974 43.6012 35.5974C45.045 35.5974 46.352 36.1825 47.2985 37.1282C48.2442 38.0746 48.8293 39.3817 48.8293 40.8255Z" fill="url(#paint13_linear_4808_152539)"/>
<path d="M44.406 55.9376C44.1436 55.9786 43.8748 55.9996 43.6012 55.9996C40.7135 55.9996 38.373 53.6591 38.373 50.7715V45.8749L39.1541 44.8545L39.9827 45.8749V50.7715C39.9827 53.3855 41.9006 55.5505 44.406 55.9376V55.9376Z" fill="url(#paint14_linear_4808_152539)"/>
<path d="M44.406 35.6594C41.9006 36.0465 39.9827 38.2115 39.9827 40.8255V45.875H38.373V40.8255C38.373 37.9378 40.7135 35.5974 43.6012 35.5974C43.8748 35.5974 44.1436 35.6183 44.406 35.6594V35.6594Z" fill="url(#paint15_linear_4808_152539)"/>
<path d="M48.8293 42.9614V45.8749H44.7095C45.6905 44.4761 47.1408 43.4282 48.8293 42.9614Z" fill="url(#paint16_linear_4808_152539)"/>
<path d="M48.8293 45.875V50.7715C48.8293 52.9156 47.5392 54.7586 45.6921 55.565C44.2555 54.2049 43.3582 52.2806 43.3582 50.151C43.3582 48.5615 43.8579 47.0863 44.7094 45.875H48.8293Z" fill="url(#paint17_linear_4808_152539)"/>
<path d="M50.8172 55.9995C47.5869 55.9995 45.3455 53.3808 45.3455 50.1505C45.3455 46.9202 47.5869 44.3015 50.8172 44.3015C54.0475 44.3015 56.6662 46.9202 56.6662 50.1505C56.6662 53.3808 54.0475 55.9995 50.8172 55.9995Z" fill="url(#paint18_linear_4808_152539)"/>
<path d="M53.8296 55.164C52.95 55.6944 51.919 55.9994 50.8172 55.9994C47.977 55.9994 45.6097 53.9752 45.079 51.2914C45.0061 50.9225 45.531 50.5407 45.531 50.1504C45.531 49.7598 45.0061 49.3786 45.0791 49.0095C45.572 46.517 47.6484 44.5934 50.2168 44.332C48.5186 45.3558 47.3822 47.2181 47.3822 49.3461C47.3822 52.5758 50.0011 55.1947 53.2316 55.1947C53.4336 55.1946 53.6332 55.1841 53.8296 55.164V55.164Z" fill="url(#paint19_linear_4808_152539)"/>
<path d="M56.6659 50.151C56.6659 50.5413 56.6281 50.9228 56.554 51.2914H45.0797C45.0054 50.9248 45.3455 50.5375 45.3455 50.1506C45.3455 49.7635 45.0055 49.3768 45.0797 49.0098H56.554C56.6273 49.3792 56.6659 49.7607 56.6659 50.151Z" fill="url(#paint20_linear_4808_152539)"/>
<path d="M47.7138 51.2914H45.0796C44.9303 50.5407 44.9307 49.7603 45.0796 49.0098H47.3918C47.3854 49.1216 47.3822 49.2335 47.3822 49.3462C47.3822 50.0279 47.4989 50.683 47.7138 51.2914Z" fill="url(#paint21_linear_4808_152539)"/>
<path d="M37.6511 22.2814H35.3372L34.7551 21.7579L34.13 22.2814H31.6053L31.0231 21.7579L30.398 22.2814H27.8733L27.3875 21.7579L26.6661 22.2814H24.1422L23.4833 21.7579L22.9349 22.2814H20.5873C20.1428 22.2814 19.7825 21.9211 19.7825 21.4766V16.8048C19.7825 16.3603 20.1428 16 20.5873 16H22.9349L23.5217 16.4563L24.1422 16H26.6661L27.2528 16.4563L27.8733 16H30.398L30.9848 16.4563L31.6053 16H34.13L34.7167 16.4563L35.3372 16H37.6511C38.0956 16 38.4559 16.3603 38.4559 16.8048V21.4766C38.4559 21.921 38.0956 22.2814 37.6511 22.2814Z" fill="url(#paint22_linear_4808_152539)"/>
<path d="M21.3921 16.8048V21.4768C21.3921 21.9211 21.7527 22.2816 22.1969 22.2816H20.5873C20.143 22.2816 19.7825 21.9211 19.7825 21.4768V16.8048C19.7825 16.3606 20.143 16 20.5873 16H22.1969C21.7527 16 21.3921 16.3606 21.3921 16.8048Z" fill="url(#paint23_linear_4808_152539)"/>
<path d="M22.9351 16H24.1423V22.2816H22.9351V16Z" fill="url(#paint24_linear_4808_152539)"/>
<path d="M26.666 16H27.8732V22.2816H26.666V16Z" fill="url(#paint25_linear_4808_152539)"/>
<path d="M30.3979 16H31.6052V22.2816H30.3979V16Z" fill="url(#paint26_linear_4808_152539)"/>
<path d="M34.1299 16H35.3371V22.2816H34.1299V16Z" fill="url(#paint27_linear_4808_152539)"/>
</g>
<defs>
<linearGradient id="paint0_linear_4808_152539" x1="36.6667" y1="0" x2="36.6667" y2="72" gradientUnits="userSpaceOnUse">
<stop stop-color="#E6F6EC" stop-opacity="0"/>
<stop offset="1" stop-color="#E6F6EC"/>
</linearGradient>
<linearGradient id="paint1_linear_4808_152539" x1="29.1185" y1="20.6895" x2="29.1185" y2="55.9996" gradientUnits="userSpaceOnUse">
<stop stop-color="#069550"/>
<stop offset="1" stop-color="#40BF82"/>
</linearGradient>
<linearGradient id="paint2_linear_4808_152539" x1="26.8685" y1="20.6897" x2="26.8685" y2="39.3642" gradientUnits="userSpaceOnUse">
<stop stop-color="#006430"/>
<stop offset="1" stop-color="#006430" stop-opacity="0.6"/>
</linearGradient>
<linearGradient id="paint3_linear_4808_152539" x1="29.0572" y1="43.1033" x2="29.0572" y2="56.0002" gradientUnits="userSpaceOnUse">
<stop stop-color="#006430"/>
<stop offset="1" stop-color="#006430" stop-opacity="0.6"/>
</linearGradient>
<linearGradient id="paint4_linear_4808_152539" x1="18.5128" y1="39.3643" x2="18.5128" y2="43.1033" gradientUnits="userSpaceOnUse">
<stop stop-color="#006430"/>
<stop offset="1" stop-color="#006430" stop-opacity="0.6"/>
</linearGradient>
<linearGradient id="paint5_linear_4808_152539" x1="29.1063" y1="32.6875" x2="29.1063" y2="50.8005" gradientUnits="userSpaceOnUse">
<stop stop-color="#E3F2FD"/>
<stop offset="1" stop-color="#F5FBFE"/>
</linearGradient>
<linearGradient id="paint6_linear_4808_152539" x1="17.4984" y1="32.687" x2="17.4984" y2="50.8003" gradientUnits="userSpaceOnUse">
<stop stop-color="#BBDEFB"/>
<stop offset="1" stop-color="#E2F1FD"/>
</linearGradient>
<linearGradient id="paint7_linear_4808_152539" x1="29.3076" y1="35.625" x2="29.3076" y2="47.8627" gradientUnits="userSpaceOnUse">
<stop stop-color="#FFA600"/>
<stop offset="1" stop-color="#FFCA66"/>
</linearGradient>
<linearGradient id="paint8_linear_4808_152539" x1="26.4365" y1="41.3799" x2="26.4365" y2="47.8625" gradientUnits="userSpaceOnUse">
<stop stop-color="#FF7500"/>
<stop offset="1" stop-color="#FF9133"/>
</linearGradient>
<linearGradient id="paint9_linear_4808_152539" x1="28.4042" y1="35.6416" x2="28.4042" y2="40.1598" gradientUnits="userSpaceOnUse">
<stop stop-color="#FF7500"/>
<stop offset="1" stop-color="#FF9133"/>
</linearGradient>
<linearGradient id="paint10_linear_4808_152539" x1="39.1541" y1="50.8003" x2="39.1541" y2="55.9938" gradientUnits="userSpaceOnUse">
<stop stop-color="#006430"/>
<stop offset="1" stop-color="#006430" stop-opacity="0.6"/>
</linearGradient>
<linearGradient id="paint11_linear_4808_152539" x1="39.1541" y1="34.304" x2="39.1541" y2="50.8003" gradientUnits="userSpaceOnUse">
<stop stop-color="#BBDEFB"/>
<stop offset="1" stop-color="#E2F1FD"/>
</linearGradient>
<linearGradient id="paint12_linear_4808_152539" x1="43.6012" y1="44.8545" x2="43.6012" y2="55.9996" gradientUnits="userSpaceOnUse">
<stop stop-color="#BBDEFB"/>
<stop offset="1" stop-color="#E2F1FD"/>
</linearGradient>
<linearGradient id="paint13_linear_4808_152539" x1="43.6012" y1="35.5974" x2="43.6012" y2="45.875" gradientUnits="userSpaceOnUse">
<stop stop-color="#FFA600"/>
<stop offset="1" stop-color="#FFCA66"/>
</linearGradient>
<linearGradient id="paint14_linear_4808_152539" x1="41.3895" y1="44.8545" x2="41.3895" y2="55.9996" gradientUnits="userSpaceOnUse">
<stop stop-color="#90CAF9"/>
<stop offset="1" stop-color="#C0E1FC"/>
</linearGradient>
<linearGradient id="paint15_linear_4808_152539" x1="41.3895" y1="35.5974" x2="41.3895" y2="45.875" gradientUnits="userSpaceOnUse">
<stop stop-color="#FF7500"/>
<stop offset="1" stop-color="#FF9133"/>
</linearGradient>
<linearGradient id="paint16_linear_4808_152539" x1="46.7694" y1="42.9614" x2="46.7694" y2="45.8749" gradientUnits="userSpaceOnUse">
<stop stop-color="#FF7500"/>
<stop offset="1" stop-color="#FF9133"/>
</linearGradient>
<linearGradient id="paint17_linear_4808_152539" x1="46.0937" y1="45.875" x2="46.0937" y2="55.565" gradientUnits="userSpaceOnUse">
<stop stop-color="#90CAF9"/>
<stop offset="1" stop-color="#C0E1FC"/>
</linearGradient>
<linearGradient id="paint18_linear_4808_152539" x1="51.0058" y1="44.3015" x2="51.0058" y2="55.9995" gradientUnits="userSpaceOnUse">
<stop stop-color="#E3F2FD"/>
<stop offset="1" stop-color="#F5FBFE"/>
</linearGradient>
<linearGradient id="paint19_linear_4808_152539" x1="49.4508" y1="44.332" x2="49.4508" y2="55.9994" gradientUnits="userSpaceOnUse">
<stop stop-color="#BBDEFB"/>
<stop offset="1" stop-color="#E2F1FD"/>
</linearGradient>
<linearGradient id="paint20_linear_4808_152539" x1="50.8675" y1="49.0098" x2="50.8675" y2="51.2914" gradientUnits="userSpaceOnUse">
<stop stop-color="#BBDEFB"/>
<stop offset="1" stop-color="#E2F1FD"/>
</linearGradient>
<linearGradient id="paint21_linear_4808_152539" x1="46.3408" y1="49.0098" x2="46.3408" y2="51.2914" gradientUnits="userSpaceOnUse">
<stop stop-color="#90CAF9"/>
<stop offset="1" stop-color="#C0E1FC"/>
</linearGradient>
<linearGradient id="paint22_linear_4808_152539" x1="29.1192" y1="16" x2="29.1192" y2="22.2814" gradientUnits="userSpaceOnUse">
<stop stop-color="#E3F2FD"/>
<stop offset="1" stop-color="#F5FBFE"/>
</linearGradient>
<linearGradient id="paint23_linear_4808_152539" x1="20.9897" y1="16" x2="20.9897" y2="22.2816" gradientUnits="userSpaceOnUse">
<stop stop-color="#BBDEFB"/>
<stop offset="1" stop-color="#E2F1FD"/>
</linearGradient>
<linearGradient id="paint24_linear_4808_152539" x1="23.5387" y1="16" x2="23.5387" y2="22.2816" gradientUnits="userSpaceOnUse">
<stop stop-color="#BBDEFB"/>
<stop offset="1" stop-color="#E2F1FD"/>
</linearGradient>
<linearGradient id="paint25_linear_4808_152539" x1="27.2696" y1="16" x2="27.2696" y2="22.2816" gradientUnits="userSpaceOnUse">
<stop stop-color="#BBDEFB"/>
<stop offset="1" stop-color="#E2F1FD"/>
</linearGradient>
<linearGradient id="paint26_linear_4808_152539" x1="31.0016" y1="16" x2="31.0016" y2="22.2816" gradientUnits="userSpaceOnUse">
<stop stop-color="#BBDEFB"/>
<stop offset="1" stop-color="#E2F1FD"/>
</linearGradient>
<linearGradient id="paint27_linear_4808_152539" x1="34.7335" y1="16" x2="34.7335" y2="22.2816" gradientUnits="userSpaceOnUse">
<stop stop-color="#BBDEFB"/>
<stop offset="1" stop-color="#E2F1FD"/>
</linearGradient>
<clipPath id="clip0_4808_152539">
<rect width="40" height="40" fill="white" transform="translate(16.6667 16)"/>
</clipPath>
</defs>
</svg>
