<svg width="73" height="72" viewBox="0 0 73 72" fill="none" xmlns="http://www.w3.org/2000/svg">
<rect x="0.333252" width="72" height="72" rx="36" fill="url(#paint0_linear_4808_152659)"/>
<g clip-path="url(#clip0_4808_152659)">
<path d="M45.1537 39.5482L32.7775 51.9424L25.3634 47.7334L21.1755 40.3405L33.551 27.9463L41.1181 31.9787L45.1537 39.5482Z" fill="url(#paint1_linear_4808_152659)"/>
<path d="M45.1538 39.5483L32.7775 51.9424L25.3635 47.7334L41.1182 31.9788L45.1538 39.5483Z" fill="url(#paint2_linear_4808_152659)"/>
<path d="M45.1521 47.8346C44.6944 47.3769 44.6944 46.6349 45.1521 46.1772L50.1245 41.2048C54.2371 37.0921 54.2371 30.4004 50.1245 26.2878C49.6668 25.8301 49.6668 25.0881 50.1245 24.6304C50.5822 24.1727 51.3243 24.1727 51.7819 24.6304C56.8084 29.6569 56.8084 37.8357 51.7819 42.8622L46.8095 47.8346C46.352 48.2923 45.6098 48.2924 45.1521 47.8346Z" fill="#022B55"/>
<path d="M46.8096 22.973L43.4946 19.6582C43.0369 19.2006 43.0369 18.4584 43.4946 18.0007C43.9523 17.543 44.6944 17.543 45.1521 18.0007L48.467 21.3156C48.9247 21.7732 48.9247 22.5153 48.467 22.973C48.0094 23.4307 47.2673 23.4308 46.8096 22.973Z" fill="#133C6B"/>
<path d="M51.7816 26.2875L48.1836 29.8856C47.7266 30.3434 46.9843 30.3434 46.5264 29.8856L44.8692 28.2276L43.212 26.5704C42.7542 26.1133 42.7542 25.3711 43.212 24.9132L46.8093 21.3152C48.1805 19.9447 50.4112 19.9447 51.7816 21.3152C53.1529 22.6864 53.1529 24.9171 51.7816 26.2875Z" fill="#415C84"/>
<path d="M51.7815 26.2876L48.1835 29.8856C47.7264 30.3434 46.9842 30.3434 46.5263 29.8856L44.8691 28.2276L51.7815 21.3152C53.1528 22.6864 53.1528 24.9171 51.7815 26.2876Z" fill="#133C6B"/>
<path d="M41.8372 21.3155C41.3795 20.8578 41.3795 20.1158 41.8372 19.6581L45.1521 16.3432C45.6098 15.8855 46.3519 15.8856 46.8095 16.3432C47.2672 16.8009 47.2672 17.543 46.8095 18.0007L43.4946 21.3155C43.037 21.7731 42.2949 21.7732 41.8372 21.3155Z" fill="#415C84"/>
<path d="M41.837 51.1494C40.4629 49.7754 40.4628 47.5514 41.837 46.1771C43.208 44.8061 45.4387 44.8063 46.8094 46.1771C48.1835 47.5511 48.1838 49.7751 46.8094 51.1493C45.4387 52.5203 43.208 52.5204 41.837 51.1494Z" fill="#133C6B"/>
<path d="M32.7774 51.9425L31.1218 53.6005C27.923 56.7992 22.7186 56.8 19.5191 53.6013C19.5152 53.5974 19.5113 53.5934 19.5074 53.5895C16.3133 50.3822 16.3172 45.2012 19.5191 41.9986L21.1755 40.3406L26.9659 46.131L32.7774 51.9425Z" fill="url(#paint3_linear_4808_152659)"/>
<path d="M32.7774 51.9426L31.1217 53.6006C27.923 56.7993 22.7186 56.8001 19.519 53.6014C19.5151 53.5975 19.5112 53.5936 19.5073 53.5897L26.9659 46.1311L32.7774 51.9426Z" fill="url(#paint4_linear_4808_152659)"/>
<path d="M46.8094 37.8903L45.1537 39.5483L39.3508 33.7461L33.551 27.9463L35.2067 26.2884C38.4124 23.0826 43.602 23.0802 46.8094 26.2876C50.0081 29.4863 50.0081 34.6915 46.8094 37.8903Z" fill="url(#paint5_linear_4808_152659)"/>
<path d="M46.8091 37.8903L45.1535 39.5483L39.3506 33.7461L46.8091 26.2876C50.0079 29.4864 50.0079 34.6916 46.8091 37.8903Z" fill="url(#paint6_linear_4808_152659)"/>
</g>
<defs>
<linearGradient id="paint0_linear_4808_152659" x1="36.3333" y1="0" x2="36.3333" y2="72" gradientUnits="userSpaceOnUse">
<stop stop-color="#E6F6EC" stop-opacity="0"/>
<stop offset="1" stop-color="#E6F6EC"/>
</linearGradient>
<linearGradient id="paint1_linear_4808_152659" x1="33.1646" y1="27.9463" x2="33.1646" y2="51.9424" gradientUnits="userSpaceOnUse">
<stop stop-color="#E3F2FD"/>
<stop offset="1" stop-color="#F5FBFE"/>
</linearGradient>
<linearGradient id="paint2_linear_4808_152659" x1="35.2586" y1="31.9788" x2="35.2586" y2="51.9424" gradientUnits="userSpaceOnUse">
<stop stop-color="#BBDEFB"/>
<stop offset="1" stop-color="#E2F1FD"/>
</linearGradient>
<linearGradient id="paint3_linear_4808_152659" x1="24.9461" y1="40.3406" x2="24.9461" y2="55.9999" gradientUnits="userSpaceOnUse">
<stop stop-color="#42A5F5"/>
<stop offset="1" stop-color="#73BCF8"/>
</linearGradient>
<linearGradient id="paint4_linear_4808_152659" x1="26.1424" y1="46.1311" x2="26.1424" y2="56" gradientUnits="userSpaceOnUse">
<stop stop-color="#1976D2"/>
<stop offset="1" stop-color="#368FE7"/>
</linearGradient>
<linearGradient id="paint5_linear_4808_152659" x1="41.3797" y1="23.8831" x2="41.3797" y2="39.5483" gradientUnits="userSpaceOnUse">
<stop stop-color="#42A5F5"/>
<stop offset="1" stop-color="#73BCF8"/>
</linearGradient>
<linearGradient id="paint6_linear_4808_152659" x1="44.2794" y1="26.2876" x2="44.2794" y2="39.5483" gradientUnits="userSpaceOnUse">
<stop stop-color="#1976D2"/>
<stop offset="1" stop-color="#368FE7"/>
</linearGradient>
<clipPath id="clip0_4808_152659">
<rect width="40" height="40" fill="white" transform="translate(16.3333 16)"/>
</clipPath>
</defs>
</svg>
