<svg width="72" height="72" viewBox="0 0 72 72" fill="none" xmlns="http://www.w3.org/2000/svg">
<rect width="72" height="72" rx="36" fill="url(#paint0_linear_4808_151427)"/>
<g clip-path="url(#clip0_4808_151427)">
<path d="M50.7875 54.229L49.8208 54.7499C48.7656 55.3133 47.5606 55.5331 46.3744 55.3785C45.1881 55.2238 44.0798 54.7025 43.2042 53.8874L38.7458 49.7499L47.3584 40.4707L56 48.4999L50.7875 54.229Z" fill="#FB9C88"/>
<path d="M49.0667 16.5833H31.6375C30.7654 16.5833 30.0583 17.2903 30.0583 18.1624V49.6166C30.0583 50.4887 30.7654 51.1958 31.6375 51.1958H49.0667C49.9388 51.1958 50.6458 50.4887 50.6458 49.6166V18.1624C50.6458 17.2903 49.9388 16.5833 49.0667 16.5833Z" fill="#0D47A1"/>
<path d="M31.7708 18.7708C31.7714 18.7084 31.7842 18.6467 31.8086 18.5893C31.833 18.5319 31.8684 18.4798 31.9129 18.4361C31.9574 18.3924 32.0101 18.3578 32.0679 18.3345C32.1258 18.3111 32.1876 18.2994 32.25 18.2999H44.4583C44.686 18.2999 44.9043 18.2095 45.0653 18.0485C45.2262 17.8876 45.3167 17.6692 45.3167 17.4416C45.3167 17.2139 45.2262 16.9956 45.0653 16.8347C44.9043 16.6737 44.686 16.5833 44.4583 16.5833H31.6333C31.4267 16.5827 31.222 16.6229 31.0309 16.7016C30.8399 16.7803 30.6662 16.8959 30.5199 17.0419C30.3736 17.1878 30.2575 17.3611 30.1783 17.552C30.0991 17.7428 30.0583 17.9475 30.0583 18.1541V23.7333C30.059 23.9511 30.1424 24.1606 30.2917 24.3192C30.4411 24.4778 30.6451 24.5737 30.8625 24.5874C30.9792 24.5948 31.0961 24.5782 31.206 24.5386C31.316 24.499 31.4167 24.4373 31.5018 24.3572C31.587 24.2772 31.6548 24.1805 31.7011 24.0731C31.7473 23.9658 31.7711 23.8501 31.7708 23.7333V18.7708Z" fill="#1565C0"/>
<path d="M31.6333 16.5833C31.4267 16.5827 31.222 16.6229 31.0309 16.7016C30.8399 16.7803 30.6662 16.8959 30.5199 17.0419C30.3736 17.1878 30.2575 17.3611 30.1783 17.552C30.0991 17.7428 30.0583 17.9475 30.0583 18.1541V19.9791C30.0735 20.1959 30.1703 20.3988 30.3292 20.547C30.4881 20.6952 30.6973 20.7777 30.9146 20.7777C31.1319 20.7777 31.3411 20.6952 31.5 20.547C31.6589 20.3988 31.7557 20.1959 31.7708 19.9791V18.7708C31.7714 18.7084 31.7842 18.6467 31.8086 18.5893C31.833 18.5319 31.8684 18.4798 31.9129 18.4361C31.9574 18.3924 32.0101 18.3578 32.0679 18.3345C32.1258 18.3111 32.1876 18.2994 32.25 18.2999H37.4375C37.6652 18.2999 37.8835 18.2095 38.0445 18.0485C38.2054 17.8876 38.2958 17.6692 38.2958 17.4416C38.2958 17.2139 38.2054 16.9956 38.0445 16.8347C37.8835 16.6737 37.6652 16.5833 37.4375 16.5833H31.6333Z" fill="#1976D2"/>
<path d="M48.9168 49.0084C48.9157 49.1336 48.8651 49.2534 48.7762 49.3415C48.6872 49.4297 48.567 49.4792 48.4418 49.4792H38.0834C37.8558 49.4792 37.6375 49.5696 37.4765 49.7306C37.3155 49.8916 37.2251 50.1099 37.2251 50.3375C37.2251 50.5652 37.3155 50.7835 37.4765 50.9445C37.6375 51.1054 37.8558 51.1959 38.0834 51.1959H49.0751C49.4917 51.1959 49.8913 51.0304 50.1858 50.7358C50.4804 50.4412 50.6459 50.0416 50.6459 49.625V32.4167C50.6459 32.189 50.5555 31.9707 50.3945 31.8097C50.2336 31.6488 50.0152 31.5583 49.7876 31.5583C49.56 31.5583 49.3416 31.6488 49.1807 31.8097C49.0197 31.9707 48.9293 32.189 48.9293 32.4167L48.9168 49.0084Z" fill="#212121"/>
<path d="M48.9292 49.0081V18.7748C48.9292 18.5125 48.7165 18.2998 48.4542 18.2998H32.2459C31.9835 18.2998 31.7709 18.5125 31.7709 18.7748V49.0081C31.7709 49.2705 31.9835 49.4831 32.2459 49.4831H48.4542C48.7165 49.4831 48.9292 49.2705 48.9292 49.0081Z" fill="#90CAF9"/>
<path d="M47.6874 21.175V33.5333L45.9333 34.2791C45.458 34.4823 45.0392 34.7977 44.7126 35.1983C44.3861 35.5989 44.1615 36.0727 44.0583 36.5791L43.4458 39.6083C43.3227 40.2182 42.9923 40.7668 42.5108 41.161C42.0294 41.5551 41.4263 41.7706 40.8041 41.7708H39.2374C38.6317 41.7675 38.0447 41.5605 37.5708 41.1833L34.0916 38.4C33.7608 38.1368 33.4937 37.8021 33.3105 37.4212C33.1272 37.0402 33.0324 36.6227 33.0333 36.2V21.25C33.018 20.8976 33.117 20.5497 33.3154 20.2581C33.5138 19.9665 33.8011 19.7467 34.1345 19.6315C34.4679 19.5163 34.8295 19.5119 35.1656 19.6188C35.5018 19.7257 35.7944 19.9383 35.9999 20.225C36.2474 20.6096 36.5898 20.924 36.9942 21.1378C37.3985 21.3516 37.851 21.4577 38.3083 21.4458H42.4291C42.8868 21.4572 43.3398 21.351 43.7447 21.1372C44.1496 20.9235 44.4928 20.6094 44.7416 20.225C44.945 19.9503 45.2294 19.7463 45.5548 19.6418C45.8803 19.5373 46.2303 19.5375 46.5555 19.6424C46.8808 19.7473 47.165 19.9516 47.3681 20.2266C47.5711 20.5015 47.6828 20.8332 47.6874 21.175Z" fill="white"/>
<path d="M48.9666 45.1374V49.0082C48.9666 49.1324 48.9175 49.2515 48.8301 49.3397C48.7427 49.4278 48.624 49.4779 48.4999 49.479H32.2499C32.1877 49.4796 32.126 49.4678 32.0684 49.4444C32.0108 49.421 31.9584 49.3864 31.9143 49.3426C31.8701 49.2988 31.8351 49.2467 31.8111 49.1894C31.7872 49.132 31.7749 49.0704 31.7749 49.0082V46.3915L32.7791 41.0207C33.0084 39.8956 33.5352 38.8525 34.3047 38.0002C35.0742 37.1479 36.0581 36.5176 37.1541 36.1749C37.7211 36.0004 38.3108 35.9106 38.9041 35.9082H42.3624C43.4318 35.9725 44.4684 36.3017 45.379 36.8661C46.2897 37.4305 47.0457 38.2124 47.5791 39.1415C48.2041 40.2832 48.2124 40.9165 48.9666 45.1374Z" fill="#EEEEEE"/>
<path d="M44.7832 36.75L46.8082 46.0542H48.929V38.8L44.7832 36.75Z" fill="#BDBDBD"/>
<path d="M36.1001 47.404C35.8211 47.4043 35.5454 47.3436 35.2922 47.2263C35.039 47.109 34.8145 46.9378 34.6344 46.7248C34.4542 46.5117 34.3228 46.2618 34.2492 45.9927C34.1757 45.7235 34.1617 45.4416 34.2084 45.1665L34.8209 41.4165C34.9116 40.867 35.1187 40.3433 35.4285 39.8805C35.7382 39.4177 36.1434 39.0265 36.6168 38.7332L36.8709 38.5748C37.4846 38.1912 38.1931 37.9863 38.9168 37.9832H42.1209C42.8469 37.9848 43.5581 38.1882 44.1751 38.5707C44.8443 38.9435 45.3957 39.4963 45.7668 40.1665C45.9707 40.5453 46.1114 40.9548 46.1834 41.379L46.8626 45.1665C46.912 45.4424 46.9002 45.7259 46.8281 45.9968C46.756 46.2677 46.6254 46.5195 46.4454 46.7345C46.2654 46.9494 46.0405 47.1223 45.7865 47.2408C45.5324 47.3594 45.2555 47.4208 44.9751 47.4206L36.1001 47.404Z" fill="white"/>
<path d="M47.2917 49.1707C47.3084 49.2793 47.2814 49.3902 47.2167 49.479H46.5459C46.4626 49.3707 46.5001 49.479 46.0834 46.8874C45.7042 44.5624 45.7167 44.6374 45.5709 43.6957C45.5538 43.5852 45.5812 43.4724 45.6473 43.3822C45.7133 43.2919 45.8125 43.2316 45.923 43.2145C46.0335 43.1973 46.1463 43.2248 46.2365 43.2908C46.3268 43.3568 46.3871 43.456 46.4042 43.5665C46.6126 44.9457 46.3542 43.3915 47.2917 49.1707Z" fill="#212121"/>
<path d="M38.7458 36.0625L40.5083 42.4125L42.2708 36.0625H38.7458Z" fill="#90CAF9"/>
<path d="M42.2501 36.0625C42.0512 36.3445 41.7875 36.5746 41.4811 36.7334C41.1748 36.8922 40.8348 36.9751 40.4897 36.9751C40.1446 36.9751 39.8046 36.8922 39.4982 36.7334C39.1918 36.5746 38.9281 36.3445 38.7292 36.0625V33.5H42.2501V36.0625Z" fill="#FB9C88"/>
<path d="M35.1208 21.5667H39.9042C40.6037 21.5667 41.2746 21.8445 41.7692 22.3392C42.2638 22.8338 42.5417 23.5046 42.5417 24.2042V28.4333H36.325C36.0092 28.4334 35.7061 28.3094 35.4808 28.088C35.2556 27.8667 35.1263 27.5657 35.1208 27.25V21.5667Z" fill="#424242"/>
<path d="M44.8168 28.4333H43.4251C43.3095 28.4339 43.1949 28.4115 43.088 28.3675C42.9811 28.3235 42.8839 28.2588 42.8022 28.177C42.7204 28.0953 42.6557 27.9982 42.6117 27.8912C42.5677 27.7843 42.5454 27.6698 42.5459 27.5541V23.175C42.5459 22.7484 42.7154 22.3393 43.017 22.0377C43.3186 21.7361 43.7277 21.5667 44.1542 21.5667C44.6276 21.5678 45.0812 21.7566 45.4155 22.0917C45.7498 22.4268 45.9376 22.8808 45.9376 23.3542V27.3125C45.9381 27.4598 45.9095 27.6058 45.8534 27.7421C45.7973 27.8783 45.7147 28.0021 45.6105 28.1063C45.5063 28.2104 45.3826 28.293 45.2463 28.3491C45.1101 28.4053 44.9641 28.4339 44.8168 28.4333Z" fill="#424242"/>
<path d="M45.7 28.4333H35.3167C34.792 28.4333 34.3667 28.8587 34.3667 29.3833V29.3875C34.3667 29.9122 34.792 30.3375 35.3167 30.3375H45.7C46.2247 30.3375 46.65 29.9122 46.65 29.3875V29.3833C46.65 28.8587 46.2247 28.4333 45.7 28.4333Z" fill="#FB9C88"/>
<path d="M44.9291 28.0832V30.1332C44.8938 31.2827 44.4124 32.3733 43.5868 33.174C42.7611 33.9747 41.6563 34.4224 40.5062 34.4224C39.3561 34.4224 38.2512 33.9747 37.4256 33.174C36.6 32.3733 36.1185 31.2827 36.0833 30.1332V28.0832C36.1185 26.9336 36.6 25.843 37.4256 25.0424C38.2512 24.2417 39.3561 23.7939 40.5062 23.7939C41.6563 23.7939 42.7611 24.2417 43.5868 25.0424C44.4124 25.843 44.8938 26.9336 44.9291 28.0832Z" fill="#FB9C88"/>
<path d="M44.9291 29.6332V30.1332C44.8938 31.2828 44.4124 32.3734 43.5868 33.174C42.7611 33.9747 41.6563 34.4225 40.5062 34.4225C39.3561 34.4225 38.2512 33.9747 37.4256 33.174C36.6 32.3734 36.1185 31.2828 36.0833 30.1332V29.6332C36.1185 28.4837 36.6 27.3931 37.4256 26.5924C38.2512 25.7918 39.3561 25.344 40.5062 25.344C41.6563 25.344 42.7611 25.7918 43.5868 26.5924C44.4124 27.3931 44.8938 28.4837 44.9291 29.6332Z" fill="#FBC4AB"/>
<path d="M41.6665 32.0542C41.3449 32.3344 40.9327 32.4887 40.5061 32.4887C40.0795 32.4887 39.6674 32.3344 39.3457 32.0542" fill="white"/>
<path d="M39.1541 23.1833C39.3819 23.4109 39.5626 23.6811 39.6859 23.9785C39.8091 24.2759 39.8726 24.5947 39.8726 24.9167C39.8726 25.2386 39.8091 25.5574 39.6859 25.8549C39.5626 26.1523 39.3819 26.4225 39.1541 26.65L36.8333 24.3334" fill="#424242"/>
<path d="M36.3501 43.9457C36.2084 44.8165 36.3501 43.8957 35.5167 49.479H34.6834C34.6834 49.4248 34.6251 49.829 35.5167 43.8123C35.5344 43.7018 35.5953 43.6029 35.6859 43.5372C35.7766 43.4716 35.8896 43.4447 36.0001 43.4623C36.1106 43.48 36.2095 43.5409 36.2752 43.6315C36.3408 43.7222 36.3678 43.8352 36.3501 43.9457Z" fill="#212121"/>
<path d="M37.0999 38.4623C37.1495 37.9485 37.3146 37.4526 37.5831 37.0117C37.8515 36.5708 38.2162 36.1964 38.6499 35.9165C38.1422 35.9374 37.6394 36.0243 37.1541 36.1748C36.6458 36.8298 36.3402 37.6192 36.2749 38.4457C35.9496 38.5455 35.6708 38.7587 35.4894 39.0467C35.308 39.3346 35.236 39.6781 35.2865 40.0147C35.3369 40.3512 35.5065 40.6585 35.7644 40.8806C36.0222 41.1027 36.3513 41.2249 36.6916 41.2249C37.0319 41.2249 37.3609 41.1027 37.6188 40.8806C37.8767 40.6585 38.0463 40.3512 38.0967 40.0147C38.1472 39.6781 38.0751 39.3346 37.8937 39.0467C37.7123 38.7587 37.4336 38.5455 37.1083 38.4457L37.0999 38.4623ZM36.6833 40.3915C36.5653 40.3965 36.4485 40.3661 36.348 40.3042C36.2475 40.2423 36.1678 40.1517 36.1191 40.0441C36.0705 39.9365 36.0551 39.8169 36.0751 39.7005C36.095 39.5841 36.1493 39.4764 36.231 39.3911C36.3126 39.3058 36.4179 39.247 36.5333 39.222C36.6487 39.1971 36.7689 39.2073 36.8785 39.2512C36.9881 39.2952 37.082 39.3709 37.1482 39.4687C37.2144 39.5664 37.2498 39.6818 37.2499 39.7998C37.2499 39.956 37.1882 40.1059 37.0781 40.2167C36.968 40.3276 36.8186 40.3904 36.6624 40.3915H36.6833Z" fill="#212121"/>
<path d="M45.8417 39.3998V40.3165C45.8417 40.427 45.7978 40.533 45.7197 40.6111C45.6415 40.6893 45.5355 40.7332 45.425 40.7332C45.3145 40.7332 45.2085 40.6893 45.1304 40.6111C45.0523 40.533 45.0084 40.427 45.0084 40.3165V39.3998C45.0084 39.3508 44.9892 39.3038 44.9549 39.2687C44.9207 39.2337 44.874 39.2134 44.825 39.2123H43.875C43.826 39.2134 43.7794 39.2337 43.7451 39.2687C43.7109 39.3038 43.6917 39.3508 43.6917 39.3998V40.3165C43.6917 40.427 43.6478 40.533 43.5696 40.6111C43.4915 40.6893 43.3855 40.7332 43.275 40.7332C43.1645 40.7332 43.0585 40.6893 42.9804 40.6111C42.9022 40.533 42.8584 40.427 42.8584 40.3165V39.3998C42.8576 39.2626 42.8849 39.1266 42.9383 39.0002C42.9918 38.8738 43.0704 38.7596 43.1694 38.6645C43.2684 38.5694 43.3857 38.4954 43.5142 38.447C43.6426 38.3987 43.7796 38.377 43.9167 38.3832C43.8566 37.8836 43.6868 37.4034 43.4196 36.977C43.1524 36.5506 42.7943 36.1884 42.3708 35.9165C42.8786 35.9371 43.3815 36.0239 43.8667 36.1748C44.3639 36.8127 44.6702 37.5784 44.75 38.3832H44.8417C45.1084 38.3875 45.3628 38.4966 45.5498 38.6868C45.7369 38.877 45.8417 39.1331 45.8417 39.3998Z" fill="#212121"/>
<path d="M42.4125 20.1998H38.2958C37.9999 20.2003 37.7096 20.1198 37.4562 19.9671C37.2028 19.8143 36.996 19.595 36.8583 19.3331L36.3125 18.2998H44.3917L43.8458 19.3331C43.7085 19.5944 43.5024 19.8132 43.2498 19.966C42.9972 20.1187 42.7077 20.1996 42.4125 20.1998Z" fill="#212121"/>
<path d="M48.8499 53.0832L48.3624 52.4374C47.5695 51.3898 47.0373 50.1685 46.8098 48.8745C46.5823 47.5805 46.666 46.251 47.0541 44.9958L48.0499 41.7874C48.115 41.5818 48.1258 41.3629 48.0813 41.1519C48.0368 40.9409 47.9384 40.745 47.7957 40.5833L45.3207 37.7499C44.915 37.2895 44.6912 36.6969 44.6912 36.0833C44.6912 35.4696 44.915 34.877 45.3207 34.4166C45.3813 34.3475 45.4553 34.2913 45.5381 34.2515C45.6209 34.2116 45.7109 34.1889 45.8027 34.1846C45.8945 34.1803 45.9862 34.1946 46.0723 34.2266C46.1585 34.2586 46.2373 34.3076 46.3041 34.3708L50.8874 38.7333C52.1984 39.9829 52.9762 41.6906 53.0583 43.4999L53.1416 45.1666C53.1574 45.5045 53.2446 45.8351 53.3976 46.1368C53.5506 46.4384 53.7658 46.7042 54.0291 46.9166L55.9999 48.4999L48.8499 53.0832Z" fill="#FBC4AB"/>
<path d="M53.054 43.3916L52.0124 43.1333C51.7583 43.0699 51.525 42.9417 51.3352 42.7614C51.1453 42.581 51.0054 42.3546 50.929 42.1041L50.2749 39.9541C50.1956 39.69 50.0441 39.4533 49.8374 39.2708L45.3915 35.325C45.2674 35.2177 45.1901 35.0662 45.1761 34.9027C45.1621 34.7393 45.2125 34.5768 45.3165 34.45C45.3766 34.3797 45.4503 34.3223 45.5332 34.2813C45.616 34.2403 45.7064 34.2165 45.7987 34.2115C45.891 34.2064 45.9834 34.2201 46.0703 34.2518C46.1571 34.2835 46.2367 34.3325 46.304 34.3958L50.8874 38.7583C52.1662 39.9756 52.9397 41.6298 53.054 43.3916Z" fill="#FBE7DD"/>
<path d="M56 48.4999L48.8542 53.0833L48.3667 52.4374C47.5744 51.3895 47.0426 50.1682 46.8151 48.8744C46.5877 47.5805 46.671 46.2511 47.0584 44.9957L48.0542 41.7874C48.1193 41.5818 48.1301 41.3629 48.0856 41.1519C48.0411 40.9409 47.9427 40.745 47.8 40.5833L48.7084 41.6208C49.142 42.1105 49.3664 42.7508 49.3334 43.4041L49.1625 46.4166C49.1549 46.6028 49.1868 46.7885 49.2562 46.9614C49.3257 47.1343 49.431 47.2906 49.5653 47.4197C49.6996 47.5489 49.8598 47.6481 50.0353 47.7108C50.2108 47.7735 50.3976 47.7982 50.5834 47.7833L51.45 47.7249C51.6946 47.708 51.9298 47.624 52.1298 47.4822C52.3297 47.3403 52.4867 47.146 52.5834 46.9208L53.2 45.5083C53.3104 46.0527 53.6046 46.5426 54.0334 46.8958L56 48.4999Z" fill="#FB9C88"/>
<path d="M25.3542 41.2417V40.2334C25.3498 39.9939 25.2519 39.7656 25.0813 39.5974C24.9108 39.4292 24.6812 39.3344 24.4417 39.3334H16.9417C16.8206 39.33 16.7001 39.3507 16.587 39.3943C16.474 39.4378 16.3707 39.5033 16.2832 39.587C16.1956 39.6707 16.1255 39.7709 16.0769 39.8818C16.0283 39.9928 16.0022 40.1123 16 40.2334V47.5292C16 47.7712 16.0961 48.0033 16.2673 48.1744C16.4384 48.3455 16.6705 48.4417 16.9125 48.4417H24.4125C24.5323 48.4417 24.651 48.4181 24.7617 48.3722C24.8724 48.3264 24.973 48.2591 25.0577 48.1744C25.1425 48.0897 25.2097 47.9891 25.2555 47.8784C25.3014 47.7677 25.325 47.649 25.325 47.5292V44.9667L28.4042 41.2417H25.3542Z" fill="url(#paint1_linear_4808_151427)"/>
<path d="M17.25 46.6583V41.0999C17.2554 40.9603 17.315 40.8283 17.4161 40.7318C17.5172 40.6354 17.6519 40.5821 17.7917 40.5833H23.5708C23.7134 40.5833 23.8501 40.6399 23.9509 40.7407C24.0517 40.8415 24.1083 40.9782 24.1083 41.1208V41.9541C24.1083 42.0967 24.165 42.2334 24.2658 42.3342C24.3666 42.435 24.5033 42.4916 24.6458 42.4916C24.7479 42.4913 24.8479 42.52 24.9342 42.5744C25.0205 42.6288 25.0896 42.7067 25.1333 42.7989C25.177 42.8911 25.1935 42.9939 25.181 43.0951C25.1685 43.1964 25.1274 43.292 25.0625 43.3708C24.1875 44.4291 24.1083 44.4583 24.1083 44.7166V46.6624C24.1083 46.733 24.0944 46.8029 24.0674 46.8681C24.0404 46.9333 24.0008 46.9926 23.9509 47.0425C23.901 47.0924 23.8418 47.132 23.7765 47.159C23.7113 47.186 23.6414 47.1999 23.5708 47.1999H17.7917C17.7204 47.2005 17.6497 47.1869 17.5837 47.1598C17.5178 47.1328 17.4578 47.0929 17.4074 47.0425C17.357 46.9921 17.3171 46.9322 17.2901 46.8662C17.2631 46.8002 17.2495 46.7296 17.25 46.6583Z" fill="url(#paint2_linear_4808_151427)"/>
<path d="M25.3542 30.1292V31.1417C25.3542 31.2615 25.3306 31.3802 25.2847 31.4909C25.2389 31.6016 25.1716 31.7022 25.0869 31.7869C25.0022 31.8717 24.9016 31.9389 24.7909 31.9847C24.6802 32.0306 24.5615 32.0542 24.4417 32.0542H16.9417C16.8194 32.0581 16.6976 32.0374 16.5835 31.9933C16.4694 31.9492 16.3653 31.8826 16.2775 31.7975C16.1896 31.7124 16.1198 31.6104 16.0721 31.4978C16.0245 31.3851 15.9999 31.264 16 31.1417V23.8459C16 23.6035 16.096 23.3709 16.267 23.1992C16.438 23.0274 16.6701 22.9303 16.9125 22.9292H24.4125C24.6549 22.9303 24.887 23.0274 25.058 23.1992C25.229 23.3709 25.325 23.6035 25.325 23.8459V26.4167L28.4042 30.1417L25.3542 30.1292Z" fill="url(#paint3_linear_4808_151427)"/>
<path d="M17.25 30.2707V24.7123C17.25 24.6414 17.264 24.5711 17.2913 24.5057C17.3186 24.4402 17.3585 24.3807 17.4089 24.3308C17.4593 24.2808 17.519 24.2413 17.5847 24.2145C17.6504 24.1878 17.7207 24.1743 17.7917 24.1748H23.5708C23.7134 24.1748 23.8501 24.2314 23.9509 24.3323C24.0517 24.4331 24.1083 24.5698 24.1083 24.7123C24.1083 26.8373 24.0667 26.7957 24.2333 27.004L25.0667 28.004C25.1311 28.0832 25.1718 28.179 25.1841 28.2803C25.1964 28.3817 25.1798 28.4844 25.1363 28.5768C25.0927 28.6691 25.024 28.7472 24.9379 28.8022C24.8519 28.8571 24.7521 28.8866 24.65 28.8873C24.5074 28.8873 24.3707 28.944 24.2699 29.0448C24.1691 29.1456 24.1125 29.2823 24.1125 29.4248V30.2582C24.1125 30.4007 24.0559 30.5374 23.9551 30.6382C23.8543 30.739 23.7176 30.7957 23.575 30.7957H17.7917C17.6505 30.7968 17.5146 30.7424 17.4133 30.6441C17.3119 30.5459 17.2533 30.4118 17.25 30.2707Z" fill="url(#paint4_linear_4808_151427)"/>
<path d="M22.9752 42.3958H18.3752C18.2647 42.3958 18.1587 42.3519 18.0805 42.2738C18.0024 42.1956 17.9585 42.0897 17.9585 41.9792C17.9585 41.8687 18.0024 41.7627 18.0805 41.6845C18.1587 41.6064 18.2647 41.5625 18.3752 41.5625H22.9585C23.069 41.5625 23.175 41.6064 23.2531 41.6845C23.3313 41.7627 23.3752 41.8687 23.3752 41.9792C23.3752 42.0897 23.3313 42.1956 23.2531 42.2738C23.175 42.3519 23.069 42.3958 22.9585 42.3958H22.9752Z" fill="white"/>
<path d="M22.9752 44.2957H18.3752C18.2647 44.2957 18.1587 44.2518 18.0805 44.1737C18.0024 44.0955 17.9585 43.9896 17.9585 43.8791C17.9585 43.7686 18.0024 43.6626 18.0805 43.5844C18.1587 43.5063 18.2647 43.4624 18.3752 43.4624H22.9585C23.069 43.4624 23.175 43.5063 23.2531 43.5844C23.3313 43.6626 23.3752 43.7686 23.3752 43.8791C23.3752 43.9896 23.3313 44.0955 23.2531 44.1737C23.175 44.2518 23.069 44.2957 22.9585 44.2957H22.9752Z" fill="white"/>
<path d="M22.9752 46.1917H18.3752C18.2647 46.1917 18.1587 46.1478 18.0805 46.0697C18.0024 45.9915 17.9585 45.8856 17.9585 45.7751C17.9585 45.6646 18.0024 45.5586 18.0805 45.4804C18.1587 45.4023 18.2647 45.3584 18.3752 45.3584H22.9585C23.069 45.3584 23.175 45.4023 23.2531 45.4804C23.3313 45.5586 23.3752 45.6646 23.3752 45.7751C23.3752 45.8856 23.3313 45.9915 23.2531 46.0697C23.175 46.1478 23.069 46.1917 22.9585 46.1917H22.9752Z" fill="white"/>
<path d="M18.2251 27.9083H18.1418C18.0313 27.9083 17.9253 27.8644 17.8471 27.7862C17.769 27.7081 17.7251 27.6021 17.7251 27.4916C17.7251 27.3811 17.769 27.2751 17.8471 27.197C17.9253 27.1188 18.0313 27.075 18.1418 27.075H18.2251C18.3356 27.075 18.4416 27.1188 18.5197 27.197C18.5979 27.2751 18.6418 27.3811 18.6418 27.4916C18.6418 27.6021 18.5979 27.7081 18.5197 27.7862C18.4416 27.8644 18.3356 27.9083 18.2251 27.9083Z" fill="white"/>
<path d="M20.6294 27.9083H20.5502C20.4397 27.9083 20.3337 27.8644 20.2556 27.7862C20.1774 27.7081 20.1335 27.6021 20.1335 27.4916C20.1335 27.3811 20.1774 27.2751 20.2556 27.197C20.3337 27.1188 20.4397 27.075 20.5502 27.075H20.6294C20.7399 27.075 20.8459 27.1188 20.924 27.197C21.0021 27.2751 21.046 27.3811 21.046 27.4916C21.046 27.6021 21.0021 27.7081 20.924 27.7862C20.8459 27.8644 20.7399 27.9083 20.6294 27.9083Z" fill="white"/>
<path d="M23.2085 27.9083H23.1252C23.0147 27.9083 22.9087 27.8644 22.8305 27.7862C22.7524 27.7081 22.7085 27.6021 22.7085 27.4916C22.7085 27.3811 22.7524 27.2751 22.8305 27.197C22.9087 27.1188 23.0147 27.075 23.1252 27.075H23.2085C23.319 27.075 23.425 27.1188 23.5031 27.197C23.5813 27.2751 23.6252 27.3811 23.6252 27.4916C23.6252 27.6021 23.5813 27.7081 23.5031 27.7862C23.425 27.8644 23.319 27.9083 23.2085 27.9083Z" fill="white"/>
</g>
<defs>
<linearGradient id="paint0_linear_4808_151427" x1="36" y1="0" x2="36" y2="72" gradientUnits="userSpaceOnUse">
<stop stop-color="#E6F6EC" stop-opacity="0"/>
<stop offset="1" stop-color="#E6F6EC"/>
</linearGradient>
<linearGradient id="paint1_linear_4808_151427" x1="22.2021" y1="39.333" x2="22.2021" y2="48.4417" gradientUnits="userSpaceOnUse">
<stop stop-color="#069550"/>
<stop offset="1" stop-color="#3DC282"/>
</linearGradient>
<linearGradient id="paint2_linear_4808_151427" x1="21.2175" y1="40.5833" x2="21.2175" y2="47.1999" gradientUnits="userSpaceOnUse">
<stop stop-color="#9BDBB3"/>
<stop offset="1" stop-color="#74CD96"/>
</linearGradient>
<linearGradient id="paint3_linear_4808_151427" x1="22.2021" y1="22.9292" x2="22.2021" y2="32.0547" gradientUnits="userSpaceOnUse">
<stop stop-color="#FFB900"/>
<stop offset="1" stop-color="#FFD566"/>
</linearGradient>
<linearGradient id="paint4_linear_4808_151427" x1="21.219" y1="24.1748" x2="21.219" y2="30.7957" gradientUnits="userSpaceOnUse">
<stop stop-color="#FFE483"/>
<stop offset="1" stop-color="#FFEFB8"/>
</linearGradient>
<clipPath id="clip0_4808_151427">
<rect width="40" height="40" fill="white" transform="translate(16 16)"/>
</clipPath>
</defs>
</svg>
