<svg width="554" height="320" viewBox="0 0 554 320" fill="none" xmlns="http://www.w3.org/2000/svg">
<g clip-path="url(#clip0_5349_19780)">
<path opacity="0.54" d="M417.185 3H330V61.9251H417.185V3Z" fill="#EEEEEE"/>
<path opacity="0.54" d="M513.958 3H426.773V61.9251H513.958V3Z" fill="#EEEEEE"/>
<path opacity="0.54" d="M417.185 70.585H330V129.51H417.185V70.585Z" fill="#EEEEEE"/>
<path opacity="0.54" d="M513.958 70.585H426.773V129.51H513.958V70.585Z" fill="#EEEEEE"/>
<g opacity="0.54">
<g opacity="0.54">
<g opacity="0.54">
<g opacity="0.54">
<path opacity="0.54" d="M258.139 8.0542H213.65C212.642 8.05686 211.676 8.45841 210.963 9.17107C210.251 9.88373 209.849 10.8495 209.846 11.8574V53.7043C209.849 54.7121 210.251 55.6777 210.964 56.3904C211.676 57.103 212.642 57.5046 213.65 57.5075H258.139C259.146 57.5044 260.112 57.1027 260.825 56.3901C261.537 55.6775 261.939 54.712 261.942 53.7043V11.8574C261.939 10.8496 261.537 9.88392 260.825 9.17131C260.112 8.4587 259.147 8.05708 258.139 8.0542ZM256.657 51.8447H216.64V14.0944H256.656L256.657 51.8447Z" fill="#EEEEEE"/>
</g>
</g>
<g opacity="0.75">
<path opacity="0.75" d="M247.974 21.6445H225.324V44.2947H247.974V21.6445Z" fill="#EEEEEE"/>
</g>
</g>
</g>
<g opacity="0.54">
<g opacity="0.54">
<g opacity="0.54">
<g opacity="0.54">
<path opacity="0.54" d="M294.738 68.8792H261.633C260.883 68.8814 260.164 69.1802 259.634 69.7104C259.104 70.2406 258.805 70.959 258.803 71.7088V102.845C258.805 103.595 259.104 104.313 259.634 104.843C260.164 105.373 260.883 105.672 261.633 105.674H294.738C295.488 105.672 296.207 105.373 296.737 104.843C297.267 104.313 297.566 103.595 297.568 102.845V71.7063C297.565 70.957 297.266 70.2392 296.736 69.7095C296.206 69.1799 295.488 68.8814 294.738 68.8792ZM293.635 101.461H263.859V73.3734H293.632L293.635 101.461Z" fill="#EEEEEE"/>
</g>
</g>
<g opacity="0.75">
<path opacity="0.75" d="M287.172 78.9907H270.319V95.8437H287.172V78.9907Z" fill="#EEEEEE"/>
</g>
</g>
</g>
<g opacity="0.54">
<g opacity="0.54">
<g opacity="0.54">
<g opacity="0.54">
<path opacity="0.54" d="M324.109 19.6252H291.006C290.257 19.6275 289.538 19.9264 289.008 20.4568C288.477 20.9872 288.179 21.7058 288.177 22.4558V53.5917C288.179 54.3415 288.478 55.0599 289.008 55.5901C289.538 56.1203 290.257 56.4192 291.006 56.4214H324.109C324.858 56.4192 325.577 56.1203 326.107 55.5901C326.637 55.0599 326.936 54.3415 326.938 53.5917V22.4558C326.936 21.7059 326.637 20.9874 326.107 20.457C325.577 19.9267 324.859 19.6277 324.109 19.6252ZM323.006 52.2079H293.233V24.1195H323.006V52.2079Z" fill="#EEEEEE"/>
</g>
</g>
<g opacity="0.75">
<path opacity="0.75" d="M316.546 29.7375H299.693V46.5905H316.546V29.7375Z" fill="#EEEEEE"/>
</g>
</g>
</g>
<path opacity="0.75" d="M113.744 15.6689H102.908V50.3458H113.744V15.6689Z" fill="#EEEEEE"/>
<path opacity="0.39" d="M122.413 24.3379H113.744V50.3457H122.413V24.3379Z" fill="#EEEEEE"/>
<path d="M92.4009 18.1163L81.9167 14.1306L69.4843 46.8333L79.9685 50.819L92.4009 18.1163Z" fill="#EEEEEE"/>
<path opacity="0.39" d="M102.907 6.27783H92.071V50.3466H102.907V6.27783Z" fill="#EEEEEE"/>
<path opacity="0.75" d="M78.7195 100.494H87.0522V73.8298H78.7195V100.494Z" fill="#EEEEEE"/>
<path opacity="0.39" d="M72.0538 100.494H78.7195V80.4963H72.0538V100.494Z" fill="#EEEEEE"/>
<path opacity="0.39" d="M87.0515 100.494H95.3843V66.6084H87.0515V100.494Z" fill="#EEEEEE"/>
<path opacity="0.54" d="M134.949 50.3718H39.6754C39.011 50.3718 38.4724 50.9104 38.4724 51.5748V54.5953C38.4724 55.2597 39.011 55.7983 39.6754 55.7983H134.949C135.614 55.7983 136.152 55.2597 136.152 54.5953V51.5748C136.152 50.9104 135.614 50.3718 134.949 50.3718Z" fill="#EEEEEE"/>
<path opacity="0.54" d="M106.869 105.971L11.593 105.971C11.2739 105.971 10.9679 105.844 10.7423 105.619C10.5167 105.393 10.39 105.087 10.39 104.768V101.748C10.39 101.429 10.5167 101.123 10.7423 100.897C10.9679 100.671 11.2739 100.545 11.593 100.545L106.869 100.545C107.027 100.545 107.183 100.576 107.329 100.636C107.475 100.697 107.607 100.785 107.719 100.897C107.831 101.009 107.919 101.141 107.98 101.287C108.04 101.433 108.071 101.59 108.071 101.748V104.769C108.071 105.088 107.944 105.394 107.719 105.619C107.493 105.845 107.187 105.971 106.869 105.971V105.971Z" fill="#EEEEEE"/>
<path opacity="0.75" d="M17.3281 87.8994L17.2917 100.901L58.898 101.017L58.9343 88.0156L17.3281 87.8994Z" fill="#EEEEEE"/>
<path opacity="0.39" d="M17.3571 77.4978L17.3279 87.8994L48.5326 87.9871L48.5618 77.5855L17.3571 77.4978Z" fill="#EEEEEE"/>
<path d="M319.474 311.896H352.774C353.478 311.896 354.049 311.326 354.049 310.621V309.913C354.049 309.208 353.478 308.637 352.774 308.637H319.474C318.769 308.637 318.198 309.208 318.198 309.913V310.621C318.198 311.326 318.769 311.896 319.474 311.896Z" fill="#006430"/>
<path d="M361.596 311.896H337.925V296.67C337.925 296.068 338.164 295.491 338.59 295.065C339.015 294.64 339.593 294.4 340.195 294.4H347.902C351.534 294.4 355.017 295.843 357.585 298.411C360.154 300.98 361.596 304.463 361.596 308.095V311.896Z" fill="#16A75C"/>
<path d="M273.275 320.496H306.575C307.279 320.496 307.85 319.925 307.85 319.221V318.512C307.85 317.808 307.279 317.237 306.575 317.237H273.275C272.571 317.237 272 317.808 272 318.512V319.221C272 319.925 272.571 320.496 273.275 320.496Z" fill="#006430"/>
<path d="M315.398 320.496H291.726V305.27C291.726 304.668 291.965 304.091 292.391 303.665C292.817 303.239 293.394 303 293.996 303H301.703C305.335 303 308.818 304.443 311.387 307.011C313.955 309.58 315.398 313.063 315.398 316.695V320.496Z" fill="#16A75C"/>
<path d="M110.315 183.119L110.339 186.168H110.414L110.398 185.625H119.919V186.053L120.339 186.048L134.318 178.878L134.439 167.249L114.803 176.112C113.457 176.72 112.316 177.706 111.519 178.95C110.723 180.194 110.304 181.642 110.315 183.119Z" fill="#424242"/>
<path d="M450.409 183.119C450.42 181.642 450.002 180.193 449.205 178.949C448.409 177.705 447.268 176.719 445.922 176.111L426.285 167.248L426.405 178.877L440.385 186.047L440.805 186.052V185.337H450.325L450.301 186.169H450.386L450.409 183.119Z" fill="#424242"/>
<path d="M110.398 185.624L110.414 186.167L113.472 291.129H119.919V185.625L110.398 185.624Z" fill="#424242"/>
<path d="M440.806 185.337V291.129H447.253L450.302 186.167L450.327 185.334L440.806 185.337Z" fill="#424242"/>
<path d="M406.852 126.758H343.44C340.16 126.755 336.918 127.467 333.941 128.846C332.815 124.782 330.389 121.199 327.034 118.646C323.678 116.093 319.579 114.709 315.362 114.708H245.2C240.943 114.708 236.806 116.117 233.434 118.714C230.061 121.311 227.643 124.951 226.555 129.067C223.453 127.544 220.043 126.754 216.587 126.758H153.176C147.167 126.758 141.405 129.145 137.156 133.394C132.907 137.642 130.521 143.405 130.521 149.413V207.738H429.507V149.413C429.507 146.438 428.921 143.492 427.783 140.744C426.644 137.995 424.976 135.497 422.872 133.394C420.768 131.29 418.271 129.621 415.522 128.483C412.773 127.344 409.827 126.758 406.852 126.758Z" fill="#424242"/>
<path d="M440.889 220.271H119.379V252.084H440.889V220.271Z" fill="#424242"/>
<path d="M130.521 207.738L119.248 220.285L440.167 220.271L429.508 207.738H130.521Z" fill="#616161"/>
<path d="M441.372 252.084H119.379V267.992H441.372V252.084Z" fill="#424242"/>
<path d="M172.795 203.003L165.92 139.581C165.603 136.657 164.138 133.98 161.847 132.137C159.556 130.294 156.626 129.437 153.703 129.753L132.584 132.038C130.801 132.231 129.092 132.855 127.605 133.856C126.644 132.891 125.413 132.239 124.074 131.987C120.952 131.362 118.027 132.828 117.542 135.254C117.057 137.68 119.193 140.157 122.315 140.781C122.515 140.82 122.713 140.852 122.91 140.875C122.686 141.988 122.635 143.128 122.758 144.256L129.632 207.677C129.701 208.274 129.818 208.864 129.982 209.442C128.788 209.902 127.748 210.689 126.98 211.712C125.041 214.238 125.061 217.513 127.026 219.016C128.991 220.52 132.154 219.699 134.094 217.174C134.388 216.783 134.641 216.363 134.85 215.921C136.94 217.216 139.403 217.775 141.848 217.509L162.968 215.22C165.891 214.903 168.569 213.437 170.411 211.146C172.254 208.855 173.111 205.926 172.795 203.003Z" fill="white"/>
<path opacity="0.15" d="M150.788 171.789C152.898 190.681 150.122 206.498 144.589 207.116C139.055 207.734 132.859 192.919 130.749 174.026C128.64 155.132 131.415 139.316 136.949 138.698C142.483 138.08 148.679 152.895 150.788 171.789Z" fill="#4DC27E"/>
<path d="M221.565 116.251L205.14 78.1431L192.722 84.3523L194.748 90.3891C190.615 88.5522 185.626 88.1193 179.855 88.8204C173.987 89.2172 168.085 90.9717 162.301 91.8804C154.64 93.0843 146.844 93.8544 140.436 98.7017C134.346 103.309 131.473 110.387 130.971 117.838C130.808 121.357 130.864 124.884 131.139 128.397C131.139 131.978 131.56 135.61 131.767 139.186C131.973 142.761 132.231 146.324 132.523 149.891C132.851 153.694 133.213 157.494 133.61 161.29L133.756 162.698L134.123 163.757C134.306 164.283 134.527 164.796 134.783 165.29C135.069 165.833 135.4 166.352 135.772 166.841C136.154 167.342 136.579 167.809 137.042 168.237C137.48 168.641 137.951 169.009 138.45 169.336C139.856 170.257 141.453 170.847 143.12 171.061C143.381 171.093 143.644 171.119 143.908 171.137C144.187 171.156 144.348 171.156 144.574 171.159C145.03 171.163 145.342 171.143 145.686 171.117C146.029 171.091 146.265 171.056 146.558 171.016L147.269 170.891C147.95 170.75 148.622 170.567 149.279 170.341C149.427 170.291 149.558 170.241 149.695 170.191L150.557 188.66C150.741 190.563 155.45 192.165 157.331 191.829L209.055 182.606C209.203 182.58 209.344 182.523 209.47 182.441C209.596 182.358 209.704 182.25 209.787 182.124C209.87 181.998 209.926 181.857 209.953 181.709C209.98 181.56 209.976 181.408 209.942 181.261L202.299 148.541L213.432 141.761C217.635 139.203 220.772 135.213 222.266 130.526C223.761 125.838 223.511 120.769 221.565 116.251Z" fill="#16A75C"/>
<path opacity="0.67" d="M149.738 170.575L185.787 144.503L149.738 173.246V170.575Z" fill="#006430"/>
<path opacity="0.67" d="M149.515 117.848L156.265 140.905L175.996 130.223L153.595 147.136L149.515 117.848Z" fill="#006430"/>
<path d="M179.949 116.813C180.614 116.03 181.494 115.46 182.48 115.171C183.466 114.882 184.515 114.887 185.497 115.186C186.543 115.504 187.508 116.042 188.328 116.764C189.148 117.486 189.804 118.376 190.251 119.373L201.827 145.195L196.623 145.984C194.207 146.351 192.015 147.609 190.48 149.51C189.496 150.728 188.168 151.623 186.669 152.078C185.17 152.533 183.569 152.527 182.073 152.061L179.104 151.136L178.548 120.75C178.519 119.311 179.018 117.911 179.949 116.813Z" fill="white"/>
<path d="M186.273 118.832L197.237 145.89C194.635 146.285 192.248 147.563 190.477 149.51L186.273 118.832Z" fill="#E8E8E8"/>
<path d="M171.588 138.666C171.481 137.621 171.623 136.565 172.003 135.584C172.688 134.225 173.63 133.01 174.777 132.008C175.806 130.92 176.987 129.985 178.283 129.234C178.556 129.077 178.815 128.931 179.053 128.798C181.699 127.436 184.139 125.707 186.301 123.662L188.367 121.58C188.718 121.228 189.194 121.03 189.691 121.028C190.187 121.026 190.665 121.22 191.019 121.569L191.144 121.692C191.432 121.982 191.618 122.358 191.674 122.762C191.729 123.167 191.651 123.579 191.451 123.935C191.51 123.91 191.57 123.885 191.632 123.861L191.857 123.634C192.208 123.283 192.683 123.085 193.18 123.083C193.676 123.081 194.153 123.276 194.507 123.625L194.631 123.75C194.983 124.101 195.181 124.577 195.183 125.074C195.184 125.571 194.989 126.048 194.639 126.402L194.61 126.431C195.045 126.454 195.458 126.629 195.777 126.926L195.906 127.047C196.266 127.388 196.477 127.859 196.491 128.355C196.506 128.852 196.324 129.334 195.985 129.696L195.321 130.401C195.309 130.449 195.304 130.489 195.29 130.539L195.311 130.636C195.583 130.541 195.875 130.517 196.158 130.569C196.442 130.62 196.707 130.744 196.928 130.929L197.047 131.03C197.384 131.315 197.594 131.722 197.631 132.161C197.668 132.601 197.529 133.037 197.246 133.375L195.322 135.654C195.291 135.776 189.236 142.233 184.387 147.171C183.894 147.74 183.292 148.202 182.617 148.532C181.941 148.863 181.206 149.053 180.456 149.092C178.833 148.969 177.304 148.284 176.133 147.154C173.609 144.994 171.987 141.965 171.588 138.666Z" fill="#F4A386"/>
<path d="M185.451 130.142C185.389 130.142 185.328 130.124 185.276 130.089C185.224 130.054 185.184 130.005 185.16 129.948C185.136 129.891 185.13 129.827 185.142 129.766C185.154 129.705 185.184 129.649 185.227 129.605L191.218 123.569C191.277 123.509 191.357 123.476 191.441 123.476C191.525 123.475 191.605 123.508 191.664 123.567C191.724 123.626 191.757 123.706 191.758 123.79C191.758 123.874 191.725 123.954 191.666 124.014L185.675 130.049C185.646 130.078 185.611 130.102 185.573 130.118C185.534 130.134 185.493 130.142 185.451 130.142Z" fill="#FF8E77"/>
<path d="M187.889 133.263C187.848 133.263 187.807 133.255 187.769 133.239C187.731 133.223 187.696 133.2 187.667 133.171C187.608 133.112 187.575 133.032 187.575 132.948C187.575 132.865 187.608 132.784 187.667 132.725L193.657 126.69C193.716 126.631 193.796 126.597 193.879 126.596C193.963 126.596 194.044 126.629 194.103 126.688C194.163 126.746 194.196 126.827 194.197 126.91C194.197 126.994 194.164 127.075 194.106 127.134L188.116 133.169C188.086 133.199 188.051 133.223 188.012 133.239C187.973 133.255 187.931 133.263 187.889 133.263Z" fill="#FF8E77"/>
<path d="M189.37 137.176C189.29 137.176 189.213 137.146 189.155 137.092C189.094 137.035 189.058 136.956 189.055 136.872C189.052 136.789 189.082 136.707 189.139 136.646L194.945 130.433C195.002 130.373 195.081 130.338 195.164 130.335C195.247 130.333 195.328 130.363 195.388 130.42C195.449 130.477 195.485 130.555 195.488 130.638C195.491 130.721 195.462 130.802 195.405 130.863L189.605 137.077C189.575 137.109 189.538 137.134 189.498 137.151C189.458 137.168 189.414 137.177 189.37 137.176Z" fill="#FF8E77"/>
<path d="M271.473 199.948L277.925 187.926C277.961 187.866 277.999 187.808 278.041 187.753C278.294 187.387 278.671 187.125 279.103 187.017C279.534 186.908 279.991 186.961 280.386 187.164L289.966 192.105L301.987 179.708C302.338 179.347 302.764 179.066 303.235 178.887C303.707 178.708 304.212 178.635 304.714 178.672C305.217 178.71 305.705 178.857 306.145 179.104C306.584 179.351 306.964 179.692 307.257 180.102C307.649 180.65 307.9 181.287 307.987 181.955C308.074 182.623 307.995 183.303 307.757 183.933L299.042 206.95C298.703 207.846 298.032 208.578 297.168 208.993C296.304 209.409 295.314 209.477 294.402 209.182L292.794 208.56L272.93 203.302C272.591 203.211 272.276 203.044 272.01 202.815C271.744 202.585 271.533 202.298 271.393 201.976C271.253 201.654 271.188 201.304 271.202 200.953C271.215 200.601 271.308 200.258 271.473 199.948Z" fill="#FFB900"/>
<path d="M281.279 184.328L256.583 173.625L226.938 191.317L277.856 205.977L283.48 189.27C283.798 188.321 283.749 187.286 283.342 186.371C282.934 185.456 282.198 184.727 281.279 184.328Z" fill="#EEEEEE"/>
<path d="M300.014 214.669L302.856 201.324C302.874 201.257 302.895 201.19 302.92 201.125C303.06 200.703 303.349 200.346 303.733 200.121C304.117 199.896 304.57 199.819 305.007 199.904L315.584 201.976L323.67 186.72C323.905 186.274 324.236 185.886 324.639 185.582C325.041 185.279 325.506 185.068 325.999 184.963C326.492 184.859 327.002 184.864 327.493 184.979C327.984 185.094 328.444 185.315 328.84 185.627C329.369 186.044 329.788 186.585 330.058 187.203C330.328 187.82 330.441 188.495 330.387 189.167L328.441 213.703C328.365 214.658 327.925 215.548 327.212 216.188C326.498 216.828 325.566 217.169 324.608 217.141L322.891 216.992L302.349 217.483C301.997 217.49 301.649 217.418 301.329 217.271C301.01 217.125 300.727 216.909 300.503 216.638C300.278 216.367 300.118 216.05 300.033 215.709C299.949 215.368 299.942 215.012 300.014 214.668V214.669Z" fill="#FFB900"/>
<path d="M320.53 210.059C319.861 211.095 319.487 212.295 319.451 213.528C319.414 214.761 319.716 215.981 320.323 217.055L322.891 216.993L324.608 217.142C325.566 217.17 326.498 216.829 327.212 216.189C327.925 215.549 328.365 214.659 328.441 213.704L328.93 207.547C327.459 206.899 325.806 206.796 324.267 207.256C322.728 207.717 321.403 208.71 320.53 210.059Z" fill="#FFE483"/>
<path d="M178.321 219.132L304.506 218.687C305.326 218.684 306.115 218.368 306.71 217.803C307.305 217.238 307.662 216.467 307.707 215.648L308.615 199.311C308.644 198.794 308.471 198.286 308.134 197.893C307.797 197.499 307.321 197.252 306.806 197.201L244.938 191.123L167.697 192.552L167.829 209.225C167.839 210.573 168.122 211.905 168.661 213.141C169.199 214.377 169.982 215.491 170.962 216.416C171.942 217.342 173.1 218.059 174.364 218.526C175.629 218.993 176.975 219.199 178.321 219.132Z" fill="#F5F5F5"/>
<path d="M196.049 48.6506C196.219 47.439 195.95 46.2067 195.291 45.1759C194.632 44.1452 193.626 43.384 192.455 43.0299C191.439 40.8635 189.859 39.0098 187.881 37.6624C185.904 36.3149 183.6 35.5231 181.212 35.3697L171.05 34.8476C169.387 34.7608 167.726 35.0373 166.181 35.658C164.636 36.2786 163.244 37.2285 162.104 38.4415C161.264 38.4882 160.445 38.7267 159.711 39.1386C158.978 39.5505 158.348 40.125 157.871 40.8179C157.393 41.5109 157.081 42.3039 156.957 43.1363C156.834 43.9687 156.902 44.8183 157.158 45.62C156.254 45.9837 155.458 46.5725 154.846 47.3304C154.233 48.0883 153.825 48.9902 153.659 49.9504C153.493 50.9106 153.575 51.8972 153.898 52.8166C154.221 53.7361 154.773 54.5577 155.503 55.2036C154.704 56.204 154.268 57.4447 154.263 58.7246C154.258 60.0044 154.686 61.2483 155.478 62.2543C155.512 63.477 155.842 64.6732 156.438 65.741C157.035 66.8089 157.881 67.7166 158.904 68.387L160.552 75.5142L162.541 70.9393C162.721 70.5193 162.851 70.0794 162.927 69.6287C164.564 69.6592 166.167 69.1577 167.495 68.1995C169.111 69.3636 171.052 69.9911 173.043 69.9935H179.904C182.318 69.9853 184.641 69.0689 186.411 67.4266C188.18 65.7843 189.267 63.5364 189.455 61.1295C190.454 61.0804 191.42 60.7603 192.25 60.2035C193.081 59.6467 193.744 58.8743 194.168 57.9691C194.593 57.064 194.763 56.0603 194.66 55.0658C194.557 54.0713 194.186 53.1236 193.585 52.3243C194.245 51.9364 194.81 51.4046 195.236 50.7686C195.663 50.1326 195.941 49.4087 196.049 48.6506Z" fill="#441B14"/>
<path d="M188.561 56.9285C185.456 59.0605 181.051 56.2182 178.311 53.929C177.877 54.9458 177.132 55.7985 176.182 56.3645C175.232 56.9306 174.128 57.1806 173.027 57.0788C171.926 56.9769 170.886 56.5283 170.056 55.7976C169.227 55.0669 168.651 54.0918 168.411 53.0127C167.537 53.777 166.863 54.742 166.445 55.8247C165.668 57.8869 165.765 60.2206 165.547 62.382C165.446 63.3807 165.379 64.3836 165.272 65.3815C165.235 65.7329 165.281 66.4937 165.055 66.7938C164.038 68.149 164.087 67.3478 163.878 66.1398C163.633 64.6616 162.934 63.2963 161.879 62.2332C158.931 59.3177 154.025 61.5682 153.958 65.6076L153.945 66.3642C153.928 66.9964 154.036 67.6258 154.263 68.216C154.49 68.8063 154.832 69.3459 155.268 69.8036C155.704 70.2614 156.227 70.6284 156.806 70.8834C157.385 71.1385 158.008 71.2765 158.64 71.2897L160.238 71.309L160.195 73.7865C160.195 73.7865 158.61 82.975 157.568 90.1981C156.845 95.2051 179.041 93.8768 179.041 93.8768L179.293 87.7862C182.309 87.3013 185.059 85.772 187.062 83.4656C189.066 81.1591 190.195 78.2222 190.253 75.1677L190.49 60.9696L190.59 54.937C190.037 55.7156 189.35 56.39 188.561 56.9285Z" fill="#F4A386"/>
<path d="M157.42 68.4228C157.324 68.4228 157.231 68.3898 157.156 68.3293C157.081 68.2689 157.03 68.1846 157.009 68.0906C156.989 67.9966 157.002 67.8985 157.045 67.8127C157.089 67.7269 157.16 67.6586 157.248 67.6191L158.6 67.0122L157.526 64.591C157.481 64.4891 157.478 64.3734 157.518 64.2694C157.558 64.1653 157.638 64.0815 157.74 64.0362C157.842 63.9909 157.957 63.988 158.061 64.0281C158.165 64.0681 158.249 64.1478 158.295 64.2497L159.709 67.435L157.593 68.3858C157.538 68.4102 157.48 68.4228 157.42 68.4228Z" fill="#F07F57"/>
<path opacity="0.46" d="M162.021 74.5624C161.995 76.1238 162.277 77.6751 162.853 79.127C163.428 80.5788 164.285 81.9025 165.374 83.0218C166.463 84.1411 167.763 85.034 169.199 85.6489C170.634 86.2638 172.177 86.5888 173.739 86.605L178.135 86.6579C181.298 86.6949 184.347 85.4794 186.616 83.2768C188.886 81.0742 190.192 78.0633 190.25 74.9011L190.406 65.584L190.246 75.1676C190.187 78.2707 189.022 81.2506 186.961 83.5711C184.9 85.8916 182.078 87.4003 179.004 87.8256L171.918 87.85C168.673 87.5643 165.658 86.0597 163.478 83.6394C161.299 81.219 160.117 78.0627 160.172 74.8061L160.231 71.3089L162.075 71.3308L162.021 74.5624Z" fill="#F07F57"/>
<path d="M174.502 108.331L157.441 102.468C150.734 100.164 147.052 93.1876 149.217 86.8868C151.036 81.5906 155.649 77.0089 162.924 84.1025C164.551 85.7012 166.537 86.8875 168.717 87.5622C170.896 88.237 173.204 88.3807 175.45 87.9814L181.011 86.9381C186.539 86.4892 191.645 90.7211 191.542 96.0173C191.483 97.7513 191.155 99.4656 190.571 101.099C188.401 107.392 181.209 110.632 174.502 108.331Z" fill="#4DC27E"/>
<path opacity="0.45" d="M180.659 98.0753C186.95 95.8206 188.73 91.218 188.803 91.0229C188.861 90.838 188.849 90.6377 188.767 90.4618C188.685 90.2859 188.54 90.1471 188.361 90.073C188.278 90.0314 188.187 90.0074 188.094 90.0026C188.001 89.9978 187.909 90.0122 187.822 90.045C187.735 90.0777 187.656 90.1281 187.589 90.193C187.523 90.2579 187.471 90.3358 187.436 90.4218C187.42 90.4656 185.795 94.6689 180.056 96.7269C176.49 97.8679 172.706 98.1525 169.01 97.5575C160.328 90.9775 159.594 82.7289 159.563 82.2245C159.546 82.003 159.442 81.7973 159.274 81.6515C159.106 81.5057 158.888 81.4313 158.666 81.4443C158.444 81.4596 158.237 81.5624 158.091 81.7301C157.945 81.8978 157.871 82.1167 157.885 82.3388C157.894 82.4615 158.544 90.194 165.906 97.0295C160.633 95.8468 155.517 94.0471 150.664 91.6677C150.582 91.623 150.492 91.5958 150.399 91.5878C150.306 91.5798 150.213 91.5912 150.125 91.6212C150.037 91.6513 149.956 91.6993 149.887 91.7623C149.818 91.8253 149.763 91.9019 149.726 91.9872C149.671 92.1337 149.664 92.2937 149.705 92.4445C149.746 92.5954 149.834 92.7295 149.955 92.8278C150.011 92.8757 150.072 92.9156 150.139 92.9464C156.841 96.1208 162.831 98.1011 168.109 98.8874C172.366 102.135 178.385 104.976 186.896 106.395C186.942 106.402 186.988 106.406 187.034 106.406C187.245 106.407 187.449 106.328 187.605 106.185C187.761 106.042 187.857 105.846 187.875 105.635C187.892 105.424 187.829 105.215 187.699 105.048C187.569 104.881 187.381 104.77 187.172 104.736C181.636 103.936 176.307 102.069 171.482 99.2396C174.588 99.4669 177.708 99.0711 180.659 98.0753Z" fill="#16A75C"/>
<path opacity="0.46" d="M183.861 80.5575L188.672 74.8123C189.072 74.3331 189.585 73.9601 190.165 73.7265C190.744 73.4929 191.373 73.4059 191.994 73.4731L199.093 74.2398C199.95 74.5093 200.789 74.8307 201.606 75.2024C200.408 74.5519 199.143 74.033 197.833 73.6547L190.94 73.031C190.337 72.9767 189.73 73.0718 189.173 73.3079C188.616 73.5439 188.125 73.9137 187.745 74.3844L183.18 80.0329C182.962 80.3031 182.801 80.615 182.707 80.9495C182.613 81.284 182.588 81.6342 182.633 81.9787C182.679 82.3232 182.794 82.6547 182.972 82.9532C183.15 83.2518 183.387 83.5109 183.668 83.715L183.743 83.7697C183.405 83.2963 183.233 82.7245 183.255 82.1434C183.276 81.5623 183.49 81.0047 183.861 80.5575Z" fill="#F07F57"/>
<path d="M201.606 75.2025C200.789 74.8308 199.95 74.5094 199.093 74.24L191.994 73.4733C191.373 73.406 190.744 73.493 190.165 73.7266C189.585 73.9602 189.072 74.3332 188.671 74.8124L183.861 80.5576C183.637 80.8352 183.471 81.1546 183.372 81.4971C183.272 81.8396 183.242 82.1985 183.283 82.5528C183.324 82.9071 183.434 83.2497 183.609 83.5608C183.783 83.872 184.017 84.1453 184.298 84.365L184.835 84.7677L185.554 85.3099L187.458 80.7375L184.741 87.2619C184.655 87.4719 184.634 87.703 184.68 87.9252C184.727 88.1749 184.854 88.4022 185.043 88.5717C185.233 88.7413 185.472 88.8435 185.726 88.8626C186.052 88.8845 186.379 88.8272 186.679 88.6954C186.979 88.5637 187.242 88.3615 187.447 88.106C187.471 88.0757 187.502 88.0538 187.526 88.0219L191.871 82.0187L187.857 89.4502C187.842 89.4828 187.83 89.5166 187.821 89.5511C187.779 89.6686 187.77 89.7954 187.795 89.9177C187.82 90.0399 187.878 90.153 187.962 90.2447C188.047 90.3363 188.155 90.4029 188.275 90.4373C188.395 90.4716 188.522 90.4725 188.643 90.4397C190.865 89.8325 192.811 88.4792 194.153 86.607L195.319 84.9804C196.561 86.1129 198.039 86.9555 199.646 87.4473C201.253 87.9392 202.949 88.0679 204.612 87.8243C204.975 87.7702 205.32 87.6301 205.617 87.4157C205.915 87.2013 206.157 86.9189 206.323 86.5919C207.476 84.3213 209.288 78.7207 201.606 75.2025Z" fill="#F4A386"/>
<path d="M185.174 85.0392C185.138 84.9947 185.114 84.9408 185.107 84.8837C185.1 84.8266 185.109 84.7686 185.133 84.7164L187.301 80.0482C187.335 79.9745 187.397 79.9174 187.474 79.8895C187.55 79.8616 187.634 79.8651 187.708 79.8994C187.782 79.9336 187.839 79.9957 187.867 80.072C187.895 80.1483 187.891 80.2326 187.857 80.3062L185.688 84.9753C185.654 85.0487 185.592 85.1055 185.515 85.1332C185.439 85.161 185.355 85.1574 185.282 85.1233C185.24 85.104 185.203 85.0752 185.174 85.0392Z" fill="#F29270"/>
<path d="M190.644 82.2255C190.598 82.1689 190.574 82.0979 190.576 82.0252C190.578 81.9525 190.605 81.8828 190.654 81.8287C190.703 81.7746 190.769 81.7395 190.841 81.7298C190.913 81.7201 190.986 81.7364 191.047 81.7757C191.047 81.7757 191.57 82.112 192.146 82.5046C192.205 82.553 192.244 82.6218 192.255 82.6973C192.266 82.7729 192.248 82.8499 192.205 82.9131C192.162 82.9762 192.097 83.0211 192.023 83.0389C191.949 83.0566 191.871 83.046 191.804 83.009C191.232 82.6231 190.711 82.2869 190.711 82.286C190.686 82.2694 190.663 82.249 190.644 82.2255Z" fill="#F29270"/>
<path d="M186.989 79.8707C186.944 79.814 186.92 79.743 186.922 79.6703C186.924 79.5976 186.952 79.5281 187 79.474C187.049 79.4199 187.115 79.3848 187.187 79.3749C187.259 79.365 187.332 79.3811 187.394 79.4201C187.394 79.4201 187.916 79.7564 188.491 80.149C188.551 80.1974 188.589 80.2661 188.6 80.3417C188.611 80.4173 188.594 80.4942 188.551 80.5574C188.508 80.6206 188.443 80.6655 188.369 80.6833C188.294 80.701 188.216 80.6903 188.149 80.6534C187.578 80.2675 187.061 79.9321 187.056 79.9312C187.031 79.9143 187.009 79.894 186.989 79.8707Z" fill="#F29270"/>
<path d="M194.745 85.3376C194.702 85.2848 194.678 85.2189 194.677 85.1506C194.675 85.0824 194.697 85.0156 194.738 84.961C194.946 84.6527 195.116 84.3198 195.242 83.9699C195.254 83.9304 195.274 83.8937 195.3 83.8621C195.327 83.8305 195.359 83.8045 195.396 83.7858C195.433 83.7671 195.473 83.756 195.514 83.7532C195.555 83.7503 195.597 83.7559 195.636 83.7694C195.675 83.783 195.71 83.8043 195.741 83.832C195.771 83.8598 195.796 83.8934 195.813 83.9309C195.83 83.9684 195.84 84.0089 195.841 84.0502C195.842 84.0914 195.835 84.1324 195.82 84.1708C195.675 84.5801 195.477 84.9687 195.231 85.3267C195.207 85.3591 195.177 85.3864 195.143 85.407C195.108 85.4277 195.07 85.4413 195.03 85.4471C194.99 85.4529 194.949 85.4507 194.91 85.4407C194.871 85.4307 194.835 85.4131 194.803 85.3889C194.782 85.374 194.762 85.3568 194.745 85.3376Z" fill="#F29270"/>
<path opacity="0.67" d="M201.003 110.468L192.315 89.5005L194.726 90.2789" fill="#006430"/>
<path d="M274.443 182.373C274.443 182.373 237.513 182.072 228.659 202.24C219.805 222.409 218.79 246.131 212.778 247.204C206.765 248.278 135.525 255.588 130.284 239.134C125.044 222.679 144.854 179.16 157.65 167.826C162.257 163.745 180.844 147.65 204.083 141.892C230.516 135.344 257.886 148.617 269.88 173.068L274.443 182.373Z" fill="#FFB900"/>
<path d="M172.943 250.126C153.013 250.126 132.63 247.882 129.883 239.265C124.583 222.628 144.393 179.011 157.373 167.515C165.851 160.007 183.182 146.642 203.984 141.488C230.269 134.977 258.14 148.183 270.259 172.886L275.123 182.799L274.442 182.794C274.064 182.794 237.685 182.727 229.046 202.409C225.05 211.511 222.622 221.484 220.67 229.498C218.198 239.648 216.413 246.984 212.852 247.618C209.746 248.172 191.542 250.126 172.943 250.126ZM217.538 140.677C213.038 140.676 208.553 141.222 204.184 142.304C183.554 147.416 166.349 160.688 157.928 168.144C145.086 179.519 125.458 222.608 130.685 239.013C135.822 255.136 206.336 247.93 212.705 246.792C215.723 246.253 217.545 238.771 219.85 229.3C221.809 221.255 224.247 211.242 228.272 202.072C236.47 183.4 268.685 182.056 273.771 181.961L269.501 173.26C264.726 163.535 257.333 155.333 248.154 149.578C238.975 143.822 228.373 140.74 217.538 140.677Z" fill="#FFB900"/>
<path d="M212.778 247.204C218.79 246.131 219.805 222.404 228.659 202.24C237.513 182.076 274.443 182.373 274.443 182.373L269.88 173.072C269.035 171.348 268.104 169.685 267.106 168.074C258.385 166.032 249.304 166.09 240.609 168.243C217.37 174 198.783 190.096 194.176 194.176C184.467 202.777 170.729 229.905 166.951 249.678C187.49 250.153 209.548 247.781 212.778 247.204Z" fill="#FFD026"/>
<path d="M89.202 187.073H15.93C14.1411 187.073 12.6909 188.523 12.6909 190.312V224.707C12.6909 226.496 14.1411 227.946 15.93 227.946H89.202C90.9909 227.946 92.4411 226.496 92.4411 224.707V190.312C92.4411 188.523 90.9909 187.073 89.202 187.073Z" fill="#424242"/>
<path opacity="0.42" d="M72.7753 196.61H31.8321C31.5406 196.61 31.3042 196.846 31.3042 197.138V218.701C31.3042 218.993 31.5406 219.229 31.8321 219.229H72.7753C73.0669 219.229 73.3032 218.993 73.3032 218.701V197.138C73.3032 196.846 73.0669 196.61 72.7753 196.61Z" fill="#424242"/>
<path d="M55.3954 207.92C55.3954 208.531 55.214 209.129 54.8741 209.638C54.5343 210.146 54.0513 210.543 53.4861 210.777C52.921 211.011 52.2991 211.072 51.6992 210.953C51.0992 210.834 50.5481 210.539 50.1156 210.106C49.683 209.674 49.3885 209.123 49.2691 208.523C49.1498 207.923 49.2111 207.301 49.4451 206.736C49.6792 206.171 50.0756 205.688 50.5843 205.348C51.0929 205.008 51.6908 204.827 52.3025 204.827C52.7087 204.827 53.1109 204.907 53.4861 205.062C53.8614 205.218 54.2023 205.445 54.4895 205.733C54.7767 206.02 55.0045 206.361 55.1599 206.736C55.3154 207.111 55.3954 207.513 55.3954 207.92Z" fill="#424242"/>
<path d="M90.5186 184.394H13.709C11.6606 184.394 10 186.055 10 188.103V188.126C10 190.174 11.6606 191.835 13.709 191.835H90.5186C92.567 191.835 94.2276 190.174 94.2276 188.126V188.103C94.2276 186.055 92.567 184.394 90.5186 184.394Z" fill="#424242"/>
<path d="M18.7117 264.213L14.9884 287.856C14.4714 289.891 16.3116 291.891 18.1392 291.282H18.6755C19.6625 291.275 20.63 291.008 21.4803 290.507C22.3306 290.006 23.0335 289.289 23.5178 288.429L23.5338 288.403L38.4683 263.413L18.7117 264.213Z" fill="#424242"/>
<path d="M84.1697 264.213L87.893 287.856C88.41 289.891 86.5698 291.891 84.7422 291.282H84.2058C83.2189 291.275 82.2514 291.008 81.4011 290.507C80.5508 290.006 79.8479 289.289 79.3636 288.429L79.3476 288.403L64.4131 263.413L84.1697 264.213Z" fill="#424242"/>
<path d="M88.7976 227.693H15.5265C13.7375 227.693 12.2874 229.143 12.2874 230.932V265.327C12.2874 267.116 13.7375 268.566 15.5265 268.566H88.7976C90.5865 268.566 92.0367 267.116 92.0367 265.327V230.932C92.0367 229.143 90.5865 227.693 88.7976 227.693Z" fill="#424242"/>
<path opacity="0.42" d="M72.3717 237.23H31.4286C31.137 237.23 30.9006 237.467 30.9006 237.758V259.322C30.9006 259.613 31.137 259.85 31.4286 259.85H72.3717C72.6633 259.85 72.8997 259.613 72.8997 259.322V237.758C72.8997 237.467 72.6633 237.23 72.3717 237.23Z" fill="#424242"/>
<path d="M54.9935 248.54C54.9932 249.152 54.8114 249.75 54.4713 250.258C54.1311 250.767 53.6479 251.163 53.0825 251.397C52.5172 251.631 51.8952 251.692 51.2952 251.572C50.6952 251.453 50.1442 251.158 49.7117 250.725C49.2792 250.292 48.9847 249.741 48.8655 249.141C48.7462 248.541 48.8076 247.919 49.0418 247.354C49.276 246.789 49.6725 246.306 50.1812 245.966C50.69 245.626 51.288 245.445 51.8998 245.445C52.3062 245.445 52.7087 245.525 53.0841 245.68C53.4596 245.836 53.8007 246.064 54.088 246.351C54.3753 246.639 54.6031 246.98 54.7585 247.356C54.9138 247.731 54.9937 248.134 54.9935 248.54Z" fill="#424242"/>
<path d="M91.9005 229.597H12.3261C11.9265 229.597 11.5433 229.438 11.2608 229.156C10.9783 228.873 10.8196 228.49 10.8196 228.091C10.8196 227.691 10.9783 227.308 11.2608 227.025C11.5433 226.743 11.9265 226.584 12.3261 226.584H91.9005C92.0984 226.584 92.2944 226.623 92.4773 226.699C92.6602 226.774 92.8264 226.885 92.9663 227.025C93.1063 227.165 93.2174 227.331 93.2931 227.514C93.3689 227.697 93.4079 227.893 93.4079 228.091C93.4079 228.289 93.3689 228.485 93.2931 228.667C93.2174 228.85 93.1063 229.016 92.9663 229.156C92.8264 229.296 92.6602 229.407 92.4773 229.483C92.2944 229.558 92.0984 229.597 91.9005 229.597Z" fill="#424242"/>
<path d="M64.0543 175.081L62.7841 164.687C62.7304 164.252 62.8009 163.811 62.9872 163.414C63.1736 163.017 63.4683 162.681 63.8374 162.445C64.2065 162.208 64.635 162.081 65.0733 162.078C65.5117 162.074 65.9421 162.195 66.3149 162.425L67.1144 162.918C67.4952 163.153 67.9356 163.273 68.3829 163.264C68.8303 163.255 69.2655 163.117 69.6364 162.867L72.7839 160.746C73.061 160.559 73.375 160.434 73.7046 160.38C74.0342 160.326 74.3717 160.343 74.694 160.431C75.0164 160.518 75.316 160.674 75.5726 160.888C75.8292 161.102 76.0367 161.369 76.181 161.67L76.8577 163.083C77.0583 163.501 77.3791 163.85 77.779 164.084C78.1789 164.319 78.6397 164.428 79.1023 164.399C79.4877 164.375 79.8732 164.447 80.2238 164.608C80.5745 164.77 80.8793 165.017 81.1109 165.326C81.3424 165.635 81.4934 165.997 81.5502 166.379C81.6069 166.761 81.5677 167.151 81.436 167.514L78.6887 175.08L64.0543 175.081Z" fill="white"/>
<path opacity="0.38" d="M66.1855 162.392L67.6988 175.086H70.7949L70.3393 162.392C70.3393 162.392 69.2817 163.764 66.1855 162.392Z" fill="#E9E9F4"/>
<path opacity="0.38" d="M78.8032 164.398L76.3198 175.08H73.2236L76.7133 162.789C76.7133 162.789 77.4169 164.549 78.8032 164.398Z" fill="#E9E9F4"/>
<path d="M85.5494 171.19H58.7875C57.9954 171.19 57.3533 171.832 57.3533 172.624V182.945C57.3533 183.737 57.9954 184.379 58.7875 184.379H85.5494C86.3414 184.379 86.9835 183.737 86.9835 182.945V172.624C86.9835 171.832 86.3414 171.19 85.5494 171.19Z" fill="#1E88E5"/>
<path d="M78.8502 179.536H65.4835C65.1272 179.535 64.7858 179.393 64.5339 179.141C64.2819 178.889 64.1398 178.547 64.1384 178.191V174.738C64.1384 174.562 64.1732 174.387 64.2408 174.224C64.3084 174.06 64.4075 173.912 64.5324 173.787C64.6573 173.662 64.8056 173.563 64.9688 173.496C65.132 173.428 65.3069 173.393 65.4835 173.393H78.8502C79.0268 173.393 79.2017 173.428 79.3649 173.496C79.5281 173.563 79.6764 173.662 79.8013 173.787C79.9262 173.912 80.0252 174.06 80.0928 174.224C80.1604 174.387 80.1952 174.562 80.1952 174.738V178.191C80.1939 178.547 80.0518 178.889 79.7998 179.141C79.5478 179.393 79.2065 179.535 78.8502 179.536ZM65.4835 174.23C65.4173 174.23 65.3517 174.243 65.2905 174.268C65.2293 174.294 65.1737 174.331 65.1268 174.378C65.08 174.424 65.0428 174.48 65.0175 174.541C64.9921 174.602 64.9791 174.668 64.9791 174.734V178.191C64.9791 178.325 65.0322 178.453 65.1268 178.548C65.2214 178.642 65.3497 178.695 65.4835 178.695H78.8502C78.9839 178.695 79.1122 178.642 79.2068 178.548C79.3014 178.453 79.3546 178.325 79.3546 178.191V174.738C79.3546 174.605 79.3014 174.476 79.2068 174.382C79.1122 174.287 78.9839 174.234 78.8502 174.234L65.4835 174.23Z" fill="#0D47A1"/>
<path d="M52.3529 165.762H44.9542C44.6083 165.762 44.3279 166.043 44.3279 166.389V183.787C44.3279 184.133 44.6083 184.414 44.9542 184.414H52.3529C52.6988 184.414 52.9792 184.133 52.9792 183.787V166.389C52.9792 166.043 52.6988 165.762 52.3529 165.762Z" fill="#F44336"/>
<path d="M52.8582 184.34C52.405 183.681 50.7716 183.193 48.8229 183.193C46.7994 183.193 45.1139 183.717 44.7356 184.414H52.6682C52.7379 184.411 52.8049 184.385 52.8582 184.34Z" fill="#D32F2F"/>
<path opacity="0.6" d="M52.3529 165.762H50.6556C50.3097 165.762 50.0293 166.043 50.0293 166.389V183.787C50.0293 184.133 50.3097 184.414 50.6556 184.414H52.3529C52.6988 184.414 52.9792 184.133 52.9792 183.787V166.389C52.9792 166.043 52.6988 165.762 52.3529 165.762Z" fill="#D32F2F"/>
<path d="M51.3163 171.065H45.9907C45.7176 171.065 45.4963 171.287 45.4963 171.56V173.678C45.4963 173.951 45.7176 174.173 45.9907 174.173H51.3163C51.5893 174.173 51.8106 173.951 51.8106 173.678V171.56C51.8106 171.287 51.5893 171.065 51.3163 171.065Z" fill="white"/>
<path d="M52.5159 165.385H44.7918C44.3391 165.385 43.9722 165.752 43.9722 166.205V166.354C43.9722 166.807 44.3391 167.174 44.7918 167.174H52.5159C52.9686 167.174 53.3356 166.807 53.3356 166.354V166.205C53.3356 165.752 52.9686 165.385 52.5159 165.385Z" fill="#E9E9F4"/>
<path d="M52.8651 166.522H44.4424C44.1157 166.521 43.8028 166.391 43.5719 166.16C43.341 165.929 43.2108 165.616 43.21 165.289C43.2108 164.963 43.341 164.649 43.5719 164.418C43.8028 164.187 44.1157 164.057 44.4424 164.056H52.8651C53.1919 164.057 53.505 164.187 53.7361 164.418C53.9672 164.649 54.0974 164.962 54.0983 165.289C54.0974 165.616 53.9672 165.929 53.7361 166.16C53.505 166.391 53.1919 166.522 52.8651 166.522Z" fill="white"/>
<path opacity="0.38" d="M53.4028 165.447H43.9032C43.719 165.447 43.5424 165.373 43.4121 165.243C43.2818 165.113 43.2085 164.936 43.208 164.752C43.2085 164.568 43.2818 164.391 43.4121 164.261C43.5423 164.13 43.7189 164.057 43.9032 164.056H53.4028C53.5871 164.057 53.7637 164.13 53.894 164.261C54.0242 164.391 54.0976 164.568 54.098 164.752C54.0976 164.936 54.0242 165.113 53.8939 165.243C53.7636 165.373 53.5871 165.447 53.4028 165.447Z" fill="#E9E9F4"/>
<path d="M28.0214 165.762H20.6226C20.2767 165.762 19.9963 166.043 19.9963 166.389V183.787C19.9963 184.133 20.2767 184.414 20.6226 184.414H28.0214C28.3673 184.414 28.6477 184.133 28.6477 183.787V166.389C28.6477 166.043 28.3673 165.762 28.0214 165.762Z" fill="#F44336"/>
<path d="M28.5267 184.34C28.0728 183.681 26.4393 183.193 24.4915 183.193C22.4672 183.193 20.7816 183.717 20.4033 184.414H28.3359C28.4059 184.411 28.4732 184.386 28.5267 184.34Z" fill="#D32F2F"/>
<path opacity="0.6" d="M28.0214 165.762H26.3241C25.9782 165.762 25.6978 166.043 25.6978 166.389V183.787C25.6978 184.133 25.9782 184.414 26.3241 184.414H28.0214C28.3673 184.414 28.6477 184.133 28.6477 183.787V166.389C28.6477 166.043 28.3673 165.762 28.0214 165.762Z" fill="#D32F2F"/>
<path d="M26.9848 171.065H21.6591C21.3861 171.065 21.1648 171.287 21.1648 171.56V173.678C21.1648 173.951 21.3861 174.173 21.6591 174.173H26.9848C27.2578 174.173 27.4791 173.951 27.4791 173.678V171.56C27.4791 171.287 27.2578 171.065 26.9848 171.065Z" fill="white"/>
<path d="M28.1836 165.385H20.4595C20.0069 165.385 19.6399 165.752 19.6399 166.205V166.354C19.6399 166.807 20.0069 167.174 20.4595 167.174H28.1836C28.6363 167.174 29.0033 166.807 29.0033 166.354V166.205C29.0033 165.752 28.6363 165.385 28.1836 165.385Z" fill="#E9E9F4"/>
<path d="M28.5336 166.522H20.1109C19.7841 166.522 19.471 166.391 19.2399 166.16C19.0088 165.929 18.8786 165.616 18.8777 165.289C18.8786 164.962 19.0088 164.649 19.2399 164.418C19.471 164.187 19.7841 164.057 20.1109 164.056H28.5336C28.8604 164.057 29.1736 164.187 29.4047 164.418C29.6358 164.649 29.766 164.962 29.7669 165.289C29.766 165.616 29.6358 165.929 29.4047 166.16C29.1736 166.391 28.8604 166.522 28.5336 166.522Z" fill="white"/>
<path opacity="0.38" d="M29.0705 165.447H19.571C19.3867 165.447 19.2101 165.373 19.0799 165.243C18.9496 165.113 18.8762 164.936 18.8757 164.752C18.8762 164.568 18.9495 164.391 19.0798 164.261C19.2101 164.13 19.3866 164.057 19.571 164.056H29.0705C29.2549 164.057 29.4316 164.13 29.562 164.261C29.6924 164.391 29.766 164.568 29.7666 164.752C29.766 164.936 29.6924 165.113 29.562 165.243C29.4315 165.373 29.2549 165.447 29.0705 165.447Z" fill="#E9E9F4"/>
<path d="M31.2797 165.01H41.9857C42.7917 165.01 43.5647 165.33 44.1346 165.9C44.7045 166.47 45.0247 167.243 45.0247 168.049V182.437C45.0247 182.965 44.8154 183.471 44.4426 183.845C44.0699 184.218 43.5642 184.429 43.0365 184.43H30.0322C29.7969 184.43 29.564 184.383 29.3466 184.293C29.1293 184.203 28.9318 184.071 28.7654 183.905C28.5991 183.739 28.4671 183.541 28.3771 183.324C28.2871 183.106 28.2407 182.874 28.2407 182.638V168.049C28.2407 167.243 28.5609 166.47 29.1308 165.9C29.7008 165.33 30.4737 165.01 31.2797 165.01V165.01Z" fill="#EF5350"/>
<path opacity="0.6" d="M40.8298 165.01H41.9857C42.3849 165.01 42.7801 165.089 43.149 165.241C43.5178 165.394 43.8529 165.618 44.1352 165.9C44.4175 166.182 44.6414 166.517 44.7942 166.886C44.9469 167.255 45.0256 167.65 45.0256 168.049V182.462C45.0256 182.983 44.8183 183.484 44.4494 183.853C44.0805 184.222 43.5801 184.429 43.0584 184.429H40.8298C40.0238 184.429 39.2508 184.109 38.6809 183.539C38.111 182.969 37.7908 182.196 37.7908 181.39V168.049C37.7908 167.243 38.111 166.47 38.6809 165.9C39.2508 165.33 40.0238 165.01 40.8298 165.01Z" fill="#F44336"/>
<path d="M45.1383 169.382H28.1282V178.352H45.1383V169.382Z" fill="white"/>
<path d="M42.6943 163.494H30.571V165.19H42.6943V163.494Z" fill="white"/>
<path d="M42.6943 163.494H30.571V165.19H42.6943V163.494Z" fill="#F44336"/>
<path d="M41.8538 163.143H31.4118C31.0413 163.143 30.6859 162.996 30.4239 162.734C30.1619 162.472 30.0146 162.116 30.0146 161.746C30.0146 161.562 30.0508 161.381 30.121 161.211C30.1912 161.042 30.2941 160.888 30.4239 160.758C30.5536 160.628 30.7076 160.525 30.8772 160.455C31.0467 160.385 31.2284 160.349 31.4118 160.349H41.8538C42.2244 160.349 42.5798 160.496 42.8418 160.758C43.1038 161.02 43.251 161.375 43.251 161.746C43.251 162.116 43.1038 162.472 42.8418 162.734C42.5798 162.996 42.2244 163.143 41.8538 163.143Z" fill="white"/>
<path d="M38.9081 172.709H37.7909V171.592C37.7909 171.466 37.7409 171.345 37.652 171.257C37.5631 171.168 37.4425 171.118 37.3167 171.118H35.9498C35.8875 171.118 35.8258 171.13 35.7682 171.154C35.7106 171.177 35.6583 171.212 35.6143 171.256C35.5702 171.3 35.5353 171.353 35.5115 171.41C35.4877 171.468 35.4756 171.53 35.4757 171.592V172.709H34.3576C34.232 172.709 34.1116 172.759 34.0228 172.848C33.9341 172.937 33.8843 173.058 33.8843 173.183V174.55C33.8842 174.612 33.8963 174.674 33.9201 174.732C33.9438 174.789 33.9786 174.841 34.0226 174.885C34.0666 174.929 34.1188 174.964 34.1763 174.988C34.2337 175.012 34.2953 175.024 34.3576 175.024H35.4757V176.142C35.4756 176.204 35.4877 176.266 35.5115 176.323C35.5353 176.381 35.5702 176.433 35.6143 176.477C35.6583 176.521 35.7106 176.556 35.7682 176.58C35.8258 176.604 35.8875 176.616 35.9498 176.616H37.3209C37.4467 176.616 37.5673 176.566 37.6562 176.477C37.7451 176.388 37.7951 176.267 37.7951 176.142V175.024H38.9123C38.9746 175.024 39.0362 175.012 39.0938 174.988C39.1513 174.964 39.2036 174.929 39.2476 174.885C39.2916 174.841 39.3265 174.789 39.3504 174.732C39.3742 174.674 39.3865 174.612 39.3865 174.55V173.183C39.3864 173.121 39.3739 173.059 39.3497 173.001C39.3256 172.943 39.2903 172.891 39.2459 172.847C39.2014 172.803 39.1487 172.768 39.0907 172.744C39.0328 172.721 38.9707 172.709 38.9081 172.709Z" fill="#F44336"/>
<path d="M41.8538 163.847H31.4118C31.2284 163.847 31.0467 163.81 30.8772 163.74C30.7076 163.67 30.5536 163.567 30.4239 163.437C30.2941 163.308 30.1912 163.154 30.121 162.984C30.0508 162.815 30.0146 162.633 30.0146 162.449C30.0146 162.079 30.1619 161.723 30.4239 161.461C30.6859 161.199 31.0413 161.052 31.4118 161.052H41.8538C42.2244 161.052 42.5798 161.199 42.8418 161.461C43.1038 161.723 43.251 162.079 43.251 162.449C43.251 162.82 43.1038 163.175 42.8418 163.437C42.5798 163.699 42.2244 163.847 41.8538 163.847Z" fill="#E9E9F4"/>
<path d="M32.1902 161.052H31.8372V163.847H32.1902V161.052Z" fill="white"/>
<path d="M35.0049 161.052H34.6519V163.847H35.0049V161.052Z" fill="white"/>
<path d="M38.3204 161.052H37.9673V163.847H38.3204V161.052Z" fill="white"/>
<path d="M41.4881 161.052H41.135V163.847H41.4881V161.052Z" fill="white"/>
<path d="M505.875 176.773C505.875 176.773 495.269 158.805 500.562 154.218C506.679 148.922 514.146 152.171 514.462 162.301C514.778 172.431 505.875 176.773 505.875 176.773Z" fill="#16A75C"/>
<path d="M505.57 186.038C505.57 186.038 511.296 170.57 516.751 171.528C523.052 172.634 524.783 178.836 518.729 184.083C512.675 189.331 505.57 186.038 505.57 186.038Z" fill="#069550"/>
<path d="M506.489 158.743C507.158 162.66 507.386 166.64 507.168 170.608C507.062 172.6 506.809 174.581 506.412 176.536C506.071 178.451 505.868 180.388 505.806 182.332C505.673 186.244 505.819 190.176 506.052 194.101C506.297 198.022 506.645 201.95 507.092 205.843V205.853C507.117 206.075 507.053 206.297 506.915 206.472C506.776 206.646 506.574 206.759 506.352 206.784C506.131 206.81 505.908 206.746 505.734 206.607C505.559 206.469 505.447 206.266 505.421 206.045V206.023C505.07 202.072 504.823 198.127 504.676 194.169C504.542 190.213 504.495 186.25 504.73 182.28C504.844 180.282 505.104 178.296 505.508 176.336C505.945 174.434 506.241 172.503 506.396 170.558C506.709 166.647 506.584 162.714 506.023 158.832V158.821C506.017 158.76 506.034 158.7 506.072 158.652C506.109 158.603 506.163 158.571 506.223 158.562C506.283 158.552 506.345 158.566 506.395 158.6C506.446 158.634 506.481 158.687 506.494 158.746L506.489 158.743Z" fill="#616161"/>
<path d="M514.232 179.389C512.899 180.754 511.526 182.073 510.09 183.34C509.373 183.973 508.637 184.587 507.87 185.17C507.101 185.778 506.277 186.312 505.409 186.768C505.293 186.825 505.16 186.834 505.037 186.793C504.915 186.752 504.814 186.664 504.756 186.549C504.699 186.433 504.689 186.299 504.73 186.177C504.771 186.054 504.859 185.953 504.975 185.896L505.001 185.883C505.835 185.493 506.632 185.027 507.38 184.491C508.152 183.961 508.905 183.393 509.642 182.804C511.119 181.627 512.552 180.38 513.937 179.092C513.978 179.054 514.031 179.033 514.087 179.034C514.143 179.035 514.196 179.059 514.234 179.099C514.27 179.139 514.29 179.191 514.29 179.244C514.29 179.298 514.269 179.35 514.232 179.389Z" fill="#616161"/>
<path d="M504.898 181.399C504.898 181.399 499.172 165.931 493.717 166.888C487.416 167.994 485.685 174.196 491.739 179.444C497.792 184.691 504.898 181.399 504.898 181.399Z" fill="#069550"/>
<path d="M496.53 174.451C497.917 175.739 499.348 176.986 500.825 178.162C501.563 178.751 502.316 179.32 503.088 179.85C503.837 180.386 504.633 180.852 505.468 181.242C505.586 181.293 505.678 181.389 505.726 181.509C505.773 181.628 505.772 181.762 505.721 181.88C505.671 181.998 505.576 182.092 505.457 182.14C505.337 182.189 505.204 182.188 505.085 182.139L505.059 182.126C504.191 181.671 503.367 181.136 502.598 180.529C501.831 179.945 501.095 179.332 500.378 178.7C498.942 177.439 497.57 176.117 496.235 174.748C496.196 174.709 496.174 174.656 496.174 174.6C496.174 174.544 496.196 174.491 496.235 174.452C496.275 174.414 496.328 174.392 496.383 174.392C496.438 174.392 496.491 174.413 496.53 174.451Z" fill="#616161"/>
<path d="M504.562 194.017C504.562 194.017 500.741 183.696 497.102 184.335C492.899 185.073 491.742 189.211 495.782 192.713C499.823 196.215 504.562 194.017 504.562 194.017Z" fill="#16A75C"/>
<path d="M499.028 189.332C499.961 190.178 500.926 190.999 501.918 191.77C502.414 192.157 502.92 192.527 503.436 192.873C503.932 193.219 504.458 193.519 505.009 193.768C505.069 193.792 505.122 193.828 505.168 193.873C505.213 193.918 505.249 193.972 505.273 194.031C505.298 194.09 505.31 194.154 505.31 194.218C505.31 194.282 505.298 194.345 505.273 194.404C505.249 194.463 505.213 194.517 505.168 194.562C505.123 194.607 505.069 194.643 505.01 194.668C504.951 194.692 504.887 194.705 504.824 194.705C504.76 194.705 504.696 194.693 504.637 194.668L504.602 194.652C504.017 194.337 503.462 193.968 502.946 193.55C502.435 193.152 501.947 192.735 501.472 192.305C500.52 191.447 499.614 190.556 498.732 189.632C498.694 189.591 498.673 189.537 498.675 189.482C498.676 189.426 498.699 189.373 498.74 189.335C498.779 189.299 498.83 189.278 498.883 189.278C498.937 189.277 498.988 189.297 499.028 189.332Z" fill="#616161"/>
<path d="M507.879 226.561H504.87C493.853 226.561 494.193 221.417 493.554 214.624L492.156 199.735H520.593L519.196 214.624C518.558 221.417 518.969 226.561 507.879 226.561Z" fill="#424242"/>
<path d="M520.165 197.316H492.617C491.839 197.316 491.208 197.947 491.208 198.725V200.607C491.208 201.385 491.839 202.016 492.617 202.016H520.165C520.943 202.016 521.574 201.385 521.574 200.607V198.725C521.574 197.947 520.943 197.316 520.165 197.316Z" fill="#424242"/>
<path d="M471.891 264.213L468.169 287.855C467.652 289.891 469.492 291.891 471.32 291.282H471.855C472.842 291.275 473.81 291.008 474.66 290.507C475.511 290.006 476.214 289.289 476.698 288.429L476.713 288.403L491.649 263.413L471.891 264.213Z" fill="#424242"/>
<path d="M537.35 264.213L541.074 287.855C541.591 289.891 539.749 291.891 537.923 291.282H537.386C536.399 291.275 535.432 291.008 534.581 290.507C533.731 290.006 533.028 289.289 532.544 288.429L532.528 288.403L517.593 263.413L537.35 264.213Z" fill="#424242"/>
<path d="M541.979 227.693H468.707C466.918 227.693 465.468 229.143 465.468 230.932V265.327C465.468 267.116 466.918 268.566 468.707 268.566H541.979C543.768 268.566 545.218 267.116 545.218 265.327V230.932C545.218 229.143 543.768 227.693 541.979 227.693Z" fill="#424242"/>
<path opacity="0.42" d="M525.551 237.23H484.608C484.317 237.23 484.08 237.467 484.08 237.758V259.321C484.08 259.613 484.317 259.849 484.608 259.849H525.551C525.843 259.849 526.079 259.613 526.079 259.321V237.758C526.079 237.467 525.843 237.23 525.551 237.23Z" fill="#424242"/>
<path d="M508.17 248.54C508.171 249.152 507.989 249.75 507.65 250.259C507.31 250.768 506.827 251.164 506.261 251.399C505.696 251.633 505.074 251.694 504.474 251.575C503.874 251.456 503.322 251.161 502.89 250.729C502.457 250.296 502.162 249.745 502.043 249.145C501.923 248.544 501.984 247.922 502.219 247.357C502.453 246.792 502.849 246.308 503.358 245.968C503.867 245.628 504.465 245.447 505.077 245.447C505.897 245.447 506.684 245.773 507.264 246.353C507.844 246.933 508.17 247.72 508.17 248.54Z" fill="#424242"/>
<path d="M545.081 229.597H465.506C465.107 229.597 464.724 229.438 464.441 229.156C464.159 228.873 464 228.49 464 228.09C464 227.691 464.159 227.308 464.441 227.025C464.724 226.743 465.107 226.584 465.506 226.584H545.081C545.279 226.584 545.475 226.623 545.658 226.698C545.841 226.774 546.007 226.885 546.147 227.025C546.287 227.165 546.398 227.331 546.474 227.514C546.55 227.696 546.589 227.892 546.589 228.09C546.589 228.288 546.55 228.484 546.474 228.667C546.398 228.85 546.287 229.016 546.147 229.156C546.007 229.296 545.841 229.407 545.658 229.483C545.475 229.558 545.279 229.597 545.081 229.597Z" fill="#424242"/>
</g>
<defs>
<clipPath id="clip0_5349_19780">
<rect width="554" height="320" fill="white"/>
</clipPath>
</defs>
</svg>
