<svg width="360" height="221" viewBox="0 0 360 221" fill="none" xmlns="http://www.w3.org/2000/svg">
<path d="M334.946 183.664C332.23 176.284 330.205 168.451 327.983 160.178C326.49 154.602 324.083 148.364 318.863 146.606C313.785 144.897 308.318 148.44 305.195 153.006C302.072 157.573 300.498 163.114 297.826 167.987C292.985 176.827 284.409 180.531 277.322 172.76C267.199 161.66 262.642 146.529 256.222 132.989C251.561 123.16 247.661 111.653 241.789 102.593C232.835 88.7789 220.557 77 204.23 77C193.88 78.6587 184.761 88.3558 178.589 100.474C172.417 112.592 168.818 127.005 165.75 141.382C160.17 167.528 156.082 194.281 152 221L358 218.458C357.182 218.468 352.13 211.328 351.163 210.337C343.255 202.243 338.509 193.342 334.946 183.664Z" fill="#DCE6EF"/>
<path d="M296.202 197.476C295.798 205.487 287.072 219.491 279.054 219.087C271.036 218.683 266.76 204.024 267.164 196.014C267.568 188.004 276.107 147.919 284.126 148.322C292.145 148.726 296.606 189.466 296.202 197.476Z" fill="#16A75C"/>
<path d="M283.74 153.53L279.697 218.444" stroke="#008444" stroke-width="0.867" stroke-linecap="round" stroke-linejoin="round"/>
<path d="M277.85 195.808C276.001 199.829 274.639 204.056 273.793 208.4C273.366 210.622 273.098 213.028 274.104 215.054C275.203 217.266 277.642 218.556 280.082 218.956C286.042 219.934 292.004 216.289 295.497 211.365C298.991 206.441 300.504 200.427 301.893 194.555C302.985 189.932 304.06 185.239 306.12 180.931C307.004 179.084 312.177 171.954 309.73 170.105C306.383 167.477 296.694 170.335 290.486 177.106C285.32 182.64 281.056 188.951 277.85 195.808Z" fill="#FFA600"/>
<path d="M280.082 218.956C280.082 218.956 287.276 190.971 304.65 174.92" stroke="#16A75C" stroke-width="0.867" stroke-linecap="round" stroke-linejoin="round"/>
<path d="M319.998 189.207C319.295 190.26 318.322 191.105 317.179 191.652C315.887 192.38 314.509 193.018 313.181 193.637C311.426 194.409 309.721 195.29 308.076 196.274C306.939 196.98 305.888 197.816 304.945 198.766C306.244 195.761 307.911 192.929 309.908 190.335C312.445 187.075 315.049 185.419 317.651 185.419C317.711 185.419 317.772 185.419 317.832 185.419C318.502 185.398 319.16 185.607 319.694 186.012C320.578 186.772 320.543 188.233 319.998 189.207Z" fill="#008444"/>
<path d="M322.904 207.302C321.818 207.953 320.576 208.3 319.309 208.306C317.83 208.412 316.313 208.401 314.846 208.392C312.929 208.339 311.01 208.406 309.102 208.593C307.772 208.745 306.464 209.051 305.205 209.506C307.666 207.346 310.386 205.499 313.301 204.008C316.992 202.143 320.051 201.763 322.406 202.875C322.46 202.901 322.514 202.927 322.567 202.955C323.183 203.222 323.688 203.693 323.997 204.288C324.47 205.349 323.816 206.655 322.904 207.302Z" fill="#008444"/>
<path d="M316.044 216.207C315.198 216.021 314.418 215.612 313.785 215.021C313 214.381 312.251 213.665 311.525 212.974C310.597 212.05 309.611 211.185 308.575 210.385C307.842 209.838 307.047 209.378 306.208 209.015C308.445 209.092 310.664 209.447 312.814 210.071C315.524 210.872 317.226 212.116 317.873 213.77C317.888 213.809 317.903 213.844 317.916 213.886C318.098 214.307 318.129 214.778 318.003 215.219C317.829 215.575 317.544 215.864 317.19 216.043C316.836 216.221 316.434 216.279 316.044 216.207Z" fill="#008444"/>
<path d="M296.535 219.119C296.535 219.119 296.617 201.995 317.55 187.456" stroke="#2A294F" stroke-width="0.78" stroke-linecap="round" stroke-linejoin="round"/>
<path d="M296.535 219.119C296.535 219.119 302.963 205.362 320.386 205.362" stroke="#2A294F" stroke-width="0.78" stroke-linecap="round" stroke-linejoin="round"/>
<path d="M306.017 209.186C306.017 209.186 309.391 208.939 316.437 214.249" stroke="#2A294F" stroke-width="0.78" stroke-linecap="round" stroke-linejoin="round"/>
<path d="M116.663 219.267C111.824 200.997 106.958 182.717 101.269 165.023C98.0617 155.046 94.5201 145.106 89.6064 137.124C84.6928 129.142 78.1763 123.253 71.6376 123.293C61.5618 125.241 55.0624 135.18 50.7962 146.188C48.0074 153.399 46.6524 162.142 44.675 169.774C41.9508 180.28 40.5216 191.709 35.2897 200.903C31.6265 207.338 25.9957 205.696 22.2004 199.915C20.1059 196.724 18.6285 192.928 16.284 190.015C13.9395 187.103 10.2407 185.205 7.26435 187.037C4.20415 188.924 3.28891 193.699 2.87728 197.888C2.26613 204.106 1.73063 209.982 0.726383 215.616C0.508327 216.842 0.265549 218.057 -0.00195312 219.261L116.663 219.267Z" fill="#DCE6EF"/>
<path d="M73.4012 194.043C70.3781 190.561 66.5517 187.554 65.345 183.159C64.4632 179.947 65.1589 176.549 65.503 173.237C65.8471 169.925 65.7255 166.262 63.5813 163.712C61.8139 161.612 59.0221 160.7 56.3365 160.122C53.6508 159.545 50.848 159.181 48.4657 157.817C44.5956 155.601 45.3669 151.83 43.2895 148.523C40.9584 144.812 35.5344 140.076 30.8855 142.543C25.9622 145.153 26.7424 153.077 30.017 156.575C32.1894 158.896 34.9707 161.123 35.2904 164.28C35.7717 169.04 30.3129 173.325 31.8148 177.867C32.9237 181.222 37.155 182.376 39.2473 185.226C41.3158 188.045 40.899 191.996 39.6812 195.273C38.4633 198.55 36.5453 201.58 35.7881 204.992C34.2379 211.975 39.7227 216.8 45.9714 218.357C51.7143 219.787 64.0997 219.112 64.0997 219.112C68.9733 217.27 73.103 213.875 75.8495 209.451C76.7583 207.838 77.2903 206.041 77.4059 204.193C77.5215 202.346 77.2176 200.496 76.5171 198.782C75.7387 197.046 74.6867 195.446 73.4012 194.043Z" fill="#FFA600"/>
<path d="M36.3887 150.075C36.3887 150.075 57.5349 182.705 59.8356 218.936" stroke="#16A75C" stroke-linecap="round" stroke-linejoin="round"/>
<path d="M17.5544 194.086C17.9592 193.781 18.4567 193.624 18.9636 193.641H19.1001C21.0678 193.641 23.037 194.891 24.9594 197.358C26.4689 199.319 27.7292 201.459 28.7116 203.73C27.9984 203.012 27.2039 202.38 26.3442 201.846C25.1014 201.102 23.8133 200.436 22.4874 199.852C21.4817 199.384 20.4411 198.901 19.4643 198.352C18.6002 197.938 17.8638 197.299 17.3327 196.503C17.0993 196.131 16.9947 195.694 17.0347 195.257C17.0748 194.82 17.2574 194.409 17.5544 194.086Z" fill="#16A75C"/>
<path d="M14.3001 207.902C14.5343 207.453 14.9161 207.097 15.3814 206.896C15.4215 206.875 15.4623 206.855 15.5038 206.836C17.2839 205.994 19.5972 206.282 22.3874 207.691C24.5923 208.82 26.6488 210.216 28.51 211.85C27.558 211.506 26.5691 211.274 25.5633 211.159C24.1202 211.017 22.6695 210.967 21.22 211.006C20.1075 211.014 18.9638 211.022 17.8453 210.943C16.8871 210.938 15.9479 210.676 15.1263 210.183C14.7581 209.945 14.478 209.593 14.3288 209.181C14.1796 208.77 14.1695 208.32 14.3001 207.902Z" fill="#16A75C"/>
<path d="M18.8352 216.169C18.741 215.835 18.7643 215.48 18.9012 215.162C18.9115 215.133 18.9219 215.104 18.9338 215.075C19.4233 213.824 20.7094 212.883 22.7587 212.278C24.3845 211.806 26.0627 211.538 27.7547 211.479C27.1196 211.754 26.519 212.102 25.965 212.517C25.1811 213.122 24.4358 213.776 23.7333 214.474C23.1851 214.997 22.6207 215.538 22.0274 216.023C21.5494 216.468 20.9602 216.777 20.3215 216.918C20.0258 216.973 19.7202 216.929 19.4516 216.794C19.1831 216.659 18.9665 216.439 18.8352 216.169Z" fill="#16A75C"/>
<path d="M35.0657 219.119C35.0657 219.119 35.0034 206.167 19.1758 195.174" stroke="#2A294F" stroke-width="0.78" stroke-linecap="round" stroke-linejoin="round"/>
<path d="M35.0661 219.119C35.0661 219.119 30.2051 208.717 17.0312 208.717" stroke="#2A294F" stroke-width="0.78" stroke-linecap="round" stroke-linejoin="round"/>
<path d="M27.8955 211.607C27.8955 211.607 25.3441 211.421 20.0166 215.436" stroke="#2A294F" stroke-width="0.78" stroke-linecap="round" stroke-linejoin="round"/>
<path d="M204.879 16.0684H65.3236C61.4531 16.0684 58.3154 19.2028 58.3154 23.0693V212.115C58.3154 215.981 61.4531 219.116 65.3236 219.116H204.879C208.75 219.116 211.888 215.981 211.888 212.115V23.0693C211.888 19.2028 208.75 16.0684 204.879 16.0684Z" fill="#424242"/>
<path d="M58.3154 65.5334V212.114C58.3148 213.034 58.4957 213.945 58.8476 214.794C59.1996 215.644 59.7157 216.417 60.3666 217.067C61.0174 217.718 61.7902 218.234 62.6407 218.586C63.4913 218.938 64.403 219.119 65.3236 219.119H204.879C206.738 219.119 208.521 218.381 209.835 217.068C211.149 215.755 211.888 213.974 211.888 212.118V183.184L58.3154 65.5334Z" fill="#212121"/>
<path d="M200.1 25.4365H70.1027C68.5207 25.4365 67.2383 26.7176 67.2383 28.298V206.886C67.2383 208.466 68.5207 209.747 70.1027 209.747H200.1C201.682 209.747 202.965 208.466 202.965 206.886V28.298C202.965 26.7176 201.682 25.4365 200.1 25.4365Z" fill="#F3F4F6"/>
<path d="M146.743 12.2332C146.753 12.0421 146.772 11.8532 146.772 11.659C146.784 10.1202 146.491 8.5941 145.91 7.16883C145.329 5.74356 144.472 4.44729 143.387 3.35478C142.302 2.26227 141.011 1.39514 139.589 0.803393C138.167 0.211642 136.642 -0.0930176 135.101 -0.0930176C133.561 -0.0930176 132.035 0.211642 130.613 0.803393C129.191 1.39514 127.9 2.26227 126.815 3.35478C125.731 4.44729 124.873 5.74356 124.292 7.16883C123.711 8.5941 123.418 10.1202 123.43 11.659C123.43 11.8532 123.45 12.0421 123.459 12.2332H106.302V30.0064H163.9V12.2332H146.743Z" fill="#008444"/>
<path d="M106.302 12.2332V30.0063H163.9L106.302 12.2332Z" fill="#006430"/>
<path d="M137.622 17.702C140.963 16.3109 142.542 12.4777 141.15 9.14037C139.757 5.80302 135.92 4.22529 132.579 5.61641C129.239 7.00753 127.659 10.8407 129.052 14.1781C130.444 17.5154 134.281 19.0931 137.622 17.702Z" fill="#069550"/>
<path d="M130.467 7.02979C129.858 7.6379 129.375 8.35984 129.046 9.15439C128.716 9.94893 128.547 10.8005 128.547 11.6605C128.547 12.5205 128.716 13.3721 129.046 14.1667C129.375 14.9612 129.858 15.6832 130.467 16.2913C131.696 17.5194 133.364 18.2094 135.103 18.2094C135.963 18.2094 136.816 18.04 137.611 17.7109C138.407 17.3818 139.129 16.8994 139.738 16.2913L130.467 7.02979Z" fill="#16A75C"/>
<g style="mix-blend-mode:multiply">
<path d="M163.9 30.0063H106.302V31.2303H163.9V30.0063Z" fill="#CDE1F9"/>
</g>
<path d="M104.768 54.6206H82.9219V76.4444H104.768V54.6206Z" stroke="#008444" stroke-miterlimit="10"/>
<g filter="url(#filter0_d_5258_160317)">
<path d="M87.8311 65.1667L94.5122 70.4065L108.095 57.3337" stroke="#1E88E5" stroke-width="4" stroke-miterlimit="10"/>
</g>
<path d="M186.44 60.8154H115.254C115.031 60.8152 114.818 60.7266 114.66 60.5691C114.503 60.4115 114.414 60.1979 114.414 59.9752C114.414 59.7526 114.503 59.539 114.66 59.3816C114.818 59.2242 115.032 59.1357 115.254 59.1357H186.44C186.55 59.1356 186.66 59.1573 186.762 59.1994C186.864 59.2416 186.957 59.3034 187.035 59.3814C187.113 59.4593 187.175 59.5519 187.217 59.6538C187.259 59.7557 187.281 59.8649 187.281 59.9752C187.281 60.198 187.192 60.4117 187.035 60.5693C186.877 60.7269 186.663 60.8154 186.44 60.8154Z" fill="#16A75C"/>
<path d="M186.44 64.52H115.254C115.031 64.5198 114.818 64.4312 114.66 64.2736C114.503 64.1161 114.414 63.9025 114.414 63.6798C114.414 63.5696 114.436 63.4604 114.478 63.3585C114.52 63.2567 114.582 63.1642 114.66 63.0862C114.738 63.0083 114.831 62.9464 114.933 62.9042C115.035 62.862 115.144 62.8403 115.254 62.8403H186.44C186.55 62.8402 186.66 62.8619 186.762 62.904C186.864 62.9462 186.957 63.008 187.035 63.0859C187.113 63.1639 187.175 63.2565 187.217 63.3584C187.259 63.4603 187.281 63.5695 187.281 63.6798C187.281 63.9026 187.192 64.1163 187.035 64.2739C186.877 64.4315 186.663 64.52 186.44 64.52Z" fill="#16A75C"/>
<path d="M186.44 68.2246H115.254C115.032 68.2246 114.818 68.1361 114.66 67.9787C114.503 67.8213 114.414 67.6078 114.414 67.3851C114.414 67.2748 114.436 67.1656 114.478 67.0636C114.52 66.9617 114.582 66.8691 114.66 66.7911C114.738 66.713 114.831 66.6511 114.933 66.6089C115.035 66.5667 115.144 66.5449 115.254 66.5449H186.44C186.55 66.5448 186.66 66.5665 186.762 66.6087C186.864 66.6509 186.957 66.7128 187.035 66.7908C187.113 66.8688 187.175 66.9615 187.217 67.0635C187.259 67.1655 187.281 67.2748 187.281 67.3851C187.281 67.4954 187.259 67.6046 187.217 67.7065C187.175 67.8084 187.113 67.901 187.035 67.979C186.957 68.0569 186.864 68.1188 186.762 68.1609C186.66 68.203 186.55 68.2247 186.44 68.2246Z" fill="#16A75C"/>
<path d="M186.44 71.9299H115.254C115.031 71.9297 114.818 71.8411 114.66 71.6836C114.503 71.526 114.414 71.3124 114.414 71.0897C114.414 70.867 114.503 70.6534 114.66 70.4959C114.818 70.3383 115.031 70.2497 115.254 70.2495H186.44C186.663 70.2495 186.877 70.338 187.035 70.4956C187.192 70.6532 187.281 70.8669 187.281 71.0897C187.281 71.3126 187.192 71.5263 187.035 71.6838C186.877 71.8414 186.663 71.9299 186.44 71.9299Z" fill="#16A75C"/>
<path d="M104.768 89.7542H82.9219V111.578H104.768V89.7542Z" stroke="#008444" stroke-miterlimit="10"/>
<g filter="url(#filter1_d_5258_160317)">
<path d="M87.8311 100.301L94.5122 105.54L108.095 92.4675" stroke="#1E88E5" stroke-width="4" stroke-miterlimit="10"/>
</g>
<path d="M186.44 95.9482H115.254C115.144 95.9482 115.035 95.9265 114.933 95.8843C114.831 95.8421 114.738 95.7803 114.66 95.7023C114.582 95.6244 114.52 95.5318 114.478 95.43C114.436 95.3281 114.414 95.219 114.414 95.1088C114.414 94.886 114.503 94.6724 114.66 94.5149C114.818 94.3574 115.031 94.2688 115.254 94.2686H186.44C186.663 94.2686 186.877 94.3571 187.035 94.5146C187.192 94.6722 187.281 94.8859 187.281 95.1088C187.281 95.2191 187.259 95.3283 187.217 95.4302C187.175 95.5321 187.113 95.6246 187.035 95.7026C186.957 95.7806 186.864 95.8424 186.762 95.8845C186.66 95.9267 186.55 95.9483 186.44 95.9482Z" fill="#16A75C"/>
<path d="M186.44 99.6535H115.254C115.031 99.6534 114.818 99.5647 114.66 99.4072C114.503 99.2497 114.414 99.0361 114.414 98.8134C114.414 98.5906 114.503 98.377 114.66 98.2195C114.818 98.0619 115.031 97.9733 115.254 97.9731H186.44C186.663 97.9731 186.877 98.0617 187.035 98.2192C187.192 98.3768 187.281 98.5905 187.281 98.8134C187.281 99.0362 187.192 99.2499 187.035 99.4075C186.877 99.565 186.663 99.6535 186.44 99.6535Z" fill="#16A75C"/>
<path d="M186.44 103.358H115.254C115.031 103.358 114.818 103.269 114.66 103.112C114.503 102.954 114.414 102.741 114.414 102.518C114.414 102.295 114.503 102.082 114.66 101.924C114.818 101.767 115.031 101.678 115.254 101.678H186.44C186.663 101.678 186.877 101.766 187.035 101.924C187.192 102.081 187.281 102.295 187.281 102.518C187.281 102.741 187.192 102.954 187.035 103.112C186.877 103.27 186.663 103.358 186.44 103.358Z" fill="#16A75C"/>
<path d="M186.44 107.063H115.254C115.144 107.063 115.035 107.041 114.933 106.999C114.831 106.957 114.738 106.895 114.66 106.817C114.582 106.739 114.52 106.646 114.478 106.544C114.436 106.442 114.414 106.333 114.414 106.223C114.414 106 114.503 105.786 114.66 105.629C114.818 105.471 115.032 105.383 115.254 105.383H186.44C186.55 105.383 186.66 105.405 186.762 105.447C186.864 105.489 186.957 105.551 187.035 105.629C187.113 105.707 187.175 105.799 187.217 105.901C187.259 106.003 187.281 106.112 187.281 106.223C187.281 106.333 187.259 106.442 187.217 106.544C187.175 106.646 187.113 106.739 187.035 106.817C186.957 106.895 186.864 106.957 186.762 106.999C186.66 107.041 186.55 107.063 186.44 107.063Z" fill="#16A75C"/>
<path d="M104.768 124.887H82.9219V146.711H104.768V124.887Z" stroke="#008444" stroke-miterlimit="10"/>
<g filter="url(#filter2_d_5258_160317)">
<path d="M87.8311 135.433L94.5122 140.673L108.095 127.6" stroke="#1E88E5" stroke-width="4" stroke-miterlimit="10"/>
</g>
<path d="M186.44 131.082H115.254C115.031 131.082 114.818 130.993 114.66 130.836C114.503 130.678 114.414 130.465 114.414 130.242C114.414 130.019 114.503 129.806 114.66 129.648C114.818 129.49 115.031 129.402 115.254 129.402H186.44C186.663 129.402 186.877 129.49 187.035 129.648C187.192 129.805 187.281 130.019 187.281 130.242C187.281 130.465 187.192 130.678 187.035 130.836C186.877 130.994 186.663 131.082 186.44 131.082Z" fill="#16A75C"/>
<path d="M186.44 134.787H115.254C115.031 134.786 114.818 134.698 114.66 134.54C114.503 134.383 114.414 134.169 114.414 133.946C114.414 133.724 114.503 133.51 114.66 133.353C114.818 133.195 115.032 133.107 115.254 133.107H186.44C186.55 133.107 186.66 133.128 186.762 133.171C186.864 133.213 186.957 133.275 187.035 133.353C187.113 133.431 187.175 133.523 187.217 133.625C187.259 133.727 187.281 133.836 187.281 133.946C187.281 134.169 187.192 134.383 187.035 134.541C186.877 134.698 186.663 134.787 186.44 134.787Z" fill="#16A75C"/>
<path d="M186.44 138.491H115.254C115.032 138.491 114.818 138.403 114.66 138.245C114.503 138.088 114.414 137.874 114.414 137.652C114.414 137.429 114.503 137.215 114.66 137.058C114.818 136.9 115.031 136.812 115.254 136.812H186.44C186.55 136.812 186.66 136.833 186.762 136.875C186.864 136.918 186.957 136.98 187.035 137.058C187.113 137.136 187.175 137.228 187.217 137.33C187.259 137.432 187.281 137.541 187.281 137.652C187.281 137.762 187.259 137.871 187.217 137.973C187.175 138.075 187.113 138.168 187.035 138.246C186.957 138.324 186.864 138.385 186.762 138.428C186.66 138.47 186.55 138.491 186.44 138.491Z" fill="#16A75C"/>
<path d="M186.44 142.196H115.254C115.032 142.196 114.818 142.107 114.66 141.95C114.503 141.792 114.414 141.579 114.414 141.356C114.414 141.134 114.503 140.92 114.66 140.762C114.818 140.605 115.031 140.516 115.254 140.516H186.44C186.663 140.516 186.877 140.605 187.035 140.762C187.192 140.92 187.281 141.133 187.281 141.356C187.281 141.467 187.259 141.576 187.217 141.678C187.175 141.78 187.113 141.872 187.035 141.95C186.957 142.028 186.864 142.09 186.762 142.132C186.66 142.174 186.55 142.196 186.44 142.196Z" fill="#16A75C"/>
<path d="M104.768 160.021H82.9219V181.845H104.768V160.021Z" stroke="#008444" stroke-miterlimit="10"/>
<g filter="url(#filter3_d_5258_160317)">
<path d="M87.8311 170.566L94.5122 175.806L108.095 162.735" stroke="#1E88E5" stroke-width="4" stroke-miterlimit="10"/>
</g>
<path d="M186.44 166.217H115.254C115.032 166.217 114.818 166.129 114.66 165.971C114.503 165.814 114.414 165.6 114.414 165.378C114.414 165.155 114.503 164.941 114.66 164.784C114.818 164.626 115.031 164.538 115.254 164.537H186.44C186.663 164.537 186.877 164.626 187.035 164.783C187.192 164.941 187.281 165.155 187.281 165.378C187.281 165.488 187.259 165.597 187.217 165.699C187.175 165.801 187.113 165.893 187.035 165.971C186.957 166.049 186.864 166.111 186.762 166.153C186.66 166.195 186.55 166.217 186.44 166.217Z" fill="#16A75C"/>
<path d="M186.44 169.922H115.254C115.031 169.921 114.818 169.833 114.66 169.675C114.503 169.518 114.414 169.304 114.414 169.081C114.414 168.859 114.503 168.645 114.66 168.488C114.818 168.33 115.031 168.241 115.254 168.241H186.44C186.663 168.241 186.877 168.33 187.035 168.487C187.192 168.645 187.281 168.859 187.281 169.081C187.281 169.304 187.192 169.518 187.035 169.676C186.877 169.833 186.663 169.922 186.44 169.922Z" fill="#16A75C"/>
<path d="M186.44 173.626H115.254C115.031 173.626 114.818 173.537 114.66 173.38C114.503 173.222 114.414 173.009 114.414 172.786C114.414 172.563 114.503 172.35 114.66 172.192C114.818 172.035 115.031 171.946 115.254 171.946H186.44C186.55 171.946 186.66 171.968 186.762 172.01C186.864 172.052 186.957 172.114 187.035 172.192C187.113 172.27 187.175 172.363 187.217 172.464C187.259 172.566 187.281 172.676 187.281 172.786C187.281 173.009 187.192 173.223 187.035 173.38C186.877 173.538 186.663 173.626 186.44 173.626Z" fill="#16A75C"/>
<path d="M186.44 177.331H115.254C115.031 177.331 114.818 177.242 114.66 177.084C114.503 176.927 114.414 176.713 114.414 176.491C114.414 176.268 114.503 176.054 114.66 175.897C114.818 175.74 115.032 175.651 115.254 175.651H186.44C186.55 175.651 186.66 175.673 186.762 175.715C186.864 175.757 186.957 175.819 187.035 175.897C187.113 175.975 187.175 176.067 187.217 176.169C187.259 176.271 187.281 176.38 187.281 176.491C187.281 176.713 187.192 176.927 187.035 177.085C186.877 177.242 186.663 177.331 186.44 177.331Z" fill="#16A75C"/>
<path d="M218.125 73.3382C217.671 73.685 213.554 76.1137 213.554 76.1137L210.633 72.3765L211.502 68.1155L217.791 68.5074L218.892 71.6882C219.153 72.4432 218.687 72.91 218.125 73.3382Z" fill="#FE9280"/>
<path d="M217.791 68.5075L218.74 71.2949L215.839 72.4618C215.409 72.6483 214.937 72.7179 214.471 72.6637C214.006 72.6095 213.563 72.4335 213.187 72.1533C212.812 71.8731 212.517 71.4988 212.332 71.0682C212.148 70.6376 212.081 70.166 212.138 69.7012L212.325 68.1689L217.791 68.5075Z" fill="#F47458"/>
<path d="M216.367 72.2327L218.882 72.5987L220.26 70.2411C220.324 70.1398 220.368 70.0268 220.388 69.9086C220.409 69.7904 220.405 69.6693 220.379 69.5523C220.353 69.4352 220.303 69.3246 220.234 69.2266C220.164 69.1287 220.076 69.0454 219.975 68.9816C219.873 68.9173 219.76 68.8737 219.642 68.8532C219.524 68.8327 219.402 68.8358 219.285 68.8622C219.168 68.8887 219.057 68.938 218.959 69.0073C218.861 69.0766 218.778 69.1645 218.714 69.2661L216.367 72.2327Z" fill="#F7A491"/>
<path d="M214.464 82.3108L209.28 83.62L207.426 98.6162L213.495 98.8637L214.464 82.3108Z" fill="#FAFAFA"/>
<path d="M282.625 94.4843L273.562 93.3448L275.639 76.886L284.702 78.0255C286.886 78.3012 288.872 79.432 290.222 81.1693C291.572 82.9066 292.177 85.1083 291.903 87.2907C291.627 89.4734 290.495 91.4573 288.755 92.8063C287.015 94.1552 284.81 94.7588 282.625 94.4843Z" fill="#FE9280"/>
<g style="mix-blend-mode:multiply" opacity="0.2">
<path d="M283.098 90.7352L274.035 89.5956L273.562 93.3447L282.625 94.4842C283.867 94.6411 285.127 94.5154 286.313 94.1167C287.499 93.718 288.58 93.0565 289.474 92.1818C290.367 91.307 291.052 90.2417 291.475 89.0655C291.899 87.8892 292.051 86.6325 291.919 85.3894C291.267 87.1435 290.041 88.626 288.44 89.5964C286.839 90.5668 284.956 90.9681 283.098 90.7352Z" fill="#777470"/>
</g>
<path d="M272.458 93.2054L176.311 80.8157L178.387 64.3569L274.535 76.7466L272.458 93.2054Z" fill="#FFA600"/>
<path d="M159.182 70.3021L176.311 80.8157L178.388 64.3569L159.182 70.3021Z" fill="#FFF4DD"/>
<g style="mix-blend-mode:multiply" opacity="0.2">
<path d="M159.182 70.302L176.311 80.8164L176.818 76.791L159.182 70.302Z" fill="#777470"/>
</g>
<path d="M164.902 68.532L159.183 70.302L164.284 73.4332L164.902 68.532Z" fill="#2A294F"/>
<path d="M282.491 77.7474L274.532 76.7466L272.458 93.2059L280.417 94.2067L282.491 77.7474Z" fill="#D3EAF5"/>
<path d="M282.58 77.0428L279.859 76.7007L277.608 94.5692L280.328 94.9113L282.58 77.0428Z" fill="#D3EAF5"/>
<g style="mix-blend-mode:multiply" opacity="0.2">
<path d="M277.696 93.864L176.308 80.8157L176.815 76.7903L278.204 89.8386L277.696 93.864Z" fill="#777470"/>
</g>
<g style="mix-blend-mode:multiply" opacity="0.05">
<path d="M279.263 81.4314L177.874 68.3831L178.381 64.3577L279.77 77.406L279.263 81.4314Z" fill="#777470"/>
</g>
<g style="mix-blend-mode:multiply" opacity="0.15">
<path d="M281.016 89.4495L278.296 89.1074L277.608 94.5693L280.328 94.9115L281.016 89.4495Z" fill="#777470"/>
</g>
<path d="M240.914 126.535L242.28 123.027L246.857 122.67C247.229 122.603 247.613 122.685 247.924 122.899C248.236 123.112 248.451 123.44 248.523 123.811C248.532 124.188 248.392 124.554 248.133 124.829C247.874 125.104 247.517 125.265 247.139 125.279L240.914 126.535Z" fill="#F47458"/>
<path d="M238.556 123.045L240.914 126.535L245.404 125.629L240.402 118.151L239.432 118.789C238.751 119.237 238.276 119.937 238.112 120.736C237.948 121.534 238.107 122.365 238.556 123.045Z" fill="#F7A491"/>
<path d="M242.973 66.8315C238.31 60.0417 226.565 61.8533 226.871 72.7315C226.871 72.7633 226.874 72.7974 226.876 72.8293C226.93 74.1988 226.815 75.5697 226.532 76.911C226.388 77.5597 226.052 78.15 225.567 78.6051C225.082 79.0602 224.472 79.3591 223.815 79.4627C223.16 79.6109 222.453 79.6442 221.725 79.7894C220.987 79.9382 220.279 80.2091 219.63 80.5911C218.298 81.3649 217.29 82.5926 216.791 84.049C216.329 85.5069 216.272 87.0626 216.624 88.5507C216.977 90.0387 217.727 91.4035 218.794 92.4999C219.345 93.0422 219.984 93.488 220.683 93.8188C221.368 94.1076 222.087 94.3083 222.822 94.4159C224.178 94.7123 225.549 95.1028 226.948 95.3791L226.988 95.2584C225.708 94.6302 224.398 94.0664 223.062 93.5691C222.413 93.3921 221.784 93.1454 221.188 92.8333C220.631 92.5121 220.129 92.105 219.699 91.6271C218.833 90.6497 218.201 89.4883 217.851 88.2307C217.471 86.9721 217.445 85.6332 217.777 84.3609C218.149 83.1002 218.966 82.017 220.076 81.312C220.632 80.9505 221.245 80.6846 221.889 80.5252C222.541 80.3622 223.252 80.2948 223.971 80.1043C224.715 79.9409 225.393 79.5589 225.918 79.0076C226.444 78.4563 226.792 77.7607 226.918 77.0103C227.018 76.5105 227.074 76.0031 227.086 75.4936C227.213 77.5215 227.037 79.5805 224.95 80.3592C223.746 80.809 222.576 80.809 221.455 81.5551C220.344 82.2877 219.504 83.3635 219.064 84.618C217.754 88.4664 221.166 93.4431 225.177 93.8691C226.836 94.0447 228.497 94.4463 230.138 94.7405C230.598 94.8227 237.053 96.1482 237.106 95.9897L244.575 73.8984L242.973 66.8315Z" fill="#212121"/>
<path d="M242.618 121.465L257.762 110.909L255.648 105.064L240.401 118.152L242.618 121.465Z" fill="#FAFAFA"/>
<path d="M253.718 109.462C253.975 110.005 254.387 110.459 254.902 110.768C255.418 111.076 256.013 111.225 256.613 111.196C257.213 111.167 257.791 110.96 258.273 110.603C258.756 110.245 259.121 109.753 259.324 109.188C259.526 108.623 259.556 108.011 259.41 107.428C259.264 106.846 258.949 106.321 258.504 105.918C258.059 105.515 257.504 105.252 256.91 105.164C256.315 105.076 255.708 105.166 255.165 105.423C254.805 105.593 254.481 105.833 254.214 106.128C253.946 106.423 253.739 106.768 253.604 107.143C253.47 107.518 253.411 107.916 253.43 108.314C253.45 108.712 253.548 109.102 253.718 109.462Z" fill="#FAFAFA"/>
<path d="M254.475 110.555L258.792 106.288L246.322 92.2799C245.989 91.8306 245.563 91.4581 245.073 91.1877C244.583 90.9172 244.04 90.7552 243.482 90.7125C242.924 90.6699 242.363 90.7476 241.838 90.9405C241.312 91.1333 240.834 91.4367 240.436 91.8302C238.746 93.501 238.929 98.1451 240.824 99.5802L254.475 110.555Z" fill="#FAFAFA"/>
<path d="M233.373 91.1938L238.479 91.6257L239.384 80.9407L234.279 80.5087L233.373 91.1938Z" fill="#F7A491"/>
<path d="M210.136 96.3483C209.535 96.3877 208.96 96.6042 208.483 96.9703C208.005 97.3365 207.648 97.8358 207.455 98.4052C207.262 98.9746 207.242 99.5884 207.398 100.169C207.555 100.749 207.88 101.271 208.333 101.666C208.786 102.062 209.346 102.315 209.943 102.392C210.54 102.469 211.146 102.368 211.685 102.101C212.225 101.834 212.672 101.413 212.972 100.892C213.272 100.371 213.41 99.7724 213.369 99.1727C213.315 98.3699 212.944 97.6214 212.338 97.0917C211.731 96.562 210.939 96.2946 210.136 96.3483Z" fill="#FAFAFA"/>
<path d="M208.224 96.7929L211.299 102.253L230.103 96.7899C232.407 96.2031 233.657 91.848 232.749 89.6526C232.535 89.1356 232.213 88.6705 231.804 88.2888C231.395 87.9071 230.908 87.6177 230.377 87.4404C229.846 87.263 229.283 87.2018 228.726 87.2608C228.169 87.3198 227.632 87.4978 227.15 87.7825L208.224 96.7929Z" fill="#FAFAFA"/>
<path d="M236.996 117.859L246.512 94.5338C246.625 94.0834 246.642 93.6143 246.561 93.1569C246.481 92.6996 246.304 92.2645 246.044 91.8799C245.783 91.4953 245.444 91.17 245.049 90.9251C244.655 90.6802 244.212 90.5213 243.752 90.4588L230.091 87.3647C229.631 87.3022 229.162 87.3376 228.716 87.4685C228.269 87.5994 227.856 87.8229 227.502 88.1244C227.149 88.4259 226.862 88.7986 226.663 89.2181C226.463 89.6376 226.354 90.0944 226.344 90.5588L221.671 115.995L236.996 117.859Z" fill="#FAFAFA"/>
<path d="M235.462 68.0784C233.885 70.0714 231.048 70.9109 230.38 72.738L230.238 73.5819C230.238 73.6212 230.238 73.656 230.238 73.699L230.222 73.6723L229.789 76.2314C229.526 77.7866 229.893 79.3823 230.807 80.6677C231.722 81.9531 233.111 82.8227 234.668 83.0853C236.224 83.3479 237.822 82.982 239.108 82.0681C240.395 81.1542 241.266 79.7671 241.529 78.2119L242.015 75.3312C241.681 72.3994 236.319 72.1734 235.462 68.0784Z" fill="#F7A491"/>
<path d="M240.91 76.8458C240.864 77.1152 240.9 77.392 241.012 77.6413C241.123 77.8905 241.307 78.1011 241.539 78.2462C241.77 78.3914 242.04 78.4647 242.313 78.4568C242.586 78.4489 242.851 78.3602 243.074 78.2019C243.297 78.0436 243.468 77.8229 243.565 77.5676C243.662 77.3122 243.682 77.0338 243.621 76.7676C243.56 76.5013 243.421 76.2591 243.222 76.0717C243.023 75.8842 242.773 75.7599 242.503 75.7144C242.324 75.6842 242.141 75.6894 241.964 75.7299C241.787 75.7704 241.62 75.8453 241.472 75.9504C241.324 76.0554 241.198 76.1886 241.102 76.3423C241.005 76.4959 240.94 76.667 240.91 76.8458Z" fill="#F7A491"/>
<path d="M228.398 116.813L235.245 133.698L228.702 212.585H223.678L217.759 133.207L221.667 115.994L228.398 116.813Z" fill="#212121"/>
<path d="M228.398 116.813V133.698L259.216 212.585H262.998L246.507 130.72L236.996 117.859L228.398 116.813Z" fill="#424242"/>
<path d="M226.493 216.704H224.393V212.585H227.115L226.493 216.704Z" fill="#F7A491"/>
<path d="M224.32 215.771L225.55 216.31L226.692 215.771L227.717 219.113H218.215L221.787 217.442L224.32 215.771Z" fill="#2A294F"/>
<path d="M261.705 216.704H263.805L262.561 212.585H259.838L261.705 216.704Z" fill="#F7A491"/>
<path d="M263.877 215.771L262.648 216.31L261.505 215.771L260.48 219.113H269.982L266.41 217.442L263.877 215.771Z" fill="#2A294F"/>
<path d="M230.926 100.084C230.926 100.936 230.673 101.769 230.199 102.477C229.725 103.185 229.052 103.737 228.264 104.063C227.476 104.389 226.609 104.474 225.772 104.308C224.936 104.142 224.167 103.732 223.564 103.129C222.962 102.527 222.551 101.759 222.385 100.923C222.218 100.088 222.304 99.2218 222.63 98.4347C222.956 97.6476 223.509 96.9749 224.218 96.5016C224.927 96.0283 225.761 95.7756 226.614 95.7756C227.18 95.7756 227.741 95.8871 228.264 96.1036C228.788 96.3201 229.263 96.6375 229.663 97.0376C230.064 97.4377 230.381 97.9126 230.598 98.4354C230.815 98.9581 230.926 99.5183 230.926 100.084Z" fill="#FAFAFA"/>
<path d="M230.485 87.4788L231.031 96.7299L239.033 88.5835L230.485 87.4788Z" fill="#F7A491"/>
<path d="M247.908 68.7934C247.246 67.9419 246.412 67.2391 245.461 66.7307C243.957 65.9401 242.257 66.0261 240.877 64.8384L241.954 75.6951C243.934 75.1297 243.816 79.3893 241.529 78.2142C241.529 78.2142 236.995 80.1524 235.274 84.392C234.247 86.95 233.88 89.7252 234.207 92.4621C234.76 95.8651 237.652 97.6285 240.933 96.6268C242.884 95.9406 244.538 94.604 245.618 92.8422C249.585 86.8533 252.229 77.0176 248.835 70.259C248.576 69.7407 248.266 69.2497 247.908 68.7934Z" fill="#212121"/>
<path d="M211.334 68.1759L211.445 67.4861L217.792 68.5069L217.681 69.1967C217.626 69.5393 217.503 69.8676 217.321 70.1629C217.139 70.4582 216.9 70.7148 216.618 70.9179C216.337 71.121 216.018 71.2667 215.68 71.3466C215.342 71.4265 214.991 71.4391 214.649 71.3836L213.524 71.2027C212.832 71.0914 212.212 70.71 211.802 70.1423C211.391 69.5747 211.223 68.8673 211.334 68.1759H211.334Z" fill="#F7A491"/>
<path d="M235.643 76.7701C234.687 76.4253 233.678 76.2554 232.662 76.2685C232.515 76.3639 232.403 76.5031 232.34 76.6663C232.278 76.8294 232.268 77.0081 232.313 77.1769C232.412 77.5154 232.633 77.8055 232.933 77.9919C233.263 78.2117 233.645 78.3438 234.041 78.3756C234.437 78.4075 234.834 78.3382 235.196 78.1742C235.478 78.0601 235.708 77.8475 235.844 77.5763C235.907 77.4391 235.922 77.2844 235.885 77.1378C235.849 76.9912 235.763 76.8614 235.643 76.7701Z" fill="white"/>
<path d="M0.645508 219.113H359.71" stroke="#2A294F" stroke-width="0.78" stroke-linecap="round" stroke-linejoin="round"/>
<defs>
<filter id="filter0_d_5258_160317" x="86.5967" y="55.8928" width="24.8857" height="19.1604" filterUnits="userSpaceOnUse" color-interpolation-filters="sRGB">
<feFlood flood-opacity="0" result="BackgroundImageFix"/>
<feColorMatrix in="SourceAlpha" type="matrix" values="0 0 0 0 0 0 0 0 0 0 0 0 0 0 0 0 0 0 127 0" result="hardAlpha"/>
<feOffset dx="2" dy="2"/>
<feColorMatrix type="matrix" values="0 0 0 0 0.952941 0 0 0 0 0.956863 0 0 0 0 0.964706 0 0 0 1 0"/>
<feBlend mode="normal" in2="BackgroundImageFix" result="effect1_dropShadow_5258_160317"/>
<feBlend mode="normal" in="SourceGraphic" in2="effect1_dropShadow_5258_160317" result="shape"/>
</filter>
<filter id="filter1_d_5258_160317" x="86.5967" y="91.0266" width="24.8857" height="19.1604" filterUnits="userSpaceOnUse" color-interpolation-filters="sRGB">
<feFlood flood-opacity="0" result="BackgroundImageFix"/>
<feColorMatrix in="SourceAlpha" type="matrix" values="0 0 0 0 0 0 0 0 0 0 0 0 0 0 0 0 0 0 127 0" result="hardAlpha"/>
<feOffset dx="2" dy="2"/>
<feColorMatrix type="matrix" values="0 0 0 0 0.952941 0 0 0 0 0.956863 0 0 0 0 0.964706 0 0 0 1 0"/>
<feBlend mode="normal" in2="BackgroundImageFix" result="effect1_dropShadow_5258_160317"/>
<feBlend mode="normal" in="SourceGraphic" in2="effect1_dropShadow_5258_160317" result="shape"/>
</filter>
<filter id="filter2_d_5258_160317" x="86.5967" y="126.159" width="24.8857" height="19.1606" filterUnits="userSpaceOnUse" color-interpolation-filters="sRGB">
<feFlood flood-opacity="0" result="BackgroundImageFix"/>
<feColorMatrix in="SourceAlpha" type="matrix" values="0 0 0 0 0 0 0 0 0 0 0 0 0 0 0 0 0 0 127 0" result="hardAlpha"/>
<feOffset dx="2" dy="2"/>
<feColorMatrix type="matrix" values="0 0 0 0 0.952941 0 0 0 0 0.956863 0 0 0 0 0.964706 0 0 0 1 0"/>
<feBlend mode="normal" in2="BackgroundImageFix" result="effect1_dropShadow_5258_160317"/>
<feBlend mode="normal" in="SourceGraphic" in2="effect1_dropShadow_5258_160317" result="shape"/>
</filter>
<filter id="filter3_d_5258_160317" x="86.5967" y="161.293" width="24.8857" height="19.1592" filterUnits="userSpaceOnUse" color-interpolation-filters="sRGB">
<feFlood flood-opacity="0" result="BackgroundImageFix"/>
<feColorMatrix in="SourceAlpha" type="matrix" values="0 0 0 0 0 0 0 0 0 0 0 0 0 0 0 0 0 0 127 0" result="hardAlpha"/>
<feOffset dx="2" dy="2"/>
<feColorMatrix type="matrix" values="0 0 0 0 0.952941 0 0 0 0 0.956863 0 0 0 0 0.964706 0 0 0 1 0"/>
<feBlend mode="normal" in2="BackgroundImageFix" result="effect1_dropShadow_5258_160317"/>
<feBlend mode="normal" in="SourceGraphic" in2="effect1_dropShadow_5258_160317" result="shape"/>
</filter>
</defs>
</svg>
