<svg width="320" height="187" viewBox="0 0 320 187" fill="none" xmlns="http://www.w3.org/2000/svg">
<g clip-path="url(#clip0_5304_161033)">
<path d="M291.695 186.602C291.695 186.602 305.651 123.212 278.137 81.8244C250.622 40.4365 201.622 32.7706 149.161 67.8729L141.562 70.9078C141.562 70.9078 85.5359 68.7166 63.4047 92.7176C41.2735 116.719 32.8994 137.102 31.3047 186.1L291.695 186.602Z" fill="#D4EDE9"/>
<path d="M86.6434 186.601C85.3991 183.792 84.3294 180.908 83.4405 177.966C82.0452 173.286 75.7644 165.119 66.8921 170.895C65.8953 171.194 64.8975 170.565 63.602 169.684C62.3065 168.803 56.7238 167.144 51.5399 170.413C48.3496 172.189 44.1625 172.189 43.4644 176.372C43.4644 176.372 39.7755 174.738 38.1808 173.563C36.5861 172.388 26.1162 171.791 19.2394 173.782C12.3626 175.774 5.58216 177.113 6.87813 186.601H86.6434Z" fill="#FFB900"/>
<path d="M43.9023 174.945C43.971 168.77 44.9062 162.636 46.6806 156.721C47.5519 153.666 48.0505 148.488 50.8419 144.604C53.6333 140.72 56.1255 137.732 56.4247 136.536C56.4247 136.536 56.6241 149.647 56.0258 155.093C55.4274 160.538 52.2157 172.521 43.9023 174.945Z" fill="#16A75C"/>
<path d="M42.9293 176.105L43.2621 175.496C43.4737 175.107 43.7787 174.556 44.1304 173.889C44.4821 173.222 44.8995 172.445 45.3437 171.612C45.7956 170.782 46.2378 169.878 46.698 168.982C47.1582 168.085 47.6106 167.183 48.0392 166.342C48.2489 165.919 48.4284 165.501 48.6133 165.109C48.7981 164.717 48.965 164.344 49.1226 164L50.1768 161.708C50.1768 161.708 49.8241 162.653 49.2963 164.071L48.8687 165.217C48.7145 165.623 48.5632 166.057 48.3846 166.496C48.0198 167.371 47.6301 168.301 47.2409 169.233C46.8517 170.165 46.4713 171.103 46.0807 171.966C45.6978 172.833 45.3408 173.643 45.0348 174.337C44.7288 175.03 44.468 175.606 44.2861 176.007C44.1041 176.409 43.9991 176.639 43.9991 176.639C43.9666 176.711 43.9204 176.775 43.863 176.829C43.8056 176.882 43.7382 176.924 43.6647 176.952C43.5911 176.98 43.5128 176.992 43.4342 176.99C43.3557 176.987 43.2784 176.969 43.2068 176.937C43.1353 176.904 43.0708 176.858 43.0171 176.801C42.9633 176.744 42.9214 176.676 42.8938 176.603C42.8661 176.529 42.8532 176.451 42.8558 176.373C42.8584 176.294 42.8764 176.217 42.9089 176.145C42.9147 176.132 42.9225 176.117 42.9293 176.105Z" fill="white"/>
<path d="M43.4651 176.373C43.4651 176.373 28.3985 164.934 23.8602 152.549C19.7398 141.307 21.8657 137.069 21.8657 137.069C21.8657 137.069 27.0495 143.541 31.7017 146.497C36.3538 149.452 47.7845 164.389 43.4651 176.373Z" fill="#006430"/>
<path d="M42.8738 176.283C42.8738 176.283 42.8777 176.257 42.886 176.206C42.8943 176.156 42.9025 176.068 42.9157 175.96C42.9385 175.739 42.9643 175.407 42.9672 174.981C42.9733 173.794 42.8297 172.611 42.5396 171.46C42.1265 169.819 41.4355 168.26 40.4964 166.851C39.9572 166.051 39.3566 165.294 38.6999 164.587C38.0378 163.835 37.3533 163.089 36.6625 162.339C35.2795 160.846 33.8789 159.359 32.6107 157.925C31.9753 157.209 31.377 156.502 30.82 155.823L30.026 154.82L29.3109 153.863C28.8673 153.238 28.4659 152.662 28.1375 152.133C27.7926 151.616 27.5372 151.137 27.3071 150.755C27.0877 150.366 26.934 150.05 26.8207 149.841L26.6504 149.516L26.8323 149.835C26.954 150.04 27.1184 150.349 27.3519 150.728C27.5951 151.102 27.8676 151.57 28.23 152.073C28.5759 152.587 28.9962 153.146 29.4603 153.751L30.206 154.677L31.033 155.645C31.6115 156.3 32.2317 156.981 32.8904 157.671C34.2039 159.052 35.6545 160.482 37.0945 161.928C37.8111 162.651 38.533 163.382 39.2238 164.111C39.93 164.819 40.5805 165.58 41.1697 166.388C42.2202 167.846 43.0131 169.474 43.514 171.199C43.8721 172.426 44.0733 173.694 44.1129 174.971C44.1265 175.437 44.1129 175.804 44.0958 176.06C44.0851 176.189 44.0764 176.288 44.071 176.355L44.0579 176.464C44.0392 176.621 43.9586 176.765 43.834 176.863C43.7093 176.961 43.5507 177.006 43.3931 176.987C43.2355 176.968 43.0918 176.888 42.9936 176.763C42.8954 176.639 42.8507 176.48 42.8694 176.323L42.8724 176.304L42.8738 176.283Z" fill="white"/>
<path d="M196.689 186.601C196.689 186.601 208.007 182.547 210.722 181.45C213.438 180.353 214.235 179.757 214.235 179.757C214.235 179.757 219.785 180.654 222.909 178.928C226.032 177.201 224.636 175.608 229.754 174.878C234.871 174.147 242.713 172.355 244.906 171.16C247.099 169.965 247.831 167.043 246.435 164.72C245.04 162.396 236.931 164.121 235.602 164.255C234.273 164.388 231.083 164.984 229.222 163.856C227.361 162.729 223.374 163.259 221.114 164.585C218.854 165.911 217.392 165.979 216.661 165.714C215.93 165.448 213.87 164.718 208.154 167.307C202.439 169.896 188.282 184.502 188.282 184.502V186.361L196.689 186.601Z" fill="#16A75C"/>
<path d="M186.81 179.993C186.81 179.993 186.92 166.712 190.11 164.223C193.3 161.733 196.191 161.832 198.384 158.646C200.578 155.459 204.565 147.691 211.444 146.695C213.836 145.998 219.616 140.221 226.597 139.923C233.577 139.625 237.264 138.23 236.267 143.309C235.27 148.388 229.388 150.778 223.905 153.566C218.422 156.355 214.634 156.953 215.132 160.438C215.63 163.924 211.046 166.61 207.157 168.704C203.268 170.798 205.363 173.355 202.073 175.262C198.783 177.169 191.007 184.01 189.911 186.365C189.91 186.365 181.416 188.493 186.81 179.993Z" fill="#006430"/>
<path d="M187.365 185.997C188.515 182.551 190.059 179.25 191.967 176.158C193.835 173.066 195.953 170.132 198.3 167.385C198.883 166.697 199.509 166.047 200.111 165.376L201.023 164.377L201.988 163.43L203.919 161.539L205.954 159.759L206.971 158.87C207.314 158.579 207.679 158.314 208.032 158.034L210.166 156.379C210.344 156.242 210.519 156.101 210.701 155.968L211.258 155.587L212.373 154.825L214.601 153.301L212.402 154.865L211.302 155.647L210.753 156.036C210.574 156.172 210.402 156.317 210.226 156.456L208.127 158.149C207.78 158.434 207.421 158.705 207.084 159.002L206.086 159.907L204.091 161.718L202.202 163.637L201.259 164.598L200.37 165.608C199.783 166.289 199.172 166.944 198.606 167.639C196.327 170.407 194.28 173.357 192.483 176.459C190.666 179.529 189.208 182.798 188.136 186.2L188.127 186.229C188.097 186.33 188.028 186.415 187.935 186.465C187.842 186.516 187.733 186.527 187.631 186.497C187.53 186.467 187.445 186.398 187.395 186.305C187.344 186.212 187.333 186.103 187.363 186.002L187.365 185.997Z" fill="white"/>
<path d="M189.617 185.797C192.202 183.769 194.93 181.931 197.781 180.299C200.608 178.648 203.523 177.153 206.513 175.82C209.497 174.483 212.55 173.304 215.659 172.289C217.201 171.747 218.782 171.328 220.349 170.874C221.13 170.634 221.93 170.467 222.723 170.271L225.104 169.7L222.735 170.319C221.948 170.531 221.152 170.714 220.377 170.97C218.82 171.456 217.251 171.905 215.724 172.476C212.646 173.55 209.628 174.787 206.682 176.181C203.736 177.567 200.868 179.112 198.09 180.81C195.308 182.479 192.651 184.346 190.139 186.399L190.124 186.412C190.043 186.48 189.938 186.512 189.833 186.503C189.727 186.493 189.63 186.442 189.562 186.361C189.495 186.28 189.462 186.175 189.471 186.07C189.481 185.965 189.532 185.868 189.613 185.8L189.617 185.797Z" fill="white"/>
<path d="M105.073 187C104.984 187 104.898 186.97 104.828 186.916C104.758 186.861 104.708 186.785 104.686 186.699C104.665 186.611 102.429 177.842 96.4119 166.836C90.8661 156.69 80.8754 142.512 64.7882 132.587C64.742 132.56 64.7016 132.524 64.6695 132.482C64.6373 132.439 64.614 132.391 64.601 132.339C64.5879 132.287 64.5854 132.234 64.5935 132.181C64.6017 132.128 64.6203 132.078 64.6483 132.032C64.6763 131.987 64.7132 131.948 64.7567 131.917C64.8002 131.886 64.8494 131.864 64.9015 131.853C64.9536 131.841 65.0075 131.84 65.06 131.85C65.1125 131.859 65.1625 131.88 65.207 131.909C81.4514 141.931 91.5297 156.238 97.1241 166.477C103.185 177.567 105.438 186.417 105.46 186.505C105.473 186.556 105.475 186.609 105.468 186.661C105.46 186.712 105.442 186.762 105.415 186.807C105.388 186.852 105.352 186.891 105.31 186.922C105.267 186.953 105.219 186.975 105.168 186.988C105.137 186.996 105.105 187 105.073 187Z" fill="#212121"/>
<path d="M107.067 187C107.051 187 107.035 186.999 107.019 186.997C106.967 186.991 106.917 186.974 106.871 186.948C106.826 186.922 106.786 186.888 106.754 186.846C106.721 186.805 106.698 186.758 106.684 186.707C106.67 186.657 106.666 186.604 106.673 186.552C106.708 186.268 110.096 157.767 97.3326 129.775C97.3109 129.727 97.2989 129.676 97.2971 129.624C97.2953 129.571 97.3039 129.519 97.3223 129.47C97.3407 129.421 97.3685 129.376 97.4043 129.338C97.44 129.3 97.4829 129.269 97.5306 129.248C97.5782 129.226 97.6297 129.214 97.682 129.212C97.7343 129.21 97.7865 129.219 97.8355 129.237C97.8845 129.256 97.9294 129.283 97.9677 129.319C98.0059 129.355 98.0368 129.398 98.0584 129.445C110.916 157.649 107.496 186.364 107.462 186.651C107.45 186.748 107.403 186.836 107.33 186.9C107.258 186.964 107.164 187 107.067 187Z" fill="#212121"/>
<path d="M104.894 185.942C104.894 185.942 97.4974 183.576 96.7658 181.52C96.0341 179.464 101.326 176.623 104.894 185.942Z" fill="#212121"/>
<path d="M105.339 185.942C105.339 185.942 104.874 178.332 107.134 177.468C109.394 176.605 110.656 183.196 105.339 185.942Z" fill="#212121"/>
<path d="M102.61 179.219C102.61 179.219 105.473 177.8 105.869 172.954C106.265 168.107 105.071 167.908 105.071 167.908C105.071 167.908 99.6151 170.083 102.61 179.219Z" fill="#212121"/>
<path d="M100.628 174.455C100.628 174.455 96.3668 175.676 93.1098 174.149C89.8529 172.622 91.7949 166.396 100.628 174.455Z" fill="#212121"/>
<path d="M98.3625 169.684C99.2768 167.414 99.685 164.973 99.5587 162.53C99.2931 158.679 95.6265 157.656 96.1305 165.503L98.3625 169.684Z" fill="#212121"/>
<path d="M94.7089 163.059C94.7089 163.059 92.5782 164.389 89.1884 163.659C85.7986 162.929 86.4641 160.054 87.3943 159.599C88.3244 159.144 93.6771 161.371 93.6771 161.371L94.7089 163.059Z" fill="#212121"/>
<path d="M92.5051 159.537C92.5051 159.537 94.0409 158.281 94.1737 153.7C94.3065 149.118 93.2051 148.721 91.6289 148.389C90.0528 148.056 90.5018 152.471 90.6759 156.837L92.5051 159.537Z" fill="#212121"/>
<path d="M89.2853 154.903C89.2853 154.903 85.6003 155.558 82.3433 154.429C79.0864 153.301 78.6218 151.642 79.818 150.38C81.0143 149.118 84.2639 151.129 89.2853 154.903Z" fill="#212121"/>
<path d="M86.3918 151.173C86.6008 149.134 86.703 147.085 86.6978 145.035C86.6311 142.479 85.6664 141.45 85.0355 140.852C84.4045 140.255 81.5387 140.415 83.6695 147.986L86.3918 151.173Z" fill="#212121"/>
<path d="M79.2167 143.347C79.2167 143.347 79.4857 138.296 78.8548 135.773C78.2238 133.251 75.4315 132.752 75.4008 135.076C75.3702 137.4 77.0436 140.627 77.8332 142.034L79.2167 143.347Z" fill="#212121"/>
<path d="M80.3697 144.485C80.3697 144.485 78.5211 147.525 74.3023 146.795C70.0836 146.064 69.9163 142.413 71.0464 141.516C72.1764 140.62 77.2533 142.856 79.2191 143.348L80.3697 144.485Z" fill="#212121"/>
<path d="M72.4679 137.456C72.4679 137.456 72.608 134.279 71.9099 131.989C71.2118 129.699 70.1158 127.907 69.7505 127.674C69.3851 127.44 66.5602 127.408 67.2578 131.557C67.5717 132.778 68.1611 133.912 68.9809 134.87L72.4679 137.456Z" fill="#212121"/>
<path d="M72.2758 137.457C72.2758 137.457 71.1126 139.692 68.7532 139.856C66.3938 140.021 64.7641 138.628 64.6989 136.902C64.6337 135.176 66.4931 135.242 67.5234 135.441C68.5538 135.641 70.7161 136.157 70.7161 136.157L72.2758 137.457Z" fill="#212121"/>
<path d="M107.809 177.435C107.809 177.435 112.252 177.095 113.315 173.564C114.378 170.033 113.547 168.456 113.547 168.456C113.547 168.456 110.185 168.134 107.505 174.919L107.809 177.435Z" fill="#212121"/>
<path d="M107.071 166.54C107.071 166.54 109.108 167.111 110.68 165.02C112.251 162.929 112.917 162.145 112.317 159.599C111.717 157.053 106.994 162.603 106.814 163.875C106.635 165.148 106.814 164.055 106.814 164.055L107.071 166.54Z" fill="#212121"/>
<path d="M106.678 162.654C106.678 162.654 104.675 161.202 103.678 160.505C102.682 159.807 100.422 159.241 100.189 159.424C99.9568 159.608 98.6273 162.535 103.114 164.641C104.332 165.099 105.676 165.099 106.894 164.641L106.678 162.654Z" fill="#212121"/>
<path d="M105.871 157.451C105.871 157.451 103.911 157.315 101.119 155.093C98.6936 152.97 98.2942 148.322 103.911 152.405C107.8 155.592 105.871 157.451 105.871 157.451Z" fill="#212121"/>
<path d="M103.412 147.558C102.537 147.514 101.68 147.294 100.892 146.912C100.105 146.53 99.4019 145.993 98.8262 145.334C96.9319 143.11 97.231 141.02 97.8294 140.638C98.4278 140.255 102.095 141.65 102.82 142.712C103.545 143.774 104.11 147.06 103.412 147.558Z" fill="#212121"/>
<path d="M100.309 135.914C100.563 133.686 100.689 131.444 100.685 129.201C100.586 126.711 100.188 123.989 99.7551 123.524C99.3226 123.06 97.3962 123.059 97.8608 128.636C97.2811 127.155 96.6039 125.713 95.8336 124.321C95.0363 123.093 92.5441 121.168 91.9127 121.002C91.2812 120.835 89.8208 121.831 90.982 124.42C92.1433 127.01 94.794 128.489 96.6641 129.998C96.6641 129.998 93.9398 128.902 93.7403 131.292C93.5409 133.682 96.6933 136.603 100.551 137.069L100.309 135.914Z" fill="#212121"/>
<path d="M74.698 103.954H25.335C25.335 103.954 27.8539 96.9077 34.4019 97.9161C43.9723 76.7824 61.0981 86.3425 61.6016 95.4002C72.683 91.8778 74.698 103.954 74.698 103.954Z" fill="#FFB900"/>
<path d="M255.526 65.7115H293.304C292.297 59.9247 286 59.9247 286 59.9247C283.986 44.83 264.595 49.1069 261.571 59.6735C255.526 60.1765 255.526 65.7115 255.526 65.7115Z" fill="#FFB900"/>
<path d="M264.592 165.343H320.001L310.934 161.821C304.386 137.668 288.772 141.693 286.253 156.286C275.674 146.725 264.592 155.783 264.592 165.343Z" fill="#FFB900"/>
<path d="M237.73 128.869C237.73 128.869 236.966 113.034 242.15 110.046C247.333 107.058 261.789 114.826 261.789 114.826C261.789 114.826 250.956 107.822 250.356 106.428C249.757 105.034 248.961 101.383 254.61 101.515C260.26 101.647 261.788 101.511 261.788 101.511C261.788 101.511 247.698 98.6598 245.97 97.4648C244.242 96.2697 243.711 93.4146 250.49 90.6926C250.49 90.6926 242.78 91.9562 241.717 88.2365C240.654 84.5168 242.514 72.501 242.514 72.501C242.514 72.501 235.203 86.5764 227.093 89.033C218.983 91.4896 211.608 86.3115 208.418 82.9913C208.418 82.9913 217.855 92.4193 216.46 97.5313C215.064 102.643 205.76 101.25 205.76 101.25C205.76 101.25 214.998 103.242 215.33 106.827C215.661 110.411 209.614 111.341 208.285 111.673C208.285 111.673 220.912 108.354 222.574 114.263C224.236 120.172 222.508 123.956 222.508 123.956C222.508 123.956 227.558 116.188 229.419 116.188C231.281 116.188 235.936 123.756 237.73 128.869Z" fill="#006430"/>
<path d="M228.625 112.137H234.008L234.274 108.552L228.359 109.216L228.625 112.137Z" fill="#FF9500"/>
<path d="M228.027 105.897C228.027 105.897 225.967 102.278 228.027 100.585C230.087 98.8922 231.981 99.7387 232.28 98.1457C232.579 96.5526 230.07 95.1579 228.359 96.3529C226.647 97.5479 225.899 98.1457 225.899 98.1457C225.899 98.1457 222.659 97.7452 222.211 95.9039C222.211 95.9039 223.009 91.0246 230.435 90.3277C237.862 89.6308 239.657 95.6555 239.508 97.7968C239.358 99.938 239.009 101.083 235.518 102.278C235.169 102.428 233.74 102.81 234.006 104.337C234.273 105.864 231.017 106.594 228.027 105.897Z" fill="#FF9500"/>
<path d="M269.564 96.0028C269.49 96.0027 269.416 95.9922 269.345 95.9717L264.46 94.5775C264.261 94.5154 264.095 94.3782 263.996 94.1953C263.897 94.0124 263.874 93.7981 263.931 93.5982C263.988 93.3984 264.121 93.2287 264.302 93.1254C264.482 93.0221 264.696 92.9934 264.898 93.0453L269.782 94.4395C269.967 94.4923 270.127 94.6101 270.232 94.7712C270.337 94.9323 270.38 95.1259 270.353 95.3163C270.327 95.5066 270.232 95.681 270.087 95.8071C269.942 95.9333 269.756 96.0028 269.563 96.0028H269.564Z" fill="#006430"/>
<path d="M261.789 91.5225C261.603 91.5226 261.422 91.4574 261.279 91.3384C261.135 91.2193 261.038 91.0539 261.004 90.8708C260.971 90.6877 261.002 90.4985 261.093 90.3361C261.184 90.1738 261.33 90.0485 261.504 89.982L270.875 86.3966C270.973 86.3592 271.077 86.3414 271.182 86.3443C271.286 86.3471 271.389 86.3705 271.485 86.4132C271.581 86.4558 271.667 86.5169 271.739 86.5928C271.811 86.6688 271.867 86.7582 271.905 86.8559C271.942 86.9536 271.96 87.0577 271.957 87.1623C271.954 87.2668 271.931 87.3698 271.888 87.4653C271.845 87.5609 271.784 87.6471 271.708 87.719C271.632 87.7909 271.543 87.8472 271.445 87.8846L262.074 91.47C261.983 91.5048 261.886 91.5226 261.789 91.5225Z" fill="#006430"/>
<path d="M261.291 88.4349C261.127 88.4343 260.967 88.3833 260.834 88.289C260.7 88.1947 260.599 88.0616 260.543 87.9077C260.488 87.7538 260.481 87.5867 260.524 87.4289C260.567 87.2711 260.657 87.1303 260.783 87.0257L264.173 84.2373C264.337 84.108 264.545 84.048 264.753 84.0702C264.96 84.0924 265.151 84.1951 265.284 84.3562C265.416 84.5172 265.48 84.7239 265.462 84.9317C265.444 85.1395 265.345 85.3319 265.187 85.4677L261.798 88.2561C261.654 88.3727 261.475 88.4359 261.291 88.4349Z" fill="#006430"/>
<path d="M226.448 78.2936C226.292 78.2935 226.139 78.2476 226.008 78.1615C225.878 78.0755 225.776 77.9531 225.714 77.8095C225.653 77.6659 225.635 77.5075 225.663 77.3539C225.691 77.2003 225.764 77.0583 225.872 76.9456L229.693 72.9607C229.839 72.8081 230.04 72.7198 230.252 72.7153C230.463 72.7107 230.668 72.7903 230.821 72.9364C230.974 73.0826 231.062 73.2834 231.066 73.4946C231.071 73.7059 230.991 73.9103 230.845 74.0629L227.024 78.0477C226.949 78.1254 226.86 78.1873 226.761 78.2296C226.662 78.2718 226.556 78.2936 226.448 78.2936Z" fill="#006430"/>
<path d="M223.207 79.0733C223.012 79.0731 222.824 79.0014 222.678 78.8718C222.532 78.7422 222.439 78.5637 222.416 78.3701L221.42 69.9058C221.407 69.8019 221.416 69.6966 221.444 69.5959C221.473 69.4953 221.521 69.4012 221.586 69.3191C221.651 69.237 221.731 69.1685 221.822 69.1174C221.914 69.0664 222.014 69.0338 222.118 69.0216C222.222 69.0093 222.328 69.0177 222.429 69.0462C222.529 69.0746 222.623 69.1227 222.706 69.1875C222.788 69.2523 222.856 69.3327 222.908 69.424C222.959 69.5153 222.991 69.6158 223.004 69.7196L224 78.184C224.013 78.2879 224.004 78.3933 223.976 78.494C223.947 78.5948 223.899 78.6889 223.834 78.7711C223.769 78.8532 223.689 78.9218 223.597 78.9728C223.506 79.0238 223.405 79.0563 223.301 79.0684C223.27 79.072 223.239 79.0736 223.207 79.0733Z" fill="#006430"/>
<path d="M219.188 78.7417C219.055 78.7419 218.925 78.709 218.808 78.6461C218.691 78.5831 218.592 78.4921 218.52 78.3812L216.26 74.9309C216.144 74.754 216.103 74.5385 216.147 74.3317C216.19 74.1248 216.314 73.9437 216.491 73.828C216.668 73.7123 216.884 73.6716 217.091 73.7149C217.298 73.7581 217.479 73.8817 217.595 74.0586L219.855 77.5089C219.933 77.629 219.978 77.7681 219.984 77.9115C219.99 78.055 219.957 78.1974 219.889 78.3237C219.821 78.45 219.72 78.5556 219.596 78.6292C219.473 78.7027 219.332 78.7416 219.188 78.7417Z" fill="#006430"/>
<path d="M201.775 118.115C201.59 118.115 201.411 118.05 201.268 117.933C201.126 117.816 201.028 117.652 200.992 117.471C200.957 117.29 200.985 117.102 201.073 116.94C201.161 116.777 201.302 116.65 201.473 116.58L206.358 114.588C206.554 114.508 206.773 114.509 206.968 114.591C207.163 114.673 207.318 114.828 207.398 115.024C207.478 115.22 207.477 115.439 207.395 115.634C207.313 115.828 207.157 115.983 206.961 116.063L202.076 118.055C201.981 118.094 201.878 118.115 201.775 118.115Z" fill="#006430"/>
<path d="M203.171 123.391C203.004 123.391 202.841 123.339 202.705 123.243C202.569 123.146 202.467 123.009 202.414 122.851C202.36 122.693 202.357 122.522 202.406 122.363C202.454 122.203 202.552 122.063 202.684 121.962L209.596 116.684C209.765 116.565 209.972 116.516 210.176 116.547C210.38 116.579 210.563 116.687 210.689 116.85C210.814 117.014 210.871 117.219 210.848 117.424C210.825 117.628 210.724 117.816 210.565 117.947L203.655 123.227C203.516 123.334 203.346 123.391 203.171 123.391Z" fill="#006430"/>
<path d="M212.042 125.682C211.938 125.682 211.834 125.661 211.737 125.621C211.64 125.581 211.553 125.522 211.478 125.448C211.404 125.374 211.346 125.286 211.306 125.19C211.266 125.093 211.245 124.989 211.245 124.885V121.3C211.25 121.092 211.337 120.894 211.486 120.749C211.635 120.604 211.834 120.523 212.043 120.523C212.251 120.523 212.451 120.604 212.6 120.749C212.749 120.894 212.835 121.092 212.84 121.3V124.885C212.84 125.096 212.756 125.299 212.607 125.448C212.457 125.598 212.254 125.682 212.042 125.682Z" fill="#006430"/>
<path d="M183.83 42.0266L189.679 37.6451C189.679 37.6451 187.219 26.0923 189.213 21.5105C191.207 16.9287 199.582 18.0601 213.537 17.8589C221.113 17.9916 231.467 18.0343 233.94 18.3395C236.632 18.6714 239.455 17.4609 239.589 27.7515C239.722 38.0421 241.583 42.8168 233.076 43.2139C225.07 43.5891 200.378 44.6815 193.997 41.4945C190.621 41.8706 187.227 42.0483 183.83 42.0266Z" fill="#FF9500"/>
<path d="M196.125 25.893C196.125 26.1284 196.171 26.3615 196.261 26.579C196.352 26.7965 196.484 26.9941 196.65 27.1606C196.817 27.3271 197.015 27.4592 197.232 27.5492C197.45 27.6393 197.683 27.6857 197.919 27.6857H230.352C230.828 27.6857 231.285 27.4968 231.621 27.1607C231.958 26.8245 232.147 26.3685 232.147 25.893C232.147 25.4177 231.958 24.9618 231.621 24.6257C231.285 24.2896 230.828 24.1008 230.352 24.1008H197.919C197.443 24.1008 196.987 24.2897 196.65 24.6258C196.314 24.9619 196.125 25.4177 196.125 25.893Z" fill="white"/>
<path d="M206.561 35.582C206.561 36.5724 207.131 37.3747 207.835 37.3747H230.873C231.577 37.3747 232.148 36.5724 232.148 35.582C232.148 34.5921 231.577 33.7898 230.873 33.7898H207.835C207.131 33.7898 206.561 34.5921 206.561 35.582Z" fill="white"/>
<path d="M160.403 77.1817C160.403 77.1817 171.668 83.4557 181.537 72.8993C184.727 69.4139 186.622 67.1229 183.232 64.3344C179.842 61.5458 177.849 60.1521 177.051 50.2925C176.253 40.433 171.568 24.8972 155.219 20.814C147.343 19.2209 139.068 23.4033 138.072 26.8887C138.072 26.8887 138.138 25.7267 137.308 25.4279C136.478 25.129 135.181 26.0596 135.314 27.8514C135.19 27.5408 135.006 27.2577 134.772 27.0185C134.538 26.7792 134.259 26.5884 133.951 26.4572C132.988 26.1252 130.927 28.0502 133.951 30.0753C133.951 30.0753 126.541 29.0129 123.152 40.831C119.762 52.649 118.1 60.9505 116.505 64.002C114.911 67.0535 110.856 81.5303 137.507 79.6048C153.059 79.0076 160.403 77.1817 160.403 77.1817Z" fill="#212121"/>
<path d="M139.866 73.3643C139.866 73.3643 137.774 73.2312 137.774 76.6836V83.4557C137.774 83.4557 119.298 82.925 115.843 88.1036C112.387 93.2822 105.209 125.816 104.146 134.844C103.082 143.872 98.0313 161.534 118.501 160.206C118.501 160.206 117.172 182.381 117.571 186.365H186.422C186.422 186.365 187.751 185.037 186.422 177.335C185.093 169.633 184.827 152.106 184.827 152.106C184.827 152.106 194.897 138.13 195.294 135.541C195.691 132.952 195.197 127.873 194.297 124.287C193.398 120.702 191.008 111.141 189.512 105.963C188.017 100.784 183.497 85.3811 177.117 83.8532C170.738 82.3253 161.765 83.2555 161.765 83.2555C161.765 83.2555 162.031 74.8237 159.838 73.7944C157.645 72.7651 139.866 73.3643 139.866 73.3643Z" fill="#069550"/>
<path d="M156.983 87.9699H156.959C156.853 87.9635 156.755 87.9155 156.685 87.8364C156.614 87.7573 156.579 87.6535 156.585 87.5481C156.589 87.4825 156.98 80.9566 157.046 78.7965C157.132 77.7217 156.839 76.6507 156.219 75.7685C156.152 75.6889 156.119 75.5865 156.127 75.4831C156.135 75.3797 156.183 75.2834 156.261 75.2147C156.338 75.146 156.44 75.1103 156.544 75.1152C156.647 75.12 156.745 75.1651 156.816 75.2408C156.861 75.2894 157.913 76.4979 157.842 78.8208C157.776 80.9925 157.385 87.5301 157.38 87.5962C157.374 87.6972 157.33 87.7921 157.256 87.8615C157.182 87.9309 157.085 87.9697 156.983 87.9699Z" fill="#212121"/>
<path d="M153.391 87.5713C153.286 87.5713 153.184 87.5294 153.11 87.4547C153.035 87.3801 152.993 87.2789 152.993 87.1733V80.4671C152.803 79.1519 152.519 77.8519 152.143 76.577C152.127 76.526 152.122 76.4723 152.127 76.4191C152.132 76.3659 152.148 76.3142 152.174 76.2673C152.199 76.2204 152.234 76.179 152.276 76.1458C152.318 76.1126 152.366 76.0882 152.418 76.0739C152.469 76.0597 152.523 76.056 152.576 76.063C152.629 76.0701 152.681 76.0877 152.727 76.1149C152.773 76.142 152.813 76.1782 152.845 76.2212C152.877 76.2642 152.899 76.3132 152.912 76.3652C153.002 76.6912 153.79 79.5759 153.79 80.4671V87.1733C153.79 87.2789 153.748 87.3801 153.673 87.4547C153.599 87.5294 153.497 87.5713 153.391 87.5713Z" fill="#212121"/>
<path d="M147.808 87.5714C147.704 87.5714 147.605 87.5312 147.531 87.4591C147.456 87.3871 147.413 87.289 147.41 87.1855L147.076 76.3031C147.075 76.2508 147.083 76.1986 147.102 76.1497C147.12 76.1007 147.148 76.0559 147.184 76.0177C147.22 75.9796 147.263 75.9489 147.311 75.9274C147.359 75.9059 147.41 75.894 147.463 75.8924C147.515 75.8895 147.568 75.8974 147.617 75.9154C147.667 75.9335 147.712 75.9614 147.751 75.9975C147.789 76.0335 147.82 76.077 147.841 76.1253C147.862 76.1736 147.873 76.2256 147.873 76.2783L148.206 87.1612C148.208 87.2135 148.199 87.2656 148.181 87.3145C148.162 87.3634 148.134 87.4082 148.098 87.4463C148.063 87.4844 148.019 87.515 147.972 87.5365C147.924 87.558 147.873 87.5698 147.82 87.5714H147.808Z" fill="#212121"/>
<path d="M142.019 86.0445C141.917 86.0443 141.82 86.0055 141.746 85.936C141.672 85.8665 141.627 85.7714 141.621 85.6703C141.602 85.3627 141.163 78.1195 141.298 76.9717C141.424 76.1254 141.653 75.2976 141.979 74.5064C142.022 74.4119 142.1 74.3378 142.197 74.2999C142.294 74.2621 142.402 74.2634 142.497 74.3037C142.593 74.3439 142.669 74.42 142.71 74.5156C142.751 74.6111 142.752 74.7188 142.714 74.8155C142.419 75.5381 142.21 76.293 142.092 77.0645C141.987 77.9616 142.293 83.5476 142.419 85.6241C142.422 85.6763 142.415 85.7287 142.398 85.7782C142.381 85.8277 142.355 85.8734 142.32 85.9126C142.285 85.9518 142.243 85.9838 142.196 86.0067C142.149 86.0297 142.098 86.0432 142.046 86.0464L142.019 86.0445Z" fill="#212121"/>
<path d="M132.788 141.085C132.788 141.085 127.617 143.388 120.898 139.879C120.898 139.879 116.107 136.238 116.374 132.784C116.642 129.331 129.849 134.677 131.26 135.506C132.671 136.335 132.788 141.085 132.788 141.085Z" fill="#F4A386"/>
<path d="M149.652 92.616C147.64 92.6249 145.646 92.2373 143.785 91.4755C141.776 90.676 139.977 89.4266 138.527 87.8235C138.46 87.7417 138.429 87.6367 138.44 87.5316C138.45 87.4265 138.502 87.33 138.584 87.2632C138.666 87.1965 138.771 87.165 138.876 87.1756C138.982 87.1863 139.078 87.2382 139.145 87.3201C139.425 87.6603 146.15 95.6241 158.332 89.6041C158.426 89.5582 158.535 89.5516 158.635 89.5857C158.734 89.6198 158.817 89.6918 158.863 89.786C158.91 89.8802 158.917 89.9891 158.884 90.0888C158.851 90.1885 158.779 90.2711 158.685 90.3184C155.894 91.7744 152.801 92.561 149.652 92.616Z" fill="#212121"/>
<path d="M174.276 157.302C174.276 157.302 171.6 163.792 170.804 165.65C170.124 167.288 169.655 169.006 169.408 170.762C167.743 172.091 165.783 173.001 163.693 173.418C163.693 173.418 161.831 174.879 160.37 175.211C158.908 175.543 155.719 174.148 155.719 174.148C155.719 174.148 154.057 174.016 153.392 173.617C152.728 173.219 152.462 171.16 152.462 171.16C152.462 171.16 151 171.36 151 170.497C151 169.633 151.73 166.845 151.73 166.845C151.73 166.845 150.932 166.048 151.331 164.388C151.729 162.729 153.059 156.82 153.325 155.425C153.591 154.031 162.247 149.408 164.931 148.434C164.93 148.434 172.222 153.115 174.276 157.302Z" fill="#F4A386"/>
<path d="M176.23 162.431L176.074 161.957C176.037 161.843 172.223 150.573 161.992 147.776L161.387 147.611L161.794 147.134C161.891 147.02 171.475 135.773 174.864 130.632C174.955 128.966 176.049 108.632 175.955 102.384C175.954 102.332 175.963 102.28 175.983 102.231C176.002 102.183 176.031 102.138 176.067 102.101C176.104 102.063 176.147 102.033 176.195 102.012C176.243 101.992 176.295 101.98 176.347 101.98H176.353C176.458 101.98 176.558 102.021 176.633 102.094C176.708 102.167 176.75 102.267 176.752 102.371C176.849 108.884 175.667 130.565 175.655 130.783L175.649 130.889L175.59 130.979C172.616 135.523 164.669 144.975 162.799 147.182C171.779 149.975 175.793 159.016 176.652 161.222C179.598 159.076 184.447 151.957 184.497 151.883C184.557 151.795 184.648 151.735 184.752 151.715C184.856 151.695 184.964 151.717 185.051 151.776C185.139 151.835 185.199 151.927 185.219 152.031C185.239 152.135 185.217 152.242 185.158 152.33C184.935 152.657 179.689 160.357 176.658 162.174L176.23 162.431Z" fill="#212121"/>
<path d="M183.032 131.159C182.972 131.159 182.911 131.145 182.857 131.119C177.892 128.689 175.567 131.013 175.544 131.037C175.47 131.11 175.371 131.151 175.267 131.152C175.163 131.152 175.063 131.112 174.988 131.04C174.913 130.968 174.869 130.87 174.865 130.766C174.862 130.663 174.899 130.562 174.969 130.485C175.079 130.37 177.727 127.715 183.208 130.403C183.289 130.443 183.354 130.509 183.393 130.59C183.431 130.671 183.441 130.763 183.421 130.851C183.4 130.939 183.351 131.017 183.28 131.073C183.21 131.129 183.123 131.159 183.032 131.159Z" fill="#212121"/>
<path d="M123.916 97.5971C123.846 97.5973 123.778 97.5791 123.717 97.5445C123.657 97.5098 123.607 97.46 123.572 97.3998C121.648 94.1654 119.328 91.184 116.664 88.5248C116.624 88.4891 116.593 88.4459 116.57 88.3978C116.548 88.3497 116.535 88.2976 116.533 88.2446C116.532 88.1916 116.54 88.1387 116.559 88.0891C116.578 88.0395 116.606 87.9941 116.643 87.9556C116.679 87.9172 116.723 87.8864 116.772 87.8651C116.821 87.8438 116.873 87.8324 116.926 87.8316C116.979 87.8308 117.032 87.8406 117.081 87.8604C117.13 87.8802 117.175 87.9097 117.213 87.947C119.931 90.6584 122.299 93.6988 124.261 96.9974C124.296 97.0579 124.315 97.1267 124.316 97.1968C124.316 97.2669 124.298 97.3359 124.263 97.3967C124.228 97.4575 124.178 97.5081 124.117 97.5433C124.056 97.5785 123.987 97.597 123.917 97.5971H123.916Z" fill="#212121"/>
<path d="M118.5 160.605C118.414 160.605 118.33 160.577 118.26 160.525C118.191 160.473 118.141 160.4 118.117 160.317C118.093 160.234 118.096 160.145 118.127 160.064C118.158 159.984 118.214 159.915 118.288 159.869C118.393 159.803 128.706 153.26 134.843 142.56L132.557 141.823C131.298 142.04 119.195 143.866 116.372 134.661L113.696 133.348C113.291 134.587 112.765 135.784 112.128 136.921C110.529 139.769 108.418 141.795 106.025 142.779C105.976 142.8 105.924 142.811 105.871 142.812C105.818 142.812 105.765 142.802 105.716 142.783C105.667 142.763 105.623 142.733 105.585 142.696C105.548 142.659 105.518 142.614 105.498 142.565C105.478 142.516 105.467 142.464 105.468 142.411C105.468 142.358 105.479 142.306 105.5 142.257C105.52 142.209 105.551 142.165 105.589 142.128C105.627 142.091 105.671 142.062 105.721 142.043C111.117 139.823 113.045 132.753 113.064 132.682L113.188 132.213L117.039 134.097L117.088 134.266C119.747 143.437 132.38 141.045 132.509 141.022L132.611 141.001L136.016 142.099L135.779 142.523C129.572 153.656 118.82 160.475 118.712 160.542C118.648 160.583 118.575 160.604 118.5 160.605Z" fill="#212121"/>
<path d="M134.683 131.358C134.683 131.358 132.591 129.366 130.496 127.673C128.4 125.981 123.617 123.956 118.899 127.275C117.319 128.441 115.653 129.484 113.914 130.395C113.316 130.661 109.86 132.188 111.19 134.18C112.52 136.171 116.175 134.977 116.839 134.711C117.503 134.446 120.029 134.18 121.159 139.226C122.288 144.272 122.288 149.516 124.482 149.516C126.675 149.516 126.941 147.192 126.808 144.736C126.675 142.28 126.21 138.894 126.21 138.894C126.21 138.894 133.919 142.213 136.71 142.612C139.502 143.01 140.3 142.346 140.565 139.558L139.369 139.292C139.369 139.292 140.167 133.317 140.565 131.724C140.991 130.1 141.17 128.421 141.097 126.744C140.964 125.416 138.904 125.35 138.305 126.147C138.304 126.147 135.115 124.287 134.683 131.358Z" fill="#F4A386"/>
<path d="M153.19 167.915C152.529 167.88 151.906 167.598 151.445 167.125C151.375 167.049 151.337 166.949 151.339 166.845C151.341 166.742 151.384 166.644 151.457 166.571C151.531 166.498 151.63 166.457 151.733 166.456C151.837 166.454 151.937 166.494 152.012 166.565C152.118 166.671 153.07 167.574 153.902 166.816C154.413 166.35 155.255 164.395 155.998 162.669C157.013 160.309 157.672 158.84 158.246 158.344C158.286 158.308 158.332 158.28 158.382 158.262C158.433 158.244 158.486 158.236 158.539 158.239C158.593 158.242 158.645 158.256 158.693 158.279C158.741 158.303 158.784 158.336 158.819 158.376C158.854 158.417 158.88 158.464 158.897 158.515C158.913 158.565 158.919 158.619 158.914 158.672C158.91 158.726 158.894 158.777 158.869 158.824C158.844 158.872 158.81 158.913 158.768 158.947C158.29 159.359 157.461 161.284 156.73 162.984C155.88 164.957 155.076 166.823 154.44 167.406C154.104 167.729 153.656 167.912 153.19 167.915Z" fill="#CE8F61"/>
<path d="M153.97 171.815C153.403 171.818 152.839 171.72 152.306 171.526C152.258 171.506 152.214 171.477 152.177 171.44C152.14 171.403 152.111 171.359 152.091 171.31C152.072 171.262 152.061 171.21 152.062 171.158C152.062 171.105 152.072 171.054 152.092 171.005C152.113 170.957 152.142 170.913 152.179 170.877C152.216 170.84 152.26 170.811 152.309 170.791C152.357 170.771 152.409 170.761 152.461 170.761C152.514 170.761 152.566 170.771 152.614 170.792C153.279 171.046 154.005 171.1 154.7 170.945C155.395 170.791 156.03 170.435 156.524 169.922C158.384 167.967 162.194 163.128 162.232 163.079C162.298 162.999 162.393 162.948 162.497 162.937C162.6 162.926 162.704 162.956 162.785 163.02C162.867 163.084 162.921 163.178 162.934 163.281C162.948 163.384 162.921 163.488 162.859 163.571C162.702 163.771 158.988 168.488 157.103 170.472C156.703 170.902 156.218 171.244 155.679 171.475C155.139 171.706 154.557 171.822 153.97 171.815Z" fill="#CE8F61"/>
<path d="M155.733 174.547H155.706C155.653 174.546 155.601 174.534 155.553 174.513C155.505 174.491 155.462 174.461 155.426 174.423C155.39 174.384 155.362 174.34 155.343 174.291C155.324 174.242 155.315 174.189 155.317 174.137C155.322 174.032 155.367 173.933 155.443 173.861C155.519 173.789 155.62 173.748 155.725 173.748C156.521 173.702 157.287 173.427 157.93 172.956C158.472 172.581 159.475 171.706 160.446 170.86C162.131 169.391 163.187 168.483 163.663 168.325C163.713 168.307 163.766 168.298 163.82 168.301C163.873 168.304 163.925 168.317 163.973 168.34C164.021 168.363 164.064 168.396 164.1 168.436C164.135 168.476 164.162 168.522 164.179 168.573C164.195 168.623 164.202 168.677 164.198 168.73C164.194 168.783 164.179 168.835 164.154 168.882C164.13 168.93 164.096 168.971 164.055 169.006C164.014 169.04 163.967 169.065 163.916 169.08C163.567 169.197 162.067 170.505 160.971 171.462C159.938 172.362 158.963 173.211 158.384 173.612C157.61 174.175 156.689 174.5 155.733 174.547Z" fill="#CE8F61"/>
<path d="M163.692 173.817C163.609 173.817 163.529 173.791 163.461 173.743C163.393 173.695 163.342 173.628 163.315 173.549C163.288 173.471 163.286 173.387 163.309 173.307C163.332 173.228 163.38 173.157 163.445 173.106C163.47 173.086 165.974 171.088 166.341 169.178C166.35 169.126 166.37 169.077 166.399 169.034C166.428 168.99 166.465 168.952 166.508 168.923C166.551 168.893 166.6 168.873 166.651 168.862C166.703 168.852 166.755 168.851 166.807 168.861C166.858 168.871 166.907 168.891 166.951 168.919C166.995 168.948 167.032 168.985 167.062 169.028C167.091 169.072 167.112 169.12 167.123 169.171C167.133 169.223 167.134 169.275 167.124 169.327C166.702 171.531 164.052 173.642 163.939 173.731C163.869 173.787 163.782 173.817 163.692 173.817Z" fill="#CE8F61"/>
<path d="M140.565 139.956C140.536 139.956 140.507 139.953 140.479 139.947C140.148 139.874 132.321 138.127 129.25 135.059C129.179 134.984 129.141 134.884 129.143 134.78C129.144 134.677 129.186 134.578 129.259 134.505C129.333 134.432 129.431 134.39 129.535 134.389C129.638 134.387 129.738 134.425 129.814 134.496C132.722 137.401 140.571 139.151 140.651 139.169C140.746 139.19 140.831 139.246 140.888 139.326C140.945 139.405 140.97 139.503 140.96 139.6C140.949 139.698 140.903 139.788 140.83 139.853C140.757 139.919 140.663 139.955 140.565 139.956Z" fill="#CE8F61"/>
<path d="M136.642 138.746C136.577 138.746 136.514 138.73 136.457 138.7C136.4 138.67 136.351 138.627 136.314 138.575C136.278 138.522 136.254 138.461 136.246 138.397C136.238 138.333 136.246 138.269 136.268 138.208C136.289 138.152 138.385 132.527 138.707 130.078C138.77 129.662 138.839 129.311 138.899 129.002C139.161 127.662 139.223 127.344 138.064 126.464C138.017 126.434 137.978 126.395 137.948 126.349C137.918 126.303 137.897 126.252 137.888 126.198C137.878 126.144 137.88 126.088 137.893 126.035C137.906 125.982 137.93 125.932 137.964 125.888C137.997 125.844 138.039 125.808 138.087 125.781C138.135 125.755 138.188 125.738 138.243 125.733C138.297 125.728 138.353 125.734 138.405 125.751C138.457 125.768 138.505 125.796 138.546 125.832C140.103 127.012 139.952 127.776 139.682 129.157C139.623 129.457 139.557 129.797 139.497 130.192C139.163 132.723 137.103 138.255 137.016 138.489C136.987 138.565 136.936 138.63 136.869 138.676C136.802 138.722 136.723 138.746 136.642 138.746Z" fill="#CE8F61"/>
<path d="M132.174 137.013C132.081 137.012 131.992 136.98 131.92 136.921C131.849 136.861 131.801 136.779 131.783 136.688C131.766 136.597 131.781 136.503 131.826 136.422C131.87 136.341 131.942 136.278 132.028 136.244C133.646 135.604 134.207 132.481 134.286 131.331C134.295 131.227 134.344 131.13 134.424 131.062C134.503 130.993 134.606 130.959 134.711 130.966C134.815 130.973 134.913 131.021 134.982 131.1C135.052 131.178 135.088 131.281 135.082 131.385C135.069 131.574 134.738 136.029 132.321 136.984C132.274 137.003 132.224 137.013 132.174 137.013Z" fill="#CE8F61"/>
<path d="M121.349 140.533C121.25 140.533 121.155 140.496 121.082 140.43C121.008 140.364 120.962 140.273 120.952 140.175C120.771 138.884 120.351 137.639 119.714 136.502C118.373 134.337 116.912 135.092 116.85 135.128C116.758 135.174 116.651 135.182 116.552 135.151C116.454 135.12 116.371 135.052 116.322 134.961C116.272 134.87 116.26 134.764 116.288 134.664C116.316 134.565 116.381 134.48 116.47 134.428C116.492 134.415 118.659 133.285 120.4 136.095C121.099 137.331 121.556 138.689 121.746 140.095C121.752 140.147 121.747 140.2 121.732 140.25C121.717 140.301 121.692 140.347 121.659 140.388C121.626 140.429 121.585 140.462 121.539 140.487C121.492 140.512 121.442 140.527 121.39 140.533C121.376 140.533 121.362 140.534 121.349 140.533Z" fill="#CE8F61"/>
<path d="M126.507 141.649C126.411 141.649 126.318 141.614 126.245 141.551C126.173 141.488 126.126 141.4 126.113 141.305L125.78 138.882C125.77 138.811 125.78 138.739 125.808 138.674C125.835 138.608 125.88 138.551 125.938 138.508C125.995 138.466 126.063 138.439 126.134 138.432C126.205 138.424 126.276 138.436 126.341 138.466C126.385 138.486 130.735 140.476 131.94 140.729C132.038 140.755 132.122 140.819 132.175 140.905C132.228 140.992 132.245 141.095 132.224 141.195C132.204 141.294 132.145 141.381 132.062 141.439C131.979 141.497 131.876 141.521 131.776 141.506C130.773 141.296 127.961 140.065 126.668 139.486L126.902 141.195C126.909 141.247 126.906 141.3 126.893 141.35C126.88 141.401 126.857 141.448 126.825 141.49C126.793 141.532 126.754 141.567 126.709 141.593C126.664 141.619 126.614 141.637 126.562 141.644C126.544 141.647 126.526 141.649 126.507 141.649Z" fill="#CE8F61"/>
<path d="M132.323 62.3429C132.323 62.3429 136.975 77.4807 151.464 76.4183C165.952 75.356 166.75 64.2018 167.547 59.4217C167.547 59.4217 171.601 61.4142 172.995 57.4962C174.39 53.5783 172.266 51.4546 169.274 51.388C166.282 51.3214 161.897 49.9937 157.51 45.0144C153.124 40.035 146.943 32.2666 140.895 37.1138C140.895 37.1138 138.171 36.2507 138.037 39.9684C137.904 43.6862 139.831 54.907 132.321 53.9112C132.321 53.9112 128.301 51.8861 127.154 54.6747C126.007 57.4632 126.274 63.6366 132.323 62.3429Z" fill="#F4A386"/>
<path d="M131.06 58.2595C130.98 58.2595 130.901 58.2351 130.834 58.1893C130.768 58.1436 130.717 58.0788 130.688 58.0034C130.664 57.9476 130.222 56.9965 127.963 57.1627C127.858 57.1706 127.754 57.1363 127.674 57.0674C127.594 56.9985 127.544 56.9007 127.536 56.7954C127.528 56.6901 127.563 56.5859 127.632 56.5059C127.701 56.4259 127.799 56.3766 127.904 56.3687C130.832 56.1505 131.41 57.6618 131.433 57.7264C131.455 57.7866 131.462 57.8513 131.454 57.9148C131.445 57.9784 131.422 58.0389 131.385 58.0914C131.348 58.1439 131.299 58.1867 131.242 58.2163C131.185 58.2458 131.122 58.2611 131.058 58.261L131.06 58.2595Z" fill="#212121"/>
<path d="M129.206 58.9901C129.137 58.9905 129.069 58.9727 129.008 58.9386C128.948 58.9045 128.898 58.8553 128.862 58.7958C128.677 58.4584 128.58 58.0798 128.58 57.6951C128.58 57.3103 128.677 56.9318 128.862 56.5944C128.917 56.506 129.004 56.4423 129.104 56.4169C129.205 56.3915 129.312 56.4064 129.402 56.4584C129.492 56.5103 129.558 56.5953 129.586 56.6953C129.614 56.7952 129.602 56.9021 129.553 56.9934C129.437 57.2086 129.377 57.449 129.377 57.6931C129.377 57.9373 129.437 58.1777 129.553 58.3929C129.588 58.4534 129.607 58.5221 129.607 58.5922C129.607 58.6622 129.589 58.7311 129.554 58.792C129.52 58.8528 129.469 58.9033 129.409 58.9386C129.348 58.9738 129.279 58.9924 129.209 58.9926L129.206 58.9901Z" fill="#212121"/>
<path d="M166.948 56.5003C166.872 56.5002 166.798 56.4784 166.734 56.4374C166.669 56.3964 166.618 56.3379 166.587 56.2689C166.555 56.1999 166.543 56.1232 166.553 56.0478C166.564 55.9725 166.595 55.9017 166.645 55.8437C167.867 54.4068 170.463 54.1866 170.573 54.1779C170.676 54.1732 170.777 54.2088 170.855 54.2773C170.932 54.3457 170.98 54.4415 170.988 54.5446C170.996 54.6477 170.964 54.7499 170.898 54.8296C170.832 54.9093 170.738 54.9604 170.635 54.9719C170.612 54.9719 168.26 55.176 167.252 56.3598C167.215 56.4039 167.168 56.4394 167.116 56.4636C167.063 56.4879 167.006 56.5004 166.948 56.5003Z" fill="#212121"/>
<path d="M169.275 57.0646C169.214 57.0647 169.154 57.0509 169.099 57.0241C169.044 56.9973 168.996 56.9583 168.959 56.91C168.922 56.8618 168.896 56.8057 168.884 56.7459C168.872 56.6862 168.873 56.6245 168.889 56.5655C168.969 56.3448 168.979 56.105 168.918 55.8784C168.857 55.6517 168.728 55.4492 168.548 55.2981C168.463 55.2365 168.406 55.1438 168.388 55.0402C168.371 54.9365 168.395 54.8302 168.455 54.7442C168.515 54.6587 168.607 54.6004 168.71 54.5822C168.813 54.564 168.918 54.5873 169.004 54.647C169.319 54.8904 169.55 55.2245 169.668 55.6041C169.786 55.9836 169.784 56.3902 169.663 56.7686C169.64 56.8539 169.59 56.9292 169.52 56.9827C169.449 57.0363 169.363 57.0651 169.275 57.0646Z" fill="#212121"/>
<path d="M129.199 118.843H122.819V122.76H129.199V118.843Z" fill="white"/>
<path d="M122.819 115.393V109.017C122.819 109.017 125.96 108.104 126.508 107.754C127.056 107.403 128.454 106.857 128.203 104.367C127.903 102.127 122.67 102.424 122.271 105.961L118.084 101.529C118.084 101.529 121.823 95.5032 128.452 95.6534C135.081 95.8036 136.327 101.529 136.178 103.769C136.029 106.009 135.978 108.699 132.237 110.84C130.643 111.686 128.998 112.085 128.948 112.832C128.898 113.58 128.948 115.389 128.948 115.389L122.819 115.393Z" fill="white"/>
<path d="M108.064 69.2144L102.821 77.0816L96.2012 73.191L106.368 66.531L108.064 69.2144Z" fill="#212121"/>
<path d="M106.968 63.3555V61.4797L94.6061 60.3513C94.6061 60.3513 94.0082 65.9276 97.0983 67.0235L106.968 63.3555Z" fill="#212121"/>
<path d="M111.967 24.2406C111.877 24.2399 111.788 24.2235 111.703 24.192C111.521 24.1071 111.366 23.9749 111.253 23.8094C111.14 23.6439 111.074 23.4511 111.061 23.2512C110.976 22.9218 110.914 22.587 110.876 22.2492C110.616 22.1607 110.355 22.0587 110.094 21.9425C109.514 21.7258 109.009 21.3469 108.639 20.8511C106.956 20.9254 105.702 20.87 105.585 20.8642C105.48 20.8578 105.382 20.8105 105.312 20.7325C105.242 20.6545 105.205 20.5521 105.21 20.4475C105.215 20.3428 105.261 20.2444 105.339 20.1734C105.416 20.1024 105.518 20.0646 105.623 20.0682C105.65 20.0682 106.81 20.1212 108.401 20.058C108.401 20.0029 108.404 19.9479 108.411 19.8932C108.45 19.5934 108.559 19.3071 108.73 19.0574C108.116 18.849 107.583 18.4525 107.208 17.9242C106.901 17.4978 106.733 16.9878 106.726 16.4631C106.719 15.9383 106.874 15.4241 107.169 14.99C107.419 14.6746 107.766 14.4504 108.157 14.3524C108.548 14.2543 108.96 14.2878 109.33 14.4476C109.546 14.5264 109.758 14.6061 109.966 14.6867C109.803 13.7408 109.837 12.7714 110.067 11.8395C110.318 11.0877 110.743 10.9896 110.977 11.0022C111.246 11.0139 112.065 11.0508 112.879 14.4476C112.968 14.8189 113.049 15.1787 113.123 15.5269C113.814 14.6632 114.61 13.8886 115.493 13.2211C116.106 12.7599 117.608 11.7326 118.327 12.1568C118.446 12.229 118.54 12.3366 118.595 12.4646C118.649 12.5926 118.662 12.7344 118.632 12.8702C118.599 13.1407 118.581 13.4127 118.579 13.6852C118.573 13.9281 118.566 14.1789 118.54 14.4321C119.079 14.3913 119.372 14.4933 119.513 14.7412C119.649 14.9726 119.735 15.2301 119.764 15.4968C119.794 15.7635 119.766 16.0335 119.684 16.2889C119.37 17.2978 118.241 18.2969 116.327 19.261C116.423 19.4808 116.49 19.7116 116.527 19.9482C116.593 20.3326 116.549 20.7277 116.401 21.0885C116.253 21.4494 116.007 21.7614 115.69 21.9892C115.556 22.0906 115.414 22.1799 115.264 22.256C115.351 22.3191 115.439 22.3808 115.529 22.4421C115.572 22.4716 115.609 22.5094 115.638 22.5532C115.667 22.5971 115.686 22.6461 115.696 22.6975C115.706 22.749 115.705 22.8018 115.694 22.853C115.684 22.9043 115.663 22.9529 115.633 22.9961C115.604 23.0393 115.566 23.0762 115.522 23.1048C115.478 23.1334 115.429 23.1531 115.378 23.1628C115.326 23.1725 115.273 23.1719 115.222 23.1611C115.171 23.1504 115.122 23.1296 115.079 23.1001C114.83 22.9297 114.591 22.7531 114.363 22.5704C114.025 22.6408 113.68 22.6764 113.335 22.6768C113.217 23.1633 112.969 23.609 112.619 23.967C112.443 24.1356 112.211 24.2331 111.967 24.2406ZM111.717 22.4878C111.749 22.6802 111.79 22.8746 111.841 23.0709L111.849 23.1146C111.883 23.3513 111.96 23.4368 111.979 23.447C112.071 23.4003 112.149 23.3296 112.204 23.2424C112.338 23.0549 112.443 22.8483 112.515 22.6297C112.247 22.5962 111.98 22.5488 111.717 22.4878ZM113.522 21.8332C113.522 21.8468 113.518 21.8609 113.515 21.8745H113.564L113.522 21.8332ZM111.632 21.6471C111.988 21.7442 112.35 21.8125 112.716 21.8512C112.758 21.6189 112.792 21.3652 112.814 21.0829C112.643 20.8856 112.481 20.6839 112.327 20.4808C112.111 20.5167 111.895 20.5499 111.679 20.5804C111.635 20.9343 111.62 21.2912 111.632 21.6475V21.6471ZM113.63 20.7976C113.918 21.1136 114.225 21.412 114.548 21.6913C114.783 21.6162 115.004 21.5033 115.203 21.3569C115.405 21.2151 115.563 21.0186 115.658 20.7904C115.753 20.5621 115.78 20.3116 115.738 20.0682C115.711 19.9071 115.664 19.7501 115.598 19.6007C114.967 19.8573 114.316 20.0632 113.652 20.2164C113.648 20.4182 113.64 20.612 113.63 20.7976ZM109.674 20.7898C109.906 20.9592 110.156 21.1012 110.42 21.2131C110.559 21.2743 110.696 21.331 110.831 21.3832C110.831 21.1473 110.843 20.9134 110.866 20.6815C110.461 20.7242 110.061 20.7616 109.674 20.7898ZM109.559 19.2571C109.438 19.4025 109.339 19.5652 109.267 19.7397C109.228 19.8273 109.206 19.9212 109.202 20.0167C109.771 19.9822 110.375 19.9321 110.99 19.8607C111.032 19.6553 111.081 19.452 111.136 19.2508C110.613 19.3235 110.082 19.3256 109.559 19.2571ZM112.31 19.0171C112.428 19.2137 112.553 19.4096 112.686 19.6046L112.844 19.574C112.837 19.3504 112.824 19.1173 112.805 18.8747L112.603 18.9349C112.504 18.9641 112.406 18.9915 112.31 19.0171ZM113.585 18.6283C113.607 18.8962 113.623 19.1536 113.633 19.4005C114.162 19.2724 114.681 19.1081 115.187 18.9087C115.011 18.6761 114.817 18.458 114.607 18.2565C114.293 18.379 113.952 18.5029 113.585 18.6264V18.6283ZM115.398 17.9203C115.593 18.1222 115.772 18.3386 115.933 18.5676C118.083 17.4917 118.747 16.6111 118.92 16.0537C119.012 15.7805 118.992 15.4821 118.864 15.2237C118.7 15.2074 118.534 15.2138 118.371 15.2427C118.075 16.1198 117.331 17.0271 115.398 17.9183V17.9203ZM110.939 18.1117C110.733 18.2434 110.54 18.3761 110.363 18.5102C110.609 18.506 110.854 18.4868 111.097 18.4529C111.043 18.3372 110.99 18.2235 110.939 18.1098V18.1117ZM108.556 15.1042C108.409 15.101 108.264 15.1332 108.132 15.198C108.001 15.2628 107.887 15.3583 107.801 15.4764C107.609 15.7772 107.513 16.1289 107.525 16.4853C107.536 16.8417 107.656 17.1862 107.867 17.4737C108.208 17.9478 108.715 18.2772 109.287 18.397C109.7 18.0084 110.153 17.663 110.636 17.3663C110.423 16.7931 110.252 16.2051 110.124 15.6071C109.789 15.4711 109.434 15.3348 109.059 15.1984C108.898 15.138 108.728 15.1055 108.556 15.1022V15.1042ZM112.674 17.6404C112.581 17.8095 112.492 17.9841 112.406 18.1642L112.728 18.067C112.711 17.9256 112.693 17.7837 112.674 17.6384V17.6404ZM113.434 17.3167C113.458 17.4873 113.483 17.654 113.501 17.8177C113.646 17.7691 113.787 17.7205 113.923 17.669C113.772 17.5519 113.61 17.4343 113.434 17.3148V17.3167ZM111.634 17.7001C111.65 17.7371 111.667 17.774 111.683 17.8109C111.712 17.7482 111.742 17.6856 111.774 17.6234C111.726 17.6467 111.679 17.6724 111.633 17.6982L111.634 17.7001ZM113.851 16.6446C114.171 16.8584 114.479 17.0891 114.775 17.3357C116.289 16.6923 117.032 16.0663 117.402 15.4404C116.192 15.7589 115.005 16.1605 113.85 16.6422L113.851 16.6446ZM111.039 16.0007C111.123 16.3113 111.221 16.6301 111.338 16.9532C111.595 16.8108 111.861 16.6719 112.133 16.5377C111.8 16.3595 111.435 16.1799 111.038 15.9988L111.039 16.0007ZM110.823 15.0381C111.369 15.272 111.879 15.513 112.353 15.7612C112.279 15.3986 112.196 15.0232 112.103 14.6347C111.563 12.3799 111.082 11.9027 110.959 11.8162C110.723 12.2629 110.621 12.7685 110.667 13.2716C110.663 13.8634 110.715 14.4542 110.822 15.0361L110.823 15.0381ZM117.829 12.8513C117.359 12.9101 116.026 13.6196 114.627 15.0381C114.451 15.2174 114.24 15.4419 114.015 15.7067C115.188 15.2357 116.396 14.8563 117.628 14.572L117.715 14.5541C117.758 14.259 117.78 13.9614 117.781 13.6633C117.786 13.3989 117.793 13.1268 117.827 12.8518L117.829 12.8513Z" fill="#212121"/>
<path d="M127.272 11.9966C127.133 11.9967 126.999 11.9484 126.892 11.8603C126.785 11.7721 126.711 11.6494 126.685 11.5133C126.658 11.3771 126.68 11.236 126.746 11.1141C126.812 10.9922 126.919 10.897 127.048 10.8449L131.434 9.07313C131.508 9.03839 131.588 9.01903 131.669 9.01622C131.75 9.01342 131.831 9.02724 131.907 9.05683C131.983 9.08642 132.052 9.13117 132.11 9.18832C132.168 9.24547 132.213 9.31382 132.244 9.3892C132.274 9.46457 132.289 9.54538 132.287 9.62667C132.285 9.70795 132.267 9.788 132.233 9.86191C132.199 9.93583 132.15 10.002 132.09 10.0565C132.03 10.111 131.959 10.1526 131.882 10.1787L127.496 11.951C127.425 11.9803 127.349 11.9958 127.272 11.9966Z" fill="#212121"/>
<path d="M118.366 5.31148C118.261 5.3112 118.158 5.28332 118.067 5.23064C117.976 5.17796 117.901 5.10232 117.848 5.01133C117.796 4.92034 117.768 4.81719 117.769 4.71224C117.769 4.6073 117.797 4.50424 117.849 4.41343L120.242 0.297393C120.28 0.22664 120.331 0.164225 120.394 0.113866C120.456 0.0635079 120.528 0.0262362 120.606 0.00427509C120.683 -0.0176861 120.764 -0.0238881 120.843 -0.0139623C120.923 -0.0040365 121 0.0218142 121.069 0.0620497C121.139 0.102285 121.2 0.156082 121.248 0.220234C121.296 0.284385 121.331 0.357581 121.35 0.435455C121.37 0.513329 121.373 0.594288 121.36 0.67351C121.348 0.752732 121.319 0.828595 121.276 0.896576L118.884 5.01261C118.831 5.10346 118.756 5.17891 118.665 5.23137C118.574 5.28383 118.471 5.31146 118.366 5.31148Z" fill="#212121"/>
<path d="M104.409 8.3655C104.289 8.36545 104.172 8.32916 104.072 8.26137C103.973 8.19357 103.896 8.09743 103.852 7.98549L102.656 4.93174C102.627 4.85864 102.613 4.7806 102.614 4.70207C102.616 4.62355 102.633 4.54607 102.664 4.47408C102.696 4.40208 102.741 4.33697 102.797 4.28246C102.854 4.22795 102.921 4.18512 102.994 4.1564C103.067 4.12769 103.145 4.11365 103.224 4.11509C103.303 4.11653 103.38 4.13343 103.452 4.16482C103.524 4.1962 103.589 4.24146 103.644 4.29801C103.699 4.35455 103.741 4.42128 103.77 4.49438L104.966 7.54813C105.002 7.63872 105.015 7.73655 105.003 7.83315C104.992 7.92975 104.958 8.02221 104.903 8.10253C104.848 8.18284 104.775 8.24858 104.689 8.29406C104.603 8.33955 104.507 8.3634 104.409 8.36356V8.3655Z" fill="#212121"/>
<path d="M95.104 21.0647C94.9571 21.0644 94.8154 21.0101 94.7059 20.9122C94.5964 20.8142 94.5269 20.6794 94.5106 20.5335C94.4942 20.3876 94.5322 20.2408 94.6172 20.1211C94.7023 20.0014 94.8285 19.9171 94.9717 19.8843L98.8261 19.0052C98.9027 18.9878 98.9821 18.9855 99.0596 18.9987C99.1371 19.0118 99.2113 19.0401 99.2779 19.0819C99.3445 19.1237 99.4022 19.1782 99.4477 19.2422C99.4932 19.3063 99.5256 19.3787 99.5431 19.4552C99.5606 19.5318 99.5629 19.6111 99.5497 19.6885C99.5365 19.766 99.5082 19.8401 99.4664 19.9066C99.4246 19.9731 99.37 20.0307 99.3059 20.0762C99.2418 20.1217 99.1693 20.154 99.0926 20.1715L95.2378 21.0506C95.1939 21.0603 95.149 21.065 95.104 21.0647Z" fill="#212121"/>
<path d="M106.968 33.7277C106.902 33.7276 106.836 33.7166 106.774 33.6952C106.624 33.6436 106.5 33.5346 106.431 33.3922C106.361 33.2497 106.351 33.0855 106.403 32.9356L107.499 29.7487C107.552 29.6011 107.662 29.4802 107.804 29.4124C107.945 29.3446 108.108 29.3352 108.257 29.3863C108.405 29.4373 108.528 29.5447 108.598 29.6853C108.668 29.8259 108.68 29.9883 108.631 30.1375L107.534 33.3244C107.494 33.442 107.417 33.5441 107.316 33.6164C107.214 33.6887 107.093 33.7276 106.968 33.7277Z" fill="#212121"/>
<path d="M122.886 29.611C122.799 29.6111 122.713 29.5921 122.634 29.5554C122.554 29.5187 122.484 29.4652 122.428 29.3986L120.302 26.8755C120.248 26.8158 120.208 26.7462 120.182 26.6705C120.156 26.5949 120.146 26.515 120.152 26.4353C120.158 26.3557 120.179 26.278 120.216 26.2069C120.252 26.1357 120.302 26.0726 120.363 26.0211C120.424 25.9697 120.495 25.931 120.572 25.9074C120.648 25.8838 120.728 25.8757 120.808 25.8835C120.887 25.8914 120.965 25.9152 121.035 25.9533C121.105 25.9915 121.167 26.0433 121.217 26.1058L123.343 28.6284C123.417 28.7153 123.464 28.8215 123.479 28.9343C123.494 29.0472 123.477 29.162 123.429 29.2653C123.381 29.3685 123.304 29.4559 123.208 29.5172C123.112 29.5784 123 29.611 122.886 29.611Z" fill="#212121"/>
<path d="M298.873 186.963H0.59812C0.439489 186.963 0.287354 186.9 0.175185 186.788C0.0630156 186.676 0 186.524 0 186.365C0 186.207 0.0630156 186.055 0.175185 185.943C0.287354 185.831 0.439489 185.768 0.59812 185.768H298.873C299.031 185.768 299.183 185.831 299.296 185.943C299.408 186.055 299.471 186.207 299.471 186.365C299.471 186.524 299.408 186.676 299.296 186.788C299.183 186.9 299.031 186.963 298.873 186.963Z" fill="#212121"/>
</g>
<defs>
<clipPath id="clip0_5304_161033">
<rect width="320" height="187" fill="white"/>
</clipPath>
</defs>
</svg>
