<?xml version="1.0" standalone="no"?>
<!DOCTYPE svg PUBLIC "-//W3C//DTD SVG 20010904//EN"
 "http://www.w3.org/TR/2001/REC-SVG-20010904/DTD/svg10.dtd">
<svg version="1.0" xmlns="http://www.w3.org/2000/svg"
 width="1983.000000pt" height="2043.000000pt" viewBox="0 0 1983.000000 2043.000000"
 preserveAspectRatio="xMidYMid meet">

<g transform="translate(0.000000,2043.000000) scale(0.100000,-0.100000)"
fill="#000000" stroke="none">
<path d="M9340 19135 c0 -12 -14 -15 -65 -15 -51 0 -65 -3 -65 -15 0 -10 -10
-15 -30 -15 -20 0 -30 -5 -30 -15 0 -10 -10 -15 -30 -15 -23 0 -30 -4 -30 -20
0 -16 -7 -20 -35 -20 -24 0 -35 -5 -35 -15 0 -8 -7 -15 -15 -15 -8 0 -15 -7
-15 -15 0 -8 -7 -15 -15 -15 -8 0 -15 -7 -15 -15 0 -8 -7 -15 -15 -15 -8 0
-15 -7 -15 -15 0 -8 -7 -15 -15 -15 -8 0 -15 -7 -15 -15 0 -8 -7 -15 -15 -15
-8 0 -15 -7 -15 -15 0 -8 -7 -15 -15 -15 -10 0 -15 -11 -15 -35 0 -28 -4 -35
-20 -35 -16 0 -20 -7 -20 -30 0 -20 -5 -30 -15 -30 -10 0 -15 -10 -15 -30 0
-20 -5 -30 -15 -30 -12 0 -15 -14 -15 -65 0 -51 -3 -65 -15 -65 -13 0 -15 -31
-15 -215 0 -184 -2 -215 -15 -215 -8 0 -15 -7 -15 -15 0 -11 -12 -15 -45 -15
-38 0 -45 -3 -45 -20 0 -17 -7 -20 -50 -20 -38 0 -50 -4 -50 -15 0 -10 -10
-15 -30 -15 -20 0 -30 -5 -30 -15 0 -11 -12 -15 -45 -15 -33 0 -45 -4 -45 -15
0 -10 -11 -15 -35 -15 -24 0 -35 -5 -35 -15 0 -8 -7 -15 -15 -15 -8 0 -15 -7
-15 -15 0 -10 -10 -15 -30 -15 -20 0 -30 -5 -30 -15 0 -10 -10 -15 -30 -15
-20 0 -30 -5 -30 -15 0 -8 -7 -15 -15 -15 -8 0 -15 -9 -15 -20 0 -16 -7 -20
-35 -20 -24 0 -35 -5 -35 -15 0 -8 -7 -15 -15 -15 -8 0 -15 -7 -15 -15 0 -8
-7 -15 -15 -15 -8 0 -15 -7 -15 -15 0 -8 -7 -15 -15 -15 -8 0 -15 -7 -15 -15
0 -10 -10 -15 -30 -15 -20 0 -30 -5 -30 -15 0 -8 -7 -15 -15 -15 -8 0 -15 -7
-15 -15 0 -8 -9 -15 -20 -15 -11 0 -20 -7 -20 -15 0 -8 -7 -15 -15 -15 -8 0
-15 -9 -15 -20 0 -11 -7 -20 -15 -20 -8 0 -15 -7 -15 -15 0 -8 -7 -15 -15 -15
-10 0 -15 -10 -15 -30 0 -20 -5 -30 -15 -30 -8 0 -15 -7 -15 -15 0 -13 -28
-15 -190 -15 -162 0 -190 -2 -190 -15 0 -12 -15 -15 -75 -15 -60 0 -75 -3 -75
-15 0 -11 -12 -15 -50 -15 -38 0 -50 -4 -50 -15 0 -11 -12 -15 -45 -15 -38 0
-45 -3 -45 -20 0 -16 -7 -20 -30 -20 -20 0 -30 -5 -30 -15 0 -10 -10 -15 -30
-15 -20 0 -30 -5 -30 -15 0 -10 -11 -15 -35 -15 -24 0 -35 -5 -35 -15 0 -8 -7
-15 -15 -15 -8 0 -15 -7 -15 -15 0 -8 -7 -15 -15 -15 -8 0 -15 -7 -15 -15 0
-10 -10 -15 -30 -15 -20 0 -30 -5 -30 -15 0 -8 -7 -15 -15 -15 -8 0 -15 -7
-15 -15 0 -8 -7 -15 -15 -15 -8 0 -15 -9 -15 -20 0 -13 -7 -20 -20 -20 -11 0
-20 -7 -20 -15 0 -8 -7 -15 -15 -15 -8 0 -15 -7 -15 -15 0 -8 -7 -15 -15 -15
-10 0 -15 -10 -15 -30 0 -20 -5 -30 -15 -30 -8 0 -15 -7 -15 -15 0 -8 -7 -15
-15 -15 -8 0 -15 -7 -15 -15 0 -8 -7 -15 -15 -15 -10 0 -15 -11 -15 -35 0 -24
-5 -35 -15 -35 -10 0 -15 -10 -15 -30 0 -20 -5 -30 -15 -30 -10 0 -15 -10 -15
-30 0 -23 -4 -30 -20 -30 -17 0 -20 -7 -20 -45 0 -33 -4 -45 -15 -45 -11 0
-15 -12 -15 -50 0 -38 -4 -50 -15 -50 -12 0 -15 -15 -15 -75 0 -60 -3 -75 -15
-75 -13 0 -15 -24 -15 -160 0 -136 2 -160 15 -160 12 0 15 -15 15 -75 0 -60 3
-75 15 -75 11 0 15 -12 15 -50 0 -38 4 -50 15 -50 11 0 15 -12 15 -45 0 -38 3
-45 20 -45 16 0 20 -7 20 -30 0 -20 5 -30 15 -30 10 0 15 -11 15 -35 0 -24 5
-35 15 -35 10 0 15 -10 15 -30 0 -20 5 -30 15 -30 8 0 15 -7 15 -15 0 -8 7
-15 15 -15 8 0 15 -7 15 -15 0 -8 7 -15 15 -15 10 0 15 -10 15 -30 0 -20 5
-30 15 -30 8 0 15 -7 15 -15 0 -8 7 -15 15 -15 8 0 15 -9 15 -20 0 -13 7 -20
20 -20 11 0 20 -7 20 -15 0 -8 7 -15 15 -15 8 0 15 -7 15 -15 0 -8 7 -15 15
-15 8 0 15 -7 15 -15 0 -10 10 -15 30 -15 20 0 30 -5 30 -15 0 -8 7 -15 15
-15 8 0 15 -7 15 -15 0 -8 7 -15 15 -15 8 0 15 -7 15 -15 0 -10 11 -15 35 -15
24 0 35 -5 35 -15 0 -10 10 -15 30 -15 23 0 30 -4 30 -20 0 -16 7 -20 30 -20
20 0 30 -5 30 -15 0 -11 12 -15 45 -15 33 0 45 -4 45 -15 0 -11 12 -15 50 -15
38 0 50 -4 50 -15 0 -12 15 -15 75 -15 60 0 75 -3 75 -15 0 -13 28 -15 190
-15 162 0 190 -2 190 -15 0 -8 7 -15 15 -15 10 0 15 -10 15 -30 0 -20 5 -30
15 -30 8 0 15 -9 15 -20 0 -11 7 -20 15 -20 8 0 15 -7 15 -15 0 -8 7 -15 15
-15 8 0 15 -7 15 -15 0 -8 9 -15 20 -15 11 0 20 -7 20 -15 0 -8 7 -15 15 -15
8 0 15 -7 15 -15 0 -10 10 -15 30 -15 20 0 30 -5 30 -15 0 -8 7 -15 15 -15 8
0 15 -7 15 -15 0 -8 7 -15 15 -15 8 0 15 -7 15 -15 0 -8 7 -15 15 -15 8 0 15
-9 15 -20 0 -16 7 -20 35 -20 24 0 35 -5 35 -15 0 -8 7 -15 15 -15 8 0 15 -7
15 -15 0 -10 10 -15 30 -15 20 0 30 -5 30 -15 0 -10 10 -15 30 -15 20 0 30 -5
30 -15 0 -8 7 -15 15 -15 8 0 15 -7 15 -15 0 -10 11 -15 35 -15 24 0 35 -5 35
-15 0 -11 12 -15 45 -15 33 0 45 -4 45 -15 0 -10 10 -15 30 -15 23 0 30 -4 30
-20 0 -17 7 -20 50 -20 38 0 50 -4 50 -15 0 -11 12 -15 45 -15 33 0 45 -4 45
-15 0 -8 7 -15 15 -15 13 0 15 -38 15 -280 l0 -280 -280 0 c-242 0 -280 -2
-280 -15 0 -11 -12 -15 -50 -15 -38 0 -50 -4 -50 -15 0 -10 -10 -15 -30 -15
-20 0 -30 -5 -30 -15 0 -10 -10 -15 -30 -15 -23 0 -30 -4 -30 -20 0 -16 -7
-20 -30 -20 -20 0 -30 -5 -30 -15 0 -10 -11 -15 -35 -15 -24 0 -35 -5 -35 -15
0 -8 -7 -15 -15 -15 -8 0 -15 -7 -15 -15 0 -10 -10 -15 -30 -15 -20 0 -30 -5
-30 -15 0 -8 -7 -15 -15 -15 -8 0 -15 7 -15 15 0 10 -10 15 -30 15 -20 0 -30
5 -30 15 0 8 -7 15 -15 15 -8 0 -15 7 -15 15 0 10 -11 15 -35 15 -24 0 -35 5
-35 15 0 10 -10 15 -30 15 -23 0 -30 4 -30 20 0 17 -7 20 -45 20 -33 0 -45 4
-45 15 0 11 -12 15 -50 15 -38 0 -50 4 -50 15 0 12 -15 15 -75 15 -60 0 -75 3
-75 15 0 13 -24 15 -160 15 -136 0 -160 -2 -160 -15 0 -12 -15 -15 -75 -15
-60 0 -75 -3 -75 -15 0 -11 -12 -15 -50 -15 -38 0 -50 -4 -50 -15 0 -11 -12
-15 -45 -15 -38 0 -45 -3 -45 -20 0 -16 -7 -20 -30 -20 -20 0 -30 -5 -30 -15
0 -10 -10 -15 -30 -15 -20 0 -30 -5 -30 -15 0 -10 -11 -15 -35 -15 -24 0 -35
-5 -35 -15 0 -8 -7 -15 -15 -15 -8 0 -15 -7 -15 -15 0 -8 -7 -15 -15 -15 -8 0
-15 -7 -15 -15 0 -10 -10 -15 -30 -15 -20 0 -30 -5 -30 -15 0 -8 -7 -15 -15
-15 -8 0 -15 -7 -15 -15 0 -8 -7 -15 -15 -15 -8 0 -15 -9 -15 -20 0 -13 -7
-20 -20 -20 -11 0 -20 -7 -20 -15 0 -8 -7 -15 -15 -15 -8 0 -15 -7 -15 -15 0
-8 -7 -15 -15 -15 -10 0 -15 -10 -15 -30 0 -20 -5 -30 -15 -30 -8 0 -15 -7
-15 -15 0 -8 -7 -15 -15 -15 -10 0 -15 -10 -15 -30 0 -20 -5 -30 -15 -30 -8 0
-15 -9 -15 -20 0 -11 -7 -20 -15 -20 -10 0 -15 -10 -15 -30 0 -20 -5 -30 -15
-30 -10 0 -15 -10 -15 -30 0 -23 -4 -30 -20 -30 -17 0 -20 -7 -20 -45 0 -33
-4 -45 -15 -45 -11 0 -15 -12 -15 -50 0 -38 -4 -50 -15 -50 -12 0 -15 -17 -15
-95 0 -78 -3 -95 -15 -95 -11 0 -15 -12 -15 -45 0 -33 -4 -45 -15 -45 -8 0
-15 -7 -15 -15 0 -8 -7 -15 -15 -15 -8 0 -15 -7 -15 -15 0 -8 -7 -15 -15 -15
-8 0 -15 -7 -15 -15 0 -8 -7 -15 -15 -15 -10 0 -15 -11 -15 -35 0 -28 -4 -35
-20 -35 -11 0 -20 -7 -20 -15 0 -8 -7 -15 -15 -15 -8 0 -15 -7 -15 -15 0 -8
-7 -15 -15 -15 -8 0 -15 -7 -15 -15 0 -8 -7 -15 -15 -15 -10 0 -15 -10 -15
-30 0 -20 -5 -30 -15 -30 -8 0 -15 -7 -15 -15 0 -8 -7 -15 -15 -15 -8 0 -15
-7 -15 -15 0 -8 -7 -15 -15 -15 -10 0 -15 -11 -15 -35 0 -24 -5 -35 -15 -35
-8 0 -15 -7 -15 -15 0 -8 -9 -15 -20 -15 -16 0 -20 -7 -20 -30 0 -20 -5 -30
-15 -30 -8 0 -15 -7 -15 -15 0 -8 -7 -15 -15 -15 -10 0 -15 -10 -15 -30 0 -20
-5 -30 -15 -30 -10 0 -15 -11 -15 -35 0 -24 -5 -35 -15 -35 -8 0 -15 -7 -15
-15 0 -8 -7 -15 -15 -15 -10 0 -15 -10 -15 -30 0 -20 -5 -30 -15 -30 -10 0
-15 -10 -15 -30 0 -20 -5 -30 -15 -30 -10 0 -15 -11 -15 -35 0 -28 -4 -35 -20
-35 -16 0 -20 -7 -20 -30 0 -20 -5 -30 -15 -30 -8 0 -15 -7 -15 -15 0 -8 -7
-15 -15 -15 -10 0 -15 -10 -15 -30 0 -20 -5 -30 -15 -30 -10 0 -15 -10 -15
-30 0 -20 -5 -30 -15 -30 -11 0 -15 -12 -15 -50 0 -38 -4 -50 -15 -50 -10 0
-15 -10 -15 -30 0 -20 -5 -30 -15 -30 -10 0 -15 -10 -15 -30 0 -20 -5 -30 -15
-30 -10 0 -15 -11 -15 -35 0 -28 -4 -35 -20 -35 -17 0 -20 -7 -20 -45 0 -33
-4 -45 -15 -45 -10 0 -15 -10 -15 -30 0 -20 -5 -30 -15 -30 -11 0 -15 -12 -15
-50 0 -38 -4 -50 -15 -50 -10 0 -15 -10 -15 -30 0 -20 -5 -30 -15 -30 -11 0
-15 -12 -15 -45 0 -33 -4 -45 -15 -45 -11 0 -15 -12 -15 -50 0 -38 -4 -50 -15
-50 -11 0 -15 -12 -15 -45 0 -33 -4 -45 -15 -45 -11 0 -15 -12 -15 -45 0 -38
-3 -45 -20 -45 -17 0 -20 -7 -20 -50 0 -38 -4 -50 -15 -50 -12 0 -15 -13 -15
-60 0 -47 -3 -60 -15 -60 -11 0 -15 -12 -15 -50 0 -38 -4 -50 -15 -50 -12 0
-15 -13 -15 -60 0 -47 -3 -60 -15 -60 -12 0 -15 -14 -15 -65 0 -51 -3 -65 -15
-65 -12 0 -15 -13 -15 -60 0 -47 -3 -60 -15 -60 -12 0 -15 -14 -15 -65 0 -51
-3 -65 -15 -65 -12 0 -15 -15 -15 -75 0 -68 -2 -75 -20 -75 -19 0 -20 -7 -20
-95 0 -78 -3 -95 -15 -95 -12 0 -15 -19 -15 -110 0 -91 -3 -110 -15 -110 -13
0 -15 -22 -15 -140 0 -118 -2 -140 -15 -140 -10 0 -15 -10 -15 -30 0 -20 -5
-30 -15 -30 -8 0 -15 -7 -15 -15 0 -8 -7 -15 -15 -15 -8 0 -15 -7 -15 -15 0
-8 -7 -15 -15 -15 -8 0 -15 -9 -15 -20 0 -11 -7 -20 -15 -20 -8 0 -15 -7 -15
-15 0 -8 -9 -15 -20 -15 -11 0 -20 -7 -20 -15 0 -8 -7 -15 -15 -15 -8 0 -15
-7 -15 -15 0 -8 -7 -15 -15 -15 -8 0 -15 -7 -15 -15 0 -8 -7 -15 -15 -15 -10
0 -15 -10 -15 -30 0 -20 -5 -30 -15 -30 -8 0 -15 -7 -15 -15 0 -8 -7 -15 -15
-15 -10 0 -15 -11 -15 -35 0 -24 -5 -35 -15 -35 -10 0 -15 -10 -15 -30 0 -20
-5 -30 -15 -30 -10 0 -15 -10 -15 -30 0 -23 -4 -30 -20 -30 -17 0 -20 -7 -20
-50 0 -38 -4 -50 -15 -50 -11 0 -15 -12 -15 -45 0 -33 -4 -45 -15 -45 -12 0
-15 -16 -15 -80 0 -64 -3 -80 -15 -80 -13 0 -15 -36 -15 -265 0 -229 2 -265
15 -265 12 0 15 -13 15 -60 0 -47 3 -60 15 -60 11 0 15 -12 15 -50 0 -38 4
-50 15 -50 10 0 15 -10 15 -30 0 -23 4 -30 20 -30 16 0 20 -7 20 -30 0 -20 5
-30 15 -30 10 0 15 -10 15 -30 0 -20 5 -30 15 -30 8 0 15 -7 15 -15 0 -8 7
-15 15 -15 8 0 15 -9 15 -20 0 -11 7 -20 15 -20 8 0 15 -7 15 -15 0 -8 7 -15
15 -15 10 0 15 -10 15 -30 0 -27 3 -30 30 -30 20 0 30 -5 30 -15 0 -8 9 -15
20 -15 11 0 20 -7 20 -15 0 -8 7 -15 15 -15 8 0 15 -7 15 -15 0 -8 7 -15 15
-15 8 0 15 -7 15 -15 0 -10 10 -15 30 -15 23 0 30 -4 30 -20 0 -16 7 -20 30
-20 20 0 30 -5 30 -15 0 -10 11 -15 35 -15 24 0 35 -5 35 -15 0 -11 12 -15 45
-15 33 0 45 -4 45 -15 0 -12 13 -15 60 -15 47 0 60 -3 60 -15 0 -12 16 -15 80
-15 l80 0 0 250 0 250 -60 0 c-47 0 -60 3 -60 15 0 11 -12 15 -50 15 -38 0
-50 4 -50 15 0 10 -10 15 -30 15 -20 0 -30 5 -30 15 0 8 -7 15 -15 15 -8 0
-15 7 -15 15 0 8 -7 15 -15 15 -8 0 -15 9 -15 20 0 11 -7 20 -15 20 -8 0 -15
7 -15 15 0 8 -9 15 -20 15 -11 0 -20 7 -20 15 0 8 -7 15 -15 15 -10 0 -15 10
-15 30 0 20 -5 30 -15 30 -11 0 -15 12 -15 45 0 33 -4 45 -15 45 -13 0 -15 34
-15 250 0 216 2 250 15 250 12 0 15 14 15 65 0 51 3 65 15 65 10 0 15 10 15
30 0 20 5 30 15 30 10 0 15 10 15 30 0 23 4 30 20 30 16 0 20 7 20 35 0 24 5
35 15 35 8 0 15 7 15 15 0 8 7 15 15 15 8 0 15 7 15 15 0 8 7 15 15 15 8 0 15
7 15 15 0 8 7 15 15 15 8 0 15 7 15 15 0 8 7 15 15 15 8 0 15 7 15 15 0 8 7
15 15 15 8 0 15 7 15 15 0 10 11 15 35 15 28 0 35 4 35 20 0 11 7 20 15 20 8
0 15 7 15 15 0 10 10 15 30 15 20 0 30 5 30 15 0 12 13 15 60 15 47 0 60 3 60
15 0 13 24 15 160 15 136 0 160 -2 160 -15 0 -12 13 -15 60 -15 47 0 60 -3 60
-15 0 -10 10 -15 30 -15 20 0 30 -5 30 -15 0 -10 11 -15 35 -15 28 0 35 -4 35
-20 0 -11 7 -20 15 -20 8 0 15 -7 15 -15 0 -8 7 -15 15 -15 8 0 15 -7 15 -15
0 -10 10 -15 30 -15 20 0 30 -5 30 -15 0 -8 7 -15 15 -15 10 0 15 -10 15 -30
0 -20 5 -30 15 -30 8 0 15 -7 15 -15 0 -8 9 -15 20 -15 11 0 20 -7 20 -15 0
-8 7 -15 15 -15 10 0 15 -11 15 -35 0 -24 5 -35 15 -35 10 0 15 -10 15 -30 0
-20 5 -30 15 -30 12 0 15 -13 15 -60 0 -47 3 -60 15 -60 13 0 15 -37 15 -270
0 -233 -2 -270 -15 -270 -11 0 -15 -12 -15 -45 0 -33 -4 -45 -15 -45 -10 0
-15 -10 -15 -30 0 -20 -5 -30 -15 -30 -8 0 -15 -7 -15 -15 0 -8 -7 -15 -15
-15 -8 0 -15 -7 -15 -15 0 -8 -9 -15 -20 -15 -13 0 -20 -7 -20 -20 0 -11 -7
-20 -15 -20 -8 0 -15 -7 -15 -15 0 -8 -7 -15 -15 -15 -8 0 -15 -7 -15 -15 0
-10 -10 -15 -30 -15 -20 0 -30 -5 -30 -15 0 -11 -12 -15 -45 -15 -33 0 -45 -4
-45 -15 0 -12 -14 -15 -65 -15 l-65 0 0 -250 0 -250 80 0 c64 0 80 3 80 15 0
12 13 15 60 15 47 0 60 3 60 15 0 11 12 15 50 15 38 0 50 4 50 15 0 10 10 15
30 15 20 0 30 5 30 15 0 10 10 15 30 15 23 0 30 4 30 20 0 16 7 20 30 20 20 0
30 5 30 15 0 8 7 15 15 15 8 0 15 7 15 15 0 8 9 15 20 15 11 0 20 7 20 15 0
10 10 15 30 15 20 0 30 5 30 15 0 8 7 15 15 15 8 0 15 7 15 15 0 8 7 15 15 15
10 0 15 10 15 30 0 20 5 30 15 30 8 0 15 9 15 20 0 11 7 20 15 20 8 0 15 7 15
15 0 8 7 15 15 15 10 0 15 10 15 30 0 23 4 30 20 30 16 0 20 7 20 30 0 20 5
30 15 30 10 0 15 10 15 30 0 20 5 30 15 30 11 0 15 12 15 50 0 38 4 50 15 50
12 0 15 13 15 60 0 47 3 60 15 60 13 0 15 38 15 285 0 247 -2 285 -15 285 -12
0 -15 15 -15 75 0 60 -3 75 -15 75 -11 0 -15 12 -15 50 0 38 -4 50 -15 50 -11
0 -15 12 -15 45 0 33 -4 45 -15 45 -10 0 -15 10 -15 30 0 23 -4 30 -20 30 -16
0 -20 7 -20 30 0 20 -5 30 -15 30 -10 0 -15 11 -15 35 0 24 -5 35 -15 35 -8 0
-15 7 -15 15 0 8 -7 15 -15 15 -8 0 -15 7 -15 15 0 8 -7 15 -15 15 -10 0 -15
10 -15 30 0 20 -5 30 -15 30 -8 0 -15 7 -15 15 0 8 -7 15 -15 15 -8 0 -15 7
-15 15 0 8 -7 15 -15 15 -8 0 -15 9 -15 20 0 13 -7 20 -20 20 -11 0 -20 7 -20
15 0 8 -7 15 -15 15 -8 0 -15 7 -15 15 0 10 -10 15 -30 15 -29 0 -30 2 -30 45
0 33 4 45 15 45 13 0 15 22 15 140 0 118 2 140 15 140 12 0 15 17 15 95 0 78
3 95 15 95 12 0 15 16 15 80 0 73 2 80 20 80 18 0 20 7 20 60 0 47 3 60 15 60
12 0 15 14 15 65 0 51 3 65 15 65 12 0 15 13 15 60 0 47 3 60 15 60 11 0 15
12 15 50 0 38 4 50 15 50 11 0 15 12 15 45 0 33 4 45 15 45 11 0 15 12 15 45
0 33 4 45 15 45 11 0 15 12 15 50 0 38 4 50 15 50 10 0 15 10 15 30 0 23 4 30
20 30 17 0 20 7 20 45 0 33 4 45 15 45 10 0 15 11 15 35 0 24 5 35 15 35 11 0
15 12 15 45 0 33 4 45 15 45 10 0 15 10 15 30 0 20 5 30 15 30 10 0 15 10 15
30 0 20 5 30 15 30 10 0 15 11 15 35 0 24 5 35 15 35 10 0 15 10 15 30 0 20 5
30 15 30 10 0 15 10 15 30 0 23 4 30 20 30 16 0 20 7 20 30 0 20 5 30 15 30
10 0 15 11 15 35 0 24 5 35 15 35 10 0 15 10 15 30 0 20 5 30 15 30 10 0 15
10 15 30 0 20 5 30 15 30 8 0 15 7 15 15 0 8 7 15 15 15 10 0 15 11 15 35 0
24 5 35 15 35 8 0 15 7 15 15 0 8 7 15 15 15 10 0 15 10 15 30 0 23 4 30 20
30 11 0 20 7 20 15 0 8 7 15 15 15 8 0 15 7 15 15 0 8 7 15 15 15 8 0 15 -7
15 -15 0 -12 15 -15 75 -15 60 0 75 -3 75 -15 0 -13 23 -15 145 -15 l145 0 0
-30 c0 -20 5 -30 15 -30 12 0 15 -17 15 -95 0 -78 3 -95 15 -95 12 0 15 -17
15 -95 0 -78 3 -95 15 -95 12 0 15 -17 15 -95 0 -78 3 -95 15 -95 12 0 15 -17
15 -90 0 -73 3 -90 15 -90 12 0 15 -19 15 -110 0 -91 3 -110 15 -110 12 0 15
-17 15 -95 0 -78 3 -95 15 -95 12 0 15 -17 15 -95 0 -88 1 -95 20 -95 19 0 20
-7 20 -90 0 -73 3 -90 15 -90 12 0 15 -17 15 -95 0 -78 3 -95 15 -95 12 0 15
-17 15 -95 0 -78 3 -95 15 -95 12 0 15 -17 15 -95 0 -78 3 -95 15 -95 10 0 15
-10 15 -30 0 -20 -5 -30 -15 -30 -10 0 -15 -10 -15 -30 0 -20 -5 -30 -15 -30
-10 0 -15 -10 -15 -30 0 -20 -5 -30 -15 -30 -10 0 -15 -11 -15 -35 0 -24 -5
-35 -15 -35 -10 0 -15 -10 -15 -30 0 -23 -4 -30 -20 -30 -16 0 -20 -7 -20 -30
0 -20 -5 -30 -15 -30 -10 0 -15 -10 -15 -30 0 -20 -5 -30 -15 -30 -10 0 -15
-11 -15 -35 0 -24 -5 -35 -15 -35 -10 0 -15 -10 -15 -30 0 -20 -5 -30 -15 -30
-10 0 -15 -10 -15 -30 0 -20 -5 -30 -15 -30 -10 0 -15 -10 -15 -30 0 -20 -5
-30 -15 -30 -10 0 -15 -11 -15 -35 0 -24 -5 -35 -15 -35 -10 0 -15 -10 -15
-30 0 -23 -4 -30 -20 -30 -16 0 -20 -7 -20 -30 0 -20 -5 -30 -15 -30 -10 0
-15 -10 -15 -30 0 -20 -5 -30 -15 -30 -10 0 -15 -11 -15 -35 0 -24 -5 -35 -15
-35 -10 0 -15 -10 -15 -30 0 -20 -5 -30 -15 -30 -10 0 -15 -10 -15 -30 0 -20
-5 -30 -15 -30 -10 0 -15 -10 -15 -30 0 -20 -5 -30 -15 -30 -10 0 -15 -11 -15
-35 0 -24 -5 -35 -15 -35 -10 0 -15 -10 -15 -30 0 -23 -4 -30 -20 -30 -16 0
-20 -7 -20 -30 0 -20 -5 -30 -15 -30 -10 0 -15 -10 -15 -30 0 -20 -5 -30 -15
-30 -10 0 -15 -11 -15 -35 0 -24 -5 -35 -15 -35 -10 0 -15 -10 -15 -30 0 -20
-5 -30 -15 -30 -10 0 -15 -10 -15 -30 0 -20 -5 -30 -15 -30 -10 0 -15 -10 -15
-30 0 -20 -5 -30 -15 -30 -10 0 -15 -11 -15 -35 0 -24 -5 -35 -15 -35 -10 0
-15 -10 -15 -30 0 -23 -4 -30 -20 -30 -16 0 -20 -7 -20 -30 0 -20 -5 -30 -15
-30 -10 0 -15 -10 -15 -30 0 -20 -5 -30 -15 -30 -10 0 -15 -11 -15 -35 0 -24
-5 -35 -15 -35 -10 0 -15 -10 -15 -30 0 -20 -5 -30 -15 -30 -10 0 -15 -10 -15
-30 0 -20 -5 -30 -15 -30 -10 0 -15 -10 -15 -30 0 -20 -5 -30 -15 -30 -10 0
-15 -11 -15 -35 0 -24 -5 -35 -15 -35 -10 0 -15 -10 -15 -30 0 -23 -4 -30 -20
-30 -16 0 -20 -7 -20 -30 0 -20 -5 -30 -15 -30 -10 0 -15 -10 -15 -30 0 -20
-5 -30 -15 -30 -10 0 -15 -11 -15 -35 0 -24 -5 -35 -15 -35 -10 0 -15 -10 -15
-30 0 -20 -5 -30 -15 -30 -10 0 -15 -10 -15 -30 0 -20 -5 -30 -15 -30 -10 0
-15 -10 -15 -30 0 -20 -5 -30 -15 -30 -10 0 -15 -11 -15 -35 0 -24 -5 -35 -15
-35 -10 0 -15 -10 -15 -30 0 -23 -4 -30 -20 -30 -17 0 -20 -7 -20 -45 0 -33
-4 -45 -15 -45 -11 0 -15 -12 -15 -50 0 -38 -4 -50 -15 -50 -12 0 -15 -13 -15
-60 0 -47 -3 -60 -15 -60 -13 0 -15 -24 -15 -155 0 -131 2 -155 15 -155 12 0
15 -16 15 -80 0 -64 3 -80 15 -80 10 0 15 -10 15 -30 0 -20 5 -30 15 -30 11 0
15 -12 15 -50 0 -43 3 -50 20 -50 16 0 20 -7 20 -30 0 -20 5 -30 15 -30 8 0
15 -7 15 -15 0 -8 7 -15 15 -15 10 0 15 -10 15 -30 0 -20 5 -30 15 -30 8 0 15
-7 15 -15 0 -8 7 -15 15 -15 8 0 15 -9 15 -20 0 -11 7 -20 15 -20 8 0 15 -7
15 -15 0 -8 7 -15 15 -15 8 0 15 -7 15 -15 0 -8 7 -15 15 -15 8 0 15 -7 15
-15 0 -8 9 -15 20 -15 11 0 20 -7 20 -15 0 -8 7 -15 15 -15 8 0 15 -7 15 -15
0 -8 7 -15 15 -15 8 0 15 -7 15 -15 0 -10 10 -15 30 -15 20 0 30 -5 30 -15 0
-10 10 -15 30 -15 23 0 30 -4 30 -20 0 -11 7 -20 15 -20 8 0 15 -7 15 -15 0
-11 12 -15 50 -15 38 0 50 -4 50 -15 0 -11 12 -15 45 -15 33 0 45 -4 45 -15 0
-12 16 -15 80 -15 64 0 80 -3 80 -15 0 -10 10 -15 30 -15 l30 0 0 -80 c0 -64
3 -80 15 -80 12 0 15 -13 15 -60 0 -47 3 -60 15 -60 11 0 15 -12 15 -50 0 -38
4 -50 15 -50 10 0 15 -10 15 -30 0 -23 4 -30 20 -30 16 0 20 -7 20 -30 0 -20
5 -30 15 -30 10 0 15 -10 15 -30 0 -20 5 -30 15 -30 8 0 15 -7 15 -15 0 -8 7
-15 15 -15 8 0 15 -9 15 -20 0 -11 7 -20 15 -20 8 0 15 -7 15 -15 0 -8 7 -15
15 -15 10 0 15 -10 15 -30 0 -27 3 -30 30 -30 20 0 30 -5 30 -15 0 -8 9 -15
20 -15 11 0 20 -7 20 -15 0 -8 7 -15 15 -15 8 0 15 -7 15 -15 0 -8 7 -15 15
-15 8 0 15 -7 15 -15 0 -10 10 -15 30 -15 23 0 30 -4 30 -20 0 -16 7 -20 30
-20 20 0 30 -5 30 -15 0 -10 11 -15 35 -15 24 0 35 -5 35 -15 0 -11 12 -15 45
-15 33 0 45 -4 45 -15 0 -12 13 -15 60 -15 47 0 60 -3 60 -15 0 -13 24 -15
160 -15 136 0 160 2 160 15 0 12 13 15 60 15 47 0 60 3 60 15 0 11 12 15 50
15 38 0 50 4 50 15 0 10 10 15 30 15 20 0 30 5 30 15 0 10 10 15 30 15 23 0
30 4 30 20 0 16 7 20 30 20 20 0 30 5 30 15 0 8 7 15 15 15 8 0 15 7 15 15 0
8 9 15 20 15 11 0 20 7 20 15 0 10 10 15 30 15 20 0 30 5 30 15 0 8 7 15 15
15 8 0 15 7 15 15 0 8 7 15 15 15 10 0 15 10 15 30 0 20 5 30 15 30 8 0 15 9
15 20 0 11 7 20 15 20 8 0 15 7 15 15 0 8 7 15 15 15 10 0 15 10 15 30 0 23 4
30 20 30 16 0 20 7 20 30 0 20 5 30 15 30 10 0 15 10 15 30 0 20 5 30 15 30
11 0 15 12 15 50 0 38 4 50 15 50 12 0 15 13 15 60 0 47 3 60 15 60 12 0 15
16 15 80 l0 80 1000 0 1000 0 0 -80 c0 -64 3 -80 15 -80 12 0 15 -13 15 -60 0
-47 3 -60 15 -60 11 0 15 -12 15 -50 0 -38 4 -50 15 -50 10 0 15 -10 15 -30 0
-23 4 -30 20 -30 16 0 20 -7 20 -30 0 -20 5 -30 15 -30 10 0 15 -10 15 -30 0
-20 5 -30 15 -30 8 0 15 -7 15 -15 0 -8 7 -15 15 -15 8 0 15 -9 15 -20 0 -11
7 -20 15 -20 8 0 15 -7 15 -15 0 -8 7 -15 15 -15 10 0 15 -10 15 -30 0 -27 3
-30 30 -30 20 0 30 -5 30 -15 0 -8 9 -15 20 -15 11 0 20 -7 20 -15 0 -8 7 -15
15 -15 8 0 15 -7 15 -15 0 -8 7 -15 15 -15 8 0 15 -7 15 -15 0 -10 10 -15 30
-15 23 0 30 -4 30 -20 0 -16 7 -20 30 -20 20 0 30 -5 30 -15 0 -10 11 -15 35
-15 24 0 35 -5 35 -15 0 -11 12 -15 45 -15 33 0 45 -4 45 -15 0 -12 13 -15 60
-15 47 0 60 -3 60 -15 0 -13 24 -15 160 -15 136 0 160 2 160 15 0 12 13 15 60
15 47 0 60 3 60 15 0 11 12 15 50 15 38 0 50 4 50 15 0 10 10 15 30 15 20 0
30 5 30 15 0 10 10 15 30 15 23 0 30 4 30 20 0 16 7 20 30 20 20 0 30 5 30 15
0 8 7 15 15 15 8 0 15 7 15 15 0 8 9 15 20 15 11 0 20 7 20 15 0 10 10 15 30
15 20 0 30 5 30 15 0 8 7 15 15 15 8 0 15 7 15 15 0 8 7 15 15 15 10 0 15 10
15 30 0 20 5 30 15 30 8 0 15 9 15 20 0 11 7 20 15 20 8 0 15 7 15 15 0 8 7
15 15 15 10 0 15 10 15 30 0 23 4 30 20 30 16 0 20 7 20 30 0 20 5 30 15 30
10 0 15 10 15 30 0 20 5 30 15 30 11 0 15 12 15 50 0 38 4 50 15 50 12 0 15
13 15 60 0 47 3 60 15 60 12 0 15 16 15 80 l0 80 30 0 c20 0 30 5 30 15 0 12
16 15 80 15 64 0 80 3 80 15 0 11 12 15 45 15 33 0 45 4 45 15 0 11 12 15 50
15 38 0 50 4 50 15 0 8 7 15 15 15 8 0 15 9 15 20 0 16 7 20 30 20 20 0 30 5
30 15 0 10 10 15 30 15 20 0 30 5 30 15 0 8 7 15 15 15 8 0 15 7 15 15 0 8 9
15 20 15 11 0 20 7 20 15 0 8 7 15 15 15 8 0 15 7 15 15 0 8 7 15 15 15 8 0
15 7 15 15 0 8 7 15 15 15 8 0 15 7 15 15 0 8 7 15 15 15 8 0 15 9 15 20 0 11
7 20 15 20 8 0 15 7 15 15 0 8 7 15 15 15 10 0 15 10 15 30 0 20 5 30 15 30 8
0 15 7 15 15 0 8 9 15 20 15 16 0 20 7 20 30 0 20 5 30 15 30 11 0 15 12 15
50 0 38 4 50 15 50 10 0 15 10 15 30 0 20 5 30 15 30 12 0 15 16 15 80 0 64 3
80 15 80 13 0 15 24 15 155 0 131 -2 155 -15 155 -12 0 -15 13 -15 60 0 47 -3
60 -15 60 -11 0 -15 12 -15 50 0 38 -4 50 -15 50 -11 0 -15 12 -15 45 0 33 -4
45 -15 45 -10 0 -15 10 -15 30 0 23 -4 30 -20 30 -16 0 -20 7 -20 35 0 24 -5
35 -15 35 -10 0 -15 10 -15 30 0 20 -5 30 -15 30 -10 0 -15 10 -15 30 0 20 -5
30 -15 30 -10 0 -15 10 -15 30 0 20 -5 30 -15 30 -10 0 -15 11 -15 35 0 24 -5
35 -15 35 -10 0 -15 10 -15 30 0 20 -5 30 -15 30 -10 0 -15 10 -15 30 0 20 -5
30 -15 30 -10 0 -15 10 -15 30 0 23 -4 30 -20 30 -16 0 -20 7 -20 35 0 24 -5
35 -15 35 -10 0 -15 10 -15 30 0 20 -5 30 -15 30 -10 0 -15 10 -15 30 0 20 -5
30 -15 30 -10 0 -15 10 -15 30 0 20 -5 30 -15 30 -10 0 -15 11 -15 35 0 24 -5
35 -15 35 -10 0 -15 10 -15 30 0 20 -5 30 -15 30 -10 0 -15 10 -15 30 0 20 -5
30 -15 30 -10 0 -15 10 -15 30 0 23 -4 30 -20 30 -16 0 -20 7 -20 35 0 24 -5
35 -15 35 -10 0 -15 10 -15 30 0 20 -5 30 -15 30 -10 0 -15 10 -15 30 0 20 -5
30 -15 30 -10 0 -15 10 -15 30 0 20 -5 30 -15 30 -10 0 -15 11 -15 35 0 24 -5
35 -15 35 -10 0 -15 10 -15 30 0 20 -5 30 -15 30 -10 0 -15 10 -15 30 0 20 -5
30 -15 30 -10 0 -15 10 -15 30 0 23 -4 30 -20 30 -16 0 -20 7 -20 35 0 24 -5
35 -15 35 -10 0 -15 10 -15 30 0 20 -5 30 -15 30 -10 0 -15 10 -15 30 0 20 -5
30 -15 30 -10 0 -15 10 -15 30 0 20 -5 30 -15 30 -10 0 -15 11 -15 35 0 24 -5
35 -15 35 -10 0 -15 10 -15 30 0 20 -5 30 -15 30 -10 0 -15 10 -15 30 0 20 -5
30 -15 30 -10 0 -15 10 -15 30 0 23 -4 30 -20 30 -16 0 -20 7 -20 35 0 24 -5
35 -15 35 -10 0 -15 10 -15 30 0 20 -5 30 -15 30 -10 0 -15 10 -15 30 0 20 -5
30 -15 30 -10 0 -15 10 -15 30 0 20 -5 30 -15 30 -10 0 -15 11 -15 35 0 24 -5
35 -15 35 -10 0 -15 10 -15 30 0 20 -5 30 -15 30 -10 0 -15 10 -15 30 0 20 -5
30 -15 30 -10 0 -15 10 -15 30 0 23 -4 30 -20 30 -16 0 -20 7 -20 35 0 24 -5
35 -15 35 -10 0 -15 10 -15 30 0 20 -5 30 -15 30 -10 0 -15 10 -15 30 0 20 -5
30 -15 30 -10 0 -15 10 -15 30 0 20 5 30 15 30 12 0 15 17 15 95 0 78 3 95 15
95 12 0 15 17 15 95 0 78 3 95 15 95 12 0 15 17 15 95 0 88 1 95 20 95 19 0
20 7 20 90 0 73 3 90 15 90 12 0 15 17 15 95 0 78 3 95 15 95 12 0 15 17 15
95 0 78 3 95 15 95 12 0 15 19 15 110 0 91 3 110 15 110 12 0 15 17 15 90 0
73 3 90 15 90 12 0 15 17 15 95 0 78 3 95 15 95 12 0 15 17 15 95 0 78 3 95
15 95 12 0 15 17 15 95 0 88 1 95 20 95 16 0 20 7 20 30 l0 30 140 0 c118 0
140 2 140 15 0 12 15 15 75 15 60 0 75 3 75 15 0 8 7 15 15 15 8 0 15 -7 15
-15 0 -8 9 -15 20 -15 11 0 20 -7 20 -15 0 -8 7 -15 15 -15 10 0 15 -10 15
-30 0 -20 5 -30 15 -30 8 0 15 -7 15 -15 0 -8 7 -15 15 -15 10 0 15 -11 15
-35 0 -24 5 -35 15 -35 8 0 15 -7 15 -15 0 -8 7 -15 15 -15 10 0 15 -10 15
-30 0 -20 5 -30 15 -30 10 0 15 -10 15 -30 0 -20 5 -30 15 -30 10 0 15 -11 15
-35 0 -28 4 -35 20 -35 16 0 20 -7 20 -30 0 -20 5 -30 15 -30 10 0 15 -10 15
-30 0 -20 5 -30 15 -30 10 0 15 -10 15 -30 0 -20 5 -30 15 -30 10 0 15 -11 15
-35 0 -24 5 -35 15 -35 10 0 15 -10 15 -30 0 -20 5 -30 15 -30 10 0 15 -10 15
-30 0 -20 5 -30 15 -30 11 0 15 -12 15 -45 0 -33 4 -45 15 -45 10 0 15 -11 15
-35 0 -28 4 -35 20 -35 17 0 20 -7 20 -45 0 -33 4 -45 15 -45 10 0 15 -10 15
-30 0 -20 5 -30 15 -30 11 0 15 -12 15 -50 0 -38 4 -50 15 -50 11 0 15 -12 15
-45 0 -33 4 -45 15 -45 11 0 15 -12 15 -45 0 -33 4 -45 15 -45 12 0 15 -14 15
-65 0 -51 3 -65 15 -65 11 0 15 -12 15 -45 0 -33 4 -45 15 -45 12 0 15 -14 15
-65 0 -58 2 -65 20 -65 18 0 20 -7 20 -60 0 -47 3 -60 15 -60 12 0 15 -16 15
-80 0 -64 3 -80 15 -80 12 0 15 -17 15 -95 0 -78 3 -95 15 -95 13 0 15 -22 15
-140 0 -118 2 -140 15 -140 11 0 15 -12 15 -45 0 -43 -1 -45 -30 -45 -20 0
-30 -5 -30 -15 0 -8 -7 -15 -15 -15 -8 0 -15 -7 -15 -15 0 -8 -7 -15 -15 -15
-8 0 -15 -9 -15 -20 0 -13 -7 -20 -20 -20 -11 0 -20 -7 -20 -15 0 -8 -7 -15
-15 -15 -8 0 -15 -7 -15 -15 0 -8 -7 -15 -15 -15 -10 0 -15 -10 -15 -30 0 -20
-5 -30 -15 -30 -8 0 -15 -7 -15 -15 0 -8 -7 -15 -15 -15 -8 0 -15 -7 -15 -15
0 -8 -7 -15 -15 -15 -10 0 -15 -11 -15 -35 0 -24 -5 -35 -15 -35 -10 0 -15
-10 -15 -30 0 -20 -5 -30 -15 -30 -10 0 -15 -10 -15 -30 0 -23 -4 -30 -20 -30
-17 0 -20 -7 -20 -45 0 -33 -4 -45 -15 -45 -11 0 -15 -12 -15 -50 0 -38 -4
-50 -15 -50 -12 0 -15 -15 -15 -75 0 -60 -3 -75 -15 -75 -13 0 -15 -38 -15
-285 0 -247 2 -285 15 -285 12 0 15 -13 15 -60 0 -47 3 -60 15 -60 11 0 15
-12 15 -50 0 -38 4 -50 15 -50 10 0 15 -10 15 -30 0 -23 4 -30 20 -30 16 0 20
-7 20 -30 0 -20 5 -30 15 -30 10 0 15 -10 15 -30 0 -20 5 -30 15 -30 8 0 15
-7 15 -15 0 -8 7 -15 15 -15 8 0 15 -9 15 -20 0 -11 7 -20 15 -20 8 0 15 -7
15 -15 0 -8 7 -15 15 -15 10 0 15 -10 15 -30 0 -27 3 -30 30 -30 20 0 30 -5
30 -15 0 -8 9 -15 20 -15 11 0 20 -7 20 -15 0 -8 7 -15 15 -15 8 0 15 -7 15
-15 0 -8 7 -15 15 -15 8 0 15 -7 15 -15 0 -10 10 -15 30 -15 23 0 30 -4 30
-20 0 -16 7 -20 30 -20 20 0 30 -5 30 -15 0 -10 11 -15 35 -15 24 0 35 -5 35
-15 0 -11 12 -15 45 -15 33 0 45 -4 45 -15 0 -12 13 -15 60 -15 47 0 60 -3 60
-15 0 -12 16 -15 80 -15 l80 0 0 250 0 250 -60 0 c-47 0 -60 3 -60 15 0 11
-12 15 -50 15 -38 0 -50 4 -50 15 0 10 -10 15 -30 15 -20 0 -30 5 -30 15 0 8
-7 15 -15 15 -8 0 -15 7 -15 15 0 8 -7 15 -15 15 -8 0 -15 9 -15 20 0 11 -7
20 -15 20 -8 0 -15 7 -15 15 0 8 -9 15 -20 15 -11 0 -20 7 -20 15 0 8 -7 15
-15 15 -10 0 -15 10 -15 30 0 20 -5 30 -15 30 -11 0 -15 12 -15 45 0 33 -4 45
-15 45 -13 0 -15 37 -15 270 0 233 2 270 15 270 12 0 15 13 15 60 0 47 3 60
15 60 10 0 15 10 15 30 0 20 5 30 15 30 10 0 15 11 15 35 0 28 4 35 20 35 11
0 20 7 20 15 0 8 7 15 15 15 8 0 15 7 15 15 0 8 7 15 15 15 10 0 15 10 15 30
0 20 5 30 15 30 8 0 15 7 15 15 0 10 10 15 30 15 20 0 30 5 30 15 0 8 7 15 15
15 8 0 15 7 15 15 0 8 7 15 15 15 8 0 15 9 15 20 0 16 7 20 35 20 24 0 35 5
35 15 0 10 10 15 30 15 20 0 30 5 30 15 0 12 13 15 60 15 47 0 60 3 60 15 0
13 24 15 160 15 136 0 160 -2 160 -15 0 -12 13 -15 60 -15 47 0 60 -3 60 -15
0 -10 10 -15 30 -15 20 0 30 -5 30 -15 0 -8 9 -15 20 -15 13 0 20 -7 20 -20 0
-16 7 -20 30 -20 20 0 30 -5 30 -15 0 -8 7 -15 15 -15 8 0 15 -7 15 -15 0 -8
7 -15 15 -15 8 0 15 -7 15 -15 0 -8 7 -15 15 -15 8 0 15 -7 15 -15 0 -8 7 -15
15 -15 8 0 15 -7 15 -15 0 -8 7 -15 15 -15 8 0 15 -7 15 -15 0 -8 9 -15 20
-15 16 0 20 -7 20 -35 0 -24 5 -35 15 -35 10 0 15 -10 15 -30 0 -20 5 -30 15
-30 10 0 15 -10 15 -30 0 -20 5 -30 15 -30 12 0 15 -14 15 -65 0 -51 3 -65 15
-65 13 0 15 -34 15 -250 0 -216 -2 -250 -15 -250 -11 0 -15 -12 -15 -45 0 -33
-4 -45 -15 -45 -10 0 -15 -10 -15 -30 0 -20 -5 -30 -15 -30 -8 0 -15 -7 -15
-15 0 -8 -7 -15 -15 -15 -8 0 -15 -7 -15 -15 0 -8 -9 -15 -20 -15 -13 0 -20
-7 -20 -20 0 -11 -7 -20 -15 -20 -8 0 -15 -7 -15 -15 0 -8 -7 -15 -15 -15 -8
0 -15 -7 -15 -15 0 -10 -10 -15 -30 -15 -20 0 -30 -5 -30 -15 0 -11 -12 -15
-45 -15 -33 0 -45 -4 -45 -15 0 -12 -14 -15 -65 -15 l-65 0 0 -250 0 -250 80
0 c64 0 80 3 80 15 0 12 13 15 60 15 47 0 60 3 60 15 0 11 12 15 50 15 38 0
50 4 50 15 0 10 10 15 30 15 20 0 30 5 30 15 0 10 10 15 30 15 23 0 30 4 30
20 0 16 7 20 30 20 20 0 30 5 30 15 0 8 7 15 15 15 8 0 15 7 15 15 0 8 9 15
20 15 11 0 20 7 20 15 0 10 10 15 30 15 20 0 30 5 30 15 0 8 7 15 15 15 8 0
15 7 15 15 0 8 7 15 15 15 10 0 15 10 15 30 0 20 5 30 15 30 8 0 15 9 15 20 0
11 7 20 15 20 8 0 15 7 15 15 0 8 7 15 15 15 10 0 15 10 15 30 0 23 4 30 20
30 16 0 20 7 20 30 0 20 5 30 15 30 10 0 15 10 15 30 0 20 5 30 15 30 11 0 15
12 15 50 0 38 4 50 15 50 12 0 15 13 15 60 0 47 3 60 15 60 13 0 15 36 15 265
0 229 -2 265 -15 265 -12 0 -15 16 -15 80 0 64 -3 80 -15 80 -11 0 -15 12 -15
45 0 33 -4 45 -15 45 -11 0 -15 12 -15 50 0 38 -4 50 -15 50 -10 0 -15 10 -15
30 0 23 -4 30 -20 30 -16 0 -20 7 -20 30 0 20 -5 30 -15 30 -10 0 -15 11 -15
35 0 24 -5 35 -15 35 -8 0 -15 7 -15 15 0 8 -7 15 -15 15 -10 0 -15 10 -15 30
0 20 -5 30 -15 30 -8 0 -15 7 -15 15 0 8 -7 15 -15 15 -8 0 -15 7 -15 15 0 8
-7 15 -15 15 -8 0 -15 7 -15 15 0 8 -7 15 -15 15 -8 0 -15 7 -15 15 0 8 -9 15
-20 15 -13 0 -20 7 -20 20 0 11 -7 20 -15 20 -8 0 -15 7 -15 15 0 8 -7 15 -15
15 -8 0 -15 7 -15 15 0 8 -7 15 -15 15 -10 0 -15 10 -15 30 0 20 -5 30 -15 30
-13 0 -15 22 -15 140 0 118 -2 140 -15 140 -12 0 -15 19 -15 110 0 91 -3 110
-15 110 -12 0 -15 16 -15 80 0 64 -3 80 -15 80 -12 0 -15 17 -15 90 0 83 -1
90 -20 90 -18 0 -20 7 -20 65 0 51 -3 65 -15 65 -12 0 -15 13 -15 60 0 47 -3
60 -15 60 -12 0 -15 14 -15 65 0 51 -3 65 -15 65 -12 0 -15 13 -15 60 0 47 -3
60 -15 60 -11 0 -15 12 -15 50 0 38 -4 50 -15 50 -12 0 -15 13 -15 60 0 47 -3
60 -15 60 -11 0 -15 12 -15 50 0 38 -4 50 -15 50 -11 0 -15 12 -15 45 0 38 -3
45 -20 45 -17 0 -20 7 -20 45 0 33 -4 45 -15 45 -11 0 -15 12 -15 50 0 38 -4
50 -15 50 -11 0 -15 12 -15 45 0 33 -4 45 -15 45 -10 0 -15 10 -15 30 0 20 -5
30 -15 30 -11 0 -15 12 -15 50 0 38 -4 50 -15 50 -10 0 -15 10 -15 30 0 20 -5
30 -15 30 -11 0 -15 12 -15 45 0 33 -4 45 -15 45 -10 0 -15 11 -15 35 0 28 -4
35 -20 35 -16 0 -20 7 -20 30 0 20 -5 30 -15 30 -10 0 -15 10 -15 30 0 20 -5
30 -15 30 -11 0 -15 12 -15 50 0 38 -4 50 -15 50 -10 0 -15 10 -15 30 0 20 -5
30 -15 30 -10 0 -15 10 -15 30 0 20 -5 30 -15 30 -8 0 -15 7 -15 15 0 8 -7 15
-15 15 -10 0 -15 10 -15 30 0 20 -5 30 -15 30 -10 0 -15 11 -15 35 0 28 -4 35
-20 35 -16 0 -20 7 -20 30 0 20 -5 30 -15 30 -10 0 -15 10 -15 30 0 20 -5 30
-15 30 -8 0 -15 7 -15 15 0 8 -7 15 -15 15 -10 0 -15 11 -15 35 0 24 -5 35
-15 35 -10 0 -15 10 -15 30 0 20 -5 30 -15 30 -8 0 -15 7 -15 15 0 8 -7 15
-15 15 -10 0 -15 10 -15 30 0 20 -5 30 -15 30 -8 0 -15 7 -15 15 0 8 -9 15
-20 15 -16 0 -20 7 -20 35 0 24 -5 35 -15 35 -8 0 -15 7 -15 15 0 8 -7 15 -15
15 -8 0 -15 7 -15 15 0 8 -7 15 -15 15 -10 0 -15 10 -15 30 0 20 -5 30 -15 30
-8 0 -15 7 -15 15 0 8 -7 15 -15 15 -8 0 -15 7 -15 15 0 8 -7 15 -15 15 -8 0
-15 7 -15 15 0 8 -7 15 -15 15 -10 0 -15 11 -15 35 0 28 -4 35 -20 35 -11 0
-20 7 -20 15 0 8 -7 15 -15 15 -8 0 -15 7 -15 15 0 8 -7 15 -15 15 -8 0 -15 7
-15 15 0 8 -7 15 -15 15 -11 0 -15 12 -15 45 0 33 -4 45 -15 45 -12 0 -15 17
-15 95 0 78 -3 95 -15 95 -11 0 -15 12 -15 50 0 38 -4 50 -15 50 -11 0 -15 12
-15 45 0 33 -4 45 -15 45 -10 0 -15 10 -15 30 0 23 -4 30 -20 30 -16 0 -20 7
-20 30 0 20 -5 30 -15 30 -8 0 -15 9 -15 20 0 11 -7 20 -15 20 -10 0 -15 10
-15 30 0 20 -5 30 -15 30 -8 0 -15 7 -15 15 0 8 -7 15 -15 15 -10 0 -15 10
-15 30 0 20 -5 30 -15 30 -8 0 -15 7 -15 15 0 8 -7 15 -15 15 -8 0 -15 7 -15
15 0 8 -7 15 -15 15 -8 0 -15 9 -15 20 0 13 -7 20 -20 20 -11 0 -20 7 -20 15
0 8 -7 15 -15 15 -8 0 -15 7 -15 15 0 10 -10 15 -30 15 -20 0 -30 5 -30 15 0
8 -7 15 -15 15 -8 0 -15 7 -15 15 0 8 -7 15 -15 15 -8 0 -15 7 -15 15 0 10
-10 15 -30 15 -20 0 -30 5 -30 15 0 10 -11 15 -35 15 -24 0 -35 5 -35 15 0 10
-10 15 -30 15 -23 0 -30 4 -30 20 0 17 -7 20 -45 20 -33 0 -45 4 -45 15 0 11
-12 15 -50 15 -38 0 -50 4 -50 15 0 12 -15 15 -75 15 -60 0 -75 3 -75 15 0 13
-24 15 -160 15 -136 0 -160 -2 -160 -15 0 -12 -15 -15 -75 -15 -60 0 -75 -3
-75 -15 0 -11 -12 -15 -50 -15 -38 0 -50 -4 -50 -15 0 -11 -12 -15 -45 -15
-38 0 -45 -3 -45 -20 0 -16 -7 -20 -30 -20 -20 0 -30 -5 -30 -15 0 -10 -10
-15 -30 -15 -20 0 -30 -5 -30 -15 0 -8 -9 -15 -20 -15 -11 0 -20 -7 -20 -15 0
-10 -10 -15 -30 -15 -20 0 -30 -5 -30 -15 0 -8 -7 -15 -15 -15 -8 0 -15 7 -15
15 0 10 -10 15 -30 15 -20 0 -30 5 -30 15 0 10 -10 15 -30 15 -20 0 -30 5 -30
15 0 8 -9 15 -20 15 -11 0 -20 7 -20 15 0 10 -10 15 -30 15 -23 0 -30 4 -30
20 0 16 -7 20 -30 20 -20 0 -30 5 -30 15 0 10 -10 15 -30 15 -20 0 -30 5 -30
15 0 11 -12 15 -50 15 -38 0 -50 4 -50 15 0 13 -38 15 -280 15 l-280 0 0 280
c0 242 2 280 15 280 8 0 15 7 15 15 0 11 12 15 50 15 38 0 50 4 50 15 0 11 12
15 45 15 38 0 45 3 45 20 0 16 7 20 30 20 20 0 30 5 30 15 0 11 12 15 50 15
38 0 50 4 50 15 0 10 10 15 30 15 20 0 30 5 30 15 0 10 10 15 30 15 20 0 30 5
30 15 0 8 7 15 15 15 8 0 15 7 15 15 0 10 10 15 30 15 20 0 30 5 30 15 0 8 9
15 20 15 11 0 20 7 20 15 0 10 10 15 30 15 23 0 30 4 30 20 0 11 7 20 15 20 8
0 15 7 15 15 0 8 7 15 15 15 8 0 15 7 15 15 0 8 7 15 15 15 8 0 15 7 15 15 0
10 10 15 30 15 20 0 30 5 30 15 0 8 9 15 20 15 11 0 20 7 20 15 0 8 7 15 15
15 8 0 15 7 15 15 0 8 7 15 15 15 8 0 15 7 15 15 0 8 7 15 15 15 8 0 15 9 15
20 0 11 7 20 15 20 10 0 15 10 15 30 0 20 5 30 15 30 8 0 15 7 15 15 0 13 28
15 190 15 162 0 190 2 190 15 0 12 15 15 75 15 60 0 75 3 75 15 0 12 14 15 65
15 51 0 65 3 65 15 0 10 10 15 30 15 20 0 30 5 30 15 0 10 10 15 30 15 23 0
30 4 30 20 0 16 7 20 35 20 24 0 35 5 35 15 0 10 10 15 30 15 20 0 30 5 30 15
0 8 7 15 15 15 8 0 15 7 15 15 0 8 7 15 15 15 8 0 15 7 15 15 0 10 10 15 30
15 20 0 30 5 30 15 0 8 7 15 15 15 8 0 15 7 15 15 0 8 9 15 20 15 11 0 20 7
20 15 0 8 7 15 15 15 8 0 15 9 15 20 0 11 7 20 15 20 8 0 15 7 15 15 0 8 7 15
15 15 10 0 15 10 15 30 0 20 5 30 15 30 8 0 15 7 15 15 0 8 7 15 15 15 8 0 15
7 15 15 0 8 7 15 15 15 10 0 15 10 15 30 0 20 5 30 15 30 10 0 15 11 15 35 0
28 4 35 20 35 16 0 20 7 20 30 0 20 5 30 15 30 11 0 15 12 15 45 0 33 4 45 15
45 11 0 15 12 15 50 0 38 4 50 15 50 12 0 15 15 15 75 0 60 3 75 15 75 13 0
15 24 15 160 0 136 -2 160 -15 160 -12 0 -15 15 -15 75 0 60 -3 75 -15 75 -11
0 -15 12 -15 50 0 38 -4 50 -15 50 -11 0 -15 12 -15 45 0 33 -4 45 -15 45 -10
0 -15 10 -15 30 0 23 -4 30 -20 30 -16 0 -20 7 -20 30 0 20 -5 30 -15 30 -10
0 -15 11 -15 35 0 24 -5 35 -15 35 -8 0 -15 7 -15 15 0 8 -7 15 -15 15 -8 0
-15 7 -15 15 0 8 -7 15 -15 15 -10 0 -15 10 -15 30 0 20 -5 30 -15 30 -8 0
-15 7 -15 15 0 8 -7 15 -15 15 -8 0 -15 7 -15 15 0 8 -7 15 -15 15 -8 0 -15 9
-15 20 0 13 -7 20 -20 20 -11 0 -20 7 -20 15 0 8 -7 15 -15 15 -8 0 -15 7 -15
15 0 10 -10 15 -30 15 -20 0 -30 5 -30 15 0 8 -7 15 -15 15 -8 0 -15 7 -15 15
0 8 -7 15 -15 15 -8 0 -15 7 -15 15 0 10 -10 15 -30 15 -20 0 -30 5 -30 15 0
10 -11 15 -35 15 -24 0 -35 5 -35 15 0 10 -10 15 -30 15 -23 0 -30 4 -30 20 0
17 -7 20 -45 20 -33 0 -45 4 -45 15 0 11 -12 15 -50 15 -38 0 -50 4 -50 15 0
12 -15 15 -75 15 -60 0 -75 3 -75 15 0 13 -28 15 -190 15 -162 0 -190 2 -190
15 0 8 -7 15 -15 15 -10 0 -15 10 -15 30 0 20 -5 30 -15 30 -8 0 -15 7 -15 15
0 8 -7 15 -15 15 -8 0 -15 9 -15 20 0 11 -7 20 -15 20 -8 0 -15 7 -15 15 0 8
-7 15 -15 15 -8 0 -15 7 -15 15 0 8 -9 15 -20 15 -11 0 -20 7 -20 15 0 10 -10
15 -30 15 -20 0 -30 5 -30 15 0 8 -7 15 -15 15 -8 0 -15 7 -15 15 0 8 -7 15
-15 15 -8 0 -15 7 -15 15 0 8 -7 15 -15 15 -8 0 -15 7 -15 15 0 10 -10 15 -30
15 -23 0 -30 4 -30 20 0 13 -7 20 -20 20 -11 0 -20 7 -20 15 0 10 -10 15 -30
15 -20 0 -30 5 -30 15 0 8 -7 15 -15 15 -8 0 -15 7 -15 15 0 10 -10 15 -30 15
-20 0 -30 5 -30 15 0 10 -10 15 -30 15 -20 0 -30 5 -30 15 0 11 -12 15 -50 15
-38 0 -50 4 -50 15 0 10 -10 15 -30 15 -20 0 -30 5 -30 15 0 11 -12 15 -45 15
-38 0 -45 3 -45 20 0 17 -7 20 -50 20 -38 0 -50 4 -50 15 0 8 -7 15 -15 15
-13 0 -15 31 -15 215 0 184 -2 215 -15 215 -12 0 -15 14 -15 65 0 51 -3 65
-15 65 -10 0 -15 10 -15 30 0 20 -5 30 -15 30 -10 0 -15 10 -15 30 0 20 -5 30
-15 30 -10 0 -15 11 -15 35 0 28 -4 35 -20 35 -11 0 -20 7 -20 15 0 8 -7 15
-15 15 -8 0 -15 7 -15 15 0 8 -7 15 -15 15 -8 0 -15 7 -15 15 0 8 -7 15 -15
15 -8 0 -15 7 -15 15 0 8 -7 15 -15 15 -8 0 -15 7 -15 15 0 8 -7 15 -15 15 -8
0 -15 7 -15 15 0 10 -10 15 -30 15 -23 0 -30 4 -30 20 0 16 -7 20 -35 20 -24
0 -35 5 -35 15 0 10 -10 15 -30 15 -20 0 -30 5 -30 15 0 12 -13 15 -60 15 -47
0 -60 3 -60 15 0 13 -76 15 -625 15 -549 0 -625 -2 -625 -15z m1210 -500 c0
-10 11 -15 35 -15 24 0 35 -5 35 -15 0 -8 7 -15 15 -15 8 0 15 -7 15 -15 0 -8
7 -15 15 -15 10 0 15 -11 15 -35 0 -24 5 -35 15 -35 13 0 15 -26 15 -170 l0
-170 -750 0 -750 0 0 170 c0 144 2 170 15 170 10 0 15 11 15 35 0 24 5 35 15
35 8 0 15 7 15 15 0 8 7 15 15 15 8 0 15 7 15 15 0 10 11 15 35 15 24 0 35 5
35 15 0 13 72 15 590 15 518 0 590 -2 590 -15z m380 -1000 c0 -12 16 -15 80
-15 64 0 80 -3 80 -15 0 -12 13 -15 60 -15 47 0 60 -3 60 -15 0 -10 10 -15 30
-15 23 0 30 -4 30 -20 0 -16 7 -20 35 -20 24 0 35 -5 35 -15 0 -11 12 -15 45
-15 33 0 45 -4 45 -15 0 -8 7 -15 15 -15 8 0 15 -7 15 -15 0 -10 10 -15 30
-15 20 0 30 -5 30 -15 0 -8 7 -15 15 -15 8 0 15 -7 15 -15 0 -10 11 -15 35
-15 24 0 35 -5 35 -15 0 -8 7 -15 15 -15 8 0 15 -7 15 -15 0 -8 7 -15 15 -15
8 0 15 -9 15 -20 0 -11 7 -20 15 -20 8 0 15 -7 15 -15 0 -8 7 -15 15 -15 8 0
15 -7 15 -15 0 -8 7 -15 15 -15 8 0 15 -7 15 -15 0 -8 7 -15 15 -15 8 0 15 -7
15 -15 0 -8 9 -15 20 -15 11 0 20 -7 20 -15 0 -8 7 -15 15 -15 8 0 15 -7 15
-15 0 -8 7 -15 15 -15 8 0 15 -7 15 -15 0 -8 7 -15 15 -15 10 0 15 -11 15 -35
0 -24 5 -35 15 -35 8 0 15 -7 15 -15 0 -8 7 -15 15 -15 10 0 15 -10 15 -30 0
-20 5 -30 15 -30 10 0 15 -10 15 -30 0 -20 5 -30 15 -30 10 0 15 -11 15 -35 0
-28 4 -35 20 -35 16 0 20 -7 20 -30 0 -20 5 -30 15 -30 10 0 15 -10 15 -30 0
-20 5 -30 15 -30 12 0 15 -14 15 -65 0 -51 3 -65 15 -65 12 0 15 -15 15 -75 0
-60 3 -75 15 -75 13 0 15 -31 15 -220 0 -189 -2 -220 -15 -220 -12 0 -15 -16
-15 -80 0 -64 -3 -80 -15 -80 -12 0 -15 -13 -15 -60 0 -47 -3 -60 -15 -60 -10
0 -15 -10 -15 -30 0 -20 -5 -30 -15 -30 -10 0 -15 -11 -15 -35 0 -28 -4 -35
-20 -35 -16 0 -20 -7 -20 -30 0 -20 -5 -30 -15 -30 -10 0 -15 -10 -15 -30 0
-20 -5 -30 -15 -30 -10 0 -15 -10 -15 -30 0 -20 -5 -30 -15 -30 -8 0 -15 -7
-15 -15 0 -8 -7 -15 -15 -15 -10 0 -15 -11 -15 -35 0 -24 -5 -35 -15 -35 -8 0
-15 -7 -15 -15 0 -8 -7 -15 -15 -15 -8 0 -15 -7 -15 -15 0 -8 -7 -15 -15 -15
-8 0 -15 -7 -15 -15 0 -8 -9 -15 -20 -15 -11 0 -20 -7 -20 -15 0 -8 -7 -15
-15 -15 -8 0 -15 -7 -15 -15 0 -8 -7 -15 -15 -15 -8 0 -15 -7 -15 -15 0 -8 -7
-15 -15 -15 -8 0 -15 -9 -15 -20 0 -11 -7 -20 -15 -20 -8 0 -15 -7 -15 -15 0
-8 -7 -15 -15 -15 -8 0 -15 -7 -15 -15 0 -8 -7 -15 -15 -15 -8 0 -15 -7 -15
-15 0 -10 -11 -15 -35 -15 -24 0 -35 -5 -35 -15 0 -8 -7 -15 -15 -15 -8 0 -15
-7 -15 -15 0 -10 -10 -15 -30 -15 -20 0 -30 -5 -30 -15 0 -10 -10 -15 -30 -15
-20 0 -30 -5 -30 -15 0 -10 -10 -15 -30 -15 -23 0 -30 -4 -30 -20 0 -16 -7
-20 -35 -20 -24 0 -35 -5 -35 -15 0 -11 -12 -15 -45 -15 -33 0 -45 -4 -45 -15
0 -11 -12 -15 -45 -15 -33 0 -45 -4 -45 -15 0 -12 -16 -15 -80 -15 -64 0 -80
-3 -80 -15 0 -13 -114 -15 -970 -15 -856 0 -970 2 -970 15 0 12 -15 15 -75 15
-60 0 -75 3 -75 15 0 12 -14 15 -65 15 -51 0 -65 3 -65 15 0 10 -10 15 -30 15
-20 0 -30 5 -30 15 0 10 -10 15 -30 15 -23 0 -30 4 -30 20 0 16 -7 20 -35 20
-24 0 -35 5 -35 15 0 10 -10 15 -30 15 -20 0 -30 5 -30 15 0 10 -10 15 -30 15
-20 0 -30 5 -30 15 0 8 -7 15 -15 15 -8 0 -15 7 -15 15 0 10 -11 15 -35 15
-24 0 -35 5 -35 15 0 8 -7 15 -15 15 -8 0 -15 7 -15 15 0 8 -7 15 -15 15 -8 0
-15 7 -15 15 0 8 -7 15 -15 15 -8 0 -15 9 -15 20 0 11 -7 20 -15 20 -8 0 -15
7 -15 15 0 8 -7 15 -15 15 -8 0 -15 7 -15 15 0 8 -7 15 -15 15 -8 0 -15 7 -15
15 0 8 -7 15 -15 15 -8 0 -15 7 -15 15 0 8 -9 15 -20 15 -11 0 -20 7 -20 15 0
8 -7 15 -15 15 -8 0 -15 7 -15 15 0 8 -7 15 -15 15 -10 0 -15 11 -15 35 0 24
-5 35 -15 35 -8 0 -15 7 -15 15 0 8 -7 15 -15 15 -10 0 -15 10 -15 30 0 20 -5
30 -15 30 -8 0 -15 7 -15 15 0 8 -7 15 -15 15 -11 0 -15 12 -15 45 0 33 -4 45
-15 45 -10 0 -15 11 -15 35 0 28 -4 35 -20 35 -16 0 -20 7 -20 30 0 20 -5 30
-15 30 -12 0 -15 13 -15 60 0 47 -3 60 -15 60 -12 0 -15 16 -15 80 0 64 -3 80
-15 80 -13 0 -15 31 -15 220 0 189 2 220 15 220 12 0 15 15 15 75 0 60 3 75
15 75 12 0 15 14 15 65 0 51 3 65 15 65 10 0 15 10 15 30 0 23 4 30 20 30 16
0 20 7 20 30 0 20 5 30 15 30 11 0 15 12 15 50 0 38 4 50 15 50 8 0 15 7 15
15 0 8 7 15 15 15 10 0 15 10 15 30 0 20 5 30 15 30 8 0 15 7 15 15 0 8 7 15
15 15 10 0 15 11 15 35 0 24 5 35 15 35 8 0 15 7 15 15 0 8 7 15 15 15 8 0 15
7 15 15 0 8 9 15 20 15 11 0 20 7 20 15 0 8 7 15 15 15 8 0 15 7 15 15 0 8 7
15 15 15 8 0 15 7 15 15 0 8 7 15 15 15 8 0 15 7 15 15 0 8 7 15 15 15 8 0 15
7 15 15 0 8 7 15 15 15 8 0 15 9 15 20 0 11 7 20 15 20 8 0 15 7 15 15 0 8 7
15 15 15 8 0 15 7 15 15 0 10 11 15 35 15 24 0 35 5 35 15 0 8 7 15 15 15 8 0
15 7 15 15 0 10 10 15 30 15 20 0 30 5 30 15 0 8 7 15 15 15 8 0 15 7 15 15 0
11 12 15 50 15 38 0 50 4 50 15 0 10 10 15 30 15 23 0 30 4 30 20 0 16 7 20
30 20 20 0 30 5 30 15 0 12 14 15 65 15 51 0 65 3 65 15 0 12 15 15 75 15 60
0 75 3 75 15 0 13 114 15 970 15 856 0 970 -2 970 -15z m-3590 -800 c0 -58 -2
-65 -20 -65 -17 0 -20 -7 -20 -45 0 -33 -4 -45 -15 -45 -12 0 -15 -13 -15 -60
0 -47 -3 -60 -15 -60 -12 0 -15 -17 -15 -95 0 -78 -3 -95 -15 -95 -13 0 -15
-31 -15 -220 0 -189 2 -220 15 -220 12 0 15 -17 15 -95 0 -78 3 -95 15 -95 12
0 15 -13 15 -60 0 -47 3 -60 15 -60 11 0 15 -12 15 -50 0 -43 3 -50 20 -50 18
0 20 -7 20 -60 0 -53 -2 -60 -20 -60 -11 0 -20 7 -20 15 0 11 -12 15 -45 15
-33 0 -45 4 -45 15 0 11 -12 15 -45 15 -33 0 -45 4 -45 15 0 8 -7 15 -15 15
-8 0 -15 7 -15 15 0 10 -11 15 -35 15 -28 0 -35 4 -35 20 0 11 -7 20 -15 20
-8 0 -15 7 -15 15 0 8 -7 15 -15 15 -8 0 -15 7 -15 15 0 8 -7 15 -15 15 -8 0
-15 7 -15 15 0 8 -7 15 -15 15 -8 0 -15 7 -15 15 0 8 -7 15 -15 15 -8 0 -15 7
-15 15 0 8 -7 15 -15 15 -8 0 -15 7 -15 15 0 8 -9 15 -20 15 -16 0 -20 7 -20
35 0 24 -5 35 -15 35 -10 0 -15 10 -15 30 0 20 -5 30 -15 30 -12 0 -15 13 -15
60 0 47 -3 60 -15 60 -13 0 -15 24 -15 160 0 136 2 160 15 160 12 0 15 13 15
60 0 47 3 60 15 60 10 0 15 10 15 30 0 20 5 30 15 30 10 0 15 11 15 35 0 28 4
35 20 35 11 0 20 7 20 15 0 8 7 15 15 15 8 0 15 7 15 15 0 8 7 15 15 15 8 0
15 7 15 15 0 8 7 15 15 15 8 0 15 7 15 15 0 8 7 15 15 15 8 0 15 7 15 15 0 8
7 15 15 15 8 0 15 7 15 15 0 8 7 15 15 15 8 0 15 7 15 15 0 10 11 15 35 15 28
0 35 4 35 20 0 11 7 20 15 20 8 0 15 7 15 15 0 11 12 15 45 15 33 0 45 4 45
15 0 11 12 15 45 15 33 0 45 4 45 15 0 8 9 15 20 15 18 0 20 -7 20 -65z m5280
50 c0 -11 12 -15 45 -15 33 0 45 -4 45 -15 0 -11 12 -15 45 -15 33 0 45 -4 45
-15 0 -8 9 -15 20 -15 13 0 20 -7 20 -20 0 -16 7 -20 30 -20 20 0 30 -5 30
-15 0 -8 7 -15 15 -15 8 0 15 -7 15 -15 0 -8 7 -15 15 -15 8 0 15 -7 15 -15 0
-8 7 -15 15 -15 8 0 15 -7 15 -15 0 -8 7 -15 15 -15 8 0 15 -7 15 -15 0 -8 7
-15 15 -15 8 0 15 -7 15 -15 0 -8 9 -15 20 -15 11 0 20 -7 20 -15 0 -8 7 -15
15 -15 10 0 15 -11 15 -35 0 -24 5 -35 15 -35 10 0 15 -10 15 -30 0 -20 5 -30
15 -30 12 0 15 -13 15 -60 0 -47 3 -60 15 -60 13 0 15 -24 15 -160 0 -136 -2
-160 -15 -160 -12 0 -15 -13 -15 -60 0 -47 -3 -60 -15 -60 -10 0 -15 -10 -15
-30 0 -20 -5 -30 -15 -30 -10 0 -15 -11 -15 -35 0 -24 -5 -35 -15 -35 -8 0
-15 -7 -15 -15 0 -8 -9 -15 -20 -15 -11 0 -20 -7 -20 -15 0 -8 -7 -15 -15 -15
-8 0 -15 -7 -15 -15 0 -8 -7 -15 -15 -15 -8 0 -15 -7 -15 -15 0 -8 -7 -15 -15
-15 -8 0 -15 -7 -15 -15 0 -8 -7 -15 -15 -15 -8 0 -15 -7 -15 -15 0 -8 -7 -15
-15 -15 -8 0 -15 -9 -15 -20 0 -16 -7 -20 -30 -20 -20 0 -30 -5 -30 -15 0 -8
-9 -15 -20 -15 -11 0 -20 -7 -20 -15 0 -11 -12 -15 -45 -15 -33 0 -45 -4 -45
-15 0 -11 -12 -15 -45 -15 -33 0 -45 -4 -45 -15 0 -8 -7 -15 -15 -15 -12 0
-15 13 -15 60 0 47 3 60 15 60 11 0 15 12 15 50 0 38 4 50 15 50 12 0 15 13
15 60 0 47 3 60 15 60 12 0 15 17 15 95 0 78 3 95 15 95 13 0 15 31 15 220 0
189 -2 220 -15 220 -12 0 -15 17 -15 95 0 78 -3 95 -15 95 -12 0 -15 13 -15
60 0 47 -3 60 -15 60 -11 0 -15 12 -15 45 0 33 -4 45 -15 45 -12 0 -15 14 -15
65 0 51 3 65 15 65 8 0 15 -7 15 -15z m-1910 -3065 c0 -287 -2 -330 -15 -330
-8 0 -15 -7 -15 -15 0 -8 -7 -15 -15 -15 -8 0 -15 -7 -15 -15 0 -8 -7 -15 -15
-15 -8 0 -15 -7 -15 -15 0 -8 -7 -15 -15 -15 -8 0 -15 -7 -15 -15 0 -8 -9 -15
-20 -15 -11 0 -20 -7 -20 -15 0 -8 -7 -15 -15 -15 -8 0 -15 -7 -15 -15 0 -10
-10 -15 -30 -15 -23 0 -30 -4 -30 -20 0 -16 -7 -20 -30 -20 -20 0 -30 -5 -30
-15 0 -10 -10 -15 -30 -15 -20 0 -30 -5 -30 -15 0 -10 -11 -15 -35 -15 -24 0
-35 -5 -35 -15 0 -12 -13 -15 -60 -15 -47 0 -60 -3 -60 -15 0 -13 -28 -15
-190 -15 -162 0 -190 2 -190 15 0 12 -13 15 -60 15 -47 0 -60 3 -60 15 0 10
-10 15 -30 15 -20 0 -30 5 -30 15 0 10 -11 15 -35 15 -24 0 -35 5 -35 15 0 10
-10 15 -30 15 -23 0 -30 4 -30 20 0 16 -7 20 -30 20 -20 0 -30 5 -30 15 0 8
-7 15 -15 15 -8 0 -15 7 -15 15 0 8 -7 15 -15 15 -8 0 -15 7 -15 15 0 8 -9 15
-20 15 -11 0 -20 7 -20 15 0 8 -7 15 -15 15 -8 0 -15 7 -15 15 0 8 -7 15 -15
15 -8 0 -15 7 -15 15 0 8 -7 15 -15 15 -13 0 -15 43 -15 330 l0 330 750 0 750
0 0 -330z m-3590 -685 c0 -11 12 -15 45 -15 33 0 45 -4 45 -15 0 -10 10 -15
30 -15 20 0 30 -5 30 -15 0 -8 7 -15 15 -15 10 0 15 -11 15 -35 0 -24 -5 -35
-15 -35 -8 0 -15 -7 -15 -15 0 -8 -7 -15 -15 -15 -8 0 -15 -7 -15 -15 0 -8 -7
-15 -15 -15 -10 0 -15 -10 -15 -30 0 -20 -5 -30 -15 -30 -10 0 -15 -10 -15
-30 0 -20 -5 -30 -15 -30 -10 0 -15 -11 -15 -35 0 -24 -5 -35 -15 -35 -10 0
-15 -10 -15 -30 0 -20 -5 -30 -15 -30 -10 0 -15 -10 -15 -30 0 -23 -4 -30 -20
-30 -17 0 -20 -7 -20 -50 0 -38 -4 -50 -15 -50 -12 0 -15 -13 -15 -60 0 -47
-3 -60 -15 -60 -12 0 -15 -16 -15 -80 0 -64 -3 -80 -15 -80 -13 0 -15 -29 -15
-200 0 -171 2 -200 15 -200 12 0 15 -17 15 -95 l0 -95 -95 0 c-78 0 -95 3 -95
15 0 12 -13 15 -60 15 -47 0 -60 3 -60 15 0 10 -10 15 -30 15 -20 0 -30 5 -30
15 0 10 -11 15 -35 15 -24 0 -35 5 -35 15 0 8 -7 15 -15 15 -8 0 -15 9 -15 20
0 11 -7 20 -15 20 -8 0 -15 7 -15 15 0 10 -10 15 -30 15 -20 0 -30 5 -30 15 0
8 -7 15 -15 15 -10 0 -15 10 -15 30 0 20 -5 30 -15 30 -8 0 -15 7 -15 15 0 8
-7 15 -15 15 -8 0 -15 7 -15 15 0 8 -9 15 -20 15 -16 0 -20 7 -20 35 0 24 -5
35 -15 35 -10 0 -15 10 -15 30 0 20 -5 30 -15 30 -12 0 -15 13 -15 60 0 47 -3
60 -15 60 -13 0 -15 24 -15 160 0 136 2 160 15 160 12 0 15 13 15 60 0 47 3
60 15 60 10 0 15 10 15 30 0 20 5 30 15 30 10 0 15 11 15 35 0 28 4 35 20 35
11 0 20 7 20 15 0 8 7 15 15 15 8 0 15 7 15 15 0 8 7 15 15 15 10 0 15 10 15
30 0 20 5 30 15 30 8 0 15 7 15 15 0 10 10 15 30 15 20 0 30 5 30 15 0 8 7 15
15 15 8 0 15 7 15 15 0 8 7 15 15 15 8 0 15 9 15 20 0 16 7 20 35 20 24 0 35
5 35 15 0 10 10 15 30 15 20 0 30 5 30 15 0 12 13 15 60 15 47 0 60 3 60 15 0
13 24 15 160 15 136 0 160 -2 160 -15z m1750 0 c0 -8 7 -15 15 -15 8 0 15 -7
15 -15 0 -8 7 -15 15 -15 8 0 15 -7 15 -15 0 -8 7 -15 15 -15 8 0 15 -9 15
-20 0 -16 7 -20 30 -20 20 0 30 -5 30 -15 0 -8 7 -15 15 -15 8 0 15 -7 15 -15
0 -8 9 -15 20 -15 11 0 20 -7 20 -15 0 -8 7 -15 15 -15 8 0 15 -7 15 -15 0
-10 10 -15 30 -15 20 0 30 -5 30 -15 0 -10 10 -15 30 -15 20 0 30 -5 30 -15 0
-8 7 -15 15 -15 8 0 15 -7 15 -15 0 -10 11 -15 35 -15 28 0 35 -4 35 -20 0
-17 7 -20 45 -20 33 0 45 -4 45 -15 0 -11 12 -15 45 -15 33 0 45 -4 45 -15 0
-11 12 -15 50 -15 38 0 50 -4 50 -15 0 -12 15 -15 75 -15 60 0 75 -3 75 -15 0
-13 26 -15 175 -15 149 0 175 2 175 15 0 12 17 15 90 15 73 0 90 3 90 15 0 11
12 15 50 15 38 0 50 4 50 15 0 11 12 15 45 15 33 0 45 4 45 15 0 11 12 15 50
15 43 0 50 3 50 20 0 16 7 20 30 20 20 0 30 5 30 15 0 8 7 15 15 15 8 0 15 7
15 15 0 10 10 15 30 15 20 0 30 5 30 15 0 10 10 15 30 15 20 0 30 5 30 15 0 8
9 15 20 15 11 0 20 7 20 15 0 8 7 15 15 15 8 0 15 7 15 15 0 8 7 15 15 15 8 0
15 7 15 15 0 10 10 15 30 15 23 0 30 4 30 20 0 11 7 20 15 20 8 0 15 7 15 15
0 8 7 15 15 15 8 0 15 7 15 15 0 8 7 15 15 15 8 0 15 7 15 15 0 13 43 15 330
15 287 0 330 -2 330 -15 0 -10 10 -15 30 -15 20 0 30 -5 30 -15 0 -8 7 -15 15
-15 8 0 15 -7 15 -15 0 -10 11 -15 35 -15 28 0 35 -4 35 -20 0 -16 7 -20 30
-20 20 0 30 -5 30 -15 0 -8 7 -15 15 -15 8 0 15 -7 15 -15 0 -8 7 -15 15 -15
8 0 15 -7 15 -15 0 -10 10 -15 30 -15 20 0 30 -5 30 -15 0 -8 9 -15 20 -15 11
0 20 -7 20 -15 0 -8 7 -15 15 -15 8 0 15 -7 15 -15 0 -8 7 -15 15 -15 8 0 15
-7 15 -15 0 -8 7 -15 15 -15 8 0 15 -9 15 -20 0 -11 7 -20 15 -20 10 0 15 -10
15 -30 0 -20 5 -30 15 -30 8 0 15 -7 15 -15 0 -8 7 -15 15 -15 10 0 15 -10 15
-30 0 -20 5 -30 15 -30 8 0 15 -7 15 -15 0 -8 9 -15 20 -15 16 0 20 -7 20 -35
0 -24 5 -35 15 -35 11 0 15 -12 15 -45 0 -33 4 -45 15 -45 10 0 15 -10 15 -30
0 -20 5 -30 15 -30 12 0 15 -16 15 -80 0 -64 3 -80 15 -80 13 0 15 -27 15
-185 0 -158 -2 -185 -15 -185 -12 0 -15 -17 -15 -95 0 -78 -3 -95 -15 -95 -12
0 -15 -17 -15 -95 0 -78 -3 -95 -15 -95 -12 0 -15 -17 -15 -95 0 -78 -3 -95
-15 -95 -12 0 -15 -17 -15 -90 0 -83 -1 -90 -20 -90 -19 0 -20 -7 -20 -110 0
-91 -3 -110 -15 -110 -12 0 -15 -17 -15 -95 0 -78 -3 -95 -15 -95 -12 0 -15
-17 -15 -95 0 -78 -3 -95 -15 -95 -12 0 -15 -17 -15 -90 0 -73 -3 -90 -15 -90
-12 0 -15 -17 -15 -95 0 -78 -3 -95 -15 -95 -12 0 -15 -17 -15 -95 0 -78 -3
-95 -15 -95 -12 0 -15 -17 -15 -95 0 -78 -3 -95 -15 -95 -12 0 -15 -17 -15
-90 0 -83 -1 -90 -20 -90 -19 0 -20 -7 -20 -95 0 -78 -3 -95 -15 -95 -12 0
-15 -17 -15 -95 0 -78 -3 -95 -15 -95 -8 0 -15 -7 -15 -15 0 -13 -232 -15
-2030 -15 -1798 0 -2030 2 -2030 15 0 8 -7 15 -15 15 -12 0 -15 17 -15 95 0
78 -3 95 -15 95 -12 0 -15 17 -15 95 0 78 -3 95 -15 95 -12 0 -15 17 -15 90 0
83 -1 90 -20 90 -19 0 -20 7 -20 95 0 78 -3 95 -15 95 -12 0 -15 17 -15 95 0
78 -3 95 -15 95 -12 0 -15 17 -15 95 0 78 -3 95 -15 95 -12 0 -15 17 -15 90 0
73 -3 90 -15 90 -12 0 -15 17 -15 95 0 78 -3 95 -15 95 -12 0 -15 17 -15 95 0
78 -3 95 -15 95 -12 0 -15 19 -15 110 0 91 -3 110 -15 110 -12 0 -15 17 -15
90 0 83 -1 90 -20 90 -19 0 -20 7 -20 95 0 78 -3 95 -15 95 -12 0 -15 17 -15
95 0 78 -3 95 -15 95 -12 0 -15 17 -15 95 0 78 -3 95 -15 95 -13 0 -15 29 -15
200 0 171 2 200 15 200 12 0 15 14 15 65 0 51 3 65 15 65 11 0 15 12 15 45 0
33 4 45 15 45 10 0 15 10 15 30 0 23 4 30 20 30 16 0 20 7 20 35 0 24 5 35 15
35 8 0 15 7 15 15 0 8 7 15 15 15 10 0 15 10 15 30 0 20 5 30 15 30 8 0 15 7
15 15 0 8 7 15 15 15 10 0 15 10 15 30 0 20 5 30 15 30 8 0 15 9 15 20 0 11 7
20 15 20 8 0 15 7 15 15 0 8 7 15 15 15 8 0 15 7 15 15 0 8 9 15 20 15 11 0
20 7 20 15 0 8 7 15 15 15 8 0 15 7 15 15 0 10 10 15 30 15 20 0 30 5 30 15 0
8 7 15 15 15 8 0 15 7 15 15 0 8 7 15 15 15 8 0 15 7 15 15 0 10 10 15 30 15
23 0 30 4 30 20 0 16 7 20 35 20 24 0 35 5 35 15 0 8 7 15 15 15 8 0 15 7 15
15 0 10 10 15 30 15 20 0 30 5 30 15 0 13 43 15 330 15 287 0 330 -2 330 -15z
m4250 0 c0 -12 13 -15 60 -15 47 0 60 -3 60 -15 0 -10 10 -15 30 -15 20 0 30
-5 30 -15 0 -10 11 -15 35 -15 28 0 35 -4 35 -20 0 -11 7 -20 15 -20 8 0 15
-7 15 -15 0 -8 7 -15 15 -15 8 0 15 -7 15 -15 0 -10 10 -15 30 -15 20 0 30 -5
30 -15 0 -8 7 -15 15 -15 10 0 15 -10 15 -30 0 -20 5 -30 15 -30 8 0 15 -7 15
-15 0 -8 9 -15 20 -15 11 0 20 -7 20 -15 0 -8 7 -15 15 -15 10 0 15 -11 15
-35 0 -24 5 -35 15 -35 10 0 15 -10 15 -30 0 -20 5 -30 15 -30 12 0 15 -13 15
-60 0 -47 3 -60 15 -60 13 0 15 -24 15 -160 0 -136 -2 -160 -15 -160 -12 0
-15 -13 -15 -60 0 -47 -3 -60 -15 -60 -10 0 -15 -10 -15 -30 0 -20 -5 -30 -15
-30 -10 0 -15 -11 -15 -35 0 -24 -5 -35 -15 -35 -8 0 -15 -7 -15 -15 0 -8 -9
-15 -20 -15 -11 0 -20 -7 -20 -15 0 -8 -7 -15 -15 -15 -8 0 -15 -7 -15 -15 0
-8 -7 -15 -15 -15 -8 0 -15 -7 -15 -15 0 -8 -7 -15 -15 -15 -8 0 -15 -7 -15
-15 0 -8 -7 -15 -15 -15 -8 0 -15 -7 -15 -15 0 -8 -7 -15 -15 -15 -8 0 -15 -9
-15 -20 0 -11 -7 -20 -15 -20 -8 0 -15 -7 -15 -15 0 -10 -11 -15 -35 -15 -24
0 -35 -5 -35 -15 0 -10 -10 -15 -30 -15 -20 0 -30 -5 -30 -15 0 -12 -13 -15
-60 -15 -47 0 -60 -3 -60 -15 0 -12 -17 -15 -95 -15 l-95 0 0 110 c0 91 3 110
15 110 13 0 15 26 15 170 0 144 -2 170 -15 170 -12 0 -15 17 -15 95 0 78 -3
95 -15 95 -12 0 -15 13 -15 60 0 47 -3 60 -15 60 -11 0 -15 12 -15 50 0 38 -4
50 -15 50 -10 0 -15 10 -15 30 0 23 -4 30 -20 30 -16 0 -20 7 -20 30 0 20 -5
30 -15 30 -10 0 -15 11 -15 35 0 24 -5 35 -15 35 -10 0 -15 10 -15 30 0 20 -5
30 -15 30 -10 0 -15 10 -15 30 0 20 -5 30 -15 30 -8 0 -15 7 -15 15 0 8 -7 15
-15 15 -8 0 -15 7 -15 15 0 8 -7 15 -15 15 -10 0 -15 11 -15 35 0 24 5 35 15
35 8 0 15 7 15 15 0 10 10 15 30 15 20 0 30 5 30 15 0 11 12 15 45 15 33 0 45
4 45 15 0 13 24 15 160 15 136 0 160 -2 160 -15z m-7250 -1330 c0 -24 5 -35
15 -35 8 0 15 -7 15 -15 0 -8 7 -15 15 -15 10 0 15 -10 15 -30 0 -20 5 -30 15
-30 8 0 15 -7 15 -15 0 -8 7 -15 15 -15 8 0 15 -7 15 -15 0 -8 7 -15 15 -15 8
0 15 -7 15 -15 0 -8 7 -15 15 -15 10 0 15 -11 15 -35 0 -28 4 -35 20 -35 11 0
20 -7 20 -15 0 -10 10 -15 30 -15 20 0 30 -5 30 -15 0 -8 7 -15 15 -15 8 0 15
-7 15 -15 0 -8 -7 -15 -15 -15 -10 0 -15 -10 -15 -30 0 -20 -5 -30 -15 -30 -8
0 -15 -7 -15 -15 0 -8 -7 -15 -15 -15 -10 0 -15 -11 -15 -35 0 -28 -4 -35 -20
-35 -11 0 -20 -7 -20 -15 0 -8 -7 -15 -15 -15 -10 0 -15 -10 -15 -30 0 -20 -5
-30 -15 -30 -10 0 -15 -10 -15 -30 0 -20 -5 -30 -15 -30 -10 0 -15 -10 -15
-30 0 -20 -5 -30 -15 -30 -10 0 -15 -11 -15 -35 0 -24 -5 -35 -15 -35 -8 0
-15 -7 -15 -15 0 -8 -7 -15 -15 -15 -10 0 -15 -10 -15 -30 0 -20 -5 -30 -15
-30 -10 0 -15 -10 -15 -30 0 -23 -4 -30 -20 -30 -17 0 -20 -7 -20 -50 0 -38
-4 -50 -15 -50 -10 0 -15 -10 -15 -30 0 -20 -5 -30 -15 -30 -10 0 -15 -10 -15
-30 0 -20 -5 -30 -15 -30 -10 0 -15 -10 -15 -30 0 -20 -5 -30 -15 -30 -11 0
-15 -12 -15 -50 0 -38 -4 -50 -15 -50 -10 0 -15 -10 -15 -30 0 -20 -5 -30 -15
-30 -11 0 -15 -12 -15 -45 0 -33 -4 -45 -15 -45 -10 0 -15 -11 -15 -35 0 -28
-4 -35 -20 -35 -17 0 -20 -7 -20 -45 0 -33 -4 -45 -15 -45 -11 0 -15 -12 -15
-45 0 -33 -4 -45 -15 -45 -11 0 -15 -12 -15 -50 0 -38 -4 -50 -15 -50 -12 0
-15 -13 -15 -60 0 -47 -3 -60 -15 -60 -11 0 -15 -12 -15 -50 0 -38 -4 -50 -15
-50 -12 0 -15 -13 -15 -60 0 -47 -3 -60 -15 -60 -12 0 -15 -14 -15 -65 0 -51
-3 -65 -15 -65 -12 0 -15 -15 -15 -75 0 -68 -2 -75 -20 -75 -18 0 -20 -7 -20
-80 0 -64 -3 -80 -15 -80 -12 0 -15 -19 -15 -110 0 -91 -3 -110 -15 -110 -11
0 -15 -12 -15 -45 l0 -45 -75 0 c-60 0 -75 3 -75 15 0 13 -23 15 -145 15 -122
0 -145 -2 -145 -15 0 -10 -10 -15 -30 -15 l-30 0 0 75 c0 60 3 75 15 75 12 0
15 17 15 95 0 78 3 95 15 95 12 0 15 16 15 80 0 73 2 80 20 80 18 0 20 7 20
75 0 60 3 75 15 75 12 0 15 14 15 65 0 51 3 65 15 65 12 0 15 13 15 60 0 47 3
60 15 60 11 0 15 12 15 50 0 38 4 50 15 50 12 0 15 13 15 60 0 47 3 60 15 60
11 0 15 12 15 50 0 38 4 50 15 50 12 0 15 13 15 60 0 47 3 60 15 60 11 0 15
12 15 50 0 43 3 50 20 50 16 0 20 7 20 30 0 20 5 30 15 30 11 0 15 12 15 45 0
33 4 45 15 45 11 0 15 12 15 50 0 38 4 50 15 50 11 0 15 12 15 45 0 33 4 45
15 45 10 0 15 10 15 30 0 20 5 30 15 30 11 0 15 12 15 50 0 38 4 50 15 50 10
0 15 10 15 30 0 20 5 30 15 30 10 0 15 10 15 30 0 23 4 30 20 30 16 0 20 7 20
30 0 20 5 30 15 30 10 0 15 11 15 35 0 24 5 35 15 35 11 0 15 12 15 45 0 33 4
45 15 45 8 0 15 7 15 15 0 8 7 15 15 15 10 0 15 10 15 30 0 20 5 30 15 30 10
0 15 11 15 35 0 24 5 35 15 35 10 0 15 10 15 30 0 20 5 30 15 30 10 0 15 10
15 30 0 23 4 30 20 30 16 0 20 7 20 30 0 20 5 30 15 30 8 0 15 7 15 15 0 8 7
15 15 15 10 0 15 11 15 35 0 24 5 35 15 35 8 0 15 7 15 15 0 8 7 15 15 15 10
0 15 10 15 30 0 20 5 30 15 30 8 0 15 7 15 15 0 8 7 15 15 15 10 0 15 10 15
30 0 20 5 30 15 30 8 0 15 9 15 20 0 13 7 20 20 20 11 0 20 7 20 15 0 8 7 15
15 15 10 0 15 -11 15 -35z m8220 20 c0 -8 7 -15 15 -15 8 0 15 -9 15 -20 0
-11 7 -20 15 -20 10 0 15 -10 15 -30 0 -20 5 -30 15 -30 8 0 15 -7 15 -15 0
-8 7 -15 15 -15 10 0 15 -10 15 -30 0 -20 5 -30 15 -30 8 0 15 -7 15 -15 0 -8
7 -15 15 -15 10 0 15 -11 15 -35 0 -24 5 -35 15 -35 8 0 15 -7 15 -15 0 -8 9
-15 20 -15 16 0 20 -7 20 -30 0 -20 5 -30 15 -30 10 0 15 -10 15 -30 0 -20 5
-30 15 -30 10 0 15 -10 15 -30 0 -20 5 -30 15 -30 10 0 15 -11 15 -35 0 -24 5
-35 15 -35 10 0 15 -10 15 -30 0 -20 5 -30 15 -30 10 0 15 -10 15 -30 0 -20 5
-30 15 -30 10 0 15 -10 15 -30 0 -20 5 -30 15 -30 10 0 15 -11 15 -35 0 -28 4
-35 20 -35 16 0 20 -7 20 -30 0 -20 5 -30 15 -30 10 0 15 -10 15 -30 0 -20 5
-30 15 -30 11 0 15 -12 15 -50 0 -38 4 -50 15 -50 10 0 15 -10 15 -30 0 -20 5
-30 15 -30 11 0 15 -12 15 -45 0 -33 4 -45 15 -45 10 0 15 -10 15 -30 0 -20 5
-30 15 -30 11 0 15 -12 15 -50 0 -38 4 -50 15 -50 11 0 15 -12 15 -45 0 -38 3
-45 20 -45 17 0 20 -7 20 -50 0 -38 4 -50 15 -50 11 0 15 -12 15 -45 0 -33 4
-45 15 -45 11 0 15 -12 15 -45 0 -33 4 -45 15 -45 11 0 15 -12 15 -50 0 -38 4
-50 15 -50 12 0 15 -13 15 -60 0 -47 3 -60 15 -60 11 0 15 -12 15 -50 0 -38 4
-50 15 -50 12 0 15 -13 15 -60 0 -47 3 -60 15 -60 12 0 15 -16 15 -80 0 -73 2
-80 20 -80 18 0 20 -7 20 -60 0 -47 3 -60 15 -60 12 0 15 -16 15 -80 0 -64 3
-80 15 -80 12 0 15 -17 15 -95 0 -78 3 -95 15 -95 12 0 15 -15 15 -75 l0 -75
-30 0 c-20 0 -30 5 -30 15 0 13 -22 15 -140 15 -118 0 -140 -2 -140 -15 0 -12
-16 -15 -80 -15 l-80 0 0 45 c0 33 -4 45 -15 45 -12 0 -15 19 -15 110 0 91 -3
110 -15 110 -12 0 -15 16 -15 80 0 64 -3 80 -15 80 -12 0 -15 15 -15 75 0 68
-2 75 -20 75 -18 0 -20 7 -20 65 0 51 -3 65 -15 65 -12 0 -15 13 -15 60 0 47
-3 60 -15 60 -11 0 -15 12 -15 50 0 38 -4 50 -15 50 -12 0 -15 13 -15 60 0 47
-3 60 -15 60 -11 0 -15 12 -15 50 0 38 -4 50 -15 50 -11 0 -15 12 -15 45 0 33
-4 45 -15 45 -11 0 -15 12 -15 45 0 33 -4 45 -15 45 -10 0 -15 11 -15 35 0 28
-4 35 -20 35 -17 0 -20 7 -20 45 0 33 -4 45 -15 45 -10 0 -15 10 -15 30 0 20
-5 30 -15 30 -11 0 -15 12 -15 50 0 38 -4 50 -15 50 -10 0 -15 10 -15 30 0 20
-5 30 -15 30 -10 0 -15 10 -15 30 0 20 -5 30 -15 30 -10 0 -15 10 -15 30 0 20
-5 30 -15 30 -11 0 -15 12 -15 50 0 38 -4 50 -15 50 -10 0 -15 10 -15 30 0 23
-4 30 -20 30 -16 0 -20 7 -20 30 0 20 -5 30 -15 30 -8 0 -15 7 -15 15 0 8 -7
15 -15 15 -10 0 -15 11 -15 35 0 24 -5 35 -15 35 -10 0 -15 10 -15 30 0 20 -5
30 -15 30 -10 0 -15 10 -15 30 0 20 -5 30 -15 30 -8 0 -15 7 -15 15 0 8 -7 15
-15 15 -10 0 -15 10 -15 30 0 20 -5 30 -15 30 -10 0 -15 11 -15 35 0 28 -4 35
-20 35 -11 0 -20 7 -20 15 0 8 -7 15 -15 15 -10 0 -15 10 -15 30 0 20 -5 30
-15 30 -8 0 -15 7 -15 15 0 10 10 15 30 15 20 0 30 5 30 15 0 8 9 15 20 15 11
0 20 7 20 15 0 8 7 15 15 15 10 0 15 11 15 35 0 24 5 35 15 35 8 0 15 7 15 15
0 8 7 15 15 15 8 0 15 7 15 15 0 8 7 15 15 15 8 0 15 7 15 15 0 8 7 15 15 15
10 0 15 10 15 30 0 20 5 30 15 30 8 0 15 7 15 15 0 8 7 15 15 15 10 0 15 11
15 35 0 28 4 35 20 35 11 0 20 -7 20 -15z m-2040 -3190 c0 -8 9 -15 20 -15 16
0 20 -7 20 -30 0 -20 5 -30 15 -30 10 0 15 -11 15 -35 0 -24 5 -35 15 -35 10
0 15 -10 15 -30 0 -20 5 -30 15 -30 10 0 15 -10 15 -30 0 -20 5 -30 15 -30 10
0 15 -10 15 -30 0 -20 5 -30 15 -30 10 0 15 -11 15 -35 0 -24 5 -35 15 -35 10
0 15 -10 15 -30 0 -20 5 -30 15 -30 10 0 15 -10 15 -30 0 -23 4 -30 20 -30 16
0 20 -7 20 -30 0 -20 5 -30 15 -30 10 0 15 -11 15 -35 0 -24 5 -35 15 -35 10
0 15 -10 15 -30 0 -20 5 -30 15 -30 10 0 15 -10 15 -30 0 -20 5 -30 15 -30 10
0 15 -10 15 -30 0 -20 5 -30 15 -30 10 0 15 -11 15 -35 0 -24 5 -35 15 -35 10
0 15 -10 15 -30 0 -20 5 -30 15 -30 10 0 15 -10 15 -30 0 -23 4 -30 20 -30 16
0 20 -7 20 -30 0 -20 5 -30 15 -30 10 0 15 -11 15 -35 0 -24 5 -35 15 -35 10
0 15 -10 15 -30 0 -20 5 -30 15 -30 10 0 15 -10 15 -30 0 -20 5 -30 15 -30 10
0 15 -10 15 -30 0 -20 5 -30 15 -30 10 0 15 -11 15 -35 0 -24 5 -35 15 -35 10
0 15 -10 15 -30 0 -20 5 -30 15 -30 10 0 15 -10 15 -30 0 -23 4 -30 20 -30 16
0 20 -7 20 -30 0 -20 5 -30 15 -30 10 0 15 -11 15 -35 0 -24 5 -35 15 -35 10
0 15 -10 15 -30 0 -20 5 -30 15 -30 10 0 15 -10 15 -30 0 -20 5 -30 15 -30 10
0 15 -10 15 -30 0 -20 5 -30 15 -30 10 0 15 -11 15 -35 0 -24 5 -35 15 -35 10
0 15 -10 15 -30 0 -20 5 -30 15 -30 10 0 15 -10 15 -30 0 -23 4 -30 20 -30 16
0 20 -7 20 -30 0 -20 5 -30 15 -30 10 0 15 -11 15 -35 0 -24 5 -35 15 -35 10
0 15 -10 15 -30 0 -20 5 -30 15 -30 10 0 15 -10 15 -30 0 -20 5 -30 15 -30 10
0 15 -10 15 -30 0 -20 5 -30 15 -30 10 0 15 -11 15 -35 0 -24 5 -35 15 -35 10
0 15 -10 15 -30 0 -20 5 -30 15 -30 8 0 15 -7 15 -15 0 -13 -378 -15 -3340
-15 -2962 0 -3340 2 -3340 15 0 8 7 15 15 15 10 0 15 10 15 30 0 20 5 30 15
30 10 0 15 11 15 35 0 24 5 35 15 35 10 0 15 10 15 30 0 20 5 30 15 30 10 0
15 10 15 30 0 20 5 30 15 30 10 0 15 10 15 30 0 20 5 30 15 30 10 0 15 11 15
35 0 28 4 35 20 35 16 0 20 7 20 30 0 20 5 30 15 30 10 0 15 10 15 30 0 20 5
30 15 30 10 0 15 10 15 30 0 20 5 30 15 30 10 0 15 11 15 35 0 24 5 35 15 35
10 0 15 10 15 30 0 20 5 30 15 30 10 0 15 10 15 30 0 20 5 30 15 30 10 0 15
10 15 30 0 20 5 30 15 30 10 0 15 11 15 35 0 28 4 35 20 35 16 0 20 7 20 30 0
20 5 30 15 30 10 0 15 10 15 30 0 20 5 30 15 30 10 0 15 10 15 30 0 20 5 30
15 30 10 0 15 11 15 35 0 24 5 35 15 35 10 0 15 10 15 30 0 20 5 30 15 30 10
0 15 10 15 30 0 20 5 30 15 30 10 0 15 10 15 30 0 20 5 30 15 30 10 0 15 11
15 35 0 28 4 35 20 35 16 0 20 7 20 30 0 20 5 30 15 30 10 0 15 10 15 30 0 20
5 30 15 30 10 0 15 10 15 30 0 20 5 30 15 30 10 0 15 11 15 35 0 24 5 35 15
35 10 0 15 10 15 30 0 20 5 30 15 30 10 0 15 10 15 30 0 20 5 30 15 30 10 0
15 10 15 30 0 20 5 30 15 30 10 0 15 11 15 35 0 28 4 35 20 35 16 0 20 7 20
30 0 20 5 30 15 30 10 0 15 10 15 30 0 20 5 30 15 30 10 0 15 10 15 30 0 20 5
30 15 30 10 0 15 11 15 35 0 24 5 35 15 35 10 0 15 10 15 30 0 20 5 30 15 30
10 0 15 10 15 30 0 20 5 30 15 30 10 0 15 10 15 30 0 20 5 30 15 30 10 0 15
11 15 35 0 28 4 35 20 35 16 0 20 7 20 30 0 20 5 30 15 30 8 0 15 7 15 15 0
13 239 15 2090 15 1851 0 2090 -2 2090 -15z m1410 -3015 c0 -20 -5 -30 -15
-30 -11 0 -15 -12 -15 -50 0 -38 -4 -50 -15 -50 -10 0 -15 -10 -15 -30 0 -20
-5 -30 -15 -30 -10 0 -15 -10 -15 -30 0 -20 -5 -30 -15 -30 -8 0 -15 -7 -15
-15 0 -8 -9 -15 -20 -15 -11 0 -20 -7 -20 -15 0 -8 -7 -15 -15 -15 -8 0 -15
-9 -15 -20 0 -11 -7 -20 -15 -20 -8 0 -15 -7 -15 -15 0 -10 -10 -15 -30 -15
-20 0 -30 -5 -30 -15 0 -10 -10 -15 -30 -15 -20 0 -30 -5 -30 -15 0 -10 -11
-15 -35 -15 -24 0 -35 -5 -35 -15 0 -13 -350 -15 -3090 -15 -2740 0 -3090 2
-3090 15 0 10 -11 15 -35 15 -24 0 -35 5 -35 15 0 10 -10 15 -30 15 -20 0 -30
5 -30 15 0 10 -10 15 -30 15 -20 0 -30 5 -30 15 0 8 -7 15 -15 15 -8 0 -15 9
-15 20 0 11 -7 20 -15 20 -8 0 -15 7 -15 15 0 8 -7 15 -15 15 -8 0 -15 7 -15
15 0 8 -9 15 -20 15 -16 0 -20 7 -20 30 0 20 -5 30 -15 30 -10 0 -15 10 -15
30 0 20 -5 30 -15 30 -11 0 -15 12 -15 50 0 38 -4 50 -15 50 -10 0 -15 10 -15
30 l0 30 3500 0 3500 0 0 -30z m-5000 -1035 c0 -51 -3 -65 -15 -65 -11 0 -15
-12 -15 -45 0 -33 -4 -45 -15 -45 -10 0 -15 -10 -15 -30 0 -20 -5 -30 -15 -30
-8 0 -15 -7 -15 -15 0 -8 -7 -15 -15 -15 -8 0 -15 -7 -15 -15 0 -8 -9 -15 -20
-15 -13 0 -20 -7 -20 -20 0 -11 -7 -20 -15 -20 -8 0 -15 -7 -15 -15 0 -8 -7
-15 -15 -15 -8 0 -15 -7 -15 -15 0 -10 -10 -15 -30 -15 -20 0 -30 -5 -30 -15
0 -11 -12 -15 -45 -15 -33 0 -45 -4 -45 -15 0 -13 -21 -15 -125 -15 -104 0
-125 2 -125 15 0 11 -12 15 -50 15 -38 0 -50 4 -50 15 0 10 -10 15 -30 15 -20
0 -30 5 -30 15 0 8 -7 15 -15 15 -8 0 -15 7 -15 15 0 8 -7 15 -15 15 -8 0 -15
9 -15 20 0 11 -7 20 -15 20 -8 0 -15 7 -15 15 0 8 -9 15 -20 15 -11 0 -20 7
-20 15 0 8 -7 15 -15 15 -10 0 -15 10 -15 30 0 20 -5 30 -15 30 -11 0 -15 12
-15 45 0 33 -4 45 -15 45 -12 0 -15 14 -15 65 l0 65 500 0 500 0 0 -65z m4000
0 c0 -51 -3 -65 -15 -65 -11 0 -15 -12 -15 -45 0 -33 -4 -45 -15 -45 -10 0
-15 -10 -15 -30 0 -20 -5 -30 -15 -30 -8 0 -15 -7 -15 -15 0 -8 -7 -15 -15
-15 -8 0 -15 -7 -15 -15 0 -8 -9 -15 -20 -15 -13 0 -20 -7 -20 -20 0 -11 -7
-20 -15 -20 -8 0 -15 -7 -15 -15 0 -8 -7 -15 -15 -15 -8 0 -15 -7 -15 -15 0
-10 -10 -15 -30 -15 -20 0 -30 -5 -30 -15 0 -11 -12 -15 -45 -15 -33 0 -45 -4
-45 -15 0 -13 -21 -15 -125 -15 -104 0 -125 2 -125 15 0 11 -12 15 -50 15 -38
0 -50 4 -50 15 0 10 -10 15 -30 15 -20 0 -30 5 -30 15 0 8 -7 15 -15 15 -8 0
-15 7 -15 15 0 8 -7 15 -15 15 -8 0 -15 9 -15 20 0 11 -7 20 -15 20 -8 0 -15
7 -15 15 0 8 -9 15 -20 15 -11 0 -20 7 -20 15 0 8 -7 15 -15 15 -10 0 -15 10
-15 30 0 20 -5 30 -15 30 -11 0 -15 12 -15 45 0 33 -4 45 -15 45 -12 0 -15 14
-15 65 l0 65 500 0 500 0 0 -65z"/>
<path d="M8840 16885 c0 -12 -14 -15 -65 -15 -51 0 -65 -3 -65 -15 0 -10 -10
-15 -30 -15 -20 0 -30 -5 -30 -15 0 -10 -10 -15 -30 -15 -23 0 -30 -4 -30 -20
0 -16 -7 -20 -35 -20 -24 0 -35 -5 -35 -15 0 -8 -7 -15 -15 -15 -8 0 -15 -7
-15 -15 0 -8 -7 -15 -15 -15 -8 0 -15 -7 -15 -15 0 -8 -7 -15 -15 -15 -8 0
-15 -7 -15 -15 0 -8 -7 -15 -15 -15 -8 0 -15 -7 -15 -15 0 -8 -7 -15 -15 -15
-8 0 -15 -7 -15 -15 0 -8 -7 -15 -15 -15 -10 0 -15 -11 -15 -35 0 -28 -4 -35
-20 -35 -16 0 -20 -7 -20 -30 0 -20 -5 -30 -15 -30 -10 0 -15 -10 -15 -30 0
-20 -5 -30 -15 -30 -12 0 -15 -14 -15 -65 0 -51 -3 -65 -15 -65 -13 0 -15 -21
-15 -125 0 -104 2 -125 15 -125 12 0 15 -13 15 -60 0 -47 3 -60 15 -60 10 0
15 -10 15 -30 0 -20 5 -30 15 -30 10 0 15 -11 15 -35 0 -28 4 -35 20 -35 16 0
20 -7 20 -30 0 -20 5 -30 15 -30 8 0 15 -7 15 -15 0 -8 7 -15 15 -15 8 0 15
-7 15 -15 0 -8 7 -15 15 -15 8 0 15 -7 15 -15 0 -8 7 -15 15 -15 8 0 15 -7 15
-15 0 -8 7 -15 15 -15 8 0 15 -7 15 -15 0 -8 7 -15 15 -15 8 0 15 -9 15 -20 0
-16 7 -20 35 -20 24 0 35 -5 35 -15 0 -10 10 -15 30 -15 20 0 30 -5 30 -15 0
-10 10 -15 30 -15 20 0 30 -5 30 -15 0 -12 14 -15 65 -15 51 0 65 -3 65 -15 0
-13 21 -15 125 -15 104 0 125 2 125 15 0 12 13 15 60 15 47 0 60 3 60 15 0 10
10 15 30 15 20 0 30 5 30 15 0 10 11 15 35 15 24 0 35 5 35 15 0 10 10 15 30
15 23 0 30 4 30 20 0 11 7 20 15 20 8 0 15 7 15 15 0 8 7 15 15 15 8 0 15 7
15 15 0 8 7 15 15 15 8 0 15 7 15 15 0 8 7 15 15 15 8 0 15 7 15 15 0 8 7 15
15 15 8 0 15 7 15 15 0 8 9 15 20 15 16 0 20 7 20 30 0 20 5 30 15 30 10 0 15
11 15 35 0 24 5 35 15 35 10 0 15 10 15 30 0 20 5 30 15 30 12 0 15 13 15 60
0 47 3 60 15 60 13 0 15 21 15 125 0 104 -2 125 -15 125 -12 0 -15 14 -15 65
0 51 -3 65 -15 65 -10 0 -15 10 -15 30 0 20 -5 30 -15 30 -10 0 -15 10 -15 30
0 20 -5 30 -15 30 -10 0 -15 11 -15 35 0 28 -4 35 -20 35 -11 0 -20 7 -20 15
0 8 -7 15 -15 15 -8 0 -15 7 -15 15 0 8 -7 15 -15 15 -8 0 -15 7 -15 15 0 8
-7 15 -15 15 -8 0 -15 7 -15 15 0 8 -7 15 -15 15 -8 0 -15 7 -15 15 0 8 -7 15
-15 15 -8 0 -15 7 -15 15 0 10 -10 15 -30 15 -23 0 -30 4 -30 20 0 16 -7 20
-35 20 -24 0 -35 5 -35 15 0 10 -10 15 -30 15 -20 0 -30 5 -30 15 0 12 -13 15
-60 15 -47 0 -60 3 -60 15 0 13 -21 15 -125 15 -104 0 -125 -2 -125 -15z m210
-500 c0 -10 11 -15 35 -15 24 0 35 -5 35 -15 0 -8 7 -15 15 -15 8 0 15 -7 15
-15 0 -8 7 -15 15 -15 10 0 15 -11 15 -35 0 -24 5 -35 15 -35 12 0 15 -17 15
-90 0 -73 -3 -90 -15 -90 -10 0 -15 -11 -15 -35 0 -24 -5 -35 -15 -35 -8 0
-15 -7 -15 -15 0 -8 -7 -15 -15 -15 -8 0 -15 -7 -15 -15 0 -10 -11 -15 -35
-15 -24 0 -35 -5 -35 -15 0 -12 -17 -15 -90 -15 -73 0 -90 3 -90 15 0 10 -11
15 -35 15 -24 0 -35 5 -35 15 0 8 -7 15 -15 15 -8 0 -15 7 -15 15 0 8 -7 15
-15 15 -10 0 -15 11 -15 35 0 24 -5 35 -15 35 -12 0 -15 17 -15 90 0 73 3 90
15 90 10 0 15 11 15 35 0 24 5 35 15 35 8 0 15 7 15 15 0 8 7 15 15 15 8 0 15
7 15 15 0 10 11 15 35 15 24 0 35 5 35 15 0 12 17 15 90 15 73 0 90 -3 90 -15z"/>
<path d="M10840 16885 c0 -12 -14 -15 -65 -15 -51 0 -65 -3 -65 -15 0 -10 -10
-15 -30 -15 -20 0 -30 -5 -30 -15 0 -10 -10 -15 -30 -15 -23 0 -30 -4 -30 -20
0 -16 -7 -20 -35 -20 -24 0 -35 -5 -35 -15 0 -8 -7 -15 -15 -15 -8 0 -15 -7
-15 -15 0 -8 -7 -15 -15 -15 -8 0 -15 -7 -15 -15 0 -8 -7 -15 -15 -15 -8 0
-15 -7 -15 -15 0 -8 -7 -15 -15 -15 -8 0 -15 -7 -15 -15 0 -8 -7 -15 -15 -15
-8 0 -15 -7 -15 -15 0 -8 -7 -15 -15 -15 -10 0 -15 -11 -15 -35 0 -28 -4 -35
-20 -35 -16 0 -20 -7 -20 -30 0 -20 -5 -30 -15 -30 -10 0 -15 -10 -15 -30 0
-20 -5 -30 -15 -30 -12 0 -15 -14 -15 -65 0 -51 -3 -65 -15 -65 -13 0 -15 -21
-15 -125 0 -104 2 -125 15 -125 12 0 15 -13 15 -60 0 -47 3 -60 15 -60 10 0
15 -10 15 -30 0 -20 5 -30 15 -30 10 0 15 -11 15 -35 0 -28 4 -35 20 -35 16 0
20 -7 20 -30 0 -20 5 -30 15 -30 8 0 15 -7 15 -15 0 -8 7 -15 15 -15 8 0 15
-7 15 -15 0 -8 7 -15 15 -15 8 0 15 -7 15 -15 0 -8 7 -15 15 -15 8 0 15 -7 15
-15 0 -8 7 -15 15 -15 8 0 15 -7 15 -15 0 -8 7 -15 15 -15 8 0 15 -9 15 -20 0
-16 7 -20 35 -20 24 0 35 -5 35 -15 0 -10 10 -15 30 -15 20 0 30 -5 30 -15 0
-10 10 -15 30 -15 20 0 30 -5 30 -15 0 -12 14 -15 65 -15 51 0 65 -3 65 -15 0
-13 21 -15 125 -15 104 0 125 2 125 15 0 12 13 15 60 15 47 0 60 3 60 15 0 10
10 15 30 15 20 0 30 5 30 15 0 10 11 15 35 15 24 0 35 5 35 15 0 10 10 15 30
15 23 0 30 4 30 20 0 11 7 20 15 20 8 0 15 7 15 15 0 8 7 15 15 15 8 0 15 7
15 15 0 8 7 15 15 15 8 0 15 7 15 15 0 8 7 15 15 15 8 0 15 7 15 15 0 8 7 15
15 15 8 0 15 7 15 15 0 8 9 15 20 15 16 0 20 7 20 30 0 20 5 30 15 30 10 0 15
11 15 35 0 24 5 35 15 35 10 0 15 10 15 30 0 20 5 30 15 30 12 0 15 13 15 60
0 47 3 60 15 60 13 0 15 21 15 125 0 104 -2 125 -15 125 -12 0 -15 14 -15 65
0 51 -3 65 -15 65 -10 0 -15 10 -15 30 0 20 -5 30 -15 30 -10 0 -15 10 -15 30
0 20 -5 30 -15 30 -10 0 -15 11 -15 35 0 28 -4 35 -20 35 -11 0 -20 7 -20 15
0 8 -7 15 -15 15 -8 0 -15 7 -15 15 0 8 -7 15 -15 15 -8 0 -15 7 -15 15 0 8
-7 15 -15 15 -8 0 -15 7 -15 15 0 8 -7 15 -15 15 -8 0 -15 7 -15 15 0 8 -7 15
-15 15 -8 0 -15 7 -15 15 0 10 -10 15 -30 15 -23 0 -30 4 -30 20 0 16 -7 20
-35 20 -24 0 -35 5 -35 15 0 10 -10 15 -30 15 -20 0 -30 5 -30 15 0 12 -13 15
-60 15 -47 0 -60 3 -60 15 0 13 -21 15 -125 15 -104 0 -125 -2 -125 -15z m210
-500 c0 -10 11 -15 35 -15 24 0 35 -5 35 -15 0 -8 7 -15 15 -15 8 0 15 -7 15
-15 0 -8 7 -15 15 -15 10 0 15 -11 15 -35 0 -24 5 -35 15 -35 12 0 15 -17 15
-90 0 -73 -3 -90 -15 -90 -10 0 -15 -11 -15 -35 0 -24 -5 -35 -15 -35 -8 0
-15 -7 -15 -15 0 -8 -7 -15 -15 -15 -8 0 -15 -7 -15 -15 0 -10 -11 -15 -35
-15 -24 0 -35 -5 -35 -15 0 -12 -17 -15 -90 -15 -73 0 -90 3 -90 15 0 10 -11
15 -35 15 -24 0 -35 5 -35 15 0 8 -7 15 -15 15 -8 0 -15 7 -15 15 0 8 -7 15
-15 15 -10 0 -15 11 -15 35 0 24 -5 35 -15 35 -12 0 -15 17 -15 90 0 73 3 90
15 90 10 0 15 11 15 35 0 24 5 35 15 35 8 0 15 7 15 15 0 8 7 15 15 15 8 0 15
7 15 15 0 10 11 15 35 15 24 0 35 5 35 15 0 12 17 15 90 15 73 0 90 -3 90 -15z"/>
<path d="M8210 12400 l0 -250 250 0 250 0 0 250 0 250 -250 0 -250 0 0 -250z"/>
<path d="M11210 12400 l0 -250 250 0 250 0 0 250 0 250 -250 0 -250 0 0 -250z"/>
<path d="M9800 12135 c0 -12 -15 -15 -75 -15 -60 0 -75 -3 -75 -15 0 -11 -12
-15 -50 -15 -38 0 -50 -4 -50 -15 0 -11 -12 -15 -45 -15 -38 0 -45 -3 -45 -20
0 -16 -7 -20 -30 -20 -20 0 -30 -5 -30 -15 0 -10 -10 -15 -30 -15 -20 0 -30
-5 -30 -15 0 -10 -11 -15 -35 -15 -24 0 -35 -5 -35 -15 0 -8 -7 -15 -15 -15
-8 0 -15 -7 -15 -15 0 -8 -7 -15 -15 -15 -8 0 -15 -7 -15 -15 0 -10 -10 -15
-30 -15 -20 0 -30 -5 -30 -15 0 -8 -7 -15 -15 -15 -8 0 -15 -7 -15 -15 0 -8
-7 -15 -15 -15 -8 0 -15 -9 -15 -20 0 -13 -7 -20 -20 -20 -11 0 -20 -7 -20
-15 0 -8 -7 -15 -15 -15 -8 0 -15 -7 -15 -15 0 -8 -7 -15 -15 -15 -10 0 -15
-10 -15 -30 0 -20 -5 -30 -15 -30 -8 0 -15 -7 -15 -15 0 -8 -7 -15 -15 -15 -8
0 -15 -7 -15 -15 0 -8 -7 -15 -15 -15 -10 0 -15 -11 -15 -35 0 -24 -5 -35 -15
-35 -10 0 -15 -10 -15 -30 0 -20 -5 -30 -15 -30 -10 0 -15 -10 -15 -30 0 -23
-4 -30 -20 -30 -17 0 -20 -7 -20 -45 0 -33 -4 -45 -15 -45 -11 0 -15 -12 -15
-50 0 -38 -4 -50 -15 -50 -12 0 -15 -15 -15 -75 0 -60 -3 -75 -15 -75 -13 0
-15 -24 -15 -160 0 -136 2 -160 15 -160 12 0 15 -15 15 -75 0 -60 3 -75 15
-75 11 0 15 -12 15 -50 0 -38 4 -50 15 -50 11 0 15 -12 15 -45 0 -38 3 -45 20
-45 16 0 20 -7 20 -30 0 -20 5 -30 15 -30 10 0 15 -11 15 -35 0 -24 5 -35 15
-35 10 0 15 -10 15 -30 0 -20 5 -30 15 -30 8 0 15 -7 15 -15 0 -8 7 -15 15
-15 8 0 15 -7 15 -15 0 -8 7 -15 15 -15 10 0 15 -10 15 -30 0 -20 5 -30 15
-30 8 0 15 -7 15 -15 0 -8 7 -15 15 -15 8 0 15 -9 15 -20 0 -13 7 -20 20 -20
11 0 20 -7 20 -15 0 -8 7 -15 15 -15 8 0 15 -7 15 -15 0 -8 7 -15 15 -15 8 0
15 -7 15 -15 0 -10 10 -15 30 -15 20 0 30 -5 30 -15 0 -8 7 -15 15 -15 8 0 15
-7 15 -15 0 -8 7 -15 15 -15 8 0 15 -7 15 -15 0 -10 11 -15 35 -15 24 0 35 -5
35 -15 0 -10 10 -15 30 -15 23 0 30 -4 30 -20 0 -16 7 -20 30 -20 20 0 30 -5
30 -15 0 -11 12 -15 45 -15 33 0 45 -4 45 -15 0 -11 12 -15 50 -15 38 0 50 -4
50 -15 0 -12 15 -15 75 -15 60 0 75 -3 75 -15 0 -13 24 -15 160 -15 136 0 160
2 160 15 0 12 15 15 75 15 60 0 75 3 75 15 0 12 14 15 65 15 51 0 65 3 65 15
0 10 10 15 30 15 20 0 30 5 30 15 0 10 10 15 30 15 23 0 30 4 30 20 0 16 7 20
35 20 24 0 35 5 35 15 0 10 10 15 30 15 20 0 30 5 30 15 0 8 7 15 15 15 8 0
15 7 15 15 0 8 7 15 15 15 8 0 15 7 15 15 0 10 10 15 30 15 20 0 30 5 30 15 0
8 7 15 15 15 8 0 15 7 15 15 0 8 9 15 20 15 11 0 20 7 20 15 0 8 7 15 15 15 8
0 15 9 15 20 0 11 7 20 15 20 8 0 15 7 15 15 0 8 7 15 15 15 10 0 15 10 15 30
0 20 5 30 15 30 8 0 15 7 15 15 0 8 7 15 15 15 8 0 15 7 15 15 0 8 7 15 15 15
10 0 15 10 15 30 0 20 5 30 15 30 10 0 15 11 15 35 0 28 4 35 20 35 16 0 20 7
20 30 0 20 5 30 15 30 11 0 15 12 15 45 0 33 4 45 15 45 11 0 15 12 15 50 0
38 4 50 15 50 12 0 15 15 15 75 0 60 3 75 15 75 13 0 15 24 15 160 0 136 -2
160 -15 160 -12 0 -15 15 -15 75 0 60 -3 75 -15 75 -11 0 -15 12 -15 50 0 38
-4 50 -15 50 -11 0 -15 12 -15 45 0 33 -4 45 -15 45 -10 0 -15 10 -15 30 0 23
-4 30 -20 30 -16 0 -20 7 -20 30 0 20 -5 30 -15 30 -10 0 -15 11 -15 35 0 24
-5 35 -15 35 -8 0 -15 7 -15 15 0 8 -7 15 -15 15 -8 0 -15 7 -15 15 0 8 -7 15
-15 15 -10 0 -15 10 -15 30 0 20 -5 30 -15 30 -8 0 -15 7 -15 15 0 8 -7 15
-15 15 -8 0 -15 7 -15 15 0 8 -7 15 -15 15 -8 0 -15 9 -15 20 0 13 -7 20 -20
20 -11 0 -20 7 -20 15 0 8 -7 15 -15 15 -8 0 -15 7 -15 15 0 10 -10 15 -30 15
-20 0 -30 5 -30 15 0 8 -7 15 -15 15 -8 0 -15 7 -15 15 0 8 -7 15 -15 15 -8 0
-15 7 -15 15 0 10 -10 15 -30 15 -20 0 -30 5 -30 15 0 10 -11 15 -35 15 -24 0
-35 5 -35 15 0 10 -10 15 -30 15 -23 0 -30 4 -30 20 0 16 -7 20 -30 20 -20 0
-30 5 -30 15 0 12 -14 15 -65 15 -51 0 -65 3 -65 15 0 12 -15 15 -75 15 -60 0
-75 3 -75 15 0 13 -24 15 -160 15 -136 0 -160 -2 -160 -15z m320 -500 c0 -12
13 -15 60 -15 47 0 60 -3 60 -15 0 -10 10 -15 30 -15 20 0 30 -5 30 -15 0 -10
11 -15 35 -15 28 0 35 -4 35 -20 0 -11 7 -20 15 -20 8 0 15 -7 15 -15 0 -8 7
-15 15 -15 8 0 15 -7 15 -15 0 -10 10 -15 30 -15 20 0 30 -5 30 -15 0 -8 7
-15 15 -15 10 0 15 -10 15 -30 0 -20 5 -30 15 -30 8 0 15 -7 15 -15 0 -8 9
-15 20 -15 11 0 20 -7 20 -15 0 -8 7 -15 15 -15 10 0 15 -11 15 -35 0 -24 5
-35 15 -35 10 0 15 -10 15 -30 0 -20 5 -30 15 -30 12 0 15 -13 15 -60 0 -47 3
-60 15 -60 13 0 15 -24 15 -160 0 -136 -2 -160 -15 -160 -12 0 -15 -13 -15
-60 0 -47 -3 -60 -15 -60 -10 0 -15 -10 -15 -30 0 -20 -5 -30 -15 -30 -10 0
-15 -11 -15 -35 0 -24 -5 -35 -15 -35 -8 0 -15 -7 -15 -15 0 -8 -9 -15 -20
-15 -11 0 -20 -7 -20 -15 0 -8 -7 -15 -15 -15 -8 0 -15 -7 -15 -15 0 -8 -7
-15 -15 -15 -10 0 -15 -10 -15 -30 0 -27 -3 -30 -30 -30 -20 0 -30 -5 -30 -15
0 -8 -7 -15 -15 -15 -8 0 -15 -9 -15 -20 0 -11 -7 -20 -15 -20 -8 0 -15 -7
-15 -15 0 -10 -11 -15 -35 -15 -24 0 -35 -5 -35 -15 0 -10 -10 -15 -30 -15
-20 0 -30 -5 -30 -15 0 -12 -13 -15 -60 -15 -47 0 -60 -3 -60 -15 0 -13 -24
-15 -160 -15 -136 0 -160 2 -160 15 0 12 -13 15 -60 15 -47 0 -60 3 -60 15 0
10 -10 15 -30 15 -20 0 -30 5 -30 15 0 10 -11 15 -35 15 -24 0 -35 5 -35 15 0
8 -7 15 -15 15 -8 0 -15 9 -15 20 0 11 -7 20 -15 20 -8 0 -15 7 -15 15 0 8 -7
15 -15 15 -8 0 -15 7 -15 15 0 10 -10 15 -30 15 -27 0 -30 3 -30 30 0 20 -5
30 -15 30 -8 0 -15 7 -15 15 0 8 -7 15 -15 15 -8 0 -15 7 -15 15 0 8 -9 15
-20 15 -16 0 -20 7 -20 35 0 24 -5 35 -15 35 -10 0 -15 10 -15 30 0 20 -5 30
-15 30 -12 0 -15 13 -15 60 0 47 -3 60 -15 60 -13 0 -15 24 -15 160 0 136 2
160 15 160 12 0 15 13 15 60 0 47 3 60 15 60 10 0 15 10 15 30 0 20 5 30 15
30 10 0 15 11 15 35 0 28 4 35 20 35 11 0 20 7 20 15 0 8 7 15 15 15 8 0 15 7
15 15 0 8 7 15 15 15 10 0 15 10 15 30 0 27 3 30 30 30 20 0 30 5 30 15 0 8 7
15 15 15 8 0 15 7 15 15 0 8 7 15 15 15 8 0 15 7 15 15 0 8 7 15 15 15 8 0 15
9 15 20 0 16 7 20 35 20 24 0 35 5 35 15 0 10 10 15 30 15 20 0 30 5 30 15 0
12 13 15 60 15 47 0 60 3 60 15 0 13 24 15 160 15 136 0 160 -2 160 -15z"/>
<path d="M6170 3198 c-83 -12 -200 -51 -270 -91 -86 -48 -199 -168 -247 -262
-156 -304 -98 -721 129 -919 66 -58 171 -110 273 -137 146 -38 406 -26 527 24
l36 15 -25 143 c-14 79 -27 146 -29 148 -2 2 -30 -4 -62 -13 -257 -72 -474 11
-553 211 -33 84 -33 262 0 345 30 76 106 159 179 195 54 26 64 28 187 27 108
0 140 -4 189 -22 33 -12 61 -21 63 -19 1 2 18 69 37 148 l33 144 -21 12 c-36
21 -117 41 -206 52 -97 13 -149 12 -240 -1z"/>
<path d="M7190 3199 c-67 -9 -161 -43 -213 -76 -178 -112 -244 -360 -145 -545
56 -105 176 -191 338 -243 70 -23 145 -60 170 -85 27 -27 26 -89 -1 -123 -28
-37 -87 -51 -189 -44 -92 7 -148 21 -241 63 -33 15 -61 25 -63 23 -5 -6 -66
-286 -66 -303 0 -18 102 -59 205 -82 54 -12 117 -18 195 -17 177 1 301 41 399
129 97 87 136 189 129 344 -3 84 -8 105 -36 163 -56 114 -154 182 -386 269
-146 54 -188 112 -128 178 50 56 201 60 339 9 32 -11 66 -23 75 -26 18 -5 17
-10 64 181 32 127 34 123 -74 156 -111 35 -259 46 -372 29z"/>
<path d="M12135 3201 c-155 -26 -267 -84 -368 -191 -122 -130 -183 -283 -194
-485 -6 -127 6 -224 43 -334 68 -204 224 -353 424 -407 87 -23 261 -23 350 0
250 66 421 255 475 524 21 104 16 325 -9 417 -63 232 -229 404 -443 459 -74
19 -211 27 -278 17z m202 -322 c116 -55 183 -200 183 -396 0 -257 -114 -417
-296 -416 -70 1 -148 36 -190 86 -164 195 -127 602 63 714 81 47 157 51 240
12z"/>
<path d="M15873 3196 c-157 -30 -284 -121 -346 -245 -30 -62 -32 -71 -32 -181
0 -110 1 -118 33 -182 55 -113 161 -189 357 -257 109 -39 151 -64 171 -103 29
-56 -6 -118 -77 -138 -84 -24 -247 0 -367 55 -31 14 -59 22 -63 18 -6 -7 -69
-281 -69 -302 0 -5 28 -20 63 -34 205 -82 458 -83 635 -2 164 75 262 270 232
460 -28 177 -128 274 -381 370 -131 50 -168 72 -185 108 -29 60 12 111 101
128 60 11 178 -5 268 -36 39 -13 74 -21 78 -17 3 4 22 71 41 149 l35 142 -48
20 c-115 50 -318 71 -446 47z"/>
<path d="M1825 3188 c-82 -4 -172 -11 -200 -16 l-50 -7 -3 -680 c-1 -373 2
-683 6 -687 5 -5 84 -14 175 -20 185 -13 392 -2 502 27 146 39 242 110 298
224 30 62 32 72 32 176 0 100 -2 115 -28 167 -32 66 -98 128 -162 155 -51 21
-55 28 -21 37 13 3 49 29 80 57 74 68 100 133 94 240 -12 215 -164 321 -473
331 -55 2 -167 0 -250 -4z m318 -293 c46 -22 71 -67 64 -117 -10 -76 -72 -113
-209 -124 l-88 -7 0 131 0 131 33 4 c56 9 165 -1 200 -18z m18 -547 c53 -31
72 -67 71 -134 -2 -60 -32 -107 -85 -133 -48 -23 -150 -36 -201 -27 l-36 7 0
161 0 160 103 -4 c89 -3 108 -7 148 -30z"/>
<path d="M10475 3188 c-88 -4 -180 -11 -205 -15 l-45 -9 -3 -679 c-1 -373 2
-683 6 -687 5 -5 84 -14 175 -20 385 -27 665 42 829 207 77 77 138 185 170
302 28 106 31 337 5 433 -41 151 -114 259 -228 339 -160 113 -338 145 -704
129z m307 -299 c70 -15 139 -51 184 -96 154 -154 127 -513 -48 -642 -68 -50
-140 -72 -255 -78 l-103 -6 0 411 c0 383 1 411 18 415 34 9 152 7 204 -4z"/>
<path d="M3056 3163 c-3 -10 -87 -315 -186 -678 -99 -363 -183 -668 -186 -677
-5 -17 8 -18 173 -18 l179 0 23 103 c13 56 30 132 38 170 l15 67 177 -2 176
-3 45 -167 45 -168 189 0 c146 0 187 3 184 13 -3 6 -95 319 -204 694 l-199
683 -232 0 c-212 0 -232 -1 -237 -17z m289 -486 c33 -127 61 -240 63 -249 3
-16 -8 -18 -123 -18 -116 0 -126 1 -121 18 7 25 71 303 91 400 10 45 21 82 24
82 3 0 33 -105 66 -233z"/>
<path d="M3850 3020 l0 -160 170 0 170 0 0 -535 0 -535 170 0 170 0 0 535 0
535 173 2 172 3 3 158 3 157 -516 0 -515 0 0 -160z"/>
<path d="M5040 2485 l0 -695 170 0 170 0 0 695 0 695 -170 0 -170 0 0 -695z"/>
<path d="M8280 2485 l0 -695 170 0 170 0 0 695 0 695 -170 0 -170 0 0 -695z"/>
<path d="M8850 2485 l0 -695 162 0 161 0 -7 503 -6 502 44 -110 c53 -134 123
-287 287 -632 l124 -263 188 0 187 0 0 695 0 695 -160 0 -160 0 0 -212 c0
-231 16 -661 26 -693 4 -13 3 -17 -4 -10 -5 6 -23 50 -41 99 -57 159 -117 297
-244 559 l-126 257 -215 0 -216 0 0 -695z"/>
<path d="M13070 2485 l0 -695 156 0 156 0 -4 500 c-1 274 0 496 3 492 3 -4 18
-41 34 -82 44 -116 121 -288 274 -610 l140 -295 185 -3 186 -2 0 695 0 695
-155 0 -155 0 0 -307 c0 -170 5 -375 10 -457 6 -82 9 -151 6 -153 -2 -2 -14
26 -26 64 -48 143 -132 337 -255 591 l-128 262 -214 0 -213 0 0 -695z"/>
<path d="M14430 2485 l0 -695 445 0 445 0 0 155 0 155 -275 0 -275 0 0 120 0
120 250 0 250 0 0 155 0 155 -247 2 -248 3 -3 108 -3 107 266 0 265 0 0 155 0
155 -435 0 -435 0 0 -695z"/>
<path d="M16610 2485 l0 -695 170 0 170 0 0 695 0 695 -170 0 -170 0 0 -695z"/>
<path d="M17475 3168 c-5 -14 -359 -1304 -370 -1351 l-7 -27 177 2 178 3 33
145 c19 80 36 155 39 168 5 22 6 22 182 20 l176 -3 44 -164 c24 -91 45 -166
47 -168 2 -2 86 -2 188 -1 l184 3 -201 690 -202 690 -232 3 c-180 2 -233 0
-236 -10z m285 -488 c34 -129 63 -243 66 -252 5 -17 -5 -18 -120 -18 -69 0
-126 2 -126 5 0 3 20 92 44 198 24 106 49 218 56 250 6 32 13 57 15 55 2 -2
31 -109 65 -238z"/>
</g>
</svg>
