<svg width="16" height="17" viewBox="0 0 16 17" fill="none" xmlns="http://www.w3.org/2000/svg">
<g clip-path="url(#clip0_4849_161845)">
<path d="M14.2455 15.0011C11.7972 16.9997 4.15261 16.9997 1.75428 15.0011C-0.693998 13.0025 -0.444178 4.45845 1.75428 2.21003C3.95275 -0.0383931 12.0471 -0.0383931 14.2455 2.21003C16.444 4.45845 16.6938 13.0025 14.2455 15.0011Z" fill="#069550"/>
<g opacity="0.2">
<path opacity="0.2" d="M8.04991 11.5035C5.85145 13.2523 3.40316 14.1517 1.10478 14.2016C-0.594042 11.3037 -0.244272 4.25862 1.75433 2.21007C3.55307 0.361375 9.1991 0.0116051 12.4468 1.16079C13.2463 4.45848 11.5974 8.65551 8.04991 11.5035Z" fill="white"/>
</g>
<path d="M6.85077 12.9525C6.501 12.9525 6.15127 12.8026 5.9514 12.5028L3.15338 8.90533C2.75366 8.40569 2.8536 7.70619 3.35325 7.30646C3.85289 6.90673 4.55239 7.00668 4.95212 7.50632L6.85077 9.95461L11.0478 4.50844C11.4476 4.0088 12.1471 3.90885 12.6467 4.30858C13.1463 4.70831 13.2463 5.40781 12.8466 5.90745L7.75014 12.5028C7.50032 12.7526 7.20054 12.9525 6.85077 12.9525Z" fill="white"/>
</g>
<defs>
<clipPath id="clip0_4849_161845">
<rect width="16" height="16" fill="white" transform="translate(0 0.5)"/>
</clipPath>
</defs>
</svg>
