<svg width="20" height="20" viewBox="0 0 20 20" fill="none" xmlns="http://www.w3.org/2000/svg">
<path d="M10 1.66675C8.35182 1.66675 6.74066 2.15549 5.37025 3.07117C3.99984 3.98685 2.93174 5.28834 2.30101 6.81105C1.67027 8.33377 1.50525 10.0093 1.82679 11.6258C2.14833 13.2423 2.94201 14.7272 4.10744 15.8926C5.27288 17.0581 6.75774 17.8517 8.37425 18.1733C9.99076 18.4948 11.6663 18.3298 13.189 17.6991C14.7117 17.0683 16.0132 16.0002 16.9289 14.6298C17.8446 13.2594 18.3333 11.6483 18.3333 10.0001C18.3333 8.90573 18.1178 7.8221 17.699 6.81105C17.2802 5.80001 16.6664 4.88135 15.8926 4.10752C15.1187 3.3337 14.2001 2.71987 13.189 2.30109C12.178 1.8823 11.0943 1.66675 10 1.66675ZM10 16.6667C8.68146 16.6667 7.39253 16.2758 6.2962 15.5432C5.19987 14.8107 4.34539 13.7695 3.8408 12.5513C3.33622 11.3331 3.2042 9.99269 3.46143 8.69948C3.71867 7.40627 4.35361 6.21839 5.28596 5.28604C6.21831 4.35369 7.40619 3.71875 8.6994 3.46151C9.99261 3.20428 11.333 3.3363 12.5512 3.84088C13.7694 4.34547 14.8106 5.19995 15.5431 6.29628C16.2757 7.39261 16.6667 8.68154 16.6667 10.0001C16.6667 11.7682 15.9643 13.4639 14.714 14.7141C13.4638 15.9644 11.7681 16.6667 10 16.6667Z" fill="#424242"/>
<path d="M13.3333 9.16659H10.8333V6.66659C10.8333 6.44557 10.7455 6.23361 10.5893 6.07733C10.433 5.92105 10.221 5.83325 10 5.83325C9.77898 5.83325 9.56702 5.92105 9.41074 6.07733C9.25446 6.23361 9.16666 6.44557 9.16666 6.66659V9.99992C9.16666 10.2209 9.25446 10.4329 9.41074 10.5892C9.56702 10.7455 9.77898 10.8333 10 10.8333H13.3333C13.5543 10.8333 13.7663 10.7455 13.9226 10.5892C14.0789 10.4329 14.1667 10.2209 14.1667 9.99992C14.1667 9.77891 14.0789 9.56694 13.9226 9.41066C13.7663 9.25438 13.5543 9.16659 13.3333 9.16659Z" fill="#424242"/>
</svg>
