<svg width="18" height="18" viewBox="0 0 18 18" fill="none" xmlns="http://www.w3.org/2000/svg">
<path d="M3.16724 0.666748C1.79652 0.666748 0.666992 1.79608 0.666992 3.16669V9.83336C0.666992 11.2039 1.79652 12.3334 3.16724 12.3334H5.66911V14.835C5.66911 16.2056 6.79541 17.3334 8.1661 17.3334H14.8367C16.2074 17.3334 17.3337 16.2056 17.3337 14.835V8.16677C17.3337 6.79619 16.2074 5.67 14.8367 5.67H12.3348V3.16669C12.3348 1.79608 11.2053 0.666748 9.83456 0.666748H3.16724ZM3.16724 2.33334H9.83456C10.3106 2.33334 10.668 2.69066 10.668 3.16669V5.67H8.1661C6.79541 5.67 5.66911 6.79619 5.66911 8.16677V10.6667H3.16724C2.69117 10.6667 2.33382 10.3094 2.33382 9.83336V3.16669C2.33382 2.69066 2.69117 2.33334 3.16724 2.33334ZM8.1661 7.33015H14.8367C15.3128 7.33015 15.6668 7.6907 15.6668 8.16677V14.835C15.6668 15.311 15.3128 15.6667 14.8367 15.6667H8.1661C7.69 15.6667 7.33594 15.311 7.33594 14.835V8.16677C7.33594 7.6907 7.69 7.33025 8.1661 7.33025V7.33015Z" fill="#069550"/>
</svg>
