<svg width="40" height="40" viewBox="0 0 40 40" fill="none" xmlns="http://www.w3.org/2000/svg">
<path d="M4.99998 0H26.2412L37.4999 11.215V37.5C37.4999 38.8812 36.38 40 34.9999 40H4.99998C3.61994 40 2.5 38.8812 2.5 37.5V2.49998C2.5 1.11877 3.62007 0 4.99998 0Z" fill="#EF5350"/>
<path d="M37.4637 11.2499H28.75C27.3699 11.2499 26.25 10.13 26.25 8.74997V0.0249519L37.4637 11.2499Z" fill="#E53935"/>
<path d="M28.1217 18.9536C28.5405 18.9536 28.7455 18.5886 28.7455 18.2349C28.7455 17.8686 28.5317 17.5149 28.1217 17.5149H25.7367C25.2705 17.5149 25.0105 17.9011 25.0105 18.3274V24.1886C25.0105 24.7111 25.308 25.0011 25.7105 25.0011C26.1105 25.0011 26.4093 24.7111 26.4093 24.1886V22.5799H27.8518C28.2993 22.5799 28.523 22.2136 28.523 21.8499C28.523 21.4937 28.2993 21.1398 27.8518 21.1398H26.4093V18.9536H28.1217ZM20.0605 17.5149H18.3154C17.8417 17.5149 17.5054 17.8399 17.5054 18.3223V24.1936C17.5054 24.7923 17.9891 24.9799 18.3353 24.9799H20.1666C22.3341 24.9799 23.7653 23.5537 23.7653 21.3523C23.7642 19.0249 22.4167 17.5149 20.0605 17.5149ZM20.1443 23.5325H19.0805V18.9624H20.0392C21.4905 18.9624 22.1217 19.9362 22.1217 21.2799C22.1217 22.5375 21.5017 23.5325 20.1443 23.5325ZM13.7517 17.5149H12.023C11.5342 17.5149 11.2617 17.8373 11.2617 18.3274V24.1886C11.2617 24.7111 11.5742 25.0011 11.9942 25.0011C12.4141 25.0011 12.7266 24.7111 12.7266 24.1886V22.4773H13.8103C15.1478 22.4773 16.2516 21.5298 16.2516 20.0061C16.2517 18.5149 15.1867 17.5149 13.7517 17.5149ZM13.723 21.1025H12.7267V18.8912H13.723C14.338 18.8912 14.7293 19.3711 14.7293 19.9974C14.728 20.6225 14.338 21.1025 13.723 21.1025Z" fill="white"/>
</svg>
