<svg width="12" height="12" viewBox="0 0 12 12" fill="none" xmlns="http://www.w3.org/2000/svg">
<path d="M10.8176 8.1765L9.13416 7.98278C8.72667 7.93602 8.32586 8.0763 8.03861 8.36355L6.80278 9.59937C5.85487 9.1184 4.99514 8.49114 4.2523 7.74764C3.5088 7.0048 2.88154 6.14507 2.40057 5.19715L3.63639 3.96133C3.92364 3.67408 4.06392 3.27327 4.01716 2.86578L3.82344 1.18239C3.74328 0.507691 3.17546 0 2.49409 0H1.33842C0.583566 0 -0.0443681 0.627934 0.0023929 1.38279C0.179417 4.23455 1.4079 6.79906 3.30439 8.69555C5.20088 10.592 7.76539 11.8205 10.6171 11.9975C11.372 12.0443 11.9999 11.4164 11.9999 10.6615V9.50585C11.9999 8.82448 11.4922 8.25666 10.8176 8.1765Z" fill="white"/>
</svg>
