<svg width="64" height="65" viewBox="0 0 64 65" fill="none" xmlns="http://www.w3.org/2000/svg">
<rect y="0.5" width="64" height="64" rx="8" fill="#E6F6EC"/>
<g clip-path="url(#clip0_4587_126312)">
<path d="M41.1797 12.6094C41.0547 12.6719 40.1094 13.5547 39.0937 14.5781C37.5312 16.1563 37.2344 16.4922 37.1953 16.7344C37.0547 17.5 37.5625 18.125 38.3281 18.125C38.75 18.125 38.8984 18.0391 39.4844 17.4766L39.9687 16.9922L40.8125 17.8359L41.6484 18.6719L40.5547 19.7656L39.4609 20.8516L38.7187 20.6484C38.0625 20.4688 37.8359 20.4453 36.6875 20.4453C35.5312 20.4375 35.3203 20.4609 34.6172 20.6484C33.6953 20.8984 32.4766 21.4844 31.7656 22.0234C31.4844 22.2344 27.5078 26.1641 22.9219 30.7578C13.8984 39.7969 14.0625 39.6172 13.4453 41.0859C12.9609 42.2266 12.8281 42.9453 12.8281 44.2969C12.8281 45.6797 12.9687 46.3984 13.4766 47.5859C14.4297 49.7891 16.5 51.5781 18.8359 52.2109C21.25 52.8594 23.8984 52.3516 25.875 50.875C26.7109 50.2422 42.8594 34.0547 43.3594 33.3516C44.4844 31.7422 45.0391 29.6328 44.8281 27.7813C44.7734 27.3359 44.6562 26.7188 44.5703 26.4063L44.4141 25.8281L45.4922 24.75C46.3281 23.9063 46.5859 23.6953 46.6562 23.7734C46.8984 24.0234 47.5156 25.0313 47.8203 25.6641C49.5391 29.2656 49.125 33.4063 46.7109 36.6484C46.5078 36.9219 45.2656 38.2344 43.9531 39.5547C42.0547 41.4766 41.5391 41.9531 41.4141 41.9219C40.375 41.6484 40.1016 41.6094 39.5312 41.6953C37.9766 41.9219 36.7891 43.0859 36.5234 44.6406C36.3437 45.6875 36.7266 46.8438 37.4922 47.6094C39.2344 49.3516 42.0547 48.875 43.1484 46.6641C43.3906 46.1719 43.4297 46.0078 43.4609 45.375C43.4922 44.7891 43.4687 44.5547 43.3359 44.1406L43.1719 43.6328L45.6172 41.1719C48.25 38.5234 48.4766 38.2734 49.1328 37.2656C51.8594 33.0469 51.9062 27.6563 49.2422 23.3984C49 23.0078 48.6484 22.5078 48.4609 22.2734L48.1172 21.8516L48.2656 21.4688C48.9766 19.5938 47.8047 17.4141 45.8281 16.9063C45.2344 16.7578 44.3437 16.7891 43.7969 16.9922L43.4531 17.1172L42.5547 16.2109L41.6484 15.3125L42.1328 14.8281C42.7031 14.2344 42.7812 14.1016 42.7812 13.6484C42.7812 12.8281 41.9297 12.2734 41.1797 12.6094ZM45.6562 19.3672C45.9687 19.5859 46.1797 20.125 46.1016 20.5234C46.0547 20.7734 45.8359 21.0391 44.6406 22.2422L43.2344 23.6563L42.8594 23.2109C42.6484 22.9609 42.2812 22.5859 42.0391 22.3828L41.6016 22L42.9141 20.6797C43.6328 19.9531 44.3359 19.3125 44.4609 19.25C44.7812 19.1016 45.3594 19.1563 45.6562 19.3672ZM37.8437 22.8594C39.6016 23.2188 41.1016 24.375 41.8828 25.9609C42.3672 26.9609 42.5 27.5078 42.5 28.5938C42.5 30.2734 41.9922 31.4766 40.7344 32.7734L39.9766 33.5547L35.8281 29.4141L31.6797 25.2734L32.4141 24.5703C33.2109 23.8203 33.7344 23.4609 34.5078 23.1484C35.5078 22.7422 36.7578 22.6328 37.8437 22.8594ZM34.2031 31.0703L38.3203 35.1953L32.9766 40.5859L27.6328 45.9766L23.4687 41.8203L19.3047 37.6563L24.6562 32.3047C27.6016 29.3594 30.0234 26.9531 30.0469 26.9531C30.0703 26.9531 31.9375 28.8047 34.2031 31.0703ZM21.8203 43.4531C24.0703 45.7031 25.9062 47.5781 25.9062 47.625C25.9062 47.7578 24.7344 48.8359 24.2187 49.1797C21.5625 50.9453 17.9375 50.2266 16.1328 47.5703C15.4375 46.5469 15.1797 45.6641 15.1719 44.3359C15.1641 43.0469 15.4062 42.1797 16.0391 41.1797C16.3672 40.6719 17.5234 39.375 17.6562 39.375C17.7031 39.375 19.5781 41.2109 21.8203 43.4531ZM40.6719 44.2188C41.1484 44.5547 41.2891 45.3047 40.9609 45.7891C40.4531 46.5469 39.3437 46.4688 38.9453 45.6484C38.5547 44.8438 39.2031 43.9297 40.1016 44.0156C40.2734 44.0313 40.5391 44.125 40.6719 44.2188Z" fill="#069550"/>
</g>
<defs>
<clipPath id="clip0_4587_126312">
<rect width="40" height="40" fill="white" transform="translate(12 12.5)"/>
</clipPath>
</defs>
</svg>
